<svg width="323" height="394" viewBox="0 0 323 394" fill="none" xmlns="http://www.w3.org/2000/svg">
<g clip-path="url(#clip0_232_569)">
<path d="M311.333 394H0.386932C0.173282 394 0 393.753 0 393.447C0 393.141 0.173282 392.894 0.386932 392.894H311.333C311.547 392.894 311.72 393.141 311.72 393.447C311.72 393.753 311.547 394 311.333 394Z" fill="#CBCBCB"/>
<path d="M226.964 93.5496H224.802V34.2952C224.802 29.7916 223.916 25.332 222.193 21.1712C220.471 17.0103 217.946 13.2297 214.763 10.045C211.58 6.86044 207.802 4.33425 203.643 2.61072C199.484 0.887188 195.027 6.46811e-05 190.526 0L65.0533 0C55.9627 0.000130627 47.2444 3.61336 40.8163 10.0448C34.3883 16.4763 30.777 25.1993 30.7769 34.2947V359.373C30.7769 368.468 34.3881 377.191 40.8162 383.623C47.2442 390.055 55.9626 393.668 65.0533 393.668H190.526C199.617 393.668 208.335 390.055 214.764 383.623C221.192 377.192 224.803 368.468 224.803 359.373V135.728H226.965L226.964 93.5496Z" fill="#3F3D56"/>
<path d="M217.507 34.5356V359.133C217.51 362.494 216.851 365.822 215.569 368.928C214.286 372.034 212.405 374.856 210.032 377.235C207.659 379.613 204.842 381.5 201.74 382.789C198.638 384.078 195.313 384.743 191.954 384.746H65.832C62.4727 384.748 59.1459 384.088 56.0414 382.804C52.9369 381.52 50.1156 379.637 47.7386 377.262C45.3615 374.887 43.4753 372.067 42.1876 368.963C40.8998 365.859 40.2358 362.531 40.2334 359.17V34.5356C40.231 31.1746 40.8903 27.8459 42.1736 24.7398C43.4569 21.6337 45.3392 18.8109 47.7128 16.4326C50.0865 14.0543 52.9051 12.167 56.0077 10.8786C59.1104 9.59017 62.4363 8.92579 65.7955 8.9234H81.1256C80.3723 10.7709 80.0847 12.7754 80.2883 14.7603C80.4918 16.7453 81.1801 18.6496 82.2926 20.3056C83.4052 21.9616 84.9077 23.3184 86.6679 24.2564C88.428 25.1945 90.3917 25.6849 92.386 25.6846H164.271C166.265 25.6849 168.229 25.1945 169.989 24.2564C171.749 23.3184 173.252 21.9616 174.365 20.3056C175.477 18.6496 176.165 16.7453 176.369 14.7603C176.572 12.7754 176.285 10.7709 175.532 8.9234H191.908C195.267 8.92035 198.593 9.57922 201.697 10.8624C204.801 12.1455 207.623 14.0279 210 16.4019C212.377 18.7759 214.263 21.5951 215.551 24.6986C216.839 27.802 217.504 31.1289 217.507 34.4893V34.5356Z" fill="white"/>
<path d="M319.257 234.661C317.1 232.09 314.517 230.343 312.197 229.671L284.916 198.815C284.916 198.815 282.638 170.092 280.815 160.061C278.992 150.03 266.687 152.766 266.687 152.766L268.054 181.489L275.804 212.493L307.727 239.61C308.313 240.677 309.003 241.684 309.787 242.617C313.67 247.247 318.939 249.217 321.555 247.019C324.17 244.821 323.142 239.288 319.258 234.661H319.257Z" fill="#9F616A"/>
<path d="M188.211 234.661C190.367 232.09 192.951 230.343 195.27 229.671L222.551 198.815C222.551 198.815 224.829 170.092 226.652 160.061C228.475 150.03 240.781 152.766 240.781 152.766L239.414 181.489L231.667 212.493L199.743 239.61C199.157 240.677 198.467 241.684 197.684 242.617C193.8 247.247 188.532 249.217 185.916 247.019C183.301 244.821 184.329 239.288 188.213 234.661H188.211Z" fill="#9F616A"/>
<path d="M250.61 148.891L252.834 136.718L261.498 136.127L264.09 152.907L250.61 148.891Z" fill="#9F616A"/>
<path d="M216.753 348.311L205.206 347.651L206.721 383.107L214.545 383.555L216.753 348.311Z" fill="#9F616A"/>
<path d="M205.257 371.897L209.884 373.726L209.878 376.158C209.878 376.158 210.994 373.344 216.984 372.73L217.7 375.087C217.7 375.087 220.023 377.402 219.624 381.583L218.098 392.785L213.581 392.695L212.851 384.9C212.851 384.9 211.607 383.131 205.875 391.536C205.875 391.536 199.56 392.915 189.781 390.072C189.16 389.931 188.603 389.589 188.195 389.099C187.787 388.61 187.55 388 187.521 387.363C187.505 386.992 187.63 386.628 187.87 386.345C188.11 386.061 188.449 385.878 188.818 385.833C191.314 385.261 193.752 385.986 195.365 384.257C196.978 382.528 205.257 371.897 205.257 371.897Z" fill="#2F2E41"/>
<path d="M278.725 348.311L267.178 347.651L268.693 383.107L276.517 383.555L278.725 348.311Z" fill="#9F616A"/>
<path d="M267.384 373.111L272.007 374.941L272.001 377.372C272.001 377.372 273.117 374.558 279.104 373.944L279.819 376.301C279.819 376.301 282.141 378.616 281.742 382.797L280.216 393.999L275.701 393.909L274.972 386.114C274.972 386.114 273.728 384.345 267.999 392.75C267.999 392.75 261.687 394.129 251.914 391.287C251.293 391.145 250.736 390.803 250.328 390.313C249.92 389.824 249.683 389.214 249.655 388.578C249.639 388.206 249.763 387.842 250.003 387.559C250.243 387.275 250.582 387.093 250.95 387.047C253.446 386.475 255.883 387.2 257.494 385.471C259.106 383.742 267.384 373.111 267.384 373.111Z" fill="#2F2E41"/>
<path d="M257.714 143.887C265.264 143.887 271.384 137.764 271.384 130.21C271.384 122.655 265.264 116.532 257.714 116.532C250.164 116.532 244.043 122.655 244.043 130.21C244.043 137.764 250.164 143.887 257.714 143.887Z" fill="#9F616A"/>
<path d="M265.465 132.483C265.465 132.483 259.455 122.644 253.438 123.73C250.351 124.249 247.296 124.939 244.285 125.798C244.285 125.798 241.835 117.953 250.061 114.189C250.061 114.189 241.2 111.08 253.605 104.822C266.011 98.5637 273.732 104.629 273.732 104.629C273.732 104.629 281.223 106.697 269.838 114.763C269.838 114.763 279.691 125.993 269.739 136.721C269.739 136.721 271.496 128.553 269.106 130.227C267.953 131.072 266.736 131.827 265.466 132.486L265.465 132.483Z" fill="#2F2E41"/>
<path d="M266.917 149.803L248.234 147.523L233.88 159.147C233.88 159.147 226.742 179.049 232.059 191.064C232.186 191.352 232.287 211.353 232.287 211.353H271.98C271.98 211.353 271.941 197.739 273.456 192.809C273.59 192.253 273.846 191.735 274.206 191.292C276.484 189.013 281.953 174.423 279.219 168.04C276.484 161.657 266.917 149.803 266.917 149.803Z" fill="#501F6B"/>
<path d="M232.058 210.441L206.995 290.228L201.527 353.146H216.792L229.779 294.789L247.666 261.006L265.325 357.705H280.733L280.362 226.854L271.95 210.441H232.058Z" fill="#2F2E41"/>
<path d="M253.326 306.726C286.166 306.726 312.789 280.089 312.789 247.232C312.789 214.374 286.166 187.737 253.326 187.737C220.486 187.737 193.864 214.374 193.864 247.232C193.864 280.089 220.486 306.726 253.326 306.726Z" fill="#E6DAEC"/>
<path d="M270.277 282.059H236.378C234.558 282.035 232.823 281.29 231.552 279.987C230.281 278.685 229.578 276.931 229.598 275.111V268.162C229.598 254.751 240.243 243.841 253.325 243.841C266.408 243.841 277.053 254.751 277.053 268.162V275.111C277.073 276.93 276.371 278.684 275.1 279.986C273.83 281.289 272.096 282.034 270.277 282.059ZM253.325 250.789C243.979 250.789 236.376 258.582 236.376 268.161V275.111H270.282L270.277 268.162C270.277 258.582 262.673 250.789 253.325 250.789Z" fill="#501F6B"/>
<path d="M236.378 212.404H270.277C272.097 212.429 273.832 213.174 275.103 214.477C276.374 215.779 277.077 217.533 277.057 219.354V226.303C277.057 239.713 266.412 250.624 253.329 250.624C240.247 250.624 229.598 239.713 229.598 226.303V219.354C229.578 217.533 230.281 215.779 231.552 214.477C232.823 213.174 234.558 212.429 236.378 212.404ZM253.325 243.675C262.672 243.675 270.275 235.882 270.275 226.303V219.354H236.373L236.378 226.303C236.378 235.882 243.981 243.675 253.325 243.675Z" fill="#501F6B"/>
<path d="M234.418 231.839H271.328L268.685 242.288L253.026 244.952L236.628 242.112L234.418 231.839Z" fill="#501F6B"/>
<path d="M234.418 278.671H271.328L270.512 271.574L253.292 266.838L235.556 271.574L234.418 278.671Z" fill="#501F6B"/>
<path d="M128.871 186.399C162.717 186.399 190.155 158.946 190.155 125.082C190.155 91.2172 162.717 63.7646 128.871 63.7646C95.0244 63.7646 67.5864 91.2172 67.5864 125.082C67.5864 158.946 95.0244 186.399 128.871 186.399Z" fill="#501F6B"/>
<path d="M174.267 216.226H83.6875C79.3375 216.226 75.811 219.754 75.811 224.107V230.017C75.811 234.37 79.3375 237.898 83.6875 237.898H174.267C178.617 237.898 182.143 234.37 182.143 230.017V224.107C182.143 219.754 178.617 216.226 174.267 216.226Z" fill="#F2F2F2"/>
<path d="M175.99 252.182H81.9645C78.566 252.182 75.811 254.938 75.811 258.339C75.811 261.739 78.566 264.495 81.9645 264.495H175.99C179.388 264.495 182.143 261.739 182.143 258.339C182.143 254.938 179.388 252.182 175.99 252.182Z" fill="#F2F2F2"/>
<path d="M175.99 270.406H81.9645C78.566 270.406 75.811 273.162 75.811 276.563C75.811 279.963 78.566 282.719 81.9645 282.719H175.99C179.388 282.719 182.143 279.963 182.143 276.563C182.143 273.162 179.388 270.406 175.99 270.406Z" fill="#F2F2F2"/>
<circle cx="118.447" cy="107.249" r="9.54659" transform="rotate(179.172 118.447 107.249)" stroke="white"/>
<circle cx="133.127" cy="120.473" r="9.54659" transform="rotate(-138.596 133.127 120.473)" stroke="white"/>
<circle cx="147.812" cy="133.688" r="9.54659" transform="rotate(-94.619 147.812 133.688)" stroke="white"/>
<circle cx="114.539" cy="126.882" r="9.54659" transform="rotate(-138.596 114.539 126.882)" stroke="white"/>
<circle cx="129.223" cy="140.098" r="9.54659" transform="rotate(-138.596 129.223 140.098)" stroke="white"/>
<circle cx="110.533" cy="145.815" r="9.54659" transform="rotate(-88.7945 110.533 145.815)" stroke="white"/>
<path d="M138.291 95.3917C138.261 95.4425 138.232 95.493 138.202 95.5433M138.202 95.5433C134.58 101.793 134.492 104.96 139.061 109.654C144.059 104.558 142.384 101.353 138.202 95.5433Z" stroke="white"/>
<path d="M166.258 109.747C166.168 109.707 166.078 109.667 165.989 109.628M165.989 109.628C154.872 104.732 149.562 105.171 142.564 113.678C152.008 121.088 157.054 117.693 165.989 109.628Z" stroke="white"/>
</g>
<defs>
<clipPath id="clip0_232_569">
<rect width="323" height="394" fill="white"/>
</clipPath>
</defs>
</svg>
