<svg width="290" height="176" viewBox="0 0 290 176" fill="none" xmlns="http://www.w3.org/2000/svg">
<g clip-path="url(#clip0_247_154)">
<path d="M255.314 11.3304L180.681 59.8108C180.396 59.9957 180.197 60.2858 180.127 60.6175C180.056 60.9491 180.12 61.2951 180.305 61.5796L213.157 112.153C213.341 112.437 213.632 112.636 213.963 112.707C214.295 112.777 214.641 112.713 214.925 112.529L289.559 64.0484C289.714 63.9477 289.845 63.8146 289.943 63.6582C290.042 63.5018 290.105 63.3259 290.129 63.1426C290.132 63.1278 290.133 63.1129 290.134 63.0979C290.147 62.9776 290.142 62.856 290.118 62.7373C290.089 62.5733 290.026 62.417 289.935 62.2775L257.084 11.7052C256.899 11.4208 256.608 11.2216 256.277 11.1513C255.945 11.081 255.598 11.1454 255.314 11.3304ZM289.629 62.4777C289.727 62.6272 289.777 62.8021 289.776 62.9804C289.774 63.1379 289.732 63.2923 289.655 63.4296C289.583 63.556 289.482 63.6632 289.36 63.7422L214.727 112.223C214.523 112.354 214.276 112.4 214.039 112.35C213.802 112.299 213.595 112.157 213.463 111.954L180.611 61.3807C180.479 61.1775 180.434 60.9302 180.484 60.6933C180.534 60.4564 180.677 60.2491 180.88 60.1169L255.513 11.6365C255.716 11.5045 255.963 11.4585 256.201 11.5087C256.438 11.5589 256.645 11.7012 256.778 11.9043L289.629 62.4777Z" fill="#3F3D56"/>
<path d="M259.025 15.0305L182.553 64.7053L182.752 65.0118L259.224 15.337L259.025 15.0305Z" fill="#3F3D56"/>
<path d="M184.457 61.9342C184.965 61.6043 185.109 60.9251 184.779 60.4173C184.449 59.9094 183.77 59.7651 183.262 60.095C182.754 60.4249 182.61 61.1041 182.94 61.612C183.27 62.1198 183.949 62.2641 184.457 61.9342Z" fill="#3F3D56"/>
<path d="M187.101 60.2169C187.608 59.887 187.753 59.2079 187.423 58.7C187.093 58.1921 186.414 58.0479 185.906 58.3778C185.398 58.7077 185.254 59.3868 185.584 59.8947C185.914 60.4025 186.593 60.5468 187.101 60.2169Z" fill="#3F3D56"/>
<path d="M189.744 58.4996C190.252 58.1697 190.396 57.4906 190.066 56.9827C189.736 56.4748 189.057 56.3306 188.549 56.6605C188.042 56.9904 187.897 57.6695 188.227 58.1774C188.557 58.6852 189.236 58.8295 189.744 58.4996Z" fill="#3F3D56"/>
<path d="M220.011 62.2481L200.675 74.8084C200.426 74.9634 200.126 75.0144 199.839 74.9506C199.553 74.8867 199.303 74.713 199.143 74.4669C198.983 74.2207 198.926 73.9216 198.984 73.6339C199.042 73.3461 199.211 73.0927 199.454 72.9279L218.79 60.3676C219.039 60.2126 219.339 60.1616 219.626 60.2254C219.912 60.2893 220.162 60.4629 220.322 60.7091C220.482 60.9553 220.539 61.2543 220.481 61.5421C220.423 61.8298 220.254 62.0833 220.011 62.2481Z" fill="#501F6B"/>
<path d="M232.47 55.2959L199.272 76.8606C199.24 76.8817 199.2 76.8891 199.162 76.881C199.124 76.8729 199.091 76.8501 199.07 76.8175C199.048 76.7849 199.041 76.7452 199.049 76.7072C199.057 76.6692 199.08 76.6359 199.113 76.6147L232.31 55.0501C232.343 55.0289 232.383 55.0216 232.421 55.0297C232.459 55.0377 232.492 55.0606 232.513 55.0932C232.534 55.1258 232.542 55.1654 232.534 55.2035C232.525 55.2415 232.503 55.2747 232.47 55.2959Z" fill="#3F3D56"/>
<path d="M225.127 70.1238L205.791 82.6841C205.542 82.8391 205.242 82.8901 204.955 82.8263C204.669 82.7624 204.419 82.5888 204.259 82.3426C204.099 82.0964 204.042 81.7973 204.1 81.5096C204.158 81.2219 204.327 80.9684 204.57 80.8036L223.906 68.2433C224.155 68.0883 224.455 68.0373 224.742 68.1011C225.028 68.165 225.278 68.3386 225.438 68.5848C225.598 68.831 225.655 69.1301 225.597 69.4178C225.539 69.7055 225.37 69.959 225.127 70.1238Z" fill="#501F6B"/>
<path d="M237.586 63.1712L204.388 84.7358C204.355 84.757 204.316 84.7643 204.278 84.7562C204.24 84.7482 204.206 84.7253 204.185 84.6927C204.164 84.6601 204.157 84.6205 204.165 84.5824C204.173 84.5444 204.196 84.5112 204.228 84.49L237.426 62.9253C237.459 62.9042 237.498 62.8968 237.536 62.9049C237.574 62.913 237.608 62.9358 237.629 62.9684C237.65 63.001 237.657 63.0407 237.649 63.0787C237.641 63.1167 237.618 63.15 237.586 63.1712Z" fill="#3F3D56"/>
<path d="M230.242 77.9986L210.906 90.5589C210.657 90.7138 210.357 90.7649 210.07 90.701C209.784 90.6372 209.534 90.4635 209.374 90.2173C209.214 89.9712 209.157 89.6721 209.215 89.3844C209.273 89.0966 209.442 88.8432 209.685 88.6784L229.021 76.1181C229.27 75.9631 229.57 75.9121 229.857 75.9759C230.143 76.0398 230.393 76.2134 230.553 76.4596C230.713 76.7058 230.77 77.0048 230.712 77.2926C230.654 77.5803 230.485 77.8338 230.242 77.9986Z" fill="#F2F2F2"/>
<path d="M242.701 71.0462L209.504 92.6108C209.471 92.632 209.432 92.6393 209.393 92.6313C209.355 92.6232 209.322 92.6003 209.301 92.5677C209.28 92.5351 209.273 92.4955 209.281 92.4574C209.289 92.4194 209.312 92.3862 209.344 92.365L242.542 70.8003C242.574 70.7792 242.614 70.7718 242.652 70.7799C242.69 70.788 242.723 70.8108 242.745 70.8434C242.766 70.876 242.773 70.9157 242.765 70.9537C242.757 70.9917 242.734 71.025 242.701 71.0462Z" fill="#3F3D56"/>
<path d="M114.387 61.7809C114.605 61.8804 114.815 61.9972 115.014 62.1303L134.924 53.6323L135.635 48.3874L143.59 48.3386L143.12 60.3688L116.841 67.3196C116.786 67.5023 116.719 67.6813 116.642 67.8559C116.262 68.6667 115.651 69.3471 114.885 69.8117C114.12 70.2764 113.234 70.5045 112.34 70.4674C111.445 70.4303 110.581 70.1297 109.857 69.6034C109.133 69.0771 108.58 68.3484 108.268 67.509C107.957 66.6696 107.9 65.7568 108.106 64.8853C108.311 64.0137 108.769 63.2224 109.423 62.6105C110.077 61.9987 110.897 61.5936 111.78 61.4462C112.663 61.2989 113.57 61.4158 114.387 61.7822V61.7809Z" fill="#A0616A"/>
<path d="M146.484 170.789H141.042L138.453 149.797H146.485L146.484 170.789Z" fill="#A0616A"/>
<path d="M137.154 169.234H147.65V175.84H130.545C130.545 174.088 131.242 172.407 132.481 171.167C133.72 169.928 135.401 169.232 137.154 169.232V169.234Z" fill="#2F2E41"/>
<path d="M167.65 169.251L162.234 169.784L157.599 149.147L165.593 148.36L167.65 169.251Z" fill="#A0616A"/>
<path d="M158.211 168.621L168.657 167.592L169.304 174.169L152.283 175.845C152.111 174.101 152.639 172.36 153.751 171.005C154.863 169.65 156.467 168.792 158.212 168.621L158.211 168.621Z" fill="#2F2E41"/>
<path d="M147.999 26.1223C154.02 26.1223 158.902 21.2408 158.902 15.2192C158.902 9.19763 154.02 4.31616 147.999 4.31616C141.977 4.31616 137.096 9.19763 137.096 15.2192C137.096 21.2408 141.977 26.1223 147.999 26.1223Z" fill="#A0616A"/>
<path d="M139.825 166.544C139.357 166.545 138.904 166.381 138.546 166.08C138.187 165.78 137.946 165.362 137.865 164.901C135.051 149.267 125.841 98.135 125.62 96.7185C125.615 96.6859 125.613 96.6529 125.613 96.62V92.8076C125.613 92.6688 125.656 92.5333 125.737 92.4205L126.953 90.7168C127.011 90.6348 127.087 90.5671 127.175 90.519C127.263 90.4709 127.361 90.4437 127.461 90.4393C134.396 90.1144 157.108 89.1613 158.205 90.5321C159.307 91.9082 158.918 96.0841 158.827 96.9067L158.831 96.9924L169.035 162.248C169.115 162.769 168.986 163.3 168.678 163.726C168.369 164.153 167.905 164.441 167.385 164.528L161.013 165.578C160.538 165.654 160.052 165.557 159.642 165.305C159.233 165.053 158.928 164.663 158.782 164.205C156.811 157.906 150.201 136.718 147.911 128.519C147.896 128.468 147.863 128.423 147.818 128.394C147.773 128.365 147.719 128.353 147.666 128.36C147.613 128.368 147.564 128.394 147.529 128.435C147.494 128.476 147.475 128.527 147.475 128.581C147.59 136.397 147.866 156.336 147.964 163.223L147.974 163.965C147.978 164.467 147.794 164.953 147.457 165.325C147.121 165.698 146.657 165.931 146.157 165.979L140.012 166.535C139.95 166.541 139.889 166.544 139.825 166.544Z" fill="#2F2E41"/>
<path d="M141.079 30.4099C139.177 31.541 138.038 33.6194 137.384 35.7369C136.175 39.6527 135.447 43.7013 135.216 47.7933L134.526 60.0454L125.978 92.5268C133.387 98.7954 137.66 97.3704 147.633 92.2432C157.606 87.1159 158.745 93.9527 158.745 93.9527L160.739 66.3153L163.588 36.1147C162.948 35.3446 162.224 34.6486 161.43 34.0398C158.796 31.9916 155.732 30.5678 152.469 29.8758C149.205 29.1837 145.827 29.2414 142.589 30.0445L141.079 30.4099Z" fill="#501F6B"/>
<path d="M138.303 68.3407C138.533 68.4267 138.755 68.5306 138.969 68.6515L158.656 58.7965L158.982 53.458L167.103 52.8982L167.538 65.0673L141.229 73.7681C141.015 74.6901 140.524 75.5248 139.824 76.1614C139.123 76.7979 138.245 77.206 137.307 77.3313C136.368 77.4567 135.414 77.2934 134.571 76.8631C133.728 76.4329 133.036 75.7561 132.586 74.9228C132.137 74.0895 131.952 73.1392 132.057 72.1983C132.161 71.2574 132.549 70.3705 133.17 69.6556C133.79 68.9408 134.614 68.4318 135.531 68.1965C136.447 67.9611 137.414 68.0105 138.302 68.3381L138.303 68.3407Z" fill="#A0616A"/>
<path d="M163.446 36.2504C168.289 37.9599 169.143 56.4815 169.143 56.4815C163.445 53.3474 156.606 58.476 156.606 58.476C156.606 58.476 155.182 53.632 153.472 47.3638C152.956 45.6007 152.894 43.7356 153.293 41.9422C153.691 40.1488 154.537 38.4853 155.751 37.1067C155.751 37.1067 158.602 34.54 163.446 36.2504Z" fill="#501F6B"/>
<path d="M157.775 18.1031C156.417 17.0164 154.563 18.9909 154.563 18.9909L153.476 9.21098C153.476 9.21098 146.685 10.0247 142.337 8.9393C137.989 7.85393 137.31 12.8791 137.31 12.8791C137.086 10.8492 137.041 8.80366 137.175 6.76589C137.446 4.32079 140.978 1.87525 147.227 0.245182C153.476 -1.38488 156.736 5.67918 156.736 5.67918C161.084 7.85215 159.133 19.1898 157.775 18.1031Z" fill="#2F2E41"/>
<path d="M288.664 113.166H199.709C199.37 113.166 199.045 113.301 198.806 113.541C198.566 113.78 198.431 114.105 198.431 114.444V174.722C198.431 175.061 198.566 175.386 198.806 175.626C199.045 175.865 199.37 176 199.709 176H288.664C288.849 176 289.031 175.96 289.199 175.883C289.367 175.805 289.516 175.693 289.636 175.552C289.646 175.541 289.655 175.529 289.664 175.517C289.74 175.423 289.802 175.318 289.847 175.206C289.911 175.053 289.944 174.888 289.944 174.721V114.444C289.944 114.105 289.809 113.78 289.569 113.54C289.329 113.3 289.003 113.166 288.664 113.166ZM289.579 174.722C289.579 174.901 289.526 175.075 289.428 175.223C289.34 175.354 289.221 175.461 289.082 175.534C288.953 175.601 288.809 175.636 288.664 175.635H199.709C199.467 175.635 199.235 175.539 199.064 175.368C198.893 175.197 198.796 174.964 198.796 174.722V114.444C198.796 114.202 198.893 113.97 199.064 113.799C199.235 113.627 199.467 113.531 199.709 113.531H288.664C288.906 113.531 289.139 113.627 289.31 113.798C289.482 113.969 289.578 114.202 289.579 114.444V174.722Z" fill="#3F3D56"/>
<path d="M289.76 118.288H198.613V118.653H289.76V118.288Z" fill="#3F3D56"/>
<path d="M201.719 117.002C202.324 117.002 202.815 116.511 202.815 115.906C202.815 115.301 202.324 114.81 201.719 114.81C201.113 114.81 200.623 115.301 200.623 115.906C200.623 116.511 201.113 117.002 201.719 117.002Z" fill="#3F3D56"/>
<path d="M204.869 117.002C205.475 117.002 205.966 116.511 205.966 115.906C205.966 115.301 205.475 114.81 204.869 114.81C204.264 114.81 203.773 115.301 203.773 115.906C203.773 116.511 204.264 117.002 204.869 117.002Z" fill="#3F3D56"/>
<path d="M208.02 117.002C208.626 117.002 209.116 116.511 209.116 115.906C209.116 115.301 208.626 114.81 208.02 114.81C207.415 114.81 206.924 115.301 206.924 115.906C206.924 116.511 207.415 117.002 208.02 117.002Z" fill="#3F3D56"/>
<path d="M231.35 136.624H208.303C208.01 136.618 207.73 136.497 207.525 136.288C207.32 136.078 207.205 135.797 207.205 135.503C207.205 135.21 207.32 134.928 207.525 134.719C207.73 134.509 208.01 134.388 208.303 134.383H231.35C231.643 134.388 231.922 134.509 232.128 134.719C232.333 134.928 232.448 135.21 232.448 135.503C232.448 135.797 232.333 136.078 232.128 136.288C231.922 136.497 231.643 136.618 231.35 136.624Z" fill="#501F6B"/>
<path d="M245.578 137.58H206.01C205.971 137.58 205.934 137.565 205.906 137.537C205.879 137.51 205.863 137.472 205.863 137.434C205.863 137.395 205.879 137.357 205.906 137.33C205.934 137.303 205.971 137.287 206.01 137.287H245.578C245.617 137.287 245.654 137.303 245.682 137.33C245.709 137.357 245.724 137.395 245.724 137.434C245.724 137.472 245.709 137.51 245.682 137.537C245.654 137.565 245.617 137.58 245.578 137.58Z" fill="#3F3D56"/>
<path d="M231.35 146.011H208.303C208.01 146.005 207.73 145.885 207.525 145.675C207.32 145.466 207.205 145.184 207.205 144.89C207.205 144.597 207.32 144.315 207.525 144.106C207.73 143.896 208.01 143.776 208.303 143.77H231.35C231.643 143.776 231.922 143.896 232.128 144.106C232.333 144.315 232.448 144.597 232.448 144.89C232.448 145.184 232.333 145.466 232.128 145.675C231.922 145.885 231.643 146.005 231.35 146.011Z" fill="#501F6B"/>
<path d="M245.578 146.967H206.01C205.971 146.967 205.934 146.951 205.906 146.924C205.879 146.896 205.863 146.859 205.863 146.82C205.863 146.781 205.879 146.744 205.906 146.717C205.934 146.689 205.971 146.674 206.01 146.674H245.578C245.617 146.674 245.654 146.689 245.682 146.717C245.709 146.744 245.724 146.781 245.724 146.82C245.724 146.859 245.709 146.896 245.682 146.924C245.654 146.951 245.617 146.967 245.578 146.967Z" fill="#3F3D56"/>
<path d="M231.35 155.397H208.303C208.01 155.391 207.73 155.27 207.525 155.061C207.32 154.851 207.205 154.57 207.205 154.276C207.205 153.983 207.32 153.701 207.525 153.492C207.73 153.282 208.01 153.161 208.303 153.156H231.35C231.643 153.161 231.922 153.282 232.128 153.492C232.333 153.701 232.448 153.983 232.448 154.276C232.448 154.57 232.333 154.851 232.128 155.061C231.922 155.27 231.643 155.391 231.35 155.397Z" fill="#F2F2F2"/>
<path d="M245.578 156.353H206.01C205.971 156.353 205.934 156.338 205.906 156.31C205.879 156.283 205.863 156.245 205.863 156.207C205.863 156.168 205.879 156.13 205.906 156.103C205.934 156.076 205.971 156.06 206.01 156.06H245.578C245.617 156.06 245.654 156.076 245.682 156.103C245.709 156.13 245.724 156.168 245.724 156.207C245.724 156.245 245.709 156.283 245.682 156.31C245.654 156.338 245.617 156.353 245.578 156.353Z" fill="#3F3D56"/>
<path d="M108.257 52.7935H1.53329C1.12674 52.7938 0.73695 52.9555 0.449479 53.2429C0.162007 53.5304 0.00035265 53.9202 0 54.3268V126.646C0.00035265 127.052 0.162007 127.442 0.449479 127.73C0.73695 128.017 1.12674 128.179 1.53329 128.179H108.257C108.479 128.179 108.698 128.131 108.899 128.038C109.101 127.945 109.279 127.81 109.423 127.641C109.435 127.628 109.446 127.614 109.456 127.599C109.549 127.487 109.623 127.362 109.678 127.228C109.755 127.043 109.795 126.846 109.794 126.646V54.3268C109.794 54.1252 109.754 53.9256 109.677 53.7394C109.599 53.5532 109.486 53.3841 109.343 53.2417C109.201 53.0993 109.031 52.9864 108.845 52.9095C108.659 52.8326 108.459 52.7932 108.257 52.7935ZM109.355 126.646C109.355 126.86 109.292 127.069 109.174 127.247C109.068 127.404 108.926 127.532 108.758 127.62C108.604 127.7 108.432 127.742 108.257 127.741H1.53329C1.24295 127.741 0.964602 127.626 0.759298 127.42C0.553995 127.215 0.438499 126.937 0.438146 126.646V54.3268C0.438499 54.0364 0.553995 53.7581 0.759298 53.5528C0.964602 53.3475 1.24295 53.232 1.53329 53.2316H108.257C108.548 53.2315 108.827 53.3468 109.033 53.5523C109.239 53.7577 109.354 54.0364 109.355 54.3272V126.646Z" fill="#3F3D56"/>
<path d="M109.572 58.9382H0.218262V59.3764H109.572V58.9382Z" fill="#3F3D56"/>
<path d="M3.94379 57.3954C4.66998 57.3954 5.25867 56.8067 5.25867 56.0805C5.25867 55.3543 4.66998 54.7656 3.94379 54.7656C3.2176 54.7656 2.62891 55.3543 2.62891 56.0805C2.62891 56.8067 3.2176 57.3954 3.94379 57.3954Z" fill="#3F3D56"/>
<path d="M7.72406 57.3954C8.45025 57.3954 9.03895 56.8067 9.03895 56.0805C9.03895 55.3543 8.45025 54.7656 7.72406 54.7656C6.99787 54.7656 6.40918 55.3543 6.40918 56.0805C6.40918 56.8067 6.99787 57.3954 7.72406 57.3954Z" fill="#3F3D56"/>
<path d="M11.5043 57.3954C12.2305 57.3954 12.8192 56.8067 12.8192 56.0805C12.8192 55.3543 12.2305 54.7656 11.5043 54.7656C10.7781 54.7656 10.1895 55.3543 10.1895 56.0805C10.1895 56.8067 10.7781 57.3954 11.5043 57.3954Z" fill="#3F3D56"/>
<path d="M84.0847 97.1377H47.568C47.1278 97.1377 46.7056 96.9629 46.3944 96.6516C46.0831 96.3403 45.9082 95.9181 45.9082 95.4779C45.9082 95.0377 46.0831 94.6155 46.3944 94.3043C46.7056 93.993 47.1278 93.8181 47.568 93.8181H84.0847C84.5249 93.8181 84.9471 93.993 85.2583 94.3043C85.5696 94.6155 85.7445 95.0377 85.7445 95.4779C85.7445 95.9181 85.5696 96.3403 85.2583 96.6516C84.9471 96.9629 84.5249 97.1377 84.0847 97.1377Z" fill="#F2F2F2"/>
<path d="M60.2246 90.0833H47.5685C47.1283 90.0833 46.7061 89.9084 46.3948 89.5971C46.0835 89.2859 45.9087 88.8637 45.9087 88.4235C45.9087 87.9833 46.0835 87.5611 46.3948 87.2498C46.7061 86.9385 47.1283 86.7637 47.5685 86.7637H60.2246C60.6648 86.7637 61.087 86.9385 61.3983 87.2498C61.7095 87.5611 61.8844 87.9833 61.8844 88.4235C61.8844 88.8637 61.7095 89.2859 61.3983 89.5971C61.087 89.9084 60.6648 90.0833 60.2246 90.0833Z" fill="#F2F2F2"/>
<path d="M31.0284 99.1601C34.9244 99.1601 38.0827 96.0018 38.0827 92.1058C38.0827 88.2098 34.9244 85.0515 31.0284 85.0515C27.1324 85.0515 23.9741 88.2098 23.9741 92.1058C23.9741 96.0018 27.1324 99.1601 31.0284 99.1601Z" fill="#501F6B"/>
<path d="M87.745 81.3168H21.9741C21.039 81.3181 20.1426 81.6901 19.4813 82.3514C18.8201 83.0126 18.4481 83.9091 18.4468 84.8442V99.3678C18.4482 100.303 18.8202 101.199 19.4813 101.86C20.1425 102.521 21.0387 102.893 21.9737 102.895H87.745C88.68 102.893 89.5764 102.521 90.2375 101.86C90.8986 101.199 91.2706 100.302 91.2719 99.3674V84.8433C91.2706 83.9082 90.8986 83.0119 90.2375 82.3506C89.5764 81.6894 88.68 81.3173 87.745 81.3159V81.3168ZM90.8573 99.3674C90.8563 100.193 90.5281 100.984 89.9447 101.567C89.3612 102.151 88.5701 102.479 87.745 102.48H21.9741C21.149 102.479 20.3579 102.151 19.7744 101.567C19.191 100.984 18.8628 100.193 18.8618 99.3674V84.8433C18.8628 84.0181 19.191 83.2271 19.7744 82.6436C20.3579 82.0601 21.149 81.7319 21.9741 81.731H87.745C88.5701 81.7319 89.3612 82.0601 89.9447 82.6436C90.5281 83.2271 90.8563 84.0181 90.8573 84.8433V99.3674Z" fill="#3F3D56"/>
</g>
<defs>
<clipPath id="clip0_247_154">
<rect width="289.943" height="176" fill="white"/>
</clipPath>
</defs>
</svg>
