<svg width="311" height="216" viewBox="0 0 311 216" fill="none" xmlns="http://www.w3.org/2000/svg">
<g clip-path="url(#clip0_247_378)">
<path opacity="0.1" d="M231.83 86.5479H264.762C265.928 86.5479 266.874 87.4933 266.874 88.6595V95.6682C266.874 96.8344 265.928 97.7799 264.762 97.7799H231.83C230.664 97.7799 229.719 96.8344 229.719 95.6682V88.6595C229.719 87.4933 230.664 86.5479 231.83 86.5479Z" fill="#501F6B"/>
<path opacity="0.1" d="M192.948 97.7826H225.879C227.045 97.7826 227.991 98.728 227.991 99.8943V106.903C227.991 108.069 227.045 109.015 225.879 109.015H192.948C191.781 109.015 190.836 108.069 190.836 106.903V99.8943C190.836 98.728 191.781 97.7826 192.948 97.7826Z" fill="#501F6B"/>
<path opacity="0.1" d="M154.062 109.015H186.993C188.16 109.015 189.105 109.96 189.105 111.126V118.135C189.105 119.301 188.16 120.247 186.993 120.247H154.062C152.896 120.247 151.95 119.301 151.95 118.135V111.126C151.95 109.96 152.896 109.015 154.062 109.015Z" fill="#501F6B"/>
<path opacity="0.1" d="M231.83 69.6998H264.762C265.928 69.6998 266.874 70.6453 266.874 71.8115V78.8201C266.874 79.9864 265.928 80.9318 264.762 80.9318H231.83C230.664 80.9318 229.719 79.9864 229.719 78.8201V71.8115C229.719 70.6453 230.664 69.6998 231.83 69.6998Z" fill="#501F6B"/>
<path opacity="0.1" d="M192.948 80.9318H225.879C227.045 80.9318 227.991 81.8772 227.991 83.0434V90.0521C227.991 91.2183 227.045 92.1638 225.879 92.1638H192.948C191.781 92.1638 190.836 91.2183 190.836 90.0521V83.0434C190.836 81.8772 191.781 80.9318 192.948 80.9318Z" fill="#501F6B"/>
<path opacity="0.1" d="M154.062 92.1666H186.993C188.16 92.1666 189.105 93.1121 189.105 94.2783V101.287C189.105 102.453 188.16 103.399 186.993 103.399H154.062C152.896 103.399 151.95 102.453 151.95 101.287V94.2783C151.95 93.1121 152.896 92.1666 154.062 92.1666Z" fill="#501F6B"/>
<path opacity="0.1" d="M110.859 86.5479H143.791C144.957 86.5479 145.902 87.4933 145.902 88.6595V95.6682C145.902 96.8344 144.957 97.7799 143.791 97.7799H110.859C109.693 97.7799 108.748 96.8344 108.748 95.6682V88.6595C108.748 87.4933 109.693 86.5479 110.859 86.5479Z" fill="#501F6B"/>
<path opacity="0.1" d="M71.9764 97.7826H104.908C106.074 97.7826 107.02 98.728 107.02 99.8943V106.903C107.02 108.069 106.074 109.015 104.908 109.015H71.9764C70.8101 109.015 69.8647 108.069 69.8647 106.903V99.8943C69.8647 98.728 70.8101 97.7826 71.9764 97.7826Z" fill="#501F6B"/>
<path opacity="0.1" d="M33.0906 109.015H66.0221C67.1884 109.015 68.1338 109.96 68.1338 111.126V118.135C68.1338 119.301 67.1884 120.247 66.0221 120.247H33.0906C31.9244 120.247 30.979 119.301 30.979 118.135V111.126C30.979 109.96 31.9244 109.015 33.0906 109.015Z" fill="#501F6B"/>
<path opacity="0.1" d="M110.859 69.6998H143.791C144.957 69.6998 145.902 70.6453 145.902 71.8115V78.8201C145.902 79.9864 144.957 80.9318 143.791 80.9318H110.859C109.693 80.9318 108.748 79.9864 108.748 78.8201V71.8115C108.748 70.6453 109.693 69.6998 110.859 69.6998Z" fill="#501F6B"/>
<path opacity="0.1" d="M71.9764 80.9318H104.908C106.074 80.9318 107.02 81.8772 107.02 83.0434V90.0521C107.02 91.2183 106.074 92.1638 104.908 92.1638H71.9764C70.8101 92.1638 69.8647 91.2183 69.8647 90.0521V83.0434C69.8647 81.8772 70.8101 80.9318 71.9764 80.9318Z" fill="#501F6B"/>
<path opacity="0.1" d="M33.0906 92.1666H66.0221C67.1884 92.1666 68.1338 93.1121 68.1338 94.2783V101.287C68.1338 102.453 67.1884 103.399 66.0221 103.399H33.0906C31.9244 103.399 30.979 102.453 30.979 101.287V94.2783C30.979 93.1121 31.9244 92.1666 33.0906 92.1666Z" fill="#501F6B"/>
<path opacity="0.1" d="M231.83 47.2329H264.762C265.928 47.2329 266.874 48.1783 266.874 49.3446V56.3532C266.874 57.5195 265.928 58.4649 264.762 58.4649H231.83C230.664 58.4649 229.719 57.5195 229.719 56.3532V49.3446C229.719 48.1783 230.664 47.2329 231.83 47.2329Z" fill="#501F6B"/>
<path opacity="0.1" d="M192.948 58.465H225.879C227.045 58.465 227.991 59.4104 227.991 60.5766V67.5853C227.991 68.7515 227.045 69.697 225.879 69.697H192.948C191.781 69.697 190.836 68.7515 190.836 67.5853V60.5766C190.836 59.4104 191.781 58.465 192.948 58.465Z" fill="#501F6B"/>
<path opacity="0.1" d="M154.062 69.6998H186.993C188.16 69.6998 189.105 70.6453 189.105 71.8115V78.8201C189.105 79.9864 188.16 80.9318 186.993 80.9318H154.062C152.896 80.9318 151.95 79.9864 151.95 78.8201V71.8115C151.95 70.6453 152.896 69.6998 154.062 69.6998Z" fill="#501F6B"/>
<path opacity="0.1" d="M231.83 30.3821H264.762C265.928 30.3821 266.874 31.3275 266.874 32.4938V39.5024C266.874 40.6686 265.928 41.6141 264.762 41.6141H231.83C230.664 41.6141 229.719 40.6686 229.719 39.5024V32.4938C229.719 31.3275 230.664 30.3821 231.83 30.3821Z" fill="#501F6B"/>
<path opacity="0.1" d="M192.948 41.6169H225.879C227.045 41.6169 227.991 42.5624 227.991 43.7286V50.7373C227.991 51.9035 227.045 52.8489 225.879 52.8489H192.948C191.781 52.8489 190.836 51.9035 190.836 50.7373V43.7286C190.836 42.5624 191.781 41.6169 192.948 41.6169Z" fill="#501F6B"/>
<path opacity="0.1" d="M154.062 52.849H186.993C188.16 52.849 189.105 53.7944 189.105 54.9607V61.9693C189.105 63.1356 188.16 64.081 186.993 64.081H154.062C152.896 64.081 151.95 63.1356 151.95 61.9693V54.9607C151.95 53.7944 152.896 52.849 154.062 52.849Z" fill="#501F6B"/>
<path opacity="0.1" d="M110.859 47.2329H143.791C144.957 47.2329 145.902 48.1783 145.902 49.3446V56.3532C145.902 57.5195 144.957 58.4649 143.791 58.4649H110.859C109.693 58.4649 108.748 57.5195 108.748 56.3532V49.3446C108.748 48.1783 109.693 47.2329 110.859 47.2329Z" fill="#501F6B"/>
<path opacity="0.1" d="M71.9764 58.465H104.908C106.074 58.465 107.02 59.4104 107.02 60.5766V67.5853C107.02 68.7515 106.074 69.697 104.908 69.697H71.9764C70.8101 69.697 69.8647 68.7515 69.8647 67.5853V60.5766C69.8647 59.4104 70.8101 58.465 71.9764 58.465Z" fill="#501F6B"/>
<path opacity="0.1" d="M33.0906 69.6998H66.0221C67.1884 69.6998 68.1338 70.6453 68.1338 71.8115V78.8201C68.1338 79.9864 67.1884 80.9318 66.0221 80.9318H33.0906C31.9244 80.9318 30.979 79.9864 30.979 78.8201V71.8115C30.979 70.6453 31.9244 69.6998 33.0906 69.6998Z" fill="#501F6B"/>
<path opacity="0.1" d="M110.859 30.3821H143.791C144.957 30.3821 145.902 31.3275 145.902 32.4938V39.5024C145.902 40.6686 144.957 41.6141 143.791 41.6141H110.859C109.693 41.6141 108.748 40.6686 108.748 39.5024V32.4938C108.748 31.3275 109.693 30.3821 110.859 30.3821Z" fill="#501F6B"/>
<path opacity="0.1" d="M71.9764 41.6169H104.908C106.074 41.6169 107.02 42.5624 107.02 43.7286V50.7373C107.02 51.9035 106.074 52.8489 104.908 52.8489H71.9764C70.8101 52.8489 69.8647 51.9035 69.8647 50.7373V43.7286C69.8647 42.5624 70.8101 41.6169 71.9764 41.6169Z" fill="#501F6B"/>
<path opacity="0.1" d="M33.0906 52.849H66.0221C67.1884 52.849 68.1338 53.7944 68.1338 54.9607V61.9693C68.1338 63.1356 67.1884 64.081 66.0221 64.081H33.0906C31.9244 64.081 30.979 63.1356 30.979 61.9693V54.9607C30.979 53.7944 31.9244 52.849 33.0906 52.849Z" fill="#501F6B"/>
<path opacity="0.1" d="M155.463 216C69.6032 216 -6.10352e-05 203.339 -6.10352e-05 187.721C-6.10352e-05 172.103 69.6032 159.442 155.463 159.442C241.323 159.442 310.926 172.103 310.926 187.721C310.926 203.339 241.323 216 155.463 216Z" fill="#501F6B"/>
<path d="M242.716 91.2316L255.79 171.379L196.674 165.126L199.232 158.305L245.416 162.142L234.616 91.0895L242.716 91.2316Z" fill="#3F3D56"/>
<path d="M258.063 0.284211L178.484 0L155.463 174.221L235.326 185.021L258.063 0.284211Z" fill="#3F3D56"/>
<path d="M249.395 6.96313H185.163L162.71 168.963L228.931 178.058L249.395 6.96313Z" fill="white"/>
<path d="M188.818 161.676C188.414 162.449 188.113 163.285 187.587 163.981C186.053 166.033 183.139 166.354 180.954 167.693C180.844 167.748 180.754 167.835 180.695 167.943C180.596 168.179 180.817 168.426 181.031 168.574C182.688 169.736 184.862 169.762 186.888 169.748C187.569 169.772 188.25 169.707 188.915 169.554C189.986 169.27 190.904 168.523 191.961 168.218C192.51 168.082 193.071 168.002 193.635 167.983L195.855 167.832C196.446 167.823 197.031 167.715 197.586 167.511C197.862 167.405 198.107 167.231 198.298 167.005C198.489 166.779 198.619 166.508 198.677 166.218C198.74 165.746 198.538 165.288 198.419 164.828C198.134 163.736 198.222 162.418 197.373 161.673C197.023 161.405 196.621 161.212 196.193 161.105C194.649 160.584 193.072 160.165 191.472 159.848C190.157 159.59 189.401 160.556 188.818 161.676Z" fill="#3F3D56"/>
<path d="M213.925 167.823C213.868 168.429 213.851 169.122 214.289 169.546C214.562 169.772 214.891 169.92 215.241 169.972C217.341 170.461 219.683 170.495 221.511 169.353C221.701 169.244 221.869 169.1 222.005 168.929C222.158 168.696 222.244 168.426 222.255 168.147C222.321 167.343 222.074 166.55 221.849 165.774C221.318 163.933 220.914 162.058 220.641 160.161C220.618 160.005 215.278 161.014 214.923 161.542C214.477 162.196 214.474 163.765 214.354 164.544C214.174 165.631 214.031 166.725 213.925 167.823Z" fill="#3F3D56"/>
<path d="M194.047 93.8662L192.626 107.079C192.342 109.779 192.044 112.493 192.24 115.202C192.467 118.328 193.342 121.454 192.973 124.552C192.828 125.757 192.498 126.94 192.45 128.153C192.441 128.96 192.482 129.767 192.572 130.569C193.215 138.587 191.182 146.542 190.046 154.502C189.863 155.484 189.823 156.488 189.926 157.481C190.074 158.49 190.37 159.814 189.472 160.292L197.907 163.35C198.984 162 198.271 159.9 198.475 158.186C198.663 156.643 199.51 155.267 199.962 153.781C200.371 152.445 200.456 151.038 200.59 149.651C201.326 142.1 203.585 134.744 204.114 127.176C204.131 126.445 204.226 125.718 204.398 125.007C204.682 124.066 205.251 123.245 205.666 122.361C206.302 121.034 206.615 119.579 206.922 118.141L208.727 109.685C210.551 112.402 210.478 115.938 210.838 119.195C211.344 123.742 212.476 128.213 213.396 132.704C213.61 133.67 213.771 134.647 213.877 135.631C214.115 138.266 213.641 140.926 213.894 143.558C214.178 146.607 215.46 149.583 215.15 152.632C214.979 154.321 214.331 155.918 213.894 157.555C213.456 159.192 213.24 160.988 213.908 162.548C216.242 161.691 218.75 161.414 221.215 161.741C223.924 158.97 224.404 155.105 224.589 151.226C224.773 147.346 224.327 143.461 224.81 139.618C224.952 138.482 225.174 137.373 225.211 136.239C225.33 132.604 223.582 129.202 222.713 125.669C221.93 122.489 221.855 119.176 222.494 115.964C222.92 113.84 223.654 111.78 223.915 109.628C224.27 106.613 223.668 103.575 223.062 100.596C222.656 98.5869 222.252 96.5775 221.792 94.5795C221.297 92.4338 220.709 90.2425 219.388 88.4861C217.273 85.6752 213.519 84.4275 210.009 84.7004C206.499 84.9732 203.222 86.5705 200.323 88.56C198.038 90.0869 195.933 91.8669 194.047 93.8662Z" fill="#192534"/>
<path d="M203.478 43.271C203.637 43.5271 203.748 43.8103 203.805 44.1066C203.876 44.6892 203.52 45.2235 203.236 45.7323C202.872 46.3859 202.592 47.083 202.404 47.807C202.268 48.2551 202.227 48.7263 202.281 49.1911C202.351 49.5403 202.475 49.8761 202.651 50.1859C203.199 51.2431 204.012 52.2208 205.118 52.6613C205.974 52.9766 206.908 53.0144 207.786 52.7693C208.659 52.5222 209.485 52.1302 210.228 51.6097C210.854 51.2128 211.417 50.7242 211.899 50.1603C212.359 49.5436 212.746 48.8761 213.053 48.1708C213.644 46.9345 214.244 45.6129 214.136 44.2572C214.13 44.1343 214.107 44.0128 214.068 43.8963C213.975 43.6857 213.846 43.4933 213.687 43.3279C212.474 41.8909 211.852 40.0472 211.947 38.1694L207.806 39.1102C206.894 39.3176 205.982 39.5251 205.081 39.7837C204.342 39.9969 203.205 40.2925 202.725 40.9519C202.244 41.6112 203.151 42.6685 203.478 43.271Z" fill="#FBBEBE"/>
<path d="M205.694 42.5662C201.538 42.5662 198.168 39.1967 198.168 35.0403C198.168 30.8839 201.538 27.5144 205.694 27.5144C209.851 27.5144 213.22 30.8839 213.22 35.0403C213.22 39.1967 209.851 42.5662 205.694 42.5662Z" fill="#FBBEBE"/>
<path d="M206.905 50.2229C206.587 49.5266 205.899 49.086 205.271 48.6484C204.643 48.2107 204.006 47.6508 203.884 46.8919C203.877 46.7203 203.834 46.552 203.759 46.3974C203.518 46.0336 202.944 46.2155 202.6 46.4827C201.764 47.1335 201.196 48.0572 200.641 48.9582C199.924 50.0538 199.311 51.2136 198.808 52.4227C198.01 54.5287 197.913 56.8279 197.825 59.076C197.745 61.1224 197.669 63.1999 198.166 65.1837C198.479 66.4399 199.019 67.6592 199.05 68.9524C199.144 73.6504 200.775 78.1409 200.889 82.8389C200.897 84.1973 200.829 85.5552 200.684 86.9059L200.417 89.9555C204.549 89.7187 208.67 89.3558 212.78 88.867C212.899 87.463 213.3 86.1016 213.667 84.7431C215.168 79.189 216.13 73.5031 216.54 67.7644C216.759 64.7176 216.984 61.6823 217.322 58.6469C217.626 55.8872 218.223 53.1105 217.865 50.3565C217.677 49.1047 217.283 47.8927 216.699 46.7697C216.515 46.3224 216.197 45.9424 215.79 45.6812C215.586 45.5828 215.37 45.513 215.148 45.4737C214.503 45.3432 213.849 45.2662 213.192 45.2435C213.032 45.23 212.87 45.2454 212.715 45.289C212.438 45.427 212.21 45.6475 212.064 45.9199C210.798 47.8237 209.005 49.3186 206.905 50.2229Z" fill="#F2F2F2"/>
<path d="M210.396 49.6203C209.867 50.3763 208.747 50.5554 208.258 51.3256C208.094 51.6475 207.969 51.9882 207.886 52.3402C207.588 53.2923 206.985 54.1194 206.618 55.0487C206.09 56.3845 206.076 57.8624 206.07 59.2977C206.018 60.4409 206.106 61.5863 206.331 62.7082C206.502 63.4102 206.78 64.0781 206.985 64.7716C207.333 65.9509 207.462 67.1838 207.366 68.4095C207.366 68.6743 207.295 68.9342 207.161 69.1626C206.968 69.3909 206.717 69.5619 206.434 69.6572C205.601 70.0238 204.728 70.399 203.819 70.3137C203.632 70.3078 203.452 70.2476 203.299 70.1403C203.193 70.0443 203.107 69.9296 203.043 69.8021L202.475 68.8415C201.96 67.9633 201.423 66.9799 201.622 65.9766C201.766 65.4588 201.984 64.9641 202.267 64.5073C202.63 63.7659 202.94 62.9994 203.194 62.2137C204.1 59.6075 205.018 56.9643 205.223 54.2132C205.343 53.1661 205.227 52.1055 204.882 51.1096C204.615 50.4967 204.279 49.916 203.881 49.3787C203.971 49.258 204.096 49.1675 204.239 49.1193C204.381 49.071 204.535 49.0674 204.68 49.1087C204.966 49.1971 205.243 49.3122 205.507 49.4526C206.343 49.8051 207.269 49.6772 208.113 49.4356C208.443 49.339 208.966 49.0093 209.307 49.032C209.424 49.0462 210.376 49.6544 210.396 49.6203Z" fill="#501F6B"/>
<path d="M203.742 49.5891C203.912 49.4526 204.177 49.3276 204.327 49.4868C204.378 49.5558 204.415 49.6339 204.435 49.717C204.583 50.1149 205.018 50.311 205.413 50.4644C205.808 50.6179 206.234 50.7032 206.473 50.4104C206.548 50.2965 206.585 50.1614 206.579 50.025C206.572 49.8885 206.522 49.7577 206.436 49.6516C206.261 49.441 206.051 49.263 205.814 49.1258C204.506 48.203 203.616 46.8018 203.335 45.2264C202.969 45.5178 202.726 45.9372 202.656 46.4002C202.562 46.8521 202.551 47.3182 202.457 47.7701C202.318 48.4181 202.008 49.0235 201.937 49.68C201.9 50.0296 201.937 50.382 201.937 50.7316C201.924 51.0734 201.884 51.4136 201.818 51.7491C202.483 51.0442 202.952 50.2172 203.742 49.5891Z" fill="#F2F2F2"/>
<path d="M209.494 47.6592C209.778 47.3892 210.063 47.1334 210.347 46.8577C211.594 45.6405 212.536 44.1456 213.095 42.4951C213.459 42.7793 213.86 43.1545 213.868 43.632C213.836 43.9698 213.705 44.2909 213.493 44.5556C212.418 46.2482 211.709 48.1465 211.41 50.129C211.256 49.8891 211.044 49.6928 210.792 49.5589C210.541 49.425 210.259 49.3581 209.974 49.3645C209.525 49.3645 207.51 50.5582 207.365 50.2569C207.152 49.7851 209.153 47.9804 209.494 47.6592Z" fill="#F2F2F2"/>
<path d="M203.148 45.3969C200.475 48.0583 197.202 50.0397 193.604 51.1749C193.247 51.2529 192.915 51.4212 192.641 51.6638C192.436 51.9196 192.298 52.2224 192.24 52.5448C191.547 55.2562 191.314 58.0614 191.083 60.8495C191.023 61.3106 191.033 61.7782 191.112 62.2364C191.279 62.981 191.808 63.5836 192.328 64.1435C193.96 65.8914 195.821 67.7188 196.097 70.0948C196.118 70.5529 196.172 71.0088 196.259 71.459C196.401 71.9877 196.716 72.4538 196.91 72.9682C197.859 75.5005 195.713 78.5671 197.021 80.9261C196.313 82.2858 195.827 83.75 195.582 85.2631C195.539 85.8368 195.407 86.4003 195.193 86.9343C194.804 87.7471 194.002 88.2644 193.371 88.9238C191.447 90.8962 191.211 93.9145 191.098 96.6685C191.027 98.2203 191.049 100.002 192.234 101.02C192.919 101.614 193.854 101.807 194.75 101.955C195.941 102.154 197.236 102.296 198.291 101.708C199.047 101.287 199.561 100.551 200.053 99.8403C200.985 98.4846 201.92 97.1318 202.804 95.742C204.203 93.5507 205.521 91.0468 205.118 88.4776C205.231 91.1065 205.786 93.7554 207.076 96.0461C208.366 98.3368 210.444 100.25 212.965 101.006C215.486 101.762 218.433 101.227 220.312 99.3856C220.925 98.7542 221.451 98.0441 221.878 97.2739C222.947 95.4426 223.727 93.4572 224.191 91.3879C224.313 90.8507 224.404 90.251 224.134 89.7707C224.006 89.5434 223.81 89.3643 223.677 89.1398C223.228 88.3753 223.66 87.4118 224.094 86.633C224.757 86.6956 225.231 85.9168 225.172 85.2518C225.112 84.5867 224.714 84.0098 224.433 83.4044C223.608 81.6196 223.79 79.542 224.188 77.6179C224.586 75.6938 225.18 73.781 225.135 71.8171C225.086 69.7396 226.581 67.8695 227.721 66.1329C228.358 65.1553 229.099 64.2458 229.654 63.2198C230.809 61.0607 231.076 58.5358 230.398 56.1827C230 54.9744 229.478 53.8105 228.841 52.7097L227.903 50.9504C227.728 50.53 227.457 50.1567 227.112 49.8604C226.766 49.5642 226.355 49.3534 225.913 49.2451L219.425 46.6873C218.595 46.4039 217.807 46.01 217.083 45.5163C216.29 44.9195 215.699 44.0953 214.943 43.4586C214.833 43.3429 214.7 43.2504 214.554 43.1864C214.408 43.1225 214.25 43.0884 214.09 43.0863C213.482 43.1403 213.266 43.9077 213.203 44.5074C213.061 45.8488 212.067 46.9857 211.728 48.2902C209.898 55.4949 206.024 62.1398 204.961 69.4951C203.768 66.6275 202.574 63.7541 201.045 61.0541C200.804 60.6665 200.601 60.2562 200.44 59.8291C200.256 59.2131 200.188 58.5686 200.238 57.9278C200.315 56.0776 200.806 54.27 201.292 52.4823C201.923 50.0495 202.492 47.807 203.148 45.3969Z" fill="#3F3D56"/>
<path d="M190.782 67.4118C190.657 68.6226 190.535 69.8362 190.31 71.0327C190.049 72.4168 189.651 73.7696 189.256 75.1225C189.063 75.8829 188.786 76.6197 188.431 77.3194C188.303 77.5225 188.201 77.7413 188.127 77.9703C187.988 78.5387 188.306 79.1071 188.443 79.6755C188.852 81.3808 187.624 83.2765 188.397 84.8482C188.63 85.3256 189.037 85.7207 189.19 86.2323C189.369 86.8206 189.19 87.4487 189.096 88.0569C188.855 89.7621 189.438 91.4958 190.012 93.1357L190.989 95.9039C191.882 94.2442 192.783 92.5673 194.016 91.1434C194.457 90.6318 194.937 90.1572 195.343 89.6172C195.949 88.7686 196.428 87.836 196.764 86.849C197.632 84.5038 198.128 82.0374 198.234 79.5391C198.304 78.8288 198.222 78.1117 197.992 77.4359C197.804 77.0451 197.593 76.6655 197.361 76.2991C196.6 74.9264 196.443 73.3007 196.458 71.7318C196.472 70.163 196.639 68.5885 196.458 67.0282C196.309 65.7254 195.924 64.4607 195.321 63.2965C194.965 62.5426 194.436 61.8833 193.777 61.3724C193.286 61.0043 192.686 60.8094 192.072 60.8182C191.143 60.8722 191.356 61.6708 191.276 62.441L190.782 67.4118Z" fill="#3F3D56"/>
<path d="M232.587 63.5438C233.166 65.249 233.689 66.9695 234.155 68.705C234.61 70.4103 235.017 72.125 235.375 73.8492C235.559 74.6074 235.662 75.3829 235.682 76.1627C235.645 77.0707 235.49 77.9699 235.218 78.8371C233.388 85.4337 230.051 91.5186 226.294 97.2398C225.221 95.9008 223.945 94.7368 222.514 93.7895C222.397 93.7201 222.299 93.6224 222.23 93.5052C222.194 93.3947 222.183 93.2775 222.199 93.1623C222.215 93.0471 222.257 92.937 222.321 92.8402C223.358 90.7143 225.001 88.8413 225.518 86.5307C225.734 85.5701 225.743 84.5697 225.987 83.6147C226.303 82.3784 227.008 81.2472 227.17 79.9797C227.343 78.5984 226.885 77.0921 227.533 75.8671C226.212 75.3527 225.447 73.9914 224.887 72.6868C224.289 71.3522 223.861 69.9476 223.614 68.5061C223.225 65.7425 223.766 62.928 225.152 60.5056C225.829 59.2972 226.697 58.2068 227.724 57.2769C228.062 56.9728 228.861 56.1003 229.352 56.1088C230.009 56.123 230.219 57.186 230.407 57.6635C231.166 59.6131 231.916 61.5657 232.587 63.5438Z" fill="#3F3D56"/>
<path d="M220.814 95.3554C220.729 95.418 220.633 95.5032 220.655 95.6055C220.678 95.7079 220.76 95.7334 220.834 95.7761C221.219 96.0486 221.505 96.4371 221.653 96.8845C222.125 97.9489 222.537 99.0392 222.886 100.15C223.522 99.1972 224.27 98.3241 225.115 97.5495C225.763 96.9527 226.487 96.3871 226.834 95.58C226.834 95.5572 225.345 94.4573 225.208 94.338C224.791 93.9656 224.265 92.934 223.833 92.7066C223.344 92.4508 222.878 93.4541 222.505 93.8576C221.993 94.4122 221.427 94.914 220.814 95.3554Z" fill="#FBBEBE"/>
<path d="M197.703 33.8637C197.723 33.4914 197.771 33.0793 198.055 32.8377C198.305 32.6651 198.605 32.582 198.908 32.6018C200.565 32.5478 202.278 32.8264 203.842 32.2693C204.87 31.9027 205.749 31.1978 206.752 30.7601C207.755 30.3225 209.04 30.2059 209.85 30.942C210.464 31.5105 210.631 32.383 210.845 33.1873C211.314 34.9625 212.149 36.6199 213.297 38.053C214.068 37.8142 214.619 37.1265 214.974 36.4046C216.182 33.9433 215.588 31.0046 214.73 28.3955C214.446 27.5201 214.13 26.6533 213.815 25.7893L213.121 23.8794C212.211 23.79 211.365 23.3692 210.745 22.6971L210.447 23.4218C209.676 23.3941 208.932 23.1313 208.315 22.6687C208.076 23.1177 207.462 23.2371 206.965 23.0921C206.468 22.9472 206.039 22.6687 205.544 22.5237C204.222 22.0974 202.813 22.7539 201.426 22.8278C200.839 22.8135 200.252 22.8306 199.667 22.879C198.03 23.1433 196.873 24.6837 196.373 26.2639C196.04 27.3155 195.764 28.6087 194.727 28.981C194.704 29.3789 195.409 29.4556 195.469 29.8336C195.476 29.9596 195.446 30.085 195.384 30.1946L194.431 32.238C194.887 32.3523 195.365 32.3286 195.807 32.1698C196.236 33.1788 197.66 34.6339 197.703 33.8637Z" fill="#192534"/>
<path d="M149.455 38.3115C148.972 39.8699 148.593 41.4583 148.318 43.0664C148.113 44.2714 147.994 45.61 148.685 46.6162C146.053 42.6571 143.304 38.5787 139.306 36.0236C140.12 35.1407 140.739 34.0964 141.124 32.9584C141.508 31.8205 141.649 30.6144 141.537 29.4186C141.514 29.1798 144.819 30.4275 145.072 30.5696C146.232 31.2148 147.295 32.0163 148.426 32.7069C149.011 33.0622 151.45 33.9034 151.473 34.4122C151.473 34.739 150.503 35.7394 150.322 36.0833C149.965 36.7978 149.675 37.5437 149.455 38.3115Z" fill="#FBBEBE"/>
<path d="M137.225 187.63C137.875 187.172 138.637 186.899 139.429 186.839C140.222 186.779 141.016 186.934 141.727 187.289C143.015 187.954 143.882 189.213 145.052 190.066C147.065 191.527 149.722 191.643 152.078 192.433C152.703 192.644 153.369 192.956 153.633 193.57C153.721 193.828 153.757 194.101 153.737 194.374C153.717 194.646 153.642 194.911 153.516 195.153C153.122 196.031 152.432 196.742 151.567 197.162C150.509 197.668 149.293 197.691 148.122 197.705L137.947 197.825C134.821 197.862 131.675 197.899 128.568 198.288C127.844 198.379 127.059 198.478 126.42 198.123C125.379 197.555 125.26 196.117 125.34 194.931C125.549 191.929 126.22 188.976 127.329 186.178C127.451 185.868 127.613 185.516 127.957 185.459C128.201 185.448 128.441 185.524 128.634 185.675C131.504 187.38 135.139 188.343 138.192 186.979" fill="white"/>
<path d="M132.132 122.716C133.269 129.319 132.527 136.103 131.248 142.677C131.013 143.985 130.703 145.28 130.319 146.553C129.862 148.003 129.245 149.395 128.816 150.853C127.724 154.548 127.878 158.499 128.04 162.355L128.784 179.905C128.847 181.377 128.904 182.884 128.46 184.288C128.281 184.856 128.062 185.567 128.514 185.95C128.691 186.077 128.898 186.157 129.114 186.181C131.148 186.555 133.248 186.24 135.082 185.285L135.284 167.556C135.347 162.091 135.412 156.603 136.253 151.206C136.921 146.914 138.081 142.679 138.158 138.337C138.237 133.789 137.123 129.302 135.986 124.893C135.742 123.95 134.849 123.259 134.116 122.62C133.86 122.367 133.549 122.179 133.207 122.068C132.866 121.975 132.343 122.429 132.132 122.716Z" fill="#3F3D56"/>
<path opacity="0.1" d="M132.132 122.716C133.269 129.319 132.527 136.103 131.248 142.677C131.013 143.985 130.703 145.28 130.319 146.553C129.862 148.003 129.245 149.395 128.816 150.853C127.724 154.548 127.878 158.499 128.04 162.355L128.784 179.905C128.847 181.377 128.904 182.884 128.46 184.288C128.281 184.856 128.062 185.567 128.514 185.95C128.691 186.077 128.898 186.157 129.114 186.181C131.148 186.555 133.248 186.24 135.082 185.285L135.284 167.556C135.347 162.091 135.412 156.603 136.253 151.206C136.921 146.914 138.081 142.679 138.158 138.337C138.237 133.789 137.123 129.302 135.986 124.893C135.742 123.95 134.849 123.259 134.116 122.62C133.86 122.367 133.549 122.179 133.207 122.068C132.866 121.975 132.343 122.429 132.132 122.716Z" fill="black"/>
<path d="M153.474 102.083C153.894 103.814 153.002 105.607 153.101 107.386C153.158 108.463 153.582 109.538 153.385 110.595C153.189 111.652 152.433 112.448 152.03 113.417C151.735 114.227 151.58 115.08 151.569 115.941C151.453 118.067 151.547 120.204 151.626 122.321C151.76 125.874 151.859 129.447 151.39 132.968C150.982 136.019 150.153 138.998 148.926 141.821C148.554 142.589 148.247 143.387 148.008 144.206C147.851 144.969 147.747 145.742 147.696 146.519C147.425 149.047 146.747 151.515 145.686 153.826C144.961 155.409 143.697 156.668 143.296 158.348C142.915 159.957 143.171 161.653 142.895 163.282C142.693 164.49 142.202 165.632 141.929 166.826C141.574 168.369 141.582 169.969 141.403 171.544C140.892 176.091 138.825 180.639 140.059 185.05C140.306 185.936 140.69 186.837 140.516 187.741C140.431 188.184 140.215 188.622 140.312 189.063C140.391 189.438 140.681 189.728 140.829 190.083C141.113 190.748 140.812 191.538 140.306 192.052C139.766 192.532 139.139 192.903 138.459 193.144C136.364 194.039 134.196 194.949 131.922 194.929C131.646 194.943 131.37 194.893 131.118 194.781C130.708 194.568 130.506 194.105 130.333 193.678L129.168 190.796C129.026 190.447 128.884 190.037 129.08 189.713C129.216 189.536 129.382 189.382 129.569 189.259C130.509 188.466 130.296 186.985 130.046 185.794C129.407 182.736 129.053 179.624 128.989 176.501C128.864 170.271 129.89 164.078 130.913 157.93C131.268 155.796 131.626 153.647 132.334 151.601C133.042 149.554 134.085 147.585 133.914 145.459C133.732 143.163 134.329 140.755 133.914 138.49C133.499 136.225 132.843 134.008 132.419 131.746C131.871 128.81 131.734 125.817 131.567 122.839C131.496 121.622 131.405 120.366 130.836 119.286C130.504 118.655 130.02 118.115 129.648 117.504C128.688 115.915 128.534 113.946 127.616 112.331C127.181 111.567 126.582 110.893 126.263 110.075C126.04 109.429 125.923 108.751 125.916 108.068C125.826 106.353 125.922 104.633 126.201 102.938C131.039 100.476 136.404 99.2316 141.832 99.3117C143.91 99.3459 146.01 99.5562 147.96 100.275C149.819 100.966 151.512 101.935 153.474 102.083Z" fill="#3F3D56"/>
<path d="M141.821 192.126C142.657 193.167 142.6 194.653 143.134 195.878C143.782 197.364 145.226 198.316 146.596 199.183L155.122 204.583C155.588 204.868 156.088 205.217 156.259 205.746C156.34 206.083 156.325 206.437 156.216 206.766C156.013 207.479 155.633 208.13 155.113 208.658C154.593 209.187 153.948 209.576 153.238 209.79C152.483 209.97 151.708 210.049 150.933 210.026L147.099 210.077C145.931 210.123 144.761 210.077 143.6 209.941C142.537 209.787 141.503 209.483 140.446 209.29C138.521 208.94 136.543 208.972 134.616 208.633C133.436 208.401 132.271 208.1 131.126 207.732C129.734 207.315 128.315 206.88 127.122 206.053C126.793 205.853 126.526 205.565 126.352 205.223C126.15 204.754 126.261 204.217 126.374 203.719L128.205 195.676C128.308 195.006 128.552 194.366 128.921 193.798C129.327 193.258 130.058 192.899 130.691 193.13C130.953 193.249 131.2 193.398 131.428 193.573C132.365 194.19 133.568 194.292 134.676 194.099C135.392 193.971 136.339 193.775 136.916 193.3C137.353 192.939 137.484 192.379 137.856 191.97C138.117 191.702 138.432 191.492 138.779 191.353C139.127 191.214 139.5 191.15 139.874 191.165C140.247 191.18 140.614 191.273 140.95 191.439C141.285 191.604 141.582 191.839 141.821 192.126Z" fill="white"/>
<path d="M147.349 37.2032C141.678 37.2032 137.08 32.6058 137.08 26.9347C137.08 21.2635 141.678 16.6661 147.349 16.6661C153.02 16.6661 157.617 21.2635 157.617 26.9347C157.617 32.6058 153.02 37.2032 147.349 37.2032Z" fill="#FBBEBE"/>
<path d="M155.27 27.5372C154.286 26.9858 154.286 25.3971 153.28 24.8684C152.274 24.3398 151.132 25.2578 150.487 26.1843C149.546 27.5413 148.893 29.0762 148.568 30.6948C148.477 31.1552 148.392 31.6582 148.045 31.9794C147.698 32.3005 147.244 32.3403 146.8 32.3858C145.502 32.5146 144.203 32.6321 142.901 32.7382C141.452 32.8548 139.922 32.9485 138.607 32.3261C138.087 32.0939 137.641 31.7245 137.316 31.2575C137.056 30.8091 136.87 30.3215 136.765 29.8137C136.086 27.2302 135.401 24.6155 135.344 21.9439C135.321 20.8412 135.418 19.6986 135.949 18.7323C136.259 18.1639 136.714 17.6694 136.842 17.0441C136.97 16.4189 136.557 15.6231 135.909 15.6913C136.495 15.7154 137.079 15.6045 137.615 15.3673C138.129 15.0831 138.51 14.472 138.328 13.915C139.772 14.0997 140.823 12.673 141.949 11.7493C142.132 11.5678 142.379 11.4657 142.637 11.4651C142.834 11.5144 143.025 11.5879 143.205 11.6839C143.774 11.8829 144.368 11.5049 144.95 11.34C146.513 10.9023 148.5 11.9596 149.66 10.8228C149.549 11.5475 150.438 12.0335 151.172 12.0193C151.905 12.0051 152.661 11.7351 153.354 11.9795C153.254 12.1632 153.195 12.3668 153.183 12.5758C153.17 12.7848 153.204 12.994 153.281 13.1884C153.359 13.3828 153.479 13.5577 153.632 13.7005C153.785 13.8433 153.968 13.9505 154.167 14.0144L153.823 14.7648C154.178 14.8356 154.505 15.0041 154.769 15.2511C155.032 15.4982 155.222 15.8141 155.315 16.1631C155.693 17.6552 155.6 19.7754 155.509 21.3101C155.463 21.9837 154.807 27.2842 155.27 27.5372Z" fill="#192534"/>
<path d="M146.508 40.1703C151.666 45.971 152.979 54.1364 154.079 61.8243L155.699 73.1756C156.12 76.1201 156.552 79.0645 156.918 82.0174C157.174 84.0382 157.413 86.0902 157.134 88.1081C156.916 89.6996 156.384 91.2344 155.941 92.7663C154.787 96.7842 154.213 100.946 154.235 105.127C153.892 104.115 152.701 103.706 151.655 103.478C142.879 101.574 133.723 102.552 125.547 106.266C124.112 102.245 124.382 97.8451 123.981 93.5933C123.413 87.5311 121.455 81.6565 120.875 75.6056C120.662 73.3518 120.636 71.0867 120.613 68.8215C120.596 67.1589 120.579 65.4792 120.926 63.8507C121.312 62.0488 122.128 60.3691 122.972 58.7349C125.306 54.1921 127.898 49.7872 130.737 45.5419C132.166 43.4046 133.656 41.31 135.208 39.258C135.994 38.2178 136.796 37.1889 137.615 36.1714C138.408 35.1852 138.752 34.3297 140.011 34.9209C142.39 36.035 144.777 38.2234 146.508 40.1703Z" fill="#501F6B"/>
<path d="M143.552 88.452C144.81 88.4975 146.07 88.4577 147.323 88.3327C148.253 88.2417 149.202 88.1053 150.109 88.3327C150.503 88.4319 150.872 88.613 151.191 88.8641C151.31 88.9696 151.395 89.1073 151.436 89.2604C151.478 89.4135 151.474 89.5754 151.425 89.7262C151.375 89.877 151.283 90.0102 151.16 90.1094C151.036 90.2087 150.886 90.2698 150.728 90.2852L149.756 90.3705C149.139 90.4245 148.497 90.487 148.017 90.9389C147.82 91.1164 147.694 91.3601 147.664 91.6238C147.605 92.286 148.179 92.647 148.693 92.9227C149.425 93.2661 150.101 93.7162 150.7 94.2585C151.169 94.7116 151.464 95.3152 151.532 95.9637C151.535 96.0215 151.522 96.0789 151.495 96.13C151.468 96.1812 151.428 96.2244 151.379 96.2552C151.33 96.286 151.273 96.3034 151.216 96.3056C151.158 96.3078 151.1 96.2948 151.049 96.2678C149.912 95.6994 149.171 94.014 147.923 94.2954C149.058 94.6548 150.03 95.4024 150.668 96.4071C150.826 96.647 150.898 96.933 150.872 97.2189C150.847 97.5047 150.726 97.7736 150.528 97.9819C150.331 98.1902 150.069 98.3257 149.785 98.3664C149.501 98.4071 149.211 98.3506 148.963 98.2061C148.778 98.098 148.6 97.9794 148.429 97.8509C147.584 97.1666 146.827 96.3799 146.175 95.509C147.085 97.4274 148.005 99.6727 146.96 101.58C146.907 101.685 146.826 101.772 146.725 101.832C146.624 101.891 146.508 101.92 146.391 101.915C146.061 101.881 145.965 101.571 145.911 101.298C145.74 100.42 145.698 99.4936 145.266 98.712C144.265 96.8988 141.798 96.7226 139.92 95.8387C137.666 94.7928 136.123 92.5418 135.5 90.1374C135.282 89.4362 135.244 88.6915 135.389 87.9717C135.807 86.3546 137.802 85.9822 139.084 86.7638C140.656 87.7614 141.568 88.3895 143.552 88.452Z" fill="#FBBEBE"/>
<path opacity="0.1" d="M145.547 56.6404C143.558 59.7127 140.104 61.4435 137.143 63.6007C136.42 64.0712 135.79 64.6704 135.284 65.3685C134.537 66.5224 134.432 67.9889 134.585 69.3474C134.778 71.1408 135.355 72.8659 135.927 74.5769L137.169 78.2858C137.956 80.6391 138.769 83.0407 140.266 85.0188C140.65 85.5218 141.096 86.059 141.079 86.6899C141.046 87.0544 140.921 87.4046 140.715 87.7074C140.236 88.4896 139.604 89.1674 138.858 89.7005C138.111 90.2337 137.265 90.6113 136.37 90.811C135.834 90.9474 135.272 90.9474 134.736 90.811C133.968 90.5836 133.391 89.9584 132.857 89.3672C130.299 86.545 127.741 83.683 125.894 80.372C124.089 77.1405 123.009 73.5509 122.014 69.9954C121.605 68.6865 121.319 67.342 121.162 65.9795C120.951 63.4216 121.622 60.8637 122.719 58.5531C123.816 56.2425 125.325 54.1507 126.88 52.1186C128.347 50.1226 129.978 48.2517 131.754 46.5253C134.847 43.6349 138.629 41.9353 142.767 43.5752C145.689 44.7348 146.783 47.1534 147.045 50.2513C147.266 52.4881 146.739 54.7351 145.547 56.6404Z" fill="black"/>
<path d="M144.513 55.8616C142.523 58.9339 139.067 60.6648 136.109 62.8219C135.388 63.2971 134.761 63.9001 134.258 64.6011C133.511 65.755 133.406 67.2187 133.559 68.58C133.755 70.3734 134.329 72.0986 134.903 73.8095L136.146 77.5042C136.933 79.8575 137.746 82.2562 139.243 84.2372C139.624 84.7402 140.07 85.2746 140.053 85.9083C140.022 86.2724 139.897 86.622 139.69 86.923C139.211 87.7055 138.58 88.3837 137.834 88.9174C137.088 89.451 136.242 89.8292 135.347 90.0294C134.81 90.1658 134.247 90.1658 133.71 90.0294C132.942 89.8049 132.368 89.1768 131.831 88.5885C129.273 85.7634 126.715 82.9042 124.868 79.5932C123.063 76.3617 121.983 72.7721 120.989 69.2138C120.578 67.9062 120.292 66.5625 120.136 65.2008C119.926 62.6429 120.596 60.085 121.691 57.7715C122.785 55.458 124.297 53.3691 125.851 51.337C127.324 49.3514 128.958 47.491 130.737 45.775C133.826 42.8874 137.609 41.185 141.747 42.8277C144.672 43.9873 145.763 46.4031 146.028 49.5038C146.236 51.732 145.704 53.9668 144.513 55.8616Z" fill="#501F6B"/>
<path d="M81.6678 157.805C81.6656 158.546 81.7419 159.285 81.8952 160.011C81.9236 160.147 81.9548 160.295 81.9861 160.411C82.7932 163.648 85.0698 166.016 87.7868 166.167C87.8778 166.167 87.9687 166.167 88.071 166.167C90.9444 166.167 93.3744 163.688 94.1759 160.275C94.1986 160.184 94.2185 160.093 94.2384 159.991C94.3917 159.266 94.4679 158.526 94.4658 157.785C94.4658 153.161 91.6038 149.415 88.071 149.415C84.5383 149.415 81.6678 153.189 81.6678 157.805Z" fill="#3F3D56"/>
<path opacity="0.1" d="M81.6679 157.805C81.6658 158.546 81.742 159.286 81.8953 160.011C81.9237 160.147 81.955 160.295 81.9862 160.411C82.0828 160.411 82.1766 160.411 82.2704 160.411C82.9742 160.373 83.6738 160.278 84.3622 160.127C84.9722 160.316 85.5954 160.458 86.2266 160.553C86.7106 160.626 87.1984 160.672 87.6875 160.69H88.182C88.7675 160.69 89.3524 160.651 89.9327 160.573C90.8712 160.448 91.7929 160.219 92.6811 159.891C93.1673 160.053 93.6627 160.186 94.1646 160.289C94.1874 160.198 94.2073 160.107 94.2272 160.005C94.3805 159.28 94.4567 158.541 94.4545 157.799C94.4545 153.175 91.5925 149.429 88.0598 149.429C84.5271 149.429 81.6679 153.19 81.6679 157.805Z" fill="black"/>
<path d="M68.0255 142.213C68.0228 140.178 68.5 138.172 69.4182 136.356L76.9384 138.695L70.3362 134.812C71.4437 133.213 72.8961 131.883 74.5863 130.92C76.2764 129.957 78.1612 129.385 80.1017 129.248C80.4105 128.779 80.7494 128.331 81.1163 127.906L91.9163 131.268L83.0574 126.059C84.7521 124.758 86.7411 123.895 88.8487 123.547C90.9562 123.198 93.1172 123.374 95.1404 124.059C97.1637 124.745 98.9868 125.918 100.448 127.476C101.91 129.034 102.965 130.928 103.521 132.991L94.2696 143.64L104.305 136.381C106.847 138.184 108.657 140.841 109.405 143.866C110.152 146.892 109.788 150.085 108.378 152.865C106.968 155.645 104.607 157.825 101.724 159.009C98.8413 160.194 95.6289 160.303 92.6723 159.317C89.9979 160.3 87.0752 160.381 84.3506 159.547C82.4511 159.965 80.4821 159.952 78.5883 159.509C76.6946 159.066 74.9243 158.203 73.4077 156.986C71.8912 155.768 70.6669 154.226 69.825 152.472C68.9831 150.719 68.5449 148.799 68.5428 146.854C68.5428 146.57 68.5428 146.286 68.5712 146.002C68.203 144.773 68.019 143.496 68.0255 142.213Z" fill="#501F6B"/>
<path opacity="0.1" d="M68.2502 144.623C72.2217 143.871 76.2943 143.819 80.2837 144.47C84.7998 145.217 89.4154 146.86 93.832 145.661C96.424 144.956 98.6636 143.325 101.196 142.418C103.639 141.566 106.271 141.408 108.799 141.963C109.762 144.267 110.041 146.8 109.603 149.259C109.166 151.717 108.029 153.998 106.33 155.828C104.631 157.658 102.441 158.96 100.022 159.579C97.6022 160.198 95.0558 160.107 92.6867 159.317C90.0123 160.3 87.0896 160.381 84.365 159.547C82.4655 159.965 80.4964 159.952 78.6027 159.509C76.7089 159.066 74.9387 158.203 73.4221 156.986C71.9055 155.768 70.6813 154.226 69.8394 152.472C68.9974 150.719 68.5593 148.799 68.5572 146.854C68.5572 146.57 68.5572 146.286 68.5856 146.002C68.4485 145.549 68.3366 145.089 68.2502 144.623Z" fill="black"/>
</g>
<defs>
<clipPath id="clip0_247_378">
<rect width="310.926" height="216" fill="white" transform="matrix(-1 0 0 1 310.926 0)"/>
</clipPath>
</defs>
</svg>
