<svg width="974" height="325" viewBox="0 0 974 325" fill="none" xmlns="http://www.w3.org/2000/svg">
<path d="M955.051 90.5555C954.922 91.4743 954.793 92.3882 954.663 93.2975M954.663 93.2975C938.513 206.179 908.665 246.315 806.148 259.872C793.962 147.842 846.054 124.475 954.663 93.2975Z" stroke="#47A45D" stroke-opacity="0.5" stroke-width="2" stroke-dasharray="6 6"/>
<path d="M738 125.231C738.423 125.346 738.843 125.462 739.261 125.578M739.261 125.578C791.174 139.983 808.172 156.399 808.315 205.255C755.085 204.179 747.292 178.356 739.261 125.578Z" stroke="#47A45D" stroke-opacity="0.5" stroke-width="2" stroke-dasharray="6 6"/>
<path d="M234.244 296.421C543.896 291.995 1018 143.542 1018 291.995V335.445L0 342.988C86.8659 313.003 143.01 297.725 234.244 296.421Z" fill="#4EA362"/>
<g clip-path="url(#clip0_247_255)">
<path d="M449.419 116.539C447.361 113.872 444.452 111.405 444.268 108.114C444.099 105.096 446.35 102.099 445.4 99.2111C444.671 96.9909 442.263 95.6512 439.91 94.9418C435.406 93.603 430.585 93.7886 426.197 95.4697L426.435 95.3017C423.757 94.3477 420.627 95.3326 418.519 97.1567C416.412 98.9809 415.16 101.509 414.188 104.043C413.216 106.577 412.463 109.203 411.113 111.579C409.763 113.954 407.695 116.115 404.968 116.936C405.881 118.757 408.735 119.382 410.41 118.127C410.837 117.78 411.222 117.382 411.555 116.943C412.671 115.585 413.788 114.228 414.905 112.87C416.053 114.913 414.337 117.734 415.749 119.625C416.478 120.601 417.808 120.971 419.043 121.237C428.697 123.297 438.712 122.926 448.188 120.156C448.949 119.932 449.79 119.623 450.105 118.933C450.47 118.138 449.96 117.24 449.419 116.539Z" fill="#2F2E41"/>
<path d="M476.793 126.947C476.733 127.212 476.694 127.481 476.676 127.752L455.574 139.926L450.445 136.973L444.977 144.131L453.549 150.241C454.242 150.735 455.076 150.99 455.926 150.97C456.776 150.949 457.596 150.653 458.264 150.126L480.024 132.96C481.006 133.323 482.075 133.379 483.09 133.12C484.104 132.861 485.016 132.299 485.703 131.509C486.391 130.72 486.821 129.739 486.938 128.698C487.055 127.658 486.852 126.606 486.356 125.684C485.861 124.762 485.096 124.012 484.164 123.534C483.232 123.057 482.177 122.875 481.139 123.012C480.101 123.149 479.129 123.599 478.353 124.302C477.576 125.005 477.033 125.927 476.793 126.947Z" fill="#FFB7B7"/>
<path d="M454.869 140.502L448.049 149.342C447.855 149.593 447.609 149.8 447.327 149.948C447.046 150.095 446.737 150.181 446.419 150.198C446.102 150.216 445.785 150.165 445.489 150.048C445.194 149.932 444.927 149.753 444.706 149.525L436.986 141.507C435.704 140.507 434.872 139.04 434.671 137.427C434.47 135.814 434.916 134.187 435.913 132.903C436.91 131.619 438.375 130.783 439.988 130.578C441.6 130.372 443.228 130.815 444.514 131.808L454.198 137.223C454.475 137.378 454.716 137.591 454.903 137.848C455.091 138.104 455.221 138.398 455.284 138.709C455.348 139.02 455.344 139.342 455.272 139.651C455.2 139.961 455.063 140.251 454.869 140.502Z" fill="#501F6B"/>
<path d="M445.483 294.514L451.505 294.513L454.37 271.284L445.481 271.285L445.483 294.514Z" fill="#FFB7B7"/>
<path d="M443.946 292.548L455.806 292.547H455.807C457.811 292.547 459.734 293.344 461.151 294.761C462.569 296.178 463.365 298.101 463.365 300.105V300.351L443.947 300.352L443.946 292.548Z" fill="#2F2E41"/>
<path d="M404.219 294.514L410.242 294.513L413.107 271.284L404.218 271.285L404.219 294.514Z" fill="#FFB7B7"/>
<path d="M402.683 292.548L414.543 292.547H414.544C416.548 292.547 418.471 293.344 419.888 294.761C421.306 296.178 422.102 298.101 422.102 300.105V300.351L402.683 300.352L402.683 292.548Z" fill="#2F2E41"/>
<path d="M441.866 113.255C442.493 107.541 438.37 102.401 432.656 101.774C426.942 101.147 421.801 105.27 421.174 110.984C420.547 116.698 424.671 121.838 430.384 122.466C436.098 123.093 441.239 118.969 441.866 113.255Z" fill="#FFB7B7"/>
<path d="M437.61 127.722L443.742 130.76C443.742 130.76 450.592 142.666 446.663 153.964C444.755 159.45 450.127 176.935 450.127 176.935C450.127 176.935 458.452 256.139 458.478 280.584C448.136 282.174 438.312 284.139 437.821 279.227C437.329 274.315 431.952 216.234 431.952 216.234C431.952 216.234 424.557 280.701 418.663 281.683C412.768 282.666 400.979 281.192 400.979 281.192C400.979 281.192 410.338 186.76 416.724 180.865L417.707 175.953L417.68 131.859L425.038 128.348L437.61 127.722Z" fill="#2F2E41"/>
<path d="M415.675 194.662C416.354 194.295 416.944 193.784 417.403 193.164C417.862 192.544 418.18 191.831 418.335 191.075C418.489 190.319 418.475 189.539 418.295 188.789C418.115 188.038 417.773 187.337 417.292 186.733L424.423 139.201L415.106 138.754L409.548 186.089C408.587 186.964 407.981 188.16 407.844 189.452C407.707 190.744 408.048 192.041 408.804 193.097C409.559 194.154 410.676 194.897 411.942 195.185C413.209 195.474 414.537 195.288 415.675 194.662Z" fill="#FFB7B7"/>
<path d="M424.22 151.111L413.078 150.408C412.761 150.388 412.452 150.3 412.172 150.149C411.892 149.999 411.648 149.79 411.456 149.537C411.264 149.284 411.129 148.993 411.06 148.683C410.991 148.373 410.989 148.051 411.055 147.741L413.377 136.855C413.488 135.233 414.238 133.722 415.462 132.653C416.686 131.583 418.285 131.043 419.906 131.15C421.528 131.257 423.042 132.003 424.114 133.224C425.187 134.445 425.731 136.042 425.628 137.664L426.562 148.72C426.589 149.036 426.547 149.355 426.439 149.654C426.332 149.952 426.161 150.225 425.939 150.452C425.717 150.679 425.448 150.855 425.151 150.969C424.855 151.083 424.537 151.131 424.22 151.111Z" fill="#501F6B"/>
<path d="M442.428 105.354C442.023 103.514 440.706 101.99 439.188 100.873C436.686 99.0331 433.618 98.1285 430.518 98.317C427.418 98.5055 424.483 99.7752 422.222 101.905C420.96 103.021 420.049 104.48 419.602 106.105C419.389 106.917 419.378 107.769 419.569 108.586C419.76 109.404 420.149 110.162 420.7 110.795L420.908 110.925C420.72 110.126 421.341 109.326 422.083 108.974C422.855 108.69 423.66 108.51 424.479 108.436C425.718 108.202 426.892 107.705 427.923 106.978C428.953 106.251 429.815 105.311 430.451 104.222C430.922 105.562 431.675 106.786 432.658 107.811C433.642 108.836 434.833 109.639 436.153 110.165C437.528 110.702 441.307 111.442 442.616 110.759C444.287 109.888 442.834 107.194 442.428 105.354Z" fill="#2F2E41"/>
<path d="M365.846 280.165C367.647 280.798 369.58 280.956 371.46 280.625C373.34 280.294 375.103 279.484 376.58 278.274C380.339 275.118 381.518 269.921 382.477 265.108L385.313 250.87L379.374 254.959C375.103 257.9 370.736 260.935 367.779 265.195C364.822 269.454 363.532 275.269 365.907 279.879" fill="#E6E6E6"/>
<path d="M366.763 298.393C366.016 292.947 365.247 287.431 365.772 281.927C366.238 277.038 367.73 272.265 370.766 268.349C372.378 266.275 374.339 264.497 376.561 263.097C377.14 262.732 377.674 263.65 377.097 264.014C373.251 266.444 370.277 270.033 368.603 274.262C366.753 278.965 366.456 284.093 366.775 289.089C366.968 292.111 367.377 295.112 367.788 298.11C367.82 298.246 367.8 298.389 367.731 298.51C367.662 298.631 367.55 298.722 367.417 298.763C367.281 298.8 367.136 298.782 367.014 298.712C366.892 298.643 366.802 298.528 366.764 298.393L366.763 298.393Z" fill="#F2F2F2"/>
<path d="M372.144 289.655C372.916 290.829 373.977 291.784 375.226 292.429C376.475 293.074 377.869 293.386 379.273 293.336C382.883 293.164 385.892 290.646 388.599 288.254L396.611 281.181L391.309 280.927C387.496 280.744 383.585 280.573 379.953 281.75C376.321 282.927 372.972 285.756 372.308 289.515" fill="#E6E6E6"/>
<path d="M364.65 301.524C368.249 295.156 372.423 288.08 379.881 285.818C381.955 285.191 384.129 284.966 386.287 285.156C386.967 285.215 386.798 286.263 386.119 286.205C382.501 285.905 378.891 286.86 375.895 288.91C373.013 290.872 370.768 293.6 368.868 296.492C367.705 298.265 366.662 300.112 365.62 301.956C365.287 302.546 364.313 302.12 364.65 301.524Z" fill="#F2F2F2"/>
<path d="M607.831 183.805C601.078 174.767 588.719 172.586 582.577 177.176C576.435 181.765 575.024 194.236 581.777 203.274C588.028 211.639 599.353 213.92 605.59 210.786C605.57 210.884 605.569 210.985 605.587 211.083L605.938 212.822C605.965 212.954 606.025 213.078 606.113 213.18C606.201 213.283 606.314 213.361 606.441 213.408C606.568 213.455 606.705 213.469 606.838 213.448C606.972 213.427 607.098 213.373 607.204 213.289L610.182 210.963C610.289 210.88 610.372 210.771 610.425 210.646C610.478 210.521 610.497 210.385 610.483 210.251C610.468 210.117 610.419 209.988 610.34 209.878C610.262 209.768 610.157 209.679 610.035 209.621L608.433 208.859C608.376 208.834 608.317 208.816 608.257 208.804C613.065 203.721 614.096 192.188 607.831 183.805Z" fill="#975AB6"/>
<path d="M593.06 180.393C596.363 180.917 599.339 182.69 601.373 185.346C603.407 188.001 604.344 191.336 603.99 194.662C603.918 195.424 605.108 195.419 605.18 194.662C605.521 191.077 604.494 187.496 602.304 184.636C600.115 181.777 596.926 179.851 593.376 179.245C592.627 179.118 592.305 180.264 593.06 180.393Z" fill="white"/>
<path d="M618.838 27.5905C624.742 17.9772 622.204 5.68588 615.671 1.67345C609.138 -2.33899 597.027 0.956021 591.123 10.5694C585.658 19.4677 587.721 30.8344 592.937 35.4735C592.839 35.4909 592.745 35.527 592.66 35.5798L591.174 36.5488C591.061 36.6226 590.968 36.7242 590.905 36.8439C590.842 36.9636 590.811 37.0973 590.814 37.2325C590.818 37.3677 590.855 37.4998 590.924 37.6162C590.993 37.7327 591.09 37.8297 591.207 37.898L594.469 39.8061C594.586 39.8744 594.718 39.9117 594.853 39.9145C594.988 39.9173 595.122 39.8855 595.241 39.8221C595.361 39.7587 595.462 39.6659 595.535 39.5524C595.609 39.4388 595.652 39.3084 595.661 39.1735L595.777 37.4034C595.78 37.3417 595.775 37.2798 595.764 37.2192C602.263 39.8099 613.362 36.5082 618.838 27.5905Z" fill="#975AB6"/>
<path d="M616.553 12.6033C617.286 15.8669 616.737 19.2871 615.021 22.158C613.305 25.0289 610.552 27.1313 607.33 28.0313C606.596 28.2452 607.04 29.3496 607.77 29.1371C611.227 28.1295 614.176 25.8521 616.024 22.7616C617.873 19.6711 618.484 15.9961 617.737 12.4735C617.578 11.7304 616.394 11.8547 616.553 12.6033Z" fill="white"/>
<path d="M514.209 73.2034C513.715 61.9327 504.728 53.1721 497.068 53.5076C489.408 53.8431 481.221 63.356 481.715 74.6267C482.172 85.0592 490.248 93.3201 497.167 94.2416C497.095 94.3111 497.038 94.3937 496.997 94.485L496.309 96.1199C496.256 96.2445 496.237 96.3805 496.252 96.5149C496.266 96.6493 496.315 96.7776 496.394 96.8878C496.472 96.9979 496.578 97.0862 496.7 97.1442C496.822 97.2022 496.957 97.228 497.092 97.2192L500.863 96.9729C500.998 96.9641 501.128 96.9209 501.242 96.8475C501.355 96.7741 501.448 96.6729 501.512 96.5535C501.575 96.4341 501.607 96.3004 501.604 96.1652C501.601 96.03 501.564 95.8978 501.496 95.781L500.601 94.2495C500.569 94.1969 500.53 94.1482 500.486 94.1045C507.322 92.6102 514.667 83.6586 514.209 73.2034Z" fill="#501F6B"/>
<path d="M503.921 62.0677C506.356 64.361 507.817 67.5016 508.003 70.8412C508.19 74.1808 507.087 77.4644 504.922 80.0143C504.433 80.6032 505.42 81.2692 505.906 80.6842C508.205 77.913 509.372 74.3749 509.172 70.7794C508.973 67.1838 507.421 63.7968 504.828 61.2974C504.281 60.7705 503.37 61.5369 503.921 62.0677Z" fill="white"/>
<path d="M549.33 147.972C546.377 147.786 543.511 146.903 540.965 145.396C538.42 143.888 536.268 141.799 534.686 139.299C534.243 138.59 533.664 137.811 533.971 136.939C534.078 136.604 534.295 136.316 534.587 136.121C534.879 135.926 535.229 135.836 535.579 135.865C536.483 135.975 537.067 136.86 537.179 137.709C537.305 138.671 536.627 139.426 535.789 139.783C533.741 140.657 531.675 139.307 530.007 138.23C526.206 135.775 522.026 133.555 517.42 133.275C513.159 133.016 508.59 134.687 506.22 138.382C505.805 139.028 506.835 139.626 507.247 138.983C509.598 135.318 514.349 134.002 518.481 134.568C520.943 134.957 523.321 135.764 525.51 136.955C526.646 137.544 527.747 138.197 528.827 138.884C529.853 139.601 530.942 140.225 532.079 140.749C533.976 141.528 536.486 141.467 537.811 139.673C539.047 138 538.092 135.214 536.025 134.743C535.571 134.654 535.103 134.678 534.661 134.815C534.219 134.951 533.818 135.195 533.494 135.524C533.17 135.853 532.932 136.258 532.803 136.702C532.674 137.145 532.656 137.614 532.753 138.066C532.959 139.052 533.701 140.016 534.275 140.822C536.001 143.249 538.249 145.259 540.855 146.702C543.46 148.146 546.356 148.987 549.33 149.162C550.095 149.2 550.093 148.01 549.33 147.972Z" fill="#975AB6"/>
<path d="M663.607 65.9894C666.865 64.4738 670.865 63.977 674.179 65.3853C677.494 66.7936 679.754 70.4033 678.682 73.5978C678.196 75.0462 677.09 76.4707 677.521 77.9335C677.853 79.0594 679.011 79.8028 680.148 80.3313C681.285 80.8599 682.529 81.3043 683.351 82.1958C684.173 83.0872 684.345 84.6219 683.318 85.3133C682.979 85.541 682.556 85.649 682.228 85.8891C681.948 86.1163 681.746 86.4252 681.651 86.7726C681.555 87.12 681.57 87.4887 681.693 87.8272C681.967 88.5083 682.419 89.1031 683.002 89.5489C684.168 90.5546 685.71 91.7057 685.347 93.1334C685.213 93.515 684.989 93.8585 684.693 94.1348C684.398 94.4111 684.04 94.6121 683.65 94.7207C682.841 94.9541 682.001 95.0649 681.159 95.0495L646.747 96.1336C645.611 96.2189 644.469 96.1551 643.349 95.9438C642.805 95.8445 642.287 95.6341 641.828 95.3257C641.369 95.0172 640.979 94.6174 640.681 94.1512C640.022 92.9314 640.455 91.4289 641.268 90.2899C642.082 89.1509 643.234 88.2524 644.186 87.2065C645.137 86.1606 645.916 84.855 645.748 83.5032C645.614 82.4211 644.9 81.4859 644.388 80.5026C643.876 79.5194 643.578 78.2908 644.242 77.3863C645.177 76.1117 647.421 76.227 648.484 75.0393C649.287 74.143 649.132 72.8527 649.212 71.6969C649.403 68.9167 651.328 66.291 654.068 65.0718C655.462 64.4737 656.977 64.2155 658.49 64.3185C660.003 64.4215 661.469 64.8828 662.769 65.6643L663.607 65.9894Z" fill="#2F2E41"/>
<path d="M705.515 203.573V209.2L683.808 211.878L683.809 203.572L705.515 203.573Z" fill="#9E616A"/>
<path d="M710.971 202.138L710.97 220.284H710.741C708.867 220.284 707.071 219.54 705.746 218.215C704.422 216.891 703.678 215.094 703.678 213.221V213.22L703.678 202.137L710.971 202.138Z" fill="#2F2E41"/>
<path d="M678.681 213.146L677.3 218.601L655.6 215.868L657.639 207.817L678.681 213.146Z" fill="#9E616A"/>
<path d="M684.322 213.094L679.867 230.684L679.644 230.628C677.829 230.168 676.27 229.006 675.311 227.397C674.352 225.788 674.072 223.863 674.531 222.047L677.253 211.303L684.322 213.094Z" fill="#2F2E41"/>
<path d="M673.139 150.035L674.311 151.256C674.311 151.256 681.96 157.253 676.301 173.051L667.045 199.716L698.07 200.926L697.406 213.111C697.406 213.111 652.412 215.614 652.805 208.199C653.199 200.784 654.859 173.328 654.859 173.328L645.511 165.821L647.765 153.124L673.139 150.035Z" fill="#2F2E41"/>
<path d="M649.106 162.136L645.511 165.821L633.46 198.948C633.46 198.948 631.624 207.21 635.756 209.046C639.887 210.883 666.47 221.154 666.47 221.154L669.184 211.384L648.702 199.09L658.248 186.554L659.685 166.794L649.106 162.136Z" fill="#2F2E41"/>
<path d="M649.297 103.697L679.885 97.5811L680.55 114.363L672.626 131.251L674.311 151.256L646.897 156.045L647.756 129.741C647.756 129.741 640.394 119.355 644.731 108.887L649.297 103.697Z" fill="#E4E4E4"/>
<path d="M717.504 63.8868C717.657 64.5913 717.654 65.3207 717.495 66.0239C717.336 66.727 717.024 67.3867 716.583 67.9565C716.141 68.5263 715.58 68.9923 714.939 69.3218C714.297 69.6512 713.592 69.836 712.871 69.8632L683.539 103.877L676.719 95.6003L707.696 64.7686C707.731 63.5553 708.209 62.3969 709.041 61.5128C709.873 60.6286 711 60.0803 712.209 59.9716C713.417 59.8629 714.624 60.2014 715.6 60.923C716.576 61.6446 717.253 62.6992 717.504 63.8868Z" fill="#9E616A"/>
<path d="M689.926 100.165C689.932 100.483 689.871 100.798 689.745 101.09C689.619 101.382 689.431 101.643 689.195 101.855L680.947 109.28C679.912 110.533 678.422 111.325 676.804 111.481C675.186 111.637 673.572 111.146 672.316 110.114C671.059 109.082 670.264 107.595 670.103 105.977C669.941 104.36 670.428 102.744 671.456 101.485L677.214 91.9557C677.378 91.6837 677.599 91.4504 677.862 91.2715C678.124 91.0927 678.422 90.9726 678.736 90.9193C679.049 90.8661 679.37 90.881 679.677 90.963C679.984 91.045 680.269 91.1922 680.514 91.3946L689.123 98.5078C689.368 98.7101 689.567 98.9629 689.705 99.2489C689.844 99.535 689.919 99.8475 689.926 100.165Z" fill="#E4E4E4"/>
<path d="M601.335 143.821C601.289 143.101 601.401 142.381 601.664 141.709C601.927 141.038 602.334 140.432 602.856 139.935C603.378 139.438 604.003 139.062 604.686 138.832C605.37 138.603 606.095 138.526 606.812 138.607L640.916 109.38L646.416 118.586L611.163 144.421C610.947 145.615 610.3 146.689 609.346 147.438C608.391 148.187 607.194 148.56 605.983 148.486C604.771 148.412 603.629 147.897 602.772 147.037C601.916 146.177 601.404 145.033 601.335 143.821Z" fill="#9E616A"/>
<path d="M634.044 112.091C634.085 111.776 634.194 111.474 634.362 111.204C634.531 110.935 634.755 110.705 635.021 110.53L644.289 104.427C645.501 103.343 647.093 102.784 648.716 102.872C650.339 102.96 651.861 103.688 652.948 104.897C654.036 106.106 654.599 107.696 654.516 109.319C654.432 110.943 653.708 112.467 652.503 113.558L645.381 122.115C645.177 122.36 644.924 122.557 644.637 122.694C644.351 122.832 644.038 122.906 643.72 122.912C643.403 122.917 643.088 122.854 642.796 122.727C642.505 122.6 642.245 122.412 642.033 122.175L634.589 113.85C634.377 113.614 634.219 113.334 634.125 113.03C634.031 112.727 634.003 112.406 634.044 112.091Z" fill="#E4E4E4"/>
<path d="M662.334 95.8669C668.561 95.8669 673.608 90.8191 673.608 84.5924C673.608 78.3657 668.561 73.318 662.334 73.318C656.107 73.318 651.06 78.3657 651.06 84.5924C651.06 90.8191 656.107 95.8669 662.334 95.8669Z" fill="#9E616A"/>
<path d="M673.868 82.9895C670.307 82.7036 667.351 79.1467 667.721 75.594C667.763 77.0583 667.265 78.487 666.322 79.6081C665.379 80.7292 664.057 81.4645 662.607 81.6743C660.974 81.8542 659.183 81.3601 657.762 82.184C656.187 83.0966 655.684 85.3127 654.043 86.1009C652.458 86.8625 650.445 85.8238 649.662 84.2495C648.879 82.6751 649.072 80.7836 649.59 79.1036C650.331 76.7078 651.678 74.5442 653.502 72.8234C655.326 71.1025 657.564 69.883 659.999 69.2834C662.434 68.6838 664.982 68.7246 667.397 69.4017C669.811 70.0788 672.009 71.3693 673.777 73.1476C675.274 74.6534 676.463 76.5727 676.656 78.6873C676.848 80.802 675.867 83.0966 673.968 84.0465L673.868 82.9895Z" fill="#2F2E41"/>
<path d="M508.353 301.084H333.459C333.337 301.084 333.221 301.035 333.134 300.949C333.048 300.863 333 300.746 333 300.625C333 300.503 333.048 300.386 333.134 300.3C333.221 300.214 333.337 300.166 333.459 300.166H508.353C508.474 300.166 508.591 300.214 508.677 300.3C508.763 300.386 508.812 300.503 508.812 300.625C508.812 300.746 508.763 300.863 508.677 300.949C508.591 301.035 508.474 301.084 508.353 301.084Z" fill="#CACACA"/>
</g>
<defs>
<clipPath id="clip0_247_255">
<rect width="384.612" height="302.239" fill="white" transform="translate(333)"/>
</clipPath>
</defs>
</svg>
