<svg width="323" height="234" viewBox="0 0 323 234" fill="none" xmlns="http://www.w3.org/2000/svg">
<g clip-path="url(#clip0_247_345)">
<path d="M205.721 175.423V231.831H64.3983C48.2964 231.831 35.1958 219.178 35.1958 203.627C35.1958 188.075 48.2964 175.423 64.3983 175.423H205.721Z" fill="#F2F2F2"/>
<path d="M209.193 231.397C209.193 231.972 208.964 232.524 208.557 232.93C208.15 233.337 207.599 233.566 207.023 233.566H61.8813C53.9984 233.566 46.4383 230.435 40.8643 224.861C35.2902 219.286 32.1587 211.726 32.1587 203.843C32.1587 195.961 35.2902 188.4 40.8643 182.826C46.4383 177.252 53.9984 174.121 61.8813 174.121H207.023C207.599 174.121 208.15 174.349 208.557 174.756C208.964 175.163 209.193 175.715 209.193 176.29C209.193 176.866 208.964 177.418 208.557 177.824C208.15 178.231 207.599 178.46 207.023 178.46H61.8813C55.1492 178.46 48.6928 181.134 43.9324 185.895C39.1721 190.655 36.4978 197.111 36.4978 203.843C36.4978 210.576 39.1721 217.032 43.9324 221.792C48.6928 226.553 55.1492 229.227 61.8813 229.227H207.023C207.599 229.227 208.15 229.456 208.557 229.863C208.964 230.27 209.193 230.821 209.193 231.397Z" fill="#501F6B"/>
<path d="M205.721 188.44H53.8538C53.7387 188.44 53.6284 188.394 53.547 188.313C53.4656 188.231 53.4199 188.121 53.4199 188.006C53.4199 187.891 53.4656 187.78 53.547 187.699C53.6284 187.618 53.7387 187.572 53.8538 187.572H205.721C205.836 187.572 205.947 187.618 206.028 187.699C206.109 187.78 206.155 187.891 206.155 188.006C206.155 188.121 206.109 188.231 206.028 188.313C205.947 188.394 205.836 188.44 205.721 188.44Z" fill="#CCCCCC"/>
<path d="M205.721 198.854H53.8538C53.7387 198.854 53.6284 198.808 53.547 198.726C53.4656 198.645 53.4199 198.535 53.4199 198.42C53.4199 198.305 53.4656 198.194 53.547 198.113C53.6284 198.031 53.7387 197.986 53.8538 197.986H205.721C205.836 197.986 205.947 198.031 206.028 198.113C206.109 198.194 206.155 198.305 206.155 198.42C206.155 198.535 206.109 198.645 206.028 198.726C205.947 198.808 205.836 198.854 205.721 198.854Z" fill="#CCCCCC"/>
<path d="M205.721 209.267H53.8538C53.7387 209.267 53.6284 209.222 53.547 209.14C53.4656 209.059 53.4199 208.949 53.4199 208.833C53.4199 208.718 53.4656 208.608 53.547 208.527C53.6284 208.445 53.7387 208.4 53.8538 208.4H205.721C205.836 208.4 205.947 208.445 206.028 208.527C206.109 208.608 206.155 208.718 206.155 208.833C206.155 208.949 206.109 209.059 206.028 209.14C205.947 209.222 205.836 209.267 205.721 209.267Z" fill="#CCCCCC"/>
<path d="M205.721 219.681H53.8538C53.7387 219.681 53.6284 219.635 53.547 219.554C53.4656 219.473 53.4199 219.362 53.4199 219.247C53.4199 219.132 53.4656 219.022 53.547 218.94C53.6284 218.859 53.7387 218.813 53.8538 218.813H205.721C205.836 218.813 205.947 218.859 206.028 218.94C206.109 219.022 206.155 219.132 206.155 219.247C206.155 219.362 206.109 219.473 206.028 219.554C205.947 219.635 205.836 219.681 205.721 219.681Z" fill="#CCCCCC"/>
<path d="M314.943 186.041L279.552 229.964L169.507 141.295C156.968 131.193 154.706 113.121 164.463 101.011C174.22 88.9018 192.36 87.269 204.898 97.3717L314.943 186.041Z" fill="#F2F2F2"/>
<path d="M282.527 231.804C282.166 232.252 281.642 232.538 281.07 232.6C280.498 232.661 279.925 232.493 279.477 232.133L166.457 141.067C160.319 136.122 156.397 128.94 155.554 121.102C154.711 113.264 157.016 105.413 161.962 99.2745C166.908 93.1362 174.089 89.214 181.927 88.3709C189.765 87.5278 197.616 89.8327 203.755 94.7786L316.774 185.844C316.996 186.022 317.18 186.243 317.317 186.493C317.454 186.743 317.54 187.018 317.571 187.301C317.601 187.585 317.576 187.871 317.495 188.145C317.415 188.418 317.282 188.673 317.103 188.895C316.924 189.117 316.703 189.302 316.453 189.438C316.203 189.575 315.928 189.661 315.645 189.691C315.362 189.721 315.075 189.696 314.802 189.615C314.528 189.535 314.273 189.401 314.051 189.222L201.032 98.1574C198.437 96.0644 195.454 94.5032 192.255 93.5631C189.056 92.623 185.703 92.3223 182.388 92.6783C179.073 93.0343 175.861 94.0399 172.934 95.6377C170.008 97.2356 167.425 99.3943 165.333 101.991C163.241 104.587 161.681 107.57 160.742 110.769C159.803 113.969 159.504 117.322 159.861 120.637C160.218 123.952 161.225 127.164 162.824 130.09C164.423 133.016 166.583 135.598 169.18 137.689L282.199 228.754C282.647 229.115 282.933 229.639 282.995 230.211C283.056 230.783 282.888 231.356 282.527 231.804Z" fill="#CCCCCC"/>
<path d="M306.776 196.177L188.52 100.892C188.476 100.856 188.439 100.812 188.411 100.762C188.384 100.712 188.367 100.657 188.361 100.601C188.355 100.544 188.36 100.487 188.376 100.432C188.392 100.377 188.419 100.326 188.454 100.282C188.49 100.238 188.534 100.201 188.584 100.173C188.634 100.146 188.689 100.129 188.746 100.123C188.803 100.117 188.86 100.122 188.915 100.138C188.969 100.154 189.02 100.181 189.065 100.216L307.321 195.501C307.365 195.537 307.402 195.581 307.43 195.631C307.457 195.681 307.474 195.736 307.48 195.793C307.486 195.849 307.481 195.907 307.465 195.961C307.449 196.016 307.423 196.067 307.387 196.112C307.351 196.156 307.307 196.193 307.257 196.22C307.207 196.248 307.152 196.265 307.095 196.271C307.038 196.277 306.981 196.272 306.926 196.256C306.872 196.239 306.821 196.213 306.776 196.177Z" fill="#CCCCCC"/>
<path d="M300.242 204.286L181.986 109.001C181.897 108.929 181.839 108.824 181.827 108.71C181.815 108.595 181.849 108.481 181.921 108.391C181.993 108.302 182.098 108.245 182.212 108.232C182.326 108.22 182.441 108.253 182.53 108.325L300.787 203.61C300.831 203.646 300.868 203.69 300.895 203.74C300.923 203.79 300.94 203.845 300.946 203.902C300.952 203.958 300.947 204.016 300.931 204.07C300.915 204.125 300.888 204.176 300.853 204.221C300.817 204.265 300.773 204.302 300.723 204.329C300.673 204.357 300.618 204.374 300.561 204.38C300.504 204.386 300.447 204.381 300.392 204.365C300.338 204.348 300.287 204.322 300.242 204.286Z" fill="#CCCCCC"/>
<path d="M293.708 212.395L175.452 117.11C175.363 117.038 175.305 116.933 175.293 116.819C175.281 116.704 175.314 116.59 175.387 116.5C175.459 116.41 175.564 116.353 175.678 116.341C175.792 116.328 175.907 116.362 175.997 116.434L294.253 211.719C294.297 211.755 294.334 211.799 294.361 211.849C294.389 211.899 294.406 211.954 294.412 212.011C294.418 212.067 294.413 212.125 294.397 212.179C294.381 212.234 294.354 212.285 294.319 212.329C294.283 212.374 294.239 212.411 294.189 212.438C294.139 212.465 294.084 212.482 294.027 212.488C293.97 212.495 293.913 212.489 293.858 212.473C293.804 212.457 293.753 212.431 293.708 212.395Z" fill="#CCCCCC"/>
<path d="M287.175 220.504L168.919 125.219C168.874 125.183 168.837 125.139 168.81 125.089C168.783 125.039 168.765 124.984 168.759 124.928C168.753 124.871 168.758 124.814 168.774 124.759C168.79 124.704 168.817 124.653 168.853 124.609C168.889 124.565 168.933 124.528 168.983 124.5C169.033 124.473 169.088 124.456 169.144 124.45C169.201 124.444 169.258 124.449 169.313 124.465C169.368 124.481 169.419 124.508 169.463 124.543L287.719 219.828C287.764 219.864 287.801 219.908 287.828 219.958C287.855 220.008 287.873 220.063 287.879 220.12C287.885 220.176 287.88 220.234 287.864 220.288C287.848 220.343 287.821 220.394 287.785 220.439C287.749 220.483 287.705 220.52 287.655 220.547C287.605 220.575 287.55 220.592 287.494 220.598C287.437 220.604 287.379 220.599 287.325 220.583C287.27 220.566 287.219 220.54 287.175 220.504Z" fill="#CCCCCC"/>
<path d="M322.393 234H0.433907C0.318828 234 0.208461 233.954 0.127088 233.873C0.0457148 233.792 0 233.681 0 233.566C0 233.451 0.0457148 233.341 0.127088 233.259C0.208461 233.178 0.318828 233.132 0.433907 233.132H322.393C322.508 233.132 322.618 233.178 322.7 233.259C322.781 233.341 322.827 233.451 322.827 233.566C322.827 233.681 322.781 233.792 322.7 233.873C322.618 233.954 322.508 234 322.393 234Z" fill="#CCCCCC"/>
<path d="M146.696 169.494L141.735 169.493L139.376 150.36L146.697 150.36L146.696 169.494Z" fill="#FFB8B8"/>
<path d="M138.192 168.076H147.759V174.099H132.168C132.168 173.308 132.324 172.525 132.627 171.794C132.93 171.064 133.373 170.399 133.933 169.84C134.492 169.281 135.156 168.837 135.887 168.534C136.618 168.232 137.401 168.076 138.192 168.076Z" fill="#2F2E41"/>
<path d="M96.0173 169.494L91.0569 169.493L88.6978 150.36L96.0191 150.36L96.0173 169.494Z" fill="#FFB8B8"/>
<path d="M87.5137 168.076H97.0804V174.099H81.4902C81.4902 173.308 81.646 172.525 81.9487 171.794C82.2515 171.064 82.6951 170.399 83.2545 169.84C83.8138 169.281 84.4778 168.837 85.2086 168.534C85.9394 168.232 86.7227 168.076 87.5137 168.076Z" fill="#2F2E41"/>
<path d="M112.586 27.5675V25.3979C112.586 21.6866 114.061 18.1273 116.685 15.503C119.309 12.8787 122.869 11.4044 126.58 11.4044C130.291 11.4044 133.851 12.8787 136.475 15.503C139.099 18.1273 140.573 21.6866 140.573 25.3979V27.5675C140.573 30.2431 139.511 32.8091 137.619 34.701C135.727 36.593 133.161 37.6558 130.485 37.6558H122.675C121.35 37.6558 120.038 37.3949 118.814 36.8879C117.59 36.3809 116.478 35.6378 115.541 34.701C114.604 33.7642 113.861 32.6521 113.354 31.4281C112.847 30.2042 112.586 28.8923 112.586 27.5675Z" fill="#2F2E41"/>
<path d="M126.58 38.4023C132.465 38.4023 137.237 33.6309 137.237 27.7451C137.237 21.8593 132.465 17.0879 126.58 17.0879C120.694 17.0879 115.922 21.8593 115.922 27.7451C115.922 33.6309 120.694 38.4023 126.58 38.4023Z" fill="#FFB8B8"/>
<path d="M68.6116 64.3725C69.0441 63.9642 69.5608 63.6556 70.1255 63.4685C70.6901 63.2815 71.2889 63.2205 71.8797 63.2899C72.4704 63.3593 73.0388 63.5573 73.5447 63.8701C74.0506 64.183 74.4818 64.6029 74.8079 65.1004L83.9437 63.3723L86.3479 68.6679L73.4122 70.9271C72.5401 71.4195 71.5178 71.5749 70.5388 71.3639C69.5598 71.1528 68.6923 70.59 68.1005 69.7821C67.5088 68.9741 67.234 67.9772 67.3282 66.9802C67.4224 65.9832 67.879 65.0554 68.6116 64.3725Z" fill="#FFB8B8"/>
<path d="M118.391 45.2949L103.41 55.1638L78.1311 63.2359C77.7961 63.3436 77.5086 63.5641 77.3178 63.8598C77.127 64.1556 77.0446 64.5083 77.0846 64.858L77.636 69.6078C77.6605 69.818 77.7286 70.0208 77.836 70.2032C77.9434 70.3855 78.0878 70.5434 78.2598 70.6667C78.4318 70.79 78.6276 70.8761 78.8348 70.9192C79.042 70.9624 79.2559 70.9619 79.4629 70.9175L103.254 65.8179C104.405 65.5726 105.494 65.0932 106.452 64.4097L123.283 52.4352C123.893 51.9987 124.38 51.4118 124.696 50.7315C125.012 50.0512 125.147 49.3006 125.087 48.5528C125.025 47.804 124.77 47.0841 124.345 46.464C123.921 45.844 123.343 45.345 122.667 45.0163C121.991 44.6876 121.242 44.5404 120.492 44.5892C119.742 44.6381 119.018 44.8813 118.391 45.2949Z" fill="#CCCCCC"/>
<path d="M141.824 164.064C141.443 164.064 141.071 163.953 140.752 163.745C140.433 163.537 140.182 163.241 140.029 162.892L117.288 106.701C117.235 106.579 117.145 106.476 117.032 106.406C116.919 106.337 116.787 106.303 116.654 106.311C116.522 106.318 116.394 106.366 116.29 106.448C116.185 106.53 116.108 106.642 116.069 106.769L97.5158 161.473C97.4375 161.728 97.308 161.964 97.1351 162.167C96.9623 162.369 96.7498 162.534 96.5107 162.652C96.2717 162.769 96.0112 162.837 95.7451 162.85C95.4791 162.863 95.2132 162.821 94.9638 162.728L88.7423 160.395C88.4046 160.269 88.1083 160.053 87.8864 159.769C87.6645 159.485 87.5256 159.145 87.4852 158.787C84.6863 134.405 109.094 72.8609 109.341 72.2422L109.409 72.0708L131.659 76.9925L131.705 77.0429C140.582 86.7268 147.878 147.805 149.251 159.951C149.302 160.39 149.202 160.833 148.968 161.207C148.733 161.582 148.378 161.865 147.961 162.011L142.47 163.953C142.262 164.026 142.044 164.064 141.824 164.064Z" fill="#2F2E41"/>
<path d="M122.653 78.9735C117.263 78.9735 111.253 77.8988 109.403 73.4626L109.36 73.3607L109.418 73.2662C110.878 70.8704 112.808 66.7835 111.771 66.0163C109.727 64.5055 108.736 62.02 108.824 58.6289C109.015 51.2673 114.031 44.7313 121.305 42.365C123.336 41.7151 125.402 41.1831 127.494 40.7715C129.019 40.4638 130.594 40.4976 132.104 40.8706C133.614 41.2436 135.024 41.9465 136.23 42.9287C137.452 43.9175 138.439 45.1645 139.122 46.5802C139.804 47.9959 140.164 49.5453 140.177 51.1168C140.253 58.9839 139.042 69.9412 132.839 77.4638C132.548 77.8128 132.143 78.0481 131.696 78.1282C128.712 78.668 125.686 78.9508 122.653 78.9735Z" fill="#CCCCCC"/>
<path d="M120.648 78.6789C120.942 77.6266 121.638 76.7325 122.587 76.1911C123.536 75.6496 124.66 75.5045 125.716 75.7873C125.931 75.8475 126.141 75.9254 126.344 76.02L133.281 69.7072L138.105 72.9572L128.185 81.7356C127.737 82.5432 127.032 83.1778 126.181 83.5384C125.331 83.8991 124.385 83.965 123.493 83.7257C122.973 83.5835 122.487 83.3397 122.062 83.0084C121.637 82.6772 121.282 82.265 121.018 81.7957C120.753 81.3264 120.585 80.8093 120.521 80.2743C120.458 79.7394 120.501 79.1971 120.648 78.6789Z" fill="#FFB8B8"/>
<path d="M132.182 78.7591C131.732 78.7594 131.295 78.6038 130.947 78.3187L128.212 76.0832C127.984 75.8969 127.801 75.6614 127.677 75.3943C127.552 75.1273 127.49 74.8356 127.495 74.5411C127.499 74.2467 127.571 73.9571 127.703 73.694C127.835 73.4309 128.025 73.2012 128.259 73.022L139.732 64.2224C139.868 64.1176 139.957 63.9634 139.98 63.7932C140.003 63.6231 139.958 63.4507 139.855 63.3135L132.774 53.9514C131.951 52.8674 131.538 51.5272 131.609 50.168C131.679 48.8089 132.228 47.5186 133.159 46.5254C134.139 45.4671 135.481 44.8158 136.918 44.7008C138.356 44.5858 139.785 45.0155 140.92 45.9047L140.965 45.9519L148.36 56.5403C149.159 57.1672 149.803 57.9705 150.241 58.8875C150.679 59.8044 150.899 60.8102 150.884 61.8262C150.869 62.8421 150.619 63.8409 150.154 64.7444C149.689 65.6479 149.021 66.4317 148.204 67.0345L133.344 78.3763C133.008 78.625 132.6 78.7591 132.182 78.7591Z" fill="#CCCCCC"/>
<path d="M117.14 24.7471V19.4594L126.58 15.3373L135.581 19.4594V24.7471C135.581 24.9772 135.489 25.1979 135.327 25.3607C135.164 25.5234 134.943 25.6149 134.713 25.6149H118.007C117.777 25.6149 117.557 25.5234 117.394 25.3607C117.231 25.1979 117.14 24.9772 117.14 24.7471Z" fill="#2F2E41"/>
<path d="M126.146 12.1058C124.758 7.66328 127.674 2.57189 131.983 0.813407C136.292 -0.945075 141.448 0.284158 145.084 3.18943C148.72 6.09471 150.976 10.4463 152.172 14.9445C153.367 19.4427 153.594 24.1333 153.815 28.7824C159.109 29.7549 162.711 36.0348 160.877 41.0959C159.043 46.157 152.254 48.6714 147.566 46.0261C142.877 43.3808 141.519 36.2699 144.903 32.0831C146.504 30.102 147.399 27.6433 147.445 25.0965C147.491 22.5497 146.686 20.0604 145.157 18.0228C143.629 15.9851 141.464 14.5157 139.006 13.8472C136.548 13.1787 133.937 13.3493 131.587 14.3321C128.978 15.4233 125.704 12.588 126.146 12.1058Z" fill="#2F2E41"/>
<path d="M66.6543 43.8606C60.3152 43.819 54.0553 42.4479 48.2791 39.8361C47.9353 39.6829 47.6434 39.4329 47.4391 39.1168C47.2348 38.8006 47.1269 38.4318 47.1284 38.0554V22.2534C47.129 21.7357 47.3349 21.2394 47.701 20.8733C48.067 20.5073 48.5633 20.3014 49.081 20.3008H84.2275C84.7452 20.3014 85.2415 20.5073 85.6075 20.8733C85.9736 21.2394 86.1795 21.7357 86.1801 22.2534V38.0554C86.1816 38.4318 86.0737 38.8006 85.8694 39.1168C85.6651 39.433 85.3732 39.6829 85.0294 39.8361C79.2532 42.448 72.9934 43.819 66.6543 43.8606Z" fill="#501F6B"/>
<path d="M66.6497 31.059C66.3891 31.0592 66.1311 31.0073 65.8909 30.9064L38.0202 19.1477C37.6608 18.9961 37.355 18.7403 37.1424 18.4133C36.9297 18.0862 36.8198 17.703 36.827 17.313C36.8341 16.923 36.958 16.5441 37.1825 16.2251C37.407 15.9061 37.7219 15.6616 38.0866 15.5233L65.9577 4.94994C66.4066 4.77886 66.9029 4.77991 67.3511 4.9529L94.8487 15.5262C95.2114 15.6657 95.5242 15.9102 95.7471 16.2284C95.97 16.5466 96.0929 16.9242 96.1001 17.3126C96.1073 17.7011 95.9984 18.0829 95.7874 18.4092C95.5764 18.7354 95.2728 18.9913 94.9155 19.1441L67.4176 30.9026C67.1748 31.006 66.9136 31.0592 66.6497 31.059Z" fill="#501F6B"/>
<path d="M50.3827 40.9114C51.8206 40.9114 52.9862 39.7458 52.9862 38.3079C52.9862 36.8701 51.8206 35.7045 50.3827 35.7045C48.9449 35.7045 47.7793 36.8701 47.7793 38.3079C47.7793 39.7458 48.9449 40.9114 50.3827 40.9114Z" fill="#3F3D56"/>
<path opacity="0.2" d="M95.0102 17.475L67.5122 29.2336C67.2978 29.3252 67.0672 29.3728 66.834 29.3733C66.6009 29.3739 66.37 29.3275 66.1552 29.2369L38.2845 17.4785C37.9345 17.3343 37.6424 17.0777 37.4546 16.749C37.3317 16.9622 37.2555 17.199 37.2312 17.4437C37.2068 17.6885 37.2348 17.9357 37.3133 18.1688C37.3918 18.402 37.519 18.6158 37.6864 18.796C37.8539 18.9762 38.0577 19.1187 38.2845 19.2141L66.1552 30.9725C66.37 31.0631 66.6009 31.1095 66.834 31.109C67.0672 31.1084 67.2978 31.0609 67.5122 30.9692L95.0102 19.2107C95.2358 19.1144 95.4384 18.9715 95.6047 18.7912C95.771 18.6109 95.8971 18.3974 95.9748 18.1647C96.0525 17.9321 96.08 17.6856 96.0554 17.4416C96.0308 17.1975 95.9548 16.9615 95.8322 16.749C95.6457 17.075 95.3567 17.3303 95.0102 17.475Z" fill="black"/>
<path d="M50.6014 38.2977C50.7165 38.2977 50.8268 38.252 50.9082 38.1707C50.9896 38.0893 51.0353 37.9789 51.0353 37.8638V23.3447L65.3461 18.1312C65.4612 18.133 65.5722 18.0889 65.6548 18.0087C65.7374 17.9286 65.7847 17.8189 65.7864 17.7038C65.7882 17.5887 65.7441 17.4777 65.6639 17.3951C65.5838 17.3125 65.4741 17.2651 65.359 17.2634L51.0482 22.4769C50.9331 22.4742 50.8186 22.495 50.7117 22.5379C50.6048 22.5808 50.5077 22.6449 50.4263 22.7265C50.344 22.807 50.2788 22.9032 50.2343 23.0094C50.1899 23.1156 50.1671 23.2296 50.1675 23.3447V37.8638C50.1675 37.9789 50.2132 38.0893 50.2946 38.1707C50.376 38.252 50.4863 38.2977 50.6014 38.2977Z" fill="#3F3D56"/>
</g>
<defs>
<clipPath id="clip0_247_345">
<rect width="322.827" height="234" fill="white"/>
</clipPath>
</defs>
</svg>
