<svg width="287" height="222" viewBox="0 0 287 222" fill="none" xmlns="http://www.w3.org/2000/svg">
<g clip-path="url(#clip0_247_87)">
<path d="M46.6548 221.435C46.6548 221.748 46.8265 222 47.0402 222H239.24C239.456 222 239.626 221.749 239.626 221.435C239.626 221.122 239.454 220.87 239.24 220.87H47.0402C46.8265 220.87 46.6548 221.122 46.6548 221.435Z" fill="#CCCCCC"/>
<path d="M116.472 219.573H109.61V220.783H116.472V219.573Z" fill="#B6B3C5"/>
<path d="M177.222 219.775H170.36V220.986H177.222V219.775Z" fill="#B6B3C5"/>
<path d="M153.255 165.688C152.873 167.999 151.683 170.1 149.896 171.616C148.11 173.131 145.843 173.963 143.5 173.963C141.157 173.963 138.89 173.131 137.103 171.616C135.317 170.1 134.126 167.999 133.744 165.688H108.785V219.774H178.216V165.688H153.255Z" fill="#D6D6E3"/>
<path d="M178.416 215.489H108.987V217.371H178.416V215.489Z" fill="#090814"/>
<path d="M283.129 167.102H3.87058C2.84439 167.1 1.86055 166.692 1.13493 165.967C0.409299 165.241 0.00114085 164.257 0 163.231L0 3.87065C0.00104579 2.84447 0.409162 1.86062 1.1348 1.13497C1.86044 0.409318 2.84433 0.00114093 3.87058 0H283.129C284.156 0.00123562 285.139 0.409394 285.865 1.13495C286.591 1.8605 286.999 2.8442 287 3.87029V163.231C286.999 164.257 286.591 165.241 285.865 165.967C285.139 166.692 284.156 167.1 283.129 167.102Z" fill="#090814"/>
<path d="M279.779 6.09424H6.50293V160.28H279.779V6.09424Z" fill="white"/>
<path d="M141.419 124.209L103.831 133.887C102.556 134.214 101.204 134.022 100.07 133.352C98.937 132.683 98.1153 131.592 97.7856 130.318L86.4189 86.1771C86.092 84.9022 86.2843 83.5497 86.9535 82.4164C87.6227 81.283 88.7142 80.4614 89.9884 80.1318L124.957 71.1277L133.907 75.1341L144.988 118.164C145.315 119.439 145.122 120.791 144.453 121.925C143.784 123.058 142.693 123.879 141.419 124.209Z" fill="#090814"/>
<path d="M90.3442 81.5165C89.4368 81.7512 88.6596 82.3363 88.183 83.1433C87.7065 83.9504 87.5695 84.9135 87.8022 85.8213L99.1697 129.962C99.4045 130.869 99.9896 131.646 100.797 132.123C101.604 132.599 102.567 132.736 103.475 132.504L141.062 122.824C141.97 122.589 142.747 122.004 143.223 121.197C143.7 120.39 143.837 119.427 143.604 118.519L132.695 76.1582L124.829 72.6384L90.3442 81.5165Z" fill="#F2F2F2"/>
<path d="M133.812 75.3629L127.993 76.8609C127.783 76.9152 127.564 76.9276 127.349 76.8972C127.134 76.8668 126.927 76.7944 126.74 76.6839C126.553 76.5735 126.389 76.4273 126.259 76.2537C126.128 76.0801 126.033 75.8824 125.979 75.6721L124.873 71.3758C124.868 71.3568 124.869 71.3368 124.874 71.318C124.88 71.2993 124.892 71.2826 124.907 71.27C124.922 71.2574 124.94 71.2493 124.96 71.2467C124.979 71.2442 124.999 71.2472 125.017 71.2555L133.828 75.1682C133.848 75.1769 133.864 75.1915 133.875 75.21C133.886 75.2285 133.891 75.2499 133.889 75.2713C133.887 75.2927 133.879 75.313 133.865 75.3294C133.851 75.3458 133.833 75.3575 133.812 75.3629Z" fill="#090814"/>
<path d="M130.751 113.057L113.638 117.464C113.533 117.491 113.424 117.497 113.316 117.482C113.209 117.467 113.105 117.43 113.012 117.375C112.918 117.32 112.837 117.247 112.771 117.16C112.706 117.073 112.659 116.975 112.632 116.869C112.605 116.764 112.598 116.655 112.614 116.547C112.629 116.44 112.665 116.336 112.72 116.243C112.775 116.149 112.849 116.068 112.935 116.003C113.022 115.937 113.121 115.89 113.226 115.863L130.339 111.456C130.551 111.401 130.777 111.433 130.966 111.545C131.154 111.656 131.291 111.838 131.346 112.05C131.401 112.263 131.369 112.488 131.257 112.677C131.146 112.865 130.964 113.002 130.751 113.057Z" fill="#CCCCCC"/>
<path d="M134.75 114.908L114.334 120.165C114.229 120.192 114.12 120.198 114.012 120.183C113.905 120.168 113.801 120.132 113.708 120.077C113.519 119.965 113.382 119.783 113.327 119.571C113.273 119.359 113.305 119.133 113.416 118.944C113.528 118.756 113.71 118.619 113.922 118.564L134.337 113.307C134.442 113.28 134.552 113.274 134.659 113.289C134.767 113.304 134.87 113.341 134.964 113.396C135.057 113.451 135.139 113.524 135.204 113.611C135.269 113.698 135.317 113.796 135.344 113.902C135.371 114.007 135.377 114.116 135.362 114.224C135.347 114.331 135.31 114.435 135.255 114.528C135.2 114.621 135.127 114.703 135.04 114.768C134.953 114.834 134.855 114.881 134.75 114.908Z" fill="#CCCCCC"/>
<path d="M106.654 122.77C108.268 122.77 109.576 121.462 109.576 119.849C109.576 118.235 108.268 116.927 106.654 116.927C105.04 116.927 103.732 118.235 103.732 119.849C103.732 121.462 105.04 122.77 106.654 122.77Z" fill="#501F6B"/>
<path d="M128.932 105.41L106.204 111.261C105.547 111.429 104.85 111.33 104.266 110.985C103.682 110.64 103.259 110.078 103.09 109.422L98.3268 90.9202C98.159 90.2636 98.2584 89.5673 98.6032 88.9838C98.948 88.4004 99.5101 87.9774 100.166 87.8077L122.894 81.9578C123.551 81.7895 124.248 81.8887 124.831 82.2335C125.415 82.5783 125.838 83.1406 126.008 83.797L130.771 102.298C130.939 102.955 130.839 103.651 130.495 104.234C130.15 104.818 129.588 105.241 128.932 105.41Z" fill="white"/>
<path d="M128.932 105.41L106.204 111.261C105.547 111.429 104.85 111.33 104.266 110.985C103.682 110.64 103.259 110.078 103.09 109.422L98.3268 90.9202C98.159 90.2636 98.2584 89.5673 98.6032 88.9838C98.948 88.4004 99.5101 87.9774 100.166 87.8077L122.894 81.9578C123.551 81.7895 124.248 81.8887 124.831 82.2335C125.415 82.5783 125.838 83.1406 126.008 83.797L130.771 102.298C130.939 102.955 130.839 103.651 130.495 104.234C130.15 104.818 129.588 105.241 128.932 105.41ZM100.242 88.099C99.6625 88.2489 99.1664 88.6224 98.8623 89.1376C98.5582 89.6527 98.4709 90.2675 98.6196 90.8469L103.382 109.348C103.532 109.927 103.906 110.423 104.421 110.727C104.936 111.031 105.551 111.119 106.13 110.97L128.857 105.119C129.436 104.969 129.932 104.596 130.236 104.081C130.54 103.565 130.627 102.951 130.479 102.371L125.716 83.8699C125.566 83.2909 125.193 82.7949 124.678 82.4908C124.163 82.1868 123.548 82.0994 122.968 82.248L100.242 88.099Z" fill="#E6E6E6"/>
<path d="M121.741 88.177L110.27 91.1293C110.17 91.1573 110.063 91.1462 109.971 91.0983C109.878 91.0504 109.807 90.9691 109.773 90.871C109.756 90.8198 109.751 90.7657 109.756 90.7121C109.761 90.6585 109.777 90.6066 109.803 90.5595C109.83 90.5124 109.865 90.4712 109.908 90.4383C109.95 90.4054 109.999 90.3815 110.051 90.3682L121.727 87.3628C122.199 87.6016 122.075 88.0904 121.74 88.1766L121.741 88.177Z" fill="#F2F2F2"/>
<path d="M122.258 90.1893L110.788 93.1416C110.688 93.1696 110.58 93.1585 110.488 93.1105C110.396 93.0625 110.325 92.9812 110.29 92.883C110.274 92.8317 110.268 92.7776 110.273 92.7241C110.279 92.6705 110.295 92.6186 110.321 92.5715C110.347 92.5244 110.383 92.4831 110.425 92.4502C110.468 92.4173 110.517 92.3935 110.569 92.3802L122.245 89.3748C122.717 89.614 122.593 90.1024 122.258 90.1886L122.258 90.1893Z" fill="#F2F2F2"/>
<path d="M108.604 94.9248L105.103 95.8256C105.046 95.8401 104.988 95.8434 104.93 95.8352C104.872 95.827 104.816 95.8075 104.766 95.7778C104.715 95.7481 104.671 95.7088 104.636 95.662C104.601 95.6153 104.576 95.5622 104.561 95.5055L103.497 91.3752C103.483 91.3186 103.48 91.2597 103.488 91.2018C103.496 91.144 103.515 91.0883 103.545 91.038C103.575 90.9876 103.614 90.9436 103.661 90.9085C103.708 90.8734 103.761 90.8478 103.818 90.8333L107.318 89.9321C107.432 89.9029 107.554 89.9201 107.655 89.9801C107.757 90.0401 107.831 90.1379 107.86 90.2521L108.924 94.3825C108.938 94.4391 108.942 94.498 108.933 94.5558C108.925 94.6137 108.906 94.6694 108.876 94.7197C108.846 94.7701 108.807 94.814 108.76 94.8492C108.713 94.8843 108.66 94.9099 108.604 94.9244V94.9248Z" fill="#501F6B"/>
<path d="M123.286 94.3168L105.78 98.8228C105.68 98.8508 105.573 98.8397 105.48 98.7918C105.388 98.7439 105.317 98.6626 105.282 98.5646C105.266 98.5133 105.26 98.4592 105.266 98.4056C105.271 98.352 105.287 98.3001 105.313 98.253C105.339 98.2059 105.375 98.1647 105.417 98.1318C105.46 98.0989 105.509 98.075 105.561 98.0617L123.273 93.5029C123.744 93.7418 123.621 94.2306 123.286 94.3168H123.286Z" fill="#F2F2F2"/>
<path d="M123.804 96.329L106.298 100.835C106.197 100.863 106.09 100.852 105.998 100.804C105.906 100.756 105.835 100.675 105.8 100.577C105.784 100.525 105.778 100.471 105.783 100.418C105.788 100.364 105.805 100.312 105.831 100.265C105.857 100.218 105.892 100.177 105.935 100.144C105.978 100.111 106.026 100.087 106.079 100.074L123.792 95.5151C124.264 95.7543 124.14 96.2428 123.805 96.329H123.804Z" fill="#F2F2F2"/>
<path d="M124.321 98.34L106.815 102.846C106.715 102.874 106.608 102.863 106.516 102.815C106.423 102.767 106.352 102.686 106.318 102.588C106.301 102.536 106.295 102.482 106.301 102.429C106.306 102.375 106.322 102.323 106.348 102.276C106.374 102.229 106.41 102.188 106.453 102.155C106.495 102.122 106.544 102.098 106.596 102.085L124.308 97.5261C124.78 97.765 124.654 98.2538 124.321 98.34Z" fill="#F2F2F2"/>
<path d="M124.84 100.352L107.334 104.858C107.234 104.886 107.126 104.875 107.034 104.827C106.942 104.779 106.871 104.698 106.836 104.6C106.82 104.549 106.814 104.495 106.819 104.441C106.825 104.388 106.841 104.336 106.867 104.289C106.893 104.241 106.928 104.2 106.971 104.167C107.014 104.134 107.063 104.111 107.115 104.097L124.827 99.5388C125.299 99.7773 125.174 100.266 124.84 100.352Z" fill="#F2F2F2"/>
<path d="M125.357 102.364L107.851 106.87C107.751 106.898 107.644 106.887 107.552 106.839C107.459 106.791 107.388 106.71 107.354 106.611C107.337 106.56 107.332 106.506 107.337 106.452C107.342 106.399 107.358 106.347 107.384 106.3C107.411 106.253 107.446 106.212 107.489 106.179C107.531 106.146 107.58 106.122 107.632 106.109L125.344 101.55C125.816 101.789 125.692 102.279 125.357 102.364Z" fill="#F2F2F2"/>
<path d="M106.87 120.873C106.806 120.889 106.739 120.885 106.678 120.86H106.674L105.878 120.522C105.806 120.489 105.749 120.429 105.72 120.355C105.691 120.28 105.692 120.198 105.724 120.125C105.755 120.051 105.813 119.993 105.887 119.962C105.96 119.932 106.043 119.931 106.117 119.96L106.633 120.18L107.309 118.59C107.325 118.553 107.347 118.519 107.376 118.491C107.405 118.463 107.438 118.441 107.476 118.426C107.513 118.411 107.553 118.404 107.593 118.404C107.633 118.404 107.672 118.413 107.709 118.428L107.705 118.439L107.709 118.428C107.784 118.46 107.843 118.52 107.873 118.595C107.903 118.67 107.902 118.754 107.871 118.829L107.075 120.696C107.057 120.739 107.029 120.777 106.993 120.808C106.958 120.838 106.915 120.86 106.87 120.872L106.87 120.873Z" fill="white"/>
<path d="M178.315 135.821L140.215 128.416C138.923 128.163 137.784 127.408 137.048 126.317C136.312 125.226 136.039 123.887 136.289 122.595L144.987 77.8526C145.239 76.5609 145.994 75.4221 147.085 74.6861C148.176 73.9501 149.515 73.677 150.808 73.9267L186.254 80.8161L192.613 88.2784L184.135 131.894C183.882 133.186 183.127 134.325 182.036 135.061C180.945 135.797 179.606 136.07 178.314 135.821L178.315 135.821Z" fill="#090814"/>
<path d="M150.535 75.3296C149.615 75.1518 148.661 75.3462 147.884 75.8704C147.107 76.3945 146.57 77.2054 146.39 78.1253L137.692 122.868C137.514 123.788 137.709 124.741 138.233 125.518C138.757 126.295 139.568 126.833 140.488 127.012L178.587 134.418C179.507 134.595 180.461 134.401 181.238 133.877C182.015 133.353 182.552 132.542 182.732 131.622L191.08 88.6817L185.49 82.1235L150.535 75.3296Z" fill="#F2F2F2"/>
<path d="M178.695 94.3034L161.348 90.9318C161.133 90.89 160.943 90.7644 160.821 90.5828C160.698 90.4012 160.653 90.1783 160.695 89.9632C160.737 89.7482 160.862 89.5585 161.044 89.436C161.226 89.3135 161.448 89.2682 161.663 89.31L179.011 92.6816C179.226 92.7234 179.415 92.849 179.538 93.0306C179.66 93.2122 179.706 93.4351 179.664 93.6502C179.622 93.8652 179.497 94.0549 179.315 94.1774C179.133 94.2999 178.911 94.3452 178.695 94.3034Z" fill="#501F6B"/>
<path d="M181.511 97.6926L160.816 93.6703C160.601 93.6285 160.411 93.503 160.289 93.3213C160.166 93.1397 160.121 92.9168 160.163 92.7018C160.204 92.4867 160.33 92.2971 160.512 92.1745C160.693 92.052 160.916 92.0067 161.131 92.0485L181.826 96.0708C182.041 96.1126 182.231 96.2381 182.353 96.4198C182.476 96.6014 182.521 96.8243 182.479 97.0393C182.437 97.2544 182.312 97.444 182.13 97.5665C181.949 97.6891 181.726 97.7344 181.511 97.6926Z" fill="#501F6B"/>
<path d="M176.625 104.955L159.278 101.583C159.063 101.541 158.84 101.586 158.659 101.709C158.477 101.831 158.351 102.021 158.31 102.236C158.268 102.451 158.313 102.674 158.436 102.856C158.558 103.037 158.748 103.163 158.963 103.205L176.31 106.576C176.525 106.618 176.748 106.573 176.93 106.45C177.111 106.328 177.237 106.138 177.279 105.923C177.321 105.708 177.275 105.485 177.153 105.304C177.03 105.122 176.841 104.996 176.625 104.955Z" fill="#CCCCCC"/>
<path d="M179.441 108.345L158.746 104.322C158.531 104.281 158.308 104.326 158.126 104.448C157.945 104.571 157.819 104.761 157.777 104.976C157.736 105.191 157.781 105.414 157.903 105.595C158.026 105.777 158.216 105.902 158.431 105.944L179.125 109.966C179.34 110.008 179.563 109.963 179.745 109.84C179.926 109.718 180.052 109.528 180.094 109.313C180.135 109.098 180.09 108.875 179.968 108.694C179.845 108.512 179.656 108.387 179.441 108.345Z" fill="#CCCCCC"/>
<path d="M173.923 118.851L156.576 115.479C156.361 115.437 156.172 115.312 156.049 115.13C155.926 114.948 155.881 114.725 155.923 114.51C155.965 114.295 156.09 114.106 156.272 113.983C156.454 113.861 156.676 113.815 156.892 113.857L174.239 117.229C174.454 117.271 174.643 117.396 174.766 117.578C174.889 117.759 174.934 117.982 174.892 118.197C174.85 118.412 174.725 118.602 174.543 118.725C174.361 118.847 174.139 118.892 173.923 118.851Z" fill="#CCCCCC"/>
<path d="M176.739 122.24L156.044 118.218C155.829 118.176 155.639 118.05 155.517 117.869C155.394 117.687 155.349 117.464 155.391 117.249C155.433 117.034 155.558 116.844 155.74 116.722C155.921 116.599 156.144 116.554 156.359 116.596L177.054 120.618C177.269 120.66 177.459 120.785 177.581 120.967C177.704 121.149 177.749 121.372 177.707 121.587C177.665 121.802 177.54 121.991 177.358 122.114C177.177 122.236 176.954 122.282 176.739 122.24Z" fill="#CCCCCC"/>
<path d="M153.459 92.955C155.043 93.2629 156.577 92.2284 156.885 90.6444C157.192 89.0604 156.158 87.5268 154.574 87.2189C152.99 86.911 151.456 87.9455 151.148 89.5295C150.84 91.1135 151.875 92.6471 153.459 92.955Z" fill="#501F6B"/>
<path d="M153.52 91.1257C153.456 91.1133 153.397 91.0801 153.353 91.0313L153.35 91.0282L152.776 90.3818C152.749 90.3519 152.727 90.3169 152.713 90.2787C152.7 90.2405 152.694 90.2 152.696 90.1595C152.698 90.1189 152.708 90.0792 152.726 90.0427C152.743 90.0061 152.768 89.9734 152.798 89.9465C152.829 89.9196 152.864 89.899 152.902 89.886C152.941 89.8729 152.982 89.8677 153.022 89.8705C153.063 89.8734 153.102 89.8842 153.138 89.9025C153.174 89.9208 153.207 89.9461 153.233 89.977L153.605 90.3969L154.898 89.2516C154.928 89.225 154.963 89.2046 155.001 89.1915C155.038 89.1785 155.078 89.173 155.118 89.1755C155.158 89.1779 155.198 89.1882 155.234 89.2058C155.27 89.2233 155.302 89.2478 155.328 89.2778L155.319 89.2848L155.329 89.2776C155.382 89.3382 155.41 89.4176 155.405 89.4983C155.4 89.5791 155.363 89.6546 155.303 89.7082L153.781 91.0549C153.746 91.0859 153.704 91.1084 153.659 91.1206C153.613 91.1328 153.566 91.1344 153.52 91.1253L153.52 91.1257Z" fill="white"/>
<path d="M154.794 102.975C154.721 103.352 154.574 103.71 154.363 104.03C154.151 104.35 153.878 104.626 153.56 104.84C153.242 105.055 152.885 105.205 152.509 105.282C152.133 105.358 151.745 105.36 151.368 105.287C151.344 105.282 151.319 105.277 151.295 105.27C150.734 105.145 150.222 104.859 149.823 104.445C149.424 104.031 149.156 103.509 149.052 102.944C148.949 102.379 149.014 101.796 149.24 101.267C149.466 100.739 149.843 100.289 150.324 99.9742C150.804 99.6591 151.367 99.4926 151.942 99.4957C152.517 99.4988 153.078 99.6713 153.555 99.9916C154.032 100.312 154.404 100.766 154.624 101.296C154.845 101.827 154.904 102.411 154.794 102.975Z" fill="#501F6B"/>
<path d="M148.687 117.502C150.271 117.81 151.805 116.775 152.113 115.191C152.421 113.607 151.386 112.074 149.802 111.766C148.218 111.458 146.684 112.492 146.377 114.076C146.069 115.66 147.103 117.194 148.687 117.502Z" fill="#501F6B"/>
<path d="M192.431 88.4437L186.533 87.2974C186.103 87.2138 185.723 86.9627 185.478 86.5995C185.233 86.2362 185.143 85.7905 185.226 85.3604L186.073 81.0045C186.077 80.9854 186.086 80.9678 186.099 80.9537C186.112 80.9395 186.129 80.9294 186.148 80.9244C186.167 80.9194 186.187 80.9198 186.205 80.9255C186.224 80.9312 186.24 80.942 186.253 80.9567L192.529 88.2744C192.543 88.2907 192.551 88.3109 192.553 88.3322C192.555 88.3536 192.55 88.375 192.54 88.3935C192.529 88.412 192.513 88.4267 192.493 88.4355C192.474 88.4444 192.452 88.447 192.431 88.443L192.431 88.4437Z" fill="#090814"/>
<path d="M213.916 44.3179H73.4321C71.5207 44.3153 69.6883 43.555 68.3367 42.2035C66.9852 40.852 66.2247 39.0198 66.2222 37.1085V30.5546C66.2247 28.6433 66.9852 26.8111 68.3367 25.4596C69.6883 24.1082 71.5207 23.3478 73.4321 23.3452H213.916C215.827 23.3478 217.66 24.1082 219.011 25.4596C220.363 26.8111 221.123 28.6433 221.126 30.5546V37.1085C221.123 39.0198 220.363 40.852 219.011 42.2035C217.66 43.555 215.827 44.3153 213.916 44.3179ZM73.4321 23.7823C71.6365 23.7844 69.915 24.4986 68.6453 25.7682C67.3756 27.0378 66.6614 28.7591 66.6593 30.5546V37.1085C66.6614 38.904 67.3756 40.6253 68.6453 41.8949C69.915 43.1645 71.6365 43.8787 73.4321 43.8808H213.916C215.712 43.8789 217.433 43.1648 218.703 41.8952C219.973 40.6256 220.687 38.9041 220.689 37.1085V30.5546C220.687 28.7591 219.973 27.0378 218.703 25.7682C217.434 24.4986 215.712 23.7844 213.917 23.7823H73.4321Z" fill="#3F3D56"/>
<path d="M178.922 29.6809H81.2644C78.9718 29.6809 77.1133 31.5393 77.1133 33.8317C77.1133 36.1241 78.9718 37.9825 81.2644 37.9825H178.922C181.214 37.9825 183.073 36.1241 183.073 33.8317C183.073 31.5393 181.214 29.6809 178.922 29.6809Z" fill="#501F6B"/>
<path d="M210.185 40.2483C210.056 40.433 209.858 40.5587 209.636 40.598C209.414 40.6372 209.185 40.5868 209 40.4577L204.35 37.2224C204.165 37.0927 204.039 36.8949 203.999 36.6722C203.96 36.4496 204.011 36.2205 204.14 36.0354C204.27 35.8502 204.468 35.7241 204.691 35.6848C204.913 35.6456 205.142 35.6963 205.328 35.826L209.978 39.0613C210.162 39.1912 210.288 39.3892 210.327 39.6118C210.366 39.8344 210.315 40.0633 210.185 40.2483Z" fill="#501F6B"/>
<path d="M204.906 36.5728C204.22 37.553 203.258 38.3077 202.143 38.7414C201.027 39.1751 199.808 39.2683 198.64 39.0093C197.472 38.7503 196.406 38.1507 195.579 37.2863C194.751 36.4219 194.199 35.3315 193.991 34.153C193.783 32.9746 193.929 31.7609 194.411 30.6656C194.893 29.5703 195.689 28.6425 196.699 27.9996C197.708 27.3566 198.885 27.0273 200.082 27.0534C201.278 27.0795 202.44 27.4598 203.42 28.1462C204.071 28.6019 204.626 29.1814 205.053 29.8515C205.48 30.5216 205.771 31.2693 205.909 32.0517C206.047 32.8342 206.029 33.6362 205.857 34.4119C205.685 35.1877 205.362 35.9219 204.906 36.5728ZM196.232 30.4997C195.717 31.2348 195.432 32.1061 195.412 33.0032C195.393 33.9004 195.64 34.7832 196.122 35.5401C196.604 36.2969 197.3 36.8939 198.121 37.2554C198.943 37.6169 199.853 37.7268 200.736 37.5711C201.62 37.4155 202.438 37.0013 203.087 36.3809C203.735 35.7605 204.185 34.9618 204.379 34.0857C204.574 33.2097 204.504 32.2956 204.179 31.4592C203.854 30.6227 203.289 29.9014 202.554 29.3864C202.065 29.0443 201.515 28.8017 200.933 28.6726C200.351 28.5434 199.749 28.5301 199.162 28.6335C198.575 28.7369 198.014 28.9549 197.511 29.2751C197.009 29.5954 196.574 30.0115 196.232 30.4997Z" fill="#501F6B"/>
</g>
<path d="M171.255 90.3517C170.902 90.025 170.468 89.7911 169.994 89.6725C169.52 89.5538 169.022 89.5545 168.548 89.6744C168.077 89.7986 167.641 90.0216 167.271 90.3274C166.901 90.6332 166.605 91.0142 166.407 91.443C165.453 93.397 166.307 95.6746 167.625 97.2702C168.85 98.7529 170.839 99.73 172.778 98.9517C173.661 98.5877 174.403 97.9661 174.899 97.1748C175.395 96.3835 175.62 95.4622 175.543 94.5411C175.299 92.3714 173.466 90.6142 171.314 90.0843C170.684 89.9293 170.415 90.8656 171.045 91.0207C171.793 91.1951 172.486 91.5426 173.063 92.0331C173.639 92.5236 174.083 93.1422 174.355 93.8351C174.593 94.513 174.603 95.2459 174.384 95.9297C174.165 96.6135 173.727 97.2136 173.134 97.6448C170.125 99.8669 166.684 95.6182 167.022 92.8382C167.058 92.4281 167.191 92.0314 167.412 91.6789C167.633 91.3263 167.935 91.0274 168.295 90.8051C168.646 90.6066 169.054 90.5221 169.458 90.5641C169.863 90.6062 170.243 90.7725 170.541 91.0384C170.637 91.1245 170.763 91.1714 170.894 91.1692C171.025 91.1671 171.15 91.1161 171.243 91.027C171.336 90.9379 171.389 90.8177 171.391 90.6917C171.393 90.5657 171.344 90.4438 171.255 90.3517Z" fill="#3F3D56"/>
<path d="M168.677 93.0647L170.163 95.8382C170.215 95.9188 170.289 95.9833 170.378 96.024C170.467 96.0647 170.566 96.0799 170.664 96.0676C170.761 96.0553 170.853 96.0162 170.928 95.9549C171.003 95.8937 171.058 95.8129 171.086 95.7223C171.473 93.8022 172.401 92.0213 173.768 90.5737C174.206 90.113 173.494 89.4243 173.054 89.887C171.563 91.4527 170.545 93.3815 170.112 95.4641L171.035 95.3481L169.548 92.5745C169.251 92.0188 168.379 92.5095 168.677 93.0647Z" fill="#3F3D56"/>
<path d="M185.539 80.2607L173.793 90.2402C173.727 90.2965 173.641 90.3262 173.553 90.3232C173.464 90.3202 173.381 90.2847 173.319 90.2241C173.257 90.1634 173.221 90.0823 173.22 89.9973C173.218 89.9124 173.251 89.8301 173.31 89.7674L184.254 78.2732L185.539 80.2607Z" fill="#3F3D56"/>
<path d="M201.198 201.711H205.814L208.011 184.583H201.198V201.711Z" fill="#FFB6B6"/>
<path d="M198.761 209.406H202.071L202.662 206.399L204.176 209.406H212.957C213.378 209.406 213.787 209.276 214.126 209.036C214.466 208.796 214.716 208.459 214.841 208.072C214.966 207.685 214.96 207.271 214.823 206.888C214.685 206.505 214.425 206.175 214.078 205.944L207.066 201.286V198.246L199.691 198.67L198.761 209.406Z" fill="#2F2E41"/>
<path d="M240.741 201.711H245.357L247.554 184.583H240.741V201.711Z" fill="#FFB6B6"/>
<path d="M238.304 209.406H241.615L242.206 206.399L243.719 209.406H252.5C252.921 209.406 253.331 209.276 253.67 209.036C254.009 208.796 254.259 208.459 254.385 208.072C254.51 207.685 254.503 207.271 254.366 206.888C254.229 206.505 253.968 206.175 253.622 205.944L246.61 201.286V198.246L239.234 198.67L238.304 209.406Z" fill="#2F2E41"/>
<path d="M227.398 110.918L203.984 108.415C203.984 108.415 193.578 121.428 197.481 132.69V145.23L200.342 194.251L207.496 194.627L209.578 172.354L211.529 163.471L213.172 129.624L221.545 139.321L222.325 143.075L224.927 144.827L229.739 151.189L239.625 190.247L248.337 190.373C248.337 190.373 243.658 149.832 243.137 149.832C242.617 149.832 229.609 122.554 229.609 122.554V121.111L229.089 118.3C229.089 118.3 230.39 117.299 229.87 116.799C229.349 116.298 228.829 114.797 228.829 114.797L227.398 110.918Z" fill="#2F2E41"/>
<path d="M218.943 76.0078L223.626 81.0128L230.129 83.2651L226.487 103.786L227.695 109.687L229.479 116.173C222.606 119.83 214.442 114.78 206.941 112.536L199.562 115.673L199.952 107.039L200.152 85.2861C200.16 84.4506 200.346 83.6255 200.699 82.8621C201.052 82.0987 201.564 81.4133 202.204 80.8483C202.844 80.2833 203.598 79.8509 204.418 79.5779C205.239 79.3048 206.11 79.197 206.976 79.2611L211.919 75.7576L218.943 76.0078Z" fill="#501F6B"/>
<path d="M176.463 85.1872C176.5 85.5585 176.621 85.9175 176.818 86.2389C177.015 86.5603 177.282 86.8363 177.602 87.0475C177.922 87.2586 178.286 87.3998 178.668 87.461C179.051 87.5222 179.442 87.502 179.816 87.4018L185.185 94.8547L187.01 90.4822L181.632 84.0751C181.415 83.4827 180.98 82.9872 180.409 82.6827C179.838 82.3781 179.171 82.2856 178.534 82.4227C177.897 82.5598 177.334 82.9169 176.952 83.4264C176.571 83.9359 176.397 84.5624 176.463 85.1872Z" fill="#FFB8B8"/>
<path d="M204.573 79.3677C204.573 79.3677 197.585 79.0698 198.368 92.4284L195.395 98.2966L189.416 92.9289L189.389 91.2202L184.332 85.7836L180.273 90.0996L182.975 94.073L183.496 96.2921L185.141 97.2589L189.435 103.573L191.421 105.453C191.421 105.453 193.94 107.868 196.789 107.505C197.55 107.409 198.29 107.2 198.982 106.884C200.338 106.263 201.677 105.151 202.803 103.267C205.163 99.3757 207.278 95.3525 209.138 91.2185L204.573 79.3677Z" fill="#501F6B"/>
<path d="M235.164 64.2864C235.057 64.6451 235.034 65.0218 235.095 65.3902C235.156 65.7585 235.3 66.1096 235.517 66.4185C235.735 66.7274 236.02 66.9867 236.353 67.1782C236.685 67.3697 237.058 67.4886 237.443 67.5267L239.609 76.3514L242.969 72.9231L240.398 65.0686C240.421 64.441 240.204 63.8269 239.789 63.3426C239.373 62.8584 238.787 62.5377 238.142 62.4413C237.497 62.3449 236.837 62.4795 236.288 62.8195C235.74 63.1596 235.339 63.6815 235.164 64.2864Z" fill="#FFB8B8"/>
<path d="M220.292 82.0755C220.292 82.0755 223.987 76.3623 235 84.535L241.713 85.4936L240.49 77.7148L239.04 76.7274L237.237 69.6417L243.232 68.8611L245.112 73.2511L246.721 74.9188L246.619 76.771L249.607 83.747L250.097 86.3859C250.097 86.3859 250.743 89.7502 248.82 91.8055C248.309 92.355 247.711 92.8239 247.049 93.1949C245.75 93.9196 244.039 94.353 241.786 94.1815C237.116 93.8543 232.47 93.2586 227.874 92.3975L220.292 82.0755Z" fill="#501F6B"/>
<path d="M219.771 73.921C224.138 71.6247 225.743 66.3579 223.356 62.1571C220.968 57.9564 215.493 56.4126 211.126 58.7089C206.759 61.0052 205.154 66.2721 207.542 70.4728C209.929 74.6735 215.404 76.2173 219.771 73.921Z" fill="#FFB6B6"/>
<path d="M227.305 63.3239C227.278 63.3337 227.255 63.3434 227.228 63.3531C227.176 63.3748 227.123 63.3932 227.07 63.4081C226.726 63.5286 226.367 63.607 226.003 63.6412C225.847 63.657 225.691 63.6645 225.535 63.6638C225.335 63.664 225.134 63.651 224.936 63.625C224.715 63.5984 224.497 63.5551 224.283 63.4955C224.182 63.4691 224.082 63.4378 223.984 63.4016C223.315 63.1714 222.712 62.7952 222.22 62.3026C221.728 61.81 221.362 61.2144 221.15 60.5627V60.5594C221.128 60.4957 221.108 60.4309 221.093 60.3652C220.994 60.0006 220.944 59.6252 220.945 59.2484V59.2419C220.945 58.323 221.245 57.4272 221.803 56.6813C222.139 56.2249 222.527 56.1494 222.311 55.626C221.622 53.9565 224.462 52.5999 226.134 53.3374C226.194 53.332 226.255 53.3298 226.316 53.3309C227.443 53.3309 227.857 54.9333 228.527 55.8365L228.507 55.8425C228.337 55.8994 228.189 56.0061 228.085 56.1476C227.981 56.2892 227.925 56.4585 227.926 56.632C227.927 56.8055 227.984 56.9743 228.089 57.1151C228.195 57.2558 228.343 57.3613 228.514 57.4168C228.961 57.5581 229.413 57.6831 229.869 57.7917C231.371 59.5068 229.631 64.5094 227.305 63.3239Z" fill="#2F2E41"/>
<path d="M226.464 67.9113C225.962 69.7338 225.04 71.511 223.516 72.6925C221.988 73.8741 214.81 76.6645 214.211 74.2593C214.612 75.9394 214.366 76.5803 213.713 77.1792C213.602 77.0335 213.484 76.8943 213.363 76.7584C212.917 76.2612 212.381 75.8456 211.781 75.5315C211.763 76.5456 211.836 77.5594 212 78.5614C211.731 78.799 211.475 79.0496 211.233 79.3124C210.082 75.9847 207.551 71.9961 209.399 68.973C210.132 67.7733 209.524 67.6073 208.877 67.4678C207.749 67.2243 207.137 62.7642 206.872 61.6798C206.542 60.3202 206.414 58.7567 207.292 57.6431C208.171 56.5295 210.385 56.4874 210.829 57.8179L211.765 56.6007C212.976 54.0531 216.173 54.5711 219.064 54.9077C221.955 55.2411 224.502 57.2028 225.798 59.7116C227.09 62.2204 227.208 65.2018 226.464 67.9113Z" fill="#2F2E41"/>
<path d="M221.936 56.2494C221.871 57.7873 222.276 59.3097 223.103 60.6275C223.93 61.9453 225.141 63.0004 226.586 63.6615C227.173 63.9189 227.686 63.0822 227.095 62.8229C225.804 62.2462 224.721 61.3134 223.982 60.143C223.243 58.9726 222.882 57.6174 222.946 56.2494C222.981 55.6249 221.971 55.6268 221.936 56.2494Z" fill="#FF6584"/>
<defs>
<clipPath id="clip0_247_87">
<rect width="287" height="222" fill="white"/>
</clipPath>
</defs>
</svg>
