<svg width="313" height="271" viewBox="0 0 313 271" fill="none" xmlns="http://www.w3.org/2000/svg">
<g clip-path="url(#clip0_232_93)">
<path d="M215.035 83.7664C215.024 89.8896 213.198 95.872 209.787 100.957C206.376 106.042 201.534 110.002 195.873 112.335C190.212 114.668 183.986 115.27 177.982 114.065C171.979 112.86 166.468 109.902 162.146 105.564C157.824 101.227 154.885 95.7052 153.701 89.6976C152.517 83.6899 153.141 77.4661 155.494 71.8132C157.848 66.1603 161.824 61.3322 166.922 57.9393C172.019 54.5465 178.008 52.7414 184.131 52.7522C188.199 52.7489 192.229 53.5496 195.987 55.1084C199.745 56.6672 203.158 58.9533 206.03 61.8353C208.902 64.7174 211.176 68.1385 212.721 71.9022C214.267 75.6659 215.053 79.6978 215.035 83.7664Z" fill="#F2F2F2"/>
<path d="M266.561 101.813L270.914 93.5014C267.011 88.7876 254.204 83.0705 254.204 83.0705L236.87 67.2932C236.685 66.5893 236.318 65.9464 235.806 65.4293C235.294 64.9122 234.655 64.5391 233.953 64.3476C233.251 64.1561 232.511 64.1528 231.807 64.3383C231.103 64.5237 230.461 64.8913 229.944 65.4039C229.428 65.9165 229.056 66.5562 228.865 67.2585C228.674 67.9608 228.672 68.7009 228.858 69.4044C229.045 70.1078 229.413 70.7498 229.926 71.2657C230.439 71.7816 231.079 72.1531 231.782 72.343L250.508 94.8025L266.561 101.813Z" fill="#9E616A"/>
<path d="M264.453 101.24L270.599 103.197C275.069 104.62 279.886 104.513 284.288 102.892C285.619 102.396 286.785 101.538 287.655 100.414C288.524 99.2903 289.062 97.9457 289.207 96.5323C289.391 94.6149 288.84 92.6993 287.666 91.1726C286.492 89.6459 284.781 88.6221 282.881 88.3082C277.117 87.3609 269.69 86.8938 267.04 90.0469L267.013 90.0789L264.453 101.24Z" fill="#3F3D56"/>
<path d="M220.241 126.686C237.34 126.686 251.201 112.825 251.201 95.7263C251.201 78.6279 237.34 64.767 220.241 64.767C203.143 64.767 189.282 78.6279 189.282 95.7263C189.282 112.825 203.143 126.686 220.241 126.686Z" fill="white"/>
<path d="M207.606 83.6168C207.181 85.8997 206.485 88.1235 205.531 90.2407C200.07 101.794 215.622 98.0282 221.18 98.0282C227.257 98.0282 233.072 101.224 232.183 87.0251C231.804 80.9601 227.257 76.022 221.18 76.022C215.99 76.022 208.692 78.3291 207.606 83.6168Z" fill="#2F2E41"/>
<path d="M220.27 98.0255C225.208 98.0255 229.211 94.0224 229.211 89.0842C229.211 84.1461 225.208 80.1429 220.27 80.1429C215.332 80.1429 211.329 84.1461 211.329 89.0842C211.329 94.0224 215.332 98.0255 220.27 98.0255Z" fill="#FFB6B6"/>
<path d="M214.198 79.9697C215.765 79.0146 217.559 78.4979 219.394 78.4737C221.229 78.4495 223.037 78.9187 224.628 79.8322C226.219 80.7457 227.536 82.0701 228.441 83.6667C229.345 85.2633 229.804 87.0736 229.769 88.9083C225.213 90.0521 220.427 90.9275 215.568 89.1819L214.421 86.3736L213.744 89.1839C212.265 89.7887 210.781 90.3004 209.298 89.1781C209.237 87.3486 209.658 85.5353 210.518 83.9193C211.378 82.3034 212.647 80.9415 214.198 79.9697Z" fill="#2F2E41"/>
<path d="M244.314 116.312C238.95 122.415 231.402 126.164 223.298 126.75C215.194 127.336 207.185 124.711 201 119.443L203.655 112.033C204.255 110.717 205.202 109.589 206.395 108.77C207.587 107.952 208.98 107.473 210.423 107.385L212.113 107.282L216.141 103.808C216.141 103.808 226.995 103.42 226.834 103.234L233.408 107.189L233.403 107.162L235.987 107.32C237.431 107.407 238.824 107.886 240.016 108.704C241.209 109.523 242.156 110.651 242.755 111.968L244.314 116.312Z" fill="#501F6B"/>
<path d="M217.525 243.883L216.756 233.183C211.717 230.664 206.139 229.413 200.506 229.539C208.43 235.664 207.796 247.906 213.283 256.284C215.015 258.884 217.309 261.06 219.997 262.653C222.684 264.246 225.695 265.213 228.807 265.484L235.402 269.277C236.156 264.292 235.821 259.201 234.418 254.358C233.016 249.514 230.58 245.032 227.279 241.22C225.406 239.1 223.273 237.224 220.931 235.637C219.49 239.775 217.525 243.883 217.525 243.883Z" fill="#F2F2F2"/>
<path d="M17.0188 54.2356L16.2495 43.536C11.2103 41.017 5.63234 39.7661 0 39.8921C7.92394 46.017 7.28925 58.2586 12.777 66.6365C14.5086 69.2363 16.803 71.4132 19.4903 73.0057C22.1776 74.5983 25.1888 75.5657 28.3008 75.8363L34.8954 79.6303C35.6498 74.6443 35.3143 69.5541 33.912 64.7104C32.5097 59.8666 30.074 55.3844 26.7727 51.5726C24.8995 49.4525 22.7667 47.5768 20.4248 45.9897C18.9833 50.1282 17.0188 54.2356 17.0188 54.2356Z" fill="#F2F2F2"/>
<path d="M246.374 265.66L241.23 265.66L238.783 245.819H246.375L246.374 265.66Z" fill="#9E616A"/>
<path d="M247.686 270.646L231.099 270.646V270.436C231.099 268.724 231.78 267.082 232.99 265.871C234.201 264.661 235.843 263.98 237.555 263.98H237.556L240.585 261.682L246.238 263.981L247.686 263.981L247.686 270.646Z" fill="#2F2E41"/>
<path d="M291.71 265.66L286.566 265.66L284.119 245.819H291.711L291.71 265.66Z" fill="#9E616A"/>
<path d="M293.022 270.646L276.435 270.646V270.436C276.435 268.724 277.116 267.082 278.326 265.871C279.537 264.661 281.179 263.98 282.891 263.98H282.892L285.921 261.682L291.574 263.981L293.022 263.981L293.022 270.646Z" fill="#2F2E41"/>
<path d="M283.886 159.469L288.213 200.571C288.213 200.571 293.972 241.726 292.891 247.405C291.809 253.083 293.161 253.894 293.161 253.894L283.292 253.191C283.292 253.191 283.562 249.676 281.939 248.054C280.317 246.431 281.128 241.564 281.128 241.564L261.983 174.612L250.355 209.765C250.355 209.765 248.463 248.433 248.192 248.974C247.922 249.515 247.11 256.816 247.11 256.816H237.105C237.105 256.816 238.457 252.489 236.565 251.137C234.672 249.785 233.049 250.867 234.672 248.433C236.294 246 236.835 243.025 236.294 241.673C235.753 240.321 235.753 234.913 235.753 234.913C235.753 234.913 236.565 161.903 241.161 159.469C245.758 157.035 283.886 159.469 283.886 159.469Z" fill="#2F2E41"/>
<path d="M263.396 76.2474C269.274 76.2474 274.038 71.4831 274.038 65.6059C274.038 59.7288 269.274 54.9645 263.396 54.9645C257.519 54.9645 252.755 59.7288 252.755 65.6059C252.755 71.4831 257.519 76.2474 263.396 76.2474Z" fill="#9E616A"/>
<path d="M287.564 163.949C266.955 168.205 239.645 160.888 239.645 160.888L246.93 129.307L244.34 96.2573C244.024 92.2157 246.326 88.4272 249.907 87.0847L254.852 85.2326L258.939 79.3811L270.614 79.7642L275.281 85.9074L278.964 87.8614L286.949 92.0963L286.984 92.1139V92.1314L284.478 116.437L282.967 131.092C282.967 131.092 287.557 147.575 286.615 149.761C285.673 151.943 286.492 150.889 286.72 152.056C286.949 153.223 287.648 153.296 287.754 155.595C287.862 157.89 287.564 163.949 287.564 163.949Z" fill="#3F3D56"/>
<path d="M312.477 271H153.285C153.191 271 153.1 270.962 153.034 270.895C152.967 270.828 152.93 270.738 152.93 270.643C152.93 270.549 152.967 270.459 153.034 270.392C153.1 270.325 153.191 270.287 153.285 270.287H312.477C312.571 270.287 312.662 270.324 312.729 270.391C312.796 270.458 312.833 270.549 312.833 270.643C312.833 270.738 312.796 270.829 312.729 270.896C312.662 270.962 312.571 271 312.477 271Z" fill="#CCCCCC"/>
<path d="M262.879 75.7361C264.745 75.7171 266.607 75.5386 268.443 75.2027C270.26 74.784 274.271 71.6829 275.364 69.8509C276.176 68.4898 276.663 66.3844 276.929 64.858C277.288 62.8379 277.219 60.7649 276.726 58.7732C276.233 56.7816 275.327 54.9157 274.067 53.2963C273.581 52.6179 272.921 52.0834 272.157 51.7494C272.089 51.7249 272.02 51.7035 271.95 51.6854C270.841 51.4242 269.836 50.8378 269.064 50.0013C268.914 49.832 268.752 49.6737 268.579 49.5276C267.713 48.8338 266.694 48.3549 265.607 48.13C263.851 47.7083 261.339 48.2368 258.14 49.7023C256.533 50.4386 254.75 50.2332 253.375 49.972C253.298 49.9592 253.219 49.9667 253.146 49.994C253.073 50.0212 253.008 50.0671 252.958 50.1271C252.39 50.6882 251.632 51.0136 250.834 51.038C250.346 51.0721 249.851 51.7618 249.254 52.66C249.118 52.8639 248.96 53.1019 248.846 53.2471L248.823 52.9744L248.554 53.2862C248.132 53.7763 247.841 54.3652 247.708 54.9981C247.575 55.631 247.604 56.2874 247.793 56.906C247.981 57.5246 248.324 58.0854 248.787 58.5362C249.251 58.9869 249.822 59.3129 250.445 59.4839C250.94 59.602 251.446 59.6692 251.954 59.6846C252.263 59.7043 252.582 59.7248 252.888 59.7698C253.872 59.9449 254.793 60.3721 255.562 61.0097C256.332 61.6473 256.923 62.4735 257.277 63.4076C257.361 63.6235 257.493 63.8173 257.664 63.9739C257.834 64.1306 258.039 64.2459 258.261 64.3111C258.483 64.3763 258.717 64.3896 258.945 64.3499C259.173 64.3102 259.389 64.2186 259.577 64.0822C259.888 63.8267 260.256 63.6502 260.65 63.5679C261.045 63.4855 261.453 63.4998 261.84 63.6093C262.177 63.7855 262.443 64.0721 262.594 64.4212C262.776 64.8097 263.07 65.1352 263.438 65.356C264.693 65.9624 264.851 68.7884 264.467 71.1576C264.097 73.4412 263.292 75.1071 262.51 75.2086C261.908 75.2867 261.84 75.3314 261.799 75.4393L261.762 75.536L261.832 75.6236C262.169 75.736 262.526 75.7743 262.879 75.7361Z" fill="#2F2E41"/>
<path d="M220.241 127.073C214.042 127.073 207.981 125.235 202.826 121.79C197.671 118.346 193.653 113.45 191.28 107.722C188.908 101.994 188.287 95.6915 189.497 89.6108C190.706 83.53 193.692 77.9445 198.076 73.5605C202.46 69.1765 208.045 66.191 214.126 64.9815C220.207 63.772 226.51 64.3927 232.237 66.7653C237.965 69.1379 242.861 73.1558 246.306 78.3108C249.75 83.4658 251.589 89.5264 251.589 95.7263C251.579 104.037 248.273 112.005 242.397 117.882C236.52 123.758 228.552 127.064 220.241 127.073ZM220.241 65.1548C214.195 65.1548 208.284 66.9478 203.257 70.307C198.229 73.6663 194.311 78.4409 191.997 84.0271C189.683 89.6133 189.078 95.7602 190.257 101.69C191.437 107.621 194.349 113.068 198.624 117.344C202.9 121.619 208.347 124.531 214.277 125.71C220.208 126.89 226.354 126.285 231.941 123.971C237.527 121.657 242.301 117.738 245.661 112.711C249.02 107.683 250.813 101.773 250.813 95.7263C250.804 87.621 247.58 79.8504 241.849 74.1191C236.117 68.3879 228.347 65.164 220.241 65.1548Z" fill="#3F3D56"/>
<path d="M112.038 62.3065C129.136 62.3065 142.997 48.4455 142.997 31.3472C142.997 14.2488 129.136 0.387817 112.038 0.387817C94.9393 0.387817 81.0784 14.2488 81.0784 31.3472C81.0784 48.4455 94.9393 62.3065 112.038 62.3065Z" fill="white"/>
<path d="M113.471 34.5051C119.046 34.5051 123.566 29.9853 123.566 24.4099C123.566 18.8344 119.046 14.3146 113.471 14.3146C107.895 14.3146 103.375 18.8344 103.375 24.4099C103.375 29.9853 107.895 34.5051 113.471 34.5051Z" fill="#FFB8B8"/>
<path d="M122.359 17.7407C122.359 17.7407 124.988 12.7159 119.205 12.2591C119.205 12.2591 114.275 7.78715 109.25 11.4416C109.25 11.4416 106.509 11.4416 105.011 14.5431C105.011 14.5431 102.855 13.7256 102.381 15.9135C102.381 15.9135 100.804 20.4816 102.381 24.5928C103.959 28.704 104.483 29.1608 104.483 29.1608C104.483 29.1608 103.376 24.059 109.685 23.6022C115.994 23.1454 121.782 19.1931 122.307 24.2179C122.833 29.2427 123.411 26.9728 123.411 26.9728C123.411 26.9728 128.405 19.7964 122.359 17.7407Z" fill="#2F2E41"/>
<path d="M135.32 51.9331C129.957 58.0361 122.408 61.7851 114.305 62.3707C106.201 62.9564 98.1918 60.3318 92.0063 55.0635L94.6618 47.6538C95.2619 46.3378 96.2089 45.2099 97.4012 44.3911C98.5936 43.5724 99.9863 43.0936 101.43 43.0061L103.119 42.9024L107.148 39.4282C107.148 39.4282 118.001 39.0407 117.84 38.8551L124.415 42.8096L124.409 42.7823L126.994 42.9406C128.438 43.0277 129.831 43.5063 131.023 44.3252C132.215 45.144 133.162 46.2721 133.762 47.5884L135.32 51.9331Z" fill="#501F6B"/>
<path d="M112.038 62.6942C105.838 62.6942 99.7773 60.8558 94.6223 57.4113C89.4673 53.9668 85.4494 49.0711 83.0768 43.3432C80.7043 37.6152 80.0835 31.3124 81.293 25.2316C82.5025 19.1509 85.4881 13.5653 89.872 9.18137C94.256 4.7974 99.8415 1.81188 105.922 0.602341C112.003 -0.607195 118.306 0.0135802 124.034 2.38617C129.762 4.75876 134.657 8.7766 138.102 13.9316C141.546 19.0866 143.385 25.1473 143.385 31.3471C143.375 39.658 140.07 47.6258 134.193 53.5025C128.316 59.3792 120.349 62.6848 112.038 62.6942ZM112.038 0.775667C105.991 0.775665 100.081 2.56865 95.0532 5.92788C90.0258 9.28712 86.1073 14.0617 83.7935 19.6479C81.4796 25.2341 80.8741 31.381 82.0538 37.3113C83.2334 43.2416 86.145 48.6889 90.4205 52.9644C94.696 57.2399 100.143 60.1516 106.074 61.3312C112.004 62.5108 118.151 61.9054 123.737 59.5915C129.323 57.2776 134.098 53.3592 137.457 48.3317C140.816 43.3043 142.609 37.3936 142.609 31.3471C142.6 23.2419 139.376 15.4713 133.645 9.74C127.914 4.00873 120.143 0.784861 112.038 0.775667Z" fill="#3F3D56"/>
<path d="M39.7766 111.173C56.875 111.173 70.7359 97.3116 70.7359 80.2132C70.7359 63.1149 56.875 49.2539 39.7766 49.2539C22.6782 49.2539 8.81726 63.1149 8.81726 80.2132C8.81726 97.3116 22.6782 111.173 39.7766 111.173Z" fill="white"/>
<path d="M25.4272 70.1422C26.7074 66.0624 29.6185 62.3206 33.6445 60.9414C37.6707 59.5622 43.5662 61.6631 46.593 64.6797C52.1297 70.1977 53.4808 89.1539 49.6769 95.1442C48.9203 95.1042 46.3095 95.0745 45.5437 95.0459L44.4604 91.4353V95.0103C43.2404 94.9726 42.0109 94.9465 40.7718 94.9322C36.6174 94.8807 32.6448 93.2205 29.689 90.3006C26.7333 87.3807 25.0248 83.4286 24.9226 79.2751C24.8235 75.3017 24.9227 71.75 25.4272 70.1422Z" fill="#2F2E41"/>
<path d="M39.3175 83.6636C44.1904 83.6636 48.1407 79.7133 48.1407 74.8404C48.1407 69.9675 44.1904 66.0172 39.3175 66.0172C34.4445 66.0172 30.4943 69.9675 30.4943 74.8404C30.4943 79.7133 34.4445 83.6636 39.3175 83.6636Z" fill="#9E616A"/>
<path d="M31.7028 67.0915L41.8618 62.0046C43.9388 62.9406 45.7275 64.4151 47.0426 66.2753C48.3576 68.1355 49.151 70.3137 49.3406 72.5839L49.5938 75.617L45.3397 74.5341L44.8736 70.6556L44.1512 74.2315L42.1879 73.732L42.2066 67.7108L40.2421 73.7277L33.2303 72.1167L31.7028 67.0915Z" fill="#2F2E41"/>
<path d="M62.7505 100.701C57.3869 106.804 49.8385 110.553 41.7347 111.138C33.6309 111.724 25.6218 109.099 19.4364 103.831L22.0919 96.4215C22.6919 95.1055 23.6389 93.9776 24.8313 93.1588C26.0236 92.3401 27.4163 91.8613 28.8601 91.7738L30.5494 91.6701L34.5776 88.1959C34.5776 88.1959 45.4314 87.8084 45.2704 87.6228L51.8449 91.5773L51.8395 91.55L54.4239 91.7083C55.8678 91.7954 57.2607 92.274 58.4531 93.0929C59.6455 93.9117 60.5924 95.0398 61.1922 96.356L62.7505 100.701Z" fill="#501F6B"/>
<path d="M39.7767 111.56C33.5768 111.56 27.5162 109.722 22.3612 106.277C17.2062 102.833 13.1883 97.9372 10.8157 92.2092C8.44314 86.4813 7.82237 80.1785 9.03191 74.0977C10.2414 68.017 13.227 62.4314 17.6109 58.0475C21.9949 53.6635 27.5804 50.678 33.6612 49.4684C39.7419 48.2589 46.0448 48.8797 51.7727 51.2523C57.5007 53.6249 62.3964 57.6427 65.8409 62.7977C69.2853 67.9527 71.1238 74.0133 71.1238 80.2132C71.1144 88.5241 67.8087 96.4919 61.932 102.369C56.0554 108.245 48.0876 111.551 39.7767 111.56ZM39.7767 49.6418C33.7302 49.6418 27.8196 51.4347 22.7921 54.794C17.7647 58.1532 13.8462 62.9278 11.5323 68.514C9.21846 74.1002 8.61305 80.2471 9.79265 86.1774C10.9723 92.1077 13.8839 97.555 18.1594 101.831C22.4349 106.106 27.8822 109.018 33.8125 110.197C39.7428 111.377 45.8897 110.771 51.4759 108.458C57.0621 106.144 61.8367 102.225 65.1959 97.1978C68.5552 92.1704 70.3482 86.2597 70.3482 80.2132C70.339 72.108 67.1151 64.3374 61.3838 58.6061C55.6526 52.8748 47.8819 49.651 39.7767 49.6418Z" fill="#3F3D56"/>
<path d="M248.835 111.788L244.148 103.659C238.076 104.431 226.388 112.183 226.388 112.183L203.78 118.369C203.087 118.148 202.347 118.113 201.636 118.268C200.925 118.424 200.268 118.764 199.73 119.254C199.192 119.744 198.793 120.367 198.573 121.061C198.353 121.754 198.319 122.494 198.475 123.205C198.631 123.915 198.972 124.572 199.463 125.11C199.954 125.647 200.577 126.045 201.271 126.265C201.965 126.484 202.704 126.517 203.415 126.36C204.126 126.203 204.782 125.862 205.319 125.37L234.315 121.588L248.835 111.788Z" fill="#9E616A"/>
<path d="M247.221 113.261L257.714 104.472L259.241 97.397C259.536 96.007 259.436 94.5623 258.952 93.2261C258.469 91.89 257.622 90.7157 256.506 89.8358C254.985 88.6534 253.073 88.0924 251.154 88.2663C249.236 88.4402 247.455 89.336 246.172 90.7726C242.285 95.1326 237.912 101.154 239.155 105.081L239.168 105.12L247.221 113.261Z" fill="#3F3D56"/>
<path d="M86.3869 143.794H46.9585C45.9018 143.793 44.8887 143.373 44.1416 142.626C43.3944 141.879 42.9741 140.866 42.9729 139.809V115.525C42.9741 114.468 43.3944 113.455 44.1416 112.708C44.8887 111.961 45.9018 111.54 46.9585 111.539H86.3869C87.4436 111.54 88.4566 111.961 89.2038 112.708C89.951 113.455 90.3713 114.468 90.3725 115.525V139.809C90.3713 140.866 89.951 141.879 89.2038 142.626C88.4567 143.373 87.4436 143.793 86.3869 143.794Z" fill="#E6E6E6"/>
<path d="M70.7215 140.667H49.7301C48.7405 140.665 47.7917 140.272 47.0919 139.572C46.3921 138.872 45.9985 137.924 45.9973 136.934V118.4C45.9985 117.41 46.3921 116.461 47.0919 115.761C47.7917 115.062 48.7405 114.668 49.7301 114.667H83.6156C84.6052 114.668 85.554 115.062 86.2537 115.761C86.9535 116.461 87.3471 117.41 87.3482 118.4V124.04C87.3432 128.448 85.5898 132.674 82.4728 135.791C79.3557 138.908 75.1296 140.662 70.7215 140.667Z" fill="white"/>
<path d="M80.2351 124.816H53.1103C52.8757 124.816 52.6507 124.723 52.4848 124.557C52.3189 124.391 52.2257 124.166 52.2257 123.931C52.2257 123.697 52.3189 123.472 52.4848 123.306C52.6507 123.14 52.8757 123.047 53.1103 123.047H80.2351C80.4698 123.047 80.6948 123.14 80.8607 123.306C81.0266 123.472 81.1198 123.697 81.1198 123.931C81.1198 124.166 81.0266 124.391 80.8607 124.557C80.6948 124.723 80.4698 124.816 80.2351 124.816Z" fill="#501F6B"/>
<path d="M57.3534 128.311H53.1104C52.8757 128.311 52.6507 128.218 52.4848 128.052C52.3189 127.886 52.2257 127.661 52.2257 127.427C52.2257 127.192 52.3189 126.967 52.4848 126.801C52.6507 126.635 52.8757 126.542 53.1104 126.542H57.3534C57.588 126.542 57.8131 126.635 57.979 126.801C58.1449 126.967 58.2381 127.192 58.2381 127.427C58.2381 127.661 58.1449 127.886 57.979 128.052C57.8131 128.218 57.588 128.311 57.3534 128.311Z" fill="#501F6B"/>
<path d="M64.8683 131.807H53.1104C52.8761 131.807 52.6515 131.713 52.486 131.547C52.3205 131.381 52.2275 131.157 52.2275 130.922C52.2275 130.688 52.3205 130.463 52.486 130.297C52.6515 130.132 52.8761 130.038 53.1104 130.038H64.8683C65.1026 130.038 65.3272 130.132 65.4927 130.297C65.6582 130.463 65.7511 130.688 65.7511 130.922C65.7511 131.157 65.6582 131.381 65.4927 131.547C65.3272 131.713 65.1026 131.807 64.8683 131.807Z" fill="#501F6B"/>
<path d="M41.597 119.396C46.2034 119.396 49.9377 115.662 49.9377 111.055C49.9377 106.449 46.2034 102.715 41.597 102.715C36.9906 102.715 33.2563 106.449 33.2563 111.055C33.2563 115.662 36.9906 119.396 41.597 119.396Z" fill="#3F3D56"/>
<path d="M188.773 33.6517H149.345C148.288 33.6505 147.275 33.2302 146.528 32.483C145.781 31.7358 145.36 30.7227 145.359 29.6661V5.38185C145.36 4.32517 145.781 3.31211 146.528 2.56492C147.275 1.81774 148.288 1.39744 149.345 1.39624H188.773C189.83 1.39743 190.843 1.81773 191.59 2.56492C192.337 3.31211 192.758 4.32517 192.759 5.38185V29.6661C192.758 30.7227 192.337 31.7358 191.59 32.483C190.843 33.2302 189.83 33.6505 188.773 33.6517Z" fill="#E6E6E6"/>
<path d="M173.108 30.5237H152.116C151.127 30.5226 150.178 30.129 149.478 29.4292C148.778 28.7295 148.385 27.7807 148.384 26.7911V8.25681C148.385 7.26717 148.778 6.3184 149.478 5.61863C150.178 4.91887 151.127 4.52526 152.116 4.52417H186.002C186.991 4.52527 187.94 4.91888 188.64 5.61865C189.34 6.31842 189.733 7.26719 189.734 8.25681V13.8972C189.729 18.3053 187.976 22.5314 184.859 25.6484C181.742 28.7654 177.516 30.5187 173.108 30.5237Z" fill="white"/>
<path d="M182.621 14.6731H155.497C155.262 14.6731 155.037 14.5799 154.871 14.414C154.705 14.2481 154.612 14.0231 154.612 13.7884C154.612 13.5538 154.705 13.3288 154.871 13.1629C155.037 12.997 155.262 12.9038 155.497 12.9038H182.621C182.856 12.9038 183.081 12.997 183.247 13.1629C183.413 13.3288 183.506 13.5538 183.506 13.7884C183.506 14.0231 183.413 14.2481 183.247 14.414C183.081 14.5799 182.856 14.6731 182.621 14.6731Z" fill="#501F6B"/>
<path d="M159.74 18.1688H155.497C155.262 18.1688 155.037 18.0756 154.871 17.9096C154.705 17.7437 154.612 17.5187 154.612 17.2841C154.612 17.0495 154.705 16.8244 154.871 16.6585C155.037 16.4926 155.262 16.3994 155.497 16.3994H159.74C159.974 16.3994 160.199 16.4926 160.365 16.6585C160.531 16.8244 160.624 17.0495 160.624 17.2841C160.624 17.5187 160.531 17.7437 160.365 17.9096C160.199 18.0756 159.974 18.1688 159.74 18.1688Z" fill="#501F6B"/>
<path d="M167.255 21.6644H155.497C155.262 21.6639 155.038 21.5704 154.872 21.4046C154.707 21.2387 154.614 21.014 154.614 20.7797C154.614 20.5454 154.707 20.3206 154.872 20.1548C155.038 19.9889 155.262 19.8955 155.497 19.895H167.255C167.489 19.895 167.714 19.9882 167.88 20.1541C168.046 20.32 168.139 20.5451 168.139 20.7797C168.139 21.0143 168.046 21.2393 167.88 21.4053C167.714 21.5712 167.489 21.6644 167.255 21.6644Z" fill="#501F6B"/>
<path d="M143.983 38.3403C148.59 38.3403 152.324 34.606 152.324 29.9996C152.324 25.3932 148.59 21.6589 143.983 21.6589C139.377 21.6589 135.643 25.3932 135.643 29.9996C135.643 34.606 139.377 38.3403 143.983 38.3403Z" fill="#3F3D56"/>
</g>
<defs>
<clipPath id="clip0_232_93">
<rect width="312.833" height="271" fill="white"/>
</clipPath>
</defs>
</svg>
