<svg width="409" height="288" viewBox="0 0 409 288" fill="none" xmlns="http://www.w3.org/2000/svg">
<g clip-path="url(#clip0_232_45)">
<path d="M90.5649 28.8493H64.5012C61.9954 28.8515 59.5929 29.8479 57.8211 31.6198C56.0492 33.3916 55.0528 35.7941 55.0505 38.2999V66.5572C54.7173 66.5373 54.3841 66.5075 54.0557 66.4677C47.881 65.8181 42.0105 63.4564 37.1062 59.6489C32.2019 55.8414 28.4588 50.7395 26.2988 44.9185C24.1389 39.0975 23.6481 32.7889 24.8817 26.7039C26.1154 20.6188 29.0244 14.9995 33.2808 10.4793C37.5372 5.95907 42.9718 2.71784 48.9718 1.12101C54.9717 -0.475814 61.2985 -0.364738 67.2387 1.44173C73.1789 3.24819 78.4963 6.6782 82.5914 11.345C86.6865 16.0118 89.3965 21.7299 90.4158 27.8545C90.4705 28.1827 90.5202 28.516 90.5649 28.8493Z" fill="#F2F2F2"/>
<path d="M398.257 27.8545H64.5011C61.7317 27.8575 59.0767 28.959 57.1184 30.9172C55.1602 32.8755 54.0587 35.5305 54.0557 38.2999V214.38C54.0587 217.149 55.1602 219.804 57.1184 221.763C59.0767 223.721 61.7317 224.822 64.5011 224.825H398.257C401.027 224.822 403.682 223.721 405.64 221.763C407.598 219.804 408.7 217.149 408.703 214.38V38.2999C408.7 35.5305 407.598 32.8755 405.64 30.9172C403.682 28.959 401.027 27.8575 398.257 27.8545ZM407.708 214.38C407.706 216.886 406.709 219.288 404.937 221.06C403.165 222.832 400.763 223.828 398.257 223.831H64.5011C61.9953 223.828 59.5928 222.832 57.821 221.06C56.0492 219.288 55.0527 216.886 55.0505 214.38V38.2999C55.0527 35.7942 56.0492 33.3917 57.821 31.6198C59.5928 29.848 61.9953 28.8516 64.5011 28.8493H398.257C400.763 28.8516 403.165 29.848 404.937 31.6198C406.709 33.3917 407.706 35.7942 407.708 38.2999V214.38Z" fill="#3F3D56"/>
<path d="M381.843 56.3902H80.9154C80.7835 56.3902 80.6569 56.3378 80.5637 56.2445C80.4704 56.1512 80.418 56.0247 80.418 55.8928C80.418 55.7609 80.4704 55.6344 80.5637 55.5411C80.6569 55.4478 80.7835 55.3954 80.9154 55.3954H381.843C381.975 55.3954 382.101 55.4478 382.195 55.5411C382.288 55.6344 382.34 55.7609 382.34 55.8928C382.34 56.0247 382.288 56.1512 382.195 56.2445C382.101 56.3378 381.975 56.3902 381.843 56.3902Z" fill="#3F3D56"/>
<path d="M165.971 203.437C165.839 203.437 165.713 203.385 165.619 203.291C165.526 203.198 165.474 203.072 165.474 202.94V39.2947C165.474 39.1628 165.526 39.0363 165.619 38.943C165.713 38.8497 165.839 38.7973 165.971 38.7973C166.103 38.7973 166.23 38.8497 166.323 38.943C166.417 39.0363 166.469 39.1628 166.469 39.2947V202.94C166.469 203.072 166.417 203.198 166.323 203.291C166.23 203.385 166.103 203.437 165.971 203.437Z" fill="#3F3D56"/>
<path d="M241.079 203.437C240.947 203.437 240.82 203.385 240.727 203.291C240.634 203.198 240.581 203.072 240.581 202.94V39.2947C240.581 39.1628 240.634 39.0363 240.727 38.943C240.82 38.8497 240.947 38.7973 241.079 38.7973C241.211 38.7973 241.337 38.8497 241.431 38.943C241.524 39.0363 241.577 39.1628 241.577 39.2947V202.94C241.577 203.072 241.524 203.198 241.431 203.291C241.337 203.385 241.211 203.437 241.079 203.437Z" fill="#3F3D56"/>
<path d="M316.186 203.437C316.054 203.437 315.928 203.385 315.835 203.291C315.741 203.198 315.689 203.072 315.689 202.94V39.2947C315.689 39.1628 315.741 39.0363 315.835 38.943C315.928 38.8497 316.054 38.7973 316.186 38.7973C316.318 38.7973 316.445 38.8497 316.538 38.943C316.632 39.0363 316.684 39.1628 316.684 39.2947V202.94C316.684 203.072 316.632 203.198 316.538 203.291C316.445 203.385 316.318 203.437 316.186 203.437Z" fill="#3F3D56"/>
<path d="M117.681 107.731H99.506C98.9126 107.73 98.3436 107.494 97.924 107.074C97.5044 106.655 97.2684 106.086 97.2677 105.492V84.0448C97.2684 83.4513 97.5044 82.8824 97.924 82.4628C98.3436 82.0431 98.9126 81.8071 99.506 81.8065H117.681C118.274 81.8071 118.843 82.0431 119.263 82.4628C119.683 82.8824 119.919 83.4513 119.919 84.0448V105.493C119.919 106.086 119.683 106.655 119.263 107.074C118.843 107.494 118.274 107.73 117.681 107.731Z" fill="#501F6B"/>
<path d="M143.546 168.911H125.371C124.777 168.911 124.209 168.674 123.789 168.255C123.369 167.835 123.133 167.266 123.133 166.673V145.225C123.133 144.632 123.369 144.063 123.789 143.643C124.209 143.223 124.777 142.987 125.371 142.987H143.546C144.139 142.987 144.708 143.223 145.128 143.643C145.548 144.063 145.784 144.632 145.784 145.225V166.673C145.784 167.266 145.548 167.835 145.128 168.255C144.708 168.674 144.139 168.911 143.546 168.911Z" fill="#501F6B"/>
<path d="M202.239 120.663H184.064C183.471 120.663 182.902 120.427 182.482 120.007C182.063 119.587 181.827 119.018 181.826 118.425V96.9772C181.827 96.3838 182.063 95.8148 182.482 95.3952C182.902 94.9756 183.471 94.7396 184.064 94.7389H202.239C202.833 94.7396 203.402 94.9756 203.821 95.3952C204.241 95.8148 204.477 96.3838 204.478 96.9772V118.425C204.477 119.018 204.241 119.587 203.821 120.007C203.402 120.427 202.833 120.663 202.239 120.663Z" fill="#501F6B"/>
<path d="M278.342 97.2854H260.167C259.573 97.2847 259.004 97.0487 258.585 96.629C258.165 96.2094 257.929 95.6405 257.928 95.0471V73.5993C257.929 73.0059 258.165 72.437 258.585 72.0173C259.004 71.5977 259.573 71.3617 260.167 71.361H278.342C278.935 71.3617 279.504 71.5977 279.924 72.0173C280.343 72.437 280.579 73.0059 280.58 73.5993V95.0471C280.579 95.6405 280.343 96.2094 279.924 96.6291C279.504 97.0487 278.935 97.2847 278.342 97.2854Z" fill="#501F6B"/>
<path d="M348.475 97.2854H330.3C329.707 97.2847 329.138 97.0487 328.718 96.629C328.299 96.2094 328.063 95.6405 328.062 95.0471V73.5993C328.063 73.0059 328.299 72.437 328.718 72.0173C329.138 71.5977 329.707 71.3617 330.3 71.361H348.475C349.069 71.3617 349.638 71.5977 350.057 72.0173C350.477 72.437 350.713 73.0059 350.714 73.5993V95.0471C350.713 95.6405 350.477 96.2094 350.057 96.6291C349.638 97.0487 349.069 97.2847 348.475 97.2854Z" fill="#501F6B"/>
<path d="M380.806 103.254H362.631C362.038 103.254 361.469 103.017 361.049 102.598C360.63 102.178 360.394 101.609 360.393 101.016V79.5681C360.394 78.9747 360.63 78.4058 361.049 77.9861C361.469 77.5665 362.038 77.3305 362.631 77.3298H380.806C381.4 77.3305 381.969 77.5665 382.388 77.9861C382.808 78.4058 383.044 78.9747 383.045 79.5681V101.016C383.044 101.609 382.808 102.178 382.388 102.598C381.969 103.017 381.4 103.254 380.806 103.254Z" fill="#E6E6E6"/>
<path d="M366.382 141.554H348.207C347.613 141.553 347.044 141.317 346.625 140.898C346.205 140.478 345.969 139.909 345.968 139.316V117.868C345.969 117.275 346.205 116.706 346.625 116.286C347.044 115.866 347.613 115.63 348.207 115.63H366.382C366.975 115.63 367.544 115.866 367.964 116.286C368.383 116.706 368.619 117.275 368.62 117.868V139.316C368.619 139.909 368.383 140.478 367.964 140.898C367.544 141.317 366.975 141.553 366.382 141.554Z" fill="#E6E6E6"/>
<path d="M304.704 133.596H286.529C285.935 133.595 285.366 133.359 284.947 132.939C284.527 132.52 284.291 131.951 284.291 131.357V109.91C284.291 109.316 284.527 108.747 284.947 108.328C285.366 107.908 285.935 107.672 286.529 107.671H304.704C305.297 107.672 305.866 107.908 306.286 108.328C306.705 108.747 306.941 109.316 306.942 109.91V131.357C306.941 131.951 306.705 132.52 306.286 132.939C305.866 133.359 305.297 133.595 304.704 133.596Z" fill="#9D57C2"/>
<path d="M269.388 141.554H251.213C250.62 141.553 250.051 141.317 249.631 140.898C249.212 140.478 248.976 139.909 248.975 139.316V117.868C248.976 117.275 249.212 116.706 249.631 116.286C250.051 115.866 250.62 115.63 251.213 115.63H269.388C269.982 115.63 270.551 115.866 270.97 116.286C271.39 116.706 271.626 117.275 271.627 117.868V139.316C271.626 139.909 271.39 140.478 270.97 140.898C270.551 141.317 269.982 141.553 269.388 141.554Z" fill="#E6E6E6"/>
<path d="M193.286 175.377H175.111C174.518 175.377 173.949 175.141 173.529 174.721C173.109 174.301 172.873 173.732 172.873 173.139V151.691C172.873 151.098 173.109 150.529 173.529 150.109C173.949 149.69 174.518 149.454 175.111 149.453H193.286C193.88 149.454 194.448 149.69 194.868 150.109C195.288 150.529 195.524 151.098 195.524 151.691V173.139C195.524 173.732 195.288 174.301 194.868 174.721C194.448 175.141 193.88 175.377 193.286 175.377Z" fill="#E6E6E6"/>
<path d="M101.267 147.025H83.0918C82.4984 147.025 81.9295 146.789 81.5098 146.369C81.0902 145.95 80.8542 145.381 80.8535 144.787V123.339C80.8542 122.746 81.0902 122.177 81.5098 121.757C81.9295 121.338 82.4984 121.102 83.0918 121.101H101.267C101.86 121.102 102.429 121.338 102.849 121.757C103.268 122.177 103.505 122.746 103.505 123.339V144.787C103.505 145.381 103.268 145.95 102.849 146.369C102.429 146.789 101.86 147.025 101.267 147.025Z" fill="#9D57C2"/>
<path d="M152.499 107.731H134.324C133.731 107.73 133.162 107.494 132.742 107.074C132.323 106.655 132.086 106.086 132.086 105.492V84.0448C132.086 83.4513 132.323 82.8824 132.742 82.4628C133.162 82.0431 133.731 81.8071 134.324 81.8065H152.499C153.093 81.8071 153.662 82.0431 154.081 82.4628C154.501 82.8824 154.737 83.4513 154.737 84.0448V105.493C154.737 106.086 154.501 106.655 154.081 107.074C153.662 107.494 153.093 107.73 152.499 107.731Z" fill="#E6E6E6"/>
<path d="M137.619 48.2479H109.267C108.74 48.2479 108.233 48.0383 107.86 47.6651C107.487 47.292 107.278 46.786 107.278 46.2583C107.278 45.7306 107.487 45.2245 107.86 44.8514C108.233 44.4783 108.74 44.2687 109.267 44.2687H137.619C138.147 44.2687 138.653 44.4783 139.026 44.8514C139.399 45.2245 139.609 45.7306 139.609 46.2583C139.609 46.786 139.399 47.292 139.026 47.6651C138.653 48.0383 138.147 48.2479 137.619 48.2479Z" fill="#CCCCCC"/>
<path d="M217.701 48.2479H189.349C188.821 48.2479 188.315 48.0383 187.942 47.6651C187.569 47.292 187.359 46.786 187.359 46.2583C187.359 45.7306 187.569 45.2245 187.942 44.8514C188.315 44.4783 188.821 44.2687 189.349 44.2687H217.701C218.228 44.2687 218.734 44.4783 219.107 44.8514C219.481 45.2245 219.69 45.7306 219.69 46.2583C219.69 46.786 219.481 47.292 219.107 47.6651C218.734 48.0383 218.228 48.2479 217.701 48.2479Z" fill="#CCCCCC"/>
<path d="M292.808 48.2479H264.456C263.929 48.2479 263.423 48.0383 263.05 47.6651C262.676 47.292 262.467 46.786 262.467 46.2583C262.467 45.7306 262.676 45.2245 263.05 44.8514C263.423 44.4783 263.929 44.2687 264.456 44.2687H292.808C293.336 44.2687 293.842 44.4783 294.215 44.8514C294.588 45.2245 294.798 45.7306 294.798 46.2583C294.798 46.786 294.588 47.292 294.215 47.6651C293.842 48.0383 293.336 48.2479 292.808 48.2479Z" fill="#CCCCCC"/>
<path d="M362.942 48.2479H334.59C334.062 48.2479 333.556 48.0383 333.183 47.6651C332.81 47.292 332.6 46.786 332.6 46.2583C332.6 45.7306 332.81 45.2245 333.183 44.8514C333.556 44.4783 334.062 44.2687 334.59 44.2687H362.942C363.469 44.2687 363.976 44.4783 364.349 44.8514C364.722 45.2245 364.931 45.7306 364.931 46.2583C364.931 46.786 364.722 47.292 364.349 47.6651C363.976 48.0383 363.469 48.2479 362.942 48.2479Z" fill="#CCCCCC"/>
<path d="M74.1174 193.932C73.3897 193.861 72.6864 193.631 72.0571 193.259C71.4279 192.886 70.888 192.38 70.4754 191.777C70.0628 191.173 69.7876 190.486 69.6692 189.765C69.5508 189.043 69.592 188.304 69.79 187.6L57.0402 175.732L63.7813 174.022L76.3187 184.19C77.4792 184.601 78.4486 185.424 79.0432 186.502C79.6379 187.58 79.8165 188.838 79.5451 190.039C79.2738 191.24 78.5714 192.3 77.571 193.017C76.5707 193.735 75.3418 194.06 74.1174 193.932Z" fill="#FFB8B8"/>
<path d="M91.7228 281.655H97.8209L100.722 258.134H91.7218L91.7228 281.655Z" fill="#FFB8B8"/>
<path d="M109.581 287.317L90.4162 287.317L90.4159 279.913L102.176 279.912C104.14 279.912 106.024 280.692 107.412 282.081C108.801 283.469 109.581 285.353 109.581 287.317Z" fill="#2F2E41"/>
<path d="M49.9117 277.252L55.805 278.821L64.6592 256.837L55.9621 254.523L49.9117 277.252Z" fill="#FFB8B8"/>
<path d="M65.7131 287.318L47.1928 282.389L49.0975 275.233L60.4622 278.258C62.36 278.763 63.9794 280.002 64.9641 281.701C65.9488 283.4 66.2183 285.421 65.7131 287.318Z" fill="#2F2E41"/>
<path d="M99.4608 277.202H90.1558C89.568 277.204 89.0008 276.986 88.5657 276.59C88.1307 276.195 87.8593 275.651 87.805 275.066L82.1563 216.407C82.1149 215.977 81.9253 215.574 81.6198 215.268C81.3144 214.962 80.9122 214.772 80.4819 214.73C80.0517 214.688 79.6203 214.797 79.2614 215.038C78.9026 215.279 78.6387 215.637 78.5148 216.051L62.1138 270.865C61.9403 271.447 61.5487 271.94 61.0204 272.241C60.4922 272.542 59.8682 272.627 59.2786 272.479L50.6223 270.315C50.3202 270.239 50.036 270.105 49.7861 269.919C49.5361 269.733 49.3254 269.5 49.166 269.232C49.0067 268.965 48.9018 268.668 48.8574 268.36C48.8131 268.052 48.8302 267.738 48.9076 267.436C49.049 266.884 63.0391 212.211 63.1613 211.649C66.3311 188.287 70.1235 182.027 72.1608 178.664C72.3294 178.385 72.4844 178.129 72.6239 177.887C72.7986 177.585 73.8736 174.582 74.5556 172.633C74.6442 172.316 74.7975 172.02 75.006 171.765C75.2145 171.51 75.4735 171.301 75.7668 171.152C84.3274 166.774 94.3435 169.804 97.2093 170.837C97.6845 171.005 98.0925 171.322 98.3723 171.74C106.97 184.708 102.751 260.025 101.817 274.991C101.779 275.59 101.513 276.152 101.076 276.562C100.638 276.973 100.061 277.201 99.4608 277.202Z" fill="#2F2E41"/>
<path d="M75.4479 128.621C82.195 128.621 87.6646 123.151 87.6646 116.404C87.6646 109.657 82.195 104.187 75.4479 104.187C68.7008 104.187 63.2312 109.657 63.2312 116.404C63.2312 123.151 68.7008 128.621 75.4479 128.621Z" fill="#FFB8B8"/>
<path d="M74.1534 175.005L74.0656 174.92C73.9009 174.76 57.6237 158.814 59.7302 144.069C60.6312 137.762 65.734 133.732 74.487 132.414C77.7026 131.937 80.9826 132.636 83.724 134.383C86.4655 136.13 88.4841 138.808 89.4089 141.925L98.0636 171.513L74.1534 175.005Z" fill="#CCCCCC"/>
<path d="M65.8225 186.347L54.2239 174.821C53.4308 174.029 52.8551 173.046 52.5519 171.966C52.2488 170.887 52.2285 169.747 52.4931 168.658L58.108 145.818C58.2762 145.133 58.5831 144.491 59.0096 143.93C59.4362 143.369 59.9734 142.901 60.5879 142.556C61.2024 142.211 61.8812 141.996 62.5823 141.924C63.2834 141.852 63.9918 141.924 64.6637 142.137C65.9444 142.55 67.0141 143.445 67.6463 144.633C68.2785 145.82 68.4235 147.208 68.0506 148.5L62.1392 168.594L71.6984 178.858L65.8225 186.347Z" fill="#CCCCCC"/>
<path d="M128.033 147.013C127.727 147.677 127.278 148.265 126.719 148.737C126.161 149.209 125.505 149.552 124.799 149.743C124.094 149.934 123.355 149.968 122.634 149.843C121.914 149.717 121.23 149.435 120.63 149.017L105.146 157.042L105.831 150.225L119.557 141.73C120.327 140.769 121.423 140.124 122.636 139.917C123.85 139.71 125.097 139.956 126.142 140.607C127.187 141.258 127.956 142.27 128.305 143.451C128.653 144.631 128.557 145.899 128.033 147.013Z" fill="#FFB8B8"/>
<path d="M118.939 152.088L103.845 158.61C102.84 159.041 101.742 159.206 100.655 159.09C99.5679 158.973 98.5293 158.579 97.6388 157.945L78.4446 144.192C77.8718 143.781 77.3893 143.258 77.0269 142.653C76.6646 142.049 76.4302 141.376 76.3382 140.678C76.2461 139.979 76.2985 139.269 76.492 138.591C76.6855 137.914 77.0159 137.283 77.463 136.738C78.3221 135.702 79.5506 135.042 80.8884 134.896C82.2262 134.75 83.5681 135.131 84.6299 135.958L101.088 148.911L114.17 143.85L118.939 152.088Z" fill="#CCCCCC"/>
<path d="M77.4731 120.319C78.9803 118.43 81.7959 118.329 83.8661 117.083C86.5779 115.451 87.699 111.805 86.8251 108.764C85.9513 105.722 83.3741 103.351 80.4194 102.218C77.4647 101.084 74.1773 101.07 71.0603 101.618C66.4195 102.434 61.8504 104.6 59.02 108.367C56.1896 112.134 55.4693 117.652 58.0344 121.604C59.2134 123.421 61.0333 124.92 61.504 127.034C62.1219 129.81 60.1752 132.486 58.0897 134.419C55.7138 136.62 52.9879 138.464 50.9063 140.946C48.8247 143.428 47.4366 146.819 48.3865 149.915C49.1823 152.51 51.4982 154.422 54.0377 155.379C56.5772 156.336 59.343 156.474 62.0564 156.528C64.6912 156.579 67.4898 156.515 69.7094 155.094C72.0856 153.573 73.3543 150.688 73.448 147.869C73.5417 145.049 72.5995 142.286 71.3367 139.764C70.584 138.26 69.7089 136.803 69.2087 135.197C68.7086 133.592 68.6219 131.77 69.4229 130.292C70.2648 128.737 71.9682 127.8 73.7026 127.459C73.7927 127.442 73.8881 127.426 73.9878 127.412C74.4813 127.348 74.9567 127.184 75.3852 126.931C75.8137 126.678 76.1865 126.341 76.4809 125.94C76.7754 125.539 76.9854 125.082 77.0984 124.597C77.2113 124.113 77.2248 123.61 77.138 123.12C76.9404 122.019 76.9574 120.965 77.4731 120.319Z" fill="#2F2E41"/>
<path d="M240.359 282.176H234.26L231.36 258.655L240.36 258.655L240.359 282.176Z" fill="#A0616A"/>
<path d="M229.905 280.433H241.665V287.838H222.5C222.5 286.865 222.692 285.903 223.064 285.004C223.436 284.106 223.981 283.29 224.669 282.602C225.356 281.914 226.173 281.369 227.071 280.997C227.969 280.625 228.932 280.433 229.905 280.433Z" fill="#2F2E41"/>
<path d="M284.605 275.268L279.058 277.802L266.646 257.613L274.833 253.873L284.605 275.268Z" fill="#A0616A"/>
<path d="M274.372 278.027L285.07 273.14L288.146 279.876L270.713 287.838C270.309 286.954 270.084 285.998 270.049 285.027C270.014 284.055 270.171 283.086 270.511 282.175C270.851 281.264 271.366 280.428 272.029 279.716C272.692 279.005 273.488 278.431 274.372 278.027Z" fill="#2F2E41"/>
<path d="M266.847 202.869C267.431 202.429 267.912 201.866 268.255 201.221C268.598 200.575 268.796 199.862 268.834 199.132C268.872 198.402 268.749 197.672 268.475 196.994C268.2 196.317 267.781 195.707 267.245 195.209L274.413 178.944L265.307 180.488L259.896 195.697C259.119 196.652 258.719 197.858 258.773 199.088C258.826 200.318 259.329 201.486 260.186 202.37C261.042 203.254 262.194 203.793 263.421 203.885C264.649 203.977 265.868 203.615 266.847 202.869Z" fill="#A0616A"/>
<path d="M239.97 275.974H234.144C233.58 275.972 233.036 275.757 232.622 275.372C232.209 274.987 231.955 274.461 231.912 273.898L228.735 189.062C228.712 188.736 228.759 188.41 228.875 188.105C228.99 187.801 229.171 187.525 229.405 187.297C229.638 187.07 229.918 186.896 230.226 186.788C230.533 186.68 230.861 186.64 231.185 186.672L264.876 190.25C265.422 190.303 265.93 190.555 266.302 190.958C266.675 191.361 266.886 191.887 266.897 192.435L267.603 229.857C267.607 230.06 267.646 230.261 267.719 230.451L281.54 266.29C281.646 266.567 281.697 266.862 281.689 267.159C281.68 267.455 281.613 267.747 281.491 268.018C281.368 268.288 281.193 268.531 280.976 268.734C280.759 268.936 280.503 269.093 280.225 269.195L274.322 271.37C273.809 271.559 273.245 271.554 272.736 271.356C272.227 271.157 271.807 270.78 271.557 270.294L254.58 237.282C254.487 237.102 254.42 236.911 254.379 236.713L251.478 222.74C251.394 222.334 251.169 221.972 250.842 221.719C250.515 221.465 250.109 221.336 249.695 221.354C249.282 221.373 248.889 221.538 248.586 221.821C248.284 222.103 248.092 222.484 248.044 222.895L242.194 273.99C242.131 274.536 241.87 275.04 241.46 275.406C241.05 275.772 240.52 275.974 239.97 275.974Z" fill="#2F2E41"/>
<path d="M242.871 122.728C249.618 122.728 255.087 117.259 255.087 110.511C255.087 103.764 249.618 98.2948 242.871 98.2948C236.124 98.2948 230.654 103.764 230.654 110.511C230.654 117.259 236.124 122.728 242.871 122.728Z" fill="#A0616A"/>
<path d="M251.249 196.819C242.964 196.728 234.877 194.278 227.934 189.757L227.815 189.675L227.827 189.531L232.501 135.107C232.662 133.26 233.486 131.535 234.821 130.249C236.156 128.963 237.911 128.204 239.762 128.113C245.818 127.834 253.953 128.185 258.308 131.429C264.889 136.33 268.061 143.711 267.01 151.679C264.832 168.202 267.3 190.491 267.588 192.978L267.609 193.157L267.445 193.232C262.372 195.593 256.844 196.817 251.249 196.819Z" fill="#501F6B"/>
<path d="M267.532 193.07C267.188 193.069 266.847 192.997 266.532 192.859C266.217 192.72 265.934 192.517 265.701 192.263L263.029 189.348C262.74 189.031 262.538 188.645 262.441 188.227C262.345 187.81 262.357 187.374 262.477 186.963L268.571 166.339L259.299 146.869C258.866 145.957 258.76 144.925 258.999 143.944C259.209 143.084 259.676 142.307 260.336 141.717C260.997 141.127 261.821 140.751 262.7 140.638C263.579 140.526 264.471 140.683 265.259 141.088C266.047 141.493 266.693 142.128 267.113 142.908L279.695 163.322C280.206 164.15 280.506 165.091 280.568 166.062C280.631 167.033 280.454 168.005 280.053 168.892L269.802 191.606C269.633 191.981 269.373 192.309 269.046 192.559C268.719 192.809 268.335 192.974 267.928 193.038C267.797 193.059 267.665 193.07 267.532 193.07Z" fill="#501F6B"/>
<path d="M181.421 153.673C182.008 154.11 182.683 154.412 183.399 154.559C184.115 154.707 184.855 154.695 185.567 154.525C186.278 154.356 186.943 154.032 187.516 153.577C188.089 153.123 188.555 152.548 188.881 151.894L206.508 154.18L202.457 145.879L186.339 144.981C185.204 144.505 183.933 144.462 182.769 144.861C181.604 145.259 180.626 146.071 180.019 147.142C179.413 148.214 179.221 149.471 179.479 150.674C179.737 151.878 180.428 152.945 181.421 153.673Z" fill="#A0616A"/>
<path d="M220.274 158.207C219.967 158.207 219.66 158.186 219.356 158.143L191.626 154.297C191.172 154.235 190.742 154.061 190.373 153.791C190.004 153.521 189.708 153.163 189.511 152.75C189.448 152.617 189.395 152.479 189.353 152.337C189.246 151.97 189.216 151.585 189.265 151.205C189.314 150.826 189.442 150.461 189.639 150.133L191.934 146.328C192.181 145.922 192.528 145.585 192.942 145.352C193.356 145.118 193.824 144.994 194.299 144.992H194.303L218.475 145.02L236.527 128.846C237.367 128.095 238.44 127.656 239.565 127.603C240.553 127.557 241.532 127.812 242.372 128.334C243.212 128.855 243.875 129.619 244.272 130.525C244.669 131.431 244.782 132.436 244.597 133.407C244.411 134.379 243.935 135.271 243.232 135.967L225.219 156.001C224.595 156.695 223.833 157.25 222.981 157.63C222.129 158.01 221.207 158.207 220.274 158.207Z" fill="#501F6B"/>
<path d="M244.26 121.38C245.376 118.796 246.321 115.355 244.179 113.528C242.937 112.469 241.148 112.466 239.521 112.335C234.936 111.963 230.217 109.854 227.976 105.837C225.735 101.82 226.987 95.8468 231.214 94.0344C234.064 92.8128 237.331 93.645 240.314 94.4909L249.27 97.0306C251.931 97.7852 254.725 98.6174 256.641 100.613C259.696 103.795 259.468 109.174 257.041 112.858C254.614 116.542 250.96 120.384 246.776 121.782L244.26 121.38Z" fill="#2F2E41"/>
<path d="M367.82 288H0.592256C0.514337 288 0.437141 287.985 0.365088 287.955C0.293035 287.926 0.227547 287.882 0.172369 287.827C0.117192 287.772 0.0734118 287.707 0.043541 287.635C0.0136702 287.563 -0.00170898 287.486 -0.00170898 287.408C-0.00170898 287.33 0.0136702 287.253 0.043541 287.181C0.0734118 287.109 0.117192 287.043 0.172369 286.988C0.227547 286.933 0.293035 286.89 0.365088 286.86C0.437141 286.83 0.514337 286.815 0.592256 286.815H367.82C367.898 286.815 367.976 286.83 368.048 286.86C368.12 286.89 368.185 286.933 368.24 286.988C368.296 287.043 368.339 287.109 368.369 287.181C368.399 287.253 368.414 287.33 368.414 287.408C368.414 287.486 368.399 287.563 368.369 287.635C368.339 287.707 368.296 287.772 368.24 287.827C368.185 287.882 368.12 287.926 368.048 287.955C367.976 287.985 367.898 288 367.82 288Z" fill="#3F3D56"/>
</g>
<defs>
<clipPath id="clip0_232_45">
<rect width="408.703" height="288" fill="white"/>
</clipPath>
</defs>
</svg>
