<svg width="328" height="242" viewBox="0 0 328 242" fill="none" xmlns="http://www.w3.org/2000/svg">
<g clip-path="url(#clip0_232_1021)">
<path d="M236.269 83.6376H123.254C121.458 83.6356 119.735 82.9195 118.465 81.6465C117.194 80.3735 116.48 78.6475 116.478 76.8472V10.0474C116.479 8.70101 117.013 7.41014 117.964 6.45805C118.914 5.50596 120.202 4.97039 121.546 4.96884H237.896C239.261 4.97041 240.57 5.51453 241.536 6.48182C242.501 7.44911 243.044 8.76059 243.045 10.1285V76.8472C243.043 78.6475 242.329 80.3735 241.058 81.6465C239.788 82.9195 238.065 83.6356 236.269 83.6376Z" fill="white"/>
<path d="M236.269 83.6376H123.254C121.458 83.6356 119.735 82.9195 118.465 81.6465C117.194 80.3735 116.48 78.6475 116.478 76.8472V10.0474C116.479 8.70101 117.013 7.41014 117.964 6.45805C118.914 5.50596 120.202 4.97039 121.546 4.96884H237.896C239.261 4.97041 240.57 5.51453 241.536 6.48182C242.501 7.44911 243.044 8.76059 243.045 10.1285V76.8472C243.043 78.6475 242.329 80.3735 241.058 81.6465C239.788 82.9195 238.065 83.6356 236.269 83.6376ZM121.546 5.74489C120.407 5.74619 119.316 6.19991 118.511 7.00652C117.706 7.81313 117.253 8.90675 117.252 10.0474V76.8472C117.254 78.4418 117.887 79.9705 119.012 81.098C120.137 82.2255 121.663 82.8598 123.254 82.8616H236.269C237.86 82.8598 239.386 82.2255 240.511 81.098C241.636 79.9705 242.269 78.4418 242.271 76.8472V10.1285C242.27 8.96633 241.808 7.8521 240.988 7.03029C240.168 6.20849 239.056 5.74621 237.896 5.74489H121.546Z" fill="#3F3D56"/>
<path d="M129.451 76.8473H230.073C231.716 76.8473 233.292 76.1932 234.454 75.0289C235.616 73.8646 236.269 72.2854 236.269 70.6389V21.9233C236.269 20.2768 235.616 18.6977 234.454 17.5334C233.292 16.3691 231.716 15.715 230.073 15.715H129.451C127.808 15.715 126.232 16.3691 125.07 17.5334C123.908 18.6977 123.255 20.2768 123.255 21.9233V70.6389C123.255 72.2854 123.908 73.8646 125.07 75.0289C126.232 76.1932 127.808 76.8473 129.451 76.8473Z" fill="#F2F2F2"/>
<path d="M243.215 9.68127H116.197V6.42172C116.209 4.70932 116.898 3.07155 118.114 1.86767C119.329 0.6638 120.972 -0.00786954 122.681 7.6191e-06H236.732C238.441 -0.00787776 240.083 0.663786 241.298 1.86766C242.514 3.07154 243.203 4.70932 243.215 6.42172V9.68127Z" fill="#501F6B"/>
<path d="M128.43 6.51237C129.346 6.51237 130.089 5.76824 130.089 4.8503C130.089 3.93237 129.346 3.18823 128.43 3.18823C127.514 3.18823 126.771 3.93237 126.771 4.8503C126.771 5.76824 127.514 6.51237 128.43 6.51237Z" fill="white"/>
<path d="M134.726 6.51237C135.642 6.51237 136.385 5.76824 136.385 4.8503C136.385 3.93237 135.642 3.18823 134.726 3.18823C133.81 3.18823 133.067 3.93237 133.067 4.8503C133.067 5.76824 133.81 6.51237 134.726 6.51237Z" fill="white"/>
<path d="M141.022 6.51237C141.938 6.51237 142.681 5.76824 142.681 4.8503C142.681 3.93237 141.938 3.18823 141.022 3.18823C140.106 3.18823 139.363 3.93237 139.363 4.8503C139.363 5.76824 140.106 6.51237 141.022 6.51237Z" fill="white"/>
<path d="M147.361 59.0859C144.834 59.0859 142.363 58.3349 140.262 56.9279C138.16 55.5209 136.522 53.5211 135.555 51.1813C134.588 48.8415 134.334 46.2669 134.828 43.783C135.321 41.2991 136.538 39.0175 138.325 37.2268C140.112 35.436 142.389 34.2164 144.868 33.7224C147.347 33.2283 149.917 33.4819 152.252 34.451C154.587 35.4202 156.583 37.0614 157.987 39.1671C159.391 41.2729 160.14 43.7486 160.14 46.2811C160.137 49.676 158.789 52.9307 156.393 55.3312C153.998 57.7318 150.749 59.0821 147.361 59.0859Z" fill="#501F6B"/>
<path d="M221.844 56.7577H172.385C171.586 56.7683 170.813 56.4764 170.219 55.9403C169.626 55.4042 169.257 54.6634 169.185 53.8662C169.156 53.4417 169.215 53.0159 169.357 52.615C169.5 52.2142 169.723 51.847 170.012 51.536C170.302 51.2251 170.652 50.9771 171.042 50.8073C171.431 50.6376 171.851 50.5498 172.276 50.5493H221.721C222.524 50.5375 223.301 50.8304 223.897 51.3691C224.494 51.9079 224.864 52.6527 224.935 53.454C224.962 53.8775 224.902 54.302 224.759 54.7013C224.615 55.1006 224.392 55.4663 224.102 55.7758C223.813 56.0853 223.463 56.3321 223.074 56.501C222.686 56.6699 222.267 56.7572 221.844 56.7577Z" fill="#3F3D56"/>
<path d="M195.898 43.5649H172.385C171.586 43.5755 170.813 43.2835 170.219 42.7475C169.626 42.2114 169.257 41.4706 169.185 40.6733C169.156 40.2489 169.215 39.823 169.357 39.4222C169.5 39.0214 169.723 38.6542 170.012 38.3432C170.302 38.0323 170.652 37.7843 171.042 37.6145C171.431 37.4448 171.851 37.357 172.276 37.3565H195.775C196.578 37.3447 197.356 37.6376 197.952 38.1763C198.548 38.7151 198.919 39.4599 198.99 40.2612C199.016 40.6847 198.956 41.1092 198.813 41.5085C198.67 41.9078 198.446 42.2735 198.157 42.583C197.867 42.8925 197.517 43.1393 197.129 43.3082C196.74 43.4771 196.321 43.5644 195.898 43.5649Z" fill="#3F3D56"/>
<path d="M294.346 175.542C294.536 175.005 294.607 174.432 294.552 173.864C294.498 173.296 294.32 172.747 294.031 172.256C293.742 171.765 293.348 171.343 292.879 171.02C292.41 170.697 291.875 170.482 291.314 170.388L288.979 156.721L283.729 161.646L286.752 173.869C286.658 174.825 286.917 175.782 287.48 176.559C288.043 177.337 288.871 177.88 289.807 178.086C290.743 178.292 291.722 178.147 292.559 177.678C293.395 177.209 294.031 176.45 294.346 175.542Z" fill="#FFB8B8"/>
<path d="M290.859 169.004L285.705 170.359C285.46 170.422 285.2 170.387 284.98 170.261C284.76 170.135 284.598 169.928 284.528 169.684L275.267 136.807L272.469 128.42C272.199 127.612 272.138 126.748 272.291 125.91C272.444 125.072 272.806 124.286 273.344 123.625C273.881 122.965 274.576 122.452 275.365 122.133C276.154 121.814 277.01 121.701 277.855 121.803C278.832 121.921 279.753 122.322 280.505 122.959C281.257 123.595 281.806 124.439 282.085 125.384L289.485 150.448L291.574 167.95C291.597 168.145 291.56 168.342 291.47 168.515C291.379 168.689 291.238 168.831 291.065 168.923C291 168.958 290.93 168.985 290.859 169.004Z" fill="#CCCCCC"/>
<path d="M272.025 116.257C277.278 116.257 281.536 111.99 281.536 106.727C281.536 101.463 277.278 97.1965 272.025 97.1965C266.772 97.1965 262.514 101.463 262.514 106.727C262.514 111.99 266.772 116.257 272.025 116.257Z" fill="#FFB8B8"/>
<path d="M244.02 237.102L239.47 235.745L242.527 217.513L249.243 219.515L244.02 237.102Z" fill="#FFB8B8"/>
<path d="M243.868 241.867L229.195 237.493L229.251 237.307C229.474 236.556 229.842 235.856 230.335 235.247C230.829 234.638 231.437 234.133 232.125 233.759C232.813 233.386 233.567 233.152 234.346 233.071C235.124 232.99 235.911 233.064 236.661 233.287L245.622 235.959L243.868 241.867Z" fill="#2F2E41"/>
<path d="M293.873 236.868H289.126L286.867 218.519L291.551 218.519L293.873 236.868Z" fill="#FFB8B8"/>
<path d="M295.085 241.479L279.776 241.479V241.285C279.776 240.501 279.93 239.724 280.23 239C280.529 238.276 280.968 237.618 281.522 237.063C282.075 236.509 282.732 236.069 283.455 235.769C284.177 235.469 284.952 235.315 285.735 235.315L295.085 235.315L295.085 241.479Z" fill="#2F2E41"/>
<path d="M245.77 231.707H241.003C240.748 231.707 240.495 231.651 240.264 231.542C240.033 231.433 239.828 231.275 239.664 231.078C239.501 230.882 239.382 230.651 239.318 230.404C239.253 230.156 239.243 229.897 239.289 229.645C236.249 228.29 252.617 149.641 256.484 151.165L256.611 150.982L276.085 152.574C284.807 170.066 290.329 199.01 295.495 229.226C295.558 229.476 295.566 229.738 295.516 229.992C295.466 230.246 295.36 230.485 295.207 230.693C295.053 230.901 294.856 231.073 294.628 231.195C294.4 231.317 294.148 231.387 293.89 231.399L288.535 231.659C288.172 231.678 287.813 231.583 287.507 231.386C287.202 231.19 286.966 230.902 286.832 230.564L266.312 179.163C266.271 179.051 266.196 178.955 266.096 178.889C265.997 178.823 265.879 178.791 265.759 178.798C265.641 178.799 265.525 178.837 265.429 178.907C265.333 178.977 265.262 179.075 265.224 179.188L247.416 230.534C247.297 230.877 247.075 231.174 246.78 231.384C246.485 231.594 246.132 231.707 245.77 231.707Z" fill="#2F2E41"/>
<path d="M276.493 154.113L276.344 154.102L255.61 152.534L259.247 129.358C259.646 126.77 260.87 124.382 262.734 122.549C264.599 120.716 267.006 119.536 269.595 119.186C269.754 119.163 269.915 119.141 270.076 119.12C272.11 118.852 274.179 119.112 276.083 119.876C277.988 120.64 279.665 121.881 280.952 123.481C282.271 125.091 283.154 127.013 283.517 129.063C283.88 131.113 283.711 133.222 283.026 135.188L276.493 154.113Z" fill="#CCCCCC"/>
<path d="M290.493 117.628C283.953 120.626 275.079 120.09 264.935 117.628C266.338 113.775 267.432 110.054 266.192 107.322C265.69 106.291 265.408 105.167 265.361 104.021C265.314 102.875 265.504 101.731 265.919 100.662C266.892 98.3315 268.53 96.341 270.629 94.9411C272.728 93.5412 275.193 92.7944 277.714 92.7946C281.103 92.7946 284.354 94.1437 286.75 96.5451C289.147 98.9464 290.493 102.203 290.493 105.599V117.628Z" fill="#2F2E41"/>
<path d="M268.42 93.666H276.553V103.686H259.514V102.59C259.514 100.224 260.452 97.9536 262.122 96.2799C263.793 94.6062 266.058 93.666 268.42 93.666Z" fill="#2F2E41"/>
<path d="M255.163 177.698C255.582 177.313 255.913 176.84 256.13 176.312C256.347 175.785 256.447 175.217 256.421 174.647C256.396 174.077 256.246 173.52 255.982 173.014C255.718 172.509 255.347 172.067 254.895 171.721L259.224 158.551L252.283 160.437L249.236 172.654C248.706 173.454 248.487 174.421 248.622 175.372C248.756 176.323 249.233 177.192 249.964 177.814C250.694 178.435 251.627 178.767 252.585 178.746C253.543 178.724 254.46 178.352 255.163 177.698Z" fill="#FFB8B8"/>
<path d="M255.14 170.284L249.954 169.061C249.707 169.002 249.494 168.849 249.358 168.634C249.223 168.42 249.177 168.161 249.229 167.913L256.425 134.52L257.876 125.797C258.015 124.957 258.365 124.165 258.892 123.496C259.419 122.828 260.107 122.304 260.89 121.973C261.674 121.642 262.528 121.515 263.374 121.603C264.22 121.692 265.03 121.994 265.728 122.481C266.536 123.044 267.162 123.831 267.528 124.747C267.895 125.662 267.986 126.665 267.79 127.631L262.605 153.247L256.265 169.689C256.194 169.872 256.069 170.029 255.908 170.139C255.747 170.25 255.556 170.309 255.36 170.31C255.286 170.31 255.212 170.301 255.14 170.284Z" fill="#CCCCCC"/>
<path d="M327.613 242H180.071C179.968 242 179.87 241.959 179.797 241.886C179.724 241.814 179.684 241.715 179.684 241.612C179.684 241.509 179.724 241.41 179.797 241.338C179.87 241.265 179.968 241.224 180.071 241.224H327.613C327.715 241.224 327.814 241.265 327.887 241.338C327.959 241.41 328 241.509 328 241.612C328 241.715 327.959 241.814 327.887 241.886C327.814 241.959 327.715 242 327.613 242Z" fill="#CCCCCC"/>
<path d="M52.2921 149.367C52.0846 149.421 51.8815 149.49 51.6849 149.576L35.5466 139.144L35.7692 134.474L28.7799 133.217L27.5841 141.445C27.4875 142.11 27.6087 142.788 27.9295 143.378C28.2503 143.967 28.7534 144.437 29.3632 144.716L49.2394 153.808C49.3383 154.629 49.6843 155.4 50.2315 156.02C50.7787 156.639 51.5011 157.077 52.3026 157.274C53.1041 157.472 53.9468 157.421 54.7185 157.127C55.4902 156.834 56.1543 156.311 56.6226 155.63C57.0909 154.949 57.3412 154.141 57.3401 153.314C57.339 152.487 57.0866 151.68 56.6165 151C56.1464 150.32 55.4808 149.8 54.7084 149.508C53.9359 149.216 53.0931 149.167 52.2921 149.367Z" fill="#FFB8B8"/>
<path d="M34.8879 138.856L26.2329 137.255C25.9866 137.21 25.7531 137.112 25.5481 136.967C25.3431 136.823 25.1716 136.637 25.0451 136.42C24.9187 136.203 24.8403 135.962 24.8153 135.712C24.7904 135.463 24.8194 135.211 24.9004 134.973L27.7407 126.654C27.9803 125.393 28.7093 124.279 29.7678 123.555C30.8264 122.832 32.1281 122.558 33.3875 122.795C34.6469 123.032 35.7612 123.759 36.486 124.818C37.2108 125.877 37.4869 127.181 37.2539 128.443L36.9457 137.201C36.9368 137.452 36.8741 137.698 36.7618 137.922C36.6495 138.147 36.4903 138.344 36.295 138.501C36.0997 138.658 35.8729 138.771 35.6301 138.832C35.3873 138.894 35.1341 138.902 34.8879 138.856Z" fill="#3F3D56"/>
<path d="M203.434 114.736H55.8919C54.6211 114.735 53.3718 115.065 52.2671 115.694C52.0025 115.845 51.7478 116.012 51.5044 116.195C50.5827 116.88 49.8339 117.771 49.3181 118.798C48.8023 119.825 48.5338 120.959 48.5342 122.108V198.937C48.5359 200.892 49.3117 202.766 50.6911 204.148C52.0706 205.531 53.9411 206.308 55.8919 206.31H203.434C205.385 206.308 207.255 205.531 208.635 204.148C210.014 202.766 210.79 200.892 210.792 198.937V122.108C210.79 120.154 210.014 118.28 208.635 116.897C207.255 115.515 205.385 114.738 203.434 114.736Z" fill="white"/>
<path d="M203.434 114.736H55.8919C54.6211 114.735 53.3718 115.065 52.2671 115.694C52.0025 115.845 51.7478 116.012 51.5044 116.195C50.5827 116.88 49.8339 117.771 49.3181 118.798C48.8023 119.825 48.5338 120.959 48.5342 122.108V198.937C48.5359 200.892 49.3117 202.766 50.6911 204.148C52.0706 205.531 53.9411 206.308 55.8919 206.31H203.434C205.385 206.308 207.255 205.531 208.635 204.148C210.014 202.766 210.79 200.892 210.792 198.937V122.108C210.79 120.154 210.014 118.28 208.635 116.897C207.255 115.515 205.385 114.738 203.434 114.736ZM210.017 198.937C210.015 200.686 209.32 202.362 208.086 203.599C206.852 204.835 205.179 205.531 203.434 205.534H55.8919C54.1467 205.531 52.4737 204.835 51.2396 203.599C50.0055 202.362 49.3111 200.686 49.3087 198.937V122.108C49.3142 120.714 49.7579 119.358 50.5768 118.231C51.3956 117.103 52.5481 116.264 53.8704 115.83C53.9247 115.815 53.9749 115.795 54.0292 115.78C54.6341 115.602 55.2614 115.511 55.8919 115.512H203.434C205.179 115.515 206.852 116.21 208.086 117.447C209.32 118.683 210.015 120.36 210.017 122.108V198.937Z" fill="#3F3D56"/>
<path d="M129.502 160.49C128.914 160.49 128.336 160.341 127.822 160.056L50.7425 117.547C50.6525 117.497 50.5859 117.414 50.5573 117.315C50.5287 117.216 50.5405 117.11 50.59 117.02C50.6395 116.93 50.7227 116.863 50.8214 116.834C50.92 116.806 51.026 116.818 51.1159 116.867L128.195 159.376C128.588 159.594 129.029 159.71 129.478 159.714C129.927 159.718 130.37 159.609 130.767 159.399L209.115 117.985C209.16 117.962 209.209 117.947 209.26 117.942C209.311 117.937 209.362 117.942 209.411 117.957C209.459 117.972 209.504 117.997 209.544 118.029C209.583 118.062 209.615 118.102 209.639 118.147C209.663 118.192 209.677 118.242 209.682 118.292C209.687 118.343 209.681 118.394 209.666 118.443C209.651 118.492 209.627 118.537 209.594 118.576C209.562 118.616 209.522 118.648 209.477 118.672L131.128 160.085C130.627 160.351 130.069 160.49 129.502 160.49Z" fill="#3F3D56"/>
<path d="M73.15 186.908H62.307C61.4853 186.908 60.6974 186.581 60.1164 185.999C59.5354 185.417 59.209 184.627 59.209 183.804C59.209 182.981 59.5354 182.191 60.1164 181.609C60.6974 181.027 61.4853 180.7 62.307 180.7H73.15C73.9716 180.7 74.7596 181.027 75.3406 181.609C75.9216 182.191 76.2479 182.981 76.2479 183.804C76.2479 184.627 75.9216 185.417 75.3406 185.999C74.7596 186.581 73.9716 186.908 73.15 186.908Z" fill="#3F3D56"/>
<path d="M85.9292 197.385H62.307C61.4853 197.385 60.6974 197.058 60.1164 196.476C59.5354 195.894 59.209 195.104 59.209 194.281C59.209 193.457 59.5354 192.668 60.1164 192.086C60.6974 191.504 61.4853 191.177 62.307 191.177H85.9292C86.7508 191.177 87.5388 191.504 88.1198 192.086C88.7008 192.668 89.0272 193.457 89.0272 194.281C89.0272 195.104 88.7008 195.894 88.1198 196.476C87.5388 197.058 86.7508 197.385 85.9292 197.385Z" fill="#3F3D56"/>
<path d="M129.471 172.939C136.315 172.939 141.863 167.38 141.863 160.523C141.863 153.665 136.315 148.106 129.471 148.106C122.627 148.106 117.079 153.665 117.079 160.523C117.079 167.38 122.627 172.939 129.471 172.939Z" fill="#501F6B"/>
<path d="M73.2976 122.041L127.909 144.871C128.097 144.95 128.309 144.951 128.498 144.874L184.801 122.044C184.967 121.976 185.105 121.853 185.191 121.695C185.277 121.536 185.305 121.353 185.27 121.176C185.236 121 185.141 120.84 185.003 120.726C184.864 120.611 184.69 120.549 184.51 120.549H73.5958C73.4168 120.549 73.2433 120.611 73.1048 120.724C72.9664 120.838 72.8715 120.996 72.8364 121.172C72.8012 121.348 72.828 121.531 72.912 121.689C72.9961 121.847 73.1324 121.972 73.2976 122.041Z" fill="#F2F2F2"/>
<path d="M64.9832 116.293C64.9357 116.502 64.9047 116.715 64.8906 116.929L48.2553 126.545L44.2119 124.213L39.9014 129.867L46.659 134.693C47.2049 135.083 47.8623 135.285 48.5325 135.269C49.2027 135.253 49.8496 135.019 50.3759 134.603L67.5297 121.043C68.3038 121.33 69.1469 121.374 69.9467 121.17C70.7465 120.965 71.4652 120.521 72.0071 119.897C72.549 119.273 72.8886 118.499 72.9805 117.677C73.0725 116.855 72.9125 116.024 72.5219 115.296C72.1312 114.567 71.5284 113.975 70.7937 113.598C70.059 113.221 69.2271 113.077 68.4087 113.185C67.5903 113.293 66.8242 113.649 66.2123 114.204C65.6005 114.759 65.1717 115.488 64.9832 116.293Z" fill="#FFB8B8"/>
<path d="M47.7001 127.001L42.3237 133.983C42.1707 134.182 41.9768 134.345 41.7552 134.462C41.5335 134.578 41.2894 134.646 41.0393 134.66C40.7893 134.673 40.5392 134.633 40.3062 134.541C40.0731 134.449 39.8626 134.308 39.6889 134.128L33.6023 127.794C32.5926 127.004 31.9366 125.845 31.7783 124.572C31.62 123.298 31.9723 122.013 32.7579 120.999C33.5435 119.985 34.6983 119.324 35.9692 119.162C37.2401 119 38.5233 119.349 39.5376 120.133L47.1714 124.41C47.3899 124.533 47.5795 124.701 47.7273 124.904C47.8751 125.106 47.9776 125.338 48.0277 125.584C48.0779 125.83 48.0746 126.084 48.0181 126.328C47.9616 126.573 47.8531 126.802 47.7001 127.001Z" fill="#3F3D56"/>
<path d="M25.6831 110.33C30.936 110.33 35.1943 106.063 35.1943 100.8C35.1943 95.5361 30.936 91.2693 25.6831 91.2693C20.4302 91.2693 16.1719 95.5361 16.1719 100.8C16.1719 106.063 20.4302 110.33 25.6831 110.33Z" fill="#FFB8B8"/>
<path d="M34.6609 237.256H39.4086L41.667 218.907L34.6602 218.907L34.6609 237.256Z" fill="#FFB8B8"/>
<path d="M33.4502 235.703L42.7999 235.703H42.8003C43.5827 235.703 44.3575 235.857 45.0804 236.157C45.8033 236.457 46.4602 236.897 47.0135 237.451C47.5668 238.006 48.0057 238.664 48.3051 239.388C48.6045 240.112 48.7587 240.889 48.7586 241.673V241.867L33.4505 241.867L33.4502 235.703Z" fill="#2F2E41"/>
<path d="M18.3963 237.256H23.144L25.4024 218.907L18.3955 218.907L18.3963 237.256Z" fill="#FFB8B8"/>
<path d="M17.1855 235.703L26.5352 235.703H26.5356C27.3181 235.703 28.0929 235.857 28.8158 236.157C29.5387 236.457 30.1956 236.897 30.7488 237.451C31.3021 238.006 31.741 238.664 32.0405 239.388C32.3399 240.112 32.494 240.889 32.494 241.673V241.867L17.1858 241.867L17.1855 235.703Z" fill="#2F2E41"/>
<path d="M33.2366 230.292L28.3939 192.75C28.3914 192.7 28.3694 192.653 28.3328 192.619C28.2962 192.585 28.2477 192.567 28.1979 192.568C28.173 192.567 28.1482 192.572 28.1249 192.581C28.1016 192.59 28.0804 192.603 28.0626 192.621C28.0448 192.638 28.0307 192.659 28.0211 192.682C28.0116 192.705 28.0069 192.73 28.0072 192.755L26.6156 229.753C26.5999 230.205 26.4095 230.633 26.0844 230.947C25.7594 231.26 25.3253 231.435 24.8741 231.434H19.1236C18.6679 231.436 18.2295 231.259 17.9035 230.94C17.5774 230.621 17.3899 230.186 17.3815 229.73L15.8887 168.086L41.6237 168.344L42.2661 230.185C42.2604 230.431 42.203 230.673 42.0977 230.895C41.9924 231.117 41.8415 231.314 41.6549 231.474C41.4723 231.631 41.2587 231.749 41.028 231.818C40.7972 231.888 40.5544 231.908 40.3153 231.877L34.7387 231.893C34.3434 231.839 33.9786 231.65 33.7053 231.359C33.4319 231.067 33.2665 230.691 33.2366 230.292Z" fill="#2F2E41"/>
<path d="M15.5076 169.772C15.2197 169.662 14.9662 169.477 14.773 169.236C14.5798 168.995 14.4538 168.708 14.4079 168.402L14.151 134.524C13.0137 126.981 11.6684 119.59 18.2503 115.768L18.8302 114.024C18.8934 113.836 19.0127 113.671 19.1719 113.553C19.3311 113.434 19.5227 113.367 19.721 113.361L32.207 113.004C32.4013 112.997 32.593 113.05 32.7568 113.155C32.9206 113.259 33.0488 113.412 33.1244 113.591L34.0531 115.763L34.3829 115.951C37.5197 117.743 40.0598 120.421 41.6852 123.652C43.3106 126.883 43.9493 130.522 43.5213 134.114L42.8074 140.154L42.3003 168.378C42.2937 168.688 42.2057 168.99 42.0451 169.255C41.8845 169.52 41.657 169.737 41.3856 169.886C37.7584 171.876 33.7399 172.557 29.9375 172.557C23.5486 172.557 17.7725 170.634 15.5076 169.772Z" fill="#3F3D56"/>
<path d="M25.3729 110.683C23.9414 110.714 22.5196 110.441 21.2009 109.882C19.8822 109.323 18.6964 108.491 17.7215 107.44C16.7466 106.39 16.0047 105.144 15.5444 103.786C15.0842 102.427 14.9161 100.986 15.0511 99.558C15.1862 98.1297 15.6213 96.7462 16.328 95.4985C17.0347 94.2507 17.9969 93.1669 19.1514 92.3183C20.3059 91.4697 21.6265 90.8755 23.0265 90.5748C24.4265 90.2741 25.8742 90.2736 27.2744 90.5734C29.366 89.3009 31.7978 88.4446 34.2351 88.6624C36.6724 88.8802 39.0828 90.3301 39.9942 92.6055C40.9057 94.8809 39.9265 97.8803 37.6603 98.8051C36.2074 99.3979 34.5666 99.1104 33.0161 98.8714C31.4657 98.6323 29.7742 98.4763 28.4248 99.2779C27.0754 100.08 26.4688 102.229 27.6773 103.231C28.3179 103.784 28.7754 104.518 28.9888 105.338C29.2022 106.157 29.1613 107.022 28.8717 107.818C28.2642 109.392 26.6065 110.656 25.3729 110.683Z" fill="#2F2E41"/>
<path d="M60.7981 242H0.387249C0.284544 242 0.186046 241.959 0.113422 241.886C0.040799 241.814 0 241.715 0 241.612C0 241.509 0.040799 241.41 0.113422 241.338C0.186046 241.265 0.284544 241.224 0.387249 241.224H60.7981C60.9008 241.224 60.9993 241.265 61.0719 241.338C61.1446 241.41 61.1854 241.509 61.1854 241.612C61.1854 241.715 61.1446 241.814 61.0719 241.886C60.9993 241.959 60.9008 242 60.7981 242Z" fill="#CCCCCC"/>
</g>
<defs>
<clipPath id="clip0_232_1021">
<rect width="328" height="242" fill="white"/>
</clipPath>
</defs>
</svg>
