<svg width="30" height="30" viewBox="0 0 30 30" fill="none" xmlns="http://www.w3.org/2000/svg">
<g clip-path="url(#clip0_232_1018)">
<path d="M9.99976 15.0092C9.9949 12.2482 12.2295 10.0053 14.99 10.0005C17.751 9.99511 19.9943 12.2288 19.9997 14.9903C20.0051 17.7518 17.7704 19.9942 15.0089 19.9996C12.2485 20.0049 10.0051 17.7707 9.99976 15.0092ZM7.29812 15.0146C7.30639 19.2686 10.7614 22.7095 15.0143 22.7012C19.2678 22.693 22.7106 19.239 22.7024 14.985C22.6941 10.7324 19.2387 7.28949 14.9847 7.29781C10.7317 7.30607 7.28986 10.7615 7.29812 15.0146ZM21.1909 6.98187C21.1929 7.97527 22.0005 8.77964 22.994 8.77771C23.9878 8.77572 24.7922 7.96847 24.7907 6.97507C24.7888 5.98168 23.9811 5.17683 22.9872 5.17882C21.9933 5.18076 21.189 5.98847 21.1909 6.98187ZM8.96266 27.2202C7.50027 27.1565 6.70615 26.9135 6.17693 26.7099C5.47609 26.4387 4.976 26.1136 4.44965 25.5911C3.9243 25.0667 3.59816 24.568 3.32453 23.8686C3.11898 23.3394 2.8716 22.5462 2.80305 21.0839C2.72869 19.5028 2.7117 19.0285 2.70443 15.0233C2.69664 11.0192 2.71123 10.5448 2.78025 8.96234C2.84289 7.50095 3.0874 6.70578 3.29055 6.17703C3.56172 5.47525 3.88592 4.97609 4.40933 4.4498C4.93369 3.92345 5.43232 3.59832 6.13217 3.32468C6.66098 3.11808 7.4541 2.87263 8.91601 2.8032C10.4979 2.72832 10.9718 2.71232 14.976 2.70453C18.981 2.69673 19.4553 2.71086 21.0378 2.78035C22.4992 2.84398 23.2943 3.08603 23.8226 3.29064C24.5239 3.56181 25.024 3.88507 25.5498 4.40943C26.0757 4.93384 26.4018 5.43148 26.6754 6.13285C26.8819 6.66013 27.1274 7.45425 27.1964 8.9157C27.2717 10.4976 27.2888 10.972 27.2961 14.9762C27.3038 18.9813 27.2892 19.4557 27.2198 21.0372C27.1561 22.4995 26.9136 23.2943 26.7095 23.8239C26.4382 24.5243 26.1141 25.0244 25.5902 25.5508C25.0663 26.0751 24.5676 26.4022 23.8673 26.6758C23.3395 26.8819 22.5454 27.1278 21.0845 27.1973C19.5026 27.2717 19.0287 27.2887 15.0231 27.296C11.0189 27.3038 10.5451 27.2887 8.96266 27.2202ZM8.78769 0.103903C7.19166 0.179254 6.10158 0.43484 5.14896 0.808141C4.16289 1.19257 3.32699 1.70773 2.49549 2.54269C1.66293 3.37812 1.15164 4.21548 0.770136 5.20255C0.400819 6.15757 0.150507 7.24818 0.0800184 8.84521C0.0100574 10.4452 -0.00599726 10.9555 0.00179571 15.0287C0.00958868 19.1014 0.0275184 19.6127 0.103807 21.2131C0.180096 22.8087 0.434804 23.8983 0.808046 24.8513C1.19295 25.8375 1.70764 26.6729 2.54307 27.505C3.37803 28.337 4.21592 28.8478 5.20346 29.2299C6.15748 29.5986 7.24849 29.85 8.84506 29.9199C10.445 29.9904 10.9557 30.0059 15.0279 29.9982C19.1021 29.9904 19.6129 29.9724 21.2128 29.8966C22.8088 29.8203 23.8979 29.5647 24.8515 29.1924C25.8375 28.8065 26.6734 28.2928 27.5051 27.4573C28.3366 26.6223 28.8478 25.7845 29.2294 24.7969C29.5987 23.8429 29.85 22.7518 29.9194 21.1563C29.9894 19.5553 30.006 19.044 29.9982 14.9713C29.9904 10.8981 29.972 10.3878 29.8962 8.78838C29.8203 7.19134 29.5647 6.1022 29.1919 5.14865C28.8065 4.16257 28.2924 3.32755 27.4574 2.49505C26.6225 1.66349 25.7846 1.15121 24.797 0.770699C23.8425 0.401324 22.7519 0.149606 21.1554 0.0805823C19.5555 0.00962525 19.0447 -0.00590209 14.971 0.00183228C10.8984 0.00962525 10.3876 0.0270862 8.78769 0.103903Z" fill="#275431"/>
</g>
<defs>
<clipPath id="clip0_232_1018">
<rect width="30" height="30" fill="white"/>
</clipPath>
</defs>
</svg>
