<svg width="1440" height="188" viewBox="0 0 1440 188" fill="none" xmlns="http://www.w3.org/2000/svg">
<rect width="1440" height="188" fill="white"/>
<path d="M264.22 94.0621C266.277 89.09 269.945 83.6856 274.957 78.6742C275.527 78.1107 276.108 77.5581 276.699 77.0168C276.139 75.8115 275.648 74.5767 275.242 73.3255C273.263 67.2463 273.283 60.9444 275.301 55.5891C275.454 55.1826 275.762 54.8534 276.157 54.674C276.553 54.4947 277.004 54.4798 277.41 54.6327C277.817 54.7856 278.146 55.0937 278.325 55.4893C278.505 55.8849 278.519 56.3355 278.367 56.7421C276.614 61.4062 276.611 66.9351 278.36 72.3166C278.625 73.1355 278.972 73.9347 279.313 74.7306C283.005 71.7107 286.778 69.4146 290.332 67.9407C290.892 62.831 292.955 58.1014 296.601 54.4558C296.91 54.1575 297.323 53.9924 297.753 53.9962C298.182 53.9999 298.593 54.1721 298.897 54.4758C299.2 54.7794 299.372 55.1902 299.376 55.6196C299.38 56.049 299.215 56.4627 298.916 56.7715C296.181 59.5098 294.504 62.9752 293.807 66.7648C298.733 65.435 302.988 65.9132 305.628 68.5499C306.633 69.5814 307.352 70.857 307.714 72.2511C307.76 72.3265 307.826 72.3821 307.862 72.4673L315.025 89.0867L320.243 101.186L326.047 114.651L329.492 122.643L329.496 122.65L335.866 137.425C335.996 137.726 336.032 138.06 335.971 138.382C335.91 138.704 335.754 139.001 335.522 139.233C335.287 139.462 334.989 139.616 334.667 139.677C334.344 139.739 334.011 139.704 333.708 139.577L313.544 130.884L305.539 127.432L268.108 111.294C267.718 111.166 267.358 110.993 266.998 110.816L266.562 110.629C266.523 110.613 266.496 110.577 266.46 110.557C265.871 110.216 265.317 109.82 264.833 109.335C262.199 106.702 261.724 102.45 263.047 97.5242C259.245 98.2317 255.779 99.9054 253.057 102.627C252.906 102.781 252.725 102.902 252.526 102.985C252.327 103.068 252.114 103.111 251.898 103.111C251.682 103.111 251.469 103.068 251.27 102.985C251.071 102.902 250.89 102.781 250.738 102.627C250.431 102.32 250.259 101.904 250.259 101.469C250.259 101.035 250.431 100.619 250.738 100.312C254.368 96.6857 259.091 94.6353 264.22 94.0621ZM303.306 70.8623C302.264 69.824 300.669 69.2934 298.681 69.2934C297.144 69.2934 295.356 69.6472 293.424 70.2826C293.286 76.365 295.53 82.9322 300.014 88.5495C305.133 80.7148 306.155 73.7152 303.306 70.8623ZM331.222 134.939L327.216 125.647C324.409 127.33 321.631 128.683 318.965 129.653L331.222 134.939ZM314.353 127.664C317.92 126.839 321.887 125.116 325.925 122.65L324.71 119.833L322.82 115.447C317.085 119.748 311.281 122.732 306.083 124.098L314.353 127.664ZM300.397 121.651C306.204 121.536 313.993 118.071 321.477 112.329L318.212 104.753C318.038 104.93 317.878 105.113 317.701 105.29C310.849 112.146 303.207 117.232 296.126 119.807L300.397 121.651ZM291.511 117.815C298.92 116.076 307.799 110.56 315.385 102.971C315.867 102.489 316.341 101.999 316.807 101.501L314.101 95.2248L313.106 92.9189C311.465 94.9497 309.709 96.9018 307.868 98.7361C299.961 106.643 291.013 112.218 283.25 114.252L291.511 117.815ZM277.567 111.808C285.425 111.612 296.362 105.621 305.556 96.4236C307.727 94.2412 309.753 91.9194 311.622 89.4732L307.518 79.9549C306.027 85.8899 301.845 92.8633 295.494 99.2143C289.123 105.582 282.14 109.738 276.192 111.215L277.567 111.808ZM267.145 107.023C267.593 107.435 268.114 107.759 268.681 107.979L269.114 108.166C274.069 109.84 283.817 106.256 293.178 96.8986C294.921 95.1398 296.541 93.2629 298.026 91.2812C293.021 85.32 290.377 78.2877 290.187 71.596C287.227 72.9946 284.04 75.0319 280.807 77.7604C282.187 80.2305 283.884 82.5098 285.854 84.5405C286.158 84.851 286.326 85.2696 286.322 85.7042C286.317 86.1388 286.14 86.5538 285.83 86.8578C285.519 87.1618 285.1 87.3301 284.666 87.3255C284.231 87.3209 283.816 87.1438 283.512 86.8332C281.51 84.7805 279.763 82.4942 278.308 80.0237C277.96 80.3545 277.613 80.646 277.269 80.9932C272.861 85.4052 269.792 89.8826 267.885 93.931C272.789 94.0752 277.911 95.4738 282.762 98.3266C282.954 98.4318 283.124 98.5746 283.26 98.7464C283.396 98.9183 283.496 99.1157 283.555 99.327C283.613 99.5384 283.629 99.7593 283.6 99.9766C283.572 100.194 283.5 100.403 283.389 100.593C283.278 100.782 283.13 100.946 282.954 101.077C282.778 101.208 282.578 101.302 282.365 101.354C282.152 101.406 281.93 101.415 281.714 101.38C281.498 101.345 281.29 101.267 281.105 101.15C276.333 98.3463 271.285 97.0591 266.565 97.1671C265.118 101.576 265.304 105.179 267.145 107.023ZM330.842 76.519C329.759 77.1382 328.475 77.3046 327.269 76.9819C326.064 76.6593 325.035 75.8737 324.406 74.7961C323.914 73.938 323.721 72.9914 323.793 72.0775C322.713 71.9831 321.672 71.6295 320.758 71.0467C319.844 70.464 319.084 69.6693 318.543 68.7301C317.65 67.178 317.408 65.3351 317.872 63.6055C318.335 61.8758 319.466 60.4006 321.016 59.5032C321.391 59.2861 321.838 59.227 322.257 59.3391C322.676 59.4512 323.034 59.7253 323.251 60.101C323.468 60.4767 323.527 60.9233 323.415 61.3425C323.303 61.7618 323.029 62.1193 322.653 62.3365C320.993 63.2994 320.42 65.4317 321.376 67.0924C321.841 67.8886 322.601 68.4692 323.492 68.7078C324.382 68.9464 325.331 68.8237 326.132 68.3665C326.318 68.248 326.527 68.1684 326.745 68.1326C326.963 68.0967 327.186 68.1053 327.4 68.1579C327.615 68.2104 327.816 68.3058 327.993 68.4384C328.17 68.5709 328.318 68.7378 328.428 68.929C328.539 69.1202 328.61 69.3318 328.636 69.5511C328.663 69.7704 328.645 69.9927 328.583 70.2049C328.522 70.417 328.418 70.6145 328.278 70.7855C328.138 70.9564 327.965 71.0973 327.77 71.1997C327.599 71.2901 327.449 71.4172 327.328 71.5669C327.207 71.7166 327.117 71.8893 327.064 72.0745C327.011 72.2597 326.995 72.4538 327.019 72.645C327.042 72.8362 327.104 73.0208 327.201 73.1876C327.297 73.3545 327.426 73.5002 327.58 73.6161C327.734 73.7319 327.91 73.8156 328.097 73.8621C328.284 73.9086 328.478 73.9169 328.668 73.8866C328.859 73.8563 329.041 73.788 329.204 73.6857C329.391 73.5673 329.599 73.4877 329.817 73.4518C330.035 73.416 330.258 73.4246 330.472 73.4772C330.687 73.5297 330.889 73.6251 331.065 73.7576C331.242 73.8901 331.39 74.057 331.501 74.2483C331.611 74.4395 331.682 74.6511 331.708 74.8704C331.735 75.0896 331.717 75.312 331.656 75.5241C331.594 75.7363 331.49 75.9337 331.35 76.1047C331.211 76.2757 331.038 76.4166 330.842 76.519ZM263.483 119.008C264.224 119.602 264.767 120.407 265.039 121.317C265.414 121.209 265.797 121.134 266.185 121.094C267.067 120.991 267.961 121.067 268.814 121.316C269.666 121.565 270.46 121.983 271.148 122.545C272.559 123.675 273.437 125.283 273.634 127.078C273.83 128.873 273.313 130.635 272.183 132.044C272.051 132.22 271.885 132.368 271.695 132.479C271.505 132.59 271.295 132.661 271.076 132.689C270.858 132.717 270.637 132.7 270.425 132.64C270.213 132.58 270.016 132.479 269.844 132.341C269.673 132.203 269.531 132.032 269.427 131.838C269.323 131.644 269.259 131.431 269.239 131.212C269.219 130.993 269.244 130.772 269.311 130.563C269.378 130.353 269.487 130.16 269.631 129.993C269.919 129.638 270.134 129.229 270.263 128.791C270.392 128.352 270.433 127.892 270.384 127.438C270.334 126.983 270.196 126.543 269.975 126.142C269.755 125.741 269.458 125.388 269.1 125.103C268.382 124.525 267.463 124.255 266.546 124.354C265.629 124.453 264.789 124.912 264.21 125.63C263.933 125.951 263.542 126.155 263.119 126.194C262.697 126.232 262.276 126.105 261.945 125.839C261.615 125.574 261.4 125.19 261.347 124.769C261.293 124.348 261.405 123.923 261.659 123.583C261.788 123.438 261.886 123.265 261.948 123.08C262.009 122.896 262.033 122.701 262.017 122.507C262.001 122.313 261.945 122.125 261.854 121.953C261.763 121.781 261.637 121.63 261.486 121.508C261.334 121.386 261.159 121.296 260.972 121.244C260.785 121.192 260.589 121.178 260.396 121.204C260.203 121.23 260.018 121.295 259.851 121.395C259.684 121.495 259.539 121.628 259.425 121.785C259.29 121.954 259.124 122.095 258.935 122.199C258.746 122.303 258.538 122.369 258.324 122.393C258.109 122.417 257.892 122.398 257.685 122.338C257.478 122.277 257.285 122.176 257.117 122.041C256.948 121.906 256.809 121.739 256.705 121.549C256.602 121.36 256.537 121.151 256.515 120.937C256.492 120.722 256.512 120.505 256.574 120.298C256.635 120.091 256.737 119.899 256.873 119.731C257.26 119.25 257.737 118.849 258.278 118.552C258.82 118.255 259.414 118.067 260.028 118C260.642 117.933 261.263 117.987 261.856 118.16C262.449 118.333 263.002 118.621 263.483 119.008ZM263.175 80.9506C261.917 80.9506 260.656 80.4724 259.7 79.516C258.803 78.6185 258.364 77.4525 258.308 76.2766C257.092 76.2356 255.935 75.7387 255.069 74.8845C254.171 73.9871 253.732 72.821 253.677 71.6452C252.46 71.6042 251.304 71.1073 250.437 70.2531C249.517 69.3314 249 68.0821 249 66.7796C249 65.477 249.517 64.2277 250.437 63.306C250.746 63.0077 251.16 62.8426 251.589 62.8463C252.019 62.8501 252.429 63.0223 252.733 63.3259C253.037 63.6296 253.209 64.0403 253.213 64.4697C253.216 64.8991 253.051 65.3128 252.753 65.6217C252.455 65.9306 252.289 66.3443 252.293 66.7737C252.297 67.2031 252.469 67.6138 252.773 67.9175C253.076 68.2211 253.487 68.3933 253.917 68.3971C254.346 68.4008 254.76 68.2357 255.069 67.9374C255.377 67.6391 255.791 67.474 256.221 67.4777C256.65 67.4815 257.061 67.6537 257.364 67.9574C257.668 68.261 257.84 68.6718 257.844 69.1012C257.848 69.5306 257.683 69.9442 257.384 70.2531C257.086 70.562 256.921 70.9757 256.925 71.4051C256.928 71.8345 257.101 72.2452 257.404 72.5489C257.708 72.8525 258.119 73.0248 258.548 73.0285C258.977 73.0322 259.391 72.8672 259.7 72.5688C260.009 72.2705 260.423 72.1054 260.852 72.1092C261.281 72.1129 261.692 72.2851 261.996 72.5888C262.299 72.8924 262.472 73.3032 262.475 73.7326C262.479 74.162 262.314 74.5757 262.016 74.8845C261.717 75.1934 261.552 75.6071 261.556 76.0365C261.56 76.4659 261.732 76.8767 262.036 77.1803C262.339 77.484 262.75 77.6562 263.179 77.6599C263.609 77.6637 264.023 77.4986 264.331 77.2003C264.64 76.9019 265.054 76.7369 265.483 76.7406C265.913 76.7443 266.324 76.9166 266.627 77.2202C266.931 77.5239 267.103 77.9346 267.107 78.364C267.111 78.7934 266.945 79.2071 266.647 79.516C265.726 80.4352 264.477 80.9512 263.175 80.9506ZM327.806 100.407C325.097 100.407 322.892 98.2022 322.892 95.4934C322.892 92.7846 325.097 90.5803 327.806 90.5803C330.514 90.5803 332.719 92.7846 332.719 95.4934C332.719 98.2022 330.514 100.407 327.806 100.407ZM327.806 93.8557C326.905 93.8557 326.168 94.5927 326.168 95.4934C326.168 96.3941 326.905 97.1311 327.806 97.1311C328.706 97.1311 329.443 96.3941 329.443 95.4934C329.443 94.5927 328.706 93.8557 327.806 93.8557ZM259.022 57.8262C256.313 57.8262 254.109 55.6219 254.109 52.9131C254.109 50.2043 256.313 48 259.022 48C261.731 48 263.935 50.2043 263.935 52.9131C263.935 55.6219 261.731 57.8262 259.022 57.8262ZM259.022 51.2754C258.121 51.2754 257.384 52.0124 257.384 52.9131C257.384 53.8138 258.121 54.5508 259.022 54.5508C259.923 54.5508 260.66 53.8138 260.66 52.9131C260.66 52.0124 259.923 51.2754 259.022 51.2754ZM308.153 57.8262C305.444 57.8262 303.24 55.6219 303.24 52.9131C303.24 50.2043 305.444 48 308.153 48C310.862 48 313.066 50.2043 313.066 52.9131C313.066 55.6219 310.862 57.8262 308.153 57.8262ZM308.153 51.2754C307.252 51.2754 306.515 52.0124 306.515 52.9131C306.515 53.8138 307.252 54.5508 308.153 54.5508C309.054 54.5508 309.791 53.8138 309.791 52.9131C309.791 52.0124 309.054 51.2754 308.153 51.2754ZM288.501 129.885C291.209 129.885 293.414 132.09 293.414 134.798C293.414 137.507 291.209 139.711 288.501 139.711C285.792 139.711 283.588 137.507 283.588 134.798C283.588 132.09 285.792 129.885 288.501 129.885ZM288.501 136.436C289.401 136.436 290.138 135.699 290.138 134.798C290.138 133.898 289.401 133.161 288.501 133.161C287.6 133.161 286.863 133.898 286.863 134.798C286.863 135.699 287.6 136.436 288.501 136.436Z" fill="#275431"/>
<path d="M413.926 111.956C410.526 111.956 407.526 111.189 404.926 109.656C402.326 108.122 400.293 106.006 398.826 103.306C397.36 100.572 396.626 97.4224 396.626 93.8557C396.626 90.289 397.36 87.1557 398.826 84.4557C400.293 81.7224 402.326 79.589 404.926 78.0557C407.526 76.5224 410.526 75.7557 413.926 75.7557C417.36 75.7557 420.376 76.5224 422.976 78.0557C425.576 79.589 427.593 81.7224 429.026 84.4557C430.493 87.1557 431.226 90.289 431.226 93.8557C431.226 97.4224 430.493 100.572 429.026 103.306C427.593 106.006 425.576 108.122 422.976 109.656C420.376 111.189 417.36 111.956 413.926 111.956ZM413.926 105.906C416.06 105.906 417.893 105.422 419.426 104.456C420.993 103.456 422.21 102.056 423.076 100.256C423.943 98.4557 424.376 96.3224 424.376 93.8557C424.376 91.3557 423.943 89.2224 423.076 87.4557C422.21 85.6557 420.993 84.2724 419.426 83.3057C417.893 82.339 416.06 81.8557 413.926 81.8557C411.826 81.8557 409.993 82.339 408.426 83.3057C406.86 84.2724 405.643 85.6557 404.776 87.4557C403.91 89.2224 403.476 91.3557 403.476 93.8557C403.476 96.3224 403.91 98.4557 404.776 100.256C405.643 102.056 406.86 103.456 408.426 104.456C409.993 105.422 411.826 105.906 413.926 105.906ZM435.985 111.356V83.9057C435.985 81.8057 436.335 80.139 437.035 78.9057C437.735 77.6724 438.735 76.7724 440.035 76.2057C441.368 75.639 442.918 75.3557 444.685 75.3557H447.785V81.1057H445.685C444.618 81.1057 443.852 81.3224 443.385 81.7557C442.952 82.1557 442.735 82.8724 442.735 83.9057V111.356H435.985ZM432.535 91.8057V86.1557H448.185V91.8057H432.535ZM452.54 111.356V91.8057H449.09V86.1557H452.54V83.9057C452.54 81.8057 452.89 80.139 453.59 78.9057C454.29 77.6724 455.29 76.7724 456.59 76.2057C457.923 75.639 459.473 75.3557 461.24 75.3557H463.99V81.1057H462.24C461.207 81.1057 460.457 81.3224 459.99 81.7557C459.523 82.1557 459.29 82.8557 459.29 83.8557V86.1557H475.14V111.356H468.39V91.8057H459.29V111.356H452.54ZM471.79 82.7557C470.59 82.7557 469.59 82.389 468.79 81.6557C468.023 80.9224 467.64 80.0057 467.64 78.9057C467.64 77.8057 468.023 76.9057 468.79 76.2057C469.59 75.5057 470.59 75.1557 471.79 75.1557C473.023 75.1557 474.023 75.5057 474.79 76.2057C475.59 76.9057 475.99 77.8057 475.99 78.9057C475.99 80.0057 475.59 80.9224 474.79 81.6557C474.023 82.389 473.023 82.7557 471.79 82.7557ZM492.107 111.956C489.574 111.956 487.324 111.389 485.357 110.256C483.391 109.122 481.857 107.572 480.757 105.606C479.657 103.639 479.107 101.389 479.107 98.8557C479.107 96.2557 479.657 93.9724 480.757 92.0057C481.857 90.0057 483.391 88.439 485.357 87.3057C487.324 86.139 489.574 85.5557 492.107 85.5557C495.341 85.5557 498.057 86.4057 500.257 88.1057C502.457 89.8057 503.857 92.139 504.457 95.1057H497.307C497.007 93.939 496.374 93.0224 495.407 92.3557C494.474 91.689 493.357 91.3557 492.057 91.3557C490.891 91.3557 489.841 91.6557 488.907 92.2557C488.007 92.8224 487.291 93.6724 486.757 94.8057C486.257 95.9057 486.007 97.2224 486.007 98.7557C486.007 99.9224 486.157 100.972 486.457 101.906C486.757 102.806 487.174 103.589 487.707 104.256C488.241 104.889 488.874 105.372 489.607 105.706C490.374 106.039 491.191 106.206 492.057 106.206C492.924 106.206 493.707 106.056 494.407 105.756C495.141 105.456 495.757 105.039 496.257 104.506C496.757 103.939 497.107 103.256 497.307 102.456H504.457C503.857 105.356 502.441 107.672 500.207 109.406C498.007 111.106 495.307 111.956 492.107 111.956ZM508.429 111.356V86.1557H515.179V111.356H508.429ZM511.829 82.7057C510.629 82.7057 509.629 82.3557 508.829 81.6557C508.062 80.9224 507.679 80.0057 507.679 78.9057C507.679 77.8057 508.062 76.9057 508.829 76.2057C509.629 75.4724 510.629 75.1057 511.829 75.1057C513.062 75.1057 514.062 75.4724 514.829 76.2057C515.629 76.9057 516.029 77.8057 516.029 78.9057C516.029 80.0057 515.629 80.9224 514.829 81.6557C514.062 82.3557 513.062 82.7057 511.829 82.7057ZM528.499 111.956C526.399 111.956 524.666 111.622 523.299 110.956C521.933 110.256 520.916 109.339 520.249 108.206C519.616 107.039 519.299 105.756 519.299 104.356C519.299 102.822 519.683 101.472 520.449 100.306C521.249 99.139 522.433 98.2224 523.999 97.5557C525.599 96.889 527.599 96.5557 529.999 96.5557H536.249C536.249 95.3224 536.083 94.3057 535.749 93.5057C535.416 92.6724 534.899 92.0557 534.199 91.6557C533.499 91.2557 532.566 91.0557 531.399 91.0557C530.133 91.0557 529.049 91.339 528.149 91.9057C527.283 92.439 526.749 93.2724 526.549 94.4057H519.999C520.166 92.6057 520.749 91.0557 521.749 89.7557C522.783 88.4224 524.133 87.389 525.799 86.6557C527.499 85.9224 529.383 85.5557 531.449 85.5557C533.816 85.5557 535.866 85.9557 537.599 86.7557C539.333 87.5557 540.666 88.7057 541.599 90.2057C542.533 91.7057 542.999 93.5557 542.999 95.7557V111.356H537.299L536.549 107.506C536.183 108.172 535.749 108.772 535.249 109.306C534.749 109.839 534.166 110.306 533.499 110.706C532.833 111.106 532.083 111.406 531.249 111.606C530.416 111.839 529.499 111.956 528.499 111.956ZM530.099 106.756C530.966 106.756 531.733 106.606 532.399 106.306C533.099 105.972 533.699 105.539 534.199 105.006C534.699 104.439 535.083 103.806 535.349 103.106C535.649 102.372 535.849 101.589 535.949 100.756V100.706H530.799C529.766 100.706 528.916 100.839 528.249 101.106C527.616 101.339 527.149 101.689 526.849 102.156C526.549 102.622 526.399 103.156 526.399 103.756C526.399 104.422 526.549 104.972 526.849 105.406C527.149 105.839 527.583 106.172 528.149 106.406C528.716 106.639 529.366 106.756 530.099 106.756ZM547.296 111.356V75.3557H554.046V111.356H547.296ZM568.544 111.356V76.3557H580.244C584.31 76.3557 587.66 77.089 590.294 78.5557C592.96 79.989 594.927 82.0224 596.194 84.6557C597.494 87.2557 598.144 90.3224 598.144 93.8557C598.144 97.389 597.494 100.472 596.194 103.106C594.927 105.706 592.977 107.739 590.344 109.206C587.71 110.639 584.344 111.356 580.244 111.356H568.544ZM575.294 105.556H579.894C582.76 105.556 585.01 105.089 586.644 104.156C588.31 103.222 589.494 101.889 590.194 100.156C590.894 98.389 591.244 96.289 591.244 93.8557C591.244 91.389 590.894 89.289 590.194 87.5557C589.494 85.789 588.31 84.439 586.644 83.5057C585.01 82.5724 582.76 82.1057 579.894 82.1057H575.294V105.556ZM613.845 111.956C611.312 111.956 609.062 111.422 607.095 110.356C605.162 109.256 603.645 107.739 602.545 105.806C601.479 103.839 600.945 101.572 600.945 99.0057C600.945 96.3724 601.479 94.0557 602.545 92.0557C603.645 90.0224 605.162 88.439 607.095 87.3057C609.029 86.139 611.279 85.5557 613.845 85.5557C616.345 85.5557 618.529 86.1057 620.395 87.2057C622.262 88.3057 623.712 89.789 624.745 91.6557C625.779 93.5224 626.295 95.639 626.295 98.0057C626.295 98.339 626.295 98.7224 626.295 99.1557C626.295 99.5557 626.262 99.9724 626.195 100.406H605.745V96.3057H619.495C619.395 94.6724 618.812 93.389 617.745 92.4557C616.712 91.5224 615.412 91.0557 613.845 91.0557C612.712 91.0557 611.662 91.3224 610.695 91.8557C609.729 92.3557 608.962 93.139 608.395 94.2057C607.862 95.2724 607.595 96.6224 607.595 98.2557V99.7057C607.595 101.072 607.845 102.272 608.345 103.306C608.879 104.306 609.612 105.089 610.545 105.656C611.479 106.189 612.562 106.456 613.795 106.456C615.029 106.456 616.045 106.189 616.845 105.656C617.679 105.122 618.295 104.439 618.695 103.606H625.595C625.129 105.172 624.345 106.589 623.245 107.856C622.145 109.122 620.795 110.122 619.195 110.856C617.595 111.589 615.812 111.956 613.845 111.956ZM640.832 111.356C639.065 111.356 637.515 111.089 636.182 110.556C634.882 109.989 633.865 109.072 633.132 107.806C632.398 106.506 632.032 104.739 632.032 102.506V91.8057H627.732V86.1557H632.032L632.782 79.3057H638.782V86.1557H645.432V91.8057H638.782V102.606C638.782 103.739 639.032 104.522 639.532 104.956C640.032 105.389 640.882 105.606 642.082 105.606H645.382V111.356H640.832ZM657.613 111.956C655.513 111.956 653.779 111.622 652.412 110.956C651.046 110.256 650.029 109.339 649.363 108.206C648.729 107.039 648.413 105.756 648.413 104.356C648.413 102.822 648.796 101.472 649.563 100.306C650.363 99.139 651.546 98.2224 653.113 97.5557C654.713 96.889 656.713 96.5557 659.113 96.5557H665.363C665.363 95.3224 665.196 94.3057 664.863 93.5057C664.529 92.6724 664.013 92.0557 663.313 91.6557C662.613 91.2557 661.679 91.0557 660.512 91.0557C659.246 91.0557 658.163 91.339 657.263 91.9057C656.396 92.439 655.863 93.2724 655.663 94.4057H649.112C649.279 92.6057 649.863 91.0557 650.863 89.7557C651.896 88.4224 653.246 87.389 654.913 86.6557C656.613 85.9224 658.496 85.5557 660.563 85.5557C662.929 85.5557 664.979 85.9557 666.713 86.7557C668.446 87.5557 669.779 88.7057 670.713 90.2057C671.646 91.7057 672.113 93.5557 672.113 95.7557V111.356H666.413L665.663 107.506C665.296 108.172 664.863 108.772 664.363 109.306C663.863 109.839 663.279 110.306 662.613 110.706C661.946 111.106 661.196 111.406 660.363 111.606C659.529 111.839 658.613 111.956 657.613 111.956ZM659.213 106.756C660.079 106.756 660.846 106.606 661.513 106.306C662.213 105.972 662.813 105.539 663.313 105.006C663.813 104.439 664.196 103.806 664.463 103.106C664.763 102.372 664.963 101.589 665.063 100.756V100.706H659.913C658.879 100.706 658.029 100.839 657.363 101.106C656.729 101.339 656.263 101.689 655.963 102.156C655.663 102.622 655.513 103.156 655.513 103.756C655.513 104.422 655.663 104.972 655.963 105.406C656.263 105.839 656.696 106.172 657.263 106.406C657.829 106.639 658.479 106.756 659.213 106.756ZM676.559 111.356V86.1557H683.309V111.356H676.559ZM679.959 82.7057C678.759 82.7057 677.759 82.3557 676.959 81.6557C676.193 80.9224 675.809 80.0057 675.809 78.9057C675.809 77.8057 676.193 76.9057 676.959 76.2057C677.759 75.4724 678.759 75.1057 679.959 75.1057C681.193 75.1057 682.193 75.4724 682.959 76.2057C683.759 76.9057 684.159 77.8057 684.159 78.9057C684.159 80.0057 683.759 80.9224 682.959 81.6557C682.193 82.3557 681.193 82.7057 679.959 82.7057ZM688.13 111.356V75.3557H694.88V111.356H688.13ZM709.76 111.956C707.46 111.956 705.46 111.589 703.76 110.856C702.06 110.122 700.727 109.106 699.76 107.806C698.793 106.506 698.243 105.039 698.11 103.406H704.81C704.977 104.039 705.26 104.622 705.66 105.156C706.06 105.656 706.593 106.056 707.26 106.356C707.927 106.656 708.727 106.806 709.66 106.806C710.56 106.806 711.293 106.689 711.86 106.456C712.427 106.189 712.843 105.839 713.11 105.406C713.41 104.972 713.56 104.522 713.56 104.056C713.56 103.356 713.36 102.822 712.96 102.456C712.56 102.056 711.977 101.739 711.21 101.506C710.443 101.272 709.51 101.039 708.41 100.806C707.21 100.572 706.027 100.289 704.86 99.9557C703.727 99.589 702.71 99.139 701.81 98.6057C700.91 98.0724 700.193 97.389 699.66 96.5557C699.127 95.7224 698.86 94.689 698.86 93.4557C698.86 91.9557 699.26 90.6224 700.06 89.4557C700.86 88.2557 702.027 87.3057 703.56 86.6057C705.093 85.9057 706.943 85.5557 709.11 85.5557C712.143 85.5557 714.543 86.239 716.31 87.6057C718.077 88.9724 719.127 90.8557 719.46 93.2557H713.11C712.91 92.489 712.46 91.889 711.76 91.4557C711.093 90.989 710.193 90.7557 709.06 90.7557C707.86 90.7557 706.943 90.9724 706.31 91.4057C705.677 91.839 705.36 92.4057 705.36 93.1057C705.36 93.5724 705.56 93.989 705.96 94.3557C706.393 94.7224 706.993 95.039 707.76 95.3057C708.527 95.539 709.46 95.7724 710.56 96.0057C712.493 96.4057 714.193 96.8724 715.66 97.4057C717.127 97.9057 718.277 98.639 719.11 99.6057C719.943 100.539 720.36 101.906 720.36 103.706C720.36 105.306 719.927 106.739 719.06 108.006C718.193 109.239 716.96 110.206 715.36 110.906C713.793 111.606 711.927 111.956 709.76 111.956ZM749.689 111.956C746.189 111.956 743.172 111.206 740.639 109.706C738.139 108.172 736.206 106.056 734.839 103.356C733.506 100.622 732.839 97.4724 732.839 93.9057C732.839 90.339 733.506 87.189 734.839 84.4557C736.206 81.7224 738.139 79.589 740.639 78.0557C743.172 76.5224 746.189 75.7557 749.689 75.7557C753.922 75.7557 757.389 76.8057 760.089 78.9057C762.789 81.0057 764.472 83.9724 765.139 87.8057H757.789C757.356 85.939 756.439 84.489 755.039 83.4557C753.672 82.389 751.872 81.8557 749.639 81.8557C747.572 81.8557 745.789 82.3557 744.289 83.3557C742.822 84.3224 741.689 85.7057 740.889 87.5057C740.089 89.2724 739.689 91.4057 739.689 93.9057C739.689 96.3724 740.089 98.5057 740.889 100.306C741.689 102.106 742.822 103.489 744.289 104.456C745.789 105.422 747.572 105.906 749.639 105.906C751.872 105.906 753.672 105.422 755.039 104.456C756.406 103.456 757.306 102.072 757.739 100.306H765.139C764.472 103.939 762.789 106.789 760.089 108.856C757.389 110.922 753.922 111.956 749.689 111.956ZM780.653 111.956C778.253 111.956 776.086 111.406 774.153 110.306C772.253 109.172 770.736 107.622 769.603 105.656C768.503 103.656 767.953 101.372 767.953 98.8057C767.953 96.1724 768.503 93.8724 769.603 91.9057C770.736 89.9057 772.27 88.3557 774.203 87.2557C776.136 86.1224 778.303 85.5557 780.703 85.5557C783.136 85.5557 785.303 86.1224 787.203 87.2557C789.136 88.3557 790.653 89.9057 791.753 91.9057C792.886 93.8724 793.453 96.1557 793.453 98.7557C793.453 101.356 792.886 103.656 791.753 105.656C790.653 107.622 789.136 109.172 787.203 110.306C785.27 111.406 783.086 111.956 780.653 111.956ZM780.653 106.106C781.786 106.106 782.786 105.839 783.653 105.306C784.553 104.772 785.253 103.956 785.753 102.856C786.286 101.756 786.553 100.389 786.553 98.7557C786.553 97.1224 786.286 95.7724 785.753 94.7057C785.253 93.6057 784.553 92.789 783.653 92.2557C782.786 91.689 781.803 91.4057 780.703 91.4057C779.636 91.4057 778.653 91.689 777.753 92.2557C776.853 92.789 776.136 93.6057 775.603 94.7057C775.103 95.7724 774.853 97.1224 774.853 98.7557C774.853 100.389 775.103 101.756 775.603 102.856C776.136 103.956 776.836 104.772 777.703 105.306C778.603 105.839 779.586 106.106 780.653 106.106ZM797.271 111.356V86.1557H803.221L803.771 89.5057C804.571 88.3057 805.621 87.3557 806.921 86.6557C808.254 85.9224 809.771 85.5557 811.471 85.5557C812.737 85.5557 813.871 85.7224 814.871 86.0557C815.871 86.389 816.754 86.8724 817.521 87.5057C818.321 88.139 818.971 88.939 819.471 89.9057C820.404 88.539 821.621 87.4724 823.121 86.7057C824.621 85.939 826.254 85.5557 828.021 85.5557C830.221 85.5557 832.054 86.0057 833.521 86.9057C834.987 87.7724 836.087 89.039 836.821 90.7057C837.587 92.3724 837.971 94.4224 837.971 96.8557V111.356H831.271V97.4557C831.271 95.4557 830.871 93.9224 830.071 92.8557C829.304 91.789 828.104 91.2557 826.471 91.2557C825.404 91.2557 824.454 91.5224 823.621 92.0557C822.787 92.589 822.137 93.3557 821.671 94.3557C821.237 95.3557 821.021 96.5557 821.021 97.9557V111.356H814.271V97.4557C814.271 95.4557 813.871 93.9224 813.071 92.8557C812.271 91.789 811.037 91.2557 809.371 91.2557C808.337 91.2557 807.404 91.5224 806.571 92.0557C805.771 92.589 805.137 93.3557 804.671 94.3557C804.237 95.3557 804.021 96.5557 804.021 97.9557V111.356H797.271ZM842.491 111.356V86.1557H849.241V111.356H842.491ZM845.891 82.7057C844.691 82.7057 843.691 82.3557 842.891 81.6557C842.124 80.9224 841.741 80.0057 841.741 78.9057C841.741 77.8057 842.124 76.9057 842.891 76.2057C843.691 75.4724 844.691 75.1057 845.891 75.1057C847.124 75.1057 848.124 75.4724 848.891 76.2057C849.691 76.9057 850.091 77.8057 850.091 78.9057C850.091 80.0057 849.691 80.9224 848.891 81.6557C848.124 82.3557 847.124 82.7057 845.891 82.7057ZM854.062 111.356V86.1557H860.012L860.512 90.2557C861.278 88.8557 862.362 87.7224 863.762 86.8557C865.195 85.989 866.895 85.5557 868.862 85.5557C870.962 85.5557 872.728 85.989 874.162 86.8557C875.595 87.7224 876.678 88.989 877.412 90.6557C878.178 92.3224 878.562 94.3724 878.562 96.8057V111.356H871.862V97.4557C871.862 95.4557 871.428 93.9224 870.562 92.8557C869.728 91.789 868.428 91.2557 866.662 91.2557C865.528 91.2557 864.512 91.5224 863.612 92.0557C862.745 92.589 862.062 93.3557 861.562 94.3557C861.062 95.3224 860.812 96.5057 860.812 97.9057V111.356H854.062ZM893.771 122.956C891.371 122.956 889.271 122.656 887.471 122.056C885.671 121.489 884.271 120.606 883.271 119.406C882.304 118.239 881.821 116.789 881.821 115.056C881.821 113.889 882.121 112.789 882.721 111.756C883.321 110.722 884.188 109.789 885.321 108.956C886.488 108.089 887.938 107.356 889.671 106.756L892.221 110.056C890.688 110.556 889.571 111.172 888.871 111.906C888.204 112.672 887.871 113.489 887.871 114.356C887.871 115.122 888.121 115.772 888.621 116.306C889.154 116.839 889.854 117.222 890.721 117.456C891.621 117.722 892.621 117.856 893.721 117.856C894.788 117.856 895.704 117.722 896.471 117.456C897.271 117.189 897.888 116.789 898.321 116.256C898.788 115.756 899.021 115.156 899.021 114.456C899.021 113.556 898.704 112.822 898.071 112.256C897.438 111.689 896.171 111.339 894.271 111.206C892.571 111.072 891.054 110.889 889.721 110.656C888.421 110.389 887.271 110.089 886.271 109.756C885.271 109.389 884.421 108.989 883.721 108.556C883.054 108.122 882.504 107.689 882.071 107.256V106.106L887.421 100.356L892.271 101.906L885.971 108.106L887.871 104.806C888.238 105.006 888.588 105.206 888.921 105.406C889.288 105.572 889.738 105.739 890.271 105.906C890.804 106.039 891.504 106.172 892.371 106.306C893.238 106.439 894.338 106.556 895.671 106.656C897.871 106.856 899.671 107.272 901.071 107.906C902.504 108.539 903.554 109.389 904.221 110.456C904.888 111.489 905.221 112.772 905.221 114.306C905.221 115.806 904.804 117.206 903.971 118.506C903.171 119.839 901.921 120.906 900.221 121.706C898.521 122.539 896.371 122.956 893.771 122.956ZM893.771 103.906C891.671 103.906 889.854 103.506 888.321 102.706C886.821 101.872 885.654 100.772 884.821 99.4057C884.021 98.0057 883.621 96.4557 883.621 94.7557C883.621 93.0557 884.021 91.5224 884.821 90.1557C885.654 88.7557 886.821 87.639 888.321 86.8057C889.854 85.9724 891.671 85.5557 893.771 85.5557C895.904 85.5557 897.721 85.9724 899.221 86.8057C900.754 87.639 901.921 88.7557 902.721 90.1557C903.521 91.5224 903.921 93.0557 903.921 94.7557C903.921 96.4557 903.521 98.0057 902.721 99.4057C901.921 100.772 900.754 101.872 899.221 102.706C897.721 103.506 895.904 103.906 893.771 103.906ZM893.771 98.7557C895.071 98.7557 896.121 98.4224 896.921 97.7557C897.721 97.089 898.121 96.1057 898.121 94.8057C898.121 93.5057 897.721 92.5224 896.921 91.8557C896.121 91.1557 895.071 90.8057 893.771 90.8057C892.504 90.8057 891.454 91.1557 890.621 91.8557C889.821 92.5224 889.421 93.5057 889.421 94.8057C889.421 96.1057 889.821 97.089 890.621 97.7557C891.454 98.4224 892.504 98.7557 893.771 98.7557ZM897.971 90.9557L896.871 86.1557H907.221V90.1557L897.971 90.9557ZM932.674 111.956C930.14 111.956 927.874 111.522 925.874 110.656C923.907 109.789 922.34 108.522 921.174 106.856C920.04 105.189 919.457 103.172 919.424 100.806H926.574C926.607 101.839 926.874 102.772 927.374 103.606C927.874 104.439 928.557 105.106 929.424 105.606C930.324 106.072 931.39 106.306 932.624 106.306C933.69 106.306 934.607 106.139 935.374 105.806C936.174 105.439 936.79 104.939 937.224 104.306C937.657 103.672 937.874 102.922 937.874 102.056C937.874 101.056 937.624 100.222 937.124 99.5557C936.657 98.889 935.99 98.3224 935.124 97.8557C934.29 97.389 933.307 96.9724 932.174 96.6057C931.074 96.2057 929.907 95.789 928.674 95.3557C925.907 94.4557 923.79 93.2557 922.324 91.7557C920.89 90.2557 920.174 88.2724 920.174 85.8057C920.174 83.7057 920.674 81.9057 921.674 80.4057C922.707 78.9057 924.124 77.7557 925.924 76.9557C927.724 76.1557 929.774 75.7557 932.074 75.7557C934.44 75.7557 936.507 76.1724 938.274 77.0057C940.074 77.8057 941.49 78.9724 942.524 80.5057C943.59 82.039 944.14 83.839 944.174 85.9057H936.974C936.94 85.139 936.707 84.4224 936.274 83.7557C935.874 83.0557 935.307 82.5057 934.574 82.1057C933.84 81.6724 932.974 81.4557 931.974 81.4557C931.107 81.4224 930.307 81.5557 929.574 81.8557C928.874 82.1557 928.307 82.6057 927.874 83.2057C927.474 83.7724 927.274 84.489 927.274 85.3557C927.274 86.189 927.474 86.889 927.874 87.4557C928.307 88.0224 928.89 88.5224 929.624 88.9557C930.357 89.3557 931.224 89.739 932.224 90.1057C933.224 90.439 934.307 90.789 935.474 91.1557C937.207 91.7557 938.807 92.4724 940.274 93.3057C941.74 94.1057 942.907 95.1557 943.774 96.4557C944.64 97.7557 945.074 99.4724 945.074 101.606C945.074 103.439 944.59 105.139 943.624 106.706C942.657 108.272 941.257 109.539 939.424 110.506C937.624 111.472 935.374 111.956 932.674 111.956ZM960.55 111.956C958.15 111.956 955.983 111.406 954.05 110.306C952.15 109.172 950.633 107.622 949.5 105.656C948.4 103.656 947.85 101.372 947.85 98.8057C947.85 96.1724 948.4 93.8724 949.5 91.9057C950.633 89.9057 952.166 88.3557 954.1 87.2557C956.033 86.1224 958.2 85.5557 960.6 85.5557C963.033 85.5557 965.2 86.1224 967.1 87.2557C969.033 88.3557 970.55 89.9057 971.65 91.9057C972.783 93.8724 973.35 96.1557 973.35 98.7557C973.35 101.356 972.783 103.656 971.65 105.656C970.55 107.622 969.033 109.172 967.1 110.306C965.166 111.406 962.983 111.956 960.55 111.956ZM960.55 106.106C961.683 106.106 962.683 105.839 963.55 105.306C964.45 104.772 965.15 103.956 965.65 102.856C966.183 101.756 966.45 100.389 966.45 98.7557C966.45 97.1224 966.183 95.7724 965.65 94.7057C965.15 93.6057 964.45 92.789 963.55 92.2557C962.683 91.689 961.7 91.4057 960.6 91.4057C959.533 91.4057 958.55 91.689 957.65 92.2557C956.75 92.789 956.033 93.6057 955.5 94.7057C955 95.7724 954.75 97.1224 954.75 98.7557C954.75 100.389 955 101.756 955.5 102.856C956.033 103.956 956.733 104.772 957.6 105.306C958.5 105.839 959.483 106.106 960.55 106.106ZM989.067 111.956C986.667 111.956 984.501 111.406 982.567 110.306C980.667 109.172 979.151 107.622 978.017 105.656C976.917 103.656 976.367 101.372 976.367 98.8057C976.367 96.1724 976.917 93.8724 978.017 91.9057C979.151 89.9057 980.684 88.3557 982.617 87.2557C984.551 86.1224 986.717 85.5557 989.117 85.5557C991.551 85.5557 993.717 86.1224 995.617 87.2557C997.551 88.3557 999.067 89.9057 1000.17 91.9057C1001.3 93.8724 1001.87 96.1557 1001.87 98.7557C1001.87 101.356 1001.3 103.656 1000.17 105.656C999.067 107.622 997.551 109.172 995.617 110.306C993.684 111.406 991.501 111.956 989.067 111.956ZM989.067 106.106C990.201 106.106 991.201 105.839 992.067 105.306C992.967 104.772 993.667 103.956 994.167 102.856C994.701 101.756 994.967 100.389 994.967 98.7557C994.967 97.1224 994.701 95.7724 994.167 94.7057C993.667 93.6057 992.967 92.789 992.067 92.2557C991.201 91.689 990.217 91.4057 989.117 91.4057C988.051 91.4057 987.067 91.689 986.167 92.2557C985.267 92.789 984.551 93.6057 984.017 94.7057C983.517 95.7724 983.267 97.1224 983.267 98.7557C983.267 100.389 983.517 101.756 984.017 102.856C984.551 103.956 985.251 104.772 986.117 105.306C987.017 105.839 988.001 106.106 989.067 106.106ZM1005.68 111.356V86.1557H1011.63L1012.13 90.2557C1012.9 88.8557 1013.98 87.7224 1015.38 86.8557C1016.82 85.989 1018.52 85.5557 1020.48 85.5557C1022.58 85.5557 1024.35 85.989 1025.78 86.8557C1027.22 87.7224 1028.3 88.989 1029.03 90.6557C1029.8 92.3224 1030.18 94.3724 1030.18 96.8057V111.356H1023.48V97.4557C1023.48 95.4557 1023.05 93.9224 1022.18 92.8557C1021.35 91.789 1020.05 91.2557 1018.28 91.2557C1017.15 91.2557 1016.13 91.5224 1015.23 92.0557C1014.37 92.589 1013.68 93.3557 1013.18 94.3557C1012.68 95.3224 1012.43 96.5057 1012.43 97.9057V111.356H1005.68ZM1036.09 99.9557L1035.34 76.3557H1042.59L1041.84 99.9557H1036.09ZM1038.99 111.606C1037.76 111.606 1036.74 111.239 1035.94 110.506C1035.18 109.739 1034.79 108.806 1034.79 107.706C1034.79 106.606 1035.18 105.689 1035.94 104.956C1036.74 104.189 1037.76 103.806 1038.99 103.806C1040.23 103.806 1041.23 104.189 1041.99 104.956C1042.76 105.689 1043.14 106.606 1043.14 107.706C1043.14 108.806 1042.76 109.739 1041.99 110.506C1041.23 111.239 1040.23 111.606 1038.99 111.606Z" fill="#275431"/>
<path d="M1176.78 94.0621C1174.72 89.09 1171.05 83.6856 1166.04 78.6742C1165.47 78.1107 1164.89 77.5581 1164.3 77.0168C1164.86 75.8115 1165.35 74.5767 1165.76 73.3255C1167.74 67.2463 1167.72 60.9444 1165.7 55.5891C1165.55 55.1826 1165.24 54.8534 1164.84 54.674C1164.45 54.4947 1164 54.4798 1163.59 54.6327C1163.18 54.7856 1162.85 55.0937 1162.67 55.4893C1162.5 55.8849 1162.48 56.3355 1162.63 56.7421C1164.39 61.4062 1164.39 66.9351 1162.64 72.3166C1162.37 73.1355 1162.03 73.9347 1161.69 74.7306C1158 71.7107 1154.22 69.4146 1150.67 67.9407C1150.11 62.831 1148.04 58.1014 1144.4 54.4558C1144.09 54.1575 1143.68 53.9924 1143.25 53.9962C1142.82 53.9999 1142.41 54.1721 1142.1 54.4758C1141.8 54.7794 1141.63 55.1902 1141.62 55.6196C1141.62 56.049 1141.79 56.4627 1142.08 56.7715C1144.82 59.5098 1146.5 62.9752 1147.19 66.7648C1142.27 65.435 1138.01 65.9132 1135.37 68.5499C1134.37 69.5814 1133.65 70.857 1133.29 72.2511C1133.24 72.3265 1133.17 72.3821 1133.14 72.4673L1125.98 89.0867L1120.76 101.186L1114.95 114.651L1111.51 122.643L1111.5 122.65L1105.13 137.425C1105 137.726 1104.97 138.06 1105.03 138.382C1105.09 138.704 1105.25 139.001 1105.48 139.233C1105.71 139.462 1106.01 139.616 1106.33 139.677C1106.66 139.739 1106.99 139.704 1107.29 139.577L1127.46 130.884L1135.46 127.432L1172.89 111.294C1173.28 111.166 1173.64 110.993 1174 110.816L1174.44 110.629C1174.48 110.613 1174.5 110.577 1174.54 110.557C1175.13 110.216 1175.68 109.82 1176.17 109.335C1178.8 106.702 1179.28 102.45 1177.95 97.5242C1181.76 98.2317 1185.22 99.9054 1187.94 102.627C1188.09 102.781 1188.27 102.902 1188.47 102.985C1188.67 103.068 1188.89 103.111 1189.1 103.111C1189.32 103.111 1189.53 103.068 1189.73 102.985C1189.93 102.902 1190.11 102.781 1190.26 102.627C1190.57 102.32 1190.74 101.904 1190.74 101.469C1190.74 101.035 1190.57 100.619 1190.26 100.312C1186.63 96.6857 1181.91 94.6353 1176.78 94.0621ZM1137.69 70.8623C1138.74 69.824 1140.33 69.2934 1142.32 69.2934C1143.86 69.2934 1145.64 69.6472 1147.58 70.2826C1147.71 76.365 1145.47 82.9322 1140.99 88.5495C1135.87 80.7148 1134.84 73.7152 1137.69 70.8623ZM1109.78 134.939L1113.78 125.647C1116.59 127.33 1119.37 128.683 1122.03 129.653L1109.78 134.939ZM1126.65 127.664C1123.08 126.839 1119.11 125.116 1115.07 122.65L1116.29 119.833L1118.18 115.447C1123.91 119.748 1129.72 122.732 1134.92 124.098L1126.65 127.664ZM1140.6 121.651C1134.8 121.536 1127.01 118.071 1119.52 112.329L1122.79 104.753C1122.96 104.93 1123.12 105.113 1123.3 105.29C1130.15 112.146 1137.79 117.232 1144.87 119.807L1140.6 121.651ZM1149.49 117.815C1142.08 116.076 1133.2 110.56 1125.61 102.971C1125.13 102.489 1124.66 101.999 1124.19 101.501L1126.9 95.2248L1127.89 92.9189C1129.54 94.9497 1131.29 96.9018 1133.13 98.7361C1141.04 106.643 1149.99 112.218 1157.75 114.252L1149.49 117.815ZM1163.43 111.808C1155.57 111.612 1144.64 105.621 1135.44 96.4236C1133.27 94.2412 1131.25 91.9194 1129.38 89.4732L1133.48 79.9549C1134.97 85.8899 1139.16 92.8633 1145.51 99.2143C1151.88 105.582 1158.86 109.738 1164.81 111.215L1163.43 111.808ZM1173.86 107.023C1173.41 107.435 1172.89 107.759 1172.32 107.979L1171.89 108.166C1166.93 109.84 1157.18 106.256 1147.82 96.8986C1146.08 95.1398 1144.46 93.2629 1142.97 91.2812C1147.98 85.32 1150.62 78.2877 1150.81 71.596C1153.77 72.9946 1156.96 75.0319 1160.19 77.7604C1158.81 80.2305 1157.12 82.5098 1155.15 84.5405C1154.84 84.851 1154.67 85.2696 1154.68 85.7042C1154.68 86.1388 1154.86 86.5538 1155.17 86.8578C1155.48 87.1618 1155.9 87.3301 1156.33 87.3255C1156.77 87.3209 1157.18 87.1438 1157.49 86.8332C1159.49 84.7805 1161.24 82.4942 1162.69 80.0237C1163.04 80.3545 1163.39 80.646 1163.73 80.9932C1168.14 85.4052 1171.21 89.8826 1173.11 93.931C1168.21 94.0752 1163.09 95.4738 1158.24 98.3266C1158.05 98.4318 1157.88 98.5746 1157.74 98.7464C1157.6 98.9183 1157.5 99.1157 1157.45 99.327C1157.39 99.5384 1157.37 99.7593 1157.4 99.9766C1157.43 100.194 1157.5 100.403 1157.61 100.593C1157.72 100.782 1157.87 100.946 1158.05 101.077C1158.22 101.208 1158.42 101.302 1158.64 101.354C1158.85 101.406 1159.07 101.415 1159.29 101.38C1159.5 101.345 1159.71 101.267 1159.9 101.15C1164.67 98.3463 1169.71 97.0591 1174.43 97.1671C1175.88 101.576 1175.7 105.179 1173.86 107.023ZM1110.16 76.519C1111.24 77.1382 1112.53 77.3046 1113.73 76.9819C1114.94 76.6593 1115.97 75.8737 1116.59 74.7961C1117.09 73.938 1117.28 72.9914 1117.21 72.0775C1118.29 71.9831 1119.33 71.6295 1120.24 71.0467C1121.16 70.464 1121.92 69.6693 1122.46 68.7301C1123.35 67.178 1123.59 65.3351 1123.13 63.6055C1122.66 61.8758 1121.53 60.4006 1119.98 59.5032C1119.61 59.2861 1119.16 59.227 1118.74 59.3391C1118.32 59.4512 1117.97 59.7253 1117.75 60.101C1117.53 60.4767 1117.47 60.9233 1117.58 61.3425C1117.7 61.7618 1117.97 62.1193 1118.35 62.3365C1120.01 63.2994 1120.58 65.4317 1119.62 67.0924C1119.16 67.8886 1118.4 68.4692 1117.51 68.7078C1116.62 68.9464 1115.67 68.8237 1114.87 68.3665C1114.68 68.248 1114.47 68.1684 1114.26 68.1326C1114.04 68.0967 1113.81 68.1053 1113.6 68.1579C1113.39 68.2104 1113.18 68.3058 1113.01 68.4384C1112.83 68.5709 1112.68 68.7378 1112.57 68.929C1112.46 69.1202 1112.39 69.3318 1112.36 69.5511C1112.34 69.7704 1112.36 69.9927 1112.42 70.2049C1112.48 70.417 1112.58 70.6145 1112.72 70.7855C1112.86 70.9564 1113.03 71.0973 1113.23 71.1997C1113.4 71.2901 1113.55 71.4172 1113.67 71.5669C1113.79 71.7166 1113.88 71.8893 1113.94 72.0745C1113.99 72.2597 1114 72.4538 1113.98 72.645C1113.96 72.8362 1113.9 73.0208 1113.8 73.1876C1113.7 73.3545 1113.57 73.5002 1113.42 73.6161C1113.27 73.7319 1113.09 73.8156 1112.9 73.8621C1112.72 73.9086 1112.52 73.9169 1112.33 73.8866C1112.14 73.8563 1111.96 73.788 1111.8 73.6857C1111.61 73.5673 1111.4 73.4877 1111.18 73.4518C1110.97 73.416 1110.74 73.4246 1110.53 73.4772C1110.31 73.5297 1110.11 73.6251 1109.93 73.7576C1109.76 73.8901 1109.61 74.057 1109.5 74.2483C1109.39 74.4395 1109.32 74.6511 1109.29 74.8704C1109.26 75.0896 1109.28 75.312 1109.34 75.5241C1109.41 75.7363 1109.51 75.9337 1109.65 76.1047C1109.79 76.2757 1109.96 76.4166 1110.16 76.519ZM1177.52 119.008C1176.78 119.602 1176.23 120.407 1175.96 121.317C1175.59 121.209 1175.2 121.134 1174.81 121.094C1173.93 120.991 1173.04 121.067 1172.19 121.316C1171.33 121.565 1170.54 121.983 1169.85 122.545C1168.44 123.675 1167.56 125.283 1167.37 127.078C1167.17 128.873 1167.69 130.635 1168.82 132.044C1168.95 132.22 1169.11 132.368 1169.3 132.479C1169.49 132.59 1169.71 132.661 1169.92 132.689C1170.14 132.717 1170.36 132.7 1170.58 132.64C1170.79 132.58 1170.98 132.479 1171.16 132.341C1171.33 132.203 1171.47 132.032 1171.57 131.838C1171.68 131.644 1171.74 131.431 1171.76 131.212C1171.78 130.993 1171.76 130.772 1171.69 130.563C1171.62 130.353 1171.51 130.16 1171.37 129.993C1171.08 129.638 1170.87 129.229 1170.74 128.791C1170.61 128.352 1170.57 127.892 1170.62 127.438C1170.67 126.983 1170.8 126.543 1171.02 126.142C1171.24 125.741 1171.54 125.388 1171.9 125.103C1172.62 124.525 1173.54 124.255 1174.45 124.354C1175.37 124.453 1176.21 124.912 1176.79 125.63C1177.07 125.951 1177.46 126.155 1177.88 126.194C1178.3 126.232 1178.72 126.105 1179.05 125.839C1179.39 125.574 1179.6 125.19 1179.65 124.769C1179.71 124.348 1179.6 123.923 1179.34 123.583C1179.21 123.438 1179.11 123.265 1179.05 123.08C1178.99 122.896 1178.97 122.701 1178.98 122.507C1179 122.313 1179.05 122.125 1179.15 121.953C1179.24 121.781 1179.36 121.63 1179.51 121.508C1179.67 121.386 1179.84 121.296 1180.03 121.244C1180.22 121.192 1180.41 121.178 1180.6 121.204C1180.8 121.23 1180.98 121.295 1181.15 121.395C1181.32 121.495 1181.46 121.628 1181.58 121.785C1181.71 121.954 1181.88 122.095 1182.06 122.199C1182.25 122.303 1182.46 122.369 1182.68 122.393C1182.89 122.417 1183.11 122.398 1183.31 122.338C1183.52 122.277 1183.72 122.176 1183.88 122.041C1184.05 121.906 1184.19 121.739 1184.29 121.549C1184.4 121.36 1184.46 121.151 1184.49 120.937C1184.51 120.722 1184.49 120.505 1184.43 120.298C1184.36 120.091 1184.26 119.899 1184.13 119.731C1183.74 119.25 1183.26 118.849 1182.72 118.552C1182.18 118.255 1181.59 118.067 1180.97 118C1180.36 117.933 1179.74 117.987 1179.14 118.16C1178.55 118.333 1178 118.621 1177.52 119.008ZM1177.82 80.9506C1179.08 80.9506 1180.34 80.4724 1181.3 79.516C1182.2 78.6185 1182.64 77.4525 1182.69 76.2766C1183.91 76.2356 1185.06 75.7387 1185.93 74.8845C1186.83 73.9871 1187.27 72.821 1187.32 71.6452C1188.54 71.6042 1189.7 71.1073 1190.56 70.2531C1191.48 69.3314 1192 68.0821 1192 66.7796C1192 65.477 1191.48 64.2277 1190.56 63.306C1190.25 63.0077 1189.84 62.8426 1189.41 62.8463C1188.98 62.8501 1188.57 63.0223 1188.27 63.3259C1187.96 63.6296 1187.79 64.0403 1187.79 64.4697C1187.78 64.8991 1187.95 65.3128 1188.25 65.6217C1188.55 65.9306 1188.71 66.3443 1188.71 66.7737C1188.7 67.2031 1188.53 67.6138 1188.23 67.9175C1187.92 68.2211 1187.51 68.3933 1187.08 68.3971C1186.65 68.4008 1186.24 68.2357 1185.93 67.9374C1185.62 67.6391 1185.21 67.474 1184.78 67.4777C1184.35 67.4815 1183.94 67.6537 1183.64 67.9574C1183.33 68.261 1183.16 68.6718 1183.16 69.1012C1183.15 69.5306 1183.32 69.9442 1183.62 70.2531C1183.91 70.562 1184.08 70.9757 1184.08 71.4051C1184.07 71.8345 1183.9 72.2452 1183.6 72.5489C1183.29 72.8525 1182.88 73.0248 1182.45 73.0285C1182.02 73.0322 1181.61 72.8672 1181.3 72.5688C1180.99 72.2705 1180.58 72.1054 1180.15 72.1092C1179.72 72.1129 1179.31 72.2851 1179 72.5888C1178.7 72.8924 1178.53 73.3032 1178.52 73.7326C1178.52 74.162 1178.69 74.5757 1178.98 74.8845C1179.28 75.1934 1179.45 75.6071 1179.44 76.0365C1179.44 76.4659 1179.27 76.8767 1178.96 77.1803C1178.66 77.484 1178.25 77.6562 1177.82 77.6599C1177.39 77.6637 1176.98 77.4986 1176.67 77.2003C1176.36 76.9019 1175.95 76.7369 1175.52 76.7406C1175.09 76.7443 1174.68 76.9166 1174.37 77.2202C1174.07 77.5239 1173.9 77.9346 1173.89 78.364C1173.89 78.7934 1174.05 79.2071 1174.35 79.516C1175.27 80.4352 1176.52 80.9512 1177.82 80.9506ZM1113.19 100.407C1115.9 100.407 1118.11 98.2022 1118.11 95.4934C1118.11 92.7846 1115.9 90.5803 1113.19 90.5803C1110.49 90.5803 1108.28 92.7846 1108.28 95.4934C1108.28 98.2022 1110.49 100.407 1113.19 100.407ZM1113.19 93.8557C1114.1 93.8557 1114.83 94.5927 1114.83 95.4934C1114.83 96.3941 1114.1 97.1311 1113.19 97.1311C1112.29 97.1311 1111.56 96.3941 1111.56 95.4934C1111.56 94.5927 1112.29 93.8557 1113.19 93.8557ZM1181.98 57.8262C1184.69 57.8262 1186.89 55.6219 1186.89 52.9131C1186.89 50.2043 1184.69 48 1181.98 48C1179.27 48 1177.06 50.2043 1177.06 52.9131C1177.06 55.6219 1179.27 57.8262 1181.98 57.8262ZM1181.98 51.2754C1182.88 51.2754 1183.62 52.0124 1183.62 52.9131C1183.62 53.8138 1182.88 54.5508 1181.98 54.5508C1181.08 54.5508 1180.34 53.8138 1180.34 52.9131C1180.34 52.0124 1181.08 51.2754 1181.98 51.2754ZM1132.85 57.8262C1135.56 57.8262 1137.76 55.6219 1137.76 52.9131C1137.76 50.2043 1135.56 48 1132.85 48C1130.14 48 1127.93 50.2043 1127.93 52.9131C1127.93 55.6219 1130.14 57.8262 1132.85 57.8262ZM1132.85 51.2754C1133.75 51.2754 1134.48 52.0124 1134.48 52.9131C1134.48 53.8138 1133.75 54.5508 1132.85 54.5508C1131.95 54.5508 1131.21 53.8138 1131.21 52.9131C1131.21 52.0124 1131.95 51.2754 1132.85 51.2754ZM1152.5 129.885C1149.79 129.885 1147.59 132.09 1147.59 134.798C1147.59 137.507 1149.79 139.711 1152.5 139.711C1155.21 139.711 1157.41 137.507 1157.41 134.798C1157.41 132.09 1155.21 129.885 1152.5 129.885ZM1152.5 136.436C1151.6 136.436 1150.86 135.699 1150.86 134.798C1150.86 133.898 1151.6 133.161 1152.5 133.161C1153.4 133.161 1154.14 133.898 1154.14 134.798C1154.14 135.699 1153.4 136.436 1152.5 136.436Z" fill="#275431"/>
</svg>
