<svg width="366" height="269" viewBox="0 0 366 269" fill="none" xmlns="http://www.w3.org/2000/svg">
<g clip-path="url(#clip0_229_483)">
<path d="M43.0858 257.211C42.771 257.225 42.4594 257.142 42.1932 256.974C41.927 256.805 41.719 256.559 41.5974 256.268C41.4759 255.977 41.4466 255.656 41.5136 255.348C41.5806 255.04 41.7407 254.76 41.972 254.546C42.0108 254.392 42.0386 254.281 42.0773 254.127C41.7761 253.362 41.2532 252.704 40.5757 252.238C39.8982 251.771 39.0969 251.518 38.2746 251.51C37.4522 251.503 36.6463 251.741 35.9601 252.194C35.2739 252.647 34.7387 253.295 34.4231 254.055C32.6019 258.32 30.2447 262.734 31.417 267.431C23.6738 251.015 26.3071 230.595 37.7504 216.556C40.9134 214.813 43.4772 211.716 44.1446 208.12C42.5792 208.651 40.6274 207.377 41.8044 205.728C42.3146 205.097 42.8297 204.472 43.3398 203.841C37.3933 197.506 30.3081 207.463 36.8535 216.013C34.7123 218.699 32.8577 221.601 31.3197 224.672C31.6749 221.411 31.251 218.112 30.0829 215.046C28.8991 212.19 26.6802 209.784 24.7262 207.314C22.3504 204.305 17.4607 205.693 17.141 209.512C19.3335 210.233 19.6184 213.401 17.1103 213.834C17.7673 220.939 22.4069 227.467 28.797 230.583C26.4372 237.206 25.5158 244.257 26.0941 251.265C24.9661 243.075 16.1777 241.087 10.0351 237.832C9.6441 237.581 9.18862 237.45 8.72419 237.454C8.25976 237.457 7.80645 237.596 7.41956 237.853C7.03267 238.11 6.72892 238.474 6.54537 238.901C6.36182 239.328 6.30641 239.799 6.38588 240.257C7.2337 240.602 8.04517 241.03 8.80836 241.535C9.16597 241.776 9.44046 242.121 9.59421 242.524C9.74796 242.926 9.77345 243.367 9.66717 243.784C9.5609 244.202 9.32806 244.577 9.00058 244.857C8.6731 245.137 8.26701 245.309 7.83797 245.349C10.9343 253.015 18.9395 258.163 27.1613 258.134C27.9514 261.569 29.0962 264.912 30.5772 268.11H42.78C42.8238 267.974 42.8631 267.834 42.9025 267.698C41.773 267.769 40.639 267.702 39.5259 267.497C42.5143 263.958 44.8254 262.152 43.0861 257.211L43.0858 257.211Z" fill="#9569AD"/>
<path d="M107.772 258.607H112.803L115.197 239.194L107.771 239.194L107.772 258.607Z" fill="#FFB6B6"/>
<path d="M114.477 259.061V255.648L113.155 255.729L107.77 256.048L106.524 256.125L105.572 267.553L105.521 268.165H109.093L109.208 267.557L109.727 264.791L111.067 267.557L111.36 268.165H120.832C121.395 268.162 121.935 267.936 122.333 267.537C122.731 267.138 122.956 266.598 122.958 266.034C123.358 264.166 115.481 260.128 114.477 259.061Z" fill="#2F2E41"/>
<path d="M48.8262 253.129L53.2022 255.613L64.8615 239.909L58.4024 236.244L48.8262 253.129Z" fill="#FFB6B6"/>
<path d="M54.4368 256.831L56.1168 253.866L54.9344 253.283L50.0902 250.905L48.9673 250.352L43.4511 258.431L42.1539 260.328L43.6212 261.162L45.2587 262.094L47.4788 259.473L47.2321 263.213L54.9684 267.608H54.9727L55.4703 267.889C55.9616 268.166 56.5431 268.238 57.0869 268.087C57.6307 267.936 58.0925 267.576 58.3709 267.085C59.6383 265.655 54.7813 258.261 54.4368 256.831Z" fill="#2F2E41"/>
<path d="M126.37 97.5982C125.727 97.6964 125.114 97.933 124.572 98.2917C124.03 98.6504 123.573 99.1225 123.231 99.6755C122.89 100.228 122.672 100.849 122.594 101.494C122.516 102.14 122.579 102.794 122.778 103.413L115.079 110.079L117.987 115.748L128.728 106.181C129.744 105.767 130.573 104.995 131.058 104.011C131.543 103.027 131.65 101.899 131.36 100.842C131.069 99.7836 130.4 98.8691 129.481 98.2714C128.561 97.6736 127.454 97.4341 126.37 97.5982Z" fill="#FFB6B6"/>
<path d="M118.263 115.5L115.371 109.829L115.073 109.246C111.977 110.335 105.895 113.892 103.122 115.708C102.105 114.292 96.453 108.127 91.5662 105.761C91.5662 105.757 91.5619 105.761 91.5619 105.761C91.2259 105.6 90.8942 105.455 90.5667 105.327C89.8098 105.023 89.0047 104.856 88.1892 104.834C87.8278 104.832 87.4681 104.883 87.1217 104.987C86.7576 105.094 86.417 105.268 86.118 105.502C85.3226 106.114 84.7187 107.182 84.3785 108.833C84.339 109.616 84.4413 110.401 84.6804 111.148C86.0414 115.662 91.4173 120.703 93.3184 123.954C93.5056 124.456 95.3727 129.399 98.3201 131.152C98.4752 131.247 98.6357 131.332 98.8006 131.408C98.9835 131.433 99.1664 131.454 99.3578 131.463H99.362C99.6607 131.484 99.9603 131.489 100.259 131.476C100.413 131.471 100.57 131.459 100.727 131.446C100.761 131.442 100.791 131.442 100.825 131.437C101.807 131.329 102.775 131.118 103.713 130.808C103.819 130.774 103.926 130.74 104.032 130.701C104.838 130.426 105.629 130.108 106.401 129.748C106.847 129.544 107.29 129.323 107.732 129.093C108.268 128.812 108.804 128.515 109.327 128.204C109.778 127.944 110.22 127.672 110.654 127.391V127.387C110.756 127.327 110.858 127.259 110.96 127.187H110.964C114.843 124.664 118.008 121.733 118.616 120.52C119.07 119.844 119.439 119.113 119.713 118.346L118.263 115.5Z" fill="#2F2E41"/>
<path d="M100.66 135.451C100.66 135.451 111.323 147.452 108.642 150.133C105.962 152.814 101.791 153.518 101.791 153.518L96.6924 153.125L100.66 135.451Z" fill="#2F2E41"/>
<path d="M87.5796 103.256C101.332 111.305 105.956 118.994 99.5963 134.468L87.5796 103.256Z" fill="#2F2E41"/>
<path d="M75.2505 167.603C74.1348 167.084 71.3634 208.965 71.1375 210.018L55.2457 239.645L77.8653 249.788L92.7381 198.128L95.2169 217.139L91.9119 247.308L106.533 250.845L116.646 250.122L109.622 164.237L96.2944 140.062L75.2505 167.603Z" fill="#2F2E41"/>
<path d="M86.3938 104.442C105.067 118.35 100.508 118.597 100.66 140.063L109.557 163.85C109.557 163.85 78.1897 176.003 74.9734 167.959C71.7572 159.916 86.3938 104.442 86.3938 104.442Z" fill="#501F6B"/>
<path d="M100.902 133.522C100.863 133.386 100.817 133.229 100.766 133.063V133.058C100.685 132.79 100.591 132.497 100.481 132.161C100.412 131.948 100.34 131.718 100.259 131.476C100.208 131.322 100.157 131.165 100.102 130.999C98.6049 126.477 95.5852 118.044 91.9191 108.722V108.718C91.4768 107.599 91.0259 106.469 90.5666 105.327C90.5241 105.225 90.4858 105.119 90.4433 105.017C90.2604 104.561 90.0733 104.102 89.8861 103.642L84.5145 98.269L81.6182 96.38L75.2386 102.273C75.2386 102.273 75.2428 102.375 75.2513 102.575C75.3406 104.391 75.7787 114.202 75.834 125.8C75.8468 128.723 75.8383 131.761 75.7872 134.811V134.892C75.7745 135.692 75.7872 136.313 75.8255 136.815C75.8439 137.172 75.8851 137.527 75.9488 137.879C76.187 139.189 76.6251 139.495 76.859 142.223C76.859 142.223 71.8404 148.694 74.7537 154.233C74.9845 154.268 75.2179 154.282 75.4512 154.276C76.4805 154.293 78.8792 154.229 85.4757 154.225C86.6198 154.216 87.8872 154.216 89.295 154.22C98.5199 154.22 93.548 148.881 98.4774 144.018C98.5837 143.912 98.69 143.81 98.8048 143.707C99.1545 143.391 99.5238 143.097 99.9106 142.827L100.736 140.266L100.999 139.444L101.004 139.338L101.029 138.202L101.084 135.939L101.123 134.433C101.075 134.123 101.001 133.819 100.902 133.522Z" fill="#2F2E41"/>
<path opacity="0.2" d="M77.9414 116.647L76.4762 125.794L86.3939 129.886L77.9414 116.647Z" fill="black"/>
<path d="M92.5893 76.4297C103.684 82.7453 94.5758 99.4089 83.2742 93.4751C72.1797 87.1598 81.288 70.4962 92.5893 76.4297Z" fill="#FFB6B6"/>
<path opacity="0.2" d="M71.6624 134.236C77.5455 141.171 87.571 142.173 95.1851 137.518L71.6624 134.236Z" fill="black"/>
<path d="M98.5219 79.9315C97.7446 80.9429 96.1204 80.4686 92.9397 81.1904C92.9467 80.1119 92.8221 79.0366 92.5688 77.9883C92.3322 79.2863 91.8136 80.5164 91.0496 81.5919C88.2877 81.8983 91.6734 90.2915 90.2593 96.4625C88.4373 83.4438 84.6051 86.8546 86.5411 89.4368C87.7805 91.0899 86.9542 96.0492 83.236 93.5695C77.1012 96.4862 68.3632 81.9978 78.0476 75.203C77.8745 71.5302 81.9598 70.95 84.4754 72.0792C90.5806 67.5297 97.5557 73.3592 98.5219 79.9315Z" fill="#2F2E41"/>
<path d="M104.788 127.341C107.941 127.278 124.879 126.792 127.657 126.912C127.814 126.361 133.079 133.112 133.207 133.153C133.293 133.244 133.355 133.353 133.389 133.472C133.423 133.592 133.427 133.718 133.402 133.839C133.377 133.961 133.322 134.074 133.244 134.17C133.165 134.266 133.064 134.342 132.95 134.39C132.641 134.579 105.334 134.073 105.003 134.139C104.86 134.137 104.721 134.094 104.601 134.016C104.481 133.938 104.385 133.827 104.325 133.697L104.143 133.289C104.124 132.589 103.895 129.014 104.101 128.402C104.05 128.288 104.029 128.162 104.039 128.037C104.049 127.912 104.09 127.792 104.158 127.686C104.226 127.581 104.319 127.495 104.429 127.434C104.539 127.374 104.662 127.342 104.788 127.341Z" fill="#3F3D56"/>
<path opacity="0.17" d="M104.143 133.288C104.303 133.673 104.508 134.157 105.003 134.139L132.662 134.45C132.793 134.448 132.921 134.413 133.034 134.348C133.148 134.283 133.242 134.189 133.309 134.077C133.376 133.964 133.413 133.836 133.416 133.706C133.419 133.575 133.389 133.445 133.328 133.33L104.143 133.288Z" fill="black"/>
<path d="M127.527 126.829C127.825 126.314 135.22 89.713 135.837 89.407L140.885 83.229L141.337 82.8895C141.964 82.5447 143.469 82.7779 143.334 83.7366C142.148 89.4249 134.519 121.822 134.352 126.873L133.433 133.308C133.417 133.418 133.378 133.522 133.319 133.616C133.259 133.709 133.181 133.789 133.089 133.851C132.997 133.912 132.893 133.953 132.784 133.972C132.674 133.991 132.563 133.986 132.455 133.959C132.192 133.931 131.941 133.834 131.726 133.679C131.512 133.524 131.341 133.315 131.232 133.074C131.163 132.847 127.182 126.961 127.527 126.829Z" fill="#3F3D56"/>
<path opacity="0.17" d="M140.887 83.2292L131.231 133.076C131.554 133.893 133.065 134.466 133.417 133.394C133.423 133.392 143.322 83.7673 143.333 83.7376C143.438 82.5433 141.465 82.5054 140.887 83.2292Z" fill="black"/>
<path d="M140.596 85.2676L135.692 92.1051L130.187 118.256L132.746 120.489L140.596 85.2676Z" fill="#501F6B"/>
<path d="M107.732 129.093C107.63 128.302 107.434 127.574 106.86 127.63C106.014 127.625 106.197 128.778 106.401 129.748C106.51 130.131 106.575 130.525 106.597 130.923L107.953 130.867C107.832 130.283 107.758 129.689 107.732 129.093Z" fill="#2F2E41"/>
<path d="M115.728 128.906C115.719 128.681 115.732 128.391 115.702 128.119C115.656 127.668 115.502 127.277 114.988 127.306C114.893 127.305 114.799 127.324 114.711 127.362C114.163 127.608 114.388 128.608 114.38 129.093L114.822 129.076L115.736 129.042C115.732 129 115.728 128.953 115.728 128.906Z" fill="#2F2E41"/>
<path d="M118.437 128.795C118.416 128.2 118.522 127.149 117.697 127.196C116.804 127.213 117.097 128.429 117.089 128.987L117.527 128.97L118.446 128.931C118.441 128.889 118.437 128.842 118.437 128.795Z" fill="#2F2E41"/>
<path d="M121.146 128.689C121.125 128.089 121.231 127.038 120.406 127.089C119.513 127.106 119.807 128.323 119.798 128.876L120.24 128.859L121.155 128.825C121.151 128.782 121.146 128.736 121.146 128.689Z" fill="#2F2E41"/>
<path d="M123.856 128.578C123.834 127.983 123.941 126.932 123.115 126.979C122.222 127 122.516 128.212 122.507 128.77L122.945 128.753L123.864 128.715C123.86 128.672 123.856 128.625 123.856 128.578Z" fill="#2F2E41"/>
<path d="M126.565 128.472C126.548 127.936 126.629 127.042 126.059 126.894H126.054C125.98 126.873 125.902 126.865 125.825 126.872C125.761 126.871 125.698 126.88 125.638 126.898H125.633C124.978 127.081 125.225 128.149 125.216 128.659L125.659 128.642L126.573 128.608C126.569 128.566 126.565 128.519 126.565 128.472Z" fill="#2F2E41"/>
<path d="M110.654 127.391V127.387C110.647 127.324 110.636 127.261 110.62 127.2C110.552 126.838 110.377 126.557 109.939 126.583C109.51 126.591 109.357 126.872 109.31 127.23C109.288 127.554 109.293 127.88 109.327 128.204C109.331 128.268 109.331 128.323 109.331 128.374L110.688 128.319C110.667 128.081 110.688 127.723 110.654 127.391Z" fill="#2F2E41"/>
<path d="M113.342 127.132C113.274 126.753 113.099 126.447 112.649 126.477C112.202 126.485 112.053 126.791 112.015 127.166C112.003 127.532 112.012 127.898 112.04 128.264L113.397 128.208C113.372 127.936 113.406 127.498 113.342 127.132Z" fill="#2F2E41"/>
<path d="M116.055 127.068C115.996 126.668 115.83 126.34 115.358 126.366C114.894 126.375 114.754 126.702 114.72 127.098C114.711 127.185 114.708 127.274 114.711 127.362C114.716 127.655 114.754 127.953 114.75 128.157L115.702 128.119L116.106 128.102C116.081 127.838 116.115 127.425 116.055 127.068Z" fill="#2F2E41"/>
<path d="M109.914 129.025C109.021 129.042 109.31 130.259 109.306 130.812L110.662 130.761C110.611 130.204 110.807 128.97 109.914 129.025Z" fill="#2F2E41"/>
<path d="M112.623 128.914C111.73 128.931 112.019 130.148 112.015 130.706L113.372 130.65C113.321 130.097 113.516 128.863 112.623 128.914Z" fill="#2F2E41"/>
<path d="M115.728 128.906C115.612 128.828 115.472 128.793 115.332 128.808C115.231 128.802 115.13 128.824 115.04 128.872C114.95 128.919 114.875 128.989 114.822 129.076C114.579 129.468 114.728 130.199 114.724 130.595L116.081 130.544C116.038 130.093 116.162 129.191 115.728 128.906Z" fill="#2F2E41"/>
<path d="M118.437 128.795C118.321 128.717 118.181 128.682 118.042 128.698C117.939 128.692 117.837 128.714 117.746 128.762C117.656 128.81 117.58 128.882 117.527 128.97C117.293 129.365 117.438 130.093 117.433 130.489L118.79 130.433C118.748 129.987 118.871 129.089 118.437 128.795Z" fill="#2F2E41"/>
<path d="M121.146 128.689C121.03 128.611 120.89 128.576 120.751 128.591C120.649 128.585 120.548 128.607 120.459 128.655C120.369 128.702 120.293 128.772 120.24 128.859C119.998 129.251 120.147 129.982 120.143 130.378L121.499 130.327C121.457 129.876 121.58 128.974 121.146 128.689Z" fill="#2F2E41"/>
<path d="M123.855 128.578C123.739 128.5 123.599 128.465 123.46 128.48C123.357 128.474 123.255 128.496 123.164 128.544C123.074 128.592 122.998 128.664 122.945 128.753C122.711 129.148 122.856 129.876 122.852 130.272L124.208 130.216C124.166 129.77 124.289 128.872 123.855 128.578Z" fill="#2F2E41"/>
<path d="M126.565 128.472C126.448 128.394 126.308 128.359 126.169 128.374C126.068 128.368 125.967 128.39 125.877 128.437C125.787 128.484 125.711 128.555 125.659 128.642C125.421 129.038 125.565 129.765 125.561 130.161L126.918 130.11C126.875 129.659 126.999 128.761 126.565 128.472Z" fill="#2F2E41"/>
<path d="M70.0552 70.4319C67.5851 85.6242 54.3455 67.6379 48.1203 82.5886C46.163 88.003 49.5212 91.8761 51.6454 96.3702C52.1302 100.064 47.3271 101.937 46.824 105.337C46.684 113.131 59.2542 112.654 62.7683 107.737C66.379 102.589 62.0673 95.6827 64.2376 90.1573C67.288 82.4862 79.6932 82.4292 80.7739 73.5044C78.6809 70.5229 73.0529 67.1081 70.0552 70.4319Z" fill="#2F2E41"/>
<path d="M186.994 268.275C186.668 269.242 0.352091 269.241 0 268.277C0.325921 267.308 186.642 267.308 186.994 268.275Z" fill="#CCCCCC"/>
<path d="M80.0615 71.9165C79.9807 71.9505 79.8999 71.9845 79.8276 72.0228H79.8234C79.7553 72.0569 79.6873 72.0909 79.6192 72.1292C79.6107 72.1334 79.6065 72.1377 79.598 72.142C79.5086 72.0569 79.4193 71.9718 79.3258 71.8867C79.3016 72.0253 79.3074 72.1675 79.3428 72.3036L79.3555 72.3547C79.4406 72.444 79.5299 72.5291 79.6235 72.6185C79.7085 72.5547 79.7893 72.4866 79.8744 72.4228C79.9255 72.3802 79.9765 72.3377 80.0318 72.2951C80.0403 72.1845 80.053 72.0569 80.0658 71.9165H80.0615ZM82.6219 67.1854C80.725 66.7515 80.1126 69.2319 79.9297 70.4274C79.2407 66.0878 76.3741 67.4535 77.3651 70.4146C77.681 71.2913 78.178 72.0915 78.8239 72.7631C78.9132 72.8652 79.011 72.9673 79.1131 73.0694C78.9983 73.6651 79.5767 73.5119 80.3592 72.9631C80.9371 72.552 81.4715 72.083 81.9541 71.5633C83.515 69.9253 84.7314 67.7343 82.6219 67.1854ZM82.6814 69.6275C82.0962 70.3824 81.4396 71.0791 80.7208 71.708C80.4953 71.9122 80.2657 72.1079 80.0318 72.2951C80.0275 72.3334 80.0275 72.3674 80.0233 72.3972C80.0068 72.4386 79.9869 72.4784 79.9637 72.5164C79.7255 72.9461 79.4576 72.7121 79.3555 72.3547C79.347 72.3419 79.3343 72.3292 79.3258 72.3164C78.9859 71.9652 78.6902 71.5737 78.4454 71.1507C76.6888 68.1044 79.5171 66.0324 79.3768 71.7208C79.3509 71.7729 79.3337 71.829 79.3258 71.8867C79.3016 72.0253 79.3074 72.1675 79.3428 72.3036L79.3555 72.3547C79.4406 72.444 79.5299 72.5291 79.6235 72.6185C79.7085 72.5547 79.7893 72.4866 79.8744 72.4228C79.9255 72.3802 79.9765 72.3377 80.0318 72.2951C80.0403 72.1845 80.053 72.0569 80.0658 71.9165V71.9122C80.1764 70.772 80.4784 68.7213 81.0355 68.164C82.2604 67.2237 83.8468 68.2406 82.6814 69.6275ZM80.0615 71.9165C79.9807 71.9505 79.8999 71.9845 79.8276 72.0228H79.8234C79.7553 72.0569 79.6873 72.0909 79.6192 72.1292C79.6107 72.1334 79.6065 72.1377 79.598 72.142C79.5086 72.0569 79.4193 71.9718 79.3258 71.8867C79.3016 72.0253 79.3074 72.1675 79.3428 72.3036L79.3555 72.3547C79.4406 72.444 79.5299 72.5291 79.6235 72.6185C79.7085 72.5547 79.7893 72.4866 79.8744 72.4228C79.9255 72.3802 79.9765 72.3377 80.0318 72.2951C80.0403 72.1845 80.053 72.0569 80.0658 71.9165H80.0615Z" fill="#2F2E41"/>
<path d="M144.202 108.546C143.582 108.546 142.987 108.793 142.548 109.231C142.11 109.67 141.863 110.265 141.863 110.886V133.523H96.9932C96.3729 133.523 95.7779 133.769 95.3392 134.208C94.9005 134.647 94.6541 135.242 94.6541 135.863C94.6541 136.483 94.9005 137.079 95.3392 137.517C95.7779 137.956 96.3729 138.203 96.9932 138.203H141.863V268.391H146.542V110.886C146.542 110.265 146.295 109.67 145.856 109.231C145.418 108.793 144.823 108.546 144.202 108.546Z" fill="#CFCFCF"/>
<path d="M105.45 132C105.014 131.518 104.479 131.136 103.881 130.881C103.283 130.627 102.637 130.505 101.988 130.525C101.338 130.544 100.701 130.705 100.119 130.995C99.5378 131.285 99.0264 131.698 98.6203 132.206L88.8166 129.453L85.691 135.004L99.5904 138.698C100.495 139.318 101.596 139.585 102.684 139.447C103.772 139.31 104.772 138.778 105.494 137.952C106.217 137.127 106.611 136.065 106.603 134.968C106.595 133.87 106.184 132.814 105.45 132Z" fill="#FFB6B6"/>
<path d="M83.5789 125.477C82.8686 125.107 82.1584 124.745 81.4651 124.409C79.9595 123.664 78.5603 123.013 77.531 122.571C78.0367 121.037 78.4374 119.471 78.7304 117.882C79.9383 111.79 80.7591 102.294 75.2514 102.575C74.4543 102.632 73.6724 102.822 72.9377 103.136C68.6464 105.523 67.1748 115.015 65.2524 118.933C64.9164 119.389 61.5054 124.12 62.0541 127.621C63.6107 131.025 68.5613 133.935 73.2014 135.828L73.2057 135.832C74.0988 136.198 74.9835 136.526 75.8256 136.815C76.7868 137.143 77.7012 137.415 78.522 137.628C80.1594 138.053 81.4396 138.245 82.0563 138.16C82.8714 138.165 83.6842 138.071 84.4763 137.879L85.4503 136.16L86.0499 135.096L89.1844 129.557L89.5077 128.987C87.6203 127.673 85.6387 126.499 83.5789 125.477Z" fill="#2F2E41"/>
<path d="M296.79 155.127C287.067 159.096 276.077 162.121 263.709 163.985C255.67 165.174 247.565 165.862 239.441 166.044C232.33 166.222 224.842 166.062 216.976 165.563V9.80884C216.978 9.02875 217.288 8.281 217.84 7.7298C218.392 7.17859 219.14 6.86898 219.92 6.86896L221.093 6.87321L225.802 6.88597H225.882L352.275 7.20081H352.849L357.417 7.21357C358.072 9.32382 358.682 11.4979 359.246 13.7358C370.627 58.9572 362.223 128.412 296.79 155.127Z" fill="#FEFEFE"/>
<path d="M245.169 72.42C245.244 77.5731 237.153 77.5731 237.229 72.4196C237.153 67.2669 245.245 67.2669 245.169 72.42Z" fill="#501F6B"/>
<path d="M315.048 78.8514H238.412C238.099 78.8514 237.799 78.9758 237.577 79.1972C237.356 79.4186 237.232 79.7189 237.232 80.032C237.232 80.3452 237.356 80.6454 237.577 80.8669C237.799 81.0883 238.099 81.2127 238.412 81.2127H315.048C316.6 81.2382 316.562 78.8259 315.048 78.8514Z" fill="#CCCCCC"/>
<path d="M287.803 83.5228H238.412C238.098 83.5228 237.798 83.6475 237.576 83.8693C237.354 84.0911 237.23 84.3919 237.23 84.7056C237.23 85.0193 237.354 85.3201 237.576 85.5419C237.798 85.7637 238.098 85.8884 238.412 85.8884H287.803C289.347 85.9096 289.321 83.5016 287.803 83.5228Z" fill="#CCCCCC"/>
<path d="M315.048 43.7515H238.412C238.098 43.7515 237.798 43.8761 237.576 44.0979C237.354 44.3197 237.23 44.6206 237.23 44.9342C237.23 45.2479 237.354 45.5488 237.576 45.7706C237.798 45.9924 238.098 46.117 238.412 46.117H315.048C316.6 46.1383 316.562 43.7302 315.048 43.7515Z" fill="#CCCCCC"/>
<path d="M287.803 48.4272H238.412C238.098 48.4272 237.798 48.5518 237.576 48.7736C237.354 48.9954 237.23 49.2963 237.23 49.61C237.23 49.9236 237.354 50.2245 237.576 50.4463C237.798 50.6681 238.098 50.7927 238.412 50.7927H287.803C289.347 50.814 289.321 48.4059 287.803 48.4272Z" fill="#CCCCCC"/>
<path d="M287.803 53.3242H238.412C238.098 53.3242 237.798 53.4488 237.576 53.6706C237.354 53.8924 237.23 54.1932 237.23 54.5069C237.23 54.8206 237.354 55.1215 237.576 55.3433C237.798 55.5651 238.098 55.6897 238.412 55.6897H287.803C289.347 55.711 289.321 53.3029 287.803 53.3242Z" fill="#CCCCCC"/>
<path d="M245.169 103.027C245.244 108.18 237.153 108.18 237.229 103.027C237.153 97.8738 245.245 97.8738 245.169 103.027Z" fill="#501F6B"/>
<path d="M315.048 109.454H238.412C238.098 109.454 237.798 109.579 237.576 109.801C237.354 110.022 237.23 110.323 237.23 110.637C237.23 110.951 237.354 111.252 237.576 111.473C237.798 111.695 238.098 111.82 238.412 111.82H315.048C316.6 111.841 316.562 109.433 315.048 109.454Z" fill="#CCCCCC"/>
<path d="M287.803 114.13H238.412C238.098 114.13 237.798 114.255 237.576 114.476C237.354 114.698 237.23 114.999 237.23 115.313C237.23 115.626 237.354 115.927 237.576 116.149C237.798 116.371 238.098 116.495 238.412 116.495H287.803C289.347 116.517 289.321 114.109 287.803 114.13Z" fill="#CCCCCC"/>
<path d="M243.907 37.3542C243.982 42.4688 235.95 42.4688 236.026 37.3538C235.951 32.2396 243.982 32.2396 243.907 37.3542Z" fill="#501F6B"/>
<path d="M354.289 7.77256C353.679 7.16054 220.545 8.94972 220.697 7.15359C220.042 6.47627 357.939 4.92703 354.289 7.77256Z" fill="#CACACA"/>
<path d="M214.228 13.7397C218.021 13.7397 221.095 10.664 221.095 6.86987C221.095 3.07575 218.021 0 214.228 0C210.435 0 207.36 3.07575 207.36 6.86987C207.36 10.664 210.435 13.7397 214.228 13.7397Z" fill="#CACACA"/>
<path d="M359.132 13.7397C362.925 13.7397 366 10.664 366 6.86987C366 3.07575 362.925 0 359.132 0C355.34 0 352.265 3.07575 352.265 6.86987C352.265 10.664 355.34 13.7397 359.132 13.7397Z" fill="#CACACA"/>
<path d="M296.79 155.127C287.067 159.096 276.077 162.121 263.709 163.985C255.67 165.174 247.565 165.862 239.441 166.044C232.126 165.959 224.638 165.798 216.976 165.563V160.134C227.29 151.476 271.48 150.093 296.79 155.127Z" fill="#CACACA"/>
</g>
<defs>
<clipPath id="clip0_229_483">
<rect width="366" height="269" fill="white"/>
</clipPath>
</defs>
</svg>
