<svg width="1440" height="1210" viewBox="0 0 1440 1210" fill="none" xmlns="http://www.w3.org/2000/svg">
<g clip-path="url(#clip0_232_1280)">
<rect width="1440" height="1210" fill="#EDF6EF"/>
<path fill-rule="evenodd" clip-rule="evenodd" d="M300.345 680.221C297.77 680.402 295.287 680.618 292.897 680.866C290.479 681.155 288.14 681.44 285.881 681.72C283.623 681.999 281.43 682.295 279.303 682.606C277.124 682.882 274.998 683.135 272.926 683.366C270.853 683.597 268.822 683.768 266.832 683.879C264.814 684.029 262.825 684.082 260.865 684.037C258.904 683.992 256.959 683.869 255.028 683.668C253.124 683.427 251.209 683.09 249.283 682.657C247.305 682.189 245.355 681.623 243.434 680.958C241.46 680.259 239.476 679.463 237.479 678.571C235.483 677.68 233.462 676.713 231.416 675.67C229.395 674.703 227.323 673.642 225.2 672.488C223.077 671.333 220.901 670.143 218.673 668.918C216.446 667.692 214.178 666.469 211.871 665.248C209.511 663.991 207.098 662.756 204.631 661.544C202.14 660.256 199.607 659.028 197.033 657.86C194.408 656.657 191.715 655.496 188.955 654.377C186.142 653.222 183.316 652.088 180.476 650.973C177.584 649.823 174.679 648.693 171.759 647.583C168.84 646.473 165.882 645.308 162.886 644.086C159.941 642.9 157.024 641.675 154.135 640.409C151.193 639.107 148.292 637.746 145.432 636.324C142.572 634.902 139.767 633.4 137.016 631.818C134.213 630.2 131.505 628.5 128.891 626.718C126.277 624.935 123.785 623.03 121.415 621.003C118.992 618.94 116.69 616.812 114.509 614.62C112.355 612.388 110.335 610.071 108.45 607.669C106.537 605.308 104.811 602.898 103.271 600.439C101.704 598.019 100.323 595.551 99.1293 593.034C97.9604 590.593 96.9904 588.141 96.2194 585.677C95.4485 583.214 94.9152 580.795 94.6195 578.421C94.3238 576.046 94.292 573.735 94.5239 571.485C94.7557 569.236 95.2377 567.069 95.9698 564.985C96.7542 562.936 97.775 560.99 99.0323 559.146C100.317 557.262 101.786 555.445 103.439 553.695C105.144 551.981 106.967 550.318 108.909 548.706C110.93 547.09 113.03 545.527 115.208 544.017C117.413 542.468 119.645 540.936 121.903 539.423C124.213 537.944 126.509 536.486 128.792 535.048C131.102 533.57 133.359 532.056 135.565 530.507C137.743 528.998 139.855 527.473 141.901 525.932C143.895 524.356 145.757 522.748 147.488 521.11C149.297 519.467 151.001 517.81 152.6 516.14C154.171 514.51 155.702 512.883 157.193 511.257C158.632 509.596 160.056 508.013 161.466 506.508C162.85 504.927 164.233 503.404 165.615 501.939C166.97 500.514 168.349 499.165 169.754 497.892C171.159 496.618 172.614 495.438 174.121 494.352C175.628 493.265 177.198 492.31 178.832 491.487C180.466 490.663 182.215 490.007 184.081 489.517C185.894 488.992 187.824 488.576 189.872 488.27C191.892 488.003 194.003 487.828 196.204 487.744C198.406 487.66 200.699 487.667 203.082 487.766C205.441 487.789 207.904 487.883 210.472 488.049C212.96 488.219 215.528 488.384 218.175 488.545C220.795 488.747 223.508 488.923 226.315 489.076C229.042 489.232 231.822 489.367 234.656 489.479C237.517 489.551 240.445 489.581 243.441 489.569C246.357 489.561 249.313 489.492 252.311 489.364C255.309 489.236 258.361 489.085 261.465 488.913C264.491 488.744 267.542 488.594 270.619 488.461C273.697 488.328 276.773 488.253 279.848 488.237C282.951 488.18 286.024 488.221 289.07 488.36C292.115 488.499 295.132 488.736 298.12 489.071C301.109 489.405 304.081 489.876 307.037 490.483C309.966 491.13 312.851 491.952 315.694 492.951C318.563 493.91 321.362 495.084 324.09 496.475C326.793 497.789 329.439 499.3 332.028 501.007C334.617 502.714 337.11 504.561 339.508 506.548C341.933 508.495 344.222 510.585 346.376 512.817C348.61 515.045 350.709 517.358 352.674 519.755C354.639 522.152 356.51 524.631 358.286 527.193C359.983 529.759 361.546 532.352 362.977 534.971C364.38 537.631 365.65 540.317 366.786 543.03C367.923 545.743 368.875 548.447 369.641 551.142C370.487 553.833 371.16 556.553 371.66 559.301C372.187 562.009 372.569 564.707 372.805 567.393C373.066 570.154 373.262 572.901 373.391 575.631C373.52 578.362 373.57 581.097 373.54 583.836C373.51 586.575 373.454 589.297 373.372 592.001C373.314 594.78 373.231 597.542 373.121 600.286C373.064 603.065 373.021 605.824 372.991 608.564C372.933 611.343 372.93 614.1 372.979 616.835C373.081 619.606 373.183 622.377 373.285 625.147C373.414 627.878 373.557 630.588 373.714 633.279C373.871 635.969 374.002 638.584 374.109 641.123C374.136 643.666 374.125 646.154 374.075 648.586C374 650.942 373.82 653.227 373.536 655.441C373.279 657.615 372.865 659.681 372.295 661.641C371.752 663.561 371.013 665.318 370.079 666.912C369.17 668.582 368.053 670.052 366.728 671.321C365.403 672.59 363.83 673.661 362.01 674.533C360.242 675.441 358.291 676.225 356.157 676.883C353.998 677.466 351.708 677.96 349.287 678.364C346.842 678.693 344.292 678.951 341.638 679.137C338.983 679.323 336.276 679.474 333.517 679.589C330.733 679.628 327.923 679.65 325.087 679.653C322.223 679.697 319.374 679.721 316.537 679.724C313.701 679.728 310.957 679.765 308.305 679.835C305.573 679.91 302.92 680.039 300.345 680.221Z" fill="#C4E0CA"/>
<path d="M-10 304.615C83.5687 290.568 148.42 311.16 109.943 392.233C74.35 456.454 42.3976 495.904 87.4483 533.633C154.57 554.263 165.562 495.456 199.248 578.25C219.678 621.388 239.336 631.868 291.379 633.28" stroke="#5D7F65" stroke-opacity="0.15" stroke-width="4" stroke-linecap="round" stroke-dasharray="8 8"/>
<path fill-rule="evenodd" clip-rule="evenodd" d="M27.1182 386.766C23.0304 384.864 18.9605 383.047 14.9083 381.316C10.8384 379.5 6.82918 377.804 2.88074 376.229C-1.08555 374.568 -4.93201 372.972 -8.65867 371.44C-12.3174 369.893 -15.8652 368.367 -19.3022 366.863C-22.7391 365.359 -25.9382 363.805 -28.8993 362.201C-31.9106 360.696 -34.693 359.099 -37.2463 357.41C-39.7139 355.792 -41.9185 354.074 -43.8601 352.256C-45.7839 350.524 -47.3768 348.678 -48.6388 346.718C-49.9008 344.758 -50.7639 342.67 -51.2281 340.454C-51.6924 338.238 -51.7667 335.851 -51.451 333.294C-51.1174 330.822 -50.419 328.229 -49.3557 325.515C-48.3103 322.716 -47.0019 319.817 -45.4305 316.819C-43.877 313.735 -42.1626 310.574 -40.2871 307.334C-38.3437 304.079 -36.3161 300.719 -34.2045 297.251C-32.1107 293.699 -29.9919 290.096 -27.848 286.444C-25.722 282.707 -23.6478 278.891 -21.6254 274.998C-19.6889 271.033 -17.8722 267.005 -16.1753 262.913C-14.5463 258.835 -13.1052 254.707 -11.8517 250.53C-10.6842 246.281 -9.85814 241.927 -9.37368 237.466C-8.80341 233.076 -8.63374 228.636 -8.86467 224.147C-9.09561 219.658 -9.65917 215.105 -10.5554 210.488C-11.4516 205.871 -12.5696 201.212 -13.9093 196.511C-15.2991 191.908 -16.8338 187.292 -18.5134 182.661C-20.1929 178.031 -21.9404 173.415 -23.7559 168.813C-25.5714 164.211 -27.3691 159.694 -29.1489 155.262C-31.0145 150.76 -32.7173 146.356 -34.2575 142.053C-35.8835 137.678 -37.3039 133.438 -38.5186 129.333C-39.8191 125.157 -40.8032 121.137 -41.4707 117.273C-42.1561 113.324 -42.5161 109.573 -42.5506 106.022C-42.535 102.371 -42.1261 98.9041 -41.3237 95.6221C-40.4533 92.3257 -39.2235 89.221 -37.6343 86.308C-35.9772 83.3806 -34.0124 80.5668 -31.7401 77.8665C-29.4499 75.2515 -26.8432 72.7925 -23.9201 70.4897C-20.9969 68.1868 -17.8251 66.0544 -14.4048 64.0923C-11.0024 62.0449 -7.37652 60.2177 -3.52713 58.6105C0.304409 56.9181 4.30758 55.3677 8.4824 53.9593C12.5893 52.5651 16.8427 51.3627 21.2427 50.352C25.6249 49.256 30.1108 48.3162 34.7003 47.5327C39.2219 46.7634 43.7791 46.1646 48.3721 45.7362C52.9473 45.2226 57.5241 44.8866 62.1027 44.7282C66.6634 44.4845 71.2259 44.4184 75.7901 44.5299C80.2863 44.6556 84.7413 44.9235 89.1551 45.3334C93.5511 45.658 97.9149 46.1674 102.246 46.8615C106.56 47.4703 110.832 48.2212 115.064 49.1142C119.227 50.0215 123.349 51.0708 127.43 52.2622C131.443 53.4679 135.372 54.7801 139.216 56.1989C143.129 57.6035 146.933 59.1644 150.627 60.8817C154.236 62.5279 157.803 64.3163 161.329 66.2467C164.77 68.1061 168.067 70.129 171.221 72.3153C174.443 74.4873 177.547 76.7731 180.533 79.1726C183.501 81.4868 186.326 83.9645 189.008 86.6057C191.672 89.1616 194.252 91.8241 196.748 94.5931C199.158 97.2912 201.449 100.103 203.623 103.029C205.797 105.954 207.878 108.944 209.865 111.997C211.767 114.979 213.576 118.026 215.292 121.136C217.008 124.247 218.588 127.386 220.032 130.553C221.476 133.72 222.818 136.909 224.058 140.119C225.298 143.329 226.402 146.568 227.37 149.835C228.389 153.002 229.271 156.198 230.018 159.423C230.832 162.633 231.502 165.829 232.026 169.011C232.601 172.094 233.04 175.205 233.343 178.344C233.696 181.384 233.913 184.453 233.994 187.55C234.126 190.547 234.103 193.488 233.927 196.372C233.836 199.327 233.626 202.218 233.296 205.045C232.966 207.873 232.507 210.593 231.92 213.208C231.35 215.907 230.694 218.536 229.953 221.093C229.144 223.665 228.249 226.166 227.268 228.595C226.269 230.94 225.15 233.221 223.912 235.437C222.691 237.74 221.333 239.892 219.837 241.896C218.427 243.971 216.888 245.939 215.221 247.801C213.553 249.663 211.8 251.454 209.961 253.174C208.122 254.894 206.206 256.585 204.213 258.248C202.288 259.897 200.304 261.603 198.261 263.365C196.2 265.043 194.148 266.763 192.105 268.525C190.011 270.387 187.961 272.285 185.954 274.218C183.879 276.165 181.864 278.233 179.91 280.422C177.974 282.696 176.065 285.098 174.183 287.627C172.368 290.143 170.633 292.864 168.975 295.791C167.318 298.719 165.774 301.845 164.342 305.17C162.86 308.594 161.533 312.253 160.362 316.146C159.191 320.039 158.09 324.096 157.058 328.316C156.112 332.606 155.227 337.018 154.403 341.55C153.493 346.011 152.668 350.544 151.93 355.147C151.191 359.75 150.419 364.361 149.613 368.978C148.856 373.496 148.082 377.929 147.29 382.276C146.498 386.624 145.636 390.808 144.705 394.829C143.756 398.765 142.728 402.494 141.621 406.018C140.497 409.457 139.242 412.611 137.857 415.481C136.454 418.266 134.936 420.675 133.304 422.707C131.604 424.754 129.705 426.353 127.604 427.505C125.572 428.642 123.34 429.332 120.908 429.575C118.493 429.903 115.93 429.862 113.219 429.451C110.508 429.04 107.657 428.303 104.667 427.239C101.627 426.274 98.4565 425.025 95.1555 423.493C91.9403 422.031 88.5786 420.377 85.0702 418.532C81.544 416.602 77.9659 414.593 74.336 412.507C70.6382 410.434 66.8885 408.284 63.0869 406.055C59.2174 403.841 55.305 401.591 51.3496 399.306C47.4122 397.105 43.4156 394.962 39.3601 392.876C35.2867 390.704 31.2061 388.667 27.1182 386.766Z" fill="#7F5396" fill-opacity="0.28"/>
<path fill-rule="evenodd" clip-rule="evenodd" d="M1521.7 228.014C1519.77 229.548 1517.5 230.848 1514.9 231.914C1512.3 232.981 1509.47 233.814 1506.4 234.414C1503.27 235.014 1499.9 235.481 1496.3 235.814C1492.77 236.081 1489.03 236.214 1485.1 236.214C1481.23 236.214 1477.2 236.181 1473 236.114C1468.87 235.981 1464.63 235.814 1460.3 235.614C1455.97 235.414 1451.63 235.248 1447.3 235.114C1442.9 234.914 1438.53 234.814 1434.2 234.814C1429.93 234.748 1425.7 234.814 1421.5 235.014C1417.3 235.214 1413.23 235.548 1409.3 236.014C1405.37 236.481 1401.53 237.081 1397.8 237.814C1394.07 238.481 1390.43 239.248 1386.9 240.114C1383.37 240.981 1379.97 241.914 1376.7 242.914C1373.37 243.848 1370.1 244.781 1366.9 245.714C1363.77 246.648 1360.7 247.581 1357.7 248.514C1354.7 249.381 1351.8 250.181 1349 250.914C1346.13 251.648 1343.33 252.281 1340.6 252.814C1337.87 253.281 1335.2 253.614 1332.6 253.814C1329.93 254.014 1327.33 254.048 1324.8 253.914C1322.27 253.714 1319.8 253.314 1317.4 252.714C1314.93 252.114 1312.5 251.314 1310.1 250.314C1307.77 249.314 1305.5 248.114 1303.3 246.714C1301.03 245.314 1298.83 243.748 1296.7 242.014C1294.63 240.281 1292.6 238.414 1290.6 236.414C1288.67 234.414 1286.8 232.314 1285 230.114C1283.27 227.848 1281.6 225.481 1280 223.014C1278.4 220.614 1276.93 218.114 1275.6 215.514C1274.27 212.914 1273.03 210.248 1271.9 207.514C1270.77 204.781 1269.77 202.014 1268.9 199.214C1268.03 196.414 1267.3 193.614 1266.7 190.814C1266.1 187.948 1265.6 185.081 1265.2 182.214C1264.8 179.348 1264.5 176.448 1264.3 173.514C1264.03 170.581 1263.83 167.614 1263.7 164.614C1263.63 161.614 1263.53 158.581 1263.4 155.514C1263.33 152.448 1263.27 149.348 1263.2 146.214C1263.07 143.081 1262.93 139.881 1262.8 136.614C1262.6 133.348 1262.33 130.048 1262 126.714C1261.73 123.314 1261.33 119.881 1260.8 116.414C1260.27 112.948 1259.63 109.414 1258.9 105.814C1258.17 102.214 1257.27 98.5476 1256.2 94.8143C1255.13 91.0809 1253.97 87.281 1252.7 83.4143C1251.5 79.6143 1250.2 75.7476 1248.8 71.8143C1247.4 67.9476 1246 64.081 1244.6 60.2143C1243.13 56.281 1241.73 52.381 1240.4 48.5143C1239.07 44.6476 1237.8 40.8143 1236.6 37.0143C1235.4 33.2143 1234.33 29.4809 1233.4 25.8143C1232.47 22.1476 1231.7 18.5476 1231.1 15.0143C1230.57 11.481 1230.23 8.04762 1230.1 4.71429C1229.9 1.44762 1230 -1.75238 1230.4 -4.88572C1230.8 -7.95238 1231.5 -10.8857 1232.5 -13.6857C1233.5 -16.419 1234.8 -19.0524 1236.4 -21.5857C1237.93 -24.0524 1239.7 -26.3524 1241.7 -28.4857C1243.77 -30.619 1246 -32.5857 1248.4 -34.3857C1250.87 -36.119 1253.47 -37.6857 1256.2 -39.0857C1258.93 -40.4857 1261.8 -41.6857 1264.8 -42.6857C1267.8 -43.6857 1270.9 -44.4524 1274.1 -44.9857C1277.23 -45.519 1280.43 -45.8524 1283.7 -45.9857C1286.97 -46.0524 1290.23 -45.8857 1293.5 -45.4857C1296.77 -45.0857 1300 -44.4524 1303.2 -43.5857C1306.33 -42.719 1309.47 -41.5524 1312.6 -40.0857C1315.67 -38.6857 1318.67 -37.0857 1321.6 -35.2857C1324.53 -33.419 1327.43 -31.419 1330.3 -29.2857C1333.17 -27.1524 1336 -24.8857 1338.8 -22.4857C1341.6 -20.0857 1344.4 -17.6524 1347.2 -15.1857C1350 -12.719 1352.77 -10.2524 1355.5 -7.78571C1358.3 -5.25238 1361.1 -2.78572 1363.9 -0.385715C1366.7 1.94762 1369.53 4.21429 1372.4 6.41429C1375.27 8.61429 1378.17 10.6476 1381.1 12.5143C1384.03 14.381 1387 16.0476 1390 17.5143C1393.07 18.9809 1396.2 20.2143 1399.4 21.2143C1402.53 22.2143 1405.73 22.9809 1409 23.5143C1412.27 24.1143 1415.53 24.5143 1418.8 24.7143C1422.07 24.981 1425.33 25.1143 1428.6 25.1143C1431.87 25.181 1435.1 25.1476 1438.3 25.0143C1441.5 24.9476 1444.63 24.8476 1447.7 24.7143C1450.77 24.581 1453.73 24.5143 1456.6 24.5143C1459.47 24.4476 1462.23 24.481 1464.9 24.6143C1467.57 24.7476 1470.07 25.0476 1472.4 25.5143C1474.8 25.9143 1477 26.5143 1479 27.3143C1481 28.1143 1482.83 29.1476 1484.5 30.4143C1486.17 31.681 1487.67 33.181 1489 34.9143C1490.27 36.5809 1491.43 38.481 1492.5 40.6143C1493.57 42.7476 1494.5 45.081 1495.3 47.6143C1496.17 50.081 1496.93 52.7476 1497.6 55.6143C1498.33 58.481 1499 61.5143 1499.6 64.7143C1500.2 67.8476 1500.8 71.1476 1501.4 74.6143C1502 78.081 1502.6 81.681 1503.2 85.4143C1503.8 89.1476 1504.47 92.981 1505.2 96.9143C1505.93 100.848 1506.77 104.848 1507.7 108.914C1508.57 113.048 1509.57 117.248 1510.7 121.514C1511.77 125.781 1512.93 130.081 1514.2 134.414C1515.4 138.814 1516.63 143.181 1517.9 147.514C1519.17 151.848 1520.4 156.148 1521.6 160.414C1522.73 164.681 1523.83 168.848 1524.9 172.914C1525.9 177.048 1526.8 181.048 1527.6 184.914C1528.4 188.781 1529 192.514 1529.4 196.114C1529.8 199.648 1530 203.014 1530 206.214C1530 209.414 1529.7 212.348 1529.1 215.014C1528.5 217.748 1527.6 220.214 1526.4 222.414C1525.2 224.548 1523.63 226.414 1521.7 228.014Z" fill="#C4E0CA"/>
<path fill-rule="evenodd" clip-rule="evenodd" d="M1212.3 592.648C1211.59 590.284 1211.23 587.697 1211.2 584.887C1211.17 582.076 1211.45 579.136 1212.03 576.065C1212.63 572.933 1213.44 569.633 1214.47 566.166C1215.53 562.785 1216.79 559.268 1218.25 555.615C1219.68 552.024 1221.21 548.29 1222.82 544.414C1224.48 540.624 1226.2 536.754 1228 532.803C1229.79 528.853 1231.55 524.89 1233.28 520.914C1235.09 516.902 1236.81 512.883 1238.41 508.858C1240.05 504.92 1241.56 500.963 1242.93 496.988C1244.3 493.013 1245.5 489.113 1246.52 485.286C1247.55 481.46 1248.41 477.677 1249.11 473.938C1249.88 470.224 1250.51 466.565 1251.02 462.962C1251.52 459.359 1251.92 455.855 1252.2 452.451C1252.57 449.009 1252.91 445.629 1253.23 442.311C1253.52 439.055 1253.79 435.86 1254.04 432.728C1254.34 429.621 1254.68 426.631 1255.03 423.758C1255.41 420.824 1255.86 417.989 1256.38 415.252C1256.96 412.541 1257.64 409.94 1258.42 407.451C1259.22 404.9 1260.15 402.473 1261.21 400.17C1262.34 397.891 1263.62 395.748 1265.07 393.741C1266.54 391.673 1268.19 389.709 1270.01 387.85C1271.8 386.054 1273.75 384.393 1275.87 382.869C1278.01 381.282 1280.28 379.82 1282.68 378.48C1285.06 377.203 1287.54 376.007 1290.14 374.89C1292.72 373.836 1295.36 372.88 1298.07 372.024C1300.82 371.254 1303.63 370.583 1306.52 370.011C1309.34 369.414 1312.2 368.978 1315.11 368.704C1318.02 368.429 1320.96 368.271 1323.91 368.232C1326.87 368.192 1329.81 368.289 1332.74 368.521C1335.66 368.754 1338.53 369.11 1341.35 369.591C1344.24 370.096 1347.09 370.694 1349.9 371.385C1352.71 372.076 1355.51 372.872 1358.31 373.773C1361.13 374.612 1363.96 375.526 1366.8 376.514C1369.61 377.564 1372.46 378.595 1375.36 379.608C1378.23 380.682 1381.14 381.769 1384.07 382.868C1387.03 383.906 1390.05 384.968 1393.14 386.055C1396.25 387.079 1399.41 388.055 1402.63 388.98C1405.89 389.993 1409.22 390.894 1412.64 391.683C1416.06 392.472 1419.58 393.194 1423.19 393.847C1426.81 394.5 1430.55 395.023 1434.41 395.415C1438.27 395.808 1442.23 396.133 1446.29 396.389C1450.27 396.683 1454.34 396.909 1458.51 397.066C1462.62 397.198 1466.73 397.331 1470.84 397.464C1475.04 397.559 1479.18 397.704 1483.27 397.899C1487.35 398.093 1491.38 398.337 1495.36 398.631C1499.33 398.925 1503.19 399.318 1506.94 399.81C1510.7 400.302 1514.32 400.924 1517.83 401.676C1521.31 402.49 1524.62 403.453 1527.76 404.564C1530.87 405.589 1533.81 406.868 1536.57 408.4C1539.27 409.908 1541.74 411.646 1543.97 413.612C1546.13 415.554 1548.1 417.737 1549.86 420.162C1551.58 422.5 1553.06 424.994 1554.3 427.642C1555.52 430.352 1556.52 433.155 1557.3 436.051C1557.99 438.985 1558.49 441.98 1558.77 445.038C1559.06 448.095 1559.11 451.202 1558.93 454.359C1558.75 457.516 1558.31 460.68 1557.62 463.85C1556.95 466.957 1556.08 470.053 1554.99 473.137C1553.84 476.195 1552.48 479.168 1550.9 482.053C1549.31 484.939 1547.53 487.708 1545.54 490.359C1543.57 492.948 1541.32 495.426 1538.8 497.792C1536.36 500.122 1533.77 502.315 1531.01 504.373C1528.19 506.405 1525.25 508.358 1522.21 510.23C1519.17 512.102 1516.01 513.893 1512.74 515.604C1509.48 517.315 1506.18 519.014 1502.85 520.701C1499.52 522.387 1496.21 524.043 1492.9 525.667C1489.51 527.329 1486.18 529.016 1482.92 530.727C1479.71 532.463 1476.56 534.254 1473.45 536.102C1470.35 537.949 1467.38 539.889 1464.56 541.922C1461.74 543.954 1459.09 546.092 1456.62 548.335C1454.12 550.64 1451.81 553.093 1449.7 555.694C1447.61 558.234 1445.71 560.922 1444 563.759C1442.24 566.57 1440.65 569.456 1439.26 572.416C1437.8 575.351 1436.47 578.336 1435.26 581.37C1433.98 584.379 1432.82 587.395 1431.75 590.416C1430.63 593.413 1429.56 596.36 1428.55 599.258C1427.54 602.156 1426.5 604.936 1425.44 607.599C1424.44 610.286 1423.38 612.843 1422.27 615.271C1421.15 617.698 1419.95 619.909 1418.65 621.903C1417.39 623.984 1416.02 625.805 1414.53 627.366C1413.05 628.927 1411.41 630.247 1409.62 631.326C1407.82 632.404 1405.87 633.241 1403.77 633.837C1401.75 634.396 1399.55 634.776 1397.18 634.976C1394.8 635.176 1392.29 635.178 1389.64 634.982C1387.03 634.873 1384.27 634.597 1381.36 634.154C1378.42 633.773 1375.36 633.268 1372.16 632.639C1369.03 632.035 1365.74 631.369 1362.3 630.642C1358.86 629.915 1355.29 629.138 1351.6 628.311C1347.91 627.485 1344.11 626.684 1340.18 625.907C1336.26 625.131 1332.23 624.422 1328.11 623.782C1323.95 623.055 1319.68 622.428 1315.29 621.899C1310.94 621.309 1306.51 620.799 1302.02 620.369C1297.48 619.853 1292.97 619.38 1288.48 618.951C1283.98 618.522 1279.53 618.074 1275.12 617.607C1270.74 617.078 1266.46 616.556 1262.29 616.04C1258.08 615.437 1254.03 614.79 1250.14 614.1C1246.26 613.41 1242.57 612.584 1239.08 611.621C1235.65 610.683 1232.44 609.622 1229.47 608.436C1226.5 607.25 1223.89 605.884 1221.63 604.339C1219.32 602.768 1217.36 601.018 1215.76 599.088C1214.22 597.183 1213.07 595.036 1212.3 592.648Z" fill="#CEC8D6"/>
<path d="M1052.5 2.5C1016.97 116.18 1027.5 157 1118.5 134C1209.5 111 1220.12 133.447 1277.5 126.5C1334.88 119.553 1318.07 164.872 1347 254C1375.93 343.128 1462.29 237.253 1440.5 265" stroke="#5D7F65" stroke-opacity="0.15" stroke-width="4" stroke-linecap="round" stroke-dasharray="8 8"/>
</g>
<defs>
<clipPath id="clip0_232_1280">
<rect width="1440" height="1210" fill="white"/>
</clipPath>
</defs>
</svg>
