<svg width="1440" height="541" viewBox="0 0 1440 541" fill="none" xmlns="http://www.w3.org/2000/svg">
<g clip-path="url(#clip0_232_22)">
<rect width="1440" height="541" fill="#EDF6EF"/>
<path d="M1282.17 222.163C1282.76 222.127 1283.35 222.09 1283.94 222.053M1283.94 222.053C1357.03 217.428 1384.23 200.351 1398.1 135.407C1327 121.934 1309.4 154.1 1283.94 222.053Z" stroke="#47A45D" stroke-width="2" stroke-dasharray="6 6"/>
<circle cx="1205.46" cy="202.465" r="55.3061" transform="rotate(-166.545 1205.46 202.465)" stroke="#501F6B" stroke-opacity="0.44" stroke-width="3" stroke-dasharray="6 6"/>
<circle cx="1285.23" cy="269.23" r="38.5171" transform="rotate(-166.545 1285.23 269.23)" stroke="#501F6B" stroke-opacity="0.44" stroke-width="3" stroke-dasharray="6 6"/>
<circle cx="1216.64" cy="313.642" r="32.2213" transform="rotate(-166.545 1216.64 313.642)" stroke="#501F6B" stroke-opacity="0.44" stroke-width="3" stroke-dasharray="6 6"/>
<circle cx="919.642" cy="448.642" r="32.2213" transform="rotate(-166.545 919.642 448.642)" stroke="#501F6B" stroke-opacity="0.44" stroke-width="3" stroke-dasharray="6 6"/>
<circle cx="867.868" cy="418.868" r="13.3251" transform="rotate(-166.545 867.868 418.868)" stroke="#501F6B" stroke-opacity="0.44" stroke-width="3" stroke-dasharray="6 6"/>
<circle cx="1078.87" cy="436.868" r="13.3251" transform="rotate(-166.545 1078.87 436.868)" stroke="#501F6B" stroke-opacity="0.44" stroke-width="3" stroke-dasharray="6 6"/>
<path d="M1478.8 486.831C1478.43 485.859 1478.06 484.893 1477.68 483.932M1477.68 483.932C1431.35 364.639 1388.52 328.348 1273.01 339.576C1288.15 465.139 1351.03 477.446 1477.68 483.932Z" stroke="#47A45D" stroke-width="2" stroke-dasharray="6 6"/>
<path d="M-90 651.774C-88.963 651.542 -87.9314 651.309 -86.9054 651.076M-86.9054 651.076C40.4792 622.132 83.529 584.317 89.4688 466.002C-39.5812 462.513 -61.4131 524.165 -86.9054 651.076Z" stroke="#47A45D" stroke-width="2" stroke-dasharray="6 6"/>
<path d="M26 156.948C26.212 157.247 26.4234 157.544 26.6343 157.84M26.6343 157.84C52.8134 194.519 70.5811 203.18 109.021 189.31C92.9407 147.78 70.4141 149.046 26.6343 157.84Z" stroke="#47A45D" stroke-width="2" stroke-dasharray="6 6"/>
<path d="M144.637 134C144.433 134.119 144.23 134.237 144.028 134.355M144.028 134.355C118.957 149.016 112.36 159.914 119.018 185.397C146.613 177.501 147.116 162.968 144.028 134.355Z" stroke="#47A45D" stroke-width="2" stroke-dasharray="6 6"/>
</g>
<defs>
<clipPath id="clip0_232_22">
<rect width="1440" height="541" fill="white"/>
</clipPath>
</defs>
</svg>
