<svg width="266" height="267" viewBox="0 0 266 267" fill="none" xmlns="http://www.w3.org/2000/svg">
<g clip-path="url(#clip0_229_431)">
<path d="M266 133.373C266.017 148.561 263.442 163.64 258.386 177.957C258.364 178.023 258.342 178.083 258.317 178.15V178.153C254.53 188.804 249.403 198.927 243.058 208.275C241.959 209.903 240.82 211.505 239.643 213.08C238.348 214.823 237.012 216.53 235.634 218.203C234.364 219.746 233.061 221.259 231.723 222.743C230.134 224.511 228.498 226.233 226.814 227.91C222.851 231.868 218.643 235.571 214.215 238.998C213.438 239.603 212.652 240.198 211.859 240.782C210.01 242.15 208.125 243.47 206.204 244.742C201.976 247.544 197.592 250.099 193.071 252.395C192.291 252.795 191.504 253.187 190.714 253.568C187.659 255.047 184.542 256.408 181.363 257.651C180.457 258.009 179.547 258.354 178.627 258.687C178.473 258.747 178.318 258.804 178.16 258.858C167.259 262.804 155.887 265.294 144.338 266.265C143.536 266.338 142.732 266.399 141.928 266.449C141.075 266.509 140.221 266.558 139.366 266.594C138.69 266.629 138.017 266.655 137.337 266.674C137.198 266.68 137.056 266.686 136.917 266.686C136.004 266.715 135.088 266.733 134.169 266.74C133.78 266.743 133.392 266.747 133 266.747C132.817 266.747 132.633 266.747 132.45 266.743C129.8 266.734 127.169 266.647 124.559 266.484C124.505 266.48 124.451 266.474 124.398 266.474C123.462 266.411 122.53 266.344 121.602 266.262C118.294 265.983 115.022 265.582 111.786 265.058C111.041 264.941 110.297 264.814 109.556 264.678C106.337 264.108 103.16 263.42 100.025 262.615C99.0928 262.378 98.1661 262.13 97.2447 261.871C84.4343 258.292 72.2355 252.796 61.0599 245.568C59.1391 244.33 57.2541 243.041 55.405 241.703C55.1775 241.545 54.9532 241.38 54.7289 241.216C50.2371 237.931 45.9544 234.369 41.906 230.549C39.9884 228.743 38.1266 226.88 36.3206 224.96C12.9516 200.231 -0.0509291 167.443 -9.56508e-05 133.373C-9.56508e-05 59.7138 59.5466 0 133 0C206.453 0 266 59.7138 266 133.373Z" fill="#D6C6DF"/>
<path d="M149.226 34.0015C151.888 29.5849 155.044 24.8692 159.986 23.427C165.709 21.7569 171.588 25.0746 176.574 28.3486C191.487 38.1399 205.848 48.7509 219.593 60.133L219.578 60.3044C208.877 59.5644 198.177 58.8245 187.477 58.0845C179.746 57.5498 171.749 56.9415 164.917 53.274C162.324 51.8823 159.797 50.0233 156.859 49.8937C153.21 49.7328 150.027 52.2891 147.526 54.9597C132.732 70.7577 128.451 94.9166 111.853 108.796C122.319 82.9131 134.816 57.9031 149.226 34.0015Z" fill="white"/>
<path d="M58.2879 167.997C59.9239 165.926 60.5924 165.44 62.2061 163.35C75.346 146.307 87.6964 128.69 99.2574 110.496C107.11 98.1398 114.573 85.5463 121.647 72.7154C125.015 66.6154 128.29 60.4676 131.473 54.2719C133.943 49.4679 136.358 44.6352 138.718 39.7738C139.393 38.3852 140.049 36.9903 140.701 35.5922C142.239 32.3044 143.747 29.0007 145.368 25.7576C147.214 22.0612 149.461 18.1861 152.851 15.7027C154.394 14.5261 156.239 13.8143 158.17 13.6502C160.93 13.4715 163.476 14.6142 165.87 15.8623C183.383 25.0202 199.779 36.5019 214.609 49.5669C229.477 62.6611 242.767 77.4545 254.207 93.6455C254.557 94.1466 255.385 93.6678 255.031 93.1635C253.64 91.1908 252.222 89.2394 250.775 87.3093C238.774 71.2921 224.933 56.748 209.539 43.9776C201.917 37.6538 193.936 31.7781 185.637 26.38C181.413 23.6349 177.109 21.0185 172.726 18.5308C170.517 17.2764 168.299 16.0379 166.042 14.876C163.829 13.7364 161.48 12.7118 158.953 12.6735C150.352 12.5394 145.899 22.307 142.84 28.8794C141.879 30.9478 140.906 33.0099 139.921 35.0655C136.2 42.87 132.336 50.6032 128.329 58.2651C125.855 62.9957 123.328 67.6986 120.746 72.3739C112.712 86.9327 104.173 101.197 95.1289 115.166C83.1477 133.67 71.2621 150.017 57.6131 167.321C57.2374 167.799 57.909 168.482 58.2879 167.997Z" fill="white"/>
<path d="M105.89 90.325L93.0758 85.625L86.7136 83.2914C84.6415 82.5314 82.5744 81.6662 80.4324 81.122C78.5386 80.6409 76.6143 80.5622 74.7472 81.1947C73.0997 81.8062 71.5917 82.7436 70.3128 83.9512C69.0062 85.1578 67.7906 86.4597 66.6757 87.8463C65.2905 89.5157 63.9258 91.2025 62.555 92.8837C56.8973 99.8223 51.2766 106.791 45.6928 113.79C40.1093 120.789 34.563 127.817 29.0541 134.875C23.5317 141.951 18.0473 149.056 12.6008 156.19C11.9336 157.064 11.267 157.939 10.6009 158.814C10.233 159.297 9.40321 158.82 9.77641 158.33C15.263 151.124 20.7879 143.947 26.351 136.8C31.9278 129.635 37.5431 122.501 43.1969 115.398C48.8507 108.294 54.5426 101.221 60.2728 94.1794C61.7003 92.425 63.1302 90.6726 64.5625 88.9221C65.7707 87.4455 66.9652 85.953 68.2904 84.5786C70.7228 82.0559 73.7618 79.8265 77.3995 79.766C79.5383 79.7304 81.6082 80.411 83.5953 81.1319C85.7376 81.9091 87.8747 82.7008 90.0142 83.4855L102.918 88.2183L106.144 89.4015C106.716 89.6115 106.469 90.5373 105.89 90.325Z" fill="white"/>
<path d="M70.7953 90.3719C72.0567 88.8322 73.4204 87.22 75.3071 86.5945L77.0686 86.6642C63.6597 110.425 45.5499 131.187 23.851 147.675C39.4991 128.574 55.1472 109.473 70.7953 90.3719Z" fill="white"/>
<path d="M156.454 65.7718C156.455 68.1997 155.862 70.5907 154.726 72.7349C153.59 74.8791 151.947 76.711 149.941 78.0697C147.934 79.4284 145.626 80.2724 143.218 80.5276C140.81 80.7828 138.377 80.4414 136.132 79.5334C133.886 78.6254 131.897 77.1785 130.34 75.3197C128.782 73.461 127.703 71.2473 127.198 68.8728C126.693 66.4984 126.776 64.0358 127.442 61.7014C128.107 59.367 129.334 57.232 131.014 55.4839C131.037 55.4602 131.061 55.4365 131.085 55.4128C131.203 55.2881 131.321 55.1636 131.446 55.0449C131.446 55.0449 131.447 55.0447 131.448 55.0444C131.449 55.0441 131.449 55.0437 131.45 55.0432C131.45 55.0426 131.451 55.0419 131.451 55.0412C131.451 55.0405 131.452 55.0397 131.452 55.0389C131.605 54.8965 131.759 54.7542 131.919 54.6177C134.056 52.7387 136.688 51.5171 139.5 51.0994C142.312 50.6817 145.184 51.0854 147.773 52.2623C150.361 53.4392 152.557 55.3394 154.097 57.7353C155.637 60.1312 156.455 62.9214 156.454 65.7718Z" fill="#2F2E41"/>
<path d="M146.789 77.9984C151.633 73.1412 151.633 65.2661 146.789 60.4088C141.946 55.5516 134.093 55.5516 129.249 60.4088C124.405 65.2661 124.405 73.1412 129.249 77.9984C134.093 82.8556 141.946 82.8556 146.789 77.9984Z" fill="#9E616A"/>
<path d="M146.881 57.2428C144.96 55.4397 142.57 54.2169 139.986 53.7148C137.403 53.2127 134.731 53.4516 132.277 54.4043C132.204 54.4328 132.131 54.4645 132.059 54.4993C132.055 54.4993 132.055 54.5025 132.052 54.5025C131.815 54.6007 131.575 54.7021 131.345 54.8129L131.202 54.8826V54.9016C131.177 54.9206 131.149 54.9428 131.12 54.9618C131.062 55.0161 130.992 55.0553 130.915 55.0759C128.53 55.1076 126.587 55.9186 125.146 57.4867C123.222 59.5776 122.319 62.9579 122.597 67.0066L122.603 67.1302L122.711 67.1999C123.728 67.8366 124.691 68.3974 125.62 68.8884C126.17 69.183 126.704 69.4523 127.235 69.6994C127.298 69.7279 127.361 69.7596 127.424 69.7881C132.795 72.275 137.707 72.7249 142.427 71.1504L142.515 71.1219L144.521 67.7511C144.728 68.9027 145.281 69.9636 146.105 70.7918C146.929 71.6201 147.986 72.1762 149.134 72.3859L149.968 72.5348L151.19 72.7502L151.241 72.519C152.454 67.0383 150.701 60.9018 146.881 57.2428Z" fill="#2F2E41"/>
<path d="M177.35 83.3476C173.13 81.163 178.558 73.2342 177.467 68.5985C176.376 63.9627 168.521 62.4717 168.021 57.7352C167.521 52.9986 166.343 48.1134 163.227 44.5192C161.235 42.2226 158.3 40.5271 155.279 40.8148C154.257 40.9121 153.267 41.2293 152.378 41.7446C151.489 42.26 150.721 42.9614 150.127 43.8012C149.532 44.6409 149.126 45.5993 148.934 46.611C148.742 47.6226 148.77 48.6639 149.016 49.6638C148.156 48.4414 145.929 48.7063 145.378 50.0967C144.888 51.3328 145.971 52.83 147.244 52.9394C148.911 55.0034 150.819 57.1939 153.43 57.6102C154.272 57.7444 155.217 57.6461 155.831 57.0545C156.446 56.463 156.493 55.2803 155.765 54.8382C159.046 56.1453 160.97 59.7031 161.457 63.2099C161.944 66.7168 161.27 70.265 160.826 73.7776C160.382 77.2902 160.191 80.9853 161.564 84.2471C163.187 88.101 166.923 90.8632 171 91.749C175.077 92.6348 179.419 91.7691 183.11 89.8186C186.8 87.8679 189.878 84.8901 192.392 81.5516C188.061 84.6353 182.07 85.7905 177.35 83.3476Z" fill="#2F2E41"/>
<path d="M129.396 135.592L120.829 194.256L167.594 190.722L153.597 133.01L129.396 135.592Z" fill="#FFB8B8"/>
<path d="M178.318 258.259C178.276 258.462 178.224 258.662 178.16 258.858C172.763 260.815 167.244 262.414 161.638 263.645C160.456 259.748 158.191 252.37 156.207 246.335C154.586 241.409 153.155 237.379 152.656 236.875C151.269 235.491 152.656 233.644 152.656 233.644L146.733 215.178L144.041 206.789L143.119 224.412L141.779 249.94L141.741 250.656C141.741 250.656 139.896 256.197 140.819 257.122C141.741 258.047 139.896 261.744 139.896 261.744L139.366 266.595C138.69 266.629 138.017 266.655 137.338 266.674L137.107 266.747L136.917 266.686C136.004 266.715 135.088 266.733 134.169 266.74C133.78 266.743 133.392 266.747 133 266.747C132.817 266.747 132.634 266.747 132.45 266.743C129.8 266.734 127.169 266.647 124.559 266.484L122.938 253.257L121.264 239.59C121.264 239.59 123.106 235.9 121.264 234.053C120.155 232.941 120.711 231.325 121.333 230.216C120.948 228.502 120.42 225.867 119.709 221.964C119.684 221.834 119.662 221.701 119.637 221.568C119.413 220.329 119.211 219.114 119.033 217.924C118.718 215.83 118.471 213.819 118.282 211.892C117.639 205.654 117.55 199.37 118.016 193.116C118.193 190.892 118.414 189.263 118.56 188.322C118.572 188.234 118.708 187.736 118.929 186.951C119.277 185.693 119.849 183.697 120.49 181.464C120.831 180.279 121.191 179.028 121.548 177.783C122.17 175.625 122.79 173.487 123.289 171.757V171.747C123.728 170.23 124.079 169.032 124.262 168.405C124.35 168.098 124.398 167.93 124.398 167.93C124.398 167.93 124.496 167.908 124.682 167.867C125.26 167.734 126.688 167.414 128.666 166.986C130.729 166.549 133.385 165.994 136.304 165.43C138.803 164.949 141.495 164.458 144.171 164.018C145.131 163.862 146.092 163.71 147.039 163.568C152.893 162.693 158.267 162.196 160.813 162.763C160.989 162.801 161.163 162.848 161.334 162.906C161.507 162.963 161.673 163.038 161.83 163.13C161.909 163.178 162.674 166.169 163.65 170.065C163.66 170.103 163.669 170.144 163.678 170.182C163.972 171.361 164.285 172.615 164.604 173.899C164.93 175.207 165.258 176.541 165.58 177.84C166.538 181.698 167.422 185.269 167.877 187.017C168.051 187.695 168.164 188.098 168.19 188.142C169.258 189.925 170.129 194.297 170.837 199.781C171.469 204.676 171.971 210.457 172.36 216.074C172.553 218.853 172.717 221.593 172.856 224.165C173.326 232.82 173.516 239.578 173.516 239.578C173.516 239.578 174.221 245.21 175.62 247.868C175.792 248.212 176.012 248.528 176.274 248.809C177.206 249.744 177.313 250.555 177.19 251.131C177.136 251.404 177.024 251.661 176.862 251.885C176.825 251.94 176.783 251.992 176.738 252.041C176.618 252.614 176.639 253.208 176.8 253.771C176.961 254.334 177.256 254.85 177.661 255.272C178.555 256.175 178.482 257.467 178.318 258.259Z" fill="#2F2E41"/>
<path d="M162.999 116.776C162.946 116.377 162.889 115.975 162.829 115.569C162.794 115.309 162.753 115.049 162.715 114.793C162.314 112.201 163.985 109.984 161.821 108.191C161.315 107.778 160.902 107.262 160.611 106.676L160.115 105.675L159.202 103.819L157.205 99.7828L156.861 99.089C156.764 98.892 156.652 98.7024 156.526 98.522C156.153 97.9786 155.667 97.5225 155.101 97.1851L150.141 94.2198C149.375 93.7638 148.758 93.0932 148.366 92.2905L148.243 92.0371C147.696 90.9124 146.717 88.2228 145.558 87.0538L145.554 87.0506C145.302 86.761 144.959 86.5656 144.581 86.4962L139.644 86.0052C138.854 85.9247 138.057 86.0515 137.331 86.373C136.605 86.6946 135.975 87.1999 135.502 87.8394L135.366 88.4572L134.573 92.0782L134.529 92.0877C134.295 92.1416 134.061 92.1955 133.831 92.262C128.71 93.6654 126.574 111.619 126.574 111.619C126.574 111.619 122.989 117.552 124.398 121.224L126.912 127.145C126.932 127.19 126.947 127.236 126.957 127.284C127.184 127.929 127.264 128.616 127.19 129.296L127.194 129.527L127.2 130.037L127.219 131.346L127.279 135.686L127.355 141.119L127.421 145.748L127.443 146.98L123.301 165.053C123.234 165.647 123.283 166.249 123.447 166.823C123.612 167.398 123.887 167.934 124.259 168.402L124.262 168.405C124.353 168.522 124.45 168.634 124.552 168.741L124.556 168.744C124.654 168.846 124.755 168.937 124.859 169.029C125.358 169.467 125.946 169.79 126.582 169.975C127.218 170.161 127.887 170.204 128.542 170.103L129.095 170.018H129.098L137.123 168.811H137.129L138.058 168.671H138.064L147.046 167.319H147.052L148.59 167.084C148.714 167.068 148.834 167.052 148.957 167.043L157.18 166.476C157.369 166.463 157.557 166.439 157.742 166.403H157.746C158.469 166.26 159.147 165.944 159.722 165.482C160.298 165.021 160.754 164.427 161.053 163.751C161.177 163.481 161.272 163.197 161.334 162.905C161.406 162.59 161.445 162.269 161.451 161.946L161.543 154.178L161.856 129.074C161.862 128.237 162.1 127.417 162.544 126.708C163.685 124.883 163.555 120.974 162.999 116.776Z" fill="#501F6B"/>
<path d="M149.212 183.822C149.096 183.182 149.122 182.524 149.287 181.895C149.452 181.265 149.753 180.68 150.168 180.18C150.584 179.68 151.103 179.278 151.69 179.001C152.278 178.724 152.918 178.58 153.567 178.578L158.697 163.622L163.699 170.133L158.061 183.337C157.991 184.43 157.525 185.46 156.749 186.231C155.973 187.002 154.942 187.461 153.851 187.521C152.76 187.581 151.686 187.237 150.831 186.555C149.975 185.874 149.399 184.901 149.212 183.822Z" fill="#9E616A"/>
<path d="M168.787 152.356L167.634 155.271L166.023 173.3C165.522 173.426 165.044 173.628 164.604 173.898C163.649 174.491 162.921 175.39 162.54 176.449C162.159 177.509 162.146 178.666 162.503 179.734L162.977 181.16L159.455 180.073L153.664 178.289L146.837 176.186L147.993 172.425C148.261 171.561 148.315 170.645 148.151 169.755C147.987 168.866 147.61 168.029 147.052 167.318C146.914 167.142 146.765 166.973 146.606 166.815L147.039 163.568L147.295 161.638L144.171 164.017L138.061 168.671H138.058L137.249 169.289C137.249 169.289 137.205 169.124 137.123 168.811C136.968 168.206 136.677 167.046 136.304 165.43C134.458 157.379 133.099 149.224 132.232 141.008C132.043 139.158 131.879 137.264 131.746 135.341C131.61 133.361 131.509 131.352 131.455 129.331C131 112.879 133.521 95.6327 144.057 86.813C144.566 86.8165 145.072 86.8977 145.558 87.0538C149.822 88.3685 154.501 94.7932 157.736 99.39C158.501 100.477 159.183 101.459 159.761 102.248L161.161 104.158C163.071 106.768 164.394 109.763 165.037 112.936C165.173 113.608 165.279 114.288 165.356 114.977L166.885 129.081V132.714L168.787 152.356Z" fill="#501F6B"/>
<path d="M7.70508 177.639C10.4495 180.9 13.4179 183.965 16.5886 186.81L249.601 187.127C252.771 184.281 255.74 181.217 258.484 177.956L7.70508 177.639Z" fill="#275431"/>
<path d="M134.169 266.74C133.78 266.743 133.392 266.747 133 266.747C132.817 266.747 132.634 266.747 132.45 266.743C129.8 266.734 127.169 266.647 124.559 266.484L124.622 267L124.398 266.474L119.39 254.784L122.938 253.257L129.446 250.453L131.42 257.262L133.31 263.781L133.872 265.714L134.169 266.74Z" fill="#FFB6B6"/>
<path d="M110.971 253.168L109.556 264.678C106.337 264.108 103.16 263.42 100.025 262.615V253.172L110.971 253.168Z" fill="#FFB6B6"/>
<path d="M61.06 231.955V245.568C59.1392 244.33 57.2542 243.041 55.4051 241.703V231.955H61.06Z" fill="#CACACA"/>
<path d="M82.9686 229.687V236.489C82.9683 237.742 82.472 238.943 81.5888 239.83C80.7056 240.716 79.5078 241.214 78.2583 241.216H54.729C50.2372 237.931 45.9545 234.369 41.906 230.549C39.9884 228.743 38.1267 226.88 36.3207 224.96H78.2583C79.5076 224.962 80.7052 225.461 81.5883 226.347C82.4714 227.233 82.9678 228.434 82.9686 229.687Z" fill="#3F3D56"/>
<path d="M138.111 266.427L137.337 266.674L137.107 266.747L136.917 266.686C136.004 266.715 135.088 266.733 134.169 266.74C133.78 266.743 133.392 266.747 133 266.747C132.817 266.747 132.634 266.747 132.45 266.743C129.8 266.734 127.169 266.647 124.559 266.484L124.622 267L124.398 266.474C123.463 266.411 122.531 266.344 121.602 266.262L114.25 253.916L99.1213 228.512L97.368 225.569C97.368 225.569 91.3877 227.343 82.9244 229.044C76.5461 230.33 68.7588 231.569 61.0599 231.974C59.1613 232.076 57.269 232.127 55.4051 232.111C50.5874 232.079 45.9592 231.626 41.906 230.549C39.9884 228.743 38.1266 226.88 36.3207 224.96C33.2421 221.696 30.3298 218.277 27.5951 214.718C27.5583 213.412 27.6248 212.105 27.7941 210.809C27.8226 210.594 27.851 210.375 27.8857 210.153L28.7482 195.466L35.1549 194.617L44.9041 193.325L55.4651 191.924L56.6276 201.055C56.6276 201.055 64.8509 200.636 75.2698 200.776C92.0038 201.004 114.396 202.677 117.429 209.855C117.713 210.53 117.997 211.211 118.282 211.892C124.17 226.038 129.579 241.108 133.253 251.816C133.954 253.856 134.589 255.735 135.155 257.42C137.022 262.986 138.111 266.427 138.111 266.427Z" fill="#2F2E41"/>
<path d="M120.199 217.95C120.044 219.293 119.881 220.631 119.709 221.964C118.193 233.752 116.105 245.011 114.25 253.916C113.344 258.263 112.491 262.045 111.786 265.058C111.041 264.941 110.297 264.814 109.556 264.678C106.337 264.108 103.16 263.42 100.025 262.615C99.0929 262.378 98.1662 262.13 97.2448 261.871L99.1213 228.512L99.7405 217.478L119.033 217.924L120.199 217.95Z" fill="#2F2E41"/>
<path d="M151.22 166.352C152.025 165.901 152.918 165.633 153.837 165.566C154.756 165.499 155.679 165.635 156.54 165.964C157.401 166.294 158.179 166.808 158.82 167.472C159.462 168.135 159.95 168.932 160.251 169.805L182.65 169.832L176.231 179.569L155.944 178.051C154.448 178.461 152.853 178.306 151.463 177.616C150.072 176.925 148.983 175.748 148.401 174.306C147.818 172.863 147.784 171.257 148.303 169.791C148.823 168.326 149.861 167.102 151.22 166.352Z" fill="#FFB6B6"/>
<path d="M163.432 179.52L203.774 183.539L203.88 183.402C204.084 183.141 224.277 157.22 227.67 151.049C229.758 147.342 230.518 143.03 229.825 138.83L229.801 138.727L229.721 138.659C228.076 137.276 226.01 136.497 223.864 136.45C221.718 136.403 219.62 137.09 217.916 138.399C209.722 144.763 203.115 152.95 198.617 162.313L196.065 167.642L166.46 168.915L163.432 179.52Z" fill="#501F6B"/>
<path d="M147.873 252.567L141.928 266.449C141.075 266.509 140.221 266.558 139.366 266.594C138.69 266.629 138.017 266.655 137.338 266.674L137.107 266.747L136.917 266.686C136.004 266.715 135.088 266.733 134.169 266.74C133.78 266.743 133.392 266.747 133 266.747C132.817 266.747 132.634 266.747 132.45 266.743L132.845 265.387L133.31 263.781L135.155 257.42L137.818 248.236L141.779 249.94L147.873 252.567Z" fill="#FFB6B6"/>
<path d="M190.714 253.568C187.66 255.047 184.543 256.408 181.363 257.651L178.255 252.408L188.276 247.995L190.714 253.568Z" fill="#FFB6B6"/>
<path d="M211.859 229.738V240.781C210.01 242.15 208.125 243.47 206.204 244.741V229.738H211.859Z" fill="#CACACA"/>
<path d="M231.723 222.743C230.134 224.511 228.498 226.233 226.814 227.91C222.851 231.868 218.643 235.571 214.215 238.998H189.005C188.336 238.998 187.674 238.855 187.065 238.578C186.455 238.301 185.912 237.896 185.47 237.392L185.467 237.382C184.941 236.787 184.576 236.068 184.406 235.291L184.402 235.285C184.331 234.952 184.295 234.612 184.295 234.271V227.47C184.296 226.217 184.792 225.016 185.675 224.129C186.558 223.243 187.756 222.745 189.005 222.743H231.723Z" fill="#3F3D56"/>
<path d="M242.111 196.195L239.378 207.936C239.645 209.637 239.734 211.361 239.643 213.08C238.348 214.823 237.012 216.53 235.634 218.203C234.364 219.746 233.061 221.259 231.723 222.743C230.134 224.511 228.498 226.233 226.814 227.91C222.429 229.291 217.261 229.855 211.859 229.893C209.995 229.909 208.102 229.858 206.204 229.757C198.505 229.351 190.718 228.113 184.339 226.826C182.652 226.491 181.066 226.148 179.607 225.816C176.843 225.192 174.53 224.609 172.856 224.165C170.97 223.671 169.896 223.351 169.896 223.351L162.721 235.399L156.207 246.335L144.338 266.265C143.536 266.338 142.732 266.399 141.928 266.449C141.075 266.509 140.221 266.558 139.366 266.594C138.69 266.629 138.017 266.655 137.337 266.674L137.107 266.747L136.917 266.686L133.872 265.714L132.845 265.387L129.152 264.209C129.152 264.209 129.977 261.605 131.42 257.261C131.951 255.668 132.564 253.837 133.253 251.816C135.739 244.51 139.186 234.699 143.119 224.412C144.284 221.358 145.491 218.26 146.733 215.178C147.75 212.646 148.786 210.125 149.835 207.638C151.658 203.326 160.466 201.001 170.837 199.781C171.365 199.721 171.895 199.661 172.429 199.604C177.715 199.046 183.322 198.758 188.566 198.625C191.191 198.558 193.725 198.533 196.082 198.53C196.843 198.53 197.583 198.532 198.303 198.536H198.306C200.249 198.546 202.037 198.574 203.61 198.606C203.916 198.612 204.213 198.622 204.504 198.628H204.507C204.703 198.631 204.896 198.637 205.085 198.641C208.526 198.729 210.636 198.837 210.636 198.837L211.454 192.4L211.622 191.101L211.78 189.865V189.862L211.799 189.707L211.928 189.704L214.203 189.659L233.322 189.286L243.766 189.08L242.111 196.195Z" fill="#2F2E41"/>
<path d="M193.071 252.395C192.291 252.795 191.504 253.187 190.714 253.568C187.66 255.047 184.542 256.408 181.363 257.651C180.457 258.009 179.547 258.354 178.628 258.687C178.526 258.545 178.422 258.402 178.318 258.259C173.933 252.224 168.36 244.26 162.721 235.399C160.361 231.692 157.989 227.828 155.686 223.88L172.36 216.074L174.23 215.2L179.607 225.816L184.402 235.285L185.47 237.392L193.071 252.395Z" fill="#2F2E41"/>
<path d="M217.274 120.401C225.758 120.401 232.635 113.504 232.635 104.996C232.635 96.4884 225.758 89.5915 217.274 89.5915C208.79 89.5915 201.913 96.4884 201.913 104.996C201.913 113.504 208.79 120.401 217.274 120.401Z" fill="#FFB6B6"/>
<path d="M216.766 119.732C220.357 121.46 224.778 120.875 228.207 118.841C231.636 116.808 234.159 113.493 235.923 109.911C237.214 107.287 238.153 104.283 237.405 101.455C236.657 98.6272 233.673 96.2578 230.878 97.0954C232.793 95.549 232.57 92.3601 231.022 90.444C229.475 88.528 227.033 87.6067 224.674 86.9123C221.25 85.9045 217.652 85.1931 214.121 85.7086C210.59 86.2241 207.114 88.1412 205.452 91.3079C204.299 91.6059 203.079 91.5119 201.985 91.0406C200.891 90.5693 199.983 89.7473 199.404 88.7034C199.019 89.7069 198.975 90.8097 199.278 91.841C199.581 92.8724 200.215 93.7748 201.081 94.4088L196.298 91.8069C195.079 93.5015 196.187 96.0861 198.038 97.046C199.889 98.006 202.126 97.75 204.146 97.237C206.166 96.7241 203.783 101.002 205.866 101.043C207.949 101.084 210.203 102.178 210.799 104.18C211.112 105.228 210.93 106.355 211.022 107.445C211.114 108.536 211.635 109.746 212.689 110.03C213.355 110.209 214.084 109.971 214.744 110.171C215.562 110.418 216.061 111.296 216.133 112.15C216.205 113.004 215.938 113.846 215.675 114.662C214.632 117.884 217.978 116.078 216.935 119.3L216.766 119.732Z" fill="#2F2E41"/>
<path d="M246.906 165.234C246.78 152.511 246.205 143.84 245.2 139.459C242.502 127.68 230.039 125.532 228.087 125.266C227.879 124.711 227.56 124.205 227.148 123.779C226.737 123.353 226.242 123.016 225.695 122.79C225.149 122.564 224.561 122.453 223.97 122.464C223.379 122.476 222.796 122.609 222.258 122.855L213.403 126.923C211.607 127.751 209.999 128.94 208.68 130.417C207.361 131.894 206.359 133.627 205.736 135.508L204.422 139.532L203.762 166.533L205.942 177.89L205.945 177.896L207.414 185.547L206.403 187.068L200.631 195.748L200.533 195.9L200.53 195.903L200.277 196.28C200.628 196.474 200.975 196.664 201.317 196.854C202.201 197.342 203.064 197.82 203.904 198.289C204.106 198.403 204.305 198.514 204.504 198.628H204.507C204.634 198.698 204.76 198.767 204.883 198.837C208.036 200.605 210.906 202.243 213.492 203.751C213.852 203.96 214.209 204.169 214.56 204.375C226.501 211.379 232.554 215.669 235.634 218.203C237.012 216.53 238.348 214.823 239.643 213.08C240.818 211.506 241.957 209.904 243.058 208.275C243.251 207.001 243.381 205.727 243.507 204.479C243.659 202.978 243.816 201.422 244.082 199.892C244.199 199.214 243.75 198.571 243.317 197.95C242.916 197.37 242.537 196.825 242.616 196.312C242.698 195.783 243.279 195.207 243.845 194.646C244.461 194.031 245.099 193.398 245.191 192.729C245.443 190.866 245.668 188.997 245.864 187.122C246.186 184.071 246.433 181.011 246.606 177.941C246.849 173.702 246.949 169.466 246.906 165.234Z" fill="#501F6B"/>
<path d="M188.431 210.144C188.691 209.257 189.143 208.439 189.752 207.746C190.362 207.053 191.116 206.503 191.961 206.134C192.806 205.765 193.721 205.587 194.642 205.611C195.564 205.635 196.468 205.862 197.293 206.274L213.314 190.577L215.522 202.037L199.969 215.187C199.186 216.53 197.938 217.538 196.463 218.021C194.988 218.503 193.388 218.426 191.966 217.804C190.544 217.183 189.399 216.059 188.747 214.648C188.096 213.236 187.983 211.633 188.431 210.144Z" fill="#FFB6B6"/>
<path d="M206.343 210.982L237.969 185.548L237.95 185.376C237.913 185.047 234.254 152.358 232.373 145.569C231.277 141.456 228.812 137.842 225.386 135.327L225.298 135.27L225.193 135.278C223.053 135.444 221.033 136.337 219.467 137.809C217.901 139.281 216.882 141.245 216.578 143.376C215.164 153.671 216.156 164.156 219.475 174.001L221.37 179.599L201.108 201.282L206.343 210.982Z" fill="#501F6B"/>
<path d="M44.3904 120.124C51.9606 120.124 58.0975 113.97 58.0975 106.379C58.0975 98.7874 51.9606 92.6333 44.3904 92.6333C36.8203 92.6333 30.6834 98.7874 30.6834 106.379C30.6834 113.97 36.8203 120.124 44.3904 120.124Z" fill="#A0616A"/>
<path d="M25.9748 211.073L25.9001 210.968C21.9072 205.362 27.9125 191.892 28.8182 189.939C27.7427 189.589 26.8214 188.876 26.2112 187.921C25.6011 186.966 25.3398 185.829 25.4719 184.703L25.8624 181.375L26.2694 178.11L23.3537 175.186L23.3455 175.113L21.6675 160.39L19.2279 150.611C18.3086 146.914 18.387 143.039 19.4549 139.383C20.5227 135.726 22.5417 132.421 25.3044 129.805L30.9437 128.907L37.7972 122.285H48.8492L52.6387 125.916C60.089 132.04 61.8576 129.38 70.2587 140.908L64.2435 156.8L67.6057 180.24L67.6078 184.482L69.3589 186.434C69.9897 187.137 70.4481 187.978 70.6975 188.89C70.9469 189.802 70.9805 190.759 70.7955 191.687L70.5652 192.841C71.4553 193.224 72.2409 193.815 72.8562 194.565C73.4714 195.315 73.8984 196.201 74.1014 197.151L74.7164 200.029C75.2426 200.725 78.7159 205.369 78.7159 206.639C78.7159 206.83 78.5756 207.014 78.2745 207.218C75.9075 208.826 62.8248 212.102 57.0346 209.779C50.8669 207.306 26.3492 211.016 26.1022 211.054L25.9748 211.073Z" fill="#3F3D56"/>
<path d="M19.0112 155.315L30.4083 153.077C34.6232 159.39 36.886 176.65 36.886 176.65L49.4867 202.855C50.2612 203.327 50.8972 203.996 51.3298 204.795C51.7625 205.593 51.9764 206.492 51.9498 207.401C51.9231 208.309 51.6569 209.194 51.1782 209.966C50.6994 210.738 50.0253 211.368 49.2245 211.794C48.4237 212.219 47.5247 212.424 46.6192 212.387C45.7137 212.351 44.834 212.075 44.0697 211.586C43.3054 211.098 42.6838 210.415 42.2681 209.608C41.8525 208.8 41.6578 207.897 41.7037 206.989L25.2691 175.94L19.0112 155.315Z" fill="#A0616A"/>
<path d="M18.9474 158.026L18.6234 141.039L23.9868 133.844C25.0449 132.435 26.4748 131.351 28.1149 130.715C29.755 130.078 31.54 129.914 33.2681 130.242C35.6077 130.701 37.686 132.035 39.0828 133.972C40.4796 135.909 41.0906 138.306 40.7924 140.678C39.8821 147.871 37.8153 156.873 33.1394 158.909L33.092 158.93L37.9381 175.926L19.9664 178.444L18.9474 158.026Z" fill="#3F3D56"/>
<path d="M86.6361 156.525C86.6361 156.525 72.9588 145.804 65.5407 144.264L58.9751 153.871L76.7316 164.783L111.303 174.807C111.908 175.481 112.68 175.983 113.542 176.261C114.403 176.539 115.322 176.583 116.206 176.39C117.09 176.197 117.907 175.772 118.575 175.16C119.242 174.547 119.736 173.768 120.006 172.903C120.277 172.037 120.314 171.115 120.114 170.23C119.914 169.345 119.484 168.529 118.868 167.865C118.252 167.2 117.471 166.711 116.606 166.447C115.74 166.183 114.82 166.153 113.94 166.361L86.6361 156.525Z" fill="#A0616A"/>
<path d="M62.5729 158.68L48.3191 149.496L45.3427 141.022C44.7645 139.357 44.6623 137.562 45.0477 135.842C45.4331 134.121 46.2907 132.543 47.5237 131.285C49.2065 129.591 51.4678 128.602 53.8504 128.517C56.2329 128.431 58.5589 129.256 60.3581 130.825C65.8107 135.586 72.8375 137.182 71.9224 142.211L74.5476 142.596L87.9718 152.82L80.0555 169.194L62.5729 158.68Z" fill="#3F3D56"/>
<path d="M28.8429 97.3471C30.382 94.9592 33.2704 93.3678 36.0704 93.815C36.331 92.0231 37.0768 90.3372 38.2267 88.9409C39.3767 87.5446 40.8865 86.4915 42.592 85.8961C44.2974 85.3008 46.1331 85.186 47.899 85.5644C49.665 85.9428 51.2936 86.7998 52.6075 88.0421C53.4319 87.3843 54.6303 87.3497 55.6088 87.7409C56.5725 88.1803 57.4109 88.8551 58.0472 89.7036C59.6539 91.7129 60.6872 94.1214 61.0372 96.6729C61.3871 99.2243 61.0406 101.823 60.0345 104.193C60.3767 102.945 59.13 101.772 57.8704 101.492C56.6108 101.212 55.2895 101.477 54.0121 101.294C52.375 101.061 50.9033 100.108 49.2635 99.894C47.8854 99.7139 46.4996 100.068 45.1557 100.423C43.8119 100.779 42.4296 101.141 41.0495 100.976C39.6694 100.812 37.8917 106.057 37.9155 109.751C37.9201 110.451 37.7763 111.35 37.094 111.498C36.2539 111.681 35.767 110.518 34.9673 110.202C34.2549 109.919 33.4008 110.443 33.1527 111.169C33.0519 111.541 33.0411 111.932 33.1212 112.308C33.2013 112.685 33.37 113.037 33.6132 113.335C34.1047 113.926 34.6883 114.434 35.3412 114.839L35.0119 115.113C34.4641 115.839 33.3277 115.871 32.538 115.421C31.7485 114.972 31.2296 114.174 30.7618 113.393C29.3009 110.957 28.0195 108.36 27.5039 105.565C26.9883 102.769 27.3039 99.7349 28.8429 97.3471Z" fill="#2F2E41"/>
<path opacity="0.2" d="M149.218 120.447C150.608 126.256 151.249 132.219 151.126 138.192C151.008 144.165 150.137 150.1 148.534 155.854C147.629 159.103 146.488 162.282 145.119 165.364C144.873 165.917 145.69 166.401 145.938 165.843C148.408 160.29 150.155 154.44 151.135 148.439C152.12 142.437 152.34 136.334 151.792 130.275C151.482 126.879 150.927 123.51 150.131 120.194C149.989 119.6 149.075 119.851 149.218 120.447Z" fill="black"/>
<path opacity="0.2" d="M237.703 161.094L229.78 180.488C228.505 183.609 227.268 186.749 225.941 189.849C224.747 192.64 223.384 195.443 221.373 197.743C219.343 200.066 216.613 201.951 213.494 202.319C212.895 202.39 212.888 203.341 213.494 203.269C216.343 202.933 218.897 201.512 220.959 199.548C223.189 197.424 224.761 194.718 226.044 191.941C227.474 188.846 228.69 185.646 229.979 182.49L234.03 172.575L238.617 161.347C238.848 160.781 237.931 160.535 237.703 161.094Z" fill="black"/>
<path d="M143.792 178.697C143.931 179.104 144.195 179.455 144.546 179.702C144.897 179.948 145.316 180.077 145.745 180.069L154.114 179.853C154.546 179.845 154.963 179.697 155.303 179.431C155.644 179.165 155.89 178.796 156.004 178.378L157.188 165.678C157.608 165.869 158.065 165.964 158.527 165.954C158.927 165.944 159.322 165.855 159.688 165.692C160.055 165.529 160.386 165.295 160.662 165.004C160.938 164.712 161.154 164.37 161.298 163.994C161.442 163.619 161.511 163.219 161.501 162.818C161.491 162.416 161.402 162.02 161.24 161.653C161.077 161.285 160.844 160.954 160.553 160.677C160.263 160.4 159.921 160.183 159.547 160.038C159.173 159.894 158.774 159.825 158.373 159.835C158.189 159.834 158.005 159.853 157.825 159.892C157.629 159.679 157.391 159.51 157.125 159.395C156.86 159.281 156.574 159.223 156.285 159.226L143.412 159.559C143.305 159.563 143.198 159.576 143.094 159.599C142.812 159.651 142.544 159.764 142.309 159.929C142.073 160.095 141.876 160.309 141.73 160.557C141.585 160.805 141.493 161.081 141.463 161.368C141.433 161.654 141.464 161.944 141.554 162.217L143.792 178.697ZM157.431 164.816L158.273 161.79C158.369 161.44 158.372 161.071 158.28 160.721C158.321 160.721 158.357 160.701 158.398 160.701C158.976 160.689 159.535 160.907 159.952 161.308C160.37 161.709 160.612 162.259 160.625 162.839C160.639 163.418 160.423 163.979 160.024 164.399C159.626 164.819 159.078 165.063 158.5 165.078C158.126 165.09 157.757 164.999 157.431 164.816Z" fill="#2F2E41"/>
<path d="M143.094 159.598C143.368 161.171 146.452 162.277 150.16 162.085C153.569 161.927 156.357 160.726 156.868 159.303C156.679 159.247 156.482 159.221 156.285 159.226L143.412 159.559C143.305 159.563 143.199 159.576 143.094 159.598Z" fill="#3F3D56"/>
<path d="M115.916 161.583C116.006 161.31 116.038 161.02 116.007 160.734C115.977 160.448 115.886 160.171 115.74 159.923C115.594 159.675 115.397 159.461 115.162 159.296C114.926 159.131 114.659 159.018 114.376 158.965C114.272 158.943 114.166 158.929 114.059 158.925L101.185 158.592C100.896 158.589 100.61 158.647 100.345 158.762C100.08 158.876 99.8414 159.046 99.6453 159.258C99.465 159.22 99.2812 159.2 99.0968 159.201C98.2876 159.181 97.5035 159.484 96.9169 160.043C96.3303 160.602 95.9894 161.373 95.969 162.184C95.9487 162.996 96.2507 163.782 96.8086 164.37C97.3664 164.958 98.1344 165.3 98.9436 165.321C99.4048 165.33 99.8623 165.236 100.282 165.045L101.467 177.744C101.581 178.162 101.826 178.531 102.167 178.797C102.507 179.063 102.925 179.211 103.356 179.22L111.725 179.436C112.154 179.443 112.574 179.315 112.925 179.068C113.276 178.822 113.54 178.47 113.679 178.064L115.916 161.583ZM98.9703 164.445C98.3926 164.43 97.8444 164.185 97.4459 163.765C97.0475 163.346 96.8314 162.784 96.8449 162.205C96.8584 161.625 97.1005 161.075 97.5181 160.674C97.9357 160.274 98.4947 160.055 99.0725 160.067C99.1134 160.067 99.1495 160.087 99.1904 160.087C99.0988 160.438 99.101 160.807 99.1968 161.156L100.04 164.182C99.7136 164.366 99.3439 164.456 98.9703 164.445Z" fill="#2F2E41"/>
<path d="M114.376 158.965C114.102 160.538 111.018 161.643 107.311 161.451C103.901 161.293 101.113 160.093 100.602 158.67C100.791 158.614 100.988 158.588 101.185 158.592L114.059 158.925C114.166 158.929 114.272 158.943 114.376 158.965Z" fill="#3F3D56"/>
<path d="M102.176 131.378C102.821 130.905 103.561 130.58 104.345 130.426C105.129 130.271 105.937 130.291 106.712 130.484C107.487 130.676 108.211 131.037 108.832 131.54C109.454 132.044 109.957 132.677 110.308 133.397L129.583 131.059L125.08 140.113L107.467 140.946C106.222 141.456 104.834 141.491 103.565 141.043C102.297 140.596 101.236 139.698 100.584 138.518C99.9314 137.339 99.7332 135.961 100.027 134.645C100.32 133.329 101.085 132.166 102.176 131.378Z" fill="#9E616A"/>
<path d="M165.037 112.936C164.468 114.055 163.776 115.357 162.999 116.776C160.27 121.778 156.52 128.235 153.632 133.148C151.165 137.34 149.323 140.413 149.273 140.498L149.194 140.625L132.232 141.008L128.593 141.091L127.355 141.119L114.064 141.42L114.19 140.628L115.432 132.778L115.558 131.976L127.2 130.037L131.455 129.331L140.895 127.76L142.534 122.906C145.422 114.376 150.248 106.635 156.63 100.296C156.817 100.115 157.006 99.9444 157.205 99.7829C157.379 99.6435 157.556 99.5104 157.736 99.39C158.501 100.477 159.183 101.459 159.761 102.248L161.161 104.158C163.071 106.768 164.394 109.763 165.037 112.936Z" fill="#501F6B"/>
<path d="M94.5089 141.948C94.6481 142.355 94.9121 142.706 95.2631 142.953C95.614 143.199 96.0339 143.328 96.4623 143.32L104.831 143.104C105.263 143.096 105.68 142.948 106.021 142.682C106.361 142.416 106.607 142.047 106.721 141.629L107.905 128.929C108.325 129.12 108.783 129.214 109.244 129.205C110.053 129.185 110.821 128.843 111.379 128.255C111.937 127.667 112.239 126.88 112.219 126.069C112.198 125.257 111.857 124.487 111.271 123.928C110.684 123.368 109.9 123.065 109.091 123.086C108.906 123.085 108.723 123.104 108.542 123.143C108.346 122.93 108.108 122.761 107.843 122.646C107.578 122.532 107.291 122.474 107.003 122.477L94.1289 122.81C94.0221 122.814 93.9158 122.827 93.8113 122.85C93.529 122.902 93.2612 123.015 93.026 123.18C92.7908 123.346 92.5937 123.56 92.4478 123.808C92.3019 124.056 92.2108 124.332 92.1804 124.619C92.15 124.905 92.1812 125.195 92.2718 125.468L94.5089 141.948ZM108.148 128.067L108.991 125.041C109.087 124.691 109.089 124.322 108.997 123.972C109.038 123.972 109.074 123.952 109.115 123.952C109.693 123.94 110.252 124.158 110.67 124.559C111.087 124.96 111.329 125.51 111.343 126.09C111.356 126.669 111.14 127.23 110.742 127.65C110.343 128.07 109.795 128.314 109.217 128.329C108.844 128.341 108.474 128.25 108.148 128.067Z" fill="#CCCCCC"/>
<path d="M93.8113 122.85C94.0856 124.422 97.1692 125.528 100.877 125.336C104.287 125.178 107.074 123.977 107.585 122.555C107.396 122.499 107.2 122.472 107.003 122.477L94.1289 122.81C94.0221 122.814 93.9159 122.827 93.8113 122.85Z" fill="#3F3D56"/>
</g>
<defs>
<clipPath id="clip0_229_431">
<rect width="266" height="267" fill="white"/>
</clipPath>
</defs>
</svg>
