<svg width="354" height="259" viewBox="0 0 354 259" fill="none" xmlns="http://www.w3.org/2000/svg">
<g clip-path="url(#clip0_232_1286)">
<path d="M251.123 189.961H60.8724C59.1773 189.96 57.5521 189.291 56.3534 188.102C55.1548 186.913 54.4805 185.302 54.4785 183.621V29.9902C54.4805 28.3091 55.1548 26.6973 56.3534 25.5086C57.5521 24.3199 59.1773 23.6512 60.8724 23.6492H251.123C252.818 23.6512 254.443 24.3199 255.642 25.5086C256.84 26.6973 257.515 28.309 257.517 29.9902V183.621C257.515 185.302 256.84 186.913 255.642 188.102C254.443 189.291 252.818 189.96 251.123 189.961Z" fill="#E6E6E6"/>
<path d="M65.186 28.1626C63.5531 28.1645 61.9876 28.8086 60.833 29.9537C59.6784 31.0988 59.0289 32.6514 59.0271 34.2708V179.344C59.029 180.963 59.6785 182.515 60.8331 183.66C61.9878 184.805 63.5532 185.45 65.186 185.451H195.405C210.666 185.434 225.298 179.414 236.09 168.712C246.881 158.01 252.951 143.499 252.969 128.364V34.2708C252.967 32.6514 252.317 31.0988 251.163 29.9537C250.008 28.8086 248.443 28.1645 246.81 28.1626L65.186 28.1626Z" fill="white"/>
<path d="M216.43 93.4083H181.933C181.214 93.4075 180.524 93.1237 180.015 92.6192C179.507 92.1147 179.221 91.4306 179.22 90.7171V73.6895C179.221 72.976 179.507 72.2919 180.015 71.7874C180.524 71.2828 181.214 70.999 181.933 70.9982H216.43C217.15 70.999 217.84 71.2828 218.348 71.7874C218.857 72.2919 219.143 72.976 219.144 73.6895C221.279 79.7152 221.582 85.4407 219.144 90.7171C219.143 91.4306 218.857 92.1147 218.348 92.6192C217.84 93.1238 217.15 93.4075 216.43 93.4083Z" fill="#E6E6E6"/>
<path d="M212.343 91.7627H183.035C182.424 91.762 181.838 91.5209 181.405 91.0923C180.973 90.6636 180.73 90.0824 180.729 89.4762V75.0095C180.73 74.4033 180.973 73.8221 181.405 73.3935C181.838 72.9648 182.424 72.7237 183.035 72.723H212.343C212.955 72.7237 213.541 72.9648 213.973 73.3935C214.405 73.8221 214.648 74.4033 214.649 75.0095C216.627 80.1617 216.945 85.037 214.649 89.4762C214.648 90.0824 214.405 90.6636 213.973 91.0923C213.541 91.5209 212.955 91.762 212.343 91.7627Z" fill="white"/>
<path d="M210.763 102.328H187.524C186.841 102.329 186.185 102.061 185.701 101.582C185.216 101.103 184.944 100.454 184.942 99.7758C184.941 99.0978 185.211 98.4471 185.694 97.9668C186.176 97.4864 186.831 97.2157 187.515 97.2141H210.763C211.446 97.2154 212.1 97.4854 212.583 97.9647C213.065 98.4441 213.336 99.0937 213.336 99.771C213.336 100.448 213.065 101.098 212.583 101.577C212.1 102.057 211.446 102.327 210.763 102.328Z" fill="#E6E6E6"/>
<path d="M195.138 76.6293C194.871 76.6302 194.615 76.736 194.426 76.9236C194.237 77.1112 194.131 77.3654 194.13 77.6305V88.4685C194.13 88.6435 194.176 88.8155 194.264 88.9672C194.352 89.1189 194.479 89.245 194.632 89.3329C194.784 89.4208 194.957 89.4675 195.134 89.4682C195.31 89.4689 195.484 89.4236 195.637 89.3369L205.283 83.8824C205.438 83.7949 205.567 83.6681 205.657 83.5151C205.746 83.362 205.793 83.1881 205.792 83.0112C205.792 82.8343 205.744 82.6608 205.654 82.5082C205.564 82.3556 205.434 82.2296 205.278 82.1429L195.633 76.759C195.482 76.6742 195.312 76.6295 195.138 76.6293Z" fill="#E6E6E6"/>
<path d="M335.867 238.264C335.335 237.593 334.613 237.096 333.793 236.836C332.973 236.576 332.094 236.566 331.268 236.806L331.087 236.859L329.468 243.13C329.225 242.196 328.706 240.086 328.379 238.02L328.35 237.85L328.19 237.92C326.496 238.662 324.905 239.613 323.452 240.752C320.879 242.799 318.786 245.377 317.318 248.307C315.851 251.238 315.045 254.45 314.956 257.72L314.953 257.841L314.95 257.916L315.165 257.841L319.767 256.209C321.805 256.387 323.857 256.112 325.773 255.403C327.69 254.695 329.422 253.57 330.845 252.113C332.704 250.168 333.98 247.666 335.213 245.246C335.574 244.541 335.944 243.813 336.322 243.113C336.743 242.353 336.926 241.484 336.845 240.62C336.764 239.755 336.423 238.935 335.867 238.264Z" fill="#F2F2F2"/>
<path d="M218.343 78.3456C218.435 78.8204 218.631 79.2692 218.917 79.6606C219.203 80.052 219.573 80.3764 219.999 80.6109C220.425 80.8455 220.898 80.9845 221.385 81.0182C221.871 81.0519 222.359 80.9794 222.814 80.8058L236.568 96.6738L238.309 90.816L224.673 76.2986C224.329 75.5598 223.723 74.972 222.97 74.6467C222.218 74.3213 221.371 74.281 220.591 74.5333C219.811 74.7856 219.151 75.3131 218.736 76.0158C218.322 76.7184 218.182 77.5474 218.343 78.3456Z" fill="#FFB8B8"/>
<path d="M273.775 254.047H269.224L267.058 236.636H273.776L273.775 254.047Z" fill="#FFB6B6"/>
<path d="M273.654 252.573L268.794 250.613L268.655 250.556L265.971 252.573C264.456 252.573 263.003 253.17 261.932 254.233C260.861 255.295 260.259 256.736 260.259 258.238V258.422H274.935V252.573H273.654Z" fill="#2F2E41"/>
<path d="M306.246 254.047H301.694L299.529 236.636H306.247L306.246 254.047Z" fill="#FFB6B6"/>
<path d="M306.125 252.573L301.265 250.613L301.125 250.556L298.442 252.573C296.927 252.573 295.474 253.17 294.403 254.233C293.332 255.295 292.73 256.736 292.729 258.238V258.422H307.406V252.573H306.125Z" fill="#2F2E41"/>
<path d="M295.503 150.074C295.503 150.074 301.212 155.964 301.212 160.804C301.212 165.644 299.785 172.289 301.212 173.744C302.64 175.198 304.424 176.968 302.283 179.091C300.142 181.214 299.071 182.276 300.499 183.691C301.926 185.106 301.212 209.877 301.212 209.877L308.706 243.141H299.265L287.296 209.877L284.085 182.275L273.699 208.816L274.846 243.426L264.977 243.141L260.891 206.338C260.891 206.338 266.957 171.331 265.887 170.433C264.816 169.536 265.887 167.725 265.887 167.725L268.741 154.32L295.503 150.074Z" fill="#2F2E41"/>
<path d="M284.325 108.31C284.325 108.31 286.267 100.724 277.323 98.549C268.38 96.374 242.815 93.5796 242.815 93.5796L229.895 79.9836L225.517 86.2887L240 104.138L274.318 111.128L284.325 108.31Z" fill="#3F3D56"/>
<path d="M227.645 85.8239C228.046 85.3084 228.36 84.7316 228.574 84.1161L230.427 79.601L229.946 79.5811C229.28 79.4569 228.596 79.4736 227.937 79.6301C227.279 79.7866 226.661 80.0793 226.124 80.4892C225.588 80.899 225.145 81.4166 224.824 82.0081C224.503 82.5997 224.312 83.2517 224.263 83.9216C224.203 84.501 224.308 85.0857 224.566 85.6088C224.698 85.8681 224.89 86.0928 225.126 86.2645C225.362 86.4362 225.635 86.55 225.924 86.5966C226.253 86.614 226.58 86.5529 226.88 86.4184C227.179 86.2839 227.441 86.0801 227.645 85.8239Z" fill="#E6E6E6"/>
<path d="M266.92 156.128L265.849 163.823C265.849 163.823 267.99 166.104 269.061 165.819C270.131 165.534 274.056 163.874 274.056 163.874C274.056 163.874 278.695 166.389 281.192 166.674C283.69 166.959 296.893 165.249 297.249 164.393C297.606 163.538 301.754 160.191 301.754 160.191L300.104 150.427L266.92 156.128Z" fill="#E6E6E6"/>
<path d="M301.685 129.206C301.685 129.206 300.778 136.627 301.492 137.31C302.206 137.989 300.778 142.289 299.351 145.119C297.924 147.95 300.422 148.304 300.422 150.427C300.422 152.551 301.492 160.336 301.492 160.336C301.492 160.336 290.431 161.043 288.646 159.274C286.862 157.505 284.008 158.92 280.083 162.813C276.158 166.705 267.633 163.52 265.849 161.751C264.065 159.982 267.237 153.612 268.308 152.377C269.378 151.142 267.276 152.572 266.206 148.658C265.135 144.744 267.237 145.119 269.021 143.35C270.805 141.581 269.021 138.396 267.594 135.211C266.167 132.026 267.237 108.317 267.237 102.655C267.237 96.9935 275.087 96.2858 275.087 96.2858L278.195 92.4109L280.479 89.5623L284.953 89.3854L285.071 89.3818L289.399 89.2084L291.501 91.636L296.14 96.9935L301.492 98.0551C305.774 99.4706 304.703 108.317 304.703 108.317L301.685 129.206Z" fill="#3F3D56"/>
<path d="M284.732 87.8503C289.798 87.8503 293.905 83.7778 293.905 78.7541C293.905 73.7304 289.798 69.6578 284.732 69.6578C279.667 69.6578 275.56 73.7304 275.56 78.7541C275.56 83.7778 279.667 87.8503 284.732 87.8503Z" fill="#FFB6B6"/>
<path d="M295.367 75.6941C292.845 74.1598 293.168 70.1479 290.737 68.7469C289.529 68.0563 288.17 67.6653 286.777 67.6072C285.384 67.5492 283.997 67.8259 282.735 68.4136C281.023 67.6872 278.972 68.2669 277.602 69.5787C276.232 70.8904 275.491 72.8254 275.272 74.7715C275.114 76.7268 275.256 78.6945 275.692 80.6078C275.828 79.8391 275.964 79.0704 276.1 78.3017L283.331 76.7344C282.691 77.3047 282.051 77.8751 281.411 78.4455C284.686 79.1848 288.122 78.6519 291.012 76.9563C294.16 78.3558 293.59 81.4988 290.826 85.6698C291.897 87.4391 298.242 77.4424 295.367 75.6941Z" fill="#2F2E41"/>
<path d="M291.501 91.636C291.48 91.6525 291.459 91.6678 291.437 91.682C290.681 92.1291 289.816 92.3616 288.935 92.3543C287.784 92.4496 286.64 92.094 285.749 91.3635C285.282 90.9247 283.423 91.8518 282.202 92.3649C280.922 92.891 279.487 92.9075 278.195 92.4109L280.479 89.5623L284.242 88.7347H285.182L289.399 89.2085L291.501 91.636Z" fill="#E6E6E6"/>
<path d="M353.087 258.857L225.411 259C225.338 259 225.265 258.986 225.197 258.959C225.129 258.931 225.067 258.891 225.015 258.839C224.963 258.788 224.921 258.727 224.893 258.66C224.864 258.593 224.85 258.521 224.849 258.448C224.849 258.375 224.863 258.303 224.891 258.236C224.918 258.168 224.959 258.107 225.011 258.055C225.063 258.003 225.124 257.962 225.192 257.934C225.26 257.905 225.332 257.891 225.406 257.89H225.411L353.087 257.747C353.235 257.748 353.377 257.807 353.481 257.911C353.585 258.015 353.644 258.155 353.644 258.302C353.644 258.449 353.585 258.589 353.481 258.693C353.377 258.797 353.235 258.856 353.087 258.857Z" fill="#CACACA"/>
<path d="M200.213 72.5437H199.273V5.89459H236.229V6.82647H200.213V72.5437Z" fill="#3F3D56"/>
<path d="M264.969 0H240.068C238.449 0 236.895 0.638169 235.75 1.77411C234.604 2.91006 233.961 4.45072 233.961 6.05719C233.961 7.66366 234.604 9.20433 235.75 10.3403C236.895 11.4762 238.449 12.1144 240.068 12.1144H264.969C266.589 12.1144 268.143 11.4762 269.288 10.3403C270.434 9.20433 271.077 7.66366 271.077 6.05719C271.077 4.45072 270.434 2.91006 269.288 1.77411C268.143 0.638169 266.589 0 264.969 0Z" fill="#501F6B"/>
<path d="M199.198 78.6411C202.298 78.6411 204.811 76.1491 204.811 73.0751C204.811 70.001 202.298 67.509 199.198 67.509C196.099 67.509 193.586 70.001 193.586 73.0751C193.586 76.1491 196.099 78.6411 199.198 78.6411Z" fill="#501F6B"/>
<path d="M131.566 93.99L156.188 88.3395L163.255 86.7176C164.139 86.5147 163.772 85.1649 162.888 85.3679L138.266 91.0184L131.198 92.6403C130.314 92.8432 130.682 94.193 131.566 93.99Z" fill="#F2F2F2"/>
<path d="M156.991 79.2746L170.172 85.2877C170.622 85.442 171.043 85.6682 171.42 85.9574C171.783 86.3108 171.519 86.6507 171.222 86.9585C170.335 87.7801 169.398 88.547 168.416 89.255L162.8 93.7827C162.096 94.351 163.09 95.3428 163.789 94.7798L168.68 90.8363L171.125 88.8646C171.818 88.306 172.661 87.7359 172.94 86.846C173.525 84.9765 171.216 84.2331 169.933 83.6478L164.193 81.0292L157.709 78.0712C156.892 77.6983 156.168 78.8989 156.991 79.2746Z" fill="#F2F2F2"/>
<path d="M338.887 125.05C336.539 123.471 333.686 122.885 330.897 122.685C327.728 122.514 324.552 122.518 321.383 122.697C318.091 122.826 314.806 123.062 311.527 123.405C308.253 123.749 304.993 124.199 301.747 124.756C298.84 125.205 295.964 125.829 293.134 126.625C290.456 127.361 287.933 128.569 285.687 130.192C283.715 131.663 282.199 133.652 281.31 135.935C280.438 138.075 280.29 140.439 280.888 142.67C281.206 143.754 281.752 144.759 282.489 145.62C283.34 146.564 284.349 147.356 285.471 147.962C287.801 149.281 290.44 150.074 292.547 151.763C293.102 152.205 293.609 152.704 294.057 153.253C294.362 153.677 294.783 154.005 295.271 154.199C295.733 154.359 296.232 154.38 296.706 154.259C297.18 154.138 297.608 153.881 297.934 153.519C298.356 152.947 298.708 152.326 298.982 151.671L300.094 149.545C300.168 149.359 300.261 149.18 300.372 149.013C300.455 148.914 300.306 149.015 300.334 148.989C300.35 148.975 300.382 148.975 300.4 148.964C300.492 148.918 300.588 148.882 300.687 148.855C301.715 148.466 302.748 148.089 303.785 147.725C307.614 146.372 311.489 145.124 315.425 144.114C317.45 143.575 319.504 143.149 321.578 142.838C324.263 142.458 326.989 142.502 329.687 142.243C332.591 141.964 335.588 141.381 338.079 139.795C340.138 138.554 341.725 136.67 342.59 134.44C342.965 133.377 343.094 132.244 342.966 131.124C342.643 128.592 340.975 126.454 338.887 125.05Z" fill="#E6E6E6"/>
<path d="M334.081 126.473C331.959 125.046 329.381 124.516 326.861 124.336C323.997 124.181 321.126 124.185 318.263 124.346C315.288 124.463 312.319 124.676 309.357 124.987C306.398 125.297 303.452 125.704 300.519 126.207C297.892 126.613 295.293 127.177 292.736 127.896C290.315 128.561 288.035 129.653 286.005 131.12C284.224 132.449 282.853 134.246 282.05 136.309C281.262 138.244 281.128 140.379 281.669 142.396C281.957 143.375 282.449 144.284 283.115 145.061C283.885 145.915 284.797 146.631 285.811 147.178C287.916 148.37 290.301 149.086 292.205 150.613C292.707 151.012 293.164 151.463 293.57 151.959C293.845 152.342 294.226 152.639 294.666 152.814C295.084 152.959 295.535 152.978 295.964 152.868C296.392 152.759 296.778 152.526 297.073 152.2C297.454 151.682 297.772 151.122 298.02 150.53L299.025 148.608C299.092 148.44 299.176 148.279 299.276 148.127C299.351 148.038 299.216 148.129 299.242 148.106C299.256 148.093 299.285 148.093 299.301 148.083C299.384 148.042 299.471 148.009 299.561 147.985C300.49 147.633 301.423 147.293 302.36 146.964C305.82 145.741 309.322 144.614 312.879 143.701C314.709 143.214 316.566 142.829 318.439 142.547C320.866 142.204 323.329 142.244 325.767 142.01C328.392 141.757 331.1 141.231 333.351 139.797C335.212 138.676 336.646 136.974 337.427 134.958C337.766 133.998 337.883 132.973 337.768 131.962C337.475 129.674 335.968 127.741 334.081 126.473Z" fill="white"/>
<path d="M329.636 129.049L295.056 135.374C294.957 135.393 294.856 135.392 294.757 135.372C294.659 135.352 294.565 135.312 294.482 135.256C294.399 135.2 294.328 135.128 294.273 135.044C294.218 134.961 294.18 134.867 294.161 134.769C294.143 134.671 294.144 134.57 294.164 134.472C294.185 134.375 294.225 134.282 294.282 134.2C294.339 134.117 294.412 134.047 294.496 133.993C294.581 133.938 294.675 133.901 294.774 133.883L294.779 133.882L329.359 127.557C329.458 127.539 329.559 127.54 329.657 127.561C329.755 127.582 329.849 127.622 329.931 127.678C330.014 127.735 330.085 127.807 330.139 127.89C330.194 127.974 330.232 128.068 330.25 128.166C330.268 128.264 330.267 128.364 330.246 128.462C330.225 128.559 330.185 128.651 330.128 128.733C330.071 128.816 329.998 128.886 329.914 128.94C329.829 128.994 329.735 129.031 329.636 129.049Z" fill="#E6E6E6"/>
<path d="M330.488 133.629L295.908 139.954C295.809 139.973 295.708 139.972 295.609 139.952C295.511 139.931 295.417 139.892 295.334 139.836C295.251 139.78 295.18 139.708 295.125 139.624C295.07 139.54 295.032 139.447 295.013 139.349C294.995 139.251 294.996 139.15 295.016 139.052C295.037 138.955 295.077 138.862 295.134 138.78C295.191 138.697 295.264 138.627 295.348 138.573C295.433 138.518 295.527 138.481 295.626 138.463L295.631 138.462L330.211 132.137C330.309 132.119 330.411 132.12 330.509 132.141C330.607 132.162 330.701 132.202 330.783 132.258C330.866 132.315 330.937 132.387 330.991 132.47C331.046 132.554 331.084 132.648 331.102 132.746C331.12 132.843 331.119 132.944 331.098 133.042C331.077 133.139 331.037 133.231 330.98 133.313C330.923 133.395 330.85 133.466 330.766 133.52C330.681 133.574 330.587 133.611 330.488 133.629Z" fill="#E6E6E6"/>
<path d="M300.79 143.797L296.76 144.534C296.561 144.57 296.355 144.526 296.189 144.412C296.022 144.297 295.908 144.122 295.872 143.925C295.835 143.728 295.879 143.524 295.993 143.358C296.108 143.193 296.284 143.079 296.482 143.042L300.512 142.305C300.712 142.269 300.917 142.313 301.084 142.427C301.25 142.541 301.365 142.716 301.401 142.914C301.438 143.111 301.394 143.315 301.28 143.481C301.165 143.646 300.989 143.76 300.79 143.797Z" fill="#E6E6E6"/>
<path d="M297.87 162.837C299.637 162.514 300.804 160.832 300.478 159.081C300.153 157.329 298.457 156.171 296.691 156.494C294.925 156.817 293.757 158.499 294.083 160.251C294.408 162.002 296.104 163.16 297.87 162.837Z" fill="#D1D3D4"/>
<path d="M118.913 92.5457H89.3769C88.0057 92.5441 86.6912 92.0032 85.7216 91.0417C84.7521 90.0802 84.2067 88.7765 84.2051 87.4167V68.1117C84.2067 66.7519 84.7521 65.4483 85.7216 64.4868C86.6912 63.5253 88.0057 62.9844 89.3769 62.9828H118.913C120.284 62.9844 121.599 63.5253 122.568 64.4868C123.538 65.4483 124.083 66.7519 124.085 68.1117V87.4168C124.083 88.7766 123.538 90.0802 122.568 91.0417C121.599 92.0032 120.284 92.5441 118.913 92.5457Z" fill="#E6E6E6"/>
<path d="M115.667 91.5057H89.9615C88.7682 91.5043 87.6241 91.0336 86.7803 90.1967C85.9365 89.3599 85.4619 88.2253 85.4604 87.0419V70.2404C85.4619 69.057 85.9365 67.9224 86.7803 67.0856C87.6241 66.2487 88.7682 65.778 89.9615 65.7766H115.667C116.861 65.778 118.005 66.2487 118.849 67.0856C119.692 67.9224 120.167 69.057 120.169 70.2404V87.0419C120.167 88.2254 119.692 89.3599 118.849 90.1967C118.005 91.0336 116.861 91.5043 115.667 91.5057Z" fill="white"/>
<path d="M123.073 109.938H85.1743C84.9401 109.938 84.7157 109.845 84.5503 109.681C84.3849 109.516 84.292 109.294 84.292 109.061C84.292 108.829 84.3849 108.606 84.5503 108.442C84.7157 108.278 84.9401 108.185 85.1743 108.184H123.073C123.307 108.185 123.532 108.278 123.697 108.442C123.863 108.606 123.956 108.829 123.956 109.061C123.956 109.294 123.863 109.516 123.697 109.681C123.532 109.845 123.307 109.938 123.073 109.938Z" fill="#E6E6E6"/>
<path d="M123.073 104.927H85.1743C84.9401 104.926 84.7157 104.834 84.5503 104.669C84.3849 104.505 84.292 104.282 84.292 104.05C84.292 103.818 84.3849 103.595 84.5503 103.431C84.7157 103.266 84.9401 103.174 85.1743 103.173H123.073C123.307 103.174 123.532 103.266 123.697 103.431C123.863 103.595 123.956 103.818 123.956 104.05C123.956 104.282 123.863 104.505 123.697 104.669C123.532 104.834 123.307 104.926 123.073 104.927Z" fill="#E6E6E6"/>
<path d="M123.073 114.95H85.1744C84.9398 114.95 84.7149 114.857 84.549 114.693C84.3832 114.528 84.29 114.305 84.29 114.073C84.29 113.84 84.3832 113.617 84.549 113.453C84.7149 113.288 84.9398 113.196 85.1744 113.196H123.073C123.308 113.196 123.533 113.288 123.699 113.453C123.865 113.617 123.958 113.84 123.958 114.073C123.958 114.305 123.865 114.528 123.699 114.693C123.533 114.857 123.308 114.95 123.073 114.95Z" fill="#E6E6E6"/>
<path d="M123.073 119.961H85.1744C84.9398 119.961 84.7149 119.869 84.549 119.704C84.3832 119.54 84.29 119.317 84.29 119.084C84.29 118.851 84.3832 118.628 84.549 118.464C84.7149 118.299 84.9398 118.207 85.1744 118.207H123.073C123.308 118.207 123.533 118.299 123.699 118.464C123.865 118.628 123.958 118.851 123.958 119.084C123.958 119.317 123.865 119.54 123.699 119.704C123.533 119.869 123.308 119.961 123.073 119.961Z" fill="#E6E6E6"/>
<path d="M123.073 124.972H85.1744C84.9398 124.972 84.7149 124.88 84.549 124.716C84.3832 124.551 84.29 124.328 84.29 124.095C84.29 123.863 84.3832 123.64 84.549 123.475C84.7149 123.311 84.9398 123.218 85.1744 123.218H123.073C123.308 123.218 123.533 123.311 123.699 123.475C123.865 123.64 123.958 123.863 123.958 124.095C123.958 124.328 123.865 124.551 123.699 124.716C123.533 124.88 123.308 124.972 123.073 124.972Z" fill="#E6E6E6"/>
<path d="M123.073 129.984H85.1743C84.9401 129.983 84.7157 129.891 84.5503 129.726C84.3849 129.562 84.292 129.339 84.292 129.107C84.292 128.875 84.3849 128.652 84.5503 128.487C84.7157 128.323 84.9401 128.23 85.1743 128.23H123.073C123.307 128.23 123.532 128.323 123.697 128.487C123.863 128.652 123.956 128.875 123.956 129.107C123.956 129.339 123.863 129.562 123.697 129.726C123.532 129.891 123.307 129.983 123.073 129.984Z" fill="#E6E6E6"/>
<path d="M102.229 118.491H103.169V154.388H35.2048V153.456H102.229V118.491Z" fill="#3F3D56"/>
<path d="M6.46397 160.283H31.3649C32.9848 160.283 34.5383 159.644 35.6837 158.508C36.8291 157.373 37.4726 155.832 37.4726 154.225C37.4726 152.619 36.8291 151.078 35.6837 149.942C34.5383 148.806 32.9848 148.168 31.3649 148.168H6.46397C4.84409 148.168 3.29056 148.806 2.14513 149.942C0.999699 151.078 0.356201 152.619 0.356201 154.225C0.356201 155.832 0.999699 157.373 2.14513 158.508C3.29056 159.644 4.84409 160.283 6.46397 160.283Z" fill="#501F6B"/>
<path d="M103.353 121.196C106.453 121.196 108.966 118.704 108.966 115.63C108.966 112.556 106.453 110.064 103.353 110.064C100.254 110.064 97.7407 112.556 97.7407 115.63C97.7407 118.704 100.254 121.196 103.353 121.196Z" fill="#501F6B"/>
<path d="M132.363 117.176C140.603 118.913 138.507 119.252 146.747 120.989L153.843 122.485C154.73 122.672 154.973 121.295 154.085 121.107C145.845 119.371 147.941 119.032 139.701 117.295L132.605 115.799C131.718 115.612 131.475 116.989 132.363 117.176Z" fill="#F2F2F2"/>
<path d="M151.342 113.112L160.72 124.091C161.062 124.42 161.347 124.801 161.565 125.221C161.744 125.694 161.359 125.891 160.958 126.045C159.804 126.418 158.628 126.719 157.436 126.949L150.417 128.695C149.536 128.915 150.014 130.231 150.887 130.014L157.001 128.492L160.058 127.732C160.924 127.516 161.931 127.354 162.563 126.664C163.891 125.216 162.116 123.573 161.203 122.505L157.119 117.724L152.506 112.323C151.924 111.642 150.756 112.426 151.342 113.112Z" fill="#F2F2F2"/>
<path d="M181.077 160.97C188.285 160.97 194.129 155.175 194.129 148.026C194.129 140.877 188.285 135.082 181.077 135.082C173.868 135.082 168.025 140.877 168.025 148.026C168.025 155.175 173.868 160.97 181.077 160.97Z" fill="#E6E6E6"/>
<path d="M179.805 159.32C185.285 159.32 189.727 154.914 189.727 149.479C189.727 144.045 185.285 139.639 179.805 139.639C174.325 139.639 169.882 144.045 169.882 149.479C169.882 154.914 174.325 159.32 179.805 159.32Z" fill="white"/>
<path d="M178.024 156.216C177.799 156.216 177.577 156.164 177.375 156.064C177.173 155.964 176.998 155.819 176.863 155.64L173.302 150.932C173.188 150.78 173.104 150.608 173.057 150.425C173.01 150.242 172.999 150.051 173.026 149.864C173.053 149.677 173.117 149.497 173.214 149.334C173.311 149.171 173.439 149.029 173.592 148.916C173.744 148.802 173.918 148.72 174.102 148.673C174.287 148.626 174.479 148.615 174.668 148.642C174.857 148.668 175.038 148.732 175.202 148.828C175.366 148.924 175.51 149.052 175.624 149.203L175.625 149.204L177.955 152.284L183.938 143.384C184.044 143.226 184.179 143.091 184.338 142.985C184.496 142.88 184.674 142.806 184.861 142.769C185.048 142.732 185.241 142.732 185.428 142.768C185.615 142.805 185.794 142.878 185.952 142.983C186.111 143.088 186.247 143.223 186.354 143.38C186.46 143.537 186.534 143.714 186.571 143.899C186.608 144.085 186.608 144.276 186.571 144.462C186.534 144.647 186.46 144.824 186.354 144.981L179.233 155.575C179.104 155.766 178.93 155.925 178.727 156.036C178.524 156.148 178.297 156.209 178.065 156.216C178.051 156.216 178.038 156.216 178.024 156.216Z" fill="#E6E6E6"/>
<path d="M302.949 161.36C303.37 161.115 303.731 160.782 304.007 160.383C304.283 159.985 304.468 159.531 304.548 159.054C304.629 158.578 304.603 158.089 304.472 157.623C304.341 157.158 304.109 156.726 303.792 156.359L314.272 138.197L308.123 138.529L298.887 156.128C298.3 156.697 297.944 157.46 297.887 158.272C297.829 159.084 298.074 159.888 298.575 160.533C299.076 161.178 299.797 161.619 300.604 161.771C301.41 161.924 302.245 161.777 302.949 161.36Z" fill="#FFB8B8"/>
<path d="M291.146 97.7013C291.146 97.7013 302.245 94.1626 305.099 102.655C307.954 111.148 317.55 134.15 317.55 134.15L307.24 155.028L302.602 150.074L307.559 135.565L293.286 114.333L291.146 97.7013Z" fill="#3F3D56"/>
<path d="M307.594 152.896C307.26 152.335 306.836 151.832 306.339 151.406L302.798 148.026L302.601 148.462C302.238 149.029 302 149.665 301.902 150.33C301.804 150.995 301.85 151.672 302.034 152.318C302.219 152.964 302.54 153.564 302.975 154.079C303.41 154.594 303.95 155.011 304.559 155.305C305.079 155.576 305.666 155.696 306.251 155.651C306.543 155.626 306.824 155.533 307.073 155.379C307.321 155.225 307.529 155.015 307.68 154.766C307.818 154.471 307.882 154.146 307.867 153.821C307.852 153.495 307.758 153.178 307.594 152.896Z" fill="#E6E6E6"/>
<path d="M180.964 165.44H180.024V201.337H211.811V200.405H180.964V165.44Z" fill="#3F3D56"/>
<path d="M246.66 201.174C246.658 199.568 246.014 198.028 244.869 196.893C243.724 195.757 242.172 195.119 240.552 195.117H215.651C214.031 195.117 212.478 195.755 211.332 196.891C210.187 198.027 209.543 199.568 209.543 201.174C209.543 202.781 210.187 204.321 211.332 205.457C212.478 206.593 214.031 207.231 215.651 207.231H240.552C242.172 207.23 243.724 206.591 244.869 205.456C246.014 204.32 246.658 202.78 246.66 201.174Z" fill="#501F6B"/>
<path d="M179.84 168.145C182.939 168.145 185.452 165.653 185.452 162.579C185.452 159.505 182.939 157.013 179.84 157.013C176.74 157.013 174.227 159.505 174.227 162.579C174.227 165.653 176.74 168.145 179.84 168.145Z" fill="#501F6B"/>
</g>
<defs>
<clipPath id="clip0_232_1286">
<rect width="353.288" height="259" fill="white" transform="translate(0.356201)"/>
</clipPath>
</defs>
</svg>
