<svg width="588" height="318" viewBox="0 0 588 318" fill="none" xmlns="http://www.w3.org/2000/svg">
<path d="M37.2422 265.07L35.4081 274.272C35.2699 274.975 35.1254 275.691 34.9684 276.401C33.4354 276.084 31.846 276.172 30.358 276.659C31.5386 278.346 32.5965 280.115 33.5237 281.954C32.368 285.515 30.6721 288.807 27.833 291.187C25.9368 292.742 23.672 293.781 21.2571 294.206C18.8422 294.631 16.3586 294.426 14.0458 293.612L14.1274 293.247C11.0748 287.324 12.733 279.856 16.5268 274.385C18.4618 271.686 20.7545 269.262 23.3419 267.181C25.9046 265.045 28.6746 263.129 31.4195 261.238C32.036 260.815 32.7649 260.584 33.5131 260.576C34.2612 260.569 34.9947 260.784 35.6197 261.196C36.2447 261.607 36.7329 262.195 37.0219 262.885C37.3109 263.575 37.3876 264.336 37.2422 265.07Z" fill="#BBBABA"/>
<path d="M14.699 315.753C13.927 310.129 13.1331 304.434 13.6745 298.75C14.1557 293.703 15.6952 288.773 18.8307 284.73C20.495 282.588 22.52 280.753 24.8148 279.308C25.4134 278.931 25.9636 279.879 25.3682 280.254C21.3977 282.764 18.3266 286.469 16.5978 290.836C14.6883 295.693 14.3818 300.987 14.7134 306.146C14.9125 309.266 15.334 312.364 15.7592 315.461C15.7935 315.601 15.7729 315.749 15.7017 315.874C15.6304 316 15.514 316.093 15.3761 316.135C15.2359 316.173 15.0863 316.154 14.96 316.083C14.8337 316.011 14.7408 315.892 14.7015 315.752L14.699 315.753Z" fill="#ACACAC"/>
<path d="M21.3239 33.6881C48.2308 33.2203 75.1405 33.1531 102.053 33.4865C128.962 33.8219 155.862 34.5598 182.752 35.7001C197.842 36.34 212.925 37.1066 228.002 37.9999C229.214 38.0716 229.21 36.187 228.002 36.1156C201.139 34.5259 174.255 33.3365 147.352 32.5472C120.453 31.76 93.5454 31.3754 66.6306 31.3932C51.5275 31.4032 36.4253 31.5401 21.3239 31.8038C20.1127 31.8249 20.1089 33.7093 21.3239 33.6881Z" fill="#275431"/>
<path d="M208.839 21.8725L220.605 20.9969C221.807 20.9074 221.817 19.0223 220.605 19.1125L208.839 19.9882C207.638 20.0776 207.628 21.9627 208.839 21.8725Z" fill="#275431"/>
<path d="M208.839 33.1792L220.605 32.3035C221.807 32.214 221.817 30.329 220.605 30.4191L208.839 31.2948C207.638 31.3843 207.628 33.2694 208.839 33.1792Z" fill="#275431"/>
<path d="M207.954 28.0159L224.682 29.5356C225.89 29.6453 225.882 27.7603 224.682 27.6513L207.954 26.1316C206.747 26.0219 206.755 27.9069 207.954 28.0159Z" fill="#275431"/>
<path d="M28.287 19.3389C27.4688 19.3339 26.6673 19.5698 25.9822 20.0172C25.2972 20.4646 24.759 21.1037 24.4347 21.8549C24.0719 22.5901 23.9599 23.4239 24.1159 24.2288C24.2718 25.0337 24.687 25.7653 25.2981 26.3119C25.8726 26.8006 26.5616 27.1358 27.3007 27.2859C28.0398 27.4361 28.8049 27.3964 29.5246 27.1705C30.2605 26.9135 30.8987 26.4347 31.3513 25.7999C31.8039 25.1652 32.0486 24.4058 32.0517 23.6263C32.0846 22.7614 31.8503 21.9074 31.3807 21.1804C30.9111 20.4534 30.229 19.8887 29.4271 19.563C29.1862 19.4975 28.9291 19.53 28.712 19.6533C28.4949 19.7765 28.3354 19.9806 28.2681 20.221C28.2087 20.4617 28.2438 20.7161 28.3662 20.9316C28.4886 21.1472 28.689 21.3077 28.9262 21.38C29.0904 21.4435 28.7762 21.2993 28.9295 21.3828C28.9925 21.4172 29.0567 21.4482 29.1186 21.4849C29.1713 21.5161 29.2217 21.5502 29.2729 21.5836C29.4487 21.6984 29.187 21.4993 29.2994 21.6025C29.3969 21.692 29.4935 21.7793 29.5821 21.8781C29.6156 21.9154 29.7469 22.0192 29.6449 21.9466C29.5668 21.8911 29.6148 21.9042 29.6448 21.9488C29.6677 21.9826 29.6918 22.0155 29.7143 22.0495C29.7878 22.1607 29.8546 22.2761 29.9143 22.3952C29.9282 22.4228 29.9408 22.451 29.9549 22.4784C29.9813 22.5298 30.0195 22.5433 29.9575 22.4789C29.8982 22.4174 29.936 22.4216 29.9572 22.4808C29.9711 22.5197 29.9863 22.5581 29.9999 22.5971C30.0441 22.7242 30.0812 22.8537 30.111 22.9849C30.1248 23.0455 30.1359 23.1065 30.1478 23.1675C30.1898 23.3839 30.1416 23.033 30.1518 23.1938C30.1603 23.3279 30.1702 23.4607 30.1679 23.5954C30.1668 23.6571 30.1641 23.7187 30.1598 23.7801C30.1576 23.8108 30.1542 23.8414 30.1522 23.8721C30.1424 24.0199 30.1421 23.8181 30.1628 23.8043C30.1197 23.9298 30.0912 24.0598 30.0777 24.1918C30.0608 24.2504 30.0407 24.3077 30.022 24.3656C29.9564 24.5678 30.0835 24.2554 30.0137 24.3936C29.9561 24.5123 29.8919 24.6276 29.8212 24.7389C29.7905 24.7855 29.6747 24.8908 29.7694 24.8175C29.8721 24.738 29.7155 24.8749 29.6821 24.9102C29.6392 24.9554 29.5947 24.9991 29.5485 25.0412C29.5189 25.0701 29.4877 25.0972 29.455 25.1225C29.449 25.1194 29.6124 25.0133 29.5244 25.0695C29.4124 25.1409 29.3064 25.2173 29.1884 25.2794C29.1747 25.2867 29.0239 25.3566 29.0245 25.359C29.018 25.3336 29.2184 25.2885 29.0808 25.3329C29.0519 25.3422 29.0236 25.3535 28.9948 25.3632C28.8696 25.4054 28.7417 25.4394 28.6121 25.4652C28.5824 25.4711 28.551 25.4741 28.5218 25.4817C28.4244 25.5068 28.6149 25.4669 28.6206 25.4702C28.5486 25.4671 28.4765 25.4735 28.4062 25.4892C28.2725 25.4968 28.1385 25.4968 28.0048 25.4891C27.9739 25.4873 27.943 25.4843 27.9121 25.4825C27.8403 25.4783 27.7876 25.4266 27.8831 25.4827C27.9569 25.5261 27.9507 25.4944 27.8854 25.4824C27.8549 25.4767 27.8242 25.472 27.7937 25.4662C27.6613 25.4415 27.5305 25.4094 27.4017 25.3702C27.3324 25.3491 27.2645 25.3246 27.1962 25.3007C27.1664 25.292 27.1374 25.2809 27.1095 25.2673C27.1091 25.2595 27.2857 25.3517 27.1924 25.3014C27.0747 25.238 26.953 25.1848 26.8381 25.1155C26.7768 25.0785 26.7179 25.0383 26.6583 24.9987C26.632 24.9829 26.6071 24.965 26.5837 24.9453C26.5857 24.9373 26.7298 25.0709 26.6541 24.9988C26.5585 24.9076 26.4561 24.826 26.3655 24.7289C26.3448 24.7067 26.3252 24.6835 26.3045 24.6612L26.2845 24.6384C26.2335 24.5759 26.2325 24.5762 26.2817 24.6393C26.3316 24.654 26.3294 24.7088 26.282 24.6376C26.2651 24.6122 26.2472 24.5876 26.2303 24.5622C26.1538 24.4532 26.0885 24.3367 26.0356 24.2145C26.0401 24.2109 26.1172 24.4412 26.0583 24.2674C26.0471 24.2346 26.0346 24.2023 26.0237 24.1693C26.0021 24.1041 25.983 24.0381 25.9666 23.9713C25.9503 23.9052 25.9419 23.837 25.9255 23.7712C25.8978 23.6603 25.9417 23.8588 25.9367 23.8538C25.921 23.8383 25.9277 23.7421 25.9265 23.719C25.9189 23.5712 25.9358 23.4277 25.9384 23.2808C25.9405 23.1669 25.929 23.3695 25.9266 23.3635C25.9272 23.3294 25.9332 23.2957 25.9445 23.2635C25.9616 23.186 25.9774 23.1085 25.9983 23.0319C26.0222 22.9441 26.0497 22.8575 26.0809 22.7719C26.0925 22.7398 26.1067 22.7083 26.1175 22.676C26.1572 22.5576 26.039 22.8188 26.1042 22.7122C26.1938 22.5654 26.2606 22.4065 26.3557 22.2616C26.3783 22.2272 26.5154 22.0358 26.4426 22.1324C26.3702 22.2287 26.5171 22.0463 26.5449 22.0153C26.6605 21.8866 26.7964 21.7809 26.9161 21.6577C26.9869 21.5848 26.8666 21.6936 26.8595 21.6987C26.8966 21.6722 26.9329 21.6447 26.9704 21.6189C27.0358 21.5738 27.1028 21.5312 27.1714 21.491C27.2487 21.4457 27.3361 21.412 27.4111 21.364C27.4996 21.3074 27.3434 21.3889 27.3406 21.3906C27.381 21.3705 27.4233 21.3544 27.4668 21.3425C27.5397 21.3166 27.857 21.1797 27.9236 21.2225C27.9206 21.2206 27.6827 21.2417 27.875 21.2293C27.9205 21.2264 27.9657 21.2219 28.0112 21.2201C28.1033 21.2162 28.1951 21.2186 28.287 21.2233C28.5364 21.2217 28.7751 21.1219 28.9515 20.9456C29.1278 20.7692 29.2276 20.5305 29.2292 20.2812C29.2239 20.0329 29.1229 19.7964 28.9474 19.6208C28.7718 19.4453 28.5352 19.3443 28.287 19.3389Z" fill="#275431"/>
<path d="M41.4774 19.3389C40.6593 19.3339 39.8577 19.5698 39.1726 20.0172C38.4876 20.4646 37.9494 21.1037 37.6251 21.8549C37.2623 22.5901 37.1504 23.4239 37.3063 24.2288C37.4622 25.0337 37.8775 25.7653 38.4885 26.3119C39.063 26.8006 39.752 27.1358 40.4911 27.2859C41.2302 27.4361 41.9954 27.3964 42.715 27.1705C43.451 26.9135 44.0891 26.4347 44.5417 25.7999C44.9943 25.1652 45.239 24.4058 45.2421 23.6263C45.275 22.7614 45.0407 21.9074 44.5711 21.1804C44.1015 20.4534 43.4194 19.8887 42.6175 19.563C42.3766 19.4975 42.1196 19.53 41.9025 19.6533C41.6854 19.7765 41.5258 19.9806 41.4585 20.221C41.3991 20.4617 41.4342 20.7161 41.5566 20.9316C41.679 21.1472 41.8795 21.3077 42.1166 21.38C42.2808 21.4435 41.9666 21.2993 42.1199 21.3828C42.1829 21.4172 42.2472 21.4482 42.3091 21.4849C42.3617 21.5161 42.4121 21.5502 42.4633 21.5836C42.6392 21.6984 42.3774 21.4993 42.4898 21.6025C42.5873 21.692 42.6839 21.7793 42.7725 21.8781C42.806 21.9154 42.9373 22.0192 42.8353 21.9466C42.7572 21.8911 42.8052 21.9042 42.8353 21.9488C42.8581 21.9826 42.8822 22.0155 42.9048 22.0495C42.9782 22.1607 43.045 22.2761 43.1047 22.3952C43.1186 22.4228 43.1312 22.451 43.1453 22.4784C43.1717 22.5298 43.21 22.5433 43.1479 22.4789C43.0887 22.4174 43.1264 22.4216 43.1476 22.4808C43.1615 22.5197 43.1768 22.5581 43.1903 22.5971C43.2345 22.7242 43.2716 22.8537 43.3014 22.9849C43.3152 23.0455 43.3263 23.1065 43.3382 23.1675C43.3803 23.3839 43.3321 23.033 43.3422 23.1938C43.3507 23.3279 43.3606 23.4607 43.3583 23.5954C43.3572 23.6571 43.3545 23.7187 43.3502 23.7801C43.3481 23.8108 43.3447 23.8414 43.3426 23.8721C43.3329 24.0199 43.3326 23.8181 43.3532 23.8043C43.3102 23.9298 43.2816 24.0598 43.2681 24.1918C43.2512 24.2504 43.2312 24.3077 43.2124 24.3656C43.1468 24.5678 43.2739 24.2554 43.2041 24.3936C43.1466 24.5123 43.0823 24.6276 43.0116 24.7389C42.9809 24.7855 42.8651 24.8908 42.9598 24.8175C43.0625 24.738 42.9059 24.8749 42.8725 24.9102C42.8296 24.9554 42.7851 24.9991 42.7389 25.0412C42.7094 25.0701 42.6782 25.0972 42.6455 25.1225C42.6395 25.1194 42.8029 25.0133 42.7148 25.0695C42.6029 25.1409 42.4969 25.2173 42.3789 25.2794C42.3651 25.2867 42.2143 25.3566 42.2149 25.359C42.2084 25.3336 42.4088 25.2885 42.2713 25.3329C42.2424 25.3422 42.214 25.3535 42.1852 25.3632C42.06 25.4054 41.9321 25.4394 41.8025 25.4652C41.7728 25.4711 41.7415 25.4741 41.7122 25.4817C41.6148 25.5068 41.8053 25.4669 41.811 25.4702C41.739 25.4671 41.6669 25.4735 41.5966 25.4892C41.4629 25.4968 41.3289 25.4968 41.1952 25.4891C41.1643 25.4873 41.1334 25.4843 41.1025 25.4825C41.0307 25.4783 40.978 25.4266 41.0736 25.4827C41.1473 25.5261 41.1412 25.4944 41.0759 25.4824C41.0453 25.4767 41.0146 25.472 40.9841 25.4662C40.8518 25.4415 40.7209 25.4094 40.5922 25.3702C40.5229 25.3491 40.455 25.3246 40.3866 25.3007C40.3568 25.292 40.3278 25.2809 40.2999 25.2673C40.2995 25.2595 40.4761 25.3517 40.3829 25.3014C40.2652 25.238 40.1435 25.1848 40.0285 25.1155C39.9672 25.0785 39.9083 25.0383 39.8487 24.9987C39.8225 24.9829 39.7975 24.965 39.7741 24.9453C39.7761 24.9373 39.9202 25.0709 39.8445 24.9988C39.7489 24.9076 39.6466 24.826 39.556 24.7289C39.5352 24.7067 39.5156 24.6835 39.495 24.6612L39.475 24.6384C39.4239 24.5759 39.423 24.5762 39.4721 24.6393C39.5221 24.654 39.5198 24.7088 39.4724 24.6376C39.4555 24.6122 39.4376 24.5876 39.4207 24.5622C39.3442 24.4532 39.279 24.3367 39.226 24.2145C39.2306 24.2109 39.3076 24.4412 39.2487 24.2674C39.2376 24.2346 39.2251 24.2023 39.2142 24.1693C39.1925 24.1041 39.1735 24.0381 39.157 23.9713C39.1407 23.9052 39.1324 23.837 39.1159 23.7712C39.0882 23.6603 39.1321 23.8588 39.1271 23.8538C39.1114 23.8383 39.1181 23.7421 39.1169 23.719C39.1094 23.5712 39.1262 23.4277 39.1288 23.2808C39.1309 23.1669 39.1194 23.3695 39.117 23.3635C39.1176 23.3294 39.1237 23.2957 39.1349 23.2635C39.152 23.186 39.1679 23.1085 39.1887 23.0319C39.2126 22.9441 39.2402 22.8575 39.2713 22.7719C39.2829 22.7398 39.2971 22.7083 39.3079 22.676C39.3476 22.5576 39.2294 22.8188 39.2946 22.7122C39.3842 22.5654 39.451 22.4065 39.5462 22.2616C39.5687 22.2272 39.7058 22.0358 39.6331 22.1324C39.5606 22.2287 39.7075 22.0463 39.7354 22.0153C39.8509 21.8866 39.9868 21.7809 40.1065 21.6577C40.1773 21.5848 40.0571 21.6936 40.05 21.6987C40.087 21.6722 40.1233 21.6447 40.1608 21.6189C40.2262 21.5738 40.2933 21.5312 40.3619 21.491C40.4392 21.4457 40.5266 21.412 40.6015 21.364C40.69 21.3074 40.5338 21.3889 40.531 21.3906C40.5714 21.3705 40.6137 21.3544 40.6572 21.3425C40.7302 21.3166 41.0475 21.1797 41.114 21.2225C41.111 21.2206 40.8731 21.2417 41.0654 21.2293C41.1109 21.2264 41.1562 21.2219 41.2017 21.2201C41.2937 21.2162 41.3855 21.2186 41.4775 21.2233C41.7269 21.2217 41.9655 21.1219 42.1419 20.9456C42.3182 20.7692 42.418 20.5305 42.4197 20.2812C42.4143 20.0329 42.3133 19.7964 42.1378 19.6208C41.9622 19.4453 41.7257 19.3443 41.4774 19.3389Z" fill="#275431"/>
<path d="M54.6679 19.3389C53.8497 19.3339 53.0481 19.5698 52.3631 20.0172C51.678 20.4646 51.1398 21.1037 50.8155 21.8549C50.4528 22.5901 50.3408 23.4239 50.4967 24.2288C50.6526 25.0337 51.0679 25.7653 51.679 26.3119C52.2534 26.8006 52.9424 27.1358 53.6815 27.2859C54.4207 27.4361 55.1858 27.3964 55.9054 27.1705C56.6414 26.9135 57.2796 26.4347 57.7321 25.7999C58.1847 25.1652 58.4294 24.4058 58.4326 23.6263C58.4654 22.7614 58.2311 21.9074 57.7616 21.1804C57.292 20.4534 56.6098 19.8887 55.808 19.563C55.567 19.4975 55.31 19.53 55.0929 19.6533C54.8758 19.7765 54.7162 19.9806 54.649 20.221C54.5895 20.4617 54.6246 20.7161 54.7471 20.9316C54.8695 21.1472 55.0699 21.3077 55.307 21.38C55.4712 21.4435 55.157 21.2993 55.3103 21.3828C55.3734 21.4172 55.4376 21.4482 55.4995 21.4849C55.5521 21.5161 55.6025 21.5502 55.6537 21.5836C55.8296 21.6984 55.5679 21.4993 55.6803 21.6025C55.7778 21.692 55.8744 21.7793 55.963 21.8781C55.9965 21.9154 56.1277 22.0192 56.0257 21.9466C55.9477 21.8911 55.9956 21.9042 56.0257 21.9488C56.0485 21.9826 56.0727 22.0155 56.0952 22.0495C56.1687 22.1607 56.2354 22.2761 56.2952 22.3952C56.309 22.4228 56.3217 22.451 56.3358 22.4784C56.3621 22.5298 56.4004 22.5433 56.3384 22.4789C56.2791 22.4174 56.3168 22.4216 56.338 22.4808C56.352 22.5197 56.3672 22.5581 56.3807 22.5971C56.4249 22.7242 56.462 22.8537 56.4918 22.9849C56.5056 23.0455 56.5167 23.1065 56.5286 23.1675C56.5707 23.3839 56.5225 23.033 56.5327 23.1938C56.5412 23.3279 56.551 23.4607 56.5487 23.5954C56.5476 23.6571 56.545 23.7187 56.5407 23.7801C56.5385 23.8108 56.5351 23.8414 56.5331 23.8721C56.5233 24.0199 56.523 23.8181 56.5437 23.8043C56.5006 23.9298 56.472 24.0598 56.4585 24.1918C56.4416 24.2504 56.4216 24.3077 56.4028 24.3656C56.3373 24.5678 56.4644 24.2554 56.3945 24.3936C56.337 24.5123 56.2727 24.6276 56.202 24.7389C56.1713 24.7855 56.0556 24.8908 56.1502 24.8175C56.2529 24.738 56.0964 24.8749 56.063 24.9102C56.02 24.9554 55.9755 24.9991 55.9293 25.0412C55.8998 25.0701 55.8686 25.0972 55.8359 25.1225C55.8299 25.1194 55.9933 25.0133 55.9052 25.0695C55.7933 25.1409 55.6873 25.2173 55.5693 25.2794C55.5556 25.2867 55.4047 25.3566 55.4054 25.359C55.3989 25.3336 55.5993 25.2885 55.4617 25.3329C55.4328 25.3422 55.4045 25.3535 55.3757 25.3632C55.2504 25.4054 55.1226 25.4394 54.9929 25.4652C54.9633 25.4711 54.9319 25.4741 54.9026 25.4817C54.8052 25.5068 54.9957 25.4669 55.0014 25.4702C54.9294 25.4671 54.8574 25.4735 54.787 25.4892C54.6533 25.4968 54.5193 25.4968 54.3857 25.4891C54.3547 25.4873 54.3239 25.4843 54.2929 25.4825C54.2212 25.4783 54.1685 25.4266 54.264 25.4827C54.3377 25.5261 54.3316 25.4944 54.2663 25.4824C54.2357 25.4767 54.2051 25.472 54.1745 25.4662C54.0422 25.4415 53.9114 25.4094 53.7826 25.3702C53.7133 25.3491 53.6454 25.3246 53.577 25.3007C53.5472 25.292 53.5182 25.2809 53.4903 25.2673C53.4899 25.2595 53.6665 25.3517 53.5733 25.3014C53.4556 25.238 53.3339 25.1848 53.219 25.1155C53.1577 25.0785 53.0987 25.0383 53.0391 24.9987C53.0129 24.9829 52.988 24.965 52.9646 24.9453C52.9665 24.9373 53.1106 25.0709 53.035 24.9988C52.9393 24.9076 52.837 24.826 52.7464 24.7289C52.7257 24.7067 52.7061 24.6835 52.6854 24.6612L52.6654 24.6384C52.6143 24.5759 52.6134 24.5762 52.6626 24.6393C52.7125 24.654 52.7102 24.7088 52.6628 24.6376C52.646 24.6122 52.628 24.5876 52.6112 24.5622C52.5346 24.4532 52.4694 24.3367 52.4164 24.2145C52.421 24.2109 52.498 24.4412 52.4391 24.2674C52.428 24.2346 52.4155 24.2023 52.4046 24.1693C52.3829 24.1041 52.3639 24.0381 52.3474 23.9713C52.3311 23.9052 52.3228 23.837 52.3064 23.7712C52.2787 23.6603 52.3225 23.8588 52.3175 23.8538C52.3018 23.8383 52.3085 23.7421 52.3073 23.719C52.2998 23.5712 52.3166 23.4277 52.3193 23.2808C52.3213 23.1669 52.3099 23.3695 52.3075 23.3635C52.3081 23.3294 52.3141 23.2957 52.3254 23.2635C52.3424 23.186 52.3583 23.1085 52.3792 23.0319C52.4031 22.9441 52.4306 22.8575 52.4617 22.7719C52.4734 22.7398 52.4876 22.7083 52.4984 22.676C52.538 22.5576 52.4199 22.8188 52.485 22.7122C52.5747 22.5654 52.6414 22.4065 52.7366 22.2616C52.7591 22.2272 52.8963 22.0358 52.8235 22.1324C52.751 22.2287 52.898 22.0463 52.9258 22.0153C53.0414 21.8866 53.1773 21.7809 53.2969 21.6577C53.3678 21.5848 53.2475 21.6936 53.2404 21.6987C53.2775 21.6722 53.3137 21.6447 53.3513 21.6189C53.4167 21.5738 53.4837 21.5312 53.5523 21.491C53.6296 21.4457 53.717 21.412 53.7919 21.364C53.8804 21.3074 53.7242 21.3889 53.7214 21.3906C53.7619 21.3705 53.8041 21.3544 53.8476 21.3425C53.9206 21.3166 54.2379 21.1797 54.3045 21.2225C54.3015 21.2206 54.0635 21.2417 54.2559 21.2293C54.3013 21.2264 54.3466 21.2219 54.3921 21.2201C54.4842 21.2162 54.5759 21.2186 54.6679 21.2233C54.9173 21.2217 55.156 21.1219 55.3323 20.9456C55.5087 20.7692 55.6084 20.5305 55.6101 20.2812C55.6047 20.0329 55.5038 19.7964 55.3282 19.6208C55.1527 19.4453 54.9161 19.3443 54.6679 19.3389Z" fill="#275431"/>
<path d="M245.222 228.007H14.1341C11.212 228.004 8.41046 226.841 6.34418 224.775C4.27789 222.709 3.11559 219.907 3.1123 216.985V11.0218C3.11558 8.09965 4.27786 5.29811 6.34414 3.23183C8.41042 1.16555 11.212 0.00327679 14.1341 0H245.222C248.144 0.00327679 250.946 1.16555 253.012 3.23183C255.078 5.29811 256.241 8.09965 256.244 11.0218V216.985C256.241 219.907 255.078 222.709 253.012 224.775C250.946 226.841 248.144 228.004 245.222 228.007ZM14.1341 1.25624C11.545 1.25918 9.06283 2.289 7.23207 4.11976C5.4013 5.95053 4.37149 8.43272 4.36854 11.0218V216.985C4.37155 219.574 5.4014 222.056 7.23216 223.887C9.06292 225.718 11.5451 226.748 14.1341 226.751H245.222C247.811 226.748 250.293 225.718 252.124 223.887C253.955 222.056 254.985 219.574 254.988 216.985V11.0218C254.985 8.43272 253.955 5.95053 252.124 4.11976C250.293 2.289 247.811 1.25918 245.222 1.25624H14.1341Z" fill="#275431"/>
<path d="M13.7514 140.137L95.0168 139.89L175.868 139.644L221.476 139.505C221.72 139.497 221.951 139.394 222.121 139.218C222.291 139.042 222.386 138.808 222.386 138.563C222.386 138.319 222.291 138.084 222.121 137.908C221.951 137.733 221.72 137.63 221.476 137.621L140.21 137.868L59.3595 138.114L13.7514 138.253C13.5072 138.261 13.2758 138.364 13.106 138.54C12.9362 138.716 12.8413 138.951 12.8413 139.195C12.8413 139.44 12.9362 139.674 13.106 139.85C13.2758 140.026 13.5072 140.129 13.7514 140.137Z" fill="#275431"/>
<path d="M54.7485 138.61L55.251 108.939C55.2716 107.726 53.3872 107.726 53.3667 108.939L52.8642 138.61C52.8436 139.823 54.728 139.823 54.7485 138.61Z" fill="#275431"/>
<path d="M93.5883 138.931L94.8129 101.637L95.1628 90.9814C95.2026 89.7685 93.3182 89.7699 93.2784 90.9814L92.0539 128.276L91.704 138.931C91.6642 140.144 93.5486 140.143 93.5883 138.931Z" fill="#275431"/>
<path d="M132.323 73.3018C131.585 86.5111 130.218 125.473 129.479 138.683C129.412 139.894 131.296 139.89 131.364 138.683C132.102 125.473 133.469 86.5111 134.208 73.3018C134.275 72.0902 132.391 72.094 132.323 73.3018Z" fill="#275431"/>
<path d="M170.872 125.428L170.641 138.125C170.619 139.338 172.503 139.338 172.525 138.125C172.798 123.129 173.498 123.618 173.575 119.386C173.597 118.173 171.713 118.173 171.69 119.386C171.69 119.386 171.145 110.433 170.872 125.428Z" fill="#275431"/>
<path d="M208.629 92.0742L208.843 127.694L208.904 137.893C208.912 138.138 209.015 138.369 209.191 138.539C209.366 138.709 209.601 138.803 209.846 138.803C210.09 138.803 210.325 138.709 210.501 138.539C210.676 138.369 210.779 138.138 210.788 137.893L210.575 102.274L210.514 92.0742C210.505 91.8299 210.402 91.5985 210.227 91.4287C210.051 91.259 209.816 91.1641 209.572 91.1641C209.327 91.1641 209.092 91.259 208.917 91.4287C208.741 91.5985 208.638 91.8299 208.629 92.0742Z" fill="#275431"/>
<path d="M13.9028 139.077C12.343 134.791 15.859 130.668 19.4719 128.816C23.8002 126.597 28.7795 126.094 33.1537 123.954C39.675 120.765 44.4249 115.04 48.6514 109.31C53.0016 103.413 56.982 97.0833 62.5097 92.1831C65.4226 89.5434 68.8628 87.5525 72.6028 86.3421C77.3151 84.8715 82.3127 84.7707 87.1819 85.3633C97.2435 86.588 106.571 90.7437 116.279 93.385C125.432 95.8752 135.517 97.2755 144.501 93.4031C149.065 91.4356 152.798 88.1359 156.807 85.2805C160.687 82.488 165.025 80.3953 169.626 79.0969C178.644 76.5891 188.493 77.2587 196.889 81.4982C204.607 85.3451 210.718 91.7948 214.143 99.7089C218.124 109.218 217.606 119.844 216.305 129.852C215.969 132.439 215.569 135.018 215.165 137.595C214.979 138.781 216.794 139.292 216.982 138.096C218.601 127.775 220.215 117.128 218.201 106.743C216.459 97.6741 211.472 89.5512 204.174 83.8937C196.845 78.2208 187.735 75.3455 178.477 75.7839C173.626 76.009 168.85 77.0712 164.361 78.9234C159.7 80.851 155.754 83.7081 151.746 86.7144C147.624 89.8054 143.376 92.3621 138.259 93.3702C133.296 94.348 128.133 93.9815 123.192 93.0582C112.996 91.1533 103.493 86.7864 93.3832 84.5489C84.0169 82.4759 73.9099 82.2688 65.5228 87.56C59.0711 91.6303 54.5123 97.9491 50.1371 104.051C45.8004 110.099 41.4088 116.566 35.0673 120.698C31.1989 123.218 26.8503 124.148 22.5229 125.565C18.1843 126.986 14.0192 129.383 12.2502 133.828C11.4878 135.659 11.4292 137.707 12.0857 139.578C12.4972 140.709 14.3188 140.221 13.9028 139.077Z" fill="#275431"/>
<path d="M54.1236 104.836L54.1208 104.837L54.1264 104.836H54.1236Z" fill="#275431"/>
<path d="M57.3906 103.103C56.9551 102.331 56.2603 101.739 55.4296 101.432C54.599 101.125 53.6863 101.122 52.8536 101.423C52.4397 101.575 52.0602 101.807 51.7378 102.107C51.4153 102.408 51.1563 102.769 50.9761 103.172C50.94 103.257 50.9189 103.347 50.8895 103.434C50.8487 103.5 50.7996 103.56 50.763 103.629C50.3725 104.407 50.2655 105.297 50.4606 106.146C50.6557 106.995 51.1406 107.749 51.8318 108.278C52.523 108.808 53.3772 109.08 54.2473 109.047C55.1174 109.015 55.949 108.68 56.5987 108.1C57.2816 107.483 57.7326 106.65 57.8766 105.741C58.0207 104.832 57.8492 103.901 57.3906 103.103ZM55.0306 104.703C55.0355 104.794 55.0383 104.75 55.0306 104.703V104.703ZM54.7907 104.157C54.7814 104.147 54.7826 104.148 54.7907 104.157V104.157ZM53.7333 104.582C53.7178 104.557 53.7192 104.561 53.7333 104.582V104.582ZM53.984 104.795C54.02 104.811 54.0436 104.815 53.984 104.795V104.795ZM54.0959 104.848L54.1207 104.837C54.1146 104.837 54.1085 104.836 54.1031 104.833L54.1038 104.833L54.1233 104.836L54.1269 104.834L54.1157 104.831C54.1254 104.831 54.1263 104.833 54.1269 104.834C54.239 104.783 54.1634 104.807 54.0984 104.828L54.0941 104.826C54.0535 104.806 54.0099 104.792 53.9649 104.785C53.9607 104.783 53.9558 104.781 53.9523 104.779C53.9162 104.753 53.7339 104.61 53.903 104.76C53.8662 104.727 53.8299 104.695 53.7952 104.66C53.7748 104.639 53.7563 104.617 53.74 104.592C53.7178 104.554 53.6962 104.516 53.6754 104.477L53.6723 104.456C53.6695 104.439 53.6674 104.432 53.6651 104.421C53.6662 104.41 53.6679 104.399 53.6696 104.388C53.6822 104.354 53.6903 104.318 53.6935 104.282L53.7008 104.273C53.7279 104.235 53.7516 104.191 53.7774 104.152C53.6409 104.359 53.8308 104.129 53.845 104.1C53.8474 104.095 53.8432 104.098 53.8442 104.094C53.8498 104.091 53.8481 104.093 53.8548 104.089C53.8971 104.064 53.9372 104.037 53.9802 104.013C54.0313 103.984 54.2329 103.927 54.0239 103.987C54.0714 103.973 54.1169 103.956 54.1649 103.944C54.1736 103.942 54.244 103.932 54.2819 103.925C54.3152 103.924 54.3475 103.923 54.351 103.923C54.3666 103.923 54.3822 103.925 54.3979 103.926C54.3632 103.93 54.5169 103.964 54.5626 103.971C54.5692 103.976 54.5726 103.979 54.5816 103.986C54.6202 104.014 54.6671 104.039 54.7079 104.065C54.5257 103.948 54.7102 104.075 54.7451 104.11C54.7659 104.13 54.785 104.153 54.8046 104.174C54.8226 104.195 54.8388 104.218 54.8532 104.241C54.883 104.296 54.9148 104.351 54.9462 104.405L54.9549 104.419C54.9547 104.421 54.9546 104.422 54.9546 104.424C54.971 104.512 54.9952 104.597 55.0268 104.68C55.0284 104.687 55.0295 104.694 55.0304 104.702C55.0333 104.749 55.0373 104.797 55.0374 104.845L55.037 104.855C54.8919 104.779 54.7308 104.739 54.5672 104.738C54.4036 104.737 54.242 104.775 54.0959 104.848Z" fill="#275431"/>
<path d="M54.1272 104.834L54.1292 104.835L54.1272 104.834Z" fill="#275431"/>
<path d="M94.3231 87.248L94.3203 87.2494L94.3258 87.248H94.3231Z" fill="#275431"/>
<path d="M97.59 85.5147C97.1545 84.7435 96.4597 84.1516 95.6291 83.8441C94.7984 83.5367 93.8857 83.5337 93.053 83.8355C92.6391 83.9866 92.2597 84.2192 91.9372 84.5194C91.6147 84.8197 91.3557 85.1816 91.1755 85.5837C91.1395 85.6691 91.1184 85.759 91.0889 85.8466C91.0481 85.9126 90.999 85.9722 90.9625 86.0412C90.5719 86.8195 90.465 87.7095 90.6601 88.5581C90.8552 89.4067 91.3401 90.1607 92.0313 90.6902C92.7224 91.2198 93.5767 91.4917 94.4468 91.4592C95.3169 91.4267 96.1485 91.0918 96.7982 90.5121C97.4811 89.8948 97.932 89.0624 98.0761 88.1532C98.2202 87.244 98.0486 86.3129 97.59 85.5147ZM95.23 87.1149C95.2349 87.2062 95.2378 87.1625 95.23 87.1149V87.1149ZM94.9901 86.5694C94.9809 86.5588 94.9821 86.56 94.9901 86.5694V86.5694ZM93.9328 86.9946C93.9173 86.9692 93.9187 86.9728 93.9328 86.9946V86.9946ZM94.1834 87.2071C94.2195 87.2231 94.2431 87.2274 94.1834 87.2071V87.2071ZM94.2953 87.2604L94.3201 87.249C94.314 87.2496 94.3079 87.2484 94.3025 87.2456L94.3033 87.2454L94.3227 87.2479L94.3263 87.2462L94.3151 87.2436C94.3248 87.2433 94.3257 87.2447 94.3263 87.2462C94.4384 87.1949 94.3628 87.2195 94.2978 87.2396L94.2935 87.2386C94.2529 87.218 94.2093 87.204 94.1643 87.1972C94.1601 87.1948 94.1552 87.1931 94.1517 87.1906C94.1156 87.165 93.9333 87.0225 94.1025 87.1719C94.0657 87.1393 94.0293 87.1074 93.9947 87.0723C93.9743 87.0514 93.9557 87.0286 93.9394 87.0044C93.9172 86.9663 93.8957 86.9279 93.8748 86.8892L93.8717 86.8683C93.8689 86.8509 93.8669 86.8437 93.8646 86.8333C93.8656 86.8225 93.8674 86.8109 93.869 86.7997C93.8817 86.7658 93.8897 86.7304 93.893 86.6944L93.9003 86.6852C93.9273 86.6474 93.951 86.6034 93.9769 86.5641C93.8403 86.7715 94.0302 86.5412 94.0444 86.5121C94.0469 86.5071 94.0426 86.5098 94.0437 86.5064C94.0492 86.5033 94.0475 86.5054 94.0542 86.5015C94.0965 86.4766 94.1366 86.4488 94.1796 86.425C94.2308 86.3966 94.4324 86.3394 94.2233 86.3991C94.2708 86.3856 94.3164 86.3684 94.3644 86.3559C94.3731 86.3536 94.4435 86.3438 94.4814 86.3369C94.5147 86.3361 94.547 86.3351 94.5504 86.3351C94.566 86.3353 94.5817 86.3373 94.5973 86.3379C94.5626 86.3426 94.7164 86.3758 94.762 86.3828C94.7686 86.388 94.772 86.3913 94.781 86.3979C94.8196 86.4261 94.8665 86.4512 94.9073 86.4775C94.7251 86.3598 94.9097 86.4869 94.9445 86.5217C94.9653 86.5425 94.9845 86.5647 95.0041 86.5866C95.022 86.6074 95.0382 86.6297 95.0526 86.6532C95.0825 86.7079 95.1142 86.7633 95.1456 86.8172L95.1543 86.831C95.1542 86.8328 95.1541 86.8346 95.1541 86.8363C95.1704 86.9237 95.1946 87.0094 95.2262 87.0925C95.2278 87.0995 95.229 87.1066 95.2298 87.1138C95.2327 87.1616 95.2367 87.2093 95.2368 87.2574L95.2364 87.2671C95.0913 87.1915 94.9303 87.1514 94.7667 87.1503C94.603 87.1491 94.4415 87.1868 94.2953 87.2604Z" fill="#275431"/>
<path d="M94.3267 87.2461L94.3287 87.2471L94.3267 87.2461Z" fill="#275431"/>
<path d="M133.27 96.041L133.272 96.042L133.27 96.041Z" fill="#275431"/>
<path d="M136.533 67.9288C136.098 67.1575 135.403 66.5656 134.572 66.2582C133.742 65.9508 132.829 65.9477 131.996 66.2496C131.582 66.4007 131.203 66.6332 130.881 66.9335C130.558 67.2338 130.299 67.5956 130.119 67.9977C130.083 68.0832 130.062 68.1731 130.032 68.2606C129.991 68.3266 129.942 68.3862 129.906 68.4553C129.515 69.2335 129.408 70.1236 129.603 70.9722C129.799 71.8208 130.283 72.5748 130.975 73.1043C131.666 73.6338 132.52 73.9058 133.39 73.8733C134.26 73.8407 135.092 73.5058 135.742 72.9262C136.424 72.3089 136.875 71.4764 137.019 70.5672C137.164 69.658 136.992 68.7269 136.533 67.9288ZM134.173 69.529C134.178 69.6202 134.181 69.5765 134.173 69.529V69.529ZM133.934 68.9835C133.924 68.9729 133.925 68.974 133.934 68.9835V68.9835ZM132.876 69.4087C132.861 69.3832 132.862 69.3869 132.876 69.4087V69.4087ZM133.127 69.6212C133.163 69.6372 133.186 69.6415 133.127 69.6212V69.6212ZM133.239 69.6745L133.263 69.6631C133.257 69.6637 133.251 69.6625 133.246 69.6596L133.247 69.6595L133.266 69.6619L133.27 69.6603L133.258 69.6577C133.268 69.6573 133.269 69.6588 133.27 69.6603C133.382 69.6089 133.306 69.6335 133.241 69.6537L133.237 69.6527C133.196 69.6321 133.153 69.6181 133.108 69.6112C133.103 69.6089 133.099 69.6072 133.095 69.6047C133.059 69.579 132.877 69.4366 133.046 69.5859C133.009 69.5534 132.973 69.5215 132.938 69.4864C132.918 69.4654 132.899 69.4427 132.883 69.4185C132.861 69.3804 132.839 69.342 132.818 69.3033L132.815 69.2824C132.812 69.265 132.81 69.2578 132.808 69.2474C132.809 69.2366 132.811 69.225 132.812 69.2138C132.825 69.1799 132.833 69.1445 132.836 69.1085L132.844 69.0993C132.871 69.0615 132.894 69.0175 132.92 68.9782C132.784 69.1856 132.974 68.9553 132.988 68.9261C132.99 68.9212 132.986 68.9239 132.987 68.9204C132.993 68.9173 132.991 68.9195 132.998 68.9156C133.04 68.8906 133.08 68.8628 133.123 68.839C133.174 68.8107 133.376 68.7534 133.167 68.8132C133.214 68.7996 133.26 68.7825 133.308 68.7699C133.316 68.7677 133.387 68.7578 133.425 68.751C133.458 68.7502 133.49 68.7492 133.494 68.7492C133.509 68.7494 133.525 68.7513 133.541 68.752C133.506 68.7566 133.66 68.7899 133.705 68.7969C133.712 68.8021 133.715 68.8054 133.724 68.812C133.763 68.8402 133.81 68.8653 133.851 68.8916C133.668 68.7738 133.853 68.9009 133.888 68.9358C133.909 68.9566 133.928 68.9788 133.947 69.0007C133.965 69.0215 133.982 69.0438 133.996 69.0672C134.026 69.122 134.058 69.1774 134.089 69.2312L134.098 69.2451C134.098 69.2468 134.097 69.2486 134.097 69.2504C134.114 69.3378 134.138 69.4235 134.17 69.5065C134.171 69.5135 134.172 69.5207 134.173 69.5278C134.176 69.5757 134.18 69.6234 134.18 69.6715L134.18 69.6812C134.035 69.6055 133.874 69.5655 133.71 69.5643C133.546 69.5631 133.385 69.6009 133.239 69.6745Z" fill="#275431"/>
<path d="M133.266 96.043L133.264 96.0443L133.269 96.043H133.266Z" fill="#275431"/>
<path d="M176.105 116.294C175.669 115.523 174.975 114.931 174.144 114.623C173.313 114.316 172.401 114.313 171.568 114.615C171.154 114.766 170.775 114.998 170.452 115.299C170.13 115.599 169.871 115.961 169.69 116.363C169.654 116.448 169.633 116.538 169.604 116.626C169.563 116.692 169.514 116.751 169.477 116.821C169.087 117.599 168.98 118.489 169.175 119.337C169.37 120.186 169.855 120.94 170.546 121.47C171.237 121.999 172.092 122.271 172.962 122.238C173.832 122.206 174.663 121.871 175.313 121.291C175.996 120.674 176.447 119.842 176.591 118.932C176.735 118.023 176.564 117.092 176.105 116.294ZM173.745 117.894C173.75 117.985 173.753 117.942 173.745 117.894V117.894ZM173.505 117.349C173.496 117.338 173.497 117.339 173.505 117.349V117.349ZM172.448 117.774C172.432 117.748 172.434 117.752 172.448 117.774V117.774ZM172.698 117.986C172.734 118.002 172.758 118.007 172.698 117.986V117.986ZM172.81 118.04L172.835 118.028C172.829 118.029 172.823 118.028 172.817 118.025L172.818 118.025L172.838 118.027L172.841 118.026L172.83 118.023C172.84 118.023 172.841 118.024 172.841 118.026C172.953 117.974 172.878 117.999 172.813 118.019L172.808 118.018C172.768 117.997 172.724 117.983 172.679 117.976C172.675 117.974 172.67 117.972 172.667 117.97C172.631 117.944 172.448 117.802 172.617 117.951C172.581 117.919 172.544 117.887 172.51 117.852C172.489 117.831 172.471 117.808 172.454 117.784C172.432 117.746 172.411 117.707 172.39 117.668L172.387 117.648C172.384 117.63 172.382 117.623 172.379 117.613C172.381 117.602 172.382 117.59 172.384 117.579C172.397 117.545 172.405 117.51 172.408 117.474L172.415 117.464C172.442 117.427 172.466 117.383 172.492 117.343C172.355 117.551 172.545 117.321 172.559 117.291C172.562 117.286 172.558 117.289 172.559 117.286C172.564 117.283 172.562 117.285 172.569 117.281C172.611 117.256 172.651 117.228 172.694 117.204C172.746 117.176 172.947 117.119 172.738 117.178C172.786 117.165 172.831 117.148 172.879 117.135C172.888 117.133 172.958 117.123 172.996 117.116C173.03 117.115 173.062 117.114 173.065 117.114C173.081 117.115 173.097 117.117 173.112 117.117C173.077 117.122 173.231 117.155 173.277 117.162C173.284 117.167 173.287 117.171 173.296 117.177C173.334 117.205 173.381 117.23 173.422 117.257C173.24 117.139 173.425 117.266 173.459 117.301C173.48 117.322 173.499 117.344 173.519 117.366C173.537 117.387 173.553 117.409 173.567 117.432C173.597 117.487 173.629 117.543 173.661 117.596L173.669 117.61C173.669 117.612 173.669 117.614 173.669 117.616C173.685 117.703 173.709 117.789 173.741 117.872C173.743 117.879 173.744 117.886 173.745 117.893C173.748 117.941 173.752 117.989 173.752 118.037L173.751 118.046C173.606 117.971 173.445 117.931 173.282 117.93C173.118 117.928 172.956 117.966 172.81 118.04Z" fill="#275431"/>
<path d="M172.838 76.5703L172.835 76.5717L172.841 76.5703H172.838Z" fill="#275431"/>
<path d="M172.842 76.5684L172.844 76.5694L172.842 76.5684Z" fill="#275431"/>
<path d="M213.164 87.3995C212.728 86.6282 212.033 86.0363 211.203 85.7289C210.372 85.4215 209.459 85.4184 208.627 85.7203C208.213 85.8714 207.833 86.1039 207.511 86.4042C207.188 86.7045 206.929 87.0663 206.749 87.4684C206.713 87.5539 206.692 87.6438 206.663 87.7313C206.622 87.7973 206.573 87.8569 206.536 87.926C206.146 88.7042 206.039 89.5943 206.234 90.4429C206.429 91.2915 206.914 92.0455 207.605 92.575C208.296 93.1045 209.15 93.3765 210.021 93.344C210.891 93.3114 211.722 92.9765 212.372 92.3969C213.055 91.7796 213.506 90.9471 213.65 90.0379C213.794 89.1287 213.622 88.1976 213.164 87.3995ZM210.804 88.9997C210.809 89.0909 210.811 89.0472 210.804 88.9997V88.9997ZM210.564 88.4542C210.555 88.4436 210.556 88.4447 210.564 88.4542V88.4542ZM209.507 88.8794C209.491 88.8539 209.492 88.8576 209.507 88.8794V88.8794ZM209.757 89.0919C209.793 89.1079 209.817 89.1122 209.757 89.0919V89.0919ZM209.869 89.1452L209.894 89.1338C209.888 89.1344 209.882 89.1332 209.876 89.1303L209.877 89.1302L209.896 89.1326L209.9 89.131L209.889 89.1284C209.899 89.128 209.899 89.1295 209.9 89.131C210.012 89.0796 209.937 89.1043 209.872 89.1244L209.867 89.1234C209.827 89.1028 209.783 89.0888 209.738 89.0819C209.734 89.0796 209.729 89.0779 209.725 89.0754C209.689 89.0497 209.507 88.9073 209.676 89.0566C209.639 89.0241 209.603 88.9922 209.568 88.9571C209.548 88.9361 209.529 88.9134 209.513 88.8892C209.491 88.8511 209.469 88.8127 209.449 88.774L209.445 88.7531C209.443 88.7357 209.441 88.7285 209.438 88.7181C209.439 88.7073 209.441 88.6957 209.443 88.6845C209.455 88.6506 209.463 88.6152 209.467 88.5792L209.474 88.57C209.501 88.5322 209.525 88.4882 209.551 88.4489C209.414 88.6563 209.604 88.426 209.618 88.3968C209.621 88.3919 209.616 88.3946 209.617 88.3911C209.623 88.3881 209.621 88.3902 209.628 88.3863C209.67 88.3613 209.71 88.3335 209.753 88.3097C209.804 88.2814 210.006 88.2241 209.797 88.2839C209.845 88.2703 209.89 88.2532 209.938 88.2407C209.947 88.2384 210.017 88.2285 210.055 88.2217C210.088 88.2209 210.121 88.2199 210.124 88.2199C210.14 88.2201 210.155 88.222 210.171 88.2227C210.136 88.2274 210.29 88.2606 210.336 88.2676C210.342 88.2728 210.346 88.2761 210.355 88.2827C210.393 88.3109 210.44 88.336 210.481 88.3623C210.299 88.2445 210.483 88.3716 210.518 88.4065C210.539 88.4273 210.558 88.4495 210.578 88.4714C210.596 88.4922 210.612 88.5145 210.626 88.5379C210.656 88.5927 210.688 88.6481 210.719 88.7019L210.728 88.7158C210.728 88.7175 210.728 88.7193 210.728 88.7211C210.744 88.8085 210.768 88.8942 210.8 88.9772C210.802 88.9843 210.803 88.9914 210.804 88.9985C210.806 89.0464 210.81 89.0941 210.811 89.1422L210.81 89.1519C210.665 89.0762 210.504 89.0362 210.34 89.035C210.177 89.0338 210.015 89.0716 209.869 89.1452Z" fill="#275431"/>
<path d="M209.897 89.1328L209.894 89.1342L209.9 89.1328H209.897Z" fill="#275431"/>
<path d="M209.9 89.1309L209.902 89.1319L209.9 89.1309Z" fill="#275431"/>
<path d="M199.741 117.919L170.536 119.542C170.371 119.551 170.209 119.497 170.084 119.39C169.958 119.284 169.878 119.133 169.86 118.969C169.842 118.805 169.888 118.641 169.988 118.509C170.088 118.378 170.234 118.29 170.397 118.264L200.248 113.406L199.741 117.919Z" fill="#3F3D56"/>
<path d="M236.857 182.94L247.863 164.424L255.997 168.266C255.997 168.266 241.981 185.772 241.534 186.276C241.725 187.127 241.654 188.016 241.329 188.825C241.004 189.635 240.441 190.326 239.714 190.809C238.988 191.291 238.132 191.541 237.26 191.527C236.388 191.512 235.541 191.233 234.831 190.727C234.121 190.22 233.581 189.51 233.283 188.69C232.986 187.87 232.944 186.98 233.164 186.136C233.383 185.292 233.854 184.534 234.514 183.963C235.173 183.393 235.99 183.036 236.857 182.94Z" fill="#FFB6B6"/>
<path d="M241.435 139.928L259.266 149.231C260.38 150.033 261.315 151.06 262.01 152.244C262.705 153.429 263.145 154.745 263.302 156.11C263.46 157.474 263.331 158.856 262.923 160.168C262.516 161.479 261.839 162.691 260.937 163.727L248.645 177.827L243.29 170.571L247.417 161.941L239.425 159.833L241.435 139.928Z" fill="#501F6B"/>
<path d="M190.623 118.221L188.614 139.667L179.618 139.682C179.618 139.682 184.779 117.858 184.967 117.211C184.43 116.524 184.113 115.69 184.06 114.82C184.007 113.949 184.219 113.083 184.669 112.336C185.119 111.589 185.785 110.996 186.579 110.635C187.373 110.275 188.258 110.164 189.116 110.317C189.975 110.47 190.767 110.881 191.387 111.494C192.007 112.107 192.427 112.894 192.59 113.751C192.753 114.607 192.653 115.494 192.301 116.292C191.95 117.09 191.365 117.763 190.623 118.221Z" fill="#FFB6B6"/>
<path d="M208.53 162.077L187.824 158.28C179.105 157.232 175.527 151.495 177.1 145.899L182.163 127.891L190.111 132.152L190.081 141.718L201.207 140.197L208.53 162.077Z" fill="#501F6B"/>
<path d="M200.054 310.284H194.361L191.652 288.324H200.055L200.054 310.284Z" fill="#FFB6B6"/>
<path d="M200.255 316.224L182.747 316.224V316.002C182.747 314.195 183.465 312.462 184.743 311.184C186.021 309.906 187.754 309.188 189.562 309.188L192.76 306.762L198.727 309.188L200.255 309.188L200.255 316.224Z" fill="#2F2E41"/>
<path d="M240.338 310.284H246.032L248.74 288.324H240.337L240.338 310.284Z" fill="#FFB6B6"/>
<path d="M240.138 316.224L257.646 316.224V316.002C257.645 314.195 256.927 312.462 255.649 311.184C254.371 309.906 252.638 309.188 250.831 309.188L247.633 306.762L241.666 309.188L240.137 309.188L240.138 316.224Z" fill="#2F2E41"/>
<path d="M191.402 272.187C191.486 270.934 192.154 264.004 192.154 264.004L193.756 249.308L196.578 210.351L199.094 200.111L211.547 204.963L221.651 200.118L233.662 203.958L243.013 207.465C243.013 207.465 243.029 208.966 243.101 210.779C243.198 213.154 243.366 216.064 243.766 216.821C244.435 218.158 244.266 225.336 244.266 225.336C244.266 225.336 244.931 239.94 245.768 241.542C246.604 243.143 246.773 246.478 246.52 247.146C246.268 247.815 247.357 265.354 247.357 265.354C247.357 265.354 250.152 296.391 248.398 301.071C246.645 305.751 240.019 302.685 240.019 302.685C240.019 302.685 240.339 301.436 238.418 300.848C236.496 300.259 230.643 256.25 230.643 256.25C230.643 256.25 229.554 247.226 228.553 244.64C227.552 242.054 226.632 234.788 226.632 234.788C226.632 234.788 220.45 222.762 220.37 220.087C220.37 220.087 219.562 217.585 218.797 220.34C218.032 223.094 215.778 229.691 215.778 229.691L213.581 237.794L210.994 249.9L209.321 260.093C209.321 260.093 206.815 273.621 206.414 274.205C206.014 274.79 206.414 287.148 206.414 287.148C206.414 287.148 204.477 297.673 201.739 299.51C199 301.348 191.745 299.54 191.745 299.54C191.745 299.54 191.318 273.44 191.402 272.187Z" fill="#2F2E41"/>
<path d="M200.711 167.162L199.12 187.776L196.729 190.25C196.514 190.473 196.345 190.738 196.234 191.027C196.123 191.317 196.072 191.626 196.083 191.936C196.095 192.246 196.168 192.551 196.3 192.831C196.432 193.112 196.619 193.364 196.85 193.57L195.533 195.829L195.067 202.946C194.934 203.499 194.925 204.076 195.04 204.633C195.155 205.191 195.393 205.716 195.735 206.172C196.076 206.627 196.515 207.001 197.018 207.268C197.521 207.534 198.077 207.686 198.646 207.713L239.871 209.65C240.437 209.676 241.001 209.578 241.525 209.363C242.048 209.147 242.518 208.819 242.901 208.402C243.285 207.985 243.571 207.489 243.742 206.949C243.912 206.409 243.961 205.838 243.887 205.277L240.381 178.887V176.914L238.812 173.103L239.619 160.337L241.495 140.075L230.589 137.258L224.676 133.189L214.403 133.353L208.17 138.472L199.859 139.774L193.574 141.023L192.773 142.763L194.375 142.415L200.179 165.053L200.711 167.162Z" fill="#501F6B"/>
<path d="M219.31 130.427C225.993 130.427 231.411 125.009 231.411 118.326C231.411 111.643 225.993 106.225 219.31 106.225C212.627 106.225 207.209 111.643 207.209 118.326C207.209 125.009 212.627 130.427 219.31 130.427Z" fill="#FFB6B6"/>
<path d="M216.393 129.646L225.136 129.2C226.256 129.143 227.479 129.044 228.294 128.273C228.732 127.797 229.069 127.237 229.285 126.627C230.093 124.749 230.901 122.872 231.689 120.986C232.779 118.376 233.849 115.621 233.57 112.808C233.505 111.523 232.966 110.307 232.058 109.396C231.594 108.957 230.998 108.684 230.363 108.62C229.727 108.556 229.089 108.704 228.546 109.041C228.412 108.151 228.076 107.303 227.566 106.562C227.055 105.82 226.383 105.205 225.599 104.762C224.017 103.887 222.21 103.504 220.41 103.661C217.797 103.83 215.302 104.813 213.277 106.473C212.707 106.998 212.099 107.48 211.457 107.915C211.134 108.131 210.771 108.278 210.389 108.349C210.007 108.42 209.615 108.412 209.236 108.326C208.861 108.225 208.535 107.993 208.318 107.671C208.101 107.349 208.008 106.959 208.056 106.574C207.44 107.034 207.018 107.707 206.872 108.462C206.726 109.217 206.866 109.999 207.265 110.656C206.811 110.846 206.316 110.916 205.827 110.858C205.338 110.8 204.873 110.617 204.476 110.326C204.051 110.537 203.674 110.835 203.371 111.2C203.067 111.565 202.843 111.989 202.713 112.446C202.583 112.902 202.549 113.381 202.615 113.851C202.68 114.322 202.843 114.773 203.093 115.176C203.343 115.58 203.675 115.927 204.067 116.195C204.459 116.463 204.902 116.646 205.369 116.733C205.836 116.82 206.315 116.808 206.777 116.699C207.239 116.589 207.673 116.385 208.052 116.098C208.582 116.841 208.385 117.851 208.316 118.762C208.247 119.672 208.491 120.804 209.369 121.056C210.555 121.396 211.517 119.798 212.751 119.815C213.056 119.84 213.349 119.939 213.606 120.105C213.863 120.27 214.075 120.496 214.223 120.764C214.514 121.3 214.714 121.882 214.813 122.484L216.393 129.597" fill="#2F2E41"/>
<path d="M557.3 238.457C557.3 236.583 556.671 235.062 555.898 235.059H345.262C344.486 235.062 343.86 236.583 343.856 238.457V315.596C343.856 315.77 343.792 315.937 343.675 316.066C343.558 316.195 343.397 316.276 343.224 316.293C342.659 316.347 342.093 316.397 341.528 316.444C341.514 316.444 341.5 316.448 341.486 316.448C341.178 316.476 340.871 316.497 340.563 316.521H340.56C340.401 316.229 340.245 315.933 340.09 315.636C340.038 315.535 340.011 315.424 340.011 315.311V234.048C340.011 233.531 340.032 233.01 340.067 232.496C340.117 231.79 340.204 231.088 340.329 230.391C340.92 227.144 342.255 224.944 343.773 224.938H557.384C557.605 224.939 557.824 224.985 558.027 225.074C558.325 225.206 558.595 225.395 558.821 225.63C559.127 225.948 559.389 226.307 559.6 226.696C560.471 228.431 560.972 230.327 561.072 232.265C561.072 232.286 561.076 232.307 561.076 232.328C561.125 232.895 561.149 233.471 561.146 234.048L561.195 241.54L561.226 246.008L561.32 260.028L561.355 265.006L561.509 316.119C561.509 316.305 561.435 316.482 561.304 316.614C561.173 316.745 560.995 316.818 560.81 316.818H557.999C557.814 316.818 557.636 316.745 557.505 316.614C557.374 316.482 557.3 316.305 557.3 316.119V238.457Z" fill="#275431"/>
<path d="M500.063 189.881H477.367C477.046 189.881 476.738 190.009 476.512 190.237C476.285 190.464 476.158 190.772 476.158 191.093V226.947H501.276V191.093C501.276 190.934 501.245 190.776 501.184 190.629C501.123 190.482 501.033 190.348 500.921 190.236C500.808 190.123 500.675 190.034 500.528 189.973C500.38 189.912 500.223 189.881 500.063 189.881ZM488.792 210.252C488.082 210.249 487.402 209.966 486.9 209.464C486.398 208.962 486.115 208.282 486.112 207.572V203.437C486.112 202.726 486.394 202.044 486.897 201.542C487.399 201.039 488.081 200.757 488.792 200.757C489.502 200.757 490.184 201.039 490.687 201.542C491.189 202.044 491.472 202.726 491.472 203.437V207.572C491.468 208.282 491.185 208.962 490.683 209.464C490.181 209.966 489.501 210.249 488.792 210.252Z" fill="#B2B2B2"/>
<path d="M476.08 225.799V229.258C476.08 229.437 476.152 229.609 476.279 229.736C476.405 229.863 476.577 229.934 476.756 229.934H500.677C500.857 229.933 501.028 229.862 501.155 229.735C501.281 229.609 501.353 229.437 501.354 229.258V225.799H476.08Z" fill="#3F3D56"/>
<path d="M537.647 133.926H440.628C439.795 133.927 438.996 134.259 438.406 134.848C437.817 135.438 437.485 136.237 437.484 137.07V202.539C437.485 203.372 437.816 204.172 438.406 204.761C438.995 205.351 439.795 205.682 440.628 205.683H537.647C538.48 205.682 539.28 205.351 539.869 204.761C540.459 204.172 540.79 203.372 540.791 202.539V137.07C540.79 136.237 540.458 135.438 539.869 134.848C539.279 134.259 538.48 133.927 537.647 133.926Z" fill="#275431"/>
<path d="M536.837 136.197H441.439C440.993 136.198 440.565 136.376 440.25 136.692C439.934 137.008 439.757 137.436 439.757 137.882V201.728C439.758 202.174 439.936 202.601 440.251 202.916C440.566 203.231 440.993 203.409 441.439 203.41H536.837C537.283 203.409 537.71 203.231 538.025 202.916C538.34 202.601 538.518 202.174 538.518 201.728V137.882C538.518 137.436 538.341 137.008 538.026 136.692C537.711 136.376 537.283 136.198 536.837 136.197Z" fill="white"/>
<path d="M518.255 231.138H461.498C461.343 231.138 461.19 231.103 461.049 231.036C460.909 230.97 460.786 230.872 460.688 230.752C460.59 230.631 460.52 230.49 460.484 230.339C460.447 230.188 460.445 230.031 460.477 229.879L461.357 225.696C461.408 225.462 461.536 225.252 461.722 225.102C461.908 224.951 462.14 224.868 462.379 224.867H517.374C517.614 224.868 517.846 224.951 518.031 225.102C518.217 225.252 518.346 225.462 518.396 225.696L519.277 229.879C519.309 230.031 519.306 230.188 519.27 230.339C519.233 230.49 519.164 230.631 519.066 230.752C518.968 230.872 518.844 230.97 518.704 231.036C518.564 231.103 518.41 231.138 518.255 231.138Z" fill="#B2B2B2"/>
<path d="M464.223 225.621H463.089C462.919 225.621 462.782 225.758 462.782 225.928V226.363C462.782 226.533 462.919 226.67 463.089 226.67H464.223C464.393 226.67 464.53 226.533 464.53 226.363V225.928C464.53 225.758 464.393 225.621 464.223 225.621Z" fill="#275431"/>
<path d="M467.719 225.621H466.585C466.415 225.621 466.278 225.758 466.278 225.928V226.363C466.278 226.533 466.415 226.67 466.585 226.67H467.719C467.889 226.67 468.026 226.533 468.026 226.363V225.928C468.026 225.758 467.889 225.621 467.719 225.621Z" fill="#275431"/>
<path d="M471.216 225.621H470.081C469.911 225.621 469.774 225.758 469.774 225.928V226.363C469.774 226.533 469.911 226.67 470.081 226.67H471.216C471.385 226.67 471.522 226.533 471.522 226.363V225.928C471.522 225.758 471.385 225.621 471.216 225.621Z" fill="#275431"/>
<path d="M474.711 225.621H473.577C473.407 225.621 473.27 225.758 473.27 225.928V226.363C473.27 226.533 473.407 226.67 473.577 226.67H474.711C474.881 226.67 475.018 226.533 475.018 226.363V225.928C475.018 225.758 474.881 225.621 474.711 225.621Z" fill="#275431"/>
<path d="M478.208 225.621H477.073C476.904 225.621 476.766 225.758 476.766 225.928V226.363C476.766 226.533 476.904 226.67 477.073 226.67H478.208C478.377 226.67 478.514 226.533 478.514 226.363V225.928C478.514 225.758 478.377 225.621 478.208 225.621Z" fill="#275431"/>
<path d="M481.704 225.621H480.569C480.4 225.621 480.262 225.758 480.262 225.928V226.363C480.262 226.533 480.4 226.67 480.569 226.67H481.704C481.873 226.67 482.01 226.533 482.01 226.363V225.928C482.01 225.758 481.873 225.621 481.704 225.621Z" fill="#275431"/>
<path d="M485.2 225.621H484.065C483.896 225.621 483.759 225.758 483.759 225.928V226.363C483.759 226.533 483.896 226.67 484.065 226.67H485.2C485.369 226.67 485.507 226.533 485.507 226.363V225.928C485.507 225.758 485.369 225.621 485.2 225.621Z" fill="#275431"/>
<path d="M488.696 225.621H487.561C487.392 225.621 487.254 225.758 487.254 225.928V226.363C487.254 226.533 487.392 226.67 487.561 226.67H488.696C488.865 226.67 489.002 226.533 489.002 226.363V225.928C489.002 225.758 488.865 225.621 488.696 225.621Z" fill="#275431"/>
<path d="M492.192 225.621H491.057C490.888 225.621 490.751 225.758 490.751 225.928V226.363C490.751 226.533 490.888 226.67 491.057 226.67H492.192C492.361 226.67 492.499 226.533 492.499 226.363V225.928C492.499 225.758 492.361 225.621 492.192 225.621Z" fill="#275431"/>
<path d="M495.688 225.621H494.553C494.384 225.621 494.247 225.758 494.247 225.928V226.363C494.247 226.533 494.384 226.67 494.553 226.67H495.688C495.858 226.67 495.995 226.533 495.995 226.363V225.928C495.995 225.758 495.858 225.621 495.688 225.621Z" fill="#275431"/>
<path d="M499.184 225.621H498.05C497.88 225.621 497.743 225.758 497.743 225.928V226.363C497.743 226.533 497.88 226.67 498.05 226.67H499.184C499.354 226.67 499.491 226.533 499.491 226.363V225.928C499.491 225.758 499.354 225.621 499.184 225.621Z" fill="#275431"/>
<path d="M502.68 225.621H501.545C501.376 225.621 501.239 225.758 501.239 225.928V226.363C501.239 226.533 501.376 226.67 501.545 226.67H502.68C502.85 226.67 502.987 226.533 502.987 226.363V225.928C502.987 225.758 502.85 225.621 502.68 225.621Z" fill="#275431"/>
<path d="M506.176 225.621H505.042C504.872 225.621 504.735 225.758 504.735 225.928V226.363C504.735 226.533 504.872 226.67 505.042 226.67H506.176C506.346 226.67 506.483 226.533 506.483 226.363V225.928C506.483 225.758 506.346 225.621 506.176 225.621Z" fill="#275431"/>
<path d="M509.673 225.621H508.538C508.369 225.621 508.231 225.758 508.231 225.928V226.363C508.231 226.533 508.369 226.67 508.538 226.67H509.673C509.842 226.67 509.979 226.533 509.979 226.363V225.928C509.979 225.758 509.842 225.621 509.673 225.621Z" fill="#275431"/>
<path d="M513.168 225.621H512.034C511.864 225.621 511.727 225.758 511.727 225.928V226.363C511.727 226.533 511.864 226.67 512.034 226.67H513.168C513.338 226.67 513.475 226.533 513.475 226.363V225.928C513.475 225.758 513.338 225.621 513.168 225.621Z" fill="#275431"/>
<path d="M516.665 225.621H515.53C515.36 225.621 515.223 225.758 515.223 225.928V226.363C515.223 226.533 515.36 226.67 515.53 226.67H516.665C516.834 226.67 516.971 226.533 516.971 226.363V225.928C516.971 225.758 516.834 225.621 516.665 225.621Z" fill="#275431"/>
<path d="M464.182 227.369H463.047C462.878 227.369 462.74 227.506 462.74 227.676V228.111C462.74 228.281 462.878 228.418 463.047 228.418H464.182C464.351 228.418 464.489 228.281 464.489 228.111V227.676C464.489 227.506 464.351 227.369 464.182 227.369Z" fill="#275431"/>
<path d="M467.678 227.369H466.543C466.374 227.369 466.237 227.506 466.237 227.676V228.111C466.237 228.281 466.374 228.418 466.543 228.418H467.678C467.847 228.418 467.985 228.281 467.985 228.111V227.676C467.985 227.506 467.847 227.369 467.678 227.369Z" fill="#275431"/>
<path d="M471.174 227.369H470.039C469.87 227.369 469.733 227.506 469.733 227.676V228.111C469.733 228.281 469.87 228.418 470.039 228.418H471.174C471.343 228.418 471.481 228.281 471.481 228.111V227.676C471.481 227.506 471.343 227.369 471.174 227.369Z" fill="#275431"/>
<path d="M474.67 227.369H473.536C473.366 227.369 473.229 227.506 473.229 227.676V228.111C473.229 228.281 473.366 228.418 473.536 228.418H474.67C474.84 228.418 474.977 228.281 474.977 228.111V227.676C474.977 227.506 474.84 227.369 474.67 227.369Z" fill="#275431"/>
<path d="M478.166 227.369H477.032C476.862 227.369 476.725 227.506 476.725 227.676V228.111C476.725 228.281 476.862 228.418 477.032 228.418H478.166C478.336 228.418 478.473 228.281 478.473 228.111V227.676C478.473 227.506 478.336 227.369 478.166 227.369Z" fill="#275431"/>
<path d="M481.662 227.369H480.528C480.358 227.369 480.221 227.506 480.221 227.676V228.111C480.221 228.281 480.358 228.418 480.528 228.418H481.662C481.832 228.418 481.969 228.281 481.969 228.111V227.676C481.969 227.506 481.832 227.369 481.662 227.369Z" fill="#275431"/>
<path d="M485.158 227.369H484.024C483.854 227.369 483.717 227.506 483.717 227.676V228.111C483.717 228.281 483.854 228.418 484.024 228.418H485.158C485.328 228.418 485.465 228.281 485.465 228.111V227.676C485.465 227.506 485.328 227.369 485.158 227.369Z" fill="#275431"/>
<path d="M488.655 227.369H487.52C487.351 227.369 487.213 227.506 487.213 227.676V228.111C487.213 228.281 487.351 228.418 487.52 228.418H488.655C488.824 228.418 488.961 228.281 488.961 228.111V227.676C488.961 227.506 488.824 227.369 488.655 227.369Z" fill="#275431"/>
<path d="M492.151 227.369H491.016C490.847 227.369 490.709 227.506 490.709 227.676V228.111C490.709 228.281 490.847 228.418 491.016 228.418H492.151C492.32 228.418 492.457 228.281 492.457 228.111V227.676C492.457 227.506 492.32 227.369 492.151 227.369Z" fill="#275431"/>
<path d="M495.647 227.369H494.512C494.343 227.369 494.205 227.506 494.205 227.676V228.111C494.205 228.281 494.343 228.418 494.512 228.418H495.647C495.816 228.418 495.953 228.281 495.953 228.111V227.676C495.953 227.506 495.816 227.369 495.647 227.369Z" fill="#275431"/>
<path d="M499.143 227.369H498.008C497.839 227.369 497.701 227.506 497.701 227.676V228.111C497.701 228.281 497.839 228.418 498.008 228.418H499.143C499.312 228.418 499.449 228.281 499.449 228.111V227.676C499.449 227.506 499.312 227.369 499.143 227.369Z" fill="#275431"/>
<path d="M502.639 227.369H501.504C501.335 227.369 501.198 227.506 501.198 227.676V228.111C501.198 228.281 501.335 228.418 501.504 228.418H502.639C502.809 228.418 502.946 228.281 502.946 228.111V227.676C502.946 227.506 502.809 227.369 502.639 227.369Z" fill="#275431"/>
<path d="M506.135 227.369H505C504.831 227.369 504.694 227.506 504.694 227.676V228.111C504.694 228.281 504.831 228.418 505 228.418H506.135C506.304 228.418 506.442 228.281 506.442 228.111V227.676C506.442 227.506 506.304 227.369 506.135 227.369Z" fill="#275431"/>
<path d="M509.631 227.369H508.496C508.327 227.369 508.19 227.506 508.19 227.676V228.111C508.19 228.281 508.327 228.418 508.496 228.418H509.631C509.8 228.418 509.938 228.281 509.938 228.111V227.676C509.938 227.506 509.8 227.369 509.631 227.369Z" fill="#275431"/>
<path d="M513.127 227.369H511.993C511.823 227.369 511.686 227.506 511.686 227.676V228.111C511.686 228.281 511.823 228.418 511.993 228.418H513.127C513.297 228.418 513.434 228.281 513.434 228.111V227.676C513.434 227.506 513.297 227.369 513.127 227.369Z" fill="#275431"/>
<path d="M516.624 227.369H515.489C515.319 227.369 515.182 227.506 515.182 227.676V228.111C515.182 228.281 515.319 228.418 515.489 228.418H516.624C516.793 228.418 516.93 228.281 516.93 228.111V227.676C516.93 227.506 516.793 227.369 516.624 227.369Z" fill="#275431"/>
<path d="M493.2 229.467H479.829C479.659 229.467 479.522 229.604 479.522 229.773V230.209C479.522 230.378 479.659 230.516 479.829 230.516H493.2C493.369 230.516 493.506 230.378 493.506 230.209V229.773C493.506 229.604 493.369 229.467 493.2 229.467Z" fill="#275431"/>
<path d="M532.041 144.995H442.778C442.685 144.993 442.597 144.955 442.532 144.888C442.467 144.822 442.431 144.733 442.431 144.64C442.431 144.547 442.467 144.458 442.532 144.392C442.597 144.326 442.685 144.287 442.778 144.285H532.041C532.134 144.287 532.222 144.326 532.287 144.392C532.352 144.458 532.388 144.547 532.388 144.64C532.388 144.733 532.352 144.822 532.287 144.888C532.222 144.955 532.134 144.993 532.041 144.995Z" fill="#CACACA"/>
<path d="M448.854 142.472C450.003 142.472 450.935 141.52 450.935 140.345C450.935 139.171 450.003 138.219 448.854 138.219C447.705 138.219 446.774 139.171 446.774 140.345C446.774 141.52 447.705 142.472 448.854 142.472Z" fill="#B2B2B2"/>
<path d="M456.041 142.472C457.19 142.472 458.121 141.52 458.121 140.345C458.121 139.171 457.19 138.219 456.041 138.219C454.892 138.219 453.96 139.171 453.96 140.345C453.96 141.52 454.892 142.472 456.041 142.472Z" fill="#B2B2B2"/>
<path d="M463.227 142.472C464.376 142.472 465.308 141.52 465.308 140.345C465.308 139.171 464.376 138.219 463.227 138.219C462.078 138.219 461.147 139.171 461.147 140.345C461.147 141.52 462.078 142.472 463.227 142.472Z" fill="#B2B2B2"/>
<path d="M527.714 138.746H522.609C522.508 138.748 522.412 138.79 522.341 138.862C522.27 138.934 522.23 139.031 522.23 139.133C522.23 139.234 522.27 139.331 522.341 139.403C522.412 139.476 522.508 139.517 522.609 139.519H527.714C527.816 139.517 527.912 139.476 527.983 139.403C528.054 139.331 528.093 139.234 528.093 139.133C528.093 139.031 528.054 138.934 527.983 138.862C527.912 138.79 527.816 138.748 527.714 138.746Z" fill="#B2B2B2"/>
<path d="M527.714 140.195H522.609C522.508 140.197 522.412 140.239 522.341 140.311C522.27 140.383 522.23 140.481 522.23 140.582C522.23 140.683 522.27 140.78 522.341 140.852C522.412 140.925 522.508 140.966 522.609 140.968H527.714C527.815 140.966 527.912 140.925 527.983 140.852C528.053 140.78 528.093 140.683 528.093 140.582C528.093 140.481 528.053 140.383 527.983 140.311C527.912 140.239 527.815 140.197 527.714 140.195Z" fill="#B2B2B2"/>
<path d="M527.714 141.645H522.609C522.508 141.647 522.412 141.688 522.341 141.76C522.27 141.833 522.23 141.93 522.23 142.031C522.23 142.132 522.27 142.229 522.341 142.302C522.412 142.374 522.508 142.416 522.609 142.418H527.714C527.816 142.416 527.912 142.374 527.983 142.302C528.054 142.229 528.093 142.132 528.093 142.031C528.093 141.93 528.054 141.833 527.983 141.76C527.912 141.688 527.816 141.647 527.714 141.645Z" fill="#B2B2B2"/>
<path d="M329.588 270.999L324.446 268.539L331.509 247.047L339.098 250.676L329.588 270.999Z" fill="#FFB6B6"/>
<path d="M364.06 267.534C363.686 267.768 363.312 267.998 362.935 268.229C362.183 268.69 361.424 269.143 360.665 269.589C360.283 269.811 359.898 270.034 359.516 270.253V270.265L359.494 270.268L359.486 270.272L358.905 270.416L358.07 268.21L357.685 267.194L357.141 265.755L356.144 263.122L350.894 249.261L359.056 247.248L359.362 248.498H359.365L359.517 249.118L362.368 260.683L362.95 263.047L362.969 263.119L363.32 264.531L363.622 265.755L363.958 267.122L364.06 267.534Z" fill="#FFB6B6"/>
<path d="M412.749 218.856C412.232 219.687 411.703 220.514 411.171 221.334C410.181 222.86 409.165 224.363 408.123 225.844C408.123 225.847 408.119 225.847 408.115 225.851C407.507 226.414 406.835 226.905 406.113 227.313C406.083 227.335 406.049 227.351 406.019 227.369C405.487 227.663 404.922 227.89 404.334 228.045C404.123 228.098 403.908 228.151 403.696 228.204C402.933 228.385 402.178 228.54 401.426 228.676C400.089 228.914 398.767 229.084 397.453 229.19C397.347 229.201 397.241 229.209 397.136 229.216C391.731 229.613 386.469 228.975 380.978 227.928C378.266 227.415 375.497 226.799 372.631 226.161C371.694 225.949 370.754 225.742 369.802 225.534C369.73 225.519 369.655 225.5 369.579 225.485C368.219 225.186 366.837 224.892 365.421 224.601C363.638 224.235 361.799 223.879 359.887 223.543L360.023 226.236C360.137 228.308 360.567 230.35 361.3 232.291C362.116 234.678 362.762 236.566 361.398 240.498L360.741 242.402C361.082 243.347 361.199 244.358 361.083 245.356C360.967 246.354 360.621 247.312 360.073 248.154L359.94 248.354L365.421 262.219L365.776 263.118H362.969L359.517 263.122H353.667L345.225 246.186L344.821 245.378V245.336L345.694 212.79C345.705 212.503 345.728 212.213 345.765 211.926C345.919 210.621 346.332 209.359 346.978 208.215C347.625 207.072 348.493 206.068 349.531 205.263C350.526 204.485 351.666 203.913 352.885 203.58C354.103 203.247 355.375 203.159 356.628 203.322L359.517 203.696L365.421 204.459L369.579 204.999L369.662 205.01L381.926 206.596L382.806 203.008L382.968 202.948L388.131 201.056L405.989 194.51L406.034 194.495L407.209 194.064L407.348 194.291C407.39 194.359 407.431 194.427 407.469 194.495C408.63 196.576 409.575 198.771 410.291 201.044C411.493 204.758 412.483 208.537 413.255 212.364C413.289 212.53 413.32 212.681 413.346 212.817L413.357 212.858C413.369 212.923 413.376 212.964 413.38 212.976C413.734 214.956 413.515 216.996 412.749 218.856Z" fill="#2F2E41"/>
<path d="M413.503 206.862C413.446 206.62 413.375 206.375 413.299 206.137C412.7 204.335 412.001 202.567 411.207 200.841C410.315 198.877 409.246 196.774 407.974 194.496C407.358 193.393 406.696 192.246 405.987 191.055C405.632 190.459 405.263 189.851 404.88 189.231C404.865 189.203 404.849 189.175 404.831 189.148L404.722 188.967L387.053 191.331L380.474 192.211L380.081 195.49L379.987 196.302C379.983 196.302 379.983 196.302 379.987 196.305L379.722 198.519V198.522L379.371 201.446L379.341 201.442L369.577 200.177L359.516 198.874L354.111 198.175C352.858 198.012 351.586 198.099 350.367 198.433C349.149 198.766 348.009 199.338 347.014 200.116C345.976 200.921 345.108 201.925 344.461 203.069C343.815 204.213 343.403 205.474 343.249 206.779C343.215 207.043 343.192 207.315 343.181 207.583L338.082 219.666C335.031 226.892 333.087 234.537 332.318 242.342L328.579 254.296L329.111 254.345L337.035 255.082L339.128 255.278L343.736 248.552C344.261 247.785 344.759 246.996 345.224 246.187C345.989 244.867 346.669 243.5 347.26 242.093L357.227 218.374C357.997 218.506 358.76 218.632 359.516 218.752C363.009 219.318 366.363 219.78 369.577 220.138C380.028 221.305 389.078 221.396 397.134 220.406C399.396 220.13 401.583 219.768 403.694 219.318C404.469 219.156 405.233 218.981 405.987 218.793C406.165 218.752 406.338 218.71 406.512 218.665C408.073 218.262 409.508 217.475 410.686 216.374C411.864 215.273 412.747 213.895 413.254 212.365C413.859 210.592 413.946 208.682 413.503 206.862Z" fill="#2F2E41"/>
<path d="M331.23 267.49L325.667 264.824L324.795 264.404L323.401 267.826L313.671 269.968C313.19 270.073 312.756 270.33 312.431 270.7C312.106 271.07 311.908 271.534 311.866 272.025C311.823 272.516 311.939 273.007 312.196 273.427C312.453 273.847 312.838 274.174 313.294 274.36L322.8 278.239L325.818 275.524L325.078 279.168L328.658 280.63L332.583 268.14L331.23 267.49Z" fill="#2F2E41"/>
<path d="M365.42 262.219L365.776 263.118H365.42V262.219Z" fill="#2F2E41"/>
<path d="M363.483 263.31L357.654 265.33L356.739 265.646L358.156 269.058L352.75 277.425C352.482 277.839 352.354 278.327 352.383 278.819C352.413 279.31 352.599 279.78 352.914 280.158C353.229 280.536 353.657 280.804 354.135 280.922C354.614 281.039 355.117 281.001 355.572 280.812L365.056 276.88L365.29 272.827L367.328 275.937L370.901 274.457L364.901 262.82L363.483 263.31Z" fill="#2F2E41"/>
<path d="M328.101 138.343C328.378 138.882 328.769 139.353 329.247 139.724C329.725 140.095 330.279 140.357 330.87 140.491C331.46 140.624 332.072 140.627 332.664 140.499C333.255 140.37 333.811 140.114 334.293 139.747L346.551 147.884L346.574 140.239L334.93 133.683C334.261 132.915 333.333 132.419 332.322 132.29C331.311 132.16 330.288 132.406 329.446 132.98C328.604 133.555 328.002 134.418 327.755 135.406C327.507 136.395 327.63 137.44 328.101 138.343Z" fill="#FFB6B6"/>
<path d="M337.259 141.876L342.978 135.369L366.265 149.194L397.135 146.367C398.661 146.227 400.198 146.425 401.639 146.946C403.08 147.468 404.388 148.3 405.471 149.384C406.554 150.468 407.385 151.777 407.905 153.219C408.425 154.66 408.622 156.198 408.481 157.724C408.223 160.479 406.882 163.02 404.753 164.788C402.624 166.556 399.881 167.408 397.124 167.156L362.358 163.938L337.259 141.876Z" fill="#B2B2B2"/>
<path d="M408.906 141.977L408.853 141.91C404.51 141.481 400.137 142.322 396.262 144.329C392.388 146.337 389.179 149.425 387.024 153.22L384.405 157.835C375.931 168.194 382.088 175.339 382.457 176.401L379.516 189.963L380.175 194.502L380.504 195.85L414.08 213.394C415.991 204.21 414.143 196.383 407.179 190.404L413.917 169.439C415.411 164.803 415.735 159.87 414.861 155.079C413.987 150.287 411.941 145.787 408.906 141.977Z" fill="#B2B2B2"/>
<path d="M382.21 243.829H371.44C370.848 243.829 370.275 243.615 369.828 243.226C369.381 242.838 369.089 242.301 369.006 241.714C368.341 236.821 368.341 231.86 369.006 226.967C369.088 226.387 369.374 225.856 369.813 225.468C370.251 225.081 370.814 224.862 371.399 224.852C374.787 223.333 378.436 223.333 382.247 224.852C382.602 224.857 382.951 224.939 383.271 225.093C383.591 225.247 383.873 225.469 384.097 225.744C384.332 226.03 384.499 226.364 384.588 226.723C384.677 227.082 384.685 227.456 384.611 227.818C383.746 232.123 383.746 236.558 384.611 240.863C384.685 241.225 384.677 241.599 384.588 241.958C384.499 242.317 384.332 242.651 384.097 242.937C383.869 243.216 383.581 243.442 383.254 243.596C382.928 243.75 382.571 243.83 382.21 243.829Z" fill="#501F6B"/>
<path d="M381.082 230.475H372.017C371.943 230.476 371.868 230.461 371.799 230.433C371.73 230.405 371.667 230.363 371.613 230.311C371.56 230.258 371.518 230.195 371.489 230.126C371.461 230.057 371.446 229.983 371.446 229.908C371.446 229.834 371.461 229.759 371.489 229.69C371.518 229.621 371.56 229.559 371.613 229.506C371.667 229.453 371.73 229.412 371.799 229.383C371.868 229.355 371.943 229.341 372.017 229.342H381.082C381.157 229.341 381.231 229.355 381.3 229.383C381.37 229.412 381.433 229.453 381.486 229.506C381.539 229.559 381.581 229.621 381.61 229.69C381.639 229.759 381.654 229.834 381.654 229.908C381.654 229.983 381.639 230.057 381.61 230.126C381.581 230.195 381.539 230.258 381.486 230.311C381.433 230.363 381.37 230.405 381.3 230.433C381.231 230.461 381.157 230.476 381.082 230.475Z" fill="white"/>
<path d="M381.082 235.008H372.017C371.943 235.009 371.868 234.995 371.799 234.966C371.73 234.938 371.667 234.897 371.613 234.844C371.56 234.791 371.518 234.729 371.489 234.66C371.461 234.59 371.446 234.516 371.446 234.442C371.446 234.367 371.461 234.293 371.489 234.224C371.518 234.155 371.56 234.092 371.613 234.039C371.667 233.987 371.73 233.945 371.799 233.917C371.868 233.889 371.943 233.874 372.017 233.875H381.082C381.157 233.874 381.231 233.889 381.3 233.917C381.37 233.945 381.433 233.987 381.486 234.039C381.539 234.092 381.581 234.155 381.61 234.224C381.639 234.293 381.654 234.367 381.654 234.442C381.654 234.516 381.639 234.59 381.61 234.66C381.581 234.729 381.539 234.791 381.486 234.844C381.433 234.897 381.37 234.938 381.3 234.966C381.231 234.995 381.157 235.009 381.082 235.008Z" fill="white"/>
<path d="M381.082 239.539H372.017C371.942 239.54 371.868 239.526 371.799 239.498C371.729 239.47 371.666 239.428 371.613 239.375C371.56 239.323 371.518 239.26 371.489 239.191C371.46 239.122 371.445 239.048 371.445 238.973C371.445 238.898 371.46 238.824 371.489 238.755C371.518 238.686 371.56 238.623 371.613 238.57C371.666 238.518 371.729 238.476 371.799 238.448C371.868 238.42 371.942 238.406 372.017 238.406H381.082C381.157 238.406 381.231 238.42 381.3 238.448C381.37 238.476 381.433 238.518 381.486 238.57C381.539 238.623 381.581 238.686 381.61 238.755C381.639 238.824 381.654 238.898 381.654 238.973C381.654 239.048 381.639 239.122 381.61 239.191C381.581 239.26 381.539 239.323 381.486 239.375C381.433 239.428 381.37 239.47 381.3 239.498C381.231 239.526 381.157 239.54 381.082 239.539Z" fill="white"/>
<path d="M330.076 142.075H319.306C318.714 142.075 318.142 141.861 317.694 141.472C317.247 141.084 316.955 140.547 316.872 139.961C316.207 135.067 316.207 130.106 316.872 125.213C316.954 124.633 317.24 124.102 317.679 123.714C318.117 123.327 318.68 123.108 319.265 123.098C322.653 121.579 326.303 121.579 330.113 123.098C330.468 123.103 330.817 123.185 331.137 123.339C331.457 123.493 331.739 123.716 331.964 123.99C332.198 124.276 332.365 124.611 332.454 124.969C332.543 125.328 332.551 125.702 332.477 126.064C331.612 130.369 331.612 134.804 332.477 139.109C332.551 139.471 332.543 139.845 332.454 140.204C332.365 140.563 332.198 140.897 331.964 141.183C331.735 141.463 331.447 141.688 331.12 141.842C330.794 141.997 330.437 142.076 330.076 142.075Z" fill="#501F6B"/>
<path d="M328.948 128.721H319.884C319.809 128.722 319.735 128.707 319.665 128.679C319.596 128.651 319.533 128.61 319.48 128.557C319.427 128.504 319.384 128.441 319.356 128.372C319.327 128.303 319.312 128.229 319.312 128.154C319.312 128.08 319.327 128.006 319.356 127.936C319.384 127.867 319.427 127.805 319.48 127.752C319.533 127.699 319.596 127.658 319.665 127.63C319.735 127.601 319.809 127.587 319.884 127.588H328.948C329.023 127.587 329.097 127.601 329.167 127.63C329.236 127.658 329.299 127.699 329.352 127.752C329.405 127.805 329.447 127.867 329.476 127.936C329.505 128.006 329.52 128.08 329.52 128.154C329.52 128.229 329.505 128.303 329.476 128.372C329.447 128.441 329.405 128.504 329.352 128.557C329.299 128.61 329.236 128.651 329.167 128.679C329.097 128.707 329.023 128.722 328.948 128.721Z" fill="white"/>
<path d="M328.948 133.252H319.884C319.809 133.253 319.735 133.239 319.665 133.211C319.596 133.182 319.533 133.141 319.48 133.088C319.427 133.035 319.384 132.973 319.356 132.904C319.327 132.835 319.312 132.761 319.312 132.686C319.312 132.611 319.327 132.537 319.356 132.468C319.384 132.399 319.427 132.336 319.48 132.283C319.533 132.231 319.596 132.189 319.665 132.161C319.735 132.133 319.809 132.119 319.884 132.119H328.948C329.023 132.119 329.097 132.133 329.167 132.161C329.236 132.189 329.299 132.231 329.352 132.283C329.405 132.336 329.447 132.399 329.476 132.468C329.505 132.537 329.52 132.611 329.52 132.686C329.52 132.761 329.505 132.835 329.476 132.904C329.447 132.973 329.405 133.035 329.352 133.088C329.299 133.141 329.236 133.182 329.167 133.211C329.097 133.239 329.023 133.253 328.948 133.252Z" fill="white"/>
<path d="M328.948 137.785H319.883C319.809 137.786 319.734 137.772 319.665 137.744C319.596 137.716 319.533 137.674 319.479 137.621C319.426 137.569 319.384 137.506 319.355 137.437C319.326 137.368 319.312 137.294 319.312 137.219C319.312 137.144 319.326 137.07 319.355 137.001C319.384 136.932 319.426 136.869 319.479 136.816C319.533 136.764 319.596 136.722 319.665 136.694C319.734 136.666 319.809 136.652 319.883 136.652H328.948C329.023 136.652 329.097 136.666 329.167 136.694C329.236 136.722 329.299 136.764 329.352 136.816C329.405 136.869 329.448 136.932 329.476 137.001C329.505 137.07 329.52 137.144 329.52 137.219C329.52 137.294 329.505 137.368 329.476 137.437C329.448 137.506 329.405 137.569 329.352 137.621C329.299 137.674 329.236 137.716 329.167 137.744C329.097 137.772 329.023 137.786 328.948 137.785Z" fill="white"/>
<path d="M141.013 169.712H130.243C129.65 169.712 129.078 169.498 128.631 169.109C128.184 168.721 127.892 168.184 127.809 167.597C127.144 162.704 127.144 157.743 127.809 152.849C127.891 152.27 128.177 151.739 128.615 151.351C129.054 150.964 129.616 150.745 130.201 150.735C133.59 149.216 137.239 149.216 141.05 150.735C141.404 150.739 141.754 150.822 142.074 150.976C142.393 151.13 142.675 151.352 142.9 151.627C143.134 151.913 143.302 152.247 143.391 152.606C143.479 152.965 143.487 153.339 143.413 153.701C142.548 158.006 142.548 162.441 143.413 166.746C143.487 167.108 143.479 167.482 143.391 167.841C143.302 168.199 143.134 168.534 142.9 168.82C142.671 169.099 142.383 169.324 142.057 169.479C141.73 169.633 141.374 169.713 141.013 169.712Z" fill="#501F6B"/>
<path d="M139.885 156.358H130.82C130.745 156.358 130.671 156.344 130.602 156.316C130.532 156.288 130.469 156.246 130.416 156.194C130.363 156.141 130.321 156.078 130.292 156.009C130.263 155.94 130.249 155.866 130.249 155.791C130.249 155.716 130.263 155.642 130.292 155.573C130.321 155.504 130.363 155.441 130.416 155.389C130.469 155.336 130.532 155.294 130.602 155.266C130.671 155.238 130.745 155.224 130.82 155.225H139.885C139.96 155.224 140.034 155.238 140.103 155.266C140.172 155.294 140.235 155.336 140.289 155.389C140.342 155.441 140.384 155.504 140.413 155.573C140.441 155.642 140.456 155.716 140.456 155.791C140.456 155.866 140.441 155.94 140.413 156.009C140.384 156.078 140.342 156.141 140.289 156.194C140.235 156.246 140.172 156.288 140.103 156.316C140.034 156.344 139.96 156.358 139.885 156.358Z" fill="white"/>
<path d="M139.885 160.889H130.82C130.745 160.89 130.671 160.875 130.602 160.847C130.532 160.819 130.469 160.777 130.416 160.725C130.363 160.672 130.321 160.609 130.292 160.54C130.263 160.471 130.249 160.397 130.249 160.322C130.249 160.248 130.263 160.174 130.292 160.104C130.321 160.035 130.363 159.973 130.416 159.92C130.469 159.867 130.532 159.826 130.602 159.798C130.671 159.769 130.745 159.755 130.82 159.756H139.885C139.96 159.755 140.034 159.769 140.103 159.798C140.172 159.826 140.235 159.867 140.289 159.92C140.342 159.973 140.384 160.035 140.413 160.104C140.441 160.174 140.456 160.248 140.456 160.322C140.456 160.397 140.441 160.471 140.413 160.54C140.384 160.609 140.342 160.672 140.289 160.725C140.235 160.777 140.172 160.819 140.103 160.847C140.034 160.875 139.96 160.89 139.885 160.889Z" fill="white"/>
<path d="M139.885 165.422H130.82C130.745 165.423 130.671 165.409 130.601 165.381C130.532 165.352 130.469 165.311 130.416 165.258C130.363 165.205 130.32 165.143 130.292 165.074C130.263 165.005 130.248 164.93 130.248 164.856C130.248 164.781 130.263 164.707 130.292 164.638C130.32 164.569 130.363 164.506 130.416 164.453C130.469 164.4 130.532 164.359 130.601 164.331C130.671 164.303 130.745 164.288 130.82 164.289H139.885C139.959 164.288 140.034 164.303 140.103 164.331C140.172 164.359 140.235 164.4 140.289 164.453C140.342 164.506 140.384 164.569 140.413 164.638C140.442 164.707 140.456 164.781 140.456 164.856C140.456 164.93 140.442 165.005 140.413 165.074C140.384 165.143 140.342 165.205 140.289 165.258C140.235 165.311 140.172 165.352 140.103 165.381C140.034 165.409 139.959 165.423 139.885 165.422Z" fill="white"/>
<path d="M385.365 230.063C385.887 229.755 386.334 229.337 386.676 228.838C387.018 228.338 387.246 227.77 387.345 227.173C387.443 226.575 387.41 225.964 387.246 225.381C387.083 224.798 386.794 224.258 386.399 223.799L393.795 211.08L386.161 211.51L380.308 223.523C379.581 224.237 379.141 225.193 379.072 226.209C379.003 227.226 379.308 228.233 379.932 229.039C380.555 229.845 381.453 230.395 382.454 230.584C383.455 230.772 384.491 230.587 385.365 230.063Z" fill="#FFB6B6"/>
<path d="M388.35 220.712L381.515 215.389L393.934 191.323L389.281 160.675C389.051 159.16 389.157 157.613 389.592 156.144C390.027 154.675 390.78 153.32 391.798 152.174C392.816 151.029 394.074 150.122 395.482 149.517C396.889 148.913 398.413 148.625 399.945 148.676C402.71 148.77 405.326 149.957 407.218 151.978C409.109 153.998 410.122 156.686 410.034 159.452L408.884 194.348L388.35 220.712Z" fill="#B2B2B2"/>
<path d="M58.0267 214.137C58.4572 213.704 58.7875 213.183 58.9945 212.608C59.2015 212.034 59.2801 211.422 59.2247 210.814C59.1694 210.206 58.9815 209.618 58.6742 209.091C58.3669 208.563 57.9477 208.11 57.4462 207.762L64.0929 174.748L56.7528 177.105L51.4324 209.038C50.9041 209.919 50.7173 210.963 50.9075 211.973C51.0978 212.983 51.6518 213.888 52.4646 214.516C53.2774 215.145 54.2926 215.453 55.3177 215.383C56.3428 215.314 57.3067 214.87 58.0267 214.137Z" fill="#9E616A"/>
<path d="M67.8411 144.287L63.2869 140.849C63.2869 140.849 59.2694 140.565 58.5579 147.81C57.8463 155.055 56.3853 169.174 56.3853 169.174L49.4165 201.451L59.0632 203.568L66.5273 168.736L71.005 158.392L67.8411 144.287Z" fill="#B2B2B2"/>
<path d="M60.333 196.992L85.996 196.564L88.1348 179.027H60.333V196.992Z" fill="#9E616A"/>
<path d="M83.4295 304.906H89.3539L92.1722 282.055L83.4282 282.055L83.4295 304.906Z" fill="#9E616A"/>
<path d="M46.314 305.455L52.2384 305.413L54.8966 282.543L47.1914 284.31L46.314 305.455Z" fill="#9E616A"/>
<path d="M64.8435 163.925L63.5012 167.415L63.7694 170.906L90.0417 180.005L88.7384 164.731L85.785 161.24L64.8435 163.925Z" fill="#FFB6B6"/>
<path d="M76.1146 132.517C81.2969 132.517 85.498 128.316 85.498 123.133C85.498 117.951 81.2969 113.75 76.1146 113.75C70.9323 113.75 66.7312 117.951 66.7312 123.133C66.7312 128.316 70.9323 132.517 76.1146 132.517Z" fill="#9E616A"/>
<path d="M81.96 301.983L91.3253 301.424V305.436L100.229 311.586C100.669 311.889 101 312.326 101.174 312.831C101.349 313.336 101.357 313.884 101.198 314.394C101.039 314.904 100.721 315.35 100.29 315.667C99.8599 315.984 99.3394 316.155 98.805 316.155H87.6552L85.7334 312.186L84.983 316.155H80.7791L81.96 301.983Z" fill="#2F2E41"/>
<path d="M44.2875 302.546L53.6487 301.922L53.6767 305.934L62.6234 312.021C63.0654 312.322 63.3996 312.756 63.5775 313.26C63.7553 313.764 63.7673 314.311 63.6118 314.823C63.4564 315.334 63.1415 315.782 62.7132 316.102C62.285 316.422 61.7657 316.596 61.2313 316.6L50.0818 316.678L48.1322 312.722L47.4096 316.697L43.2058 316.726L44.2875 302.546Z" fill="#2F2E41"/>
<path d="M44.4705 287.933L48.7845 253.451L53.9171 217.095C50.1584 210.114 58.622 188.438 58.622 188.438L59.8167 188.495L86.8571 193.596L86.8513 193.57C92.382 208.655 94.2143 216.107 93.9113 232.171L92.8217 289.917H93.1635C93.7307 289.917 94.2746 290.142 94.6757 290.543C95.0767 290.944 95.3021 291.488 95.3021 292.056C95.3021 292.623 95.0767 293.167 94.6757 293.568C94.2746 293.969 93.7307 294.194 93.1635 294.194H82.4706C82.1894 294.195 81.9109 294.14 81.651 294.032C81.3911 293.925 81.1549 293.768 80.956 293.569C80.757 293.37 80.5991 293.134 80.4914 292.875C80.3837 292.615 80.3283 292.337 80.3283 292.056C80.3283 291.774 80.3837 291.496 80.4914 291.236C80.5991 290.977 80.757 290.741 80.956 290.542C81.1549 290.343 81.3911 290.186 81.651 290.079C81.9109 289.971 82.1894 289.916 82.4706 289.917H82.7463L72.9315 221.159L64.61 250.029L55.2002 287.668C58.622 286.812 58.0907 288.794 58.0907 289.917C58.0907 290.484 57.8654 291.028 57.4643 291.429C57.0632 291.83 56.5193 292.056 55.9521 292.056H45.2592C44.7619 292.056 44.2799 291.883 43.8965 291.566C43.513 291.25 43.2521 290.809 43.1587 290.321C43.0652 289.832 43.1451 289.326 43.3846 288.89C43.6241 288.455 44.0081 288.116 44.4705 287.933Z" fill="#2F2E41"/>
<path d="M56.5165 189.561L57.3719 181.007C57.4608 180.658 57.6578 180.346 57.9348 180.116C58.2118 179.886 58.5545 179.749 58.9139 179.726C59.2703 175.651 60.7699 158.071 60.8595 157.304L60.863 157.272L61.5449 142.705C61.5697 142.176 61.7885 141.674 62.1595 141.296C62.5305 140.918 63.0278 140.69 63.5563 140.656L67.158 140.42C67.2074 140.419 67.2542 140.398 67.2886 140.362C67.3229 140.327 67.3421 140.279 67.3421 140.23C67.3421 139.832 67.4205 139.438 67.5727 139.071C67.7249 138.703 67.948 138.37 68.2293 138.088C68.5105 137.807 68.8444 137.584 69.2119 137.432C69.5794 137.28 69.9732 137.201 70.371 137.201H81.0345C81.7252 137.201 82.392 137.454 82.9098 137.911C83.4277 138.368 83.7609 138.998 83.847 139.684C83.8517 139.731 83.874 139.774 83.9096 139.806C83.9451 139.837 83.9912 139.854 84.0386 139.853H84.0398C85.2515 139.828 86.432 140.238 87.367 141.009C88.3021 141.78 88.9298 142.861 89.1363 144.055C90.5941 152.537 93.5157 171.788 92.0712 182.491C91.5684 186.216 92.6524 183.265 92.8426 186.383C92.8614 186.684 92.8207 186.986 92.7227 187.272C92.6246 187.557 92.4712 187.82 92.2713 188.046C92.6807 188.195 93.0148 188.499 93.2013 188.893C93.3877 189.287 93.4113 189.738 93.267 190.149L93.4545 190.103C93.3996 190.321 93.3023 190.526 93.1682 190.706C93.034 190.886 92.8657 191.038 92.6729 191.153C92.48 191.269 92.2663 191.345 92.044 191.377C91.8217 191.41 91.5951 191.398 91.3773 191.344L63.479 195.124C62.5627 194.893 56.2855 190.477 56.5165 189.561Z" fill="#B2B2B2"/>
<path d="M131.064 154.781C130.89 155.365 130.589 155.905 130.183 156.361C129.777 156.816 129.277 157.178 128.716 157.419C128.156 157.661 127.549 157.776 126.939 157.758C126.329 157.739 125.73 157.588 125.185 157.313L114.4 167.156L112.968 159.581L123.436 151.419C123.958 150.534 124.787 149.872 125.765 149.557C126.743 149.242 127.803 149.297 128.743 149.712C129.684 150.126 130.439 150.871 130.867 151.805C131.295 152.739 131.365 153.798 131.064 154.781Z" fill="#9E616A"/>
<path d="M93.5255 147.256C93.5255 147.256 89.7647 138.757 85.0149 140.447C80.265 142.136 82.7174 150.382 82.7174 150.382L100.563 177.273C100.563 177.273 126.303 160.761 123.173 160.645C120.043 160.528 119.106 154.835 119.106 154.835L105.503 161.633L105.042 159.213L104.305 159.951L102.401 158.452L93.5255 147.256Z" fill="#B2B2B2"/>
<path d="M401.166 137.92C408.401 137.92 414.267 132.055 414.267 124.819C414.267 117.584 408.401 111.719 401.166 111.719C393.931 111.719 388.065 117.584 388.065 124.819C388.065 132.055 393.931 137.92 401.166 137.92Z" fill="#FFB6B6"/>
<path d="M443.21 144.098C441.698 146.24 439.492 147.793 436.965 148.494C435.954 148.795 434.91 148.973 433.856 149.023C433.726 147.831 433.414 146.666 432.932 145.569C432.981 146.737 432.818 147.904 432.452 149.014C430.87 148.925 429.323 148.51 427.907 147.797C426.517 147.097 425.309 146.083 424.379 144.836C423.448 143.588 422.822 142.141 422.549 140.609C421.994 137.025 423.618 133.507 424.205 129.929C424.796 126.351 423.688 121.819 420.186 120.879C417.519 120.163 417.818 120.472 415.6 122.119C417.907 125.529 409.388 138.026 405.901 136.936C403.93 136.32 402.668 134.512 402.261 134.512C399.521 139.232 404.681 147.185 399.481 148.837L399.909 148.408C403.048 144.547 396.488 136.376 399.627 132.515C400.502 131.435 401.434 130.155 401.176 128.789C400.931 127.491 398.87 126.804 398.266 127.871C399.352 125.384 397.749 122.065 395.095 121.426C392.738 120.858 392.781 121.558 390.415 121.863C390.261 120.84 389.972 119.843 389.556 118.896C389.599 119.916 389.48 120.937 389.203 121.919C388.367 121.903 387.56 121.611 386.907 121.089C384.978 119.535 385.369 116.269 387.091 114.489C388.815 112.708 391.377 112.066 393.821 111.652C394.531 106.705 408.179 106.189 409.988 111.132C410.759 107.441 415.379 105.525 418.971 106.67C422.562 107.815 425.054 111.169 426.366 114.704C427.678 118.236 428.045 122.038 428.853 125.718C429.661 129.398 431.027 133.146 433.84 135.654C436.653 138.16 441.235 138.989 444.199 136.662C444.63 137.892 444.765 139.206 444.593 140.498C444.421 141.79 443.947 143.023 443.21 144.098Z" fill="#2F2E41"/>
<path d="M566.117 173.994L564.283 183.196C564.145 183.899 564.001 184.615 563.844 185.325C562.311 185.007 560.721 185.096 559.233 185.583C560.414 187.27 561.472 189.039 562.399 190.878C561.243 194.439 559.547 197.73 556.708 200.111C554.812 201.665 552.547 202.705 550.132 203.13C547.717 203.555 545.234 203.35 542.921 202.536L543.003 202.171C539.95 196.248 541.608 188.78 545.402 183.309C547.337 180.61 549.63 178.186 552.217 176.104C554.78 173.969 557.55 172.053 560.295 170.162C560.911 169.738 561.64 169.508 562.388 169.5C563.136 169.493 563.87 169.708 564.495 170.119C565.12 170.531 565.608 171.119 565.897 171.809C566.186 172.499 566.263 173.26 566.117 173.994Z" fill="#BBBABA"/>
<path d="M543.574 224.677C542.802 219.053 542.008 213.358 542.55 207.674C543.031 202.627 544.57 197.697 547.706 193.654C549.37 191.512 551.395 189.677 553.69 188.231C554.289 187.855 554.839 188.802 554.243 189.178C550.273 191.687 547.202 195.393 545.473 199.76C543.564 204.617 543.257 209.911 543.589 215.07C543.788 218.19 544.209 221.288 544.634 224.385C544.669 224.525 544.648 224.673 544.577 224.798C544.506 224.924 544.389 225.017 544.251 225.059C544.111 225.097 543.962 225.078 543.835 225.006C543.709 224.935 543.616 224.816 543.577 224.676L543.574 224.677Z" fill="#ACACAC"/>
<path d="M587.251 317.193L0.745727 317.386C0.54775 317.386 0.358081 317.306 0.218292 317.166C0.0785037 317.026 0 316.836 0 316.638C0 316.44 0.0785037 316.25 0.218292 316.11C0.358081 315.97 0.54775 315.891 0.745727 315.89L587.251 315.697C587.449 315.698 587.638 315.777 587.778 315.917C587.918 316.057 587.997 316.247 587.997 316.445C587.997 316.643 587.918 316.833 587.778 316.973C587.638 317.113 587.449 317.192 587.251 317.193Z" fill="#CACACA"/>
<path d="M65.0707 117.388C63.6316 118.079 62.0207 117.04 60.7782 116.01L61.2226 116.394C59.0267 118.531 58.0001 121.604 57.4984 124.63C56.9963 127.653 56.9403 130.744 56.308 133.745C55.6753 136.743 54.3628 139.755 51.9111 141.592C48.6267 144.051 44.0968 143.893 40.0661 143.139C40.0124 143.128 39.9624 143.12 39.9087 143.109C40.9932 139.978 41.434 136.66 41.2048 133.354C40.1244 136.667 38.2851 139.681 35.8336 142.158C33.1612 141.422 30.5528 140.472 28.0338 139.315C26.4039 138.565 24.6489 137.539 24.1965 135.803C23.743 134.079 24.7961 132.271 26.2043 131.182C27.6124 130.094 29.3407 129.526 30.9449 128.751C32.5465 127.979 34.1313 126.878 34.7726 125.217C36.2516 121.396 32.0383 117.011 33.6803 113.254C34.49 111.407 36.4734 110.402 38.3376 109.627C41.1834 108.448 44.1057 107.462 47.0845 106.677C49.6995 105.987 52.4299 105.451 55.0938 105.903C57.7577 106.355 60.3675 107.976 61.3262 110.506C62.926 111.046 64.6243 111.656 65.651 113.002C66.6772 114.346 66.5944 116.658 65.0707 117.388Z" fill="#2F2E41"/>
<path d="M77.8759 112.961C73.7589 109.711 70.4301 110.265 67.8622 112.285C67.4305 111.804 65.5934 113.126 64.9714 112.936L62.7215 117.159C61.5638 119.202 61.0888 121.288 61.276 122.462C59.1464 128.434 64.1964 132.466 70.1686 134.596C72.5515 135.452 75.1516 135.489 77.5584 134.703L77.6318 133.685L78.0841 134.519C78.0841 134.519 83.5437 145.761 84.8338 146.266C84.051 144.235 81.9863 134.584 81.41 132.572C80.6198 129.835 81.1596 125.486 81.6241 122.82C81.9135 121.176 81.9287 119.496 81.6689 117.847L81.6574 117.775L82.9348 120.353L85.8009 118.551C84.7055 115.361 84.6836 111.544 77.8759 112.961Z" fill="#2F2E41"/>
</svg>
