<svg width="153" height="186" viewBox="0 0 153 186" fill="none" xmlns="http://www.w3.org/2000/svg">
<path d="M1.28289 146.443C3.10835 147.085 5.0683 147.246 6.97392 146.91C8.87954 146.575 10.6666 145.754 12.1629 144.527C15.9737 141.328 17.1687 136.06 18.1406 131.181L21.016 116.749L14.996 120.894C10.6666 123.875 6.23985 126.952 3.24243 131.269C0.245017 135.587 -1.06266 141.481 1.34496 146.154" fill="#E6E6E6"/>
<path d="M2.21256 164.921C1.45486 159.401 0.675281 153.809 1.20804 148.23C1.68017 143.275 3.19197 138.436 6.26976 134.466C7.90343 132.364 9.89132 130.563 12.144 129.143C12.7313 128.773 13.272 129.703 12.6872 130.072C8.78928 132.536 5.77433 136.173 4.07703 140.461C2.20252 145.228 1.90152 150.425 2.22441 155.49C2.41957 158.553 2.83429 161.595 3.25081 164.634C3.28369 164.772 3.26317 164.917 3.19337 165.04C3.12358 165.162 3.00973 165.254 2.87484 165.296C2.73724 165.333 2.59057 165.315 2.46665 165.244C2.34274 165.174 2.25157 165.058 2.21293 164.92L2.21256 164.921Z" fill="#F2F2F2"/>
<path d="M7.66626 156.063C8.44905 157.253 9.52518 158.222 10.791 158.875C12.0567 159.529 13.4695 159.845 14.8931 159.794C18.5524 159.621 21.6019 157.068 24.3467 154.643L32.4672 147.473L27.093 147.216C23.2281 147.031 19.2635 146.857 15.5823 148.051C11.901 149.244 8.50612 152.111 7.83309 155.921" fill="#E6E6E6"/>
<path d="M0.0707872 168.094C3.71864 161.639 7.94947 154.466 15.5099 152.173C17.6119 151.538 19.816 151.31 22.0034 151.503C22.693 151.562 22.5208 152.625 21.8327 152.566C18.1659 152.261 14.5062 153.23 11.4696 155.307C8.54753 157.296 6.27228 160.062 4.34683 162.994C3.16724 164.79 2.11069 166.662 1.05415 168.532C0.716532 169.13 -0.270746 168.698 0.0707872 168.094Z" fill="#F2F2F2"/>
<path d="M118.272 107.303C123.927 107.303 129.351 109.549 133.35 113.548C137.348 117.547 139.595 122.97 139.595 128.625V169.191H56.3843C56.3843 152.777 62.9046 137.035 74.5108 125.429C86.117 113.823 101.858 107.303 118.272 107.303Z" fill="#E4E4E4"/>
<path d="M75.5581 173.124L69.0113 175.018L58.5903 150.668L68.2528 147.872L75.5581 173.124Z" fill="#814F56"/>
<path d="M79.0637 178.988L57.9542 185.094L57.8769 184.827C57.2466 182.648 57.5076 180.308 58.6027 178.321C59.6977 176.335 61.537 174.865 63.716 174.234L63.7165 174.234L76.6095 170.504L79.0637 178.988Z" fill="#2F2E41"/>
<path d="M126.817 173.776L133.428 175.43L142.951 150.714L133.193 148.274L126.817 173.776Z" fill="#814F56"/>
<path d="M125.67 171.195L138.691 174.451L138.691 174.451C140.892 175.002 142.784 176.404 143.951 178.349C145.118 180.294 145.464 182.623 144.914 184.824L144.847 185.094L123.528 179.763L125.67 171.195Z" fill="#2F2E41"/>
<path d="M91.2146 84.8779L84.4605 92.0823C84.4605 92.0823 48.8889 107.842 48.8889 115.947C48.8889 124.052 57.4441 159.173 61.0463 161.875C63.216 163.511 62.2352 165.273 63.3116 167.768L75.9053 163.225C75.9053 163.225 75.0048 160.524 75.9053 159.173C76.8059 157.822 75.9053 156.922 75.9053 156.922C75.9053 156.922 74.5545 157.372 75.0048 156.021C75.455 154.67 75.455 154.22 75.0048 153.77C74.5545 153.319 73.2037 149.267 73.2037 149.267C73.2037 149.267 73.6539 133.057 67.3501 127.204C67.3501 127.204 96.6179 118.648 100.22 112.795C103.822 106.941 104.723 85.7784 104.723 85.7784L91.2146 84.8779Z" fill="#2F2E41"/>
<path d="M110.576 81.7254L117.33 93.4325C117.33 93.4325 152.902 109.192 152.902 117.297C152.902 125.402 144.347 160.523 140.745 163.225C138.575 164.861 139.197 167.322 138.12 169.817L125.886 164.576C125.886 164.576 126.786 161.874 125.886 160.523C124.985 159.172 125.886 158.272 125.886 158.272C125.886 158.272 127.236 158.722 126.786 157.371C126.336 156.021 126.336 155.57 126.786 155.12C127.236 154.67 128.587 150.617 128.587 150.617C128.587 150.617 128.137 134.407 134.441 128.554C134.441 128.554 102.471 117.297 98.8692 111.443C94.2559 103.947 97.629 73.1623 96.6179 83.5265L110.576 81.7254Z" fill="#2F2E41"/>
<path d="M112.828 28.1427C119.293 28.1427 124.535 22.9013 124.535 16.4356C124.535 9.96997 119.293 4.72852 112.828 4.72852C106.362 4.72852 101.121 9.96997 101.121 16.4356C101.121 22.9013 106.362 28.1427 112.828 28.1427Z" fill="#814F56"/>
<path d="M120.933 33.9965C120.933 33.9965 121.041 34.2052 100.482 32.5908C100.482 32.5908 88.9632 37.1485 89.4135 40.3003C89.8637 43.4522 88.5129 86.6785 88.5129 86.6785C88.5129 86.6785 107.424 92.0818 112.828 86.6785C118.231 81.2752 120.933 33.9965 120.933 33.9965Z" fill="#58197A"/>
<path d="M116.942 33.5225L122.407 33.8641C122.407 33.8641 138.493 39.8505 138.043 44.3533C137.593 48.856 129.038 70.0189 129.038 70.0189C129.038 70.0189 124.535 86.2287 125.435 90.7314C126.336 95.2341 127.687 96.585 126.786 97.9358C125.886 99.2866 126.786 101.988 126.786 102.889C126.786 103.789 121.383 107.392 121.383 107.392C121.383 107.392 112.828 99.7369 109.676 98.3861C106.524 97.0352 104.273 86.679 106.524 77.6735C108.775 68.668 115.529 39.8505 115.529 39.8505C115.323 38.7551 115.341 37.6291 115.584 36.5411C115.827 35.4532 116.289 34.4261 116.942 33.5225Z" fill="#3F3D56"/>
<path d="M102.647 32.2426C100.363 31.7946 98.007 31.882 95.763 32.4977C93.4236 33.1357 82.6594 37.1489 82.6594 38.95C82.6594 40.7511 87.1622 63.2648 87.1622 63.2648L88.0627 76.3227L79.9578 82.1763C79.9578 82.1763 81.7589 88.0298 79.5075 90.2812C77.2562 92.5326 74.5545 98.3861 77.2562 99.2867C79.9578 100.187 96.618 93.8834 97.0682 87.1293C97.5185 80.3752 95.7174 75.4222 98.8693 70.4692C102.021 65.5162 102.472 46.1544 102.472 46.1544L102.647 32.2426Z" fill="#3F3D56"/>
<path d="M123.761 6.33517C122.011 3.4931 119.272 1.39881 116.07 0.45537L113.719 2.33659L114.633 0.142361C113.864 0.0250765 113.086 -0.0199023 112.309 0.00802989L110.193 2.72834L111.069 0.10121C109.233 0.329363 107.464 0.935453 105.874 1.88124C104.284 2.82703 102.907 4.09201 101.83 5.59642C99.1374 9.4793 98.683 14.8791 101.332 18.7923C102.059 16.558 102.941 14.4615 103.668 12.2271C104.24 12.305 104.819 12.3078 105.391 12.2355L106.275 10.1715L106.522 12.1482C109.264 11.9093 113.331 11.3849 115.93 10.9044L115.677 9.38803L117.189 10.6482C117.986 10.4648 118.459 10.2986 118.419 10.1715C120.353 13.2879 122.718 15.2784 124.651 18.3948C125.385 13.999 126.23 10.3451 123.761 6.33517Z" fill="#2F2E41"/>
<path d="M123.634 18.4625C124.157 18.4625 124.58 17.7569 124.58 16.8865C124.58 16.0161 124.157 15.3105 123.634 15.3105C123.112 15.3105 122.689 16.0161 122.689 16.8865C122.689 17.7569 123.112 18.4625 123.634 18.4625Z" fill="#A0616A"/>
<path d="M118.801 97.1946H98.4529C97.9408 97.1946 97.4496 96.9912 97.0875 96.6291C96.7254 96.2669 96.5219 95.7758 96.5219 95.2636L95.6252 68.639C95.6252 68.1269 95.8287 67.6357 96.1908 67.2736C96.553 66.9115 97.0441 66.708 97.5563 66.708H119.698C120.21 66.708 120.701 66.9115 121.063 67.2736C121.425 67.6357 121.629 68.1269 121.629 68.639L120.732 95.2636C120.732 95.7758 120.528 96.2669 120.166 96.6291C119.804 96.9912 119.313 97.1946 118.801 97.1946Z" fill="#E4E4E4"/>
<path d="M108.627 76.571C109.617 76.571 110.42 75.7681 110.42 74.7777C110.42 73.7873 109.617 72.9844 108.627 72.9844C107.636 72.9844 106.833 73.7873 106.833 74.7777C106.833 75.7681 107.636 76.571 108.627 76.571Z" fill="#58197A"/>
<path d="M111.595 86.3399C112.021 85.7708 112.567 85.3019 113.193 84.9664C113.82 84.6309 114.512 84.4368 115.222 84.3979C115.932 84.3589 116.641 84.476 117.301 84.741C117.96 85.006 118.554 85.4123 119.039 85.9314L129.442 82.0312L133.354 87.775L118.586 93.0764C117.66 93.8342 116.488 94.2259 115.292 94.1774C114.096 94.1288 112.96 93.6434 112.098 92.813C111.237 91.9827 110.71 90.8651 110.617 89.672C110.524 88.479 110.872 87.2934 111.595 86.3399Z" fill="#814F56"/>
<path d="M105.366 85.1642C105.052 84.5262 104.603 83.9645 104.05 83.5188C103.496 83.0732 102.851 82.7543 102.161 82.5847C101.471 82.4151 100.752 82.399 100.055 82.5373C99.3575 82.6757 98.6991 82.9652 98.126 83.3855L88.6245 77.6279L83.7173 82.5486L97.2495 90.4911C98.0194 91.4071 99.0986 92.0089 100.283 92.1824C101.467 92.356 102.673 92.0891 103.674 91.4325C104.674 90.7759 105.399 89.7752 105.711 88.6199C106.022 87.4646 105.9 86.2351 105.366 85.1642Z" fill="#814F56"/>
<path d="M130.839 41.6513C130.839 41.6513 137.593 40.3005 139.394 46.1541C141.195 52.0076 150.2 73.6207 147.499 76.7726C144.797 79.9246 134.891 88.4798 131.739 90.2809C128.587 92.082 127.237 92.082 127.237 92.082L123.184 93.8831L121.833 83.5268L126.455 80.7892L133.54 74.9715L129.488 62.8142L130.839 41.6513Z" fill="#3F3D56"/>
<path d="M86.7118 38.4999C86.7118 38.4999 79.9577 37.1492 78.1566 43.0027C76.3556 48.8562 67.3501 70.4693 70.0517 73.6213C72.7534 76.7732 82.6594 85.3284 85.8113 87.1295C88.9632 88.9306 90.314 88.9306 90.314 88.9306L94.3665 90.7317L95.7173 80.3754L91.0958 77.6378L84.0102 71.8202L90.5392 55.8355L86.7118 38.4999Z" fill="#3F3D56"/>
</svg>
