<svg width="209" height="222" viewBox="0 0 209 222" fill="none" xmlns="http://www.w3.org/2000/svg">
<g opacity="0.8">
<path d="M97.918 127.282C83.315 127.282 66.5325 111.075 51.6841 118.775C6.72719 142.09 12.9158 103.076 0 88.5664L0.424026 87.7158C14.6751 100.496 32.468 110.894 51.8793 117.786C69.4211 124.014 87.0944 126.9 102.982 126.139L103.01 127.161C101.332 127.242 99.6346 127.282 97.918 127.282Z" fill="#F2F2F2"/>
<path d="M204.514 33.0827C192.873 41.9007 169.711 39.115 162.523 54.2197C140.76 99.9528 122.141 65.1152 103.086 61.3477L102.91 60.4136C121.986 61.996 142.447 59.5408 162.081 53.3131C179.825 47.6856 195.655 39.3142 207.861 29.1133L208.5 29.9117C207.211 30.9894 205.883 32.0464 204.514 33.0827Z" fill="#F2F2F2"/>
<path d="M32.3566 59.2636C34.0424 59.2636 35.4091 57.4308 35.4091 55.1699C35.4091 52.909 34.0424 51.0762 32.3566 51.0762C30.6708 51.0762 29.3042 52.909 29.3042 55.1699C29.3042 57.4308 30.6708 59.2636 32.3566 59.2636Z" fill="#E6E6E6"/>
<path d="M160.635 97.5722C162.321 97.5722 163.687 95.7394 163.687 93.4785C163.687 91.2176 162.321 89.3848 160.635 89.3848C158.949 89.3848 157.582 91.2176 157.582 93.4785C157.582 95.7394 158.949 97.5722 160.635 97.5722Z" fill="#E6E6E6"/>
<path d="M76.8024 8.30657C78.4882 8.30657 79.8549 6.47375 79.8549 4.21285C79.8549 1.95196 78.4882 0.119141 76.8024 0.119141C75.1166 0.119141 73.75 1.95196 73.75 4.21285C73.75 6.47375 75.1166 8.30657 76.8024 8.30657Z" fill="#E6E6E6"/>
<path d="M131.526 151.23L127.976 129.881C127.905 129.448 128.008 129.005 128.263 128.649C128.517 128.293 128.903 128.052 129.335 127.98L145.457 125.298C145.889 125.227 146.332 125.33 146.688 125.585C147.044 125.84 147.285 126.225 147.357 126.657L150.907 148.007C150.978 148.439 150.875 148.882 150.621 149.238C150.366 149.595 149.98 149.836 149.548 149.908L133.427 152.589C132.995 152.661 132.552 152.558 132.196 152.303C131.839 152.048 131.598 151.662 131.526 151.23Z" fill="#3F3D56"/>
<path d="M131.69 144.576L129.408 130.85C129.342 130.446 129.438 130.031 129.677 129.697C129.915 129.363 130.276 129.138 130.681 129.07L144.536 126.766C144.941 126.699 145.355 126.795 145.689 127.034C146.023 127.273 146.248 127.634 146.316 128.038L149.475 147.037C149.542 147.442 149.445 147.856 149.207 148.19C148.968 148.524 148.607 148.749 148.202 148.817L139.619 150.244C137.817 150.542 135.969 150.113 134.483 149.05C132.996 147.987 131.992 146.378 131.69 144.576Z" fill="white"/>
<path d="M132.289 134.307C132.223 133.911 132.317 133.506 132.551 133.18C132.784 132.854 133.137 132.633 133.532 132.567L143.143 130.969C143.339 130.936 143.539 130.942 143.733 130.987C143.926 131.032 144.109 131.115 144.27 131.23C144.432 131.346 144.569 131.492 144.674 131.66C144.779 131.829 144.85 132.016 144.883 132.212C144.915 132.408 144.909 132.609 144.864 132.802C144.819 132.995 144.737 133.178 144.621 133.34C144.506 133.501 144.36 133.638 144.191 133.743C144.023 133.849 143.835 133.919 143.639 133.952L134.028 135.55C133.632 135.616 133.227 135.521 132.901 135.288C132.575 135.055 132.355 134.702 132.289 134.307Z" fill="#58197A"/>
<path d="M133.06 138.948C132.995 138.553 133.089 138.148 133.322 137.821C133.555 137.495 133.908 137.275 134.303 137.209L143.915 135.61C144.111 135.578 144.311 135.584 144.504 135.629C144.698 135.674 144.88 135.756 145.042 135.872C145.203 135.987 145.341 136.133 145.446 136.302C145.551 136.47 145.622 136.658 145.654 136.854C145.687 137.05 145.68 137.25 145.635 137.444C145.591 137.637 145.508 137.82 145.393 137.981C145.277 138.143 145.131 138.28 144.963 138.385C144.794 138.49 144.607 138.561 144.411 138.594L134.799 140.192C134.404 140.257 133.999 140.163 133.673 139.93C133.347 139.697 133.126 139.344 133.06 138.948Z" fill="#58197A"/>
<path d="M133.832 143.588C133.766 143.193 133.861 142.787 134.094 142.461C134.327 142.135 134.68 141.915 135.075 141.848L144.686 140.25C145.082 140.184 145.487 140.278 145.814 140.511C146.14 140.745 146.36 141.098 146.426 141.494C146.492 141.889 146.398 142.295 146.164 142.621C145.931 142.947 145.578 143.167 145.182 143.233L135.571 144.832C135.176 144.897 134.77 144.803 134.444 144.57C134.118 144.336 133.898 143.983 133.832 143.588Z" fill="#58197A"/>
<path d="M124.247 131.108C123.827 130.635 123.516 130.077 123.335 129.471C123.155 128.865 123.109 128.227 123.202 127.601C123.295 126.976 123.523 126.378 123.872 125.851C124.221 125.323 124.681 124.879 125.22 124.548L119.596 97.7686L127.049 100.635L131.364 126.219C131.859 127.161 131.991 128.252 131.736 129.286C131.48 130.319 130.854 131.222 129.977 131.825C129.1 132.428 128.032 132.688 126.976 132.556C125.92 132.423 124.949 131.908 124.247 131.108Z" fill="#FFB8B8"/>
<path d="M121.766 215.806L127.9 215.806L130.819 192.14L121.765 192.14L121.766 215.806Z" fill="#FFB6B6"/>
<path d="M120.201 213.804L121.927 213.804L128.669 211.062L132.282 213.803H132.283C134.325 213.803 136.283 214.615 137.727 216.059C139.171 217.503 139.982 219.461 139.982 221.504V221.754L120.201 221.754L120.201 213.804Z" fill="#2F2E41"/>
<path d="M66.3335 207.83L71.8242 210.566L84.992 190.688L76.8884 186.648L66.3335 207.83Z" fill="#FFB6B6"/>
<path d="M65.8263 205.338L67.3718 206.108L74.6285 206.662L76.6395 210.728L76.6399 210.728C78.4674 211.639 79.8582 213.239 80.5063 215.176C81.1545 217.112 81.0069 219.227 80.0961 221.055L79.9845 221.279L62.2803 212.454L65.8263 205.338Z" fill="#2F2E41"/>
<path d="M124.484 108.322L85.4769 109.34L86.1552 128.337C86.1552 128.337 85.4769 133.426 86.8336 134.783C88.1904 136.14 88.8688 136.14 88.1904 138.515C87.512 140.889 85.7582 163.578 85.7582 163.578C85.7582 163.578 69.7486 191.89 70.427 192.569C71.1054 193.247 71.7838 192.569 71.1054 194.265C70.427 195.961 69.7486 195.282 70.427 195.961C71.0279 196.609 71.594 197.288 72.123 197.996H83.1794C83.1794 197.996 83.7976 194.604 83.7976 194.265C83.7976 193.926 84.476 191.89 84.476 191.551C84.476 191.212 103.793 170.742 103.793 170.742L107.863 136.818L117.7 170.064C117.7 170.064 117.7 199.238 118.378 199.917C119.057 200.595 119.057 200.256 118.718 201.613C118.378 202.97 117.022 202.631 118.039 203.648C119.057 204.666 119.396 202.97 119.057 204.666L118.718 206.362L131.749 206.508C131.749 206.508 133.106 203.648 132.427 202.631C131.749 201.613 131.79 201.891 132.617 200.225C133.445 198.56 133.784 198.221 133.445 197.881C133.106 197.542 133.106 195.738 133.106 195.738C133.106 195.738 128.215 129.016 128.215 127.998C128.189 127.474 128.286 126.952 128.497 126.472V125.091L127.197 120.196L124.484 108.322Z" fill="#2F2E41"/>
<path d="M104.286 41.6982L123.824 81.2177L120.002 129.179L95.0347 126.898L90.5576 47.4698L104.286 41.6982Z" fill="#2F2E41"/>
<path d="M131.721 123.885L120.304 122.841L120.287 122.696L112.625 59.2496L114.34 54.4952C114.75 53.3664 115.445 52.3629 116.358 51.5823C117.27 50.8017 118.369 50.2705 119.548 50.0403C120.446 49.8674 121.369 49.8736 122.265 50.0591C123.16 50.2445 124.01 50.6054 124.765 51.1208C125.521 51.6362 126.166 52.296 126.666 53.0622C127.165 53.8283 127.508 54.6857 127.674 55.585L129.725 66.6614L132.633 104.103L131.721 123.885Z" fill="#2F2E41"/>
<path d="M101.996 47.5595L104.299 42.0498L111.425 42.1749L118.856 52.6878L126.656 85.4929C126.656 85.4929 129.457 109.457 126.656 110.722C123.854 111.987 114.36 110.425 114.36 110.425L101.996 47.5595Z" fill="#58197A"/>
<path d="M111.425 42.1748C111.425 42.1748 126.776 51.0499 127.377 55.6827C127.977 60.3155 129.988 117.019 129.988 117.019L124.559 113.51L123.075 92.8439L116.45 50.5321L111.425 42.1748Z" fill="#2F2E41"/>
<path d="M107.801 39.5935C113.58 39.5935 118.264 34.9088 118.264 29.1298C118.264 23.3508 113.58 18.666 107.801 18.666C102.023 18.666 97.3391 23.3508 97.3391 29.1298C97.3391 34.9088 102.023 39.5935 107.801 39.5935Z" fill="#FFB8B8"/>
<path d="M95.9343 22.254C97.1091 20.4363 99.3137 19.2248 101.451 19.5652C101.65 18.2011 102.219 16.9177 103.097 15.8548C103.975 14.7919 105.127 13.9902 106.429 13.537C107.73 13.0838 109.132 12.9964 110.479 13.2845C111.827 13.5725 113.071 14.2249 114.073 15.1706C114.403 14.9384 114.787 14.7952 115.189 14.7551C115.59 14.7149 115.995 14.7791 116.364 14.9413C117.1 15.2758 117.74 15.7895 118.225 16.4354C119.452 17.965 120.24 19.7985 120.508 21.7408C120.775 23.6831 120.51 25.6615 119.742 27.4654C120.003 26.5157 119.052 25.6223 118.09 25.4092C117.129 25.1961 116.12 25.3977 115.146 25.2589C113.896 25.0811 112.773 24.3561 111.521 24.1929C110.469 24.0558 109.411 24.3255 108.386 24.5959C107.36 24.8662 106.305 25.1419 105.251 25.0168C104.198 24.8917 102.841 28.8843 102.859 31.6965C102.863 32.2294 102.753 32.9137 102.232 33.0267C101.591 33.166 101.219 32.2808 100.609 32.0396C100.328 31.9589 100.026 31.9907 99.7677 32.1281C99.5093 32.2655 99.3144 32.4979 99.2239 32.7762C99.147 33.0592 99.1388 33.3565 99.1999 33.6433C99.261 33.9301 99.3898 34.1981 99.5754 34.4251C99.9506 34.8751 100.396 35.2615 100.894 35.5694L100.643 35.7786C100.225 36.3311 99.3575 36.355 98.7548 36.0132C98.1784 35.6228 97.7117 35.0913 97.399 34.4693C96.284 32.6144 95.3058 30.638 94.9123 28.5097C94.5188 26.3814 94.7596 24.0718 95.9343 22.254Z" fill="#070709"/>
<path d="M73.1458 99.7481L94.048 77.3198C94.4716 76.8663 95.0577 76.5994 95.6778 76.5776C96.2979 76.5558 96.9013 76.7809 97.3557 77.2035L114.292 92.9916C114.745 93.4152 115.012 94.0014 115.034 94.6216C115.056 95.2418 114.83 95.8453 114.408 96.2997L93.5057 118.728C93.0821 119.181 92.496 119.448 91.8759 119.47C91.2558 119.492 90.6524 119.267 90.198 118.844L73.2621 103.056C72.8087 102.633 72.5418 102.046 72.52 101.426C72.4982 100.806 72.7233 100.202 73.1458 99.7481Z" fill="#E6E6E6"/>
<path d="M80.7583 94.1847L94.1961 79.7658C94.5928 79.3411 95.1418 79.0911 95.7225 79.0707C96.3032 79.0503 96.8684 79.2611 97.2939 79.6569L111.849 93.2254C112.274 93.6221 112.524 94.1711 112.544 94.752C112.564 95.3328 112.354 95.898 111.958 96.3236L93.3578 116.282C92.961 116.706 92.4121 116.956 91.8313 116.977C91.2506 116.997 90.6855 116.786 90.2599 116.391L81.2434 107.985C79.3519 106.218 78.2386 103.772 78.1476 101.185C78.0567 98.5981 78.9956 96.0804 80.7583 94.1847Z" fill="white"/>
<path d="M92.8033 85.9853C93.191 85.5703 93.7274 85.326 94.2949 85.306C94.8624 85.2861 95.4146 85.4921 95.8304 85.8789L105.927 95.2913C106.343 95.6786 106.587 96.2152 106.607 96.783C106.627 97.3508 106.421 97.9032 106.034 98.3188C105.646 98.7344 105.11 98.9791 104.542 98.999C103.974 99.019 103.422 98.8126 103.007 98.4252L92.9097 89.0128C92.4948 88.6251 92.2505 88.0886 92.2306 87.521C92.2106 86.9535 92.4166 86.4011 92.8033 85.9853Z" fill="#E6E6E6"/>
<path d="M88.2601 90.8603C88.6478 90.4452 89.1842 90.201 89.7517 90.181C90.3192 90.1611 90.8714 90.3671 91.2872 90.7539L101.384 100.166C101.59 100.358 101.756 100.589 101.872 100.844C101.989 101.1 102.054 101.377 102.064 101.658C102.074 101.939 102.028 102.219 101.93 102.483C101.832 102.746 101.682 102.988 101.49 103.194C101.299 103.4 101.068 103.566 100.812 103.682C100.556 103.799 100.28 103.864 99.9989 103.874C99.7178 103.884 99.4375 103.838 99.174 103.74C98.9106 103.641 98.6691 103.492 98.4633 103.3L88.3665 93.8878C87.9516 93.5001 87.7073 92.9636 87.6874 92.396C87.6674 91.8285 87.8734 91.2761 88.2601 90.8603Z" fill="#E6E6E6"/>
<path d="M83.7167 95.7353C84.1043 95.3202 84.6407 95.076 85.2082 95.056C85.7757 95.0361 86.328 95.2421 86.7438 95.6288L96.8406 105.041C97.2561 105.429 97.5007 105.965 97.5207 106.533C97.5407 107.101 97.3343 107.653 96.947 108.069C96.5597 108.484 96.0232 108.729 95.4555 108.749C94.8878 108.769 94.3354 108.563 93.9199 108.175L83.8231 98.7628C83.4081 98.3751 83.1638 97.8386 83.1439 97.271C83.124 96.7034 83.33 96.1511 83.7167 95.7353Z" fill="#E6E6E6"/>
<path d="M108.283 122.469L101.057 132.818L100.72 133.223C100.135 133.927 99.3263 134.41 98.429 134.591C98.3019 134.617 98.1742 134.636 98.046 134.649C97.8877 134.665 97.7287 134.671 97.5696 134.668C97.4785 134.667 97.3875 134.661 97.2969 134.654C96.7697 134.608 96.2567 134.459 95.7876 134.214L92.7045 132.06C92.4589 131.889 92.2838 131.635 92.2115 131.344C92.1757 131.201 92.1654 131.052 92.1814 130.905C92.2041 130.698 92.2784 130.501 92.3974 130.331L101.296 117.588C101.485 117.318 101.773 117.134 102.097 117.077C102.421 117.019 102.755 117.093 103.025 117.281L107.976 120.739C107.988 120.747 107.999 120.756 108.011 120.764C108.018 120.77 108.026 120.775 108.033 120.781C108.043 120.789 108.052 120.796 108.062 120.804C108.074 120.814 108.085 120.824 108.097 120.834C108.107 120.844 108.117 120.854 108.128 120.863L108.134 120.869C108.147 120.882 108.159 120.895 108.172 120.908C108.184 120.921 108.196 120.934 108.208 120.948C108.216 120.957 108.224 120.967 108.233 120.977L108.233 120.978C108.257 121.008 108.28 121.039 108.301 121.071C108.308 121.081 108.314 121.091 108.32 121.101L108.323 121.106C108.328 121.114 108.333 121.122 108.338 121.13C108.352 121.155 108.365 121.18 108.378 121.205C108.399 121.248 108.417 121.291 108.433 121.335C108.439 121.35 108.443 121.364 108.448 121.378C108.451 121.39 108.455 121.402 108.458 121.414L108.459 121.417L108.46 121.421C108.464 121.432 108.466 121.442 108.469 121.453C108.474 121.472 108.479 121.493 108.483 121.513C108.484 121.518 108.485 121.524 108.486 121.53C108.487 121.535 108.488 121.541 108.489 121.546C108.49 121.552 108.491 121.557 108.492 121.563L108.494 121.572C108.496 121.588 108.498 121.605 108.5 121.621C108.502 121.642 108.504 121.662 108.505 121.683C108.506 121.7 108.507 121.717 108.507 121.733C108.507 121.749 108.507 121.764 108.507 121.779C108.507 121.783 108.507 121.787 108.507 121.791C108.506 121.807 108.506 121.822 108.505 121.838C108.502 121.877 108.498 121.917 108.492 121.956C108.489 121.97 108.487 121.984 108.484 121.999C108.48 122.016 108.477 122.033 108.473 122.05C108.471 122.056 108.469 122.063 108.468 122.069C108.465 122.079 108.463 122.088 108.46 122.097C108.457 122.108 108.454 122.118 108.451 122.129L108.443 122.153C108.438 122.168 108.433 122.182 108.427 122.197C108.424 122.205 108.421 122.214 108.417 122.222C108.392 122.284 108.362 122.344 108.328 122.401C108.323 122.408 108.319 122.415 108.315 122.422C108.305 122.437 108.294 122.453 108.283 122.469Z" fill="white"/>
<path d="M103.39 122.862C103.975 122.862 104.45 122.387 104.45 121.801C104.45 121.215 103.975 120.74 103.39 120.74C102.804 120.74 102.329 121.215 102.329 121.801C102.329 122.387 102.804 122.862 103.39 122.862Z" fill="#58197A"/>
<path d="M91.406 133.011C90.9861 132.539 90.6749 131.98 90.4943 131.374C90.3138 130.768 90.2683 130.13 90.361 129.504C90.4537 128.879 90.6824 128.282 91.031 127.754C91.3796 127.227 91.8395 126.782 92.3785 126.452L86.7551 99.6719L94.2084 102.538L98.5232 128.122C99.0182 129.064 99.1504 130.156 98.8947 131.189C98.639 132.222 98.0133 133.126 97.136 133.728C96.2587 134.331 95.1908 134.591 94.1348 134.459C93.0787 134.327 92.1078 133.812 91.406 133.011Z" fill="#FFB8B8"/>
<path d="M87.2769 122.145L84.2436 102.598L83.1038 65.058L83.9508 53.8062C84.0196 52.8943 84.268 52.0049 84.6819 51.1895C85.0958 50.374 85.667 49.6486 86.3624 49.0549C87.0579 48.4612 87.864 48.011 88.7342 47.7302C89.6045 47.4495 90.5216 47.3437 91.4329 47.4191C92.6294 47.5211 93.7793 47.9309 94.7706 48.6087C95.762 49.2865 96.5612 50.2093 97.0906 51.2873L99.3068 55.8297L98.5155 119.878L87.2769 122.145Z" fill="#2F2E41"/>
<path d="M99.6087 33.3712C99.6153 33.2527 99.6509 33.1377 99.7125 33.0362C99.7741 32.9348 99.8597 32.8501 99.9617 32.7895C100.064 32.729 100.179 32.6946 100.298 32.6892C100.416 32.6839 100.534 32.7078 100.641 32.7589C100.748 32.8099 100.841 32.8866 100.912 32.9821C100.982 33.0776 101.028 33.189 101.045 33.3064C101.063 33.4238 101.051 33.5436 101.011 33.6553C100.971 33.767 100.904 33.8672 100.816 33.9468L102.03 35.9432C102.08 36.025 102.095 36.1234 102.073 36.2165C102.05 36.3096 101.991 36.3899 101.909 36.4398C101.828 36.4896 101.729 36.5049 101.636 36.4822C101.543 36.4595 101.463 36.4008 101.413 36.3189L100.047 34.0743C99.9107 34.0164 99.7953 33.9179 99.7169 33.7921C99.6384 33.6663 99.6006 33.5193 99.6087 33.3712Z" fill="white"/>
<path d="M100.461 34.728C100.506 34.8171 100.615 34.8529 100.704 34.8079C100.793 34.763 100.829 34.6543 100.784 34.5652L100.458 33.9199C100.413 33.8308 100.305 33.7949 100.216 33.8399C100.126 33.8848 100.091 33.9935 100.136 34.0826L100.461 34.728Z" fill="#2F2E41"/>
</g>
</svg>
