<svg width="1440" height="1470" viewBox="0 0 1440 1470" fill="none" xmlns="http://www.w3.org/2000/svg">
<g clip-path="url(#clip0_137_1623)">
<path d="M145 366C221.752 385.147 257.608 395.155 293 433.5" stroke="#47A45D" stroke-width="3" stroke-linecap="round"/>
<path d="M213 -10C-58 216 137.5 501.5 425 422" stroke="#EDF6EF" stroke-width="5"/>
<path d="M1209.5 1470.5C1394 1010.5 1031 1327 1000.32 1200" stroke="#47A45D" stroke-width="3"/>
<path d="M973 502.006C1140.61 491.046 1207.17 428.399 1204.71 343.469C1202.26 258.538 1135.65 277.951 1107.04 335.784C1078.44 393.618 1112.46 494.089 1221.76 532.362C1331.06 570.634 1416.44 827.065 1227 670.5C1037.56 513.935 1008.15 772.571 1087.84 830" stroke="#EDF6EF" stroke-width="5"/>
<path d="M479 773.5C94.9999 759 -15.5001 1118 313 1256.5" stroke="#EDF6EF" stroke-width="5"/>
<path d="M995.503 1120C974.388 1119.8 1010.14 1249.2 1150.32 1194.44C1290.51 1139.68 1380.01 1294.43 1137 1615" stroke="#EDF6EF" stroke-width="5"/>
<path d="M1143 659.5C1280 524.5 972.141 500.632 999.5 385.5" stroke="#47A45D" stroke-width="3"/>
<path d="M437 787.5C156.275 786.721 -61.5 1112.5 303 1228" stroke="#47A45D" stroke-width="3"/>
<circle cx="1274.96" cy="469.395" r="28.5" transform="rotate(-166.545 1274.96 469.395)" stroke="#501F6B" stroke-opacity="0.44" stroke-width="2" stroke-dasharray="6 6"/>
<circle cx="1275.03" cy="404.634" r="28.5" transform="rotate(-166.545 1275.03 404.634)" stroke="#501F6B" stroke-opacity="0.44" stroke-width="2" stroke-dasharray="6 6"/>
<circle cx="1223.52" cy="443.721" r="17.5" transform="rotate(-166.545 1223.52 443.721)" stroke="#501F6B" stroke-opacity="0.44" stroke-width="2" stroke-dasharray="6 6"/>
<path d="M97.5 192.5C59.4827 282.824 95.6658 342.684 149.5 370.5" stroke="#47A45D" stroke-width="3" stroke-linecap="round"/>
<path d="M150.269 372.873C150.06 372.79 149.726 372.539 149.453 372.413C149.156 372.275 148.951 371.995 148.752 371.753C148.561 371.522 148.302 371.367 148.071 371.136C147.878 370.942 147.715 370.697 147.517 370.383C147.18 369.849 146.837 369.671 146.574 369.419C146.301 369.157 146.04 368.791 145.779 368.592C145.328 368.248 144.786 367.85 144.45 367.389C144.233 367.091 143.781 366.761 143.228 366.302C142.62 365.798 141.94 364.881 141.291 363.96C140.858 363.346 140.326 363.034 139.865 362.584C139.414 362.144 138.944 361.652 138.014 360.671C137.494 360.122 137.164 359.664 136.829 359.411C136.474 359.144 136.222 358.805 135.949 358.563C135.888 358.509 135.824 358.469 135.823 358.479C135.798 358.737 136.115 358.928 136.272 359.21C136.497 359.617 136.659 359.87 136.848 360.174C137.047 360.495 137.329 360.811 137.58 361.189C137.851 361.596 138.458 362.004 138.847 362.361C139.367 362.839 140.006 363.366 140.636 363.681C141.135 363.93 141.64 364.621 142.84 365.571C143.414 366.026 144.387 366.662 144.93 367.025C145.783 367.594 146.268 367.805 146.895 368.327C147.495 368.825 147.943 369.333 148.34 369.573C149.192 370.089 150.053 370.879 150.624 371.249C150.754 371.334 150.274 370.951 148.722 369.68C147.701 368.843 146.072 367.786 145.136 367.158C143.985 366.386 143.592 366.174 143.299 365.976C142.655 365.539 142.146 365.169 142.062 365.147C141.761 365.071 142.542 365.523 143.784 366.4C144.279 366.749 144.904 367.383 145.337 367.795C145.66 368.101 145.829 368.349 146.007 368.695C146.157 368.985 146.436 369.27 146.708 369.564C146.798 369.661 147.04 369.607 147.147 369.669C147.254 369.731 147.254 369.855 147.244 369.951C147.226 370.11 147.17 370.234 147.108 370.318C146.962 370.514 146.669 369.985 146.49 369.744C146.446 369.684 146.376 369.649 146.375 369.649C146.118 369.477 147.312 370.524 147.912 370.956C148.214 371.174 148.675 371.655 149.239 372.292C150.213 373.393 151.293 373.668 151.503 373.648C151.591 373.639 151.546 373.42 150.997 372.63C150.447 371.84 149.369 370.431 148.42 369.104C147.471 367.776 146.684 366.574 146.247 365.934C145.81 365.294 145.748 365.253 145.809 365.262C146.064 365.303 146.601 365.73 147.705 366.885C148.475 367.692 149.597 369.015 150.308 369.791C151.237 370.805 151.649 371.071 151.858 371.228C151.948 371.295 151.985 371.364 151.84 371.282C151.346 371.002 150.732 370.488 150.334 370.195C150.226 370.149 150.309 370.315 150.414 370.463C150.519 370.61 150.643 370.735 150.834 370.926" stroke="#EDF6EF" stroke-width="2" stroke-linecap="round"/>
<circle cx="174.5" cy="222.5" r="28.5" stroke="#501F6B" stroke-opacity="0.44" stroke-width="2" stroke-dasharray="6 6"/>
<circle cx="189.5" cy="285.5" r="28.5" stroke="#501F6B" stroke-opacity="0.44" stroke-width="2" stroke-dasharray="6 6"/>
<circle cx="230.5" cy="235.5" r="17.5" stroke="#501F6B" stroke-opacity="0.44" stroke-width="2" stroke-dasharray="6 6"/>
<circle cx="154.735" cy="829.316" r="28.5" transform="rotate(-166.545 154.735 829.316)" stroke="#501F6B" stroke-opacity="0.44" stroke-width="2" stroke-dasharray="6 6"/>
<circle cx="244.555" cy="900.555" r="28.5" transform="rotate(-166.545 244.555 900.555)" stroke="#501F6B" stroke-opacity="0.44" stroke-width="2" stroke-dasharray="6 6"/>
<circle cx="190.297" cy="943.297" r="17.5" transform="rotate(-166.545 190.297 943.297)" stroke="#501F6B" stroke-opacity="0.44" stroke-width="2" stroke-dasharray="6 6"/>
<circle cx="1303.55" cy="1151.55" r="28.5" transform="rotate(-166.545 1303.55 1151.55)" stroke="#501F6B" stroke-opacity="0.44" stroke-width="2" stroke-dasharray="6 6"/>
<circle cx="1209.37" cy="1265.34" r="13.3866" transform="rotate(-166.545 1209.37 1265.34)" stroke="#501F6B" stroke-opacity="0.44" stroke-width="2" stroke-dasharray="6 6"/>
<circle cx="1395.83" cy="887.831" r="109.541" transform="rotate(-166.545 1395.83 887.831)" stroke="#501F6B" stroke-opacity="0.44" stroke-width="3" stroke-dasharray="6 6"/>
<path d="M15.9999 386.39C16.3444 386.578 16.6875 386.765 17.0292 386.951M17.0292 386.951C59.4499 409.995 80.6253 410.001 111.14 378.609C76.1696 346.156 55.068 357.943 17.0292 386.951Z" stroke="#47A45D" stroke-width="2" stroke-dasharray="6 6"/>
<path d="M-141 697.241C-139.393 697.144 -137.795 697.046 -136.204 696.945M-136.204 696.945C61.2576 684.448 134.764 638.309 172.235 462.838C-19.8797 426.437 -67.421 513.346 -136.204 696.945Z" stroke="#47A45D" stroke-width="2" stroke-dasharray="6 6"/>
<path d="M1283 665.241C1284.61 665.144 1286.21 665.046 1287.8 664.945M1287.8 664.945C1485.26 652.448 1558.76 606.309 1596.24 430.838C1404.12 394.437 1356.58 481.346 1287.8 664.945Z" stroke="#47A45D" stroke-width="2" stroke-dasharray="6 6"/>
<circle cx="78.2315" cy="1442.98" r="151.982" transform="rotate(-166.545 78.2315 1442.98)" stroke="#501F6B" stroke-opacity="0.44" stroke-width="3" stroke-dasharray="6 6"/>
<path d="M130.478 1724.55C131.929 1723.85 133.371 1723.16 134.806 1722.46M134.806 1722.46C312.847 1636.16 363.421 1565.63 331.689 1389.03C140.09 1428.05 128.98 1526.49 134.806 1722.46Z" stroke="#47A45D" stroke-width="2" stroke-dasharray="6 6"/>
</g>
<defs>
<clipPath id="clip0_137_1623">
<rect width="1440" height="1470" fill="white"/>
</clipPath>
</defs>
</svg>
