<svg width="282" height="228" viewBox="0 0 282 228" fill="none" xmlns="http://www.w3.org/2000/svg">
<path d="M281.592 226H0.407514C0.299435 226 0.195782 225.947 0.119358 225.854C0.0429341 225.76 0 225.633 0 225.5C0 225.367 0.0429341 225.24 0.119358 225.146C0.195782 225.053 0.299435 225 0.407514 225H281.592C281.701 225 281.804 225.053 281.881 225.146C281.957 225.24 282 225.367 282 225.5C282 225.633 281.957 225.76 281.881 225.854C281.804 225.947 281.701 226 281.592 226Z" fill="#CCCCCC"/>
<path d="M259.192 149H83.8079C83.0632 149 82.349 149.293 81.8224 149.816C81.2958 150.338 81 151.047 81 151.786C81 152.525 81.2958 153.233 81.8224 153.756C82.349 154.278 83.0632 154.571 83.8079 154.571H88.7757V221.214C88.7757 221.953 89.0715 222.662 89.5981 223.184C90.1246 223.707 90.8388 224 91.5835 224C92.3282 224 93.0424 223.707 93.569 223.184C94.0956 222.662 94.3914 221.953 94.3914 221.214L94.4341 154.571H248.177V221.214C248.177 221.953 248.472 222.662 248.999 223.184C249.526 223.707 250.24 224 250.984 224C251.729 224 252.443 223.707 252.97 223.184C253.497 222.662 253.792 221.953 253.792 221.214V156.04L254.609 154.571H259.192C259.937 154.571 260.651 154.278 261.178 153.756C261.704 153.233 262 152.525 262 151.786C262 151.047 261.704 150.338 261.178 149.816C260.651 149.293 259.937 149 259.192 149Z" fill="#CCCCCC"/>
<path d="M181.113 148H127.887C126.857 147.999 125.869 147.59 125.14 146.863C124.411 146.135 124.001 145.149 124 144.121V114.879C124.001 113.851 124.411 112.865 125.14 112.137C125.869 111.41 126.857 111.001 127.887 111H181.113C182.143 111.001 183.131 111.41 183.86 112.137C184.589 112.865 184.999 113.851 185 114.879V144.121C184.999 145.149 184.589 146.135 183.86 146.863C183.131 147.59 182.143 147.999 181.113 148Z" fill="#3F3D56"/>
<path d="M181.104 113H127.896C127.658 113.001 127.431 113.098 127.263 113.271C127.095 113.443 127 113.678 127 113.922V144.078C127 144.322 127.095 144.557 127.263 144.729C127.431 144.902 127.658 144.999 127.896 145H181.104C181.342 144.999 181.569 144.902 181.737 144.729C181.905 144.557 182 144.322 182 144.078V113.922C182 113.678 181.905 113.443 181.737 113.271C181.569 113.098 181.342 113.001 181.104 113Z" fill="white"/>
<path d="M160 134.383C160 134.383 153.49 132.976 149.91 135.556C146.33 138.136 154.467 144 154.467 144L160 134.383Z" fill="#2F2E41"/>
<path d="M155.5 131C159.09 131 162 128.314 162 125C162 121.686 159.09 119 155.5 119C151.91 119 149 121.686 149 125C149 128.314 151.91 131 155.5 131Z" fill="#A0616A"/>
<path d="M151.281 116.068C151.673 115.401 152.239 114.856 152.92 114.492C153.6 114.129 154.366 113.961 155.135 114.008C155.94 114.109 156.725 114.33 157.465 114.663L161.298 116.166C162.29 116.555 163.377 117.031 163.807 118.01C164.207 118.918 163.909 119.967 163.607 120.913L162.172 125.408C162.014 124.391 161.741 123.395 161.36 122.439C160.972 121.476 160.272 120.674 159.373 120.162C158.377 119.649 157.204 119.66 156.086 119.714C154.503 119.79 152.781 119.993 151.656 121.115C151.059 121.752 150.654 122.547 150.489 123.406C150.326 124.261 150.244 125.13 150.244 126C149.595 124.878 149.048 123.7 148.61 122.48C148.25 121.571 148.045 120.607 148.003 119.63C147.965 118.644 148.291 117.679 148.917 116.92C149.235 116.548 149.65 116.274 150.115 116.127C150.579 115.98 151.076 115.966 151.548 116.087L151.281 116.068Z" fill="#2F2E41"/>
<path d="M169.598 139.377C169.542 139.194 169.429 139.03 169.272 138.906C169.115 138.782 168.921 138.703 168.715 138.68C168.702 138.671 168.688 138.663 168.673 138.656L159.837 134.131C159.584 134.002 159.287 133.967 159.007 134.032C158.727 134.098 158.486 134.26 158.333 134.485L155.916 138.06L152.276 134.734L152.218 134.681C152.032 134.511 151.785 134.405 151.522 134.384C151.259 134.363 150.996 134.428 150.779 134.566L143.517 139.213C143.505 139.213 143.492 139.217 143.479 139.217C143.132 139.27 142.814 139.43 142.579 139.67C142.344 139.91 142.206 140.216 142.188 140.537L142 144H171L169.598 139.377Z" fill="#501F6B"/>
<path d="M186.227 144.571H180.613C180.613 144.42 180.551 144.275 180.44 144.167C180.329 144.06 180.179 144 180.022 144H178.25C178.093 144 177.943 144.06 177.832 144.167C177.721 144.275 177.659 144.42 177.659 144.571H175.886C175.886 144.42 175.824 144.275 175.713 144.167C175.602 144.06 175.452 144 175.295 144H173.522C173.365 144 173.215 144.06 173.104 144.167C172.993 144.275 172.931 144.42 172.931 144.571H171.158C171.158 144.42 171.096 144.275 170.985 144.167C170.874 144.06 170.724 144 170.567 144H168.795C168.638 144 168.488 144.06 168.377 144.167C168.266 144.275 168.204 144.42 168.204 144.571H166.431C166.431 144.42 166.369 144.275 166.258 144.167C166.147 144.06 165.997 144 165.84 144H164.067C163.91 144 163.76 144.06 163.649 144.167C163.538 144.275 163.476 144.42 163.476 144.571H161.703C161.703 144.42 161.641 144.275 161.53 144.167C161.42 144.06 161.269 144 161.112 144H159.34C159.183 144 159.033 144.06 158.922 144.167C158.811 144.275 158.749 144.42 158.749 144.571H156.976C156.976 144.42 156.914 144.275 156.803 144.167C156.692 144.06 156.542 144 156.385 144H154.612C154.455 144 154.305 144.06 154.194 144.167C154.084 144.275 154.021 144.42 154.021 144.571H152.248C152.248 144.42 152.186 144.275 152.075 144.167C151.965 144.06 151.814 144 151.658 144H149.885C149.728 144 149.578 144.06 149.467 144.167C149.356 144.275 149.294 144.42 149.294 144.571H147.521C147.521 144.42 147.459 144.275 147.348 144.167C147.237 144.06 147.087 144 146.93 144H145.157C145.001 144 144.85 144.06 144.739 144.167C144.629 144.275 144.566 144.42 144.566 144.571H142.794C142.794 144.42 142.731 144.275 142.62 144.167C142.51 144.06 142.359 144 142.203 144H140.43C140.273 144 140.123 144.06 140.012 144.167C139.901 144.275 139.839 144.42 139.839 144.571H138.066C138.066 144.42 138.004 144.275 137.893 144.167C137.782 144.06 137.632 144 137.475 144H135.702C135.546 144 135.395 144.06 135.284 144.167C135.174 144.275 135.111 144.42 135.111 144.571H133.339C133.339 144.42 133.276 144.275 133.166 144.167C133.055 144.06 132.904 144 132.748 144H130.975C130.818 144 130.668 144.06 130.557 144.167C130.446 144.275 130.384 144.42 130.384 144.571H124.77C124.3 144.572 123.85 144.753 123.518 145.074C123.186 145.396 123 145.832 123 146.286C123 146.74 123.186 147.176 123.518 147.497C123.85 147.818 124.3 147.999 124.77 148H186.227C186.697 148 187.148 147.819 187.481 147.498C187.813 147.176 188 146.74 188 146.286C188 145.831 187.813 145.395 187.481 145.074C187.148 144.752 186.697 144.571 186.227 144.571Z" fill="#3F3D56"/>
<path d="M119 134.004V145.996H88.3363C87.5147 146.024 86.6958 145.89 85.9284 145.601C85.161 145.313 84.4607 144.875 83.8694 144.316C83.2781 143.756 82.8079 143.086 82.4867 142.344C82.1655 141.603 82 140.805 82 140C82 139.195 82.1655 138.397 82.4867 137.656C82.8079 136.914 83.2781 136.244 83.8694 135.684C84.4607 135.125 85.161 134.687 85.9284 134.399C86.6958 134.11 87.5147 133.976 88.3363 134.004H119Z" fill="#F2F2F2"/>
<path d="M119 145.562C119 145.678 118.951 145.79 118.864 145.872C118.776 145.954 118.658 146 118.534 146H87.3799C85.6878 146 84.0651 145.368 82.8686 144.243C81.6722 143.117 81 141.591 81 140C81 138.409 81.6722 136.883 82.8686 135.757C84.0651 134.632 85.6878 134 87.3799 134H118.534C118.658 134 118.776 134.046 118.864 134.128C118.951 134.21 119 134.322 119 134.438C119 134.554 118.951 134.666 118.864 134.748C118.776 134.83 118.658 134.876 118.534 134.876H87.3799C85.9357 134.877 84.5511 135.418 83.5304 136.378C82.5096 137.339 81.9363 138.642 81.9363 140C81.9363 141.358 82.5096 142.661 83.5304 143.622C84.5511 144.582 85.9357 145.123 87.3799 145.124H118.534C118.658 145.124 118.776 145.17 118.864 145.252C118.951 145.335 119 145.446 119 145.562Z" fill="#501F6B"/>
<path d="M114 120.004V131.996H83.3363C82.5147 132.024 81.6958 131.89 80.9284 131.601C80.161 131.313 79.4607 130.875 78.8694 130.316C78.2781 129.756 77.8079 129.086 77.4867 128.344C77.1655 127.603 77 126.806 77 126C77 125.195 77.1655 124.397 77.4867 123.656C77.8079 122.914 78.2781 122.244 78.8694 121.684C79.4607 121.125 80.161 120.687 80.9284 120.399C81.6958 120.11 82.5147 119.976 83.3363 120.004H114Z" fill="#F2F2F2"/>
<path d="M113 132.526C113 132.651 112.952 132.772 112.867 132.861C112.782 132.95 112.667 133 112.547 133H82.212C81.3962 133 80.5885 132.832 79.8348 132.505C79.0811 132.179 78.3963 131.7 77.8195 131.096C77.2426 130.493 76.785 129.776 76.4729 128.987C76.1607 128.199 76 127.354 76 126.5C76 125.646 76.1607 124.801 76.4729 124.013C76.785 123.224 77.2426 122.507 77.8195 121.904C78.3963 121.3 79.0811 120.821 79.8348 120.495C80.5885 120.168 81.3962 120 82.212 120H112.547C112.667 120 112.782 120.05 112.867 120.139C112.952 120.228 113 120.349 113 120.474C113 120.6 112.952 120.721 112.867 120.81C112.782 120.899 112.667 120.949 112.547 120.949H82.212C80.8058 120.95 79.4577 121.536 78.4638 122.577C77.4699 123.617 76.9116 125.029 76.9116 126.5C76.9116 127.971 77.4699 129.383 78.4638 130.423C79.4577 131.464 80.8058 132.05 82.212 132.051H112.547C112.667 132.051 112.782 132.101 112.867 132.19C112.952 132.279 113 132.4 113 132.526Z" fill="#3F3D56"/>
<path d="M147 190V179.714C147 179.26 146.813 178.824 146.479 178.502C146.146 178.181 145.694 178 145.222 178H104.778C104.306 178 103.854 178.181 103.521 178.502C103.187 178.824 103 179.26 103 179.714V190H147Z" fill="#CCCCCC"/>
<path d="M147 194H103V208H147V194Z" fill="#CCCCCC"/>
<path d="M103 214V223.429C103 223.845 103.175 224.245 103.485 224.54C103.796 224.834 104.217 225 104.657 225H142.343C142.783 225 143.204 224.834 143.515 224.54C143.825 224.245 144 223.845 144 223.429V214H103Z" fill="#CCCCCC"/>
<path d="M124.5 186C125.328 186 126 185.552 126 185C126 184.448 125.328 184 124.5 184C123.672 184 123 184.448 123 185C123 185.552 123.672 186 124.5 186Z" fill="white"/>
<path d="M124.5 204C125.328 204 126 203.328 126 202.5C126 201.672 125.328 201 124.5 201C123.672 201 123 201.672 123 202.5C123 203.328 123.672 204 124.5 204Z" fill="white"/>
<path d="M124.5 222C125.328 222 126 221.328 126 220.5C126 219.672 125.328 219 124.5 219C123.672 219 123 219.672 123 220.5C123 221.328 123.672 222 124.5 222Z" fill="white"/>
<path d="M140 166.004V177.996H110.994C110.217 178.024 109.442 177.89 108.716 177.601C107.99 177.313 107.328 176.875 106.768 176.316C106.209 175.756 105.764 175.086 105.46 174.344C105.157 173.603 105 172.805 105 172C105 171.195 105.157 170.397 105.46 169.656C105.764 168.914 106.209 168.244 106.768 167.684C107.328 167.125 107.99 166.687 108.716 166.399C109.442 166.11 110.217 165.976 110.994 166.004H140Z" fill="#F2F2F2"/>
<path d="M142 176.562C142 176.678 141.952 176.79 141.867 176.872C141.782 176.954 141.667 177 141.547 177H111.216C110.4 177.001 109.592 176.846 108.838 176.545C108.084 176.243 107.398 175.802 106.821 175.244C106.244 174.687 105.786 174.026 105.473 173.297C105.161 172.569 105 171.788 105 171C105 170.212 105.161 169.431 105.473 168.703C105.786 167.974 106.244 167.313 106.821 166.756C107.398 166.198 108.084 165.757 108.838 165.455C109.592 165.154 110.4 164.999 111.216 165H141.547C141.667 165 141.782 165.046 141.867 165.128C141.952 165.21 142 165.322 142 165.438C142 165.554 141.952 165.665 141.867 165.748C141.782 165.83 141.667 165.876 141.547 165.876H111.216C109.81 165.877 108.462 166.418 107.469 167.378C106.475 168.339 105.917 169.642 105.917 171C105.917 172.358 106.475 173.661 107.469 174.622C108.462 175.582 109.81 176.123 111.216 176.124H141.547C141.667 176.124 141.782 176.17 141.867 176.252C141.952 176.335 142 176.446 142 176.562Z" fill="#3F3D56"/>
<path d="M100 78.7632V3.23685C100.001 2.37868 100.341 1.55595 100.947 0.949131C101.552 0.342317 102.372 0.000976135 103.228 0H162.772C163.628 0.000981818 164.448 0.342325 165.053 0.949138C165.659 1.55595 165.999 2.37868 166 3.23685V78.7632C165.999 79.6213 165.659 80.4441 165.053 81.0509C164.448 81.6577 163.628 81.999 162.772 82H103.228C102.372 81.999 101.552 81.6577 100.947 81.0509C100.341 80.4441 100.001 79.6213 100 78.7632ZM103.228 0.7193C102.563 0.720047 101.924 0.985529 101.454 1.4575C100.983 1.92947 100.718 2.56938 100.717 3.23685V78.7632C100.718 79.4306 100.983 80.0705 101.454 80.5425C101.924 81.0145 102.563 81.28 103.228 81.2807H162.772C163.437 81.28 164.076 81.0145 164.546 80.5425C165.017 80.0705 165.282 79.4306 165.283 78.7632V3.23685C165.282 2.56938 165.017 1.92947 164.546 1.4575C164.076 0.98553 163.437 0.720048 162.772 0.7193H103.228Z" fill="#E6E6E6"/>
<path d="M136 36.4459V21.5541C136 21.1421 136.167 20.7471 136.464 20.4557C136.76 20.1643 137.162 20.0005 137.581 20H150.419C150.838 20.0005 151.24 20.1643 151.536 20.4557C151.833 20.7471 152 21.1421 152 21.5541V36.4459C152 36.8579 151.833 37.2529 151.536 37.5443C151.24 37.8357 150.838 37.9995 150.419 38H137.581C137.162 37.9995 136.76 37.8357 136.464 37.5443C136.167 37.2529 136 36.8579 136 36.4459Z" fill="#501F6B"/>
<path d="M112 43.4459V28.5541C112 28.1421 112.167 27.747 112.464 27.4557C112.76 27.1643 113.162 27.0005 113.581 27H126.419C126.838 27.0005 127.24 27.1643 127.536 27.4557C127.833 27.747 128 28.1421 128 28.5541V43.4459C128 43.8579 127.833 44.253 127.536 44.5443C127.24 44.8357 126.838 44.9995 126.419 45H113.581C113.162 44.9995 112.76 44.8357 112.464 44.5443C112.167 44.2529 112 43.8579 112 43.4459Z" fill="#CCCCCC"/>
<path d="M131 67.2732V50.7268C131 50.269 131.178 49.83 131.493 49.5063C131.807 49.1826 132.234 49.0005 132.68 49H146.32C146.766 49.0005 147.193 49.1826 147.507 49.5063C147.822 49.83 148 50.269 148 50.7268V67.2732C148 67.731 147.822 68.17 147.507 68.4937C147.193 68.8174 146.766 68.9995 146.32 69H132.68C132.234 68.9995 131.807 68.8174 131.493 68.4937C131.178 68.17 131 67.731 131 67.2732Z" fill="#FF6584"/>
<path d="M208.187 142.001H193.515C193.376 142.001 193.239 142.032 193.114 142.092L189.411 143.896C189.289 143.946 189.185 144.03 189.112 144.138C189.039 144.245 189 144.371 189 144.5C189 144.629 189.039 144.755 189.112 144.862C189.185 144.97 189.289 145.054 189.411 145.104L193.114 146.908C193.239 146.968 193.376 146.999 193.515 146.999H208.187C208.39 147.01 208.588 146.944 208.74 146.813C208.892 146.683 208.986 146.5 209 146.304V142.696C208.986 142.5 208.892 142.317 208.74 142.187C208.588 142.056 208.39 141.99 208.187 142.001Z" fill="#3F3D56"/>
<path d="M207 142.696V146.304C206.989 146.5 206.914 146.683 206.791 146.813C206.669 146.944 206.51 147.01 206.347 146.999H204V142.001H206.347C206.51 141.99 206.669 142.056 206.791 142.187C206.914 142.317 206.989 142.5 207 142.696Z" fill="#501F6B"/>
<path d="M204.848 116.384C205.459 116.122 206.118 115.991 206.782 116C207.447 116.009 208.102 116.158 208.705 116.436C209.308 116.715 209.845 117.117 210.281 117.616C210.717 118.115 211.041 118.7 211.234 119.332C211.294 119.533 211.34 119.737 211.371 119.944L230.214 129.234L234.574 126.361L240 132.571L233.342 137.948C232.541 138.589 231.554 138.957 230.526 138.996C229.499 139.036 228.486 138.745 227.638 138.167L208.52 125.022C208.378 125.082 208.233 125.135 208.085 125.18C207.449 125.371 206.779 125.427 206.12 125.343C205.46 125.259 204.826 125.037 204.259 124.693C203.692 124.348 203.204 123.888 202.828 123.343C202.452 122.798 202.196 122.18 202.077 121.53C202.042 121.341 202.018 121.15 202.007 120.959C201.954 119.999 202.198 119.046 202.706 118.228C203.214 117.41 203.962 116.767 204.848 116.384Z" fill="#FFB8B8"/>
<path d="M246.348 177H224.639C224.639 177.613 202.266 178.111 202.266 178.111C201.914 178.371 201.594 178.669 201.311 179C200.462 179.996 199.997 181.255 200 182.556V183.444C200.001 184.918 200.596 186.33 201.656 187.372C202.716 188.414 204.153 188.999 205.652 189H246.348C247.846 188.999 249.283 188.413 250.343 187.371C251.403 186.33 251.999 184.917 252 183.444V182.556C251.998 181.083 251.402 179.671 250.342 178.629C249.283 177.588 247.846 177.002 246.348 177Z" fill="#3F3D56"/>
<path d="M222 225H228V190H222V225Z" fill="#3F3D56"/>
<path d="M206 225.699C206 226.225 214.283 225.902 224.5 225.902C234.717 225.902 243 226.225 243 225.699C243 225.172 234.717 221 224.5 221C214.283 221 206 225.172 206 225.699Z" fill="#3F3D56"/>
<path d="M211.999 222L206.579 222L204 208L212 208L211.999 222Z" fill="#FFB8B8"/>
<path d="M214 228L197 227.999V227.779C197 226.889 197.171 226.007 197.504 225.185C197.836 224.362 198.324 223.615 198.938 222.985C199.552 222.356 200.282 221.857 201.085 221.516C201.887 221.175 202.748 221 203.617 221H203.617L214 221L214 228Z" fill="#2F2E41"/>
<path d="M203.332 211.848L192.742 188.178C191.858 186.183 191.76 183.929 192.468 181.865C193.176 179.802 194.638 178.08 196.563 177.042L219.532 164.765L230.013 163.876L239.681 163L239.751 163.118C239.84 163.268 241.919 166.847 240.514 170.771C239.448 173.748 236.676 176.073 232.274 177.682C221.999 181.438 210.13 184.647 205.504 185.853C205.299 185.905 205.108 185.999 204.943 186.13C204.778 186.261 204.642 186.426 204.546 186.613C204.448 186.797 204.391 187 204.376 187.208C204.362 187.416 204.39 187.625 204.461 187.821L214.299 209.854C214.401 210.133 214.438 210.432 214.407 210.728C214.375 211.024 214.276 211.309 214.116 211.561C213.957 211.812 213.741 212.024 213.487 212.179C213.232 212.335 212.945 212.43 212.648 212.458L205.297 212.991C205.235 212.997 205.172 213 205.111 213C204.734 213 204.366 212.891 204.05 212.687C203.734 212.482 203.485 212.191 203.332 211.848Z" fill="#2F2E41"/>
<path d="M213.999 222L208.579 222L206 208L214 208L213.999 222Z" fill="#FFB8B8"/>
<path d="M217 228L199 227.999V227.779C199 226.889 199.181 226.007 199.533 225.185C199.885 224.362 200.401 223.615 201.052 222.985C201.703 222.356 202.475 221.857 203.325 221.516C204.175 221.175 205.086 221 206.006 221H206.006L217 221L217 228Z" fill="#2F2E41"/>
<path d="M206.332 213.825L195.742 189.681C194.858 187.646 194.76 185.347 195.468 183.243C196.176 181.138 197.638 179.381 199.563 178.323L222.532 165.8L233.013 164.894L242.681 164L242.751 164.12C242.84 164.273 244.919 167.924 243.514 171.927C242.448 174.963 239.676 177.335 235.274 178.976C224.999 182.806 213.13 186.08 208.504 187.31C208.299 187.363 208.108 187.459 207.943 187.593C207.778 187.727 207.642 187.894 207.546 188.085C207.448 188.273 207.391 188.48 207.376 188.692C207.362 188.904 207.39 189.117 207.461 189.318L217.299 211.791C217.401 212.076 217.438 212.381 217.407 212.683C217.375 212.985 217.276 213.275 217.116 213.532C216.957 213.788 216.741 214.004 216.487 214.163C216.232 214.322 215.945 214.419 215.648 214.447L208.297 214.991C208.235 214.997 208.172 215 208.111 215C207.734 215 207.366 214.889 207.05 214.68C206.734 214.472 206.485 214.175 206.332 213.825Z" fill="#2F2E41"/>
<path d="M201.498 137.267C197.062 131.313 193.555 124.71 191.1 117.686C190.958 117.266 190.968 116.808 191.128 116.395C191.289 115.982 191.59 115.639 191.977 115.429L207.156 107.222C207.402 107.088 207.674 107.013 207.953 107.002C208.232 106.99 208.51 107.043 208.765 107.156C209.026 107.27 209.257 107.443 209.441 107.661C209.625 107.878 209.758 108.136 209.828 108.413C211.595 115.182 214.916 121.435 219.522 126.669C219.712 126.882 219.851 127.135 219.929 127.411C220.006 127.686 220.021 127.976 219.971 128.258C219.923 128.535 219.813 128.798 219.649 129.026C219.485 129.254 219.272 129.441 219.025 129.573L203.846 137.779C203.458 137.988 203.009 138.051 202.579 137.958C202.149 137.864 201.766 137.619 201.498 137.267Z" fill="#CCCCCC"/>
<path d="M203.08 136.791C203.16 136.892 203.273 136.962 203.399 136.988C203.525 137.015 203.656 136.996 203.77 136.935L218.713 128.84C218.786 128.801 218.849 128.747 218.897 128.68C218.945 128.613 218.977 128.536 218.991 128.454C219.006 128.368 219.002 128.279 218.978 128.195C218.954 128.111 218.911 128.034 218.853 127.969C214.184 122.655 210.818 116.305 209.028 109.431C209.007 109.347 208.967 109.268 208.911 109.201C208.855 109.134 208.785 109.081 208.705 109.047C208.63 109.013 208.549 108.997 208.467 109C208.385 109.004 208.305 109.026 208.233 109.066L193.29 117.161C193.176 117.223 193.088 117.323 193.04 117.444C192.992 117.564 192.987 117.698 193.026 117.822C195.401 124.627 198.791 131.024 203.08 136.791Z" fill="white"/>
<path d="M250 136.333L238.172 141L235.284 132.671C234.9 131.565 234.906 130.354 235.299 129.252C235.692 128.15 236.448 127.227 237.433 126.648C238.43 126.061 239.595 125.865 240.719 126.092C241.843 126.32 242.852 126.958 243.562 127.89L250 136.333Z" fill="#501F6B"/>
<path d="M220.57 168.611C220.32 168.436 220.111 168.211 219.956 167.95C219.801 167.689 219.704 167.399 219.671 167.098C218.15 153.065 219.209 142.083 222.911 133.525C223.562 132.049 224.545 130.738 225.783 129.691C227.021 128.644 228.484 127.887 230.061 127.479L239.664 127L239.713 127.024C241.88 128.072 243.647 129.783 244.753 131.902C245.858 134.021 246.243 136.435 245.85 138.787C242.762 146.831 240.175 155.205 242.148 161.961C242.23 162.243 242.255 162.539 242.219 162.831C242.183 163.123 242.088 163.405 241.939 163.659C241.795 163.906 241.601 164.12 241.37 164.289C241.138 164.458 240.874 164.579 240.594 164.644L222.304 168.943C222.008 169.012 221.7 169.019 221.401 168.961C221.102 168.904 220.819 168.785 220.57 168.611Z" fill="#501F6B"/>
<path d="M236.5 121C242.299 121 247 116.299 247 110.5C247 104.701 242.299 100 236.5 100C230.701 100 226 104.701 226 110.5C226 116.299 230.701 121 236.5 121Z" fill="#FFB8B8"/>
<path d="M209.163 119.074L200.194 122.885C199.853 123.03 199.467 123.038 199.119 122.908C198.772 122.779 198.492 122.522 198.341 122.194L198.119 121.71C197.969 121.382 197.96 121.009 198.095 120.675C198.23 120.34 198.497 120.071 198.837 119.926L207.806 116.115C208.147 115.97 208.533 115.962 208.881 116.092C209.228 116.221 209.508 116.478 209.659 116.806L209.881 117.29C210.031 117.618 210.04 117.991 209.905 118.325C209.77 118.66 209.503 118.929 209.163 119.074Z" fill="#CCCCCC"/>
<path d="M211.232 124.635L203.012 127.902C202.699 128.025 202.344 128.033 202.026 127.922C201.707 127.81 201.451 127.59 201.313 127.309L201.109 126.894C200.972 126.613 200.964 126.294 201.087 126.007C201.211 125.72 201.455 125.489 201.768 125.365L209.988 122.098C210.301 121.975 210.656 121.967 210.974 122.078C211.293 122.19 211.549 122.41 211.687 122.691L211.891 123.106C212.028 123.387 212.036 123.706 211.913 123.993C211.789 124.28 211.545 124.511 211.232 124.635Z" fill="#CCCCCC"/>
<path d="M217.082 147.987L198.379 133.323C198.23 133.375 198.078 133.419 197.925 133.456C197.264 133.61 196.579 133.623 195.913 133.496C195.248 133.369 194.616 133.105 194.06 132.719C193.5 132.334 193.03 131.834 192.68 131.253C192.33 130.672 192.109 130.023 192.032 129.351C191.907 128.276 192.151 127.19 192.724 126.27C193.298 125.349 194.167 124.649 195.192 124.281C195.831 124.054 196.512 123.962 197.189 124.014C197.867 124.066 198.525 124.259 199.122 124.581C199.719 124.904 200.241 125.348 200.653 125.884C201.065 126.421 201.359 127.038 201.515 127.695C201.563 127.904 201.596 128.115 201.615 128.328L220.234 139.003L224.867 136.352L230 143.03L222.806 148.126C221.964 148.718 220.952 149.024 219.921 148.999C218.89 148.974 217.894 148.619 217.082 147.987Z" fill="#FFB8B8"/>
<path d="M230.974 145L221 137.934L225.688 131.017C226.31 130.099 227.224 129.439 228.268 129.155C229.312 128.871 230.419 128.98 231.393 129.464C232.379 129.953 233.164 130.793 233.607 131.833C234.05 132.873 234.121 134.043 233.808 135.132L230.974 145Z" fill="#501F6B"/>
<path d="M232.238 109.126C229.47 110.997 225.835 112.921 223.008 110.928C221.151 109.62 220.566 107.197 221.319 105.07C222.673 101.246 226.393 99.5628 229.95 98.2724C234.574 96.5949 239.609 95.2603 244.382 96.4617C249.156 97.6631 253.374 102.228 252.513 107.018C251.82 110.871 248.141 114.076 248.663 117.955C249.188 121.858 253.633 123.913 257.557 124.61C261.481 125.308 265.871 125.532 268.691 128.316C272.289 131.867 271.39 138.214 268.005 141.964C264.62 145.713 259.513 147.412 254.563 148.568C248.005 150.099 240.912 150.903 234.684 148.363C228.455 145.822 223.608 138.983 225.413 132.571C226.175 129.862 227.97 127.573 229.705 125.344C231.44 123.116 233.197 120.785 233.859 118.051C234.411 115.772 234.002 113.127 232.472 111.417C232.194 111.118 232.019 110.74 231.972 110.336C231.925 109.933 232.009 109.525 232.212 109.171L232.238 109.126Z" fill="#2F2E41"/>
<path d="M45.2387 162.054C42.5339 163.006 39.6298 163.245 36.8063 162.747C33.9827 162.249 31.3349 161.031 29.1178 159.211C23.4713 154.466 21.701 146.649 20.2606 139.41C18.8404 132.273 17.4202 125.137 16 118L24.9199 124.149C31.3346 128.572 37.8938 133.136 42.3353 139.541C46.7769 145.947 48.7156 154.691 45.147 161.622" fill="#E6E6E6"/>
<path d="M44.5126 188.532C45.4675 181.985 46.4493 175.354 45.7795 168.737C45.1847 162.861 43.28 157.121 39.4024 152.414C37.3441 149.921 34.8396 147.785 32.0015 146.102C31.2614 145.662 30.5802 146.766 31.3171 147.204C36.2279 150.125 40.0262 154.439 42.1645 159.524C44.5261 165.178 44.9054 171.342 44.4984 177.348C44.2523 180.98 43.7307 184.589 43.2051 188.193C43.1636 188.356 43.1895 188.528 43.2774 188.673C43.3653 188.819 43.5087 188.928 43.6786 188.978C43.852 189.022 44.0368 189 44.1929 188.916C44.349 188.833 44.4639 188.695 44.5126 188.532Z" fill="#F2F2F2"/>
<path d="M37 178.418C35.832 180.197 34.2264 181.643 32.3381 182.62C30.4497 183.596 28.3422 184.068 26.2185 183.992C20.7608 183.733 16.2107 179.917 12.1148 176.295L0 165.581L8.01801 165.197C13.7841 164.921 19.6989 164.663 25.1909 166.444C30.6829 168.225 35.7479 172.511 36.7521 178.205" fill="#E6E6E6"/>
<path d="M46.9148 194.125C42.5263 186.327 37.4361 177.66 28.3408 174.89C25.8118 174.123 23.16 173.848 20.5283 174.08C19.6988 174.152 19.9059 175.436 20.7339 175.364C25.1453 174.996 29.5483 176.166 33.2014 178.677C36.7168 181.08 39.4539 184.42 41.7706 187.963C43.1896 190.133 44.4607 192.395 45.732 194.654C46.1383 195.376 47.3258 194.855 46.9148 194.125Z" fill="#F2F2F2"/>
<path d="M53.1718 204.382C53.0192 202.666 52.384 201.023 51.3355 199.633C50.287 198.242 48.8653 197.158 47.2254 196.497V192H39.4508V196.639C37.8916 197.332 36.5497 198.414 35.5619 199.774C34.5742 201.135 33.9759 202.725 33.8281 204.382L32 225H55L53.1718 204.382Z" fill="#F2F2F2"/>
</svg>
