<svg width="218" height="198" viewBox="0 0 218 198" fill="none" xmlns="http://www.w3.org/2000/svg">
<g clip-path="url(#clip0_304_129)">
<path d="M104.782 39.6747C107.209 37.2052 110.451 36.4555 112.023 38.0001C113.594 39.5447 112.9 42.7981 110.472 45.2681C109.516 46.2681 108.334 47.0246 107.025 47.4741L96.6096 57.8076L91.8639 52.8173L102.635 43.1602C103.062 41.8436 103.799 40.6484 104.782 39.6747Z" fill="#FFB6B6"/>
<path d="M71.4726 31.1449L82.3929 55.3672L99.8309 45.9295L106.072 49.2412C106.072 49.2412 91.8165 73.0698 82.0559 70.3572C72.2954 67.6446 54.9632 43.0489 58.086 35.4579C61.2089 27.8669 71.4726 31.1449 71.4726 31.1449Z" fill="#C3BDBD"/>
<path d="M122.094 44.8178C119.559 42.4594 118.721 39.2399 120.222 37.627C121.724 36.0142 124.995 36.6189 127.531 38.9785C128.557 39.9071 129.345 41.0679 129.831 42.3637L140.446 52.492L135.586 57.3713L125.637 46.8686C124.309 46.4777 123.094 45.7745 122.094 44.8178Z" fill="#A0616A"/>
<path d="M175.564 46.3791L155.075 68.1897C155.075 68.1897 150.474 72.7416 142.904 66.1773C135.334 59.6129 126.918 48.8433 126.918 48.8433L131.639 43.7054L140.003 51.1657C140.003 51.1657 144.968 53.1633 145.313 54.4559C145.658 55.7485 144.693 56.2832 146.245 55.869C147.796 55.4548 147.826 54.5308 147.923 55.9321C148.021 57.3334 147.073 58.9712 148.865 57.3848C150.658 55.7985 151.192 56.7635 151.192 56.7635L164.288 39.4196C164.288 39.4196 172.75 32.7291 175.182 38.7264C177.615 44.7237 175.564 46.3791 175.564 46.3791Z" fill="#501F6B"/>
<path d="M66.6842 192.577L74.6469 192.576L78.4347 161.868L66.6826 161.868L66.6842 192.577Z" fill="#FFB6B6"/>
<path d="M93.9652 192.397C94.2132 192.814 94.344 194.162 94.344 194.647C94.344 196.139 93.134 197.349 91.6414 197.349H66.982C65.9638 197.349 65.1384 196.524 65.1384 195.506V194.479C65.1384 194.479 63.9185 191.394 66.43 187.591C66.43 187.591 69.5515 190.569 74.2157 185.905L75.5912 183.414L85.5476 190.695L91.0663 191.374C92.2736 191.522 93.3442 191.351 93.9652 192.397Z" fill="#2F2E41"/>
<path d="M158.457 50.8643H178.19V21.7106L158.457 21.7106V50.8643Z" fill="#2F2E41"/>
<path d="M173.761 41.9748L173.07 33.6248H163.881L161.844 42.4715L173.761 41.9748Z" fill="#A0616A"/>
<path opacity="0.1" d="M173.761 41.9748L173.07 33.6248H163.881L161.844 42.4715L173.761 41.9748Z" fill="black"/>
<path d="M72.7095 32.6993L72.8706 21.9611L66.2477 17.8333L59.0461 26.6411L72.7095 32.6993Z" fill="#FFB6B6"/>
<path opacity="0.1" d="M72.7095 32.6993L73.1382 22.2287L66.2477 17.8333L68.5887 30.7911L72.7095 32.6993Z" fill="black"/>
<path d="M167.028 36.2818C172.576 36.2818 177.072 31.7856 177.072 26.2393C177.072 20.693 172.576 16.1968 167.028 16.1968C161.481 16.1968 156.984 20.693 156.984 26.2393C156.984 31.7856 161.481 36.2818 167.028 36.2818Z" fill="#A0616A"/>
<path d="M164.495 15.6739C164.495 15.6739 164.495 11.5512 168.324 12.4347C172.153 13.3181 173.331 14.7905 173.331 14.7905C173.331 14.7905 174.803 17.1463 177.159 17.4408C179.516 17.7353 181.577 24.5084 181.283 25.9808C180.988 27.4532 179.516 31.2814 181.577 33.0483C183.639 34.8152 186.584 37.4655 185.701 40.1159C184.817 42.7662 182.166 49.5392 182.166 49.5392C182.166 49.5392 189.56 50.6198 188.956 55.2329C188.956 55.2329 185.406 52.4841 180.694 52.4841C175.981 52.4841 176.57 43.936 176.57 43.936C176.57 43.936 176.276 38.6435 175.392 37.171C174.509 35.6986 175.687 27.4532 171.269 23.036C166.851 18.6187 164.495 15.6739 164.495 15.6739Z" fill="#2F2E41"/>
<path d="M165.673 14.7903C165.673 14.7903 160.077 15.9682 158.015 21.5634C155.954 27.1585 156.995 28.1996 156.995 28.1996C156.995 28.1996 156.539 31.5687 154.037 32.7501C151.536 33.9316 153.597 38.9377 153.597 38.9377C153.597 38.9377 153.008 43.9439 145.056 45.7108C137.104 47.4777 155.028 61.027 155.028 61.027C155.028 61.027 153.74 54.6321 161.986 54.3377C170.233 54.0432 160.371 38.9377 160.371 38.9377L159.488 29.2199C159.488 29.2199 161.255 18.0296 166.556 16.5572C171.858 15.0848 165.673 14.7903 165.673 14.7903Z" fill="#2F2E41"/>
<path d="M72.7302 25.3028C79.2353 25.3028 84.5087 20.0302 84.5087 13.526C84.5087 7.0219 79.2353 1.74927 72.7302 1.74927C66.2251 1.74927 60.9517 7.0219 60.9517 13.526C60.9517 20.0302 66.2251 25.3028 72.7302 25.3028Z" fill="#FFB6B6"/>
<path d="M88.7937 103.705L77.8214 178.359H64.0553L65.8858 135.745L66.8492 113.338L64.0553 102.672C64.0553 102.672 62.7815 100.302 61.7083 97.4279C60.4987 94.1849 59.5433 90.2971 60.9617 88.4535C61.4836 87.7738 62.8404 87.2708 64.6842 86.8962C65.8109 86.6661 67.1222 86.4868 68.5379 86.3477C76.6787 85.5423 88.2584 86.0453 88.2584 86.0453L88.5528 95.7583L88.7161 101.182L88.7937 103.705Z" fill="#2F2E41"/>
<path d="M21.3477 180.683L28.3624 184.45L46.2353 159.191L35.8824 153.631L21.3477 180.683Z" fill="#FFB6B6"/>
<path d="M45.4653 193.434C45.4861 193.919 44.9635 195.168 44.7336 195.595C44.0272 196.91 42.3887 197.403 41.0739 196.697L19.3512 185.028C18.4542 184.546 18.1177 183.428 18.5996 182.531L19.0855 181.627C19.0855 181.627 19.4713 178.332 23.4837 176.171C23.4837 176.171 24.824 180.271 31.1403 178.37L33.5313 176.826L38.8557 187.951L43.3957 191.161C44.3889 191.863 45.4132 192.219 45.4653 193.434Z" fill="#2F2E41"/>
<path d="M88.7161 101.182L82.8928 112.856L65.8859 135.745L37.888 173.427L25.7623 166.915L59.0001 110.959L61.5906 100.24C61.5906 100.24 61.5906 99.0817 61.7084 97.4281C61.9385 94.1557 62.629 88.9406 64.6842 86.8964C64.9626 86.6181 65.265 86.3987 65.5941 86.2515C66.2123 85.9732 67.24 86.0401 68.5379 86.3478C73.9598 87.6429 84.0783 93.2058 88.5528 95.7584L88.7161 101.182Z" fill="#2F2E41"/>
<path d="M173.013 193.514L166.166 193.513L162.909 167.109L173.014 167.11L173.013 193.514Z" fill="#A0616A"/>
<path d="M149.556 193.358C149.343 193.717 149.23 194.876 149.23 195.294C149.23 196.577 150.271 197.617 151.554 197.617H172.757C173.632 197.617 174.342 196.907 174.342 196.032V195.149C174.342 195.149 175.391 192.497 173.231 189.227C173.231 189.227 170.547 191.787 166.537 187.777L165.354 185.635L156.794 191.895L152.049 192.479C151.011 192.607 150.09 192.459 149.556 193.358Z" fill="#2F2E41"/>
<path d="M199.983 185.447L193.654 188.058L180.571 164.892L189.911 161.039L199.983 185.447Z" fill="#A0616A"/>
<path d="M178.241 194.25C178.181 194.663 178.519 195.777 178.678 196.162C179.168 197.349 180.526 197.913 181.713 197.424L201.312 189.337C202.121 189.004 202.507 188.077 202.173 187.268L201.836 186.452C201.836 186.452 201.793 183.6 198.55 181.401C198.55 181.401 197.046 184.791 191.809 182.614L189.898 181.085L184.373 190.136L180.21 192.486C179.299 193 178.392 193.215 178.241 194.25Z" fill="#2F2E41"/>
<path d="M176.154 102.94L173.36 113.606L174.104 130.912L175.338 159.658L175.372 160.469L175.512 163.701L176.154 178.626H162.388L156.259 136.93L151.416 103.973L151.924 87.1907L151.951 86.313C151.951 86.313 176.571 85.2427 179.248 88.7212C181.924 92.1997 176.154 102.94 176.154 102.94Z" fill="#2F2E41"/>
<path d="M195.307 167.897L192.973 169.103L184.343 173.569L183.08 174.222L175.512 163.701L156.259 136.93L151.416 103.973L151.924 87.1907C154.102 86.4976 155.845 86.214 156.728 86.6261C160.705 88.4857 160.514 100.676 160.514 100.676L162.936 111.433L174.104 130.912L195.307 167.897Z" fill="#2F2E41"/>
<path d="M145.532 171.188C145.355 170.646 144.013 170.884 143.884 170.4C143.755 169.917 145.044 169.511 146.032 168.15C146.21 167.905 147.333 166.358 146.902 165.707C146.086 164.474 140.406 167.546 139.043 165.822C138.744 165.444 138.621 164.794 137.729 163.586C137.375 163.105 137.147 162.873 136.875 162.88C136.49 162.889 136.352 163.372 135.746 164.246C134.837 165.556 134.509 165.392 133.91 166.465C133.465 167.262 133.412 167.772 133.092 167.802C132.638 167.844 132.451 166.852 131.896 166.813C131.331 166.774 130.765 167.755 130.484 168.521C129.958 169.959 130.284 171.057 130.356 172.153C130.434 173.343 130.25 175.085 128.957 177.321L116.758 196.754C119.377 192.793 126.814 181.99 129.811 178.027C130.676 176.883 131.605 175.735 133.036 175.519C134.413 175.31 136.089 175.992 138.428 175.952C138.702 175.948 139.462 175.925 139.647 175.522C139.8 175.189 139.42 174.899 139.558 174.586C139.743 174.166 140.577 174.346 141.713 174.067C142.514 173.871 143.058 173.546 143.526 173.266C143.667 173.182 145.768 171.909 145.532 171.188Z" fill="#F2F2F2"/>
<path d="M113.581 175.725C113.263 175.656 112.993 176.383 112.718 176.307C112.444 176.23 112.617 175.481 112.234 174.604C112.165 174.445 111.729 173.448 111.285 173.472C110.445 173.516 110.314 177.19 109.074 177.361C108.802 177.399 108.448 177.272 107.597 177.361C107.259 177.396 107.079 177.441 107.004 177.576C106.898 177.768 107.095 177.975 107.349 178.525C107.73 179.349 107.555 179.462 107.909 180.066C108.172 180.514 108.407 180.687 108.329 180.853C108.219 181.088 107.678 180.894 107.499 181.155C107.316 181.421 107.634 181.981 107.93 182.34C108.483 183.013 109.117 183.171 109.675 183.451C110.282 183.756 111.084 184.349 111.809 185.629L117.828 197.223C116.64 194.794 113.482 188.027 112.402 185.414C112.09 184.659 111.794 183.872 112.101 183.107C112.396 182.371 113.214 181.745 113.87 180.586C113.946 180.45 114.154 180.071 114.01 179.864C113.891 179.693 113.639 179.795 113.525 179.637C113.372 179.425 113.701 179.068 113.892 178.43C114.027 177.981 114.024 177.62 114.022 177.31C114.021 177.216 114.003 175.818 113.581 175.725Z" fill="#F2F2F2"/>
<path d="M119.586 178.554L119.775 176.807L119.891 176.697C120.428 176.19 120.764 175.653 120.89 175.099C120.91 175.011 120.926 174.922 120.942 174.832C121.004 174.473 121.082 174.026 121.428 173.563C121.621 173.304 122.132 172.72 122.659 172.924C122.802 172.978 122.898 173.07 122.965 173.168C122.981 173.151 122.998 173.134 123.017 173.115C123.245 172.894 123.404 172.813 123.557 172.735C123.675 172.675 123.797 172.613 124.003 172.448C124.094 172.376 124.166 172.311 124.227 172.256C124.412 172.091 124.649 171.898 124.973 171.974C125.316 172.068 125.434 172.396 125.512 172.613C125.652 173 125.695 173.266 125.723 173.443C125.734 173.507 125.745 173.58 125.754 173.603C125.83 173.793 126.774 173.842 127.129 173.862C127.928 173.906 128.618 173.943 128.785 174.49C128.904 174.881 128.655 175.307 128.025 175.791C127.828 175.942 127.632 176.046 127.461 176.123C127.566 176.223 127.65 176.358 127.655 176.542C127.667 176.979 127.219 177.313 126.325 177.539C126.103 177.596 125.804 177.671 125.413 177.652C125.229 177.643 125.068 177.614 124.93 177.588C124.91 177.666 124.872 177.748 124.804 177.825C124.606 178.053 124.284 178.111 123.848 177.982C123.367 177.848 122.986 177.666 122.65 177.505C122.357 177.366 122.104 177.246 121.892 177.214C121.498 177.158 121.13 177.402 120.689 177.726L119.586 178.554Z" fill="#F2F2F2"/>
<path d="M122.735 168.605L120.997 168.865L120.862 168.781C120.235 168.39 119.629 168.202 119.062 168.22C118.972 168.223 118.882 168.231 118.79 168.238C118.427 168.268 117.975 168.306 117.439 168.09C117.14 167.969 116.446 167.622 116.509 167.061C116.525 166.909 116.589 166.793 116.667 166.704C116.646 166.692 116.626 166.68 116.603 166.666C116.332 166.502 116.213 166.369 116.098 166.24C116.01 166.141 115.919 166.039 115.708 165.882C115.615 165.813 115.534 165.759 115.465 165.714C115.259 165.577 115.011 165.397 115.003 165.064C115.007 164.708 115.294 164.511 115.484 164.38C115.823 164.147 116.07 164.038 116.233 163.966C116.293 163.94 116.36 163.91 116.381 163.895C116.545 163.774 116.353 162.849 116.283 162.5C116.122 161.717 115.983 161.039 116.47 160.739C116.818 160.525 117.294 160.657 117.922 161.144C118.117 161.296 118.268 161.46 118.386 161.605C118.456 161.478 118.565 161.363 118.742 161.311C119.161 161.189 119.599 161.537 120.044 162.345C120.155 162.545 120.303 162.815 120.384 163.198C120.422 163.378 120.436 163.542 120.445 163.681C120.526 163.681 120.614 163.697 120.706 163.743C120.977 163.878 121.115 164.174 121.101 164.628C121.093 165.128 121.013 165.542 120.943 165.907C120.883 166.226 120.831 166.501 120.853 166.715C120.9 167.11 121.229 167.404 121.654 167.748L122.735 168.605Z" fill="#F2F2F2"/>
<path d="M122.969 163.387L123.158 161.641L123.274 161.531C123.811 161.024 124.147 160.486 124.273 159.933C124.293 159.845 124.309 159.756 124.325 159.665C124.388 159.306 124.466 158.86 124.811 158.396C125.004 158.138 125.515 157.554 126.043 157.758C126.185 157.811 126.281 157.903 126.348 158.001C126.364 157.984 126.382 157.967 126.4 157.949C126.628 157.728 126.787 157.646 126.941 157.568C127.058 157.508 127.18 157.447 127.386 157.282C127.477 157.209 127.549 157.144 127.61 157.09C127.795 156.925 128.032 156.731 128.356 156.808C128.7 156.902 128.817 157.229 128.896 157.446C129.035 157.833 129.078 158.1 129.107 158.276C129.117 158.34 129.129 158.413 129.138 158.437C129.213 158.626 130.157 158.675 130.512 158.696C131.311 158.739 132.002 158.777 132.168 159.323C132.287 159.714 132.039 160.141 131.408 160.625C131.212 160.775 131.015 160.879 130.844 160.957C130.949 161.056 131.033 161.192 131.038 161.376C131.05 161.812 130.602 162.147 129.708 162.372C129.486 162.429 129.188 162.504 128.797 162.485C128.612 162.476 128.451 162.448 128.314 162.421C128.293 162.5 128.255 162.581 128.188 162.659C127.989 162.886 127.667 162.944 127.231 162.816C126.75 162.682 126.369 162.499 126.034 162.339C125.74 162.199 125.488 162.08 125.275 162.047C124.881 161.992 124.513 162.236 124.073 162.56L122.969 163.387Z" fill="#F2F2F2"/>
<path d="M117.334 196.854L117.027 196.551L116.6 196.505C116.602 196.465 116.599 196.371 116.596 196.225C116.58 195.421 116.529 192.976 116.869 189.218C117.107 186.595 117.504 183.933 118.05 181.304C118.597 178.67 119.165 176.711 119.621 175.136C119.965 173.948 120.312 172.821 120.651 171.724C121.555 168.792 122.41 166.022 122.938 162.863C123.057 162.158 123.303 160.69 122.799 158.957C122.507 157.952 122.007 157.007 121.313 156.147L121.985 155.604C122.752 156.554 123.304 157.602 123.629 158.717C124.187 160.638 123.919 162.238 123.79 163.006C123.252 166.221 122.389 169.018 121.476 171.978C121.139 173.071 120.792 174.193 120.45 175.376C119.998 176.936 119.436 178.879 118.896 181.478C118.356 184.076 117.964 186.706 117.729 189.296C117.393 193.006 117.443 195.415 117.46 196.207C117.468 196.629 117.47 196.718 117.334 196.854Z" fill="#F2F2F2"/>
<path d="M119.469 157.141C119.434 157.133 119.399 157.125 119.364 157.114C118.655 156.915 118.087 156.338 117.674 155.397C117.48 154.955 117.435 154.49 117.344 153.562C117.329 153.419 117.266 152.695 117.344 151.735C117.394 151.108 117.462 150.856 117.632 150.658C117.822 150.438 118.077 150.312 118.347 150.248C118.354 150.165 118.382 150.084 118.435 150.007C118.657 149.688 119.029 149.819 119.231 149.887C119.332 149.924 119.459 149.97 119.601 149.994C119.825 150.033 119.959 149.994 120.161 149.935C120.354 149.879 120.595 149.809 120.927 149.815C121.584 149.824 122.07 150.119 122.23 150.216C123.073 150.723 123.365 151.532 123.702 152.468C123.769 152.656 123.991 153.334 124.043 154.208C124.08 154.838 123.998 155.096 123.903 155.28C123.71 155.659 123.413 155.835 122.678 156.205C121.91 156.593 121.525 156.787 121.209 156.886C120.473 157.117 120.012 157.262 119.469 157.141Z" fill="#F2F2F2"/>
<path d="M218 197.686C218 197.859 217.859 198 217.686 198H0V197.372H217.686C217.859 197.372 218 197.512 218 197.686Z" fill="#C3BDBD"/>
<path d="M60.5603 24.3694L73.9411 30.7912C73.9411 30.7912 88.1247 72.8005 88.1247 74.9411C88.1247 77.0817 92.1389 78.4196 89.7304 80.8277C87.3218 83.2359 94.2133 85.2754 90.4999 87.199C86.7866 89.1225 63.6221 99.6443 61.0463 98.6955C53.9422 96.0786 61.3474 86.4626 61.3474 86.4626C61.3474 86.4626 56.0109 82.1656 56.8137 80.025C57.6166 77.8844 51.9966 36.9454 51.9966 36.9454L60.5603 24.3694Z" fill="#C3BDBD"/>
<path d="M72.0109 16.3467L73.5258 19.3761C73.5258 19.3761 75.0408 13.9231 77.4647 12.7113C79.8886 11.4995 80.1916 9.68185 80.1916 9.68185C80.1916 9.68185 83.2216 13.6202 85.3425 12.7113C87.4635 11.8025 88.3724 11.1966 85.9485 7.56122C83.5246 3.92586 84.1305 5.74354 84.1305 5.74354C84.1305 5.74354 82.0096 2.71407 82.3126 3.62291C82.6156 4.53175 80.4946 1.19933 80.4946 2.10817C80.4946 3.01701 78.9797 0.290488 78.9797 1.19933C78.9797 2.10817 72.6168 -0.921298 73.5258 0.290492C74.4348 1.50228 68.072 -2.13308 65.042 2.71407C62.0121 7.56122 57.8108 6.66483 59.3055 9.68807C60.8001 12.7113 60.1942 20.8909 60.1942 20.8909H64.3728C64.3728 20.8909 68.6779 12.7113 72.0109 16.3467Z" fill="#2F2E41"/>
<path d="M161.184 42.0293L161.429 41.96L173.494 38.5508L183.128 51.662L176.705 78.9546L179.114 89.9252C179.114 89.9252 159.578 84.8413 151.817 89.1225C151.817 89.1225 151.282 86.6827 151.817 85.4944C152.352 84.3061 153.155 79.3612 152.352 77.1511C151.549 74.941 153.958 64.5056 153.958 64.5056C153.958 64.5056 153.155 57.5486 156.634 54.0701C160.113 50.5917 161.184 42.0293 161.184 42.0293Z" fill="#501F6B"/>
<path d="M150.226 91.3117L107.83 70.2454C107.619 70.1406 107.435 69.9963 107.282 69.8165L100.667 62.0214C100.228 61.5044 100.133 60.7749 100.425 60.1628L112.829 34.1426C113.046 33.6867 113.451 33.35 113.939 33.2188C114.427 33.0879 114.946 33.1766 115.363 33.4623L145.262 53.9685C145.876 54.3894 146.15 55.1526 145.944 55.8678L139.874 76.9895C139.708 77.5673 139.919 78.1977 140.4 78.5583L152.409 87.5635C153.056 88.0484 153.279 88.9329 152.94 89.6667L152.561 90.4897C152.364 90.9166 152.011 91.2378 151.567 91.394C151.379 91.4603 151.185 91.4932 150.992 91.4932C150.73 91.4931 150.469 91.4323 150.226 91.3117Z" fill="#501F6B"/>
<path d="M149.888 86.1845L138.086 76.3672C137.984 76.2816 137.904 76.1772 137.848 76.0622C137.74 75.8454 137.719 75.5859 137.799 75.3477L144.525 55.6729C144.698 55.1645 144.511 54.5973 144.067 54.2922L116.048 35.1125C115.761 34.9145 115.403 34.8529 115.065 34.9412C114.726 35.0295 114.445 35.2596 114.289 35.5727L102.477 59.5555C102.298 59.9167 102.311 60.3314 102.509 60.6766C102.533 60.7248 102.562 60.7702 102.597 60.8131L108.538 68.653C108.653 68.8028 108.803 68.9259 108.972 69.0089L148.595 88.1913C148.761 88.2716 148.94 88.3117 149.119 88.3117C149.43 88.3117 149.74 88.1913 149.97 87.9585C149.997 87.9291 150.024 87.9024 150.051 87.8702C150.238 87.6428 150.334 87.3512 150.321 87.0541C150.305 86.717 150.147 86.4012 149.888 86.1845Z" fill="#F2F2F2"/>
<path d="M107.125 58.0839C107.223 58.0839 107.317 58.03 107.364 57.9366L116.969 38.858C117.035 38.726 116.982 38.5651 116.85 38.4987C116.718 38.432 116.557 38.4854 116.491 38.6174L106.886 57.696C106.82 57.828 106.873 57.9889 107.005 58.0552C107.044 58.0747 107.085 58.0839 107.125 58.0839Z" fill="#501F6B"/>
<path d="M112.21 61.2948C112.308 61.2948 112.402 61.241 112.449 61.1476L122.054 42.069C122.12 41.9369 122.067 41.7761 121.935 41.7097C121.802 41.6428 121.642 41.6965 121.576 41.8284L111.971 60.9069C111.904 61.039 111.958 61.1998 112.09 61.2662C112.128 61.2857 112.169 61.2948 112.21 61.2948Z" fill="#501F6B"/>
<path d="M116.492 63.9706C116.59 63.9706 116.684 63.9167 116.731 63.8233L126.335 44.7448C126.402 44.6127 126.349 44.4518 126.217 44.3855C126.084 44.3187 125.924 44.3721 125.857 44.5041L116.253 63.5827C116.186 63.7148 116.24 63.8756 116.371 63.942C116.41 63.9614 116.451 63.9706 116.492 63.9706Z" fill="#501F6B"/>
<path d="M101.333 61.386C104.654 60.4051 107.852 61.3232 108.476 63.4363C109.1 65.5495 106.914 68.0571 103.591 69.038C102.27 69.448 100.869 69.5356 99.5066 69.2934L85.3836 73.272L83.6575 66.6057L97.7635 63.3912C98.776 62.4474 99.9999 61.7598 101.333 61.386Z" fill="#FFB6B6"/>
<path d="M76.3529 37.7608L74.1393 64.238L93.967 64.4512L97.8151 70.3757C97.8151 70.3757 73.7828 84.2887 66.5666 77.1796C59.3504 70.0705 56.1396 40.1546 62.5554 35.0339C68.9713 29.9132 76.3529 37.7608 76.3529 37.7608Z" fill="#C3BDBD"/>
<path d="M141.305 85.5668C137.852 85.3068 135.187 83.3146 135.353 81.1175C135.519 78.9204 138.452 77.3507 141.907 77.6113C143.288 77.6965 144.629 78.1111 145.817 78.8206L160.433 80.1071L159.683 86.9522L145.353 84.9572C144.072 85.4807 142.684 85.6898 141.305 85.5668Z" fill="#A0616A"/>
<path d="M184.051 53.4112L181.663 83.2387C181.663 83.2387 180.91 89.6666 170.898 89.2636C160.886 88.8606 147.587 85.7006 147.587 85.7006L148.067 78.7397L159.259 79.3475C159.259 79.3475 164.385 77.8087 165.462 78.603C166.538 79.3973 166.118 80.4174 167.072 79.1255C168.025 77.8336 167.472 77.093 168.422 78.127C169.373 79.161 169.656 81.0318 170.065 78.6739C170.475 76.3159 171.495 76.736 171.495 76.736L170.896 55.013C170.896 55.013 173.329 44.5046 178.974 47.6712C184.619 50.8379 184.051 53.4112 184.051 53.4112Z" fill="#501F6B"/>
</g>
<defs>
<clipPath id="clip0_304_129">
<rect width="218" height="198" fill="white"/>
</clipPath>
</defs>
</svg>
