<svg width="187" height="217" viewBox="0 0 187 217" fill="none" xmlns="http://www.w3.org/2000/svg">
<g clip-path="url(#clip0_304_289)">
<path d="M187 192.625H136.808V191.975C149.948 191.975 162.549 186.76 171.84 177.477C181.13 168.194 186.35 155.603 186.35 142.474V107.474H187V192.625Z" fill="#F2F2F2"/>
<path d="M50.0495 66.1234C48.7152 66.6312 47.3527 67.0618 45.9687 67.4128C44.1407 67.858 43.1086 68.0643 41.3441 67.3801C41.2822 67.3561 41.223 67.3323 41.1672 67.309C37.8229 65.8882 34.964 63.5266 32.9386 60.5116C30.9133 57.4967 29.8088 53.9585 29.7596 50.3277C29.7507 50.2032 29.7507 50.0722 29.7507 49.9445C29.749 49.3291 29.7785 48.7141 29.8389 48.1017C29.9163 47.2675 30.0498 46.4395 30.2387 45.6233L30.2211 45.6201C28.7925 44.1606 28.2429 42.1613 28.4251 40.1524C28.55 38.7905 28.9825 37.4746 29.6903 36.304C30.398 35.1334 31.3624 34.1385 32.5108 33.3944C34.3106 32.2637 36.3399 31.548 38.4513 31.2993C39.0182 31.234 39.5883 31.2009 40.159 31.2003H45.5204C46.6277 30.9412 47.7526 30.764 48.886 30.6701H48.8948C59.6852 29.7758 68.1946 36.9235 67.401 45.6201C67.3951 45.6297 67.3863 45.6393 67.3804 45.6489C67.1511 46.0225 66.9483 46.377 66.769 46.7156C66.5956 47.0317 66.4486 47.3351 66.3222 47.6226C65.3375 49.8455 70.017 84.3331 68.3386 84.8568C67.3833 85.1539 63.5328 59.4907 64.2235 64.3707C65.0936 70.4931 55.0205 64.2873 50.0495 66.1234Z" fill="#2F2E41"/>
<path d="M66.3046 128.467L81.2621 160.307L23.7237 154.484L35.7346 123.918L66.3046 128.467Z" fill="#FFB6B6"/>
<path d="M96.3308 192.304C86.3252 195.632 75.7809 197.043 65.2516 196.464L60.6729 189.044C60.6729 189.044 60.4812 191.807 60.1952 196.032C55.1829 195.451 50.236 194.403 45.4192 192.902C36.2846 190.048 27.7219 185.625 19.0422 181.547C17.2842 171.076 16.6245 154.928 26.3441 145.529L78.6594 155.107C78.6594 155.107 87.0531 161.38 84.8077 163.627C82.5622 165.871 82.2145 165.523 83.6898 166.997C85.1651 168.472 88.353 170.442 88.3855 171.731C88.3985 172.235 91.9763 181.362 96.3308 192.304Z" fill="#2F2E41"/>
<path d="M57.1691 66.9413L44.5298 67.8224L36.3606 75.7099L33.4996 76.2202C30.9279 76.6783 28.6138 78.0635 26.9963 80.113C25.3787 82.1626 24.57 84.7339 24.7237 87.3395C25.3122 97.302 26.6298 112.188 29.3839 117.017C33.6542 124.506 37.1814 122.156 33.6542 124.506C30.127 126.855 27.7589 125.009 29.3839 128.722C31.0088 132.436 27.1876 137.198 27.1876 137.198L25.6665 138.718L27.2798 139.379L78.6874 146.063C78.6874 146.063 74.2423 126.093 77.0222 121.188C79.8021 116.282 86.5422 101.454 80.5268 95.6517L74.645 74.9705L64.5278 71.989L57.1691 66.9413Z" fill="#501F6B"/>
<path d="M133.68 148.902C132.834 148.875 132.004 148.665 131.248 148.286C130.491 147.907 129.826 147.369 129.298 146.708C128.77 146.047 128.392 145.279 128.191 144.458C127.989 143.637 127.968 142.781 128.13 141.951L104.016 125.634L106.893 117.859L135.392 137.449C136.77 137.825 137.962 138.693 138.743 139.888C139.523 141.084 139.838 142.524 139.627 143.935C139.416 145.347 138.694 146.632 137.598 147.547C136.502 148.463 135.108 148.945 133.68 148.902Z" fill="#FFB6B6"/>
<path d="M65.5696 73.9938L62.0656 75.3801L80.7578 111.858L119.454 138.213L125.032 128.793L95.5759 103.371L83.7831 80.7727C82.1235 77.5924 79.3434 75.1394 75.9796 73.8874C72.6158 72.6355 68.907 72.6734 65.5696 73.9938Z" fill="#501F6B"/>
<path d="M50.1918 63.7333C57.2011 63.7333 62.8833 58.0557 62.8833 51.0521C62.8833 44.0484 57.2011 38.3708 50.1918 38.3708C43.1824 38.3708 37.5002 44.0484 37.5002 51.0521C37.5002 58.0557 43.1824 63.7333 50.1918 63.7333Z" fill="#FFB6B6"/>
<path d="M61.2283 45.6895C61.0167 45.8011 60.808 45.9039 60.5964 46.0067C60.3759 46.1124 60.1555 46.2182 59.9321 46.318C55.6847 48.2417 52.2251 48.4562 50.1264 45.6895C50.069 44.234 49.741 42.8019 49.1593 41.4662C49.2621 42.9588 48.8684 44.4436 48.0394 45.6895H43.8126C39.4595 48.5766 37.2255 51.2286 40.2472 60.7062C40.4441 61.3289 41.7933 83.45 42.1784 85.1505C35.5883 82.6247 29.9036 55.8074 29.7596 48.741C29.7507 48.6265 29.7508 48.5061 29.7508 48.3886C29.749 47.8225 29.7785 47.2568 29.839 46.694C29.9165 45.9256 30.0501 45.1638 30.2387 44.4149L30.2211 44.4119C29.5506 43.7714 29.039 42.9833 28.7272 42.1104C28.4154 41.2375 28.312 40.3038 28.4251 39.3839C29.5306 37.9376 30.8987 36.7121 32.4579 35.7714C33.8757 35.0854 35.3535 34.5309 36.8728 34.115C36.911 34.1062 36.9434 34.0973 36.9816 34.0885C37.446 33.9622 37.9222 33.8477 38.3983 33.7478C39.3796 33.5422 40.3718 33.3922 41.37 33.2985C41.4435 33.2956 41.5141 33.2897 41.5787 33.2897C41.978 33.2899 42.3699 33.3975 42.7133 33.601C42.7163 33.601 42.7163 33.6039 42.7221 33.6039C43.0521 33.8009 43.3258 34.0795 43.5168 34.4128C43.7078 34.7462 43.8096 35.123 43.8126 35.5071H48.5215C48.6949 35.5071 48.8683 35.513 49.0418 35.5218C55.5994 35.7831 60.8697 38.585 61.2078 45.0258C61.2225 45.249 61.2283 45.4663 61.2283 45.6895Z" fill="#2F2E41"/>
<path d="M33.3888 46.1993C38.0066 46.1993 41.75 42.4589 41.75 37.8448C41.75 33.2308 38.0066 29.4904 33.3888 29.4904C28.7709 29.4904 25.0275 33.2308 25.0275 37.8448C25.0275 42.4589 28.7709 46.1993 33.3888 46.1993Z" fill="#2F2E41"/>
<path d="M44.8679 33.9806C43.918 38.496 39.2314 41.1966 34.7479 40.0919C32.5948 39.5614 30.7409 38.198 29.5939 36.3017C28.4468 34.4054 28.1007 32.1315 28.6317 29.9802C29.7373 25.5003 35.1786 26.7918 38.7516 23.8689C43.8063 19.734 46.1489 27.8913 44.8679 33.9806Z" fill="#2F2E41"/>
<path d="M26.2903 159.671C33.4165 130.634 47.5363 105.677 70.9206 86.123C71.8256 84.6354 73.2842 83.5672 74.9764 83.1528C76.6686 82.7385 78.4563 83.0117 79.9471 83.9126L135.538 117.591C137.026 118.495 138.095 119.953 138.51 121.643C138.925 123.334 138.651 125.12 137.75 126.61C128.824 156.405 115.456 182.259 93.1195 200.158C92.2145 201.646 90.7559 202.714 89.0637 203.128C87.3715 203.543 85.5839 203.269 84.093 202.368L28.5026 168.69C27.0138 167.786 25.9448 166.329 25.53 164.638C25.1153 162.947 25.3887 161.161 26.2903 159.671Z" fill="#F2F2F2"/>
<path opacity="0.2" d="M36.171 169.457C34.6822 168.552 33.6132 167.095 33.1985 165.404C32.7837 163.713 33.0572 161.927 33.9588 160.438C41.085 131.401 55.2048 106.443 78.589 86.8895C79.1881 85.9157 80.034 85.1174 81.041 84.5752L79.9471 83.9124C78.4563 83.0116 76.6687 82.7383 74.9765 83.1527C73.2843 83.5671 71.8257 84.6352 70.9206 86.1227C47.5364 105.677 33.4166 130.634 26.2904 159.671C25.3888 161.161 25.1153 162.947 25.5301 164.638C25.9448 166.328 27.0138 167.786 28.5026 168.69L84.093 202.368C85.0824 202.963 86.2116 203.286 87.3662 203.304C88.5208 203.323 89.6597 203.036 90.6675 202.472L36.171 169.457Z" fill="black"/>
<path d="M101.364 153.234L64.0495 130.769C63.4567 130.411 63.0303 129.832 62.864 129.161C62.6976 128.489 62.805 127.778 63.1625 127.186C63.52 126.593 64.0983 126.166 64.7705 125.999C65.4427 125.832 66.1538 125.938 66.7475 126.295L104.062 148.76C104.654 149.119 105.079 149.697 105.244 150.368C105.41 151.039 105.302 151.748 104.945 152.341C104.588 152.933 104.011 153.359 103.339 153.527C102.668 153.694 101.958 153.589 101.364 153.234Z" fill="white"/>
<path d="M79.6569 123.443L71.4477 118.5C70.8528 118.145 70.4236 117.568 70.2546 116.896C70.0856 116.224 70.1906 115.513 70.5465 114.918C70.9024 114.324 71.4801 113.895 72.1524 113.726C72.8247 113.557 73.5367 113.662 74.1316 114.018L74.1457 114.026L82.355 118.969C82.9465 119.327 83.3717 119.906 83.5372 120.577C83.7028 121.248 83.5952 121.958 83.2381 122.55C82.8811 123.142 82.3036 123.568 81.6323 123.736C80.961 123.903 80.2506 123.798 79.6569 123.443Z" fill="white"/>
<path d="M95.4337 163.069L58.1189 140.603C57.5254 140.246 57.098 139.668 56.9308 138.996C56.7635 138.325 56.87 137.614 57.2269 137.021C57.5837 136.427 58.1617 136 58.8339 135.832C59.506 135.664 60.2174 135.77 60.8116 136.126L60.8169 136.129L98.1317 158.594C98.7231 158.953 99.1481 159.531 99.3135 160.203C99.479 160.874 99.3714 161.583 99.0144 162.175C98.6573 162.767 98.08 163.194 97.4088 163.361C96.7376 163.529 96.0274 163.423 95.4337 163.069Z" fill="white"/>
<path d="M106.103 110.875C112.122 110.875 117.002 105.999 117.002 99.985C117.002 93.9706 112.122 89.095 106.103 89.095C100.084 89.095 95.2042 93.9706 95.2042 99.985C95.2042 105.999 100.084 110.875 106.103 110.875Z" fill="#3F3D56"/>
<path d="M87.3162 216.675C100.182 216.675 110.611 206.254 110.611 193.399C110.611 180.544 100.182 170.124 87.3162 170.124C74.4509 170.124 64.0214 180.544 64.0214 193.399C64.0214 206.254 74.4509 216.675 87.3162 216.675Z" fill="white"/>
<path d="M87.3162 217C82.6447 217 78.078 215.616 74.1938 213.023C70.3095 210.429 67.2821 206.744 65.4944 202.431C63.7067 198.119 63.2389 193.373 64.1503 188.795C65.0616 184.217 67.3112 180.012 70.6145 176.712C73.9177 173.411 78.1263 171.163 82.7081 170.253C87.2899 169.342 92.039 169.809 96.355 171.596C100.671 173.382 104.36 176.407 106.955 180.288C109.551 184.169 110.936 188.732 110.936 193.399C110.929 199.657 108.438 205.655 104.01 210.08C99.5821 214.504 93.5784 216.993 87.3162 217ZM87.3162 170.448C82.7732 170.448 78.3322 171.795 74.5548 174.316C70.7775 176.838 67.8334 180.423 66.0948 184.617C64.3563 188.81 63.9014 193.425 64.7877 197.877C65.6741 202.329 67.8617 206.419 71.0741 209.629C74.2865 212.838 78.3794 215.024 82.8351 215.91C87.2908 216.795 91.9093 216.341 96.1065 214.604C100.304 212.866 103.891 209.925 106.415 206.15C108.939 202.376 110.286 197.939 110.286 193.399C110.279 187.315 107.857 181.481 103.551 177.178C99.2445 172.876 93.4061 170.455 87.3162 170.448Z" fill="#3F3D56"/>
<path d="M84.1383 205.514C83.7361 205.514 83.3393 205.42 82.9795 205.24C82.6198 205.06 82.3069 204.799 82.0656 204.478L75.7104 196.011C75.5059 195.739 75.357 195.429 75.2723 195.1C75.1876 194.77 75.1687 194.427 75.2168 194.091C75.2648 193.754 75.3787 193.43 75.5521 193.137C75.7256 192.844 75.955 192.589 76.2274 192.384C76.4998 192.18 76.8097 192.032 77.1396 191.947C77.4694 191.863 77.8126 191.845 78.1497 191.893C78.4867 191.941 78.8109 192.055 79.1037 192.229C79.3966 192.402 79.6523 192.632 79.8563 192.904L84.0141 198.443L94.6928 182.438C94.8816 182.155 95.1243 181.912 95.407 181.723C95.6898 181.534 96.007 181.402 96.3407 181.335C96.6744 181.269 97.0179 181.268 97.3517 181.334C97.6856 181.4 98.0031 181.531 98.2863 181.72C98.5694 181.909 98.8126 182.151 99.0019 182.434C99.1913 182.716 99.3231 183.033 99.3898 183.367C99.4566 183.7 99.4569 184.043 99.3909 184.377C99.3249 184.71 99.1937 185.028 99.005 185.311L86.2946 204.361C86.0647 204.705 85.7554 204.989 85.3928 205.19C85.0302 205.39 84.6247 205.501 84.2105 205.513C84.1864 205.513 84.1624 205.514 84.1383 205.514Z" fill="#501F6B"/>
<path d="M162.547 75.4482C163.473 75.3691 164.179 74.7834 164.123 74.14C164.068 73.4966 163.273 73.0391 162.348 73.1182C161.422 73.1972 160.716 73.7829 160.771 74.4264C160.826 75.0698 161.621 75.5273 162.547 75.4482Z" fill="white"/>
<path d="M172.962 71.918C173.888 71.839 174.594 71.2533 174.539 70.6098C174.484 69.9664 173.688 69.5089 172.763 69.588C171.837 69.6671 171.131 70.2528 171.186 70.8962C171.241 71.5396 172.037 71.9971 172.962 71.918Z" fill="#3F3D56"/>
<path d="M157.61 67.5086C158.536 67.4295 159.242 66.8438 159.187 66.2004C159.131 65.557 158.336 65.0995 157.411 65.1786C156.485 65.2577 155.779 65.8434 155.834 66.4868C155.889 67.1302 156.684 67.5877 157.61 67.5086Z" fill="#FF6584"/>
<path d="M153.241 64.9503C153.64 64.8604 153.858 64.3236 153.728 63.7513C153.599 63.1791 153.171 62.7881 152.773 62.878C152.374 62.968 152.156 63.5048 152.286 64.0771C152.415 64.6493 152.843 65.0403 153.241 64.9503Z" fill="#E6E6E6"/>
<path d="M150.131 58.7394C150.529 58.6495 150.747 58.1126 150.618 57.5404C150.488 56.9681 150.061 56.5771 149.662 56.6671C149.264 56.757 149.046 57.2939 149.175 57.8661C149.305 58.4384 149.732 58.8294 150.131 58.7394Z" fill="#3F3D56"/>
<path d="M165.054 67.4617C165.453 67.3717 165.671 66.8349 165.541 66.2627C165.412 65.6904 164.984 65.2994 164.586 65.3894C164.187 65.4793 163.969 66.0161 164.099 66.5884C164.228 67.1607 164.656 67.5516 165.054 67.4617Z" fill="#E6E6E6"/>
<path d="M160.505 71.235C160.904 71.1451 161.122 70.6082 160.992 70.036C160.863 69.4637 160.435 69.0727 160.037 69.1627C159.638 69.2526 159.42 69.7895 159.55 70.3617C159.679 70.934 160.107 71.325 160.505 71.235Z" fill="#FF6584"/>
<path d="M168.787 74.3084C169.185 74.2184 169.403 73.6816 169.274 73.1093C169.145 72.5371 168.717 72.1461 168.318 72.2361C167.92 72.326 167.702 72.8628 167.831 73.4351C167.961 74.0073 168.388 74.3983 168.787 74.3084Z" fill="#3F3D56"/>
<path d="M119.546 27.3371C119.705 26.7112 119.104 26.0188 118.203 25.7908C117.303 25.5628 116.444 25.8854 116.285 26.5113C116.126 27.1373 116.728 27.8296 117.628 28.0577C118.529 28.2857 119.388 27.9631 119.546 27.3371Z" fill="white"/>
<path d="M108.549 27.2662C108.707 26.6402 108.106 25.9479 107.205 25.7199C106.305 25.4918 105.446 25.8144 105.287 26.4404C105.129 27.0664 105.73 27.7587 106.631 27.9868C107.531 28.2148 108.39 27.8922 108.549 27.2662Z" fill="#3F3D56"/>
<path d="M121.61 36.454C121.769 35.828 121.168 35.1357 120.267 34.9076C119.367 34.6796 118.508 35.0022 118.349 35.6282C118.19 36.2541 118.792 36.9465 119.692 37.1745C120.593 37.4025 121.452 37.08 121.61 36.454Z" fill="#FF6584"/>
<path d="M124.174 39.8917C124.239 39.3087 123.963 38.7993 123.557 38.754C123.151 38.7087 122.769 39.1446 122.704 39.7276C122.639 40.3107 122.915 40.8201 123.321 40.8654C123.727 40.9107 124.109 40.4748 124.174 39.8917Z" fill="#E6E6E6"/>
<path d="M125.078 46.7779C125.144 46.1948 124.867 45.6854 124.461 45.6401C124.055 45.5948 123.674 46.0307 123.608 46.6137C123.543 47.1968 123.819 47.7062 124.225 47.7515C124.631 47.7968 125.013 47.3609 125.078 46.7779Z" fill="#3F3D56"/>
<path d="M113.835 33.655C113.9 33.072 113.624 32.5626 113.218 32.5173C112.812 32.472 112.43 32.9079 112.365 33.4909C112.299 34.074 112.576 34.5834 112.982 34.6287C113.387 34.674 113.769 34.2381 113.835 33.655Z" fill="#E6E6E6"/>
<path d="M119.369 31.5774C119.434 30.9944 119.158 30.485 118.752 30.4396C118.346 30.3943 117.964 30.8302 117.899 31.4133C117.834 31.9963 118.11 32.5057 118.516 32.5511C118.922 32.5964 119.304 32.1605 119.369 31.5774Z" fill="#FF6584"/>
<path d="M112.551 25.9646C112.616 25.3816 112.34 24.8722 111.934 24.8269C111.528 24.7815 111.146 25.2174 111.081 25.8005C111.016 26.3835 111.292 26.8929 111.698 26.9383C112.104 26.9836 112.486 26.5477 112.551 25.9646Z" fill="#3F3D56"/>
<path d="M0.64992 85.1504H0V0H50.1918V0.649391C37.0525 0.649391 24.4513 5.8647 15.1604 15.148C5.86949 24.4313 0.64992 37.0222 0.64992 50.1508V85.1504Z" fill="#F2F2F2"/>
<path d="M29.7566 159.979C28.926 159.639 28.1792 159.122 27.5679 158.466C26.9566 157.809 26.4954 157.027 26.2162 156.175C25.937 155.322 25.8464 154.419 25.9508 153.529C26.0551 152.638 26.3519 151.78 26.8205 151.015L8.91345 125.864L14.6582 119.205L35.708 149.232C36.938 150.116 37.8008 151.421 38.1328 152.898C38.4648 154.375 38.243 155.922 37.5094 157.247C36.7758 158.571 35.5814 159.581 34.1525 160.085C32.7236 160.588 31.1595 160.55 29.7566 159.979Z" fill="#FFB6B6"/>
<path d="M30.1681 80.2751C29.2621 79.7425 28.1959 79.55 27.1607 79.7321C26.1255 79.9142 25.1891 80.459 24.5197 81.2687L0.324921 115.079L22.7472 146.899L31.5211 137.483L17.8728 116.053L36.0115 98.7969C37.5021 95.5341 37.7297 91.8351 36.6505 88.4144C35.5713 84.9937 33.2618 82.0939 30.1681 80.2751Z" fill="#501F6B"/>
</g>
<defs>
<clipPath id="clip0_304_289">
<rect width="187" height="217" fill="white"/>
</clipPath>
</defs>
</svg>
