<svg width="285" height="215" viewBox="0 0 285 215" fill="none" xmlns="http://www.w3.org/2000/svg">
<path d="M260.422 191.046L260.849 181.435C265.305 179.054 270.275 177.796 275.327 177.771C268.373 183.456 269.242 194.414 264.528 202.06C263.04 204.433 261.036 206.44 258.666 207.934C256.296 209.428 253.621 210.369 250.838 210.688L245.019 214.25C244.22 209.799 244.396 205.228 245.535 200.851C246.673 196.474 248.747 192.396 251.613 188.898C253.24 186.951 255.106 185.218 257.166 183.737C258.56 187.412 260.422 191.046 260.422 191.046Z" fill="#C8B6D2"/>
<path d="M60.6569 105.604C60.2725 105.253 59.9696 104.822 59.7697 104.341C59.5697 103.861 59.4776 103.342 59.4998 102.822C59.522 102.302 59.6579 101.793 59.898 101.331C60.1381 100.87 60.4765 100.466 60.8894 100.149L56.9031 88.1406L63.2527 89.8466L66.0647 100.988C66.5511 101.717 66.7531 102.6 66.6325 103.468C66.512 104.336 66.0772 105.129 65.4107 105.698C64.7441 106.267 63.892 106.572 63.0158 106.554C62.1397 106.537 61.3004 106.199 60.6569 105.604Z" fill="#A0616A"/>
<path d="M72.1648 40.3588C73.2184 40.9628 79.4519 39.4661 80.6693 39.8919C79.9973 43.9924 83.6472 42.4536 79.6837 47.8386C75.7201 53.2236 67.7371 69.3692 65.9236 75.4036C64.1101 81.438 65.905 89.942 65.6334 92.8019C65.5022 94.459 65.5103 96.1241 65.6579 97.7798C63.5164 97.7527 61.4057 98.1971 59.2307 97.9132C56.9114 91.3499 55.3519 82.0075 54.2929 76.8443C53.234 71.6811 53.1952 73.8646 53.6809 71.2828C54.1666 68.7011 54.2842 70.5772 53.774 68.1073C53.2638 65.6374 55.3271 62.5341 57.2336 60.7647C58.0556 58.4003 59.118 56.1957 59.9318 53.8559C65.8953 48.6533 66.2874 45.6479 72.1648 40.3588Z" fill="#501F6B"/>
<path d="M245.429 207.59H240.16L237.654 187.267H245.43L245.429 207.59Z" fill="#FFB6B6"/>
<path d="M246.773 212.698L229.784 212.698V212.483C229.784 210.729 230.481 209.047 231.721 207.807C232.961 206.567 234.643 205.87 236.397 205.87L239.5 203.516L245.29 205.87L246.773 205.87L246.773 212.698Z" fill="#2F2E41"/>
<path d="M220.951 207.59H215.683L213.176 187.267H220.952L220.951 207.59Z" fill="#FFB6B6"/>
<path d="M222.295 212.698L205.306 212.698V212.483C205.307 210.729 206.003 209.047 207.243 207.807C208.483 206.567 210.165 205.87 211.919 205.87L215.023 203.516L220.812 205.87L222.295 205.87L222.295 212.698Z" fill="#2F2E41"/>
<path d="M218.671 96.4805L252.941 97.3373C259.45 100.873 259.549 108.524 257.416 117.609C257.416 117.609 258.136 123.009 256.696 124.449C255.256 125.889 254.536 125.889 255.256 128.409C255.976 130.929 252.172 135.045 252.634 135.507C253.096 135.969 254.176 138.489 254.176 138.489L250.577 159.008C250.577 159.008 248.057 194.646 247.337 195.366C246.617 196.086 245.897 195.366 246.617 197.166C247.337 198.966 248.057 198.246 247.337 198.966C246.699 199.654 246.098 200.375 245.537 201.126H236.834C236.834 201.126 236.178 197.526 236.178 197.166C236.178 196.806 235.458 194.646 235.458 194.286C235.458 193.926 236.094 193.29 236.094 193.29C236.314 192.558 236.463 191.807 236.538 191.046C236.538 190.327 238.698 162.608 238.698 162.608L234.378 126.609L223.939 161.888C223.939 161.888 223.939 192.846 223.219 193.566C222.499 194.286 222.499 193.926 222.859 195.366C223.219 196.806 224.659 196.446 223.579 197.526C222.499 198.606 222.139 196.806 222.499 198.606L222.859 200.406L212.06 200.561C212.06 200.561 210.62 197.526 211.34 196.446C212.06 195.366 212.017 195.661 211.139 193.894C210.26 192.126 209.9 191.766 210.26 191.406C210.62 191.046 210.62 189.132 210.62 189.132L212.42 154.688C212.42 154.688 212.78 118.329 212.78 117.249C212.807 116.694 212.705 116.139 212.481 115.63V114.164L213.86 108.97L218.671 96.4805Z" fill="#2F2E41"/>
<path d="M239.258 25.2171C245.138 25.2171 249.906 20.4495 249.906 14.5685C249.906 8.68745 245.138 3.91992 239.258 3.91992C233.377 3.91992 228.61 8.68745 228.61 14.5685C228.61 20.4495 233.377 25.2171 239.258 25.2171Z" fill="#FFB6B6"/>
<path d="M233.933 32.2546C231.639 33.6185 230.267 36.1244 229.479 38.6743C228.021 43.3953 227.143 48.2763 226.865 53.2096L226.033 67.9789L215.729 99.4269C224.659 106.984 258.228 101.144 258.228 101.144C258.228 101.144 259.259 100.801 258.228 99.7704C257.198 98.7399 256.194 99.6529 257.225 98.6223C258.255 97.5918 257.545 98.7399 257.202 97.7094C256.858 96.6788 257.202 97.3659 257.545 97.0223C257.889 96.6788 254.886 93.5873 254.886 93.5873L257.634 75.5359L261.069 39.1246C256.947 33.9721 248.657 30.9347 248.657 30.9347L246.515 27.0791L235.806 27.9359L233.933 32.2546Z" fill="#3F3D56"/>
<path d="M232.473 8.31881C232.885 8.32203 233.295 8.37584 233.694 8.47903C234.48 8.66809 235.279 8.80201 236.084 8.87983C238.549 9.11175 240.865 10.1631 242.663 11.8659C244.46 13.5687 245.635 15.8247 246 18.2737C246.619 17.7342 248.027 16.7419 249.181 17.6642C249.198 17.6788 249.209 17.6863 249.249 17.6671C250.016 17.3035 251.376 12.8283 251.417 8.88798C251.439 6.79659 251.11 4.12598 249.418 3.28027L249.329 3.23571L249.306 3.13885C249.193 2.66841 247.93 1.86536 245.736 1.24033C241.749 0.10448 235.922 -0.0597285 232.575 3.19659C232.322 4.29437 231.38 4.59518 230.548 4.86146C229.626 5.15621 228.83 5.41056 228.704 6.54139C228.599 8.15065 228.607 9.76527 228.727 11.3735C229.039 10.3894 229.652 9.52807 230.48 8.91079C231.068 8.51463 231.764 8.30806 232.473 8.31881Z" fill="#2F2E41"/>
<path d="M212.654 67.1572L230.048 56.0173L221.287 44.3711L212.637 55.0126L185.683 56.6658C184.975 55.965 184.077 55.4856 183.1 55.2861C182.124 55.0865 181.11 55.1755 180.183 55.5421C179.256 55.9088 178.456 56.5372 177.88 57.3508C177.304 58.1644 176.977 59.128 176.939 60.1242C176.901 61.1203 177.154 62.106 177.667 62.9609C178.179 63.8159 178.93 64.5032 179.826 64.9391C180.723 65.375 181.727 65.5406 182.716 65.4157C183.705 65.2909 184.636 64.8809 185.396 64.2359L212.654 67.1572Z" fill="#FFB6B6"/>
<path d="M246.191 40.468C247.201 46.5777 228.137 58.2447 228.137 58.2447C228.137 56.8106 216.758 67.6368 216.245 66.4474C214.785 63.0672 213.759 55.061 211.719 53.7795C210.553 53.0467 218.744 46.1622 218.744 46.1622C218.744 46.1622 223.032 41.8423 228.659 36.3933C230.221 34.8233 232.155 33.6741 234.281 33.0527C236.407 32.4313 238.656 32.3578 240.817 32.8392C240.817 32.8392 245.182 34.3583 246.191 40.468Z" fill="#3F3D56"/>
<path d="M226.81 110.618C226.817 117.156 225.723 123.649 223.571 129.823C223.473 130.11 223.37 130.393 223.267 130.68C218.864 142.64 210.673 152.834 199.942 159.709C199.209 160.18 198.468 160.63 197.714 161.067C189.141 166.037 179.436 168.725 169.527 168.872C169.201 168.877 168.876 168.881 168.55 168.881C168.13 168.881 167.715 168.877 167.299 168.868C157.377 168.671 147.672 165.93 139.112 160.908C138.358 160.467 137.616 160.009 136.884 159.533C124.971 151.81 116.284 140.005 112.453 126.332C108.622 112.66 109.911 98.0594 116.078 85.2696C116.215 84.9826 116.356 84.6998 116.502 84.4128C121.359 74.7739 128.797 66.6729 137.986 61.0127C147.176 55.3525 157.757 52.3555 168.55 52.3555C179.343 52.3555 189.924 55.3525 199.114 61.0127C208.304 66.6729 215.742 74.7739 220.598 84.4128C220.744 84.6998 220.885 84.9826 221.023 85.2696C224.845 93.1724 226.823 101.84 226.81 110.618Z" fill="#C8B6D2"/>
<path d="M208.784 129.822V130.679H214.002V129.822H208.784ZM198.349 129.822V130.679H203.566V129.822H198.349ZM187.913 129.822V130.679H193.131V129.822H187.913ZM177.478 129.822V130.679H182.696V129.822H177.478ZM167.042 129.822V130.679H172.26V129.822H167.042ZM156.607 129.822V130.679H161.825V129.822H156.607ZM146.172 129.822V130.679H151.39V129.822H146.172ZM135.741 129.822V130.679H140.954V129.822H135.741ZM125.305 129.822V130.679H130.523V129.822H125.305ZM114.87 129.822V130.679H120.088V129.822H114.87ZM223.572 129.822H219.219V130.679H223.267L223.572 129.822Z" fill="#E6E6E6"/>
<path d="M219.219 123.825V124.682H224.437V123.825H219.219ZM208.784 123.825V124.682H214.002V123.825H208.784ZM198.349 123.825V124.682H203.566V123.825H198.349ZM187.913 123.825V124.682H193.131V123.825H187.913ZM177.478 123.825V124.682H182.695V123.825H177.478ZM167.043 123.825V124.682H172.26V123.825H167.043ZM156.607 123.825V124.682H161.825V123.825H156.607ZM146.172 123.825V124.682H151.39V123.825H146.172ZM135.741 123.825V124.682H140.954V123.825H135.741ZM125.305 123.825V124.682H130.523V123.825H125.305ZM114.87 123.825V124.682H120.088V123.825H114.87Z" fill="#E6E6E6"/>
<path d="M219.219 111.401V112.258H224.437V111.401H219.219ZM208.784 111.401V112.258H214.002V111.401H208.784ZM198.349 111.401V112.258H203.566V111.401H198.349ZM187.913 111.401V112.258H193.131V111.401H187.913ZM177.478 111.401V112.258H182.695V111.401H177.478ZM167.043 111.401V112.258H172.26V111.401H167.043ZM156.607 111.401V112.258H161.825V111.401H156.607ZM146.172 111.401V112.258H151.39V111.401H146.172ZM135.741 111.401V112.258H140.954V111.401H135.741ZM125.305 111.401V112.258H130.523V111.401H125.305ZM114.87 111.401V112.258H120.088V111.401H114.87Z" fill="#E6E6E6"/>
<path d="M219.219 102.834V103.691H224.437V102.834H219.219ZM208.784 102.834V103.691H214.002V102.834H208.784ZM198.349 102.834V103.691H203.566V102.834H198.349ZM187.913 102.834V103.691H193.131V102.834H187.913ZM177.478 102.834V103.691H182.695V102.834H177.478ZM167.043 102.834V103.691H172.26V102.834H167.043ZM156.607 102.834V103.691H161.825V102.834H156.607ZM146.172 102.834V103.691H151.39V102.834H146.172ZM135.741 102.834V103.691H140.954V102.834H135.741ZM125.305 102.834V103.691H130.523V102.834H125.305ZM114.87 102.834V103.691H120.088V102.834H114.87Z" fill="#E6E6E6"/>
<path d="M220.599 84.4121H219.219V85.2689H221.023C220.886 84.9819 220.744 84.6992 220.599 84.4121ZM208.784 84.4121V85.2689H214.002V84.4121H208.784ZM198.348 84.4121V85.2689H203.566V84.4121H198.348ZM187.913 84.4121V85.2689H193.131V84.4121H187.913ZM177.478 84.4121V85.2689H182.695V84.4121H177.478ZM167.042 84.4121V85.2689H172.26V84.4121H167.042ZM156.607 84.4121V85.2689H161.825V84.4121H156.607ZM146.172 84.4121V85.2689H151.389V84.4121H146.172ZM135.741 84.4121V85.2689H140.954V84.4121H135.741ZM125.305 84.4121V85.2689H130.523V84.4121H125.305ZM116.502 84.4121C116.357 84.6991 116.215 84.9819 116.078 85.2689H120.088V84.4121H116.502Z" fill="#E6E6E6"/>
<path d="M199.942 87.2998V159.708C199.21 160.18 198.469 160.629 197.715 161.066V87.2998H199.942Z" fill="#3F3D56"/>
<path d="M169.527 111.29V168.872C169.202 168.876 168.876 168.88 168.55 168.88C168.131 168.88 167.715 168.876 167.3 168.867V111.29H169.527Z" fill="#3F3D56"/>
<path d="M139.112 87.2998V160.908C138.358 160.467 137.616 160.008 136.885 159.533V87.2998H139.112Z" fill="#3F3D56"/>
<path d="M29.9597 185.854L29.11 174.035C23.5439 171.252 17.3827 169.87 11.1614 170.01C19.9139 176.775 19.2128 190.298 25.2744 199.552C27.1871 202.424 29.7215 204.829 32.6897 206.588C35.658 208.347 38.9841 209.416 42.4215 209.714L49.7057 213.905C50.5389 208.398 50.1683 202.775 48.6194 197.424C47.0705 192.074 44.3801 187.123 40.7336 182.912C38.6645 180.57 36.3087 178.498 33.7219 176.745C32.1297 181.317 29.9597 185.854 29.9597 185.854Z" fill="#C8B6D2"/>
<path d="M198.537 93.0537C203.032 93.0537 206.676 89.4095 206.676 84.9141C206.676 80.4187 203.032 76.7744 198.537 76.7744C194.042 76.7744 190.398 80.4187 190.398 84.9141C190.398 89.4095 194.042 93.0537 198.537 93.0537Z" fill="#501F6B"/>
<path d="M202.715 81.5208C202.593 81.404 202.43 81.3389 202.261 81.3389C202.092 81.3389 201.929 81.404 201.807 81.5208C200.079 82.8983 198.528 84.4828 197.188 86.2388C196.859 85.602 196.53 84.9652 196.201 84.3284C195.821 83.5934 194.711 84.2427 195.091 84.9771C195.572 85.9085 196.054 86.8399 196.535 87.7713C196.593 87.8664 196.674 87.9449 196.772 87.9994C196.869 88.054 196.978 88.0826 197.09 88.0826C197.201 88.0826 197.311 88.054 197.408 87.9994C197.505 87.9449 197.587 87.8664 197.645 87.7713C199.073 85.7593 200.78 83.9608 202.715 82.4296C202.835 82.3086 202.902 82.1454 202.902 81.9752C202.902 81.8051 202.835 81.6419 202.715 81.5208Z" fill="white"/>
<path d="M168.55 117.044C173.046 117.044 176.69 113.4 176.69 108.904C176.69 104.409 173.046 100.765 168.55 100.765C164.055 100.765 160.411 104.409 160.411 108.904C160.411 113.4 164.055 117.044 168.55 117.044Z" fill="#501F6B"/>
<path d="M172.729 105.512C172.606 105.395 172.444 105.33 172.274 105.33C172.105 105.33 171.942 105.395 171.82 105.512C170.093 106.89 168.542 108.474 167.201 110.23C166.872 109.593 166.543 108.956 166.214 108.32C165.834 107.585 164.725 108.234 165.104 108.968C165.586 109.9 166.067 110.831 166.548 111.762C166.606 111.858 166.688 111.936 166.785 111.991C166.882 112.045 166.992 112.074 167.103 112.074C167.215 112.074 167.324 112.045 167.421 111.991C167.518 111.936 167.6 111.858 167.658 111.762C169.086 109.751 170.794 107.952 172.729 106.421C172.848 106.3 172.915 106.137 172.915 105.966C172.915 105.796 172.848 105.633 172.729 105.512Z" fill="white"/>
<path d="M138.136 94.7666C142.631 94.7666 146.275 91.1224 146.275 86.627C146.275 82.1315 142.631 78.4873 138.136 78.4873C133.64 78.4873 129.996 82.1315 129.996 86.627C129.996 91.1224 133.64 94.7666 138.136 94.7666Z" fill="#501F6B"/>
<path d="M142.314 83.2347C142.191 83.1179 142.028 83.0527 141.859 83.0527C141.69 83.0527 141.527 83.1179 141.405 83.2347C139.678 84.6122 138.127 86.1967 136.786 87.9526C136.457 87.3159 136.128 86.6791 135.799 86.0423C135.419 85.3073 134.31 85.9566 134.689 86.691C135.171 87.6224 135.652 88.5538 136.133 89.4851C136.191 89.5802 136.273 89.6588 136.37 89.7133C136.467 89.7678 136.577 89.7965 136.688 89.7965C136.8 89.7965 136.909 89.7678 137.006 89.7133C137.103 89.6588 137.185 89.5802 137.243 89.4851C138.671 87.4732 140.379 85.6746 142.314 84.1435C142.433 84.0225 142.5 83.8592 142.5 83.6891C142.5 83.519 142.433 83.3557 142.314 83.2347Z" fill="white"/>
<path d="M254.859 80.8391L260.217 60.8903L245.899 58.1797L246.669 71.8723L227.855 91.245C226.859 91.2043 225.873 91.4543 225.017 91.9645C224.16 92.4746 223.471 93.223 223.032 94.1182C222.594 95.0135 222.425 96.017 222.547 97.0064C222.669 97.9958 223.077 98.9283 223.719 99.6903C224.362 100.452 225.213 101.011 226.167 101.297C227.122 101.584 228.14 101.587 229.096 101.306C230.052 101.024 230.906 100.471 231.553 99.7124C232.2 98.9542 232.612 98.024 232.74 97.0353L254.859 80.8391Z" fill="#FFB6B6"/>
<path d="M261.683 38.5228C266.543 42.36 260.305 63.8231 260.305 63.8231C259.339 62.7631 258.217 78.4291 257.036 77.8957C253.681 76.3797 247.531 71.1518 245.16 71.5779C243.805 71.8216 245.225 61.2156 245.225 61.2156C245.225 61.2156 245.486 55.1344 245.977 47.3167C246.075 45.104 246.731 42.9519 247.885 41.061C249.038 39.17 250.651 37.6016 252.573 36.5017C252.573 36.5017 256.822 34.6857 261.683 38.5228Z" fill="#3F3D56"/>
<path d="M93.8122 83.3103L99.7028 109.6L61.9548 107.252L72.2197 81.4326L93.8122 83.3103Z" fill="#A0616A"/>
<path d="M87.5262 204.646L91.7664 204.646L93.7836 188.29H87.5254L87.5262 204.646Z" fill="#A0616A"/>
<path d="M86.0903 202.554L92.7933 202.154V205.026L99.166 209.428C99.4808 209.645 99.7178 209.957 99.8426 210.319C99.9673 210.681 99.9732 211.073 99.8594 211.438C99.7455 211.803 99.518 212.122 99.2098 212.349C98.9017 212.576 98.5292 212.698 98.1467 212.698H90.1665L88.791 209.857L88.2539 212.698H85.2451L86.0903 202.554Z" fill="#2F2E41"/>
<path d="M47.4497 202.536L51.5939 203.435L57.0326 187.879L50.9166 186.552L47.4497 202.536Z" fill="#A0616A"/>
<path d="M46.49 200.188L53.1255 201.218L52.5166 204.024L57.8114 209.677C58.0729 209.956 58.2384 210.311 58.2837 210.691C58.3289 211.071 58.2515 211.456 58.0629 211.788C57.8742 212.121 57.5841 212.385 57.2349 212.541C56.8857 212.697 56.4958 212.738 56.122 212.657L48.3232 210.965L47.5812 207.897L46.4541 210.559L43.5137 209.921L46.49 200.188Z" fill="#2F2E41"/>
<path d="M100.666 131.584C97.6906 147.939 96.9467 155.001 96.9467 155.001C96.9467 155.001 99.1786 157.603 97.6906 159.091C96.2027 160.579 97.6906 163.551 97.6906 163.551L94.3449 199.608L91.6516 199.172L85.1638 198.129L82.8238 197.75L84.3117 163.925C84.3117 163.925 82.8238 160.949 83.5678 160.205C84.3118 159.461 82.8238 155.001 82.8238 155.001L80.966 119.688L69.4408 158.347C69.4408 158.347 70.5588 159.835 69.4408 160.949C68.3269 162.063 66.0992 167.641 66.0992 167.641L59.2456 191.624L58.6637 193.66L55.0893 192.991L51.1991 192.26L50.4842 192.127L49.2124 191.886L48.3937 191.732L48.1152 191.682L46.7686 191.428L47.1759 189.62L47.3878 188.668L53.1858 162.915L53.3188 162.321L53.4601 161.693C53.4601 161.693 52.7161 159.835 53.83 158.717C54.1559 158.376 54.3939 157.961 54.5235 157.508C54.6531 157.055 54.6704 156.577 54.574 156.115C54.5375 156.076 54.5042 156.035 54.4742 155.991C54.3427 155.81 54.2519 155.603 54.2082 155.384C54.1085 154.918 54.1957 154.266 54.948 153.513C55.1599 153.288 55.3377 153.033 55.4759 152.757C56.6064 150.616 57.1758 146.082 57.1758 146.082C57.1758 146.082 58.1816 110.166 61.4733 104.679C61.6479 104.392 65.1423 98.8866 65.3252 98.7743C69.0409 96.5465 97.9893 99.6237 97.9893 99.6237C97.9893 99.6237 99.7427 104.334 99.8216 104.825C100.25 107.58 103.189 117.71 100.666 131.584Z" fill="#2F2E41"/>
<path d="M91.8703 45.0725C91.8703 45.0725 92.4967 41.8208 86.4777 35.8015C83.2912 34.7393 77.7701 35.3584 75.856 35.8015C67.0045 47.486 68.5894 45.4244 66.2853 51.9529C65.6878 53.6458 65.3891 55.2724 65.6546 56.6002C66.7168 61.9113 68.4412 89.1747 68.0872 90.591C67.7331 92.0073 65.2547 93.7777 67.7331 93.7777C70.2115 93.7777 102.173 93.2182 101.465 92.156C100.756 91.0938 91.8703 45.0725 91.8703 45.0725Z" fill="#501F6B"/>
<path d="M129.829 88.2742C129.344 88.4622 128.823 88.5414 128.304 88.5063C127.784 88.4713 127.279 88.3228 126.823 88.0713C126.368 87.8198 125.973 87.4715 125.666 87.0508C125.36 86.6301 125.149 86.1473 125.049 85.6365L112.523 83.8571L116.878 78.9316L128.106 81.3765C128.975 81.2657 129.855 81.4777 130.578 81.9723C131.302 82.4669 131.819 83.2096 132.031 84.0599C132.244 84.9101 132.137 85.8087 131.731 86.5855C131.325 87.3622 130.648 87.9631 129.829 88.2742Z" fill="#A0616A"/>
<path d="M76.8328 42.9792C77.8428 42.3049 78.99 41.9883 79.9134 41.0879C83.2851 43.516 83.5332 39.5626 86.5889 45.5099C89.6446 51.4573 100.544 65.7965 105.138 70.108C109.733 74.4196 118.146 76.6002 120.586 78.1172C122.011 78.9728 123.505 79.7071 125.053 80.3125C124.075 82.2178 123.533 84.3057 122.31 86.1266C115.401 85.28 106.342 82.5152 101.248 81.1636C96.1537 79.812 98.0913 80.8192 95.9962 79.2344C93.9011 77.6496 95.6331 78.3799 93.1946 77.7366C90.7562 77.0934 88.8969 73.8637 88.1619 71.3685C86.4112 69.5794 84.9107 67.6462 83.1784 65.8755C81.1768 58.2186 78.9502 50.5976 76.8328 42.9792Z" fill="#501F6B"/>
<path d="M84.7423 31.2694C90.4045 31.2694 94.9946 26.679 94.9946 21.0165C94.9946 15.354 90.4045 10.7637 84.7423 10.7637C79.0801 10.7637 74.49 15.354 74.49 21.0165C74.49 26.679 79.0801 31.2694 84.7423 31.2694Z" fill="#A0616A"/>
<path d="M91.592 39.7583C91.106 39.0643 87.4728 32.1827 86.3928 29.5803C86.2817 30.1439 86.2116 30.7147 86.183 31.2884L86.1723 31.5022L85.96 31.5297C85.6408 31.5704 78.1004 32.4857 74.1761 28.0358C71.8512 25.3999 71.3239 21.4462 72.6069 16.2822C72.3735 16.2364 72.1499 16.1503 71.9461 16.0277C71.6068 15.7928 71.3228 15.4868 71.1139 15.1308C70.905 14.7749 70.7763 14.3777 70.7367 13.9669L70.5194 14.0251C63.538 10.6278 69.5526 0.689318 75.9294 5.63051C76.4887 5.50553 77.0718 5.53904 77.6131 5.72727C78.1352 5.93969 78.5901 6.28941 78.9295 6.73937C79.269 7.18933 79.4804 7.72276 79.5413 8.28312C82.8361 6.55003 87.1965 6.83205 89.4518 8.13236C90.396 8.67689 90.9382 9.36267 91.0345 10.1277C93.6982 10.2765 96.5632 12.8713 96.5632 16.5477V16.8038H96.3072C95.2355 16.8266 94.1903 17.1404 93.2833 17.7118C92.3764 18.2831 91.6419 19.0904 91.1585 20.0471C90.5034 21.2307 90.1792 22.5688 90.22 23.921C90.2607 25.2731 90.6649 26.5893 91.39 27.7312C92.1792 28.9425 92.7181 30.2994 92.9748 31.7222C93.2316 33.1449 93.201 34.6046 92.885 36.0154L91.923 40.2308L91.592 39.7583Z" fill="#2F2E41"/>
<path d="M121.34 212.782C121.34 212.849 121.327 212.916 121.302 212.978C121.276 213.04 121.239 213.096 121.191 213.143C121.144 213.191 121.088 213.228 121.026 213.254C120.964 213.279 120.897 213.292 120.83 213.292H0.759773C0.624573 213.292 0.494909 213.238 0.399308 213.143C0.303707 213.047 0.25 212.917 0.25 212.782C0.25 212.647 0.303707 212.517 0.399308 212.422C0.494909 212.326 0.624573 212.272 0.759773 212.272H120.83C120.897 212.272 120.964 212.285 121.026 212.311C121.088 212.336 121.144 212.374 121.191 212.421C121.239 212.469 121.276 212.525 121.302 212.587C121.327 212.649 121.34 212.715 121.34 212.782Z" fill="#CCCCCC"/>
<path d="M284.981 212.782C284.981 212.849 284.968 212.916 284.943 212.978C284.917 213.04 284.88 213.096 284.832 213.143C284.785 213.191 284.729 213.228 284.667 213.254C284.605 213.279 284.538 213.292 284.471 213.292H164.401C164.266 213.292 164.136 213.238 164.04 213.143C163.945 213.047 163.891 212.917 163.891 212.782C163.891 212.647 163.945 212.517 164.04 212.422C164.136 212.326 164.266 212.272 164.401 212.272H284.472C284.539 212.272 284.605 212.285 284.667 212.311C284.729 212.336 284.785 212.374 284.832 212.421C284.88 212.469 284.917 212.525 284.943 212.587C284.968 212.649 284.981 212.715 284.981 212.782Z" fill="#CCCCCC"/>
<path d="M137.882 176.042C140.388 176.042 142.419 174.011 142.419 171.505C142.419 168.999 140.388 166.968 137.882 166.968C135.377 166.968 133.346 168.999 133.346 171.505C133.346 174.011 135.377 176.042 137.882 176.042Z" fill="#E6E6E6"/>
<path d="M168.298 180.755C170.803 180.755 172.834 178.723 172.834 176.218C172.834 173.712 170.803 171.681 168.298 171.681C165.792 171.681 163.761 173.712 163.761 176.218C163.761 178.723 165.792 180.755 168.298 180.755Z" fill="#E6E6E6"/>
<path d="M198.712 175.185C201.218 175.185 203.249 173.154 203.249 170.648C203.249 168.143 201.218 166.111 198.712 166.111C196.207 166.111 194.176 168.143 194.176 170.648C194.176 173.154 196.207 175.185 198.712 175.185Z" fill="#E6E6E6"/>
</svg>
