<svg width="366" height="270" viewBox="0 0 366 270" fill="none" xmlns="http://www.w3.org/2000/svg">
<g clip-path="url(#clip0_137_1380)">
<path d="M43.0204 257.482C42.7061 257.497 42.395 257.414 42.1292 257.246C41.8634 257.078 41.6557 256.832 41.5343 256.542C41.413 256.251 41.3838 255.931 41.4507 255.623C41.5176 255.316 41.6774 255.036 41.9084 254.823C41.9471 254.669 41.9748 254.559 42.0135 254.405C41.7127 253.641 41.1907 252.984 40.5142 252.519C39.8377 252.053 39.0376 251.8 38.2165 251.793C37.3954 251.785 36.5907 252.023 35.9056 252.475C35.2204 252.928 34.6861 253.575 34.3709 254.333C32.5524 258.589 30.1988 262.996 31.3693 267.684C23.6379 251.298 26.2672 230.916 37.6931 216.903C40.8514 215.163 43.4112 212.072 44.0777 208.483C42.5146 209.013 40.5658 207.742 41.741 206.095C42.2504 205.466 42.7648 204.842 43.2741 204.212C37.3366 197.889 30.2622 207.827 36.7977 216.362C34.6597 219.042 32.8078 221.939 31.2722 225.004C31.6268 221.749 31.2036 218.456 30.0373 215.397C28.8553 212.545 26.6397 210.144 24.6887 207.678C22.3165 204.675 17.4342 206.06 17.115 209.872C19.3042 210.592 19.5886 213.754 17.0844 214.187C17.7403 221.278 22.3729 227.794 28.7534 230.904C26.3971 237.515 25.4771 244.553 26.0545 251.548C24.9282 243.373 16.1532 241.389 10.0198 238.14C9.62947 237.89 9.17468 237.758 8.71095 237.762C8.24722 237.766 7.7946 237.904 7.4083 238.161C7.02199 238.418 6.7187 238.781 6.53543 239.207C6.35216 239.633 6.29683 240.103 6.37618 240.56C7.22272 240.904 8.03296 241.332 8.79499 241.836C9.15205 242.076 9.42613 242.421 9.57965 242.823C9.73317 243.225 9.75862 243.664 9.6525 244.081C9.54639 244.498 9.3139 244.872 8.98692 245.152C8.65994 245.431 8.25446 245.603 7.82607 245.643C10.9177 253.295 18.9107 258.433 27.1201 258.404C27.909 261.832 29.052 265.169 30.5308 268.361H42.7151C42.7588 268.226 42.7981 268.086 42.8374 267.951C41.7096 268.022 40.5774 267.954 39.466 267.75C42.4498 264.217 44.7574 262.415 43.0208 257.483L43.0204 257.482Z" fill="#F2F2F2"/>
<path d="M107.608 258.877H112.632L115.022 239.499L107.607 239.499L107.608 258.877Z" fill="#FFB6B6"/>
<path d="M114.304 259.329V255.923L112.983 256.004L107.607 256.322L106.363 256.398L105.411 267.805L105.36 268.416H108.928L109.042 267.809L109.56 265.049L110.898 267.809L111.191 268.416H120.648C121.211 268.413 121.75 268.187 122.147 267.789C122.545 267.391 122.769 266.852 122.772 266.289C123.171 264.425 115.306 260.395 114.304 259.329Z" fill="#2F2E41"/>
<path d="M48.7521 253.409L53.1214 255.888L64.7631 240.214L58.3138 236.555L48.7521 253.409Z" fill="#FFB6B6"/>
<path d="M54.3543 257.104L56.0317 254.144L54.8512 253.563L50.0143 251.189L48.8932 250.637L43.3853 258.701L42.0901 260.595L43.5552 261.427L45.1901 262.357L47.4069 259.741L47.1606 263.474L54.8852 267.861H54.8894L55.3863 268.141C55.8769 268.418 56.4574 268.49 57.0004 268.339C57.5434 268.189 58.0045 267.829 58.2825 267.339C59.548 265.912 54.6983 258.531 54.3543 257.104Z" fill="#2F2E41"/>
<path d="M126.178 98.1665C125.537 98.2646 124.924 98.5008 124.383 98.8588C123.842 99.2168 123.385 99.6881 123.044 100.24C122.703 100.792 122.486 101.411 122.408 102.055C122.33 102.7 122.393 103.353 122.592 103.97L114.904 110.624L117.809 116.282L128.533 106.733C129.547 106.32 130.375 105.55 130.859 104.568C131.344 103.586 131.451 102.46 131.161 101.404C130.87 100.348 130.203 99.4352 129.284 98.8385C128.366 98.2418 127.261 98.0027 126.178 98.1665Z" fill="#FFB6B6"/>
<path d="M118.083 116.035L115.196 110.374L114.898 109.792C111.807 110.88 105.734 114.43 102.965 116.243C101.95 114.829 96.3067 108.676 91.4273 106.314C91.4273 106.31 91.4231 106.314 91.4231 106.314C91.0876 106.153 90.7564 106.009 90.4294 105.881C89.6736 105.578 88.8698 105.411 88.0555 105.389C87.6946 105.387 87.3354 105.438 86.9896 105.542C86.6261 105.648 86.286 105.822 85.9874 106.055C85.1933 106.667 84.5903 107.733 84.2505 109.381C84.2112 110.162 84.3133 110.945 84.552 111.691C85.911 116.196 91.2787 121.229 93.1769 124.473C93.3638 124.974 95.2281 129.909 98.171 131.658C98.3259 131.752 98.4861 131.837 98.6508 131.913C98.8334 131.939 99.016 131.96 99.2071 131.968H99.2114C99.5096 131.99 99.8088 131.994 100.107 131.981C100.26 131.977 100.417 131.964 100.575 131.951C100.609 131.947 100.638 131.947 100.672 131.943C101.653 131.834 102.619 131.624 103.556 131.314C103.662 131.28 103.768 131.246 103.874 131.208C104.679 130.934 105.469 130.616 106.24 130.257C106.685 130.053 107.127 129.832 107.569 129.603C108.104 129.323 108.639 129.025 109.161 128.715C109.611 128.456 110.053 128.185 110.486 127.904V127.9C110.588 127.841 110.69 127.773 110.792 127.7H110.796C114.669 125.182 117.829 122.256 118.436 121.046C118.889 120.371 119.257 119.642 119.531 118.876L118.083 116.035Z" fill="#2F2E41"/>
<path d="M100.507 135.949C100.507 135.949 111.154 147.928 108.478 150.604C105.802 153.281 101.637 153.983 101.637 153.983L96.5458 153.591L100.507 135.949Z" fill="#2F2E41"/>
<path d="M87.4468 103.813C101.178 111.848 105.796 119.523 99.4453 134.967L87.4468 103.813Z" fill="#2F2E41"/>
<path d="M75.1364 168.042C74.0224 167.523 71.2552 209.327 71.0296 210.377L55.162 239.949L77.7473 250.073L92.5975 198.51L95.0726 217.485L91.7725 247.598L106.371 251.128L116.469 250.407L109.456 164.681L96.1485 140.552L75.1364 168.042Z" fill="#2F2E41"/>
<path d="M86.2627 104.998C104.908 118.88 100.355 119.127 100.507 140.552L109.391 164.295C109.391 164.295 78.0711 176.425 74.8597 168.397C71.6483 160.368 86.2627 104.998 86.2627 104.998Z" fill="#501F6B"/>
<path d="M100.749 134.024C100.71 133.888 100.664 133.731 100.613 133.566V133.561C100.532 133.294 100.439 133.001 100.328 132.665C100.26 132.453 100.188 132.224 100.107 131.982C100.056 131.829 100.005 131.672 99.9503 131.506C98.4554 126.992 95.4403 118.575 91.7798 109.271V109.266C91.3381 108.15 90.888 107.021 90.4293 105.882C90.3869 105.78 90.3486 105.674 90.3062 105.572C90.1236 105.117 89.9367 104.659 89.7499 104.2L84.3864 98.8367L81.4945 96.9512L75.1245 102.833C75.1245 102.833 75.1288 102.935 75.1373 103.134C75.2264 104.948 75.6638 114.74 75.719 126.317C75.7318 129.234 75.7233 132.266 75.6723 135.311V135.392C75.6596 136.19 75.6723 136.81 75.7106 137.311C75.7289 137.667 75.7701 138.022 75.8337 138.373C76.0715 139.681 76.5089 139.986 76.7425 142.709C76.7425 142.709 71.7315 149.168 74.6404 154.697C74.8709 154.731 75.1039 154.745 75.3369 154.739C76.3645 154.756 78.7596 154.693 85.3461 154.688C86.4885 154.68 87.754 154.68 89.1596 154.684C98.3705 154.684 93.4062 149.355 98.3281 144.501C98.4342 144.394 98.5404 144.293 98.6551 144.191C99.0042 143.875 99.3729 143.581 99.7592 143.312L100.583 140.755L100.846 139.935L100.851 139.829L100.876 138.695L100.931 136.436L100.969 134.933C100.921 134.624 100.848 134.32 100.749 134.024Z" fill="#2F2E41"/>
<path opacity="0.2" d="M77.8232 117.18L76.3602 126.31L86.2629 130.394L77.8232 117.18Z" fill="black"/>
<path d="M92.449 77.0373C103.527 83.3411 94.4325 99.9738 83.148 94.051C72.0704 87.7474 81.1648 71.1148 92.449 77.0373Z" fill="#FFB6B6"/>
<path opacity="0.2" d="M71.5537 134.736C77.4279 141.659 87.4383 142.659 95.0408 138.013L71.5537 134.736Z" fill="black"/>
<path d="M98.3727 80.5334C97.5964 81.543 95.9747 81.0696 92.7989 81.79C92.8058 80.7135 92.6815 79.6403 92.4286 78.5939C92.1923 79.8894 91.6744 81.1173 90.9116 82.1908C88.154 82.4967 91.5345 90.8742 90.1225 97.0337C88.3033 84.0392 84.4769 87.4437 86.41 90.0211C87.6475 91.6711 86.8225 96.6212 83.1099 94.1462C76.9843 97.0574 68.2597 82.596 77.9293 75.8138C77.7565 72.1478 81.8356 71.5687 84.3474 72.6958C90.4433 68.1547 97.4079 73.9734 98.3727 80.5334Z" fill="#2F2E41"/>
<path d="M104.629 127.854C107.777 127.791 124.69 127.306 127.463 127.425C127.62 126.876 132.878 133.614 133.005 133.656C133.091 133.746 133.153 133.855 133.187 133.974C133.221 134.093 133.225 134.219 133.2 134.34C133.175 134.461 133.12 134.575 133.042 134.671C132.963 134.766 132.863 134.842 132.749 134.89C132.44 135.078 105.175 134.574 104.844 134.639C104.701 134.637 104.562 134.595 104.442 134.517C104.323 134.439 104.227 134.328 104.167 134.199L103.985 133.79C103.966 133.092 103.738 129.523 103.943 128.913C103.893 128.799 103.871 128.673 103.881 128.549C103.891 128.424 103.932 128.304 104 128.199C104.068 128.094 104.161 128.007 104.271 127.947C104.381 127.887 104.504 127.855 104.629 127.854Z" fill="#3F3D56"/>
<path opacity="0.17" d="M103.985 133.79C104.145 134.175 104.35 134.658 104.844 134.64L132.461 134.95C132.591 134.948 132.719 134.913 132.833 134.848C132.946 134.783 133.04 134.69 133.107 134.577C133.174 134.465 133.211 134.338 133.214 134.207C133.217 134.076 133.187 133.947 133.125 133.832L103.985 133.79Z" fill="black"/>
<path d="M127.334 127.343C127.631 126.829 135.015 90.2961 135.631 89.9906L140.672 83.824L141.122 83.4853C141.749 83.1411 143.252 83.3738 143.116 84.3307C141.932 90.0085 134.315 122.346 134.148 127.387L133.231 133.81C133.215 133.919 133.176 134.024 133.116 134.117C133.057 134.211 132.979 134.29 132.887 134.352C132.795 134.413 132.691 134.454 132.582 134.473C132.473 134.491 132.362 134.487 132.255 134.46C131.992 134.431 131.741 134.335 131.527 134.18C131.312 134.025 131.142 133.817 131.033 133.577C130.964 133.35 126.989 127.475 127.334 127.343Z" fill="#3F3D56"/>
<path opacity="0.17" d="M140.673 83.8247L131.032 133.578C131.354 134.395 132.863 134.966 133.214 133.896C133.22 133.894 143.105 84.3617 143.115 84.3321C143.221 83.14 141.251 83.1022 140.673 83.8247Z" fill="black"/>
<path d="M140.382 85.8594L135.486 92.6841L129.99 118.786L132.545 121.015L140.382 85.8594Z" fill="#501F6B"/>
<path d="M107.569 129.603C107.467 128.814 107.271 128.087 106.698 128.143C105.853 128.138 106.036 129.289 106.24 130.257C106.348 130.64 106.414 131.033 106.435 131.429L107.79 131.374C107.669 130.791 107.595 130.199 107.569 129.603Z" fill="#2F2E41"/>
<path d="M115.552 129.417C115.543 129.192 115.556 128.903 115.526 128.631C115.479 128.181 115.327 127.79 114.813 127.82C114.718 127.819 114.624 127.838 114.537 127.875C113.99 128.121 114.215 129.119 114.206 129.604L114.648 129.587L115.56 129.553C115.556 129.51 115.552 129.463 115.552 129.417Z" fill="#2F2E41"/>
<path d="M118.257 129.306C118.236 128.712 118.342 127.663 117.518 127.71C116.627 127.727 116.92 128.941 116.911 129.497L117.348 129.48L118.265 129.442C118.261 129.4 118.257 129.353 118.257 129.306Z" fill="#2F2E41"/>
<path d="M120.962 129.2C120.941 128.601 121.047 127.552 120.223 127.603C119.332 127.62 119.625 128.835 119.616 129.387L120.058 129.37L120.97 129.336C120.966 129.294 120.962 129.247 120.962 129.2Z" fill="#2F2E41"/>
<path d="M123.667 129.089C123.646 128.495 123.752 127.446 122.928 127.493C122.037 127.514 122.33 128.724 122.321 129.281L122.759 129.264L123.675 129.225C123.671 129.183 123.667 129.136 123.667 129.089Z" fill="#2F2E41"/>
<path d="M126.372 128.983C126.355 128.448 126.436 127.556 125.867 127.408H125.863C125.788 127.387 125.711 127.379 125.634 127.386C125.57 127.385 125.507 127.394 125.447 127.412H125.443C124.789 127.594 125.035 128.66 125.027 129.17L125.468 129.153L126.381 129.119C126.376 129.076 126.372 129.03 126.372 128.983Z" fill="#2F2E41"/>
<path d="M110.485 127.904V127.9C110.479 127.837 110.467 127.774 110.452 127.713C110.384 127.352 110.21 127.072 109.772 127.097C109.344 127.106 109.191 127.386 109.144 127.743C109.122 128.067 109.128 128.392 109.161 128.715C109.165 128.779 109.165 128.834 109.165 128.885L110.519 128.83C110.498 128.592 110.519 128.235 110.485 127.904Z" fill="#2F2E41"/>
<path d="M113.169 127.645C113.101 127.267 112.927 126.962 112.477 126.991C112.032 127 111.883 127.306 111.845 127.679C111.833 128.045 111.842 128.41 111.871 128.775L113.225 128.72C113.199 128.448 113.233 128.01 113.169 127.645Z" fill="#2F2E41"/>
<path d="M115.879 127.582C115.819 127.183 115.654 126.856 115.183 126.881C114.72 126.89 114.58 127.217 114.546 127.612C114.537 127.699 114.534 127.787 114.537 127.875C114.542 128.168 114.58 128.465 114.576 128.669L115.526 128.631L115.93 128.614C115.904 128.351 115.938 127.939 115.879 127.582Z" fill="#2F2E41"/>
<path d="M109.747 129.535C108.856 129.552 109.144 130.767 109.14 131.319L110.494 131.268C110.443 130.711 110.638 129.48 109.747 129.535Z" fill="#2F2E41"/>
<path d="M112.452 129.425C111.561 129.442 111.849 130.657 111.845 131.213L113.199 131.158C113.148 130.606 113.343 129.374 112.452 129.425Z" fill="#2F2E41"/>
<path d="M115.552 129.416C115.436 129.339 115.296 129.304 115.157 129.319C115.056 129.313 114.955 129.335 114.866 129.382C114.776 129.429 114.701 129.5 114.648 129.586C114.406 129.977 114.554 130.707 114.55 131.102L115.904 131.051C115.862 130.601 115.985 129.701 115.552 129.416Z" fill="#2F2E41"/>
<path d="M118.257 129.306C118.141 129.228 118.001 129.193 117.862 129.209C117.76 129.203 117.658 129.225 117.568 129.273C117.477 129.321 117.401 129.393 117.349 129.48C117.115 129.875 117.259 130.601 117.255 130.996L118.609 130.941C118.567 130.495 118.69 129.599 118.257 129.306Z" fill="#2F2E41"/>
<path d="M120.962 129.2C120.846 129.122 120.706 129.087 120.567 129.102C120.466 129.096 120.365 129.118 120.276 129.165C120.186 129.212 120.111 129.283 120.058 129.369C119.816 129.76 119.965 130.491 119.96 130.886L121.314 130.835C121.272 130.384 121.395 129.484 120.962 129.2Z" fill="#2F2E41"/>
<path d="M123.667 129.089C123.551 129.011 123.411 128.977 123.272 128.992C123.17 128.985 123.068 129.007 122.977 129.055C122.887 129.103 122.811 129.175 122.759 129.264C122.525 129.659 122.67 130.385 122.665 130.78L124.019 130.724C123.977 130.279 124.1 129.383 123.667 129.089Z" fill="#2F2E41"/>
<path d="M126.372 128.983C126.256 128.905 126.117 128.87 125.978 128.885C125.876 128.879 125.775 128.901 125.686 128.948C125.596 128.995 125.521 129.066 125.468 129.153C125.231 129.548 125.375 130.274 125.371 130.669L126.725 130.618C126.682 130.168 126.805 129.272 126.372 128.983Z" fill="#2F2E41"/>
<path d="M69.9489 71.0515C67.4826 86.2156 54.263 68.2627 48.0473 83.1856C46.093 88.5899 49.4461 92.4559 51.567 96.9416C52.0511 100.628 47.2553 102.498 46.753 105.892C46.6132 113.671 59.1643 113.195 62.6731 108.287C66.2783 103.149 61.9731 96.2553 64.1401 90.7403C67.1859 83.0833 79.5723 83.0265 80.6514 74.1183C78.5616 71.1423 72.9421 67.7339 69.9489 71.0515Z" fill="#2F2E41"/>
<path d="M186.711 268.526C186.385 269.491 0.351557 269.491 0 268.529C0.325427 267.561 186.359 267.561 186.711 268.526Z" fill="#CCCCCC"/>
<path d="M79.9402 72.5332C79.8595 72.5672 79.7788 72.6012 79.7066 72.6394H79.7024C79.6344 72.6734 79.5665 72.7074 79.4985 72.7456C79.49 72.7498 79.4858 72.7541 79.4773 72.7583C79.3881 72.6734 79.2989 72.5885 79.2055 72.5035C79.1814 72.6419 79.1872 72.7838 79.2225 72.9197L79.2353 72.9707C79.3202 73.0598 79.4094 73.1448 79.5028 73.2339C79.5877 73.1702 79.6684 73.1023 79.7533 73.0386C79.8043 72.9961 79.8553 72.9537 79.9105 72.9112C79.919 72.8008 79.9317 72.6734 79.9445 72.5332H79.9402ZM82.4967 67.811C80.6027 67.3778 79.9912 69.8536 79.8085 71.0469C79.1206 66.7154 76.2584 68.0785 77.2478 71.0342C77.5632 71.9093 78.0595 72.708 78.7044 73.3783C78.7936 73.4803 78.8913 73.5822 78.9932 73.6841C78.8785 74.2786 79.4561 74.1257 80.2374 73.5779C80.8144 73.1676 81.348 72.6994 81.8299 72.1808C83.3884 70.5458 84.603 68.3588 82.4967 67.811ZM82.5561 70.2486C81.9718 71.0021 81.3162 71.6975 80.5984 72.3252C80.3733 72.529 80.1441 72.7243 79.9105 72.9112C79.9062 72.9494 79.9062 72.9834 79.902 73.0131C79.8856 73.0544 79.8657 73.0942 79.8425 73.132C79.6047 73.5609 79.3372 73.3274 79.2353 72.9707C79.2268 72.9579 79.214 72.9452 79.2055 72.9324C78.8662 72.5819 78.5709 72.1911 78.3265 71.7689C76.5726 68.7283 79.3966 66.6602 79.2565 72.3379C79.2307 72.39 79.2134 72.4459 79.2055 72.5035C79.1814 72.6419 79.1872 72.7838 79.2225 72.9197L79.2353 72.9707C79.3202 73.0598 79.4094 73.1448 79.5028 73.2339C79.5877 73.1702 79.6684 73.1023 79.7533 73.0386C79.8043 72.9961 79.8553 72.9537 79.9105 72.9112C79.919 72.8008 79.9317 72.6734 79.9445 72.5332V72.529C80.0549 71.3909 80.3564 69.344 80.9127 68.7877C82.1357 67.8492 83.7197 68.8642 82.5561 70.2486ZM79.9402 72.5332C79.8595 72.5672 79.7788 72.6012 79.7066 72.6394H79.7024C79.6344 72.6734 79.5665 72.7074 79.4985 72.7456C79.49 72.7498 79.4858 72.7541 79.4773 72.7583C79.3881 72.6734 79.2989 72.5885 79.2055 72.5035C79.1814 72.6419 79.1872 72.7838 79.2225 72.9197L79.2353 72.9707C79.3202 73.0598 79.4094 73.1448 79.5028 73.2339C79.5877 73.1702 79.6684 73.1023 79.7533 73.0386C79.8043 72.9961 79.8553 72.9537 79.9105 72.9112C79.919 72.8008 79.9317 72.6734 79.9445 72.5332H79.9402Z" fill="#2F2E41"/>
<path d="M143.984 109.094C143.364 109.094 142.77 109.34 142.332 109.778C141.894 110.216 141.648 110.81 141.648 111.429V134.024H96.8461C96.2267 134.024 95.6326 134.27 95.1946 134.708C94.7566 135.146 94.5105 135.74 94.5105 136.36C94.5105 136.979 94.7566 137.573 95.1946 138.011C95.6326 138.449 96.2267 138.695 96.8461 138.695H141.648V268.642H146.319V111.429C146.319 110.81 146.073 110.216 145.635 109.778C145.197 109.34 144.603 109.094 143.984 109.094Z" fill="#E6E6E6"/>
<path d="M105.29 132.504C104.855 132.023 104.32 131.642 103.723 131.388C103.126 131.134 102.481 131.012 101.833 131.032C101.184 131.051 100.548 131.212 99.9674 131.501C99.3869 131.791 98.8763 132.203 98.4709 132.71L88.682 129.962L85.5612 135.503L99.4394 139.19C100.343 139.809 101.442 140.075 102.528 139.938C103.615 139.801 104.613 139.27 105.334 138.446C106.056 137.622 106.449 136.562 106.441 135.466C106.433 134.371 106.024 133.317 105.29 132.504Z" fill="#FFB6B6"/>
<path d="M83.4522 125.994C82.743 125.624 82.0338 125.263 81.3416 124.928C79.8383 124.185 78.4412 123.535 77.4135 123.093C77.9184 121.562 78.3185 119.999 78.611 118.413C79.8171 112.332 80.6367 102.854 75.1373 103.134C74.3414 103.191 73.5607 103.381 72.8271 103.695C68.5423 106.077 67.073 115.551 65.1535 119.462C64.818 119.917 61.4122 124.639 61.96 128.134C63.5143 131.531 68.4574 134.436 73.0904 136.326L73.0947 136.33C73.9865 136.695 74.8698 137.022 75.7106 137.311C76.6703 137.638 77.5834 137.91 78.403 138.122C80.0379 138.547 81.3162 138.738 81.9319 138.653C82.7458 138.659 83.5573 138.564 84.3482 138.372L85.3207 136.657L85.9195 135.595L89.0492 130.066L89.372 129.497C87.4875 128.185 85.5089 127.014 83.4522 125.994Z" fill="#2F2E41"/>
<path d="M296.34 155.589C286.632 159.551 275.659 162.57 263.309 164.43C255.283 165.617 247.19 166.304 239.078 166.485C231.978 166.664 224.501 166.504 216.647 166.005V10.5409C216.649 9.76223 216.959 9.01587 217.51 8.46568C218.061 7.9155 218.807 7.60647 219.586 7.60645L220.758 7.61069L225.459 7.62343H225.54L351.741 7.93768H352.314L356.875 7.95042C357.529 10.0567 358.138 12.2268 358.701 14.4605C370.065 59.5979 361.674 128.924 296.34 155.589Z" fill="#F2F2F2"/>
<path d="M244.797 73.0354C244.873 78.1789 236.793 78.179 236.869 73.0351C236.794 67.8919 244.873 67.8919 244.797 73.0354Z" fill="#501F6B"/>
<path d="M314.57 79.4553H238.05C237.738 79.4553 237.438 79.5794 237.217 79.8004C236.996 80.0214 236.872 80.3212 236.872 80.6337C236.872 80.9463 236.996 81.246 237.217 81.467C237.438 81.688 237.738 81.8121 238.05 81.8121H314.57C316.12 81.8376 316.082 79.4298 314.57 79.4553Z" fill="#CCCCCC"/>
<path d="M287.366 84.1173H238.05C237.737 84.1173 237.437 84.2417 237.216 84.4631C236.994 84.6845 236.87 84.9848 236.87 85.2979C236.87 85.611 236.994 85.9113 237.216 86.1327C237.437 86.3541 237.737 86.4784 238.05 86.4784H287.366C288.908 86.4997 288.883 84.0961 287.366 84.1173Z" fill="#CCCCCC"/>
<path d="M314.57 44.4201H238.05C237.737 44.4201 237.437 44.5444 237.216 44.7658C236.994 44.9872 236.87 45.2875 236.87 45.6006C236.87 45.9137 236.994 46.214 237.216 46.4354C237.437 46.6568 237.737 46.7812 238.05 46.7812H314.57C316.12 46.8024 316.082 44.3988 314.57 44.4201Z" fill="#CCCCCC"/>
<path d="M287.366 49.0871H238.05C237.737 49.0871 237.437 49.2114 237.216 49.4328C236.994 49.6542 236.87 49.9545 236.87 50.2676C236.87 50.5807 236.994 50.881 237.216 51.1024C237.437 51.3238 237.737 51.4482 238.05 51.4482H287.366C288.908 51.4694 288.883 49.0658 287.366 49.0871Z" fill="#CCCCCC"/>
<path d="M287.366 53.9747H238.05C237.737 53.9747 237.437 54.0991 237.216 54.3205C236.994 54.5419 236.87 54.8422 236.87 55.1553C236.87 55.4684 236.994 55.7687 237.216 55.9901C237.437 56.2115 237.737 56.3359 238.05 56.3359H287.366C288.908 56.3571 288.883 53.9535 287.366 53.9747Z" fill="#CCCCCC"/>
<path d="M244.797 103.585C244.873 108.729 236.793 108.729 236.869 103.585C236.794 98.4417 244.873 98.4417 244.797 103.585Z" fill="#501F6B"/>
<path d="M314.57 110.001H238.05C237.737 110.001 237.437 110.125 237.216 110.347C236.994 110.568 236.87 110.869 236.87 111.182C236.87 111.495 236.994 111.795 237.216 112.016C237.437 112.238 237.737 112.362 238.05 112.362H314.57C316.12 112.383 316.082 109.98 314.57 110.001Z" fill="#CCCCCC"/>
<path d="M287.366 114.668H238.05C237.737 114.668 237.437 114.793 237.216 115.014C236.994 115.235 236.87 115.536 236.87 115.849C236.87 116.162 236.994 116.462 237.216 116.683C237.437 116.905 237.737 117.029 238.05 117.029H287.366C288.908 117.05 288.883 114.647 287.366 114.668Z" fill="#CCCCCC"/>
<path d="M243.537 38.0349C243.612 43.14 235.593 43.1401 235.668 38.0346C235.593 32.9298 243.612 32.9298 243.537 38.0349Z" fill="#501F6B"/>
<path d="M353.752 8.50759C353.143 7.8967 220.211 9.68256 220.362 7.88977C219.708 7.2137 357.397 5.66734 353.752 8.50759Z" fill="#CACACA"/>
<path d="M213.903 14.4642C217.69 14.4642 220.76 11.3942 220.76 7.6071C220.76 3.82003 217.69 0.75 213.903 0.75C210.116 0.75 207.046 3.82003 207.046 7.6071C207.046 11.3942 210.116 14.4642 213.903 14.4642Z" fill="#CACACA"/>
<path d="M358.588 14.4642C362.375 14.4642 365.445 11.3942 365.445 7.6071C365.445 3.82003 362.375 0.75 358.588 0.75C354.801 0.75 351.731 3.82003 351.731 7.6071C351.731 11.3942 354.801 14.4642 358.588 14.4642Z" fill="#CACACA"/>
<path d="M296.34 155.588C286.632 159.55 275.659 162.569 263.309 164.429C255.283 165.616 247.19 166.303 239.078 166.484C231.774 166.399 224.297 166.24 216.647 166.005V160.586C226.946 151.944 271.068 150.564 296.34 155.588Z" fill="#CACACA"/>
</g>
<defs>
<clipPath id="clip0_137_1380">
<rect width="365.445" height="268.5" fill="white" transform="translate(0 0.75)"/>
</clipPath>
</defs>
</svg>
