<svg width="151" height="307" viewBox="0 0 151 307" fill="none" xmlns="http://www.w3.org/2000/svg">
<path d="M64.3882 269.769C58.0417 275.947 57.2632 285.444 57.2632 285.444C57.2632 285.444 66.7777 284.924 73.1234 278.746C79.4692 272.569 80.2484 263.071 80.2484 263.071C80.2484 263.071 70.7309 263.591 64.3882 269.769Z" fill="#3F3D56"/>
<path d="M30.1985 306.75L29.2251 306.183C29.3754 306.099 67.8991 276.948 73.6848 261.369C79.0285 246.982 77.2139 225.398 38.2234 194.247C8.32456 170.355 -3.77749 149.483 2.25776 132.207C7.56162 117.031 130.307 116.315 130.489 116.25L131.25 116.911C131.073 116.975 8.80114 117.534 3.62731 132.383C-2.31097 149.436 9.71593 170.098 39.375 193.795C56.7208 207.654 68.2689 221.225 73.6968 234.132C78.046 244.476 78.4993 252.313 75.0423 261.579C69.1491 277.378 30.3556 306.666 30.1985 306.75Z" fill="#3F3D56"/>
<path d="M58.3717 0.448721C58.3717 0.448721 39.687 -4.81478 34.161 20.7122C28.635 46.2392 32.8485 59.1355 32.8485 59.1355L74.5597 54.2672C74.5597 54.2672 86.3985 8.21047 58.3717 0.448721Z" fill="#090814"/>
<path d="M30.4198 111.011C30.4198 111.011 3.01251 113.74 7.89426 124.805C12.776 135.871 12.776 136.847 12.776 136.847L36.8585 179.804L44.6698 171.668C44.6698 171.668 35.8798 152.464 35.8798 146.284C35.8798 140.104 26.7673 129.364 26.7673 129.364L42.7138 128.062L30.4198 111.011Z" fill="#AE9D89"/>
<path d="M105.522 124.154L114.634 144.006C114.634 144.006 121.468 150.84 128.953 178.176C136.438 205.513 138.066 204.537 138.066 204.537L126.678 206.815C126.678 206.815 113.983 177.202 109.752 174.922C105.522 172.642 100.314 151.816 100.314 151.816L85.3445 132.941L89.9007 122.853L105.522 124.154Z" fill="#AE9D89"/>
<path d="M94.4579 101.376L108.451 127.411C108.451 127.411 90.8774 119.275 88.2764 137.174L72.3299 124.807C72.3299 124.807 50.2003 131.967 36.8548 129.363C36.8548 129.363 40.7601 116.997 26.7666 111.465L58.3341 107.559L57.0321 100.725L60.2863 94.2168L94.4579 101.376Z" fill="#1C3E2A"/>
<path d="M38.8042 173.947C38.8042 173.947 30.0172 172.645 32.2957 180.455L36.8542 196.072C36.8542 196.072 30.9967 212.018 40.1085 208.439C49.2202 204.859 55.0785 182.729 55.0785 182.729C55.0785 182.729 58.9837 165.806 55.0785 165.806C51.1732 165.806 38.8035 163.203 40.1085 165.806C41.4135 168.41 38.8042 173.947 38.8042 173.947Z" fill="#090814"/>
<path d="M137.089 199.98C137.089 199.98 125.699 197.052 123.096 201.608C120.493 206.164 121.146 221.134 121.146 221.46C121.146 221.785 125.051 225.039 126.353 225.039C127.655 225.039 135.791 239.684 146.856 234.477C157.921 229.271 137.089 199.98 137.089 199.98Z" fill="#090814"/>
<path d="M55.0799 40.1911C62.0897 40.1911 67.7722 34.5086 67.7722 27.4989C67.7722 20.4892 62.0897 14.8066 55.0799 14.8066C48.0702 14.8066 42.3877 20.4892 42.3877 27.4989C42.3877 34.5086 48.0702 40.1911 55.0799 40.1911Z" fill="#AE9D89"/>
<path d="M65.4942 30.1025C65.4942 30.1025 68.0974 43.7713 70.3759 45.7235C72.6544 47.6758 53.1259 50.6053 53.1259 50.6053C53.1259 50.6053 56.0547 41.1673 52.4749 36.2863C48.8952 31.4053 65.4942 30.1025 65.4942 30.1025Z" fill="#AE9D89"/>
<path d="M99.6651 107.557C97.4488 107.557 91.8058 106.639 85.4796 105.457C80.0046 104.436 74.0143 103.222 69.2893 102.239C64.2283 101.185 60.6133 100.395 60.6133 100.395C60.6133 100.395 59.3113 108.531 55.0806 107.554C51.4356 106.714 40.5433 68.6677 37.5981 58.1527C37.3829 57.3849 37.4245 56.5679 37.7166 55.826C38.0086 55.084 38.5351 54.4578 39.2159 54.0427L54.1761 44.9077L58.0101 46.3724C58.0101 46.3724 64.4863 41.3669 68.2453 41.2664C72.0043 41.1659 78.5128 40.1895 78.5128 40.1895C78.5128 40.1895 85.9978 40.8404 87.2998 46.3724C88.6018 51.9044 89.2498 86.4014 94.1338 92.5844C99.0178 98.7674 105.848 107.557 99.6651 107.557Z" fill="#A9CDBA"/>
<path d="M54.1035 125.781C54.1035 125.781 54.1035 138.474 62.565 136.521C71.0265 134.568 63.216 122.853 63.216 122.853L54.1035 125.781Z" fill="#AE9D89"/>
<path d="M77.5349 127.085C77.5349 127.085 74.6062 142.055 68.4224 139.777C62.2387 137.5 68.4224 124.156 68.4224 124.156L77.5349 127.085Z" fill="#AE9D89"/>
<path opacity="0.15" d="M91.2036 91.6105C91.2036 91.6105 88.0176 99.2125 85.4788 105.458C80.0038 104.436 74.0136 103.222 69.2886 102.239C69.628 101.341 70.1044 100.5 70.7008 99.7465C72.9786 97.1432 71.6758 96.4922 71.6758 96.4922C69.7258 92.587 71.3503 87.3797 71.3503 87.3797C67.4451 76.966 73.3003 63.9482 73.3003 63.9482L91.2036 91.6105Z" fill="black"/>
<path d="M74.2812 63.9481C74.2812 63.9481 68.4229 76.9658 72.3312 87.3796C72.3312 87.3796 70.7037 92.5868 72.6567 96.4921C72.6567 96.4921 73.9587 97.1431 71.6817 99.7463C69.4047 102.35 67.4509 111.462 69.0784 113.414C70.7059 115.367 66.8007 118.947 67.7764 120.899C68.7522 122.852 66.1489 125.456 66.1489 125.456C66.1489 125.456 75.9124 127.406 77.5392 130.337C77.5392 130.337 79.4892 128.06 78.5142 125.456C77.5392 122.852 78.1887 121.876 79.1652 120.248C80.1417 118.621 83.0704 115.041 83.3959 113.414C83.7214 111.788 92.1829 91.6103 92.1829 91.6103L88.2109 54.8408L74.2812 63.9481Z" fill="#A9CDBA"/>
<path d="M40.4354 54.8359L39.8271 54.9462C38.9794 55.0999 38.213 55.5479 37.6632 56.2113C37.1134 56.8747 36.8155 57.7109 36.8219 58.5724C36.8451 61.8402 37.0289 67.6384 37.8314 75.6634C39.1334 88.6812 43.6889 108.207 44.6654 110.163C46.2159 113.619 47.9543 116.986 49.8726 120.252C52.8014 125.133 53.4524 123.506 52.8014 125.784C52.6032 126.412 52.5898 127.083 52.7627 127.718C52.9355 128.352 53.2875 128.924 53.7764 129.364C53.7764 129.364 59.6339 122.856 65.4921 126.435C65.9109 125.515 66.1327 124.518 66.1431 123.507C66.1431 121.879 67.1181 120.252 65.4921 119.276C63.8661 118.299 66.4671 114.069 63.8646 111.791C61.2621 109.513 60.9359 109.841 61.2614 107.56C61.4133 106.011 61.19 104.448 60.6104 103.004L40.4354 54.8359Z" fill="#A9CDBA"/>
<path d="M59.8243 11.1943C59.8243 11.1943 54.5608 25.1443 41.666 30.9313L39.5608 18.5623L59.8243 11.1943Z" fill="#090814"/>
<path d="M130.299 102.87C128.119 110.929 120.652 115.92 120.652 115.92C120.652 115.92 116.719 107.845 118.899 99.7863C121.078 91.7276 128.546 86.7363 128.546 86.7363C128.546 86.7363 132.479 94.8116 130.299 102.87Z" fill="#58197A"/>
</svg>
