<svg width="154" height="133" viewBox="0 0 154 133" fill="none" xmlns="http://www.w3.org/2000/svg">
<g opacity="0.8">
<path d="M21.3198 36.1845C21.3198 36.1845 26.5537 44.4889 24.686 46.7375C22.8182 48.9861 38.7156 49.0423 38.7156 49.0423C38.7156 49.0423 36.3274 36.9619 37.0301 34.1816L21.3198 36.1845Z" fill="#FFB9B9"/>
<path d="M29.6881 39.1948C38.7559 39.1948 46.1069 31.8439 46.1069 22.7761C46.1069 13.7083 38.7559 6.35742 29.6881 6.35742C20.6202 6.35742 13.2693 13.7083 13.2693 22.7761C13.2693 31.8439 20.6202 39.1948 29.6881 39.1948Z" fill="#3A9650"/>
<path d="M29.6881 39.1948C38.7559 39.1948 46.1069 31.8439 46.1069 22.7761C46.1069 13.7083 38.7559 6.35742 29.6881 6.35742C20.6202 6.35742 13.2693 13.7083 13.2693 22.7761C13.2693 31.8439 20.6202 39.1948 29.6881 39.1948Z" fill="#141308" fill-opacity="0.8"/>
<path d="M68.3042 111.768V121.501L78.0372 119.473L77.2265 112.579L68.3042 111.768Z" fill="#FFB9B9"/>
<path d="M102.776 113.39L129.948 117.85L123.053 127.989C123.053 127.989 103.992 121.5 99.1258 121.5C94.2592 121.5 102.776 113.39 102.776 113.39Z" fill="#FFB9B9"/>
<path d="M41.1321 93.9232C41.1321 93.9232 61.4099 70.4015 67.8985 71.6179C74.387 72.8342 77.2263 80.1345 77.2263 80.1345L80.8765 116.228C80.8765 116.228 67.8989 117.445 67.8989 116.228C67.8989 115.012 65.4657 89.0567 65.4657 89.0567C65.4657 89.0567 46.4048 131.234 36.2661 103.251L41.1321 93.9232Z" fill="#D6D6E3"/>
<path d="M8.28271 109.739C8.28271 109.739 8.68833 130.986 20.8546 132.202C33.0209 133.419 46.4045 123.122 46.4045 123.122L68.3043 112.631C68.3043 112.631 94.2599 126.367 101.965 122.717C101.965 122.717 110.076 114.201 104.804 111.767C99.532 109.334 104.399 111.767 104.399 111.767L73.1708 95.5453C73.1708 95.5453 67.0875 93.9234 56.5432 98.3842C45.9989 102.845 31.8045 104.873 31.8045 104.873L8.28271 109.739Z" fill="#D6D6E3"/>
<path d="M28.5603 40.391C35.2798 40.391 40.7271 34.9438 40.7271 28.2243C40.7271 21.5048 35.2798 16.0576 28.5603 16.0576C21.8408 16.0576 16.3936 21.5048 16.3936 28.2243C16.3936 34.9438 21.8408 40.391 28.5603 40.391Z" fill="#FFB9B9"/>
<path d="M45.9989 62.2897L45.1876 79.3229C45.1876 79.3229 45.5933 101.628 41.9431 103.25C40.0977 104.069 36.3909 105.716 32.9642 107.515C30.3928 108.861 27.9799 110.289 26.6336 111.518C26.2767 111.821 25.9688 112.178 25.7211 112.576C24.0991 115.415 13.5543 115.009 11.1211 112.982C8.68782 110.954 10.3098 115.415 8.28219 116.226C6.3195 117.013 3.59789 110.581 5.26497 100.977C5.31779 100.657 5.37837 100.332 5.44331 100.004C7.30472 90.6968 4.38054 68.4036 4.83075 59.7901C4.85702 59.132 4.92614 58.4764 5.03768 57.8274C6.25456 51.3384 21.7788 38.1337 24.6826 43.7591C28.2595 50.7021 36.4762 44.3595 37.8874 41.1998C45.9984 40.7942 48.8397 50.5277 48.8397 50.5277L45.9989 62.2897Z" fill="#58197A"/>
<path d="M78.8486 117.851C78.8486 117.851 72.3596 120.284 70.3319 119.878C68.3043 119.473 66.2762 121.095 66.2762 123.528C66.2762 125.962 63.8429 131.639 67.493 132.045C71.1432 132.451 86.1508 131.639 89.3928 132.856C89.3928 132.856 103.993 133.262 102.776 127.178C101.559 121.095 95.4762 121.501 95.4762 121.501C95.4762 121.501 78.8486 120.689 78.8486 117.851Z" fill="#2F2E41"/>
<path d="M126.298 119.067C126.298 119.067 127.109 116.634 128.326 116.634C129.542 116.634 139.275 118.256 140.492 117.851C141.709 117.446 155.903 116.634 153.47 123.528C151.037 130.423 142.926 131.234 142.926 131.234C142.926 131.234 128.326 129.612 126.298 130.017C124.27 130.422 116.97 130.017 118.187 127.989C119.404 125.962 127.109 122.312 126.298 119.067Z" fill="#2F2E41"/>
<path d="M89.3801 60.8143L91.6094 69.9924C91.6342 70.0947 91.6303 70.2019 91.5982 70.3021L81.5056 101.842C81.4652 101.966 81.3836 102.073 81.2742 102.144C81.1647 102.216 81.0342 102.248 80.9041 102.235C80.774 102.222 80.6522 102.165 80.5588 102.074C80.4655 101.982 80.4063 101.862 80.391 101.732L78.9948 89.4453C78.9856 89.3637 78.994 89.281 79.0195 89.203L88.2835 60.7722C88.3222 60.6536 88.3985 60.551 88.5008 60.4797C88.6032 60.4085 88.726 60.3726 88.8506 60.3774C88.9752 60.3822 89.0948 60.4275 89.1913 60.5065C89.2879 60.5854 89.356 60.6937 89.3855 60.8148L89.3801 60.8143Z" fill="#080712"/>
<path d="M88.564 61.5898L90.6183 69.4643L81.7164 98.2232L79.6621 89.3218L88.564 61.5898Z" fill="white"/>
<path d="M43.7137 104.386C44.0558 105.413 79.3199 104.044 79.6625 103.701C79.961 103.272 80.2134 102.813 80.4156 102.331C80.7374 101.647 81.032 100.962 81.032 100.962L79.6625 89.8759L44.7411 88.6367C44.7411 88.6367 43.8688 98.0314 43.6899 102.331C43.6292 103.015 43.6372 103.703 43.7137 104.386Z" fill="#090814"/>
<path opacity="0.1" d="M75.2117 91.376L75.8964 100.963H60.49V91.376H75.2117Z" fill="black"/>
<path opacity="0.1" d="M55.3543 94.4569L55.4464 94.4385L55.0102 98.565H46.4524V94.4569H55.3543Z" fill="black"/>
<path opacity="0.1" d="M43.7137 104.386C44.0559 105.413 79.3199 104.044 79.6625 103.702C79.961 103.273 80.2134 102.814 80.4156 102.332H43.6895C43.6289 103.016 43.637 103.704 43.7137 104.386Z" fill="black"/>
<path d="M32.4083 9.40144C34.9354 9.40144 36.984 7.35282 36.984 4.82572C36.984 2.29862 34.9354 0.25 32.4083 0.25C29.8812 0.25 27.8325 2.29862 27.8325 4.82572C27.8325 7.35282 29.8812 9.40144 32.4083 9.40144Z" fill="#3A9650"/>
<path d="M32.4083 9.40144C34.9354 9.40144 36.984 7.35282 36.984 4.82572C36.984 2.29862 34.9354 0.25 32.4083 0.25C29.8812 0.25 27.8325 2.29862 27.8325 4.82572C27.8325 7.35282 29.8812 9.40144 32.4083 9.40144Z" fill="#141308" fill-opacity="0.8"/>
<path d="M31.0322 9.80762C31.0322 9.80762 26.3571 17.5837 15.4867 20.4943C4.6163 23.4049 15.398 39.7407 15.398 39.7407C15.398 39.7407 11.4775 33.8003 17.1325 27.5096C22.7875 21.2188 31.8876 16.9179 31.0322 9.80762Z" fill="#3A9650"/>
<path d="M31.0322 9.80762C31.0322 9.80762 26.3571 17.5837 15.4867 20.4943C4.6163 23.4049 15.398 39.7407 15.398 39.7407C15.398 39.7407 11.4775 33.8003 17.1325 27.5096C22.7875 21.2188 31.8876 16.9179 31.0322 9.80762Z" fill="#141308" fill-opacity="0.8"/>
<path opacity="0.1" d="M32.9647 107.517C31.963 109.411 30.7868 111.378 30.5901 112.173C30.4563 112.712 28.972 112.4 26.6361 111.52C21.9518 109.748 13.833 105.688 6.25704 101.629C5.90783 101.443 5.57654 101.226 5.26744 100.98C5.32026 100.66 5.38084 100.335 5.44578 100.007C7.30719 90.6992 4.38302 68.4061 4.83322 59.7926L8.28466 58.6406L15.1793 65.1296V92.707C15.1793 92.707 33.0238 102.44 34.2402 103.251C34.8586 103.665 34.0027 105.55 32.9647 107.517Z" fill="black"/>
<path d="M48.0264 85.4072L58.9788 91.0849C58.9788 91.0849 65.4678 84.1903 69.523 89.4629C73.5783 94.7355 57.7619 96.3575 57.7619 96.3575C57.7619 96.3575 43.9731 93.1131 43.5675 88.6522C43.1619 84.1913 48.0264 85.4072 48.0264 85.4072Z" fill="#FFB9B9"/>
<path d="M29.7765 100.412L36.2655 102.034C36.2655 102.034 43.5652 93.1114 51.2711 96.3558C58.977 99.6003 41.5381 106.089 41.5381 106.089C41.5381 106.089 32.2102 110.955 28.5605 106.9C24.9109 102.845 29.7765 100.412 29.7765 100.412Z" fill="#FFB9B9"/>
<path d="M43.9718 46.8789C44.3774 47.2845 48.8383 50.529 48.8383 50.529C48.8383 50.529 50.0552 65.9397 48.4327 69.1866C46.8102 72.4335 45.5938 72.4311 46.8107 74.0531C48.0276 75.6751 49.6496 74.4587 48.0276 77.2976C46.4056 80.1364 44.7831 79.7308 45.9999 80.9477C47.2168 82.1645 46.8112 82.5697 46.8112 82.5697L51.6777 86.6254C51.6777 86.6254 48.692 91.3809 44.9125 91.031C41.1329 90.6811 37.8889 72.4311 37.8889 72.4311L43.9718 46.8789Z" fill="#58197A"/>
<path d="M8.2826 56.6113L4.63246 57.8282C4.63246 57.8282 -5.10056 93.5166 6.25448 99.6018C17.6095 105.687 30.1819 111.769 30.5875 110.146C30.9932 108.524 35.454 102.035 34.2376 101.224C33.0213 100.413 15.1767 90.6796 15.1767 90.6796V63.1003L8.2826 56.6113Z" fill="#58197A"/>
<path opacity="0.1" d="M13.7573 71.4141L12.9465 90.8805L34.4407 101.02L14.5685 90.8805L13.7573 71.4141Z" fill="black"/>
</g>
</svg>
