<svg width="159" height="178" viewBox="0 0 159 178" fill="none" xmlns="http://www.w3.org/2000/svg">
<path d="M6.39574 90.6972C7.25517 90.5748 8.07449 90.2539 8.78915 89.7598C9.50381 89.2656 10.0943 88.6118 10.514 87.8497C10.9337 87.0877 11.1711 86.2383 11.2077 85.3685C11.2442 84.4987 11.0788 83.6323 10.7245 82.8376C10.3702 82.0429 9.83669 81.3415 9.16601 80.7888C8.49533 80.2362 7.70582 79.8473 6.8597 79.6528C6.01359 79.4583 5.134 79.4636 4.29026 79.6682C3.44653 79.8728 2.66172 80.2712 1.99768 80.8318L3.47857 83.3188L1.11108 81.7746C0.225072 82.9637 -0.154001 84.4568 0.0571833 85.926C0.129009 86.4417 0.273369 86.9447 0.485935 87.4199C0.981723 88.5363 1.82685 89.4602 2.89328 90.0516C3.95972 90.643 5.18931 90.8697 6.39574 90.6972Z" fill="#57B894"/>
<path d="M28.0955 117.123C26.5162 115.179 27.3353 112.27 28.4901 110.045C29.6449 107.821 31.1178 105.455 30.61 103C29.8803 99.4711 25.7367 98.0975 22.3867 96.7935C19.9011 95.8256 17.5386 94.5656 15.3488 93.04C14.4709 92.4282 13.6075 91.7595 12.9949 90.8808C12.1128 89.6153 11.8306 88.0376 11.5813 86.514C10.7509 81.4382 10.0402 76.3447 9.4493 71.2334" stroke="#57B894" stroke-miterlimit="10"/>
<path d="M3.90119 73.0675C3.76816 72.1346 3.87137 71.1832 4.20132 70.3009C4.53127 69.4186 5.07736 68.6338 5.78924 68.0187L7.48662 70.2282L6.88664 67.2754C7.94324 66.7305 9.14516 66.5365 10.3189 66.7214C11.4926 66.9062 12.5773 67.4604 13.4165 68.3038C14.2557 69.1473 14.8059 70.2364 14.9877 71.4138C15.1695 72.5913 14.9735 73.7963 14.4279 74.8547C13.8823 75.9132 13.0155 76.7704 11.9525 77.3026C10.8895 77.8347 9.6853 78.0143 8.51388 77.8154C7.34245 77.6165 6.26438 77.0495 5.43527 76.196C4.60617 75.3426 4.06895 74.247 3.90119 73.0675Z" fill="#57B894"/>
<path d="M21.5445 97.3066C22.907 97.1116 24.1503 96.4206 25.0374 95.3653C25.9245 94.31 26.3934 92.9643 26.3547 91.5845C26.316 90.2048 25.7725 88.8876 24.8277 87.884C23.8828 86.8804 22.6028 86.2605 21.2315 86.1426L21.6926 88.4117L19.9759 86.1759C19.9708 86.1761 19.9658 86.1767 19.9608 86.1778C18.4892 86.3884 17.1614 87.1767 16.2694 88.3691C15.3774 89.5616 14.9942 91.0606 15.2042 92.5363C15.4142 94.0121 16.2002 95.3438 17.3893 96.2384C18.5783 97.133 20.073 97.5172 21.5445 97.3066Z" fill="#57B894"/>
<path d="M20.7739 108.297C21.5656 109.312 22.6814 110.024 23.9341 110.312C25.1867 110.6 26.5001 110.447 27.6539 109.88C28.8078 109.312 29.7319 108.364 30.2713 107.194C30.8107 106.024 30.9326 104.704 30.6165 103.454C30.3005 102.205 29.5657 101.103 28.5354 100.332C27.5051 99.5616 26.242 99.1698 24.9579 99.2225C23.6737 99.2751 22.4467 99.7689 21.4825 100.621C20.5184 101.473 19.8757 102.632 19.6623 103.903L23.6341 106.051L19.6846 105.896C19.8507 106.772 20.2242 107.596 20.7739 108.297Z" fill="#57B894"/>
<path d="M86.6307 146.804C73.7651 146.804 63.3354 134.942 63.3354 120.309C63.3354 105.676 73.7651 93.8135 86.6307 93.8135C99.4964 93.8135 109.926 105.676 109.926 120.309C109.926 134.942 99.4964 146.804 86.6307 146.804Z" fill="#36334A"/>
<path d="M56.7285 32.1461C62.3265 34.5955 68.4306 35.6559 74.5239 35.2376C72.9586 34.1179 71.9543 32.32 71.5494 30.435C71.1446 28.55 71.2988 26.58 71.717 24.6979C71.7933 24.483 71.7888 24.2476 71.7043 24.0358C71.6187 23.9294 71.5103 23.8437 71.3872 23.7849C71.2641 23.7261 71.1295 23.6958 70.9931 23.6961C68.6334 23.3667 61.8744 21.9363 60.0775 23.9623C59.226 24.9222 59.5521 26.787 59.2412 27.9596C59.1128 28.4439 57.4703 32.4718 56.7285 32.1461Z" fill="#889373"/>
<path d="M56.7285 32.1461C62.3265 34.5955 68.4306 35.6559 74.5239 35.2376C72.9586 34.1179 71.9543 32.32 71.5494 30.435C71.1446 28.55 71.2988 26.58 71.717 24.6979C71.7933 24.483 71.7888 24.2476 71.7043 24.0358C71.6187 23.9294 71.5103 23.8437 71.3872 23.7849C71.2641 23.7261 71.1295 23.6958 70.9931 23.6961C68.6334 23.3667 61.8744 21.9363 60.0775 23.9623C59.226 24.9222 59.5521 26.787 59.2412 27.9596C59.1128 28.4439 57.4703 32.4718 56.7285 32.1461Z" fill="#976A48"/>
<path d="M76.397 72.3691L111.407 73.4495C111.407 73.4495 142.378 103.699 116.793 112.882C116.793 112.882 85.2842 118.014 77.7435 112.072C77.7435 112.072 68.3177 74.7999 76.397 72.3691ZM78.0129 82.3623L115.447 84.7931C115.447 84.7931 112.754 75.6102 101.981 75.6102C91.209 75.6102 79.0901 73.1794 78.0129 78.8512C76.9356 84.523 78.0129 82.3623 78.0129 82.3623Z" fill="#3D5F54"/>
<path d="M103.997 67.5236C105.744 67.2556 107.642 67.1008 109.172 67.9875C109.681 68.3068 110.154 68.6809 110.582 69.1032C111.197 69.6695 111.807 70.2409 112.413 70.8173C112.856 71.2388 113.319 71.7036 113.433 72.3053C113.666 73.5433 112.24 74.5403 110.985 74.4919C109.729 74.4436 108.603 73.7517 107.417 73.3349C105.03 72.4956 96.2476 73.9305 95.7678 71.3516C95.1578 68.0726 102.055 67.8334 103.997 67.5236Z" fill="#A6856C"/>
<path d="M87.6308 65.4523C89.9142 66.6154 92.4008 67.3235 94.9529 67.5374C95.3514 67.544 95.7447 67.628 96.1113 67.7846C96.3332 67.9217 96.5031 68.129 96.5941 68.3738C97.4912 70.2575 98.0455 72.2867 98.2309 74.3659C98.2552 74.4657 98.2503 74.5704 98.2167 74.6675C98.1832 74.7645 98.1225 74.8499 98.0419 74.9132C97.7965 75.0365 97.5248 75.0977 97.2504 75.0914C93.0605 75.3581 88.8568 75.5014 84.6392 75.5211C84.4529 75.5355 84.2658 75.51 84.0901 75.4462C84.0293 75.4137 83.9756 75.3691 83.9322 75.3153C83.8888 75.2615 83.8567 75.1995 83.8378 75.133C82.8482 72.6654 82.3816 70.0182 82.4678 67.3599C82.578 64.2292 83.4921 63.2489 87.6308 65.4523Z" fill="#9BC7B4"/>
<path opacity="0.1" d="M87.6308 65.4523C89.9142 66.6154 92.4008 67.3235 94.9529 67.5374C95.3514 67.544 95.7447 67.628 96.1113 67.7846C96.3332 67.9217 96.5031 68.129 96.5941 68.3738C97.4912 70.2575 98.0455 72.2867 98.2309 74.3659C98.2552 74.4657 98.2503 74.5704 98.2167 74.6675C98.1832 74.7645 98.1225 74.8499 98.0419 74.9132C97.7965 75.0365 97.5248 75.0977 97.2504 75.0914C93.0605 75.3581 88.8568 75.5014 84.6392 75.5211C84.4529 75.5355 84.2658 75.51 84.0901 75.4462C84.0293 75.4137 83.9756 75.3691 83.9322 75.3153C83.8888 75.2615 83.8567 75.1995 83.8378 75.133C82.8482 72.6654 82.3816 70.0182 82.4678 67.3599C82.578 64.2292 83.4921 63.2489 87.6308 65.4523Z" fill="black"/>
<path d="M40.5789 93.7049L86.6309 92.0844L75.8585 46.4399C75.8585 46.4399 32.7689 43.1989 33.8462 54.2724C34.9234 65.3459 40.5789 93.7049 40.5789 93.7049Z" fill="#36334A"/>
<path d="M85.0368 115.526C85.0368 115.526 112.754 120.445 122.718 105.86C132.683 91.2758 85.015 99.1083 85.015 99.1083L80.9754 110.182L85.0368 115.526Z" fill="#36334A"/>
<path d="M93.3634 177.432C86.3729 177.432 80.7059 171.749 80.7059 164.738C80.7059 157.727 86.3729 152.044 93.3634 152.044C100.354 152.044 106.021 157.727 106.021 164.738C106.021 171.749 100.354 177.432 93.3634 177.432Z" fill="#36334A"/>
<path d="M92.1518 173.921C87.7641 173.921 84.2072 169.81 84.2072 164.739C84.2072 159.667 87.7641 155.556 92.1518 155.556C96.5395 155.556 100.096 159.667 100.096 164.739C100.096 169.81 96.5395 173.921 92.1518 173.921Z" fill="#3D5F54"/>
<path d="M24.1509 45.09C24.1509 45.09 34.654 39.1481 35.1926 53.1926L44.0798 118.553H40.3095L30.0757 48.6011C30.0757 48.6011 24.9588 49.4114 24.1509 49.4114C23.343 49.4114 24.1509 45.09 24.1509 45.09Z" fill="#3D5F54"/>
<path d="M13.6853 52.3017C13.7814 52.6486 13.9503 52.9709 14.1808 53.247C14.4112 53.5231 14.6978 53.7466 15.0214 53.9025C15.345 54.0585 15.698 54.1432 16.057 54.1511C16.4159 54.159 16.7723 54.0899 17.1024 53.9483L29.2864 48.7242L27.0762 43.8418L15.0682 49.3268C14.5222 49.5762 14.0828 50.0129 13.8293 50.5583C13.5758 51.1037 13.5247 51.722 13.6853 52.3017Z" fill="#36334A"/>
<path d="M87.7081 113.962C87.7081 113.962 107.098 111.802 112.485 130.438C117.871 149.073 117.332 163.388 121.91 162.308C126.489 161.227 136.184 157.446 136.184 157.446L135.376 163.118C135.376 163.118 118.409 171.761 115.716 162.578C113.023 153.395 111.407 119.634 96.0567 120.444C80.706 121.255 78.0129 119.634 78.0129 119.634L87.7081 113.962Z" fill="#3D5F54"/>
<path d="M124.603 105.049C124.603 105.049 139.685 106.939 145.61 118.013C151.534 129.086 154.497 149.073 154.497 149.073H148.841C148.841 149.073 145.61 109.37 128.643 111.531L124.603 105.049Z" fill="#3D5F54"/>
<path d="M134.837 166.9L158.806 152.045C158.806 152.045 160.152 146.643 144.802 144.482C144.802 144.482 115.779 154.662 118.575 158.485C121.372 162.308 130.797 168.25 134.837 166.9Z" fill="#36334A"/>
<path d="M97.6726 118.554V150.154H94.1716V118.014L97.6726 118.554Z" fill="#3D5F54"/>
<path d="M92.5558 138C92.5558 138 85.823 164.468 90.132 168.25C90.132 168.25 95.7875 151.504 100.096 153.665L98.7499 138H92.5558Z" fill="#36334A"/>
<path d="M66.4327 27.805C60.632 27.805 55.9296 23.089 55.9296 17.2716C55.9296 11.4542 60.632 6.73828 66.4327 6.73828C72.2334 6.73828 76.9358 11.4542 76.9358 17.2716C76.9358 23.089 72.2334 27.805 66.4327 27.805Z" fill="#A6856C"/>
<path d="M68.4189 33.2364C64.1357 33.9663 60.4339 28.972 56.1461 29.6743C55.2136 29.8658 54.3212 30.2179 53.5086 30.7151C50.3501 32.5072 47.5979 34.9386 45.4268 37.8548C43.2557 40.771 41.7133 44.1083 40.8974 47.6545C40.4128 49.8208 40.2257 52.1699 41.1379 54.1928C41.6229 55.2681 42.3902 56.1864 43.1574 57.0812C46.0102 60.4086 49.1411 63.7246 53.2117 65.3345C53.6092 66.7157 53.2275 68.2111 52.7508 69.5668C50.7602 75.2273 53.9256 81.3278 54.087 87.3279C54.1146 88.3541 54.084 89.4787 54.7238 90.28C55.4342 91.1697 56.7023 91.3276 57.837 91.3917C68.2365 91.9794 78.6216 90.3793 88.9154 88.7842C89.185 88.7657 89.4451 88.6774 89.6704 88.5279C90.0089 88.2569 90.0601 87.7723 90.1322 87.344C90.514 85.0769 88.5067 83.2386 89.4585 81.1468C91.0947 77.551 87.5255 73.6186 86.4961 69.8032C85.4666 65.9879 85.0611 65.3167 84.3416 61.4306C84.0726 59.9775 84.8475 55.597 84.6109 54.1382C83.8381 49.3734 84.4225 43.9461 81.9178 39.8237C80.4129 37.3469 80.8035 35.4209 78.1182 34.344C75.2846 33.2077 71.4501 33.5902 68.4189 33.2364Z" fill="#9BC7B4"/>
<path d="M115.852 96.0538C118.988 96.6603 122.317 97.2386 124.73 99.3362C126.203 100.617 127.194 102.354 128.156 104.055L137.972 121.412C140.966 126.706 143.962 132.003 146.676 137.446C146.913 137.842 147.052 138.289 147.082 138.75C147.071 139.399 146.636 139.958 146.19 140.429C144.641 142.039 142.739 143.264 140.635 144.006C138.53 144.748 136.282 144.987 134.07 144.703C133.395 141.197 130.071 138.879 128.442 135.704C127.547 133.959 127.188 131.997 126.61 130.122C124.455 123.13 119.34 117.515 114.373 112.152C112.026 109.618 109.623 107.039 106.599 105.376C103.051 103.425 98.9343 102.885 94.9695 102.075C91.0046 101.265 86.8993 100.036 84.0937 97.1119C82.9029 95.8523 82.0062 94.343 81.4685 92.6932C80.9307 91.0435 80.7654 89.2944 80.9843 87.5727C83.5244 87.3945 86.3511 87.0632 88.8013 87.8825C91.647 88.834 94.3992 90.1344 97.2492 91.1063C103.33 93.1804 109.546 94.8335 115.852 96.0538Z" fill="#687880"/>
<path opacity="0.1" d="M115.852 96.0538C118.988 96.6603 122.317 97.2386 124.73 99.3362C126.203 100.617 127.194 102.354 128.156 104.055L137.972 121.412C140.966 126.706 143.962 132.003 146.676 137.446C146.913 137.842 147.052 138.289 147.082 138.75C147.071 139.399 146.636 139.958 146.19 140.429C144.641 142.039 142.739 143.264 140.635 144.006C138.53 144.748 136.282 144.987 134.07 144.703C133.395 141.197 130.071 138.879 128.442 135.704C127.547 133.959 127.188 131.997 126.61 130.122C124.455 123.13 119.34 117.515 114.373 112.152C112.026 109.618 109.623 107.039 106.599 105.376C103.051 103.425 98.9343 102.885 94.9695 102.075C91.0046 101.265 86.8993 100.036 84.0937 97.1119C82.9029 95.8523 82.0062 94.343 81.4685 92.6932C80.9307 91.0435 80.7654 89.2944 80.9843 87.5727C83.5244 87.3945 86.3511 87.0632 88.8013 87.8825C91.647 88.834 94.3992 90.1344 97.2492 91.1063C103.33 93.1804 109.546 94.8335 115.852 96.0538Z" fill="black"/>
<path d="M158.174 151.093C158.523 151.344 158.792 151.692 158.947 152.095C159.303 153.313 157.783 154.171 156.567 154.522C153.834 155.311 150.918 156.101 148.192 155.289C146.52 154.79 145.066 153.722 143.405 153.188C140.94 152.396 138.27 152.846 135.722 153.302C135.153 150.09 135.536 146.78 136.824 143.784C137.641 141.893 140.914 140.972 142.862 140.889C144.992 140.799 145.731 142.375 146.961 143.825C149.955 147.358 154.724 148.177 158.174 151.093Z" fill="#3D5F54"/>
<path d="M113.851 101.227C115.358 101.828 116.903 102.453 118.085 103.567C119.333 104.742 120.063 106.355 120.729 107.936C122.698 112.611 124.374 117.405 125.747 122.29C126.441 124.758 127.059 127.254 127.994 129.641C129.86 134.404 133.026 138.966 132.728 144.075C132.73 144.696 132.563 145.305 132.246 145.838C131.824 146.453 131.105 146.78 130.422 147.077L126.841 148.636C124.919 149.473 122.574 150.278 120.857 149.074C119.709 148.268 119.25 146.807 118.903 145.444C117.651 140.524 116.878 135.414 114.635 130.861C112.101 125.716 107.815 121.558 105.547 116.289C105.226 115.543 104.922 114.743 104.291 114.234C103.769 113.814 103.094 113.65 102.441 113.501C88.9917 110.43 75.2387 108.75 61.8966 105.238C59.9998 104.738 58.0154 104.146 56.6623 102.722C54.786 100.748 54.6188 97.7484 54.5587 95.0221C54.5211 93.314 54.5291 91.458 55.5668 90.1029C56.7371 88.5746 58.8358 88.1711 60.7467 87.9695C68.0756 87.1964 74.8353 88.4143 82.0535 89.3064C88.6578 90.1226 95.3097 93.8611 101.471 96.3036C105.599 97.9403 109.726 99.5813 113.851 101.227Z" fill="#687880"/>
<path d="M130.423 150.053C131.43 152.452 132.517 154.957 134.56 156.562C135.413 157.233 136.517 157.904 136.551 158.991C136.588 160.14 135.383 160.899 134.305 161.29C131.557 162.284 128.429 162.496 125.748 161.333C123.914 160.537 122.402 159.162 120.926 157.811C120.482 157.404 120.022 156.975 119.813 156.409C119.671 155.931 119.629 155.43 119.688 154.936C119.865 151.935 120.399 148.967 121.278 146.093C121.346 145.867 127.141 145.143 127.654 145.277C129.272 145.701 129.799 148.568 130.423 150.053Z" fill="#3D5F54"/>
<path d="M40.3096 80.4717L75.3198 81.552C75.3198 81.552 106.29 111.802 80.706 120.985C80.706 120.985 49.1968 126.116 41.6561 120.174C41.6561 120.174 32.2303 82.9025 40.3096 80.4717ZM41.9254 90.4649L79.3595 92.8956C79.3595 92.8956 76.6664 83.7127 65.894 83.7127C55.1216 83.7127 43.0027 81.2819 41.9254 86.9537C40.8482 92.6255 41.9254 90.4649 41.9254 90.4649Z" fill="#3D5F54"/>
<path d="M48.2543 177.433C28.8443 177.433 13.1094 159.536 13.1094 137.46C13.1094 115.384 28.8443 97.4873 48.2543 97.4873C67.6643 97.4873 83.3992 115.384 83.3992 137.46C83.3992 159.536 67.6643 177.433 48.2543 177.433Z" fill="#36334A"/>
<path d="M46.6383 167.169C31.9878 167.169 20.1113 153.868 20.1113 137.459C20.1113 121.051 31.9878 107.75 46.6383 107.75C61.2887 107.75 73.1653 121.051 73.1653 137.459C73.1653 153.868 61.2887 167.169 46.6383 167.169Z" fill="#3D5F54"/>
<path d="M39.7711 137.055C39.7718 136.537 39.8233 136.02 39.9249 135.512L20.1115 125.576L21.458 122.605L41.4727 132.384C41.6745 132.176 41.8973 131.989 42.1376 131.827L42.1223 131.83L36.2701 102.619L41.4468 102.501L44.888 131.248L44.558 131.318C44.8254 131.373 45.0847 131.462 45.3298 131.582L62.6397 113.763L65.0862 117.204L47.3016 133.613C47.7475 134.472 48.0154 135.412 48.089 136.378L73.1655 146.643L73.7041 150.964L47.5649 139.94C47.3211 140.546 46.9755 141.106 46.5433 141.595L54.5831 169.06H51.6207L44.8722 142.713C44.5726 142.81 44.2601 142.86 43.9454 142.862C43.3378 142.856 42.7442 142.678 42.2337 142.347L28.1908 160.958L23.8818 157.987L40.3357 139.962C39.958 139.04 39.7661 138.052 39.7711 137.055Z" fill="#36334A"/>
<path d="M78.6382 10.6024C78.1637 9.40755 76.6337 8.91331 76.1325 7.72951C75.5935 6.45635 76.4384 4.83642 75.705 3.66499C74.9662 2.48473 73.2442 2.62304 71.8733 2.85108C70.255 3.12028 68.534 3.30131 67.0244 2.65729C66.3531 2.37086 65.7572 1.93349 65.107 1.60164C64.0734 1.07598 62.9226 0.825085 61.7647 0.872952C61.5035 0.866966 61.2451 0.92878 61.0147 1.0524C60.7956 1.21103 60.6267 1.42968 60.5283 1.68213C60.0562 2.70784 59.9887 3.98809 59.1338 4.7238C58.7232 5.07719 58.1904 5.24372 57.6986 5.46998C56.5532 6.02436 55.605 6.91782 54.982 8.02974C54.359 9.14167 54.0911 10.4185 54.2146 11.6879C54.3272 12.2758 54.398 12.8709 54.4265 13.4688C54.3931 14.7822 53.5371 16.0941 53.9743 17.3325C54.2993 18.253 55.2502 18.7979 56.1818 19.0816C56.4468 19.1897 56.7404 19.2046 57.0149 19.1239C57.4929 18.9297 57.5883 18.3139 57.741 17.8199C57.9567 17.173 58.3728 16.6123 58.9287 16.2194C59.4846 15.8265 60.1512 15.6221 60.8311 15.6359C61.9175 15.6822 63.0166 16.2941 64.0416 15.93C64.5453 15.7512 64.9394 15.3607 65.3421 15.0084C66.2686 14.1976 67.3645 13.523 68.582 13.3505C69.7996 13.1779 71.1484 13.5896 71.8654 14.5915C72.155 14.9961 72.3304 15.4724 72.6066 15.8863C75.0889 19.605 79.6629 13.1828 78.6382 10.6024Z" fill="#36334A"/>
<path d="M77.3395 82.4971H95.9219V103.294H77.3395V82.4971Z" fill="#4E3A59"/>
<path d="M73.042 74.7959C73.5029 74.7359 73.9715 74.7895 74.4071 74.9521C74.8427 75.1148 75.2321 75.3815 75.5417 75.7292C77.8983 77.8825 80.396 80.3096 80.8231 83.478C80.8885 83.7668 80.8541 84.0693 80.7254 84.3359C80.4984 84.7084 79.9996 84.7909 79.5644 84.7982C78.4632 84.8092 77.3725 84.5842 76.3651 84.138C75.3578 83.6919 74.4572 83.035 73.7236 82.2113C73.3193 81.7513 72.9485 81.225 72.3944 80.9659C71.8879 80.7768 71.3443 80.7092 70.8071 80.7685C69.3286 80.817 65.9528 81.5759 64.6638 80.8405C63.3083 80.0671 63.6811 77.6427 64.3139 76.4738C65.818 73.6952 70.4816 74.7681 73.042 74.7959Z" fill="#A6856C"/>
<path d="M40.1482 51.4611C39.2427 54.3826 39.7731 57.6731 38.49 60.4487C37.6383 62.2911 36.0369 63.7762 35.5409 65.745C35.0723 67.6056 35.7001 69.6104 36.8013 71.1797C37.9025 72.749 39.4357 73.9542 40.9735 75.0962C42.6573 76.3467 44.4058 77.5671 46.3897 78.2433C48.3685 78.9178 50.4889 79.0197 52.5767 79.1157L66.4146 79.752L68.9631 72.0894L59.9467 68.5475C59.0442 68.193 58.1248 67.8345 57.1582 67.7628C55.4894 67.639 53.454 68.2534 52.3822 66.9646C52.0417 66.4909 51.8252 65.9392 51.7524 65.3599C50.8781 60.8583 51.6389 56.0954 50.293 51.7124C49.6268 49.543 47.7045 45.1912 45.0828 44.8083C42.3043 44.4026 40.7766 49.434 40.1482 51.4611Z" fill="#9BC7B4"/>
</svg>
