<svg width="324" height="284" viewBox="0 0 324 284" fill="none" xmlns="http://www.w3.org/2000/svg">
<path d="M176.647 273.24C176.389 273.252 176.133 273.184 175.914 273.046C175.696 272.907 175.525 272.705 175.425 272.466C175.325 272.227 175.301 271.963 175.356 271.71C175.411 271.457 175.543 271.228 175.733 271.052L175.819 270.708C175.808 270.68 175.796 270.653 175.785 270.625C175.524 270.01 175.088 269.485 174.531 269.117C173.974 268.749 173.32 268.554 172.652 268.557C171.985 268.559 171.333 268.759 170.778 269.131C170.224 269.503 169.791 270.031 169.536 270.649C168.513 273.112 167.212 275.58 166.892 278.185C166.751 279.336 166.81 280.503 167.068 281.634C164.667 276.393 163.42 270.698 163.412 264.933C163.412 263.486 163.492 262.04 163.653 260.603C163.786 259.424 163.97 258.254 164.206 257.092C165.493 250.788 168.255 244.88 172.267 239.852C174.208 238.792 175.779 237.161 176.766 235.181C177.123 234.469 177.376 233.709 177.516 232.924C177.297 232.953 176.69 229.615 176.856 229.41C176.55 228.946 176.004 228.716 175.671 228.264C174.013 226.014 171.729 226.407 170.536 229.464C167.989 230.75 167.964 232.884 169.527 234.936C170.522 236.242 170.658 238.009 171.531 239.406C171.441 239.521 171.348 239.633 171.258 239.748C169.617 241.859 168.187 244.127 166.988 246.517C167.279 243.839 166.931 241.13 165.972 238.612C165.001 236.266 163.179 234.29 161.575 232.262C159.648 229.825 155.697 230.889 155.358 233.977C155.354 234.007 155.351 234.037 155.348 234.067C155.586 234.201 155.819 234.344 156.048 234.495C156.334 234.687 156.556 234.961 156.685 235.281C156.813 235.601 156.842 235.953 156.768 236.289C156.693 236.626 156.519 236.933 156.267 237.169C156.015 237.405 155.698 237.559 155.358 237.611L155.323 237.617C155.408 238.476 155.558 239.328 155.772 240.165C153.714 248.129 158.157 251.03 164.5 251.16C164.64 251.232 164.777 251.304 164.917 251.372C163.712 254.788 162.957 258.346 162.669 261.957C162.506 264.088 162.516 266.228 162.698 268.357L162.687 268.282C162.227 265.914 160.966 263.778 159.114 262.234C156.365 259.974 152.481 259.142 149.515 257.325C149.199 257.122 148.833 257.014 148.458 257.013C148.084 257.012 147.717 257.119 147.401 257.32C147.084 257.521 146.832 257.808 146.674 258.148C146.515 258.487 146.457 258.865 146.507 259.237C146.51 259.264 146.515 259.29 146.519 259.316C146.961 259.497 147.391 259.704 147.808 259.938C148.046 260.073 148.279 260.215 148.507 260.366C148.794 260.558 149.016 260.832 149.145 261.152C149.273 261.472 149.302 261.824 149.227 262.161C149.153 262.498 148.978 262.804 148.727 263.04C148.475 263.276 148.158 263.43 147.817 263.483L147.783 263.488C147.757 263.492 147.736 263.495 147.711 263.499C148.466 265.304 149.527 266.966 150.845 268.411C152.132 275.363 157.659 276.023 163.57 273.998H163.574C164.223 276.819 165.162 279.565 166.378 282.191H176.396C176.432 282.08 176.464 281.965 176.497 281.853C175.569 281.911 174.638 281.856 173.725 281.688C174.468 280.775 175.211 279.855 175.954 278.943C175.971 278.926 175.987 278.908 176.001 278.889C176.378 278.422 176.759 277.958 177.136 277.491L177.136 277.49C177.156 276.059 176.991 274.63 176.647 273.24Z" fill="#F2F2F2"/>
<path d="M161.805 114.724C150.517 114.724 139.483 111.375 130.098 105.099C120.713 98.8234 113.398 89.9037 109.079 79.4679C104.759 69.032 103.629 57.5487 105.831 46.47C108.033 35.3914 113.469 25.215 121.45 17.2277C129.431 9.24049 139.6 3.8011 150.671 1.59742C161.741 -0.606263 173.216 0.524745 183.645 4.84742C194.073 9.17009 202.986 16.4903 209.257 25.8823C215.528 35.2743 218.875 46.3164 218.875 57.612C218.858 72.7538 212.839 87.2705 202.14 97.9774C191.441 108.684 176.935 114.707 161.805 114.724ZM161.805 1.39943C150.695 1.39943 139.835 4.69624 130.598 10.873C121.36 17.0497 114.161 25.8289 109.909 36.1004C105.658 46.3719 104.545 57.6744 106.713 68.5786C108.88 79.4828 114.23 89.4989 122.086 97.3604C129.941 105.222 139.95 110.576 150.846 112.745C161.742 114.914 173.037 113.8 183.301 109.546C193.565 105.291 202.337 98.0862 208.51 88.8421C214.682 79.598 217.976 68.7299 217.976 57.612C217.959 42.7087 212.036 28.4206 201.505 17.8823C190.975 7.34406 176.697 1.41627 161.805 1.39943Z" fill="#F2F2F2"/>
<path d="M168.066 78.2978H155.933C155.337 78.2978 154.766 78.0609 154.345 77.6392C153.923 77.2175 153.687 76.6456 153.687 76.0493C153.687 75.4529 153.923 74.881 154.345 74.4594C154.766 74.0377 155.337 73.8008 155.933 73.8008H168.066C168.662 73.8008 169.234 74.0377 169.655 74.4594C170.077 74.881 170.313 75.4529 170.313 76.0493C170.313 76.6456 170.077 77.2175 169.655 77.6392C169.234 78.0609 168.662 78.2978 168.066 78.2978Z" fill="#E6E6E6"/>
<path d="M170.854 143.557H153.146C152.276 143.557 151.442 143.212 150.827 142.596C150.212 141.981 149.867 141.146 149.867 140.276C149.867 139.405 150.212 138.571 150.827 137.955C151.442 137.34 152.276 136.994 153.146 136.994H170.854C171.723 136.994 172.558 137.34 173.173 137.955C173.787 138.571 174.133 139.405 174.133 140.276C174.133 141.146 173.787 141.981 173.173 142.596C172.558 143.212 171.723 143.557 170.854 143.557Z" fill="#501F6B"/>
<path d="M221.188 129.803H102.812C101.758 129.802 100.746 129.382 100.001 128.636C99.2547 127.889 98.8352 126.877 98.834 125.822V90.5047C98.8352 89.4492 99.2547 88.4372 100.001 87.6909C100.746 86.9445 101.758 86.5247 102.812 86.5234H221.188C222.242 86.5247 223.254 86.9445 224 87.6909C224.745 88.4372 225.165 89.4492 225.166 90.5047V125.822C225.165 126.877 224.745 127.889 224 128.636C223.254 129.382 222.242 129.802 221.188 129.803Z" fill="#E6E6E6"/>
<path d="M209.686 127.118H105.496C104.442 127.116 103.43 126.696 102.685 125.95C101.939 125.204 101.519 124.192 101.518 123.136V93.1922C101.519 92.1367 101.939 91.1247 102.685 90.3784C103.43 89.632 104.442 89.2122 105.496 89.2109H218.504C219.559 89.2122 220.57 89.632 221.316 90.3784C222.062 91.1247 222.481 92.1367 222.483 93.1922V114.312C222.479 117.707 221.129 120.962 218.73 123.363C216.331 125.763 213.079 127.114 209.686 127.118Z" fill="white"/>
<path d="M173.747 99.8602H126.169C125.897 99.8602 125.636 99.752 125.443 99.5595C125.251 99.3669 125.143 99.1057 125.143 98.8334C125.143 98.5611 125.251 98.2999 125.443 98.1074C125.636 97.9148 125.897 97.8066 126.169 97.8066H173.747C174.019 97.8066 174.28 97.9148 174.472 98.1074C174.665 98.2999 174.773 98.5611 174.773 98.8334C174.773 99.1057 174.665 99.3669 174.472 99.5595C174.28 99.752 174.019 99.8602 173.747 99.8602Z" fill="#501F6B"/>
<path d="M197.831 104.059H126.169C125.897 104.059 125.636 103.951 125.443 103.759C125.251 103.566 125.143 103.305 125.143 103.033C125.143 102.76 125.251 102.499 125.443 102.307C125.636 102.114 125.897 102.006 126.169 102.006H197.831C198.104 102.006 198.365 102.114 198.557 102.307C198.749 102.499 198.858 102.76 198.858 103.033C198.858 103.305 198.749 103.566 198.557 103.759C198.365 103.951 198.104 104.059 197.831 104.059Z" fill="#E6E6E6"/>
<path d="M197.831 108.881H126.169C126.034 108.881 125.9 108.855 125.776 108.803C125.651 108.752 125.537 108.676 125.442 108.581C125.346 108.485 125.271 108.372 125.219 108.247C125.167 108.123 125.141 107.989 125.141 107.854C125.141 107.719 125.167 107.585 125.219 107.46C125.271 107.336 125.346 107.222 125.442 107.127C125.537 107.032 125.651 106.956 125.776 106.905C125.9 106.853 126.034 106.827 126.169 106.827H197.831C198.103 106.828 198.364 106.936 198.556 107.129C198.748 107.321 198.855 107.582 198.855 107.854C198.855 108.126 198.748 108.387 198.556 108.579C198.364 108.772 198.103 108.88 197.831 108.881Z" fill="#E6E6E6"/>
<path d="M197.831 113.701H126.169C126.034 113.701 125.9 113.675 125.776 113.623C125.651 113.572 125.537 113.496 125.442 113.401C125.346 113.306 125.271 113.192 125.219 113.068C125.167 112.943 125.141 112.809 125.141 112.674C125.141 112.539 125.167 112.406 125.219 112.281C125.271 112.156 125.346 112.043 125.442 111.947C125.537 111.852 125.651 111.776 125.776 111.725C125.9 111.674 126.034 111.647 126.169 111.647H197.831C198.103 111.648 198.364 111.756 198.556 111.949C198.748 112.141 198.855 112.402 198.855 112.674C198.855 112.946 198.748 113.207 198.556 113.4C198.364 113.592 198.103 113.7 197.831 113.701Z" fill="#E6E6E6"/>
<path d="M197.831 118.521H126.169C126.034 118.522 125.9 118.495 125.776 118.444C125.651 118.392 125.537 118.317 125.442 118.221C125.346 118.126 125.271 118.013 125.219 117.888C125.167 117.763 125.141 117.63 125.141 117.495C125.141 117.36 125.167 117.226 125.219 117.101C125.271 116.976 125.346 116.863 125.442 116.768C125.537 116.672 125.651 116.597 125.776 116.545C125.9 116.494 126.034 116.467 126.169 116.468H197.831C198.103 116.468 198.364 116.577 198.556 116.769C198.748 116.962 198.855 117.223 198.855 117.495C198.855 117.766 198.748 118.027 198.556 118.22C198.364 118.412 198.103 118.521 197.831 118.521Z" fill="#E6E6E6"/>
<path d="M260.796 277.442L255.987 277.441L253.699 258.879L260.797 258.879L260.796 277.442Z" fill="#A0616A"/>
<path d="M260.965 282.462L246.177 282.462V282.275C246.177 280.747 246.784 279.282 247.863 278.202C248.943 277.122 250.407 276.515 251.933 276.515L254.635 274.464L259.675 276.515L260.966 276.515L260.965 282.462Z" fill="#2F2E41"/>
<path d="M300.111 271.28L295.802 273.416L285.518 257.799L291.878 254.646L300.111 271.28Z" fill="#A0616A"/>
<path d="M302.49 275.703L289.239 282.273L289.156 282.105C288.479 280.736 288.372 279.154 288.86 277.707C289.348 276.259 290.391 275.065 291.759 274.387L293.27 271.349L298.695 270.948L299.852 270.374L302.49 275.703Z" fill="#2F2E41"/>
<path d="M246.55 177.666C246.55 177.666 241.076 185.302 245.027 198.496C248.978 211.69 246.76 223.485 247.869 225.85C248.978 228.216 251.211 230.462 249.366 232.255C247.521 234.048 246.55 235.506 248.007 235.993C249.464 236.479 254.321 270.503 254.321 270.503L262.578 270.989C262.578 270.989 265.569 255.184 262.374 242.429C262.374 242.429 263.075 233.169 261.612 230.449C260.149 227.73 260.436 230.183 260.536 226.769C260.591 224.3 260.95 221.847 261.607 219.467C262.092 217.522 262.374 197.927 262.374 197.927L270.412 223.931C270.734 224.827 270.855 225.783 270.766 226.731C270.567 228.07 270.565 230.072 270.809 230.772C271.053 231.473 271.324 231.62 271.189 233.004C271.053 234.389 287.23 263.575 287.23 263.575L295.268 258.178L287.349 232.59C286.562 231.718 285.908 230.736 285.406 229.674C284.434 227.73 284.397 227.622 284.901 226.218C285.406 224.813 285.406 222.077 285.406 221.258C285.406 220.439 285.911 183.257 279.587 177.788C273.263 172.319 246.55 177.666 246.55 177.666Z" fill="#2F2E41"/>
<path d="M276.242 118.512L274.597 113.825L270.103 109.328L261.814 108.338L256.418 111.888L251.421 116.819L244.04 178.132C244.04 178.132 278.903 191.584 283.471 180.295L276.242 118.512Z" fill="#CCCCCC"/>
<path d="M279.069 118.512L274.226 113.666C274.226 113.666 271.913 144.638 272.899 146.816C273.884 148.994 275.045 148.438 273.79 149.616C272.536 150.793 271.188 149.625 272.536 151.783C273.33 152.993 273.72 154.424 273.649 155.87C273.649 155.87 280.625 199.811 284.669 199.811C288.713 199.811 291.245 198.626 291.103 197.419C290.96 196.213 288.574 193.209 289.318 192.463C290.061 191.716 291.894 192.28 290.079 190.874C288.264 189.467 287.365 189.917 287.814 188.118C288.264 186.319 284.828 163.001 284.828 163.001L284.493 124.05L279.069 118.512Z" fill="#3F3D56"/>
<path d="M256.418 111.888L250.147 112.776L242.692 115.624C242.692 115.624 246.097 154.065 245.386 155.352C244.675 156.639 243.412 155.835 244.493 157.137C245.574 158.438 246.546 157.861 245.386 159.049C244.225 160.237 242.272 158.732 243.474 160.834C244.675 162.935 238.886 191.87 240.445 193.422C242.003 194.974 246.019 194.008 246.021 192.862C245.898 191.627 245.432 190.451 244.675 189.467C244.458 189.218 244.338 188.899 244.338 188.568C244.338 188.237 244.458 187.918 244.675 187.669C245.312 187.056 245.749 186.265 245.93 185.4C246.023 184.521 246.709 183.441 247.04 182.632C247.371 181.822 255.704 127.053 255.704 127.053L256.418 111.888Z" fill="#3F3D56"/>
<path d="M229.66 142.156L232.488 140.678C228.957 137.491 220.195 132.275 220.195 132.275L205.093 122.087C204.872 121.566 204.517 121.113 204.066 120.772C203.614 120.432 203.08 120.217 202.519 120.149C201.958 120.08 201.388 120.161 200.868 120.383C200.348 120.605 199.895 120.96 199.556 121.412C199.216 121.865 199.002 122.399 198.934 122.961C198.867 123.523 198.948 124.092 199.171 124.613C199.393 125.133 199.748 125.586 200.201 125.925C200.654 126.264 201.188 126.478 201.749 126.545L218.673 141.718L229.66 142.156Z" fill="#A0616A"/>
<path d="M250.331 130.913L250.362 118.486L243.463 115.185L226.065 133.611L224.717 132.712H221.571L213.932 141.706C213.932 141.706 218.001 144.119 220.011 143.137C222.021 142.156 221.832 143.566 221.832 143.566C222.13 143.941 222.546 144.205 223.012 144.315C223.478 144.425 223.968 144.374 224.402 144.171C226.065 143.505 229.21 145.304 229.21 145.304L250.331 130.913Z" fill="#3F3D56"/>
<path d="M266.865 105.482C272.421 105.482 276.924 100.975 276.924 95.4148C276.924 89.8549 272.421 85.3477 266.865 85.3477C261.309 85.3477 256.805 89.8549 256.805 95.4148C256.805 100.975 261.309 105.482 266.865 105.482Z" fill="#A0616A"/>
<path d="M279.009 97.9719C278.059 99.8318 276.784 101.507 275.245 102.917C274.803 103.42 274.239 103.8 273.608 104.022C273.291 104.126 272.947 104.114 272.637 103.991C272.327 103.867 272.07 103.638 271.911 103.344L271.725 103.089C272.264 102.924 272.773 102.673 273.231 102.344C273.459 102.179 273.643 101.961 273.77 101.71C273.897 101.458 273.962 101.18 273.959 100.899C273.943 100.617 273.818 100.353 273.611 100.162C273.405 99.9707 273.132 99.8671 272.85 99.8729C272.222 99.9477 271.66 100.682 271.097 100.399C270.642 100.168 270.707 99.5051 270.838 99.0049C271.538 96.3944 271.245 92.348 270.238 92.2066C269.236 92.0025 268.281 91.6115 267.424 91.0541C266.565 90.4958 265.607 90.1099 264.601 89.9179C264.529 89.9084 264.455 89.9032 264.377 89.8969C264.348 89.3586 264.255 88.8258 264.098 88.3101C263.989 88.8547 263.822 89.3861 263.6 89.8953C262.729 90.0142 261.849 90.0587 260.971 90.0284C260.034 89.9196 257.343 92.1033 257.323 91.8028C257.294 91.2645 257.2 90.7318 257.044 90.216C256.934 90.7606 256.767 91.292 256.546 91.8013C256.536 91.822 256.531 91.8396 256.521 91.8604C256.235 91.1622 256.153 90.3815 256.16 90.9646C255.559 87.2548 256.751 85.0213 259.793 82.8214C260.401 82.3363 261.121 82.0134 261.888 81.8831C262.271 81.8219 262.663 81.8604 263.026 81.9948C263.39 82.1293 263.713 82.3551 263.964 82.6507C265.132 82.0323 266.444 81.7378 267.764 81.7976C269.084 81.8575 270.364 82.2696 271.472 82.9911C273.66 84.4583 275.386 85.4344 275.095 88.058C277.169 88.2579 278.921 89.9251 279.577 91.9008C280.226 93.8798 279.889 96.0882 279.009 97.9719Z" fill="#2F2E41"/>
<path d="M291.849 150.428L284.632 149.394C282.191 153.478 281.324 164.35 281.324 164.35L274.261 181.15C273.793 181.468 273.417 181.904 273.171 182.413C272.925 182.923 272.817 183.488 272.859 184.052C272.901 184.617 273.09 185.16 273.409 185.628C273.727 186.096 274.163 186.471 274.672 186.717C275.182 186.962 275.747 187.069 276.31 187.027C276.874 186.984 277.417 186.794 277.884 186.475C278.351 186.156 278.726 185.719 278.971 185.209C279.216 184.699 279.322 184.134 279.279 183.569L290.876 164.015L291.849 150.428Z" fill="#A0616A"/>
<path d="M275.232 125.384L278.29 121.169L284.491 124.053L289.649 143.962C289.649 143.962 293.415 146.415 292.612 148.145C291.808 149.876 291.381 151.272 292.211 152.263C293.042 153.255 295.461 153.328 293.659 154.944C291.857 156.561 293.4 160.785 293.4 160.785L291.673 164.641L280.888 164.191L275.232 125.384Z" fill="#3F3D56"/>
<path d="M25.7972 187.133C26.478 186.598 26.9234 185.819 27.0388 184.961C27.1542 184.102 26.9304 183.233 26.4151 182.537C26.3081 182.398 26.1898 182.267 26.0612 182.147L30.6664 171.505L26.0926 167.267L21.3591 182.527C20.9023 183.099 20.6475 183.806 20.6346 184.538C20.6216 185.27 20.8511 185.986 21.2873 186.574C21.5388 186.906 21.8531 187.185 22.2123 187.395C22.5716 187.606 22.9688 187.744 23.3812 187.8C23.7936 187.857 24.2131 187.832 24.6159 187.727C25.0186 187.622 25.3967 187.438 25.7285 187.186C25.7517 187.169 25.7746 187.151 25.7972 187.133Z" fill="#FFB6B6"/>
<path d="M52.5514 118.097C52.5514 118.097 49.1424 111.612 41.2345 118.615C33.3265 125.619 23.9817 160.675 24.1632 161.993C24.3446 163.311 26.2775 162.79 23.8327 164.688C21.3879 166.585 20.0362 164.88 21.3879 166.585C22.7397 168.29 25.7626 170.096 23.086 170.35C20.4095 170.603 30.2214 174.828 30.2214 174.828C30.2214 174.828 31.7647 174.457 32.2382 170.893C32.5041 168.892 31.603 167.755 33.1893 167.422C34.7757 167.088 33.2887 163.469 33.5171 162.899C33.7455 162.329 46.412 137.455 46.412 137.455L52.5514 118.097Z" fill="#501F6B"/>
<path d="M68.1193 276.484L73.8451 276.484L76.5697 254.379L68.1179 254.379L68.1193 276.484Z" fill="#FFB6B6"/>
<path d="M67.9173 282.462L85.5272 282.462V282.239C85.5271 280.42 84.8049 278.675 83.5195 277.389C82.2341 276.102 80.4908 275.38 78.673 275.38H78.6725L75.4558 272.938L69.4542 275.38L67.917 275.38L67.9173 282.462Z" fill="#2F2E41"/>
<path d="M27.9805 265.943L32.6647 269.239L47.5991 252.725L40.6846 247.86L27.9805 265.943Z" fill="#FFB6B6"/>
<path d="M24.3794 270.717L38.7849 280.854L38.913 280.671C39.9585 279.183 40.3705 277.34 40.0584 275.548C39.7463 273.756 38.7356 272.161 37.2487 271.115L36.0207 267.265L29.7074 265.809L28.4499 264.924L24.3794 270.717Z" fill="#2F2E41"/>
<path d="M45.3027 166.514L44.8269 167.532C41.6993 174.218 40.8996 181.693 42.115 188.975C42.2054 189.26 42.1881 189.567 42.0665 189.839C41.3127 190.724 42.4954 194.568 43.1733 196.715L43.7843 200.51C43.7843 200.51 42.7711 204.036 44.31 203.776C45.8489 203.517 43.5573 207.278 45.0252 208.22L48.8332 231.875L32.9463 258.078L38.8303 266.616L62.3664 236.291L62.6606 208.911L66.191 230.992L66.4853 265.733L77.1897 264.594L81.1116 230.912L77.3707 184.331L71.4867 164.135L45.3027 166.514Z" fill="#2F2E41"/>
<path d="M52.6577 105.869L61.3176 106.282L65.4588 113.441C67.2952 113.993 68.9844 114.95 70.4017 116.242C71.8191 117.534 72.9283 119.128 73.6477 120.906L76.3443 127.573L73.2766 166.121C73.2766 166.121 72.6618 168.452 73.794 168.112C74.9262 167.771 74.4647 170.693 74.4647 170.693L78.6376 186.755L40.6987 183.453L42.8053 166.436C42.8053 166.436 39.8764 166.531 41.9358 164.47C43.9952 162.409 44.9968 163.066 43.0184 160.629C41.0401 158.193 40.7459 156.426 40.7459 156.426L39.8633 144.355L38.4082 127.367C38.1773 124.671 38.6196 121.96 39.6953 119.478C40.7709 116.996 42.4462 114.82 44.5705 113.147L52.6577 105.869Z" fill="#501F6B"/>
<path d="M57.1481 103.881C63.2135 103.881 68.1305 98.9607 68.1305 92.8908C68.1305 86.821 63.2135 81.9004 57.1481 81.9004C51.0827 81.9004 46.1658 86.821 46.1658 92.8908C46.1658 98.9607 51.0827 103.881 57.1481 103.881Z" fill="#FFB6B6"/>
<path d="M52.9047 102.98C56.0562 102.877 56.3425 102.044 59.494 101.94C60.4975 101.907 61.6816 101.769 62.1668 100.89C62.308 100.56 62.3709 100.202 62.3505 99.8444C62.3301 99.4864 62.2269 99.138 62.0492 98.8266C61.6896 98.2085 61.3655 97.5704 61.0783 96.9154C60.9054 96.4017 60.86 95.8536 60.9462 95.3185C61.0323 94.7833 61.2474 94.2772 61.5728 93.8439C61.8982 93.4106 62.3242 93.0631 62.8139 92.8315C63.3036 92.5998 63.8423 92.491 64.3834 92.5144C65.3425 92.5559 66.2432 93.0072 67.1996 93.0897C68.5112 93.2028 71.4116 88.8689 70.8077 87.6982C70.2199 86.5587 69.0369 85.6989 68.851 84.43C68.7294 83.6002 69.0717 82.7756 69.1185 81.9381C69.1878 80.6964 66.0425 83.4962 66.6185 82.3942C68.0315 79.6909 54.7159 76.3395 52.5237 79.7257C51.7044 80.9912 50.2443 80.9049 48.9428 81.6649C48.0899 82.163 45.936 83.8816 45.4463 84.9527C44.9964 86.0457 44.7838 87.2219 44.8226 88.4033C44.8029 93.8979 45.6394 98.952 50.0681 102.2" fill="#2F2E41"/>
<path d="M84.0824 186.661C83.4348 186.086 83.0366 185.282 82.9726 184.418C82.9086 183.555 83.1838 182.7 83.7397 182.037C83.8548 181.904 83.9808 181.78 84.1162 181.668L80.1541 170.77L84.9725 166.812L88.7873 182.329C89.2092 182.927 89.4213 183.648 89.3906 184.379C89.3599 185.111 89.0881 185.812 88.6176 186.372C88.3468 186.689 88.0164 186.949 87.6452 187.137C87.274 187.326 86.8693 187.44 86.4543 187.472C86.0392 187.504 85.6219 187.454 85.2262 187.325C84.8304 187.195 84.464 186.989 84.1478 186.718C84.1257 186.699 84.104 186.68 84.0824 186.661Z" fill="#FFB6B6"/>
<path d="M61.4937 116.15C61.4937 116.15 65.2833 109.88 72.7595 117.343C80.2356 124.807 87.4725 160.359 87.2128 161.664C86.953 162.968 85.0547 162.333 87.3819 164.373C89.7091 166.413 91.1602 164.792 89.7091 166.413C88.2581 168.034 85.1329 169.656 87.7895 170.069C90.4462 170.482 80.3997 174.113 80.3997 174.113C80.3997 174.113 78.8813 173.651 78.6212 170.065C78.4752 168.052 79.4425 166.971 77.8789 166.543C76.3152 166.115 78.0154 162.591 77.8215 162.009C77.6275 161.427 66.4673 135.839 66.4673 135.839L61.4937 116.15Z" fill="#501F6B"/>
<path d="M0.750002 282.715C0.749793 282.785 0.763485 282.855 0.790286 282.92C0.817088 282.985 0.856466 283.044 0.906167 283.094C0.955868 283.143 1.01491 283.183 1.07989 283.21C1.14486 283.236 1.2145 283.25 1.28478 283.25H322.715C322.857 283.25 322.993 283.194 323.093 283.093C323.194 282.993 323.25 282.857 323.25 282.715C323.25 282.573 323.194 282.437 323.093 282.336C322.993 282.236 322.857 282.18 322.715 282.18H1.28478C1.2145 282.179 1.14486 282.193 1.07989 282.22C1.01491 282.247 0.955874 282.286 0.906174 282.336C0.856474 282.386 0.817089 282.445 0.790286 282.51C0.763484 282.575 0.749795 282.644 0.750002 282.715Z" fill="#CCCCCC"/>
<path d="M179.25 52.2463C179.251 55.5121 178.284 58.7048 176.472 61.4206C174.659 64.1365 172.083 66.2535 169.068 67.504C166.053 68.7546 162.736 69.0824 159.535 68.446C156.334 67.8097 153.394 66.2378 151.086 63.9291C148.778 61.6205 147.205 58.6787 146.568 55.4758C145.93 52.2729 146.256 48.9528 147.504 45.9353C148.753 42.9178 150.867 40.3384 153.58 38.5234C156.293 36.7083 159.482 35.7391 162.746 35.7383C164.913 35.7354 167.06 36.1604 169.063 36.9888C171.066 37.8173 172.887 39.033 174.42 40.5664C175.953 42.0998 177.168 43.9207 177.997 45.9249C178.826 47.9291 179.252 50.0772 179.25 52.2463Z" fill="#501F6B"/>
<g clip-path="url(#clip0_137_1290)">
<path d="M162.75 41.9375V62.5625M167.438 45.6875H160.406C159.536 45.6875 158.701 46.0332 158.086 46.6486C157.471 47.2639 157.125 48.0985 157.125 48.9688C157.125 49.839 157.471 50.6736 158.086 51.2889C158.701 51.9043 159.536 52.25 160.406 52.25H165.094C165.964 52.25 166.799 52.5957 167.414 53.2111C168.029 53.8264 168.375 54.661 168.375 55.5312C168.375 56.4015 168.029 57.2361 167.414 57.8514C166.799 58.4668 165.964 58.8125 165.094 58.8125H157.125" stroke="white" stroke-width="3" stroke-linecap="round" stroke-linejoin="round"/>
</g>
<defs>
<clipPath id="clip0_137_1290">
<rect width="22.5" height="22.5" fill="white" transform="translate(151.5 41)"/>
</clipPath>
</defs>
</svg>
