<?xml version="1.0" encoding="UTF-8"?><svg id="Layer_1" xmlns="http://www.w3.org/2000/svg" viewBox="0 0 1032.45 133.79"><g isolation="isolate"><text transform="translate(40.96 97.98)" fill="#fff" font-family="FuturaPT-Demi, &apos;Futura PT&apos;" font-size="79.19" font-weight="300" isolation="isolate" letter-spacing=".06em"><tspan x="0" y="0">G</tspan></text><text transform="translate(105.32 97.98)" fill="#fff" font-family="FuturaPT-Demi, &apos;Futura PT&apos;" font-size="79.19" font-weight="300" isolation="isolate" letter-spacing=".1em"><tspan x="0" y="0">R</tspan></text><text transform="translate(155.54 97.98)" fill="#fff" font-family="FuturaPT-Demi, &apos;Futura PT&apos;" font-size="79.19" font-weight="300" isolation="isolate" letter-spacing=".07em"><tspan x="0" y="0">A</tspan></text><text transform="translate(212.85 97.98)" fill="#fff" font-family="FuturaPT-Demi, &apos;Futura PT&apos;" font-size="79.19" font-weight="300" isolation="isolate" letter-spacing=".06em"><tspan x="0" y="0">P</tspan></text><text transform="translate(255.32 97.98)" fill="#fff" font-family="FuturaPT-Demi, &apos;Futura PT&apos;" font-size="79.19" font-weight="300" isolation="isolate" letter-spacing=".08em"><tspan x="0" y="0">E</tspan></text><text transform="translate(301.45 97.98)" fill="#fff" font-family="FuturaPT-Demi, &apos;Futura PT&apos;" font-size="79.19" font-weight="300" isolation="isolate" letter-spacing=".07em"><tspan x="0" y="0">V</tspan></text><text transform="translate(354.34 97.98)" fill="#fff" font-family="FuturaPT-Demi, &apos;Futura PT&apos;" font-size="79.19" font-weight="300" isolation="isolate" letter-spacing=".07em" opacity="0"><tspan x="0" y="0">I</tspan></text><text transform="translate(380.42 97.98)" fill="#fff" font-family="FuturaPT-Demi, &apos;Futura PT&apos;" font-size="79.19" font-weight="300" isolation="isolate" letter-spacing=".07em"><tspan x="0" y="0">N</tspan></text><text transform="translate(444.96 97.98)" fill="#fff" font-family="FuturaPT-Demi, &apos;Futura PT&apos;" font-size="79.19" font-weight="300" isolation="isolate" letter-spacing=".08em"><tspan x="0" y="0">E</tspan></text><text transform="translate(490.9 97.98)" fill="#fff" font-family="BebasKai, &apos;Bebas Kai&apos;" font-size="79.19" isolation="isolate" letter-spacing=".1em"><tspan x="0" y="0"> </tspan></text><text transform="translate(513.86 97.98)" fill="#fff" font-family="FuturaPT-Book, &apos;Futura PT&apos;" font-size="79.19" isolation="isolate"><tspan x="0" y="0">CONFERENCE</tspan></text><text transform="translate(513.86 97.98)" fill="#fff" font-family="FuturaPT-Book, &apos;Futura PT&apos;" font-size="79.19" isolation="isolate"><tspan x="0" y="0">CONFERENCE</tspan></text></g><path d="M355.91,34.87c10.62,6.17,14.97,20.34,11.22,31.91-.8,2.69-1.97,5.42-2.72,8.12-.96,3.27-1.81,6.51-1.75,9.83.28,4.8,1.78,9.5,5.04,13.25-5.33-2.96-8.41-9.12-8.78-15.24-.1-5.4,1.31-10.4,3.04-15.38,4.22-11.07,1.77-23.59-6.05-32.49h0Z" fill="#fff"/><path d="M364.76,32.68c-6.12.11-9.83-7.48-5.62-12.21,2.75-3.35,8.5-3.36,11.25,0,4.21,4.74.5,12.34-5.63,12.22h0ZM364.76,32.68c7.82-.27,7.64-11.38,0-11.6-7.65.21-7.83,11.33,0,11.6h0Z" fill="#fff"/><path d="M366.19,69.1s.04.2.07.2c0-.01,0,.01,0-.03,0-.03-.01-.08-.03-.11-.02-.23-.72-.09-.49-.09-.12.19-.07-.15-.09-.23-.97-10.85,4.59-29.47,15.12-34.38l.27.29c-1.12,1.1-1.99,2.44-2.79,3.79-5.27,9.32-8.32,19.83-11.77,29.95-.1.25-.21.74-.37.96.15.01-.31.11-.32-.04-.01-.02-.02-.06-.02-.08,0-.08.03-.22.04-.3l.39.08h0Z" fill="#fff"/><path d="M360.62,65.76c-2.37-2.96-6.09-3.46-9.42-1.99l.63-1.45c.94,2.34,2.44,4.87,4.93,5.8.83.38,1.78.38,2.79.45-.88.45-1.92.8-3.02.7-3.82-.28-6.26-3.84-7.33-7.23,4.22-2.22,10.16-1.52,11.43,3.72h-.01Z" fill="#fff"/><path d="M377.14,41.63c5.02-1.77,6.6-7.34,6.13-12.16l1.21,1.05c-5.05.2-9.31,3.22-10.25,8.38-.16-1.3-.16-2.68.28-4,1.37-4.67,6.48-6.78,11.04-6.83.84,5.74-1.61,13.48-8.41,13.55h0Z" fill="#fff"/><path d="M346.52,97.44c5.16-2.85,8.26-7.41,10.53-12.68.35-.78.66-1.58,1.13-2.39.44,1.77.5,3.61.17,5.41-.86,5.4-6.08,10.68-11.82,9.67h0Z" fill="#fff"/></svg>