<?xml version="1.0" encoding="UTF-8"?><svg id="a" xmlns="http://www.w3.org/2000/svg" viewBox="0 0 1032.45 133.79"><path d="M378.07,39.38c9.46,5.5,13.35,18.13,10,28.45-.72,2.4-1.75,4.83-2.42,7.24-.86,2.92-1.61,5.81-1.56,8.77.25,4.28,1.58,8.47,4.49,11.81-4.75-2.64-7.5-8.13-7.83-13.59-.09-4.81,1.17-9.27,2.71-13.71,3.77-9.87,1.57-21.03-5.39-28.97h0Z" fill="#fff"/><path d="M385.96,37.42c-5.46.1-8.77-6.66-5.01-10.89,2.45-2.99,7.58-3,10.03,0,3.76,4.22.45,11-5.02,10.9h0ZM385.96,37.42c6.97-.24,6.81-10.14,0-10.34-6.82.19-6.98,10.1,0,10.34h0Z" fill="#fff"/><path d="M387.24,69.9s.04.18.06.18c0,0,0,0,0-.03,0-.03,0-.07-.03-.1-.02-.21-.64-.08-.44-.08-.11.17-.06-.13-.08-.21-.87-9.67,4.09-26.27,13.48-30.65l.24.26c-1,.98-1.77,2.17-2.49,3.38-4.7,8.31-7.42,17.68-10.49,26.7-.09.22-.19.66-.33.86.13,0-.28.1-.29-.04,0-.02-.02-.05-.02-.07,0-.07.03-.2.04-.27l.35.07h0Z" fill="#fff"/><path d="M382.27,66.92c-2.11-2.64-5.43-3.09-8.4-1.77l.56-1.3c.84,2.08,2.17,4.34,4.39,5.17.74.34,1.58.34,2.49.4-.79.4-1.71.72-2.69.63-3.41-.25-5.58-3.43-6.54-6.45,3.77-1.98,9.06-1.35,10.19,3.32h0Z" fill="#fff"/><path d="M397,45.4c4.47-1.57,5.89-6.54,5.47-10.84l1.08.94c-4.5.18-8.3,2.87-9.14,7.47-.14-1.16-.14-2.39.25-3.57,1.23-4.16,5.78-6.05,9.84-6.09.75,5.12-1.43,12.01-7.5,12.08h0Z" fill="#fff"/><path d="M369.69,95.16c4.6-2.54,7.36-6.6,9.38-11.31.31-.7.59-1.4,1.01-2.13.39,1.57.45,3.22.15,4.82-.77,4.81-5.42,9.52-10.54,8.62h0Z" fill="#fff"/><path d="M86.65,67.66h22.13v.58c0,3.25-.43,13.38-7.09,19.96-4.99,4.99-11.14,6.37-17.14,6.37s-12.22-1.23-17.5-6.51c-1.66-1.66-7.16-7.74-7.16-18.59,0-9.33,4.19-15.04,7.09-17.94,3.62-3.69,9.69-7.38,19.02-7.38,3.62,0,7.45.58,11.14,2.53,3.11,1.59,6.51,4.48,9.04,8.82l-8.17,4.41c-1.66-3.25-4.12-4.92-5.64-5.71-2.03-1.01-4.56-1.52-6.8-1.52-3.83,0-8.17,1.37-11.14,4.27-2.75,2.68-4.85,7.31-4.85,12.73,0,6.44,2.75,10.27,4.77,12.22,2.17,2.1,5.57,4.12,10.71,4.12,3.18,0,6.8-.87,9.47-2.89,1.88-1.45,3.76-3.91,4.56-7.38h-12.44v-8.1Z" fill="#fff"/><path d="M139.64,45.24c6.65,0,10.05,1.74,12.29,3.62,3.69,3.11,4.77,7.23,4.77,10.85,0,4.7-1.88,8.82-5.64,11.36-1.23.87-2.97,1.66-5.28,2.1l15.04,20.32h-11.72l-12.87-19.38h-1.16v19.38h-9.4v-48.24h13.96ZM135.09,67.44h2.68c1.81,0,9.26-.22,9.26-7.31s-7.38-7.23-9.11-7.23h-2.82v14.54Z" fill="#fff"/><path d="M206.76,83.35h-19.46l-4.27,10.13h-10.2l20.76-48.24h7.38l20.18,48.24h-10.13l-4.27-10.13ZM204.01,75.69l-6.87-17.36-6.87,17.36h13.74Z" fill="#fff"/><path d="M249.31,45.24c5.42,0,9.19.58,12.73,3.69,3.91,3.47,4.92,8.17,4.92,11.64,0,1.88-.29,7.09-3.98,10.78-2.68,2.68-6.65,4.27-12.22,4.27h-6.08v17.86h-9.4v-48.24h14.03ZM244.68,67.51h3.83c1.81,0,4.12,0,6.15-1.52,1.74-1.37,2.6-3.54,2.6-5.64,0-2.68-1.3-4.48-2.68-5.5-1.95-1.38-4.41-1.52-6.65-1.52h-3.25v14.18Z" fill="#fff"/><path d="M308.81,53.34h-17.36v10.78h16.63v8.1h-16.63v13.16h17.36v8.1h-26.76v-48.24h26.76v8.1Z" fill="#fff"/><path d="M332.32,45.24l12.87,32.4,12.87-32.4h10.27l-20.4,48.24h-5.64l-20.25-48.24h10.27Z" fill="#fff"/><path d="M409.64,93.48v-48.24h6.51l29.37,32.19v-32.19h9.4v48.24h-6.51l-29.36-32.26v32.26h-9.4Z" fill="#fff"/><path d="M501.33,53.34h-17.36v10.78h16.63v8.1h-16.63v13.16h17.36v8.1h-26.76v-48.24h26.76v8.1Z" fill="#fff"/><path d="M578.43,55.87c-1.52-1.52-3.83-3.33-6.29-4.48-2.53-1.16-5.5-1.88-8.32-1.88-11.14,0-19.38,8.97-19.38,20.11,0,13.09,10.63,19.67,19.46,19.67,3.25,0,6.44-.94,8.97-2.24,2.75-1.37,4.7-3.18,5.57-4.05v6.65c-5.35,3.83-10.92,4.7-14.54,4.7-14.32,0-24.95-10.85-24.95-24.81s10.78-25.1,25.24-25.1c2.89,0,8.46.36,14.25,4.77v6.65Z" fill="#fff"/><path d="M585.67,69.39c0-14.39,11.21-24.95,25.1-24.95s25.1,10.56,25.1,24.95-11.14,24.95-25.1,24.95-25.1-10.63-25.1-24.95ZM591.17,69.39c0,11.07,8.75,19.89,19.6,19.89s19.6-8.82,19.6-19.89-8.75-19.89-19.6-19.89-19.6,8.82-19.6,19.89Z" fill="#fff"/><path d="M645.7,93.48v-50.27l37.61,39.42v-37.39h5.35v50.41l-37.61-39.42v37.25h-5.35Z" fill="#fff"/><path d="M723.09,50.3h-16.63v14.25h16.06v5.06h-16.06v23.87h-5.35v-48.24h21.99v5.06Z" fill="#fff"/><path d="M757.52,50.3h-19.67v14.32h19.09v5.06h-19.09v18.73h19.67v5.06h-25.03v-48.24h25.03v5.06Z" fill="#fff"/><path d="M775.1,45.24c3.25,0,8.1.22,11.72,2.68,2.82,1.88,5.28,5.57,5.28,10.7,0,7.38-4.85,12.8-12.15,13.31l15.33,21.55h-6.51l-14.68-21.12h-1.37v21.12h-5.35v-48.24h7.74ZM772.71,67.59h3.4c6.65,0,10.63-3.18,10.63-8.82,0-2.68-.8-5.35-3.83-7.09-2.17-1.23-4.63-1.37-6.94-1.37h-3.25v17.29Z" fill="#fff"/><path d="M828.69,50.3h-19.67v14.32h19.09v5.06h-19.09v18.73h19.67v5.06h-25.03v-48.24h25.03v5.06Z" fill="#fff"/><path d="M838.53,93.48v-50.27l37.61,39.42v-37.39h5.35v50.41l-37.61-39.42v37.25h-5.35Z" fill="#fff"/><path d="M930.82,55.87c-1.52-1.52-3.83-3.33-6.29-4.48-2.53-1.16-5.5-1.88-8.32-1.88-11.14,0-19.38,8.97-19.38,20.11,0,13.09,10.63,19.67,19.46,19.67,3.25,0,6.44-.94,8.97-2.24,2.75-1.37,4.7-3.18,5.57-4.05v6.65c-5.35,3.83-10.92,4.7-14.54,4.7-14.32,0-24.95-10.85-24.95-24.81s10.78-25.1,25.24-25.1c2.89,0,8.46.36,14.25,4.77v6.65Z" fill="#fff"/><path d="M965.69,50.3h-19.67v14.32h19.09v5.06h-19.09v18.73h19.67v5.06h-25.03v-48.24h25.03v5.06Z" fill="#fff"/><text/></svg>